<?xml version="1.0" encoding="utf-8"?>
<!-- Generator: Adobe Illustrator 16.0.0, SVG Export Plug-In . SVG Version: 6.00 Build 0)  -->
<!DOCTYPE svg PUBLIC "-//W3C//DTD SVG 1.1//EN" "http://www.w3.org/Graphics/SVG/1.1/DTD/svg11.dtd">
<svg version="1.1" id="Layer_1" xmlns:svg="http://www.w3.org/2000/svg"
	 xmlns="http://www.w3.org/2000/svg" xmlns:xlink="http://www.w3.org/1999/xlink" x="0px" y="0px" width="474.075px"
	 height="449.922px" viewBox="0 0 474.075 449.922" enable-background="new 0 0 474.075 449.922" xml:space="preserve">
<g id="watermark">
	<g>
		<path fill="#8C8C8C" d="M366.258,447.594l-1.926-5.563h-0.035c0.018,0.214,0.033,0.427,0.045,0.64
			c0.012,0.184,0.021,0.375,0.027,0.574c0.008,0.203,0.012,0.385,0.012,0.551v3.8h-0.748v-6.355h1.199l1.791,5.181h0.025
			l1.799-5.181h1.201v6.354h-0.811v-3.854c0-0.15,0.004-0.324,0.01-0.519c0.006-0.193,0.014-0.38,0.021-0.557
			c0.012-0.207,0.02-0.416,0.029-0.625h-0.033l-1.943,5.555H366.258z"/>
		<path fill="#8C8C8C" d="M373.958,447.594l-0.16-0.661h-0.035c-0.094,0.132-0.189,0.243-0.285,0.339
			c-0.096,0.095-0.199,0.172-0.312,0.23c-0.113,0.062-0.24,0.106-0.379,0.136c-0.141,0.028-0.299,0.042-0.482,0.042
			c-0.199,0-0.383-0.025-0.551-0.084c-0.168-0.057-0.314-0.144-0.438-0.261c-0.123-0.116-0.221-0.265-0.289-0.443
			c-0.068-0.178-0.104-0.388-0.104-0.633c0-0.475,0.166-0.841,0.5-1.095c0.336-0.256,0.846-0.395,1.529-0.418l0.799-0.029v-0.301
			c0-0.193-0.021-0.356-0.062-0.486c-0.043-0.13-0.104-0.233-0.184-0.313s-0.178-0.138-0.295-0.172
			c-0.117-0.035-0.252-0.053-0.402-0.053c-0.24,0-0.465,0.034-0.672,0.104c-0.207,0.068-0.406,0.152-0.596,0.25l-0.279-0.593
			c0.213-0.117,0.453-0.218,0.717-0.298c0.264-0.079,0.541-0.12,0.83-0.12c0.297,0,0.551,0.028,0.768,0.09
			c0.217,0.059,0.395,0.15,0.535,0.28s0.246,0.294,0.314,0.493c0.07,0.199,0.105,0.44,0.105,0.727v3.269H373.958L373.958,447.594z
			 M372.506,447.043c0.18,0,0.342-0.028,0.492-0.084c0.148-0.055,0.281-0.138,0.391-0.249s0.195-0.252,0.258-0.422
			s0.094-0.369,0.094-0.599v-0.431l-0.621,0.03c-0.262,0.012-0.48,0.041-0.656,0.086c-0.174,0.047-0.316,0.113-0.422,0.193
			c-0.105,0.084-0.184,0.185-0.229,0.301c-0.047,0.117-0.068,0.25-0.068,0.397c0,0.269,0.068,0.462,0.211,0.586
			C372.094,446.98,372.278,447.043,372.506,447.043z"/>
		<path fill="#8C8C8C" d="M378.94,446.955h-0.033c-0.064,0.099-0.141,0.191-0.225,0.281c-0.086,0.088-0.184,0.165-0.297,0.23
			c-0.109,0.066-0.236,0.118-0.375,0.156c-0.139,0.037-0.295,0.056-0.471,0.056c-0.27,0-0.516-0.051-0.738-0.153
			c-0.223-0.105-0.416-0.263-0.574-0.47s-0.281-0.464-0.369-0.771c-0.086-0.31-0.129-0.664-0.129-1.069
			c0-0.408,0.043-0.767,0.129-1.076s0.209-0.566,0.369-0.773c0.158-0.209,0.352-0.367,0.574-0.474
			c0.223-0.104,0.471-0.157,0.738-0.157c0.172,0,0.328,0.02,0.467,0.057s0.264,0.088,0.375,0.152
			c0.113,0.062,0.211,0.137,0.297,0.221s0.164,0.172,0.229,0.266h0.051c-0.008-0.1-0.018-0.19-0.025-0.282
			c-0.006-0.074-0.012-0.152-0.018-0.232c-0.006-0.078-0.01-0.143-0.01-0.188v-1.897h0.793v6.763h-0.643L378.94,446.955z
			 M377.692,447.026c0.221,0,0.406-0.033,0.561-0.103c0.15-0.064,0.273-0.168,0.369-0.304c0.094-0.136,0.164-0.308,0.209-0.512
			s0.07-0.442,0.076-0.717v-0.177c0-0.292-0.02-0.552-0.059-0.78c-0.041-0.229-0.105-0.418-0.199-0.573
			c-0.096-0.154-0.221-0.271-0.377-0.352s-0.352-0.119-0.586-0.119c-0.391,0-0.68,0.157-0.861,0.475
			c-0.186,0.314-0.277,0.771-0.277,1.358c0,0.605,0.092,1.059,0.277,1.354C377.004,446.876,377.295,447.026,377.692,447.026z"/>
		<path fill="#8C8C8C" d="M383.094,447.68c-0.318,0-0.609-0.053-0.875-0.16c-0.262-0.105-0.488-0.264-0.68-0.469
			c-0.189-0.207-0.338-0.461-0.441-0.766c-0.104-0.307-0.156-0.651-0.156-1.045c0-0.395,0.049-0.744,0.145-1.056
			c0.096-0.311,0.229-0.573,0.404-0.788c0.174-0.217,0.383-0.382,0.623-0.492c0.242-0.113,0.51-0.17,0.803-0.17
			c0.287,0,0.545,0.051,0.771,0.152c0.229,0.104,0.424,0.248,0.584,0.436c0.158,0.188,0.281,0.412,0.365,0.674
			c0.088,0.263,0.131,0.554,0.131,0.873v0.49h-3.008c0.016,0.559,0.133,0.971,0.354,1.233c0.223,0.264,0.551,0.396,0.988,0.396
			c0.148,0,0.283-0.008,0.41-0.021c0.125-0.013,0.248-0.035,0.365-0.062c0.117-0.026,0.23-0.063,0.342-0.104
			s0.223-0.089,0.334-0.142v0.704c-0.115,0.055-0.229,0.104-0.342,0.144c-0.111,0.041-0.225,0.074-0.342,0.103
			c-0.117,0.023-0.24,0.045-0.365,0.056C383.377,447.676,383.243,447.68,383.094,447.68z M382.899,443.392
			c-0.33,0-0.592,0.112-0.783,0.34c-0.193,0.227-0.307,0.555-0.338,0.984h2.141c0-0.196-0.021-0.378-0.061-0.541
			c-0.039-0.164-0.1-0.304-0.184-0.419c-0.082-0.115-0.186-0.205-0.314-0.27C383.233,443.422,383.079,443.392,382.899,443.392z"/>
		<path fill="#8C8C8C" d="M391.909,447.594l-0.73-2.678c-0.012-0.053-0.025-0.111-0.043-0.176c-0.018-0.065-0.035-0.137-0.051-0.207
			c-0.02-0.072-0.037-0.146-0.055-0.224c-0.021-0.073-0.037-0.147-0.057-0.222c-0.041-0.169-0.082-0.341-0.125-0.521h-0.023
			c-0.041,0.182-0.08,0.355-0.117,0.523c-0.033,0.146-0.066,0.294-0.104,0.448c-0.037,0.152-0.07,0.283-0.104,0.391l-0.75,2.66
			h-0.918l-1.221-4.771h0.83l0.57,2.539c0.029,0.129,0.059,0.27,0.086,0.423c0.027,0.15,0.057,0.303,0.082,0.452
			c0.025,0.147,0.051,0.288,0.07,0.421c0.02,0.132,0.037,0.237,0.049,0.321h0.025c0.014-0.073,0.033-0.177,0.059-0.302
			c0.025-0.126,0.053-0.26,0.082-0.398c0.031-0.142,0.064-0.28,0.094-0.417c0.031-0.14,0.062-0.255,0.092-0.352l0.777-2.689h0.854
			l0.748,2.689c0.023,0.099,0.055,0.215,0.088,0.349c0.033,0.135,0.064,0.27,0.098,0.406c0.033,0.14,0.062,0.271,0.088,0.397
			c0.025,0.127,0.045,0.23,0.057,0.314h0.025c0.01-0.073,0.021-0.177,0.041-0.302c0.021-0.126,0.043-0.265,0.068-0.415
			c0.023-0.148,0.053-0.306,0.084-0.464c0.029-0.157,0.061-0.306,0.094-0.44l0.596-2.531h0.809l-1.234,4.771h-0.934V447.594z"/>
		<path fill="#8C8C8C" d="M394.864,441.531c0-0.175,0.045-0.3,0.133-0.379c0.088-0.078,0.197-0.117,0.328-0.117
			c0.062,0,0.123,0.011,0.18,0.028c0.057,0.019,0.105,0.049,0.148,0.089c0.041,0.041,0.074,0.092,0.1,0.153
			c0.023,0.063,0.037,0.138,0.037,0.225c0,0.168-0.045,0.293-0.137,0.376s-0.201,0.123-0.328,0.123c-0.131,0-0.24-0.04-0.328-0.12
			C394.909,441.828,394.864,441.701,394.864,441.531z M395.715,447.594h-0.791v-4.772h0.791V447.594z"/>
		<path fill="#8C8C8C" d="M398.67,447.033c0.053,0,0.111-0.003,0.176-0.01c0.066-0.007,0.129-0.014,0.189-0.021
			c0.061-0.009,0.117-0.019,0.168-0.031c0.051-0.011,0.088-0.021,0.115-0.027v0.6c-0.037,0.017-0.086,0.035-0.145,0.052
			c-0.059,0.019-0.123,0.033-0.191,0.046c-0.068,0.016-0.143,0.022-0.217,0.03s-0.148,0.011-0.221,0.011
			c-0.18,0-0.348-0.021-0.5-0.067c-0.154-0.048-0.287-0.126-0.396-0.239c-0.111-0.112-0.199-0.267-0.264-0.458
			c-0.062-0.192-0.096-0.438-0.096-0.729v-2.771h-0.674v-0.352l0.674-0.34l0.338-0.999h0.457v1.097h1.199v0.596h-1.199v2.77
			c0,0.28,0.045,0.491,0.137,0.636C398.313,446.962,398.461,447.033,398.67,447.033z"/>
		<path fill="#8C8C8C" d="M403.227,447.594v-3.072c0-0.378-0.076-0.659-0.229-0.849c-0.152-0.188-0.391-0.282-0.715-0.282
			c-0.234,0-0.434,0.037-0.592,0.111c-0.158,0.076-0.287,0.188-0.385,0.336c-0.098,0.148-0.166,0.328-0.209,0.544
			c-0.041,0.214-0.062,0.461-0.062,0.739v2.473h-0.791v-6.763h0.791v2.008l-0.033,0.626h0.043c0.072-0.124,0.158-0.231,0.258-0.323
			c0.102-0.091,0.209-0.167,0.328-0.229s0.246-0.104,0.379-0.135c0.133-0.027,0.27-0.043,0.408-0.043
			c0.531,0,0.93,0.139,1.197,0.416c0.268,0.274,0.4,0.719,0.4,1.325v3.117H403.227L403.227,447.594z"/>
	</g>
	<g>
		<path fill="#8C8C8C" d="M424.987,447.578h-1.324v-6.354h3.641v1.104h-2.314v1.639h2.156v1.101h-2.156L424.987,447.578
			L424.987,447.578z"/>
		<path fill="#8C8C8C" d="M431.02,442.628c0.033,0,0.072,0.002,0.115,0.002c0.041,0.002,0.082,0.006,0.119,0.01
			c0.041,0.005,0.076,0.01,0.111,0.015c0.031,0.004,0.059,0.01,0.074,0.016v1.244c-0.021-0.008-0.057-0.012-0.096-0.018
			c-0.039-0.008-0.082-0.013-0.127-0.019c-0.045-0.004-0.09-0.006-0.133-0.008c-0.045-0.002-0.08-0.002-0.107-0.002
			c-0.172,0-0.328,0.021-0.473,0.063c-0.146,0.043-0.27,0.113-0.371,0.211c-0.1,0.099-0.182,0.226-0.238,0.384
			c-0.057,0.156-0.084,0.352-0.084,0.581v2.474h-1.326v-4.862h1.006l0.193,0.73h0.066c0.068-0.125,0.145-0.238,0.227-0.34
			c0.08-0.104,0.172-0.189,0.271-0.26s0.211-0.126,0.338-0.165C430.711,442.648,430.858,442.628,431.02,442.628z"/>
		<path fill="#8C8C8C" d="M432.336,441.463c0-0.125,0.02-0.228,0.057-0.311c0.037-0.084,0.09-0.15,0.154-0.2
			c0.064-0.051,0.143-0.086,0.229-0.106c0.088-0.02,0.184-0.029,0.281-0.029c0.1,0,0.191,0.01,0.277,0.029
			c0.088,0.021,0.164,0.056,0.229,0.106c0.066,0.05,0.117,0.116,0.156,0.2c0.039,0.083,0.059,0.186,0.059,0.311
			c0,0.122-0.02,0.226-0.059,0.31s-0.09,0.15-0.156,0.202c-0.062,0.051-0.143,0.086-0.229,0.108
			c-0.086,0.021-0.18,0.032-0.277,0.032c-0.1,0-0.191-0.012-0.281-0.032c-0.088-0.021-0.164-0.059-0.229-0.108
			c-0.064-0.051-0.117-0.118-0.154-0.202C432.356,441.688,432.336,441.585,432.336,441.463z M433.719,447.578h-1.324v-4.859h1.324
			V447.578z"/>
		<path fill="#8C8C8C" d="M437.127,446.609c0.131,0,0.254-0.017,0.371-0.045c0.117-0.027,0.236-0.064,0.357-0.107v0.986
			c-0.123,0.062-0.277,0.115-0.463,0.156c-0.184,0.042-0.385,0.063-0.604,0.063c-0.211,0-0.408-0.024-0.59-0.073
			c-0.186-0.05-0.342-0.137-0.477-0.259c-0.133-0.123-0.236-0.288-0.312-0.495c-0.076-0.208-0.113-0.468-0.113-0.781v-2.341h-0.637
			v-0.561l0.729-0.443l0.385-1.024h0.848v1.034h1.184v0.995h-1.184v2.343c0,0.188,0.047,0.327,0.141,0.417
			S436.977,446.609,437.127,446.609z"/>
		<path fill="#8C8C8C" d="M442,447.578h-3.572v-0.781l1.984-3.063h-1.852v-1.015h3.354v0.859l-1.92,2.984h2.004L442,447.578
			L442,447.578z"/>
		<path fill="#8C8C8C" d="M442.94,441.463c0-0.125,0.02-0.228,0.057-0.311c0.039-0.084,0.09-0.15,0.154-0.2
			c0.064-0.051,0.143-0.086,0.229-0.106c0.086-0.02,0.184-0.029,0.281-0.029s0.189,0.01,0.277,0.029
			c0.088,0.021,0.164,0.056,0.229,0.106c0.064,0.05,0.117,0.116,0.156,0.2c0.037,0.083,0.059,0.186,0.059,0.311
			c0,0.122-0.021,0.226-0.059,0.31c-0.039,0.084-0.092,0.15-0.156,0.202c-0.064,0.051-0.143,0.086-0.229,0.108
			c-0.086,0.021-0.182,0.032-0.277,0.032c-0.1,0-0.193-0.012-0.281-0.032s-0.164-0.059-0.229-0.108
			c-0.064-0.051-0.115-0.118-0.154-0.202C442.959,441.688,442.94,441.585,442.94,441.463z M444.323,447.578h-1.324v-4.859h1.324
			V447.578z"/>
		<path fill="#8C8C8C" d="M449.971,447.578h-1.322v-2.839c0-0.352-0.055-0.613-0.158-0.787c-0.105-0.176-0.275-0.265-0.508-0.265
			c-0.174,0-0.318,0.034-0.436,0.104c-0.115,0.07-0.209,0.173-0.275,0.31s-0.115,0.305-0.146,0.505
			c-0.029,0.199-0.043,0.429-0.043,0.687v2.286h-1.324v-4.859h1.012l0.182,0.621h0.072c0.068-0.124,0.152-0.229,0.254-0.321
			c0.102-0.089,0.209-0.162,0.328-0.221c0.117-0.058,0.244-0.103,0.377-0.128c0.137-0.028,0.271-0.043,0.408-0.043
			c0.238,0,0.455,0.033,0.648,0.104c0.193,0.066,0.359,0.174,0.5,0.317c0.141,0.146,0.246,0.328,0.32,0.555
			c0.076,0.226,0.113,0.492,0.113,0.808v3.168L449.971,447.578L449.971,447.578z"/>
		<path fill="#8C8C8C" d="M455.403,442.728v0.723l-0.709,0.221c0.059,0.101,0.1,0.201,0.123,0.308
			c0.02,0.106,0.031,0.221,0.031,0.344c0,0.246-0.037,0.471-0.115,0.676c-0.078,0.203-0.193,0.379-0.35,0.521
			c-0.15,0.146-0.346,0.259-0.578,0.338c-0.229,0.079-0.5,0.118-0.807,0.118c-0.068,0-0.141-0.003-0.219-0.012
			c-0.078-0.007-0.137-0.015-0.174-0.021c-0.059,0.049-0.105,0.101-0.139,0.151c-0.031,0.055-0.049,0.117-0.049,0.193
			c0,0.061,0.02,0.108,0.057,0.146c0.037,0.038,0.088,0.065,0.146,0.088c0.061,0.021,0.133,0.035,0.215,0.044
			c0.08,0.008,0.164,0.012,0.25,0.012h0.756c0.236,0,0.447,0.024,0.631,0.081c0.188,0.055,0.344,0.135,0.473,0.246
			c0.129,0.108,0.229,0.249,0.299,0.419c0.07,0.169,0.104,0.372,0.104,0.604c0,0.275-0.053,0.523-0.162,0.745
			c-0.109,0.225-0.275,0.41-0.494,0.565c-0.221,0.153-0.488,0.272-0.814,0.354c-0.324,0.082-0.699,0.123-1.125,0.123
			c-0.33,0-0.619-0.031-0.865-0.094c-0.246-0.063-0.449-0.15-0.615-0.271c-0.166-0.115-0.289-0.258-0.371-0.424
			c-0.084-0.164-0.125-0.353-0.125-0.561c0-0.177,0.029-0.33,0.092-0.46c0.061-0.131,0.143-0.243,0.244-0.336
			s0.217-0.168,0.346-0.228c0.129-0.058,0.262-0.103,0.396-0.134c-0.061-0.026-0.119-0.062-0.182-0.109
			c-0.059-0.047-0.111-0.1-0.16-0.158c-0.047-0.063-0.086-0.129-0.115-0.203c-0.031-0.072-0.049-0.15-0.049-0.23
			c0-0.093,0.016-0.178,0.041-0.252c0.029-0.076,0.068-0.146,0.119-0.212c0.053-0.063,0.117-0.126,0.197-0.184
			c0.078-0.061,0.166-0.117,0.264-0.181c-0.254-0.109-0.457-0.287-0.604-0.529c-0.15-0.244-0.227-0.529-0.227-0.859
			c0-0.26,0.041-0.494,0.121-0.699c0.082-0.207,0.201-0.381,0.357-0.522c0.154-0.145,0.35-0.252,0.582-0.328
			c0.23-0.076,0.498-0.113,0.801-0.113c0.057,0,0.121,0.004,0.193,0.012c0.072,0.009,0.145,0.019,0.217,0.025
			c0.07,0.01,0.137,0.021,0.195,0.033c0.061,0.01,0.109,0.021,0.146,0.028H455.403L455.403,442.728z M451.924,448.265
			c0,0.073,0.018,0.146,0.047,0.211c0.031,0.068,0.08,0.13,0.15,0.183c0.068,0.052,0.16,0.094,0.273,0.124
			c0.111,0.03,0.252,0.046,0.416,0.046c0.451,0,0.793-0.063,1.021-0.191c0.229-0.127,0.342-0.298,0.342-0.514
			c0-0.183-0.068-0.304-0.213-0.364c-0.143-0.06-0.361-0.091-0.66-0.091h-0.611c-0.078,0-0.162,0.009-0.254,0.027
			c-0.09,0.018-0.172,0.052-0.246,0.099c-0.076,0.046-0.141,0.108-0.189,0.184C451.952,448.054,451.924,448.15,451.924,448.265z
			 M452.405,444.31c0,0.264,0.049,0.469,0.146,0.612c0.098,0.146,0.248,0.217,0.447,0.217c0.209,0,0.357-0.069,0.451-0.217
			c0.094-0.145,0.139-0.35,0.139-0.612c0-0.261-0.045-0.468-0.137-0.622c-0.092-0.151-0.242-0.229-0.453-0.229
			C452.602,443.458,452.405,443.741,452.405,444.31z"/>
		<path fill="#8C8C8C" d="M456.153,446.957c0-0.136,0.02-0.251,0.059-0.346c0.039-0.096,0.094-0.172,0.162-0.229
			c0.07-0.058,0.15-0.101,0.244-0.126c0.092-0.025,0.191-0.039,0.299-0.039c0.104,0,0.199,0.014,0.289,0.039
			c0.092,0.025,0.172,0.068,0.242,0.126c0.068,0.058,0.123,0.134,0.164,0.229c0.041,0.095,0.061,0.21,0.061,0.346
			c0,0.13-0.02,0.242-0.061,0.335s-0.096,0.17-0.164,0.229c-0.07,0.062-0.15,0.104-0.242,0.133c-0.09,0.026-0.188,0.042-0.289,0.042
			c-0.105,0-0.207-0.016-0.299-0.042c-0.094-0.027-0.174-0.071-0.244-0.133c-0.068-0.062-0.123-0.139-0.162-0.229
			C456.17,447.199,456.153,447.087,456.153,446.957z"/>
		<path fill="#8C8C8C" d="M463.112,445.139c0,0.406-0.053,0.768-0.154,1.079c-0.104,0.313-0.25,0.576-0.443,0.79
			c-0.191,0.215-0.428,0.378-0.703,0.489c-0.277,0.111-0.588,0.167-0.934,0.167c-0.32,0-0.617-0.056-0.885-0.167
			c-0.271-0.112-0.504-0.274-0.699-0.489c-0.195-0.214-0.35-0.479-0.457-0.79c-0.111-0.312-0.166-0.673-0.166-1.079
			c0-0.401,0.051-0.76,0.154-1.071c0.104-0.314,0.25-0.576,0.441-0.789c0.193-0.214,0.428-0.375,0.701-0.484
			c0.275-0.109,0.588-0.164,0.938-0.164c0.318,0,0.615,0.055,0.887,0.164c0.27,0.111,0.502,0.271,0.695,0.484
			c0.195,0.213,0.35,0.477,0.459,0.789C463.055,444.379,463.112,444.737,463.112,445.139z M460.026,445.139
			c0,0.484,0.066,0.852,0.205,1.094c0.137,0.245,0.355,0.367,0.664,0.367c0.305,0,0.523-0.123,0.658-0.369
			c0.139-0.245,0.205-0.608,0.205-1.092c0-0.482-0.066-0.846-0.205-1.084c-0.135-0.237-0.357-0.356-0.668-0.356
			c-0.305,0-0.521,0.119-0.658,0.356C460.092,444.294,460.026,444.657,460.026,445.139z"/>
		<path fill="#8C8C8C" d="M466.831,442.628c0.035,0,0.074,0.002,0.115,0.002c0.043,0.002,0.084,0.006,0.121,0.01
			c0.039,0.005,0.074,0.01,0.107,0.015c0.033,0.004,0.061,0.01,0.076,0.016v1.244c-0.021-0.008-0.055-0.012-0.094-0.018
			c-0.041-0.008-0.084-0.013-0.131-0.019c-0.045-0.004-0.088-0.006-0.131-0.008c-0.047-0.002-0.08-0.002-0.109-0.002
			c-0.17,0-0.328,0.021-0.473,0.063s-0.268,0.113-0.369,0.211c-0.104,0.099-0.184,0.226-0.238,0.384
			c-0.057,0.156-0.084,0.352-0.084,0.581v2.474h-1.326v-4.862h1.004l0.195,0.73h0.066c0.066-0.125,0.145-0.238,0.225-0.34
			c0.082-0.104,0.172-0.189,0.271-0.26c0.102-0.07,0.213-0.126,0.34-0.165C466.526,442.648,466.668,442.628,466.831,442.628z"/>
		<path fill="#8C8C8C" d="M472.139,442.728v0.723l-0.709,0.221c0.059,0.101,0.1,0.201,0.121,0.308
			c0.023,0.107,0.035,0.221,0.035,0.344c0,0.246-0.039,0.471-0.117,0.676c-0.078,0.203-0.193,0.379-0.348,0.521
			c-0.154,0.146-0.348,0.259-0.578,0.338c-0.232,0.079-0.502,0.118-0.809,0.118c-0.068,0-0.143-0.003-0.221-0.012
			c-0.076-0.007-0.135-0.015-0.172-0.021c-0.059,0.049-0.104,0.101-0.137,0.151c-0.035,0.055-0.051,0.117-0.051,0.193
			c0,0.061,0.02,0.108,0.057,0.146s0.086,0.065,0.146,0.088c0.062,0.021,0.133,0.035,0.215,0.044
			c0.08,0.008,0.164,0.012,0.252,0.012h0.756c0.234,0,0.445,0.024,0.629,0.081c0.188,0.055,0.344,0.135,0.473,0.246
			c0.129,0.108,0.229,0.249,0.299,0.419c0.068,0.169,0.104,0.372,0.104,0.604c0,0.275-0.055,0.523-0.166,0.745
			c-0.107,0.225-0.273,0.41-0.492,0.565c-0.219,0.153-0.488,0.272-0.814,0.354c-0.324,0.082-0.699,0.123-1.125,0.123
			c-0.33,0-0.617-0.031-0.865-0.094c-0.246-0.063-0.451-0.15-0.617-0.271c-0.164-0.115-0.287-0.258-0.371-0.424
			c-0.082-0.164-0.123-0.353-0.123-0.561c0-0.177,0.029-0.33,0.092-0.46c0.062-0.131,0.143-0.243,0.242-0.336
			c0.104-0.093,0.219-0.168,0.348-0.228c0.129-0.058,0.262-0.103,0.396-0.134c-0.061-0.026-0.121-0.062-0.182-0.109
			s-0.113-0.1-0.16-0.158c-0.047-0.063-0.086-0.129-0.117-0.203c-0.029-0.073-0.045-0.151-0.045-0.231
			c0-0.093,0.014-0.178,0.041-0.252c0.027-0.076,0.066-0.146,0.119-0.212c0.051-0.063,0.117-0.126,0.195-0.184
			c0.076-0.061,0.166-0.117,0.266-0.181c-0.256-0.108-0.457-0.287-0.607-0.528c-0.146-0.244-0.223-0.531-0.223-0.861
			c0-0.26,0.039-0.493,0.121-0.698c0.082-0.207,0.199-0.382,0.355-0.523c0.154-0.144,0.35-0.252,0.582-0.328
			c0.23-0.074,0.498-0.111,0.801-0.111c0.059,0,0.123,0.003,0.193,0.011c0.072,0.009,0.146,0.018,0.217,0.026
			s0.137,0.021,0.197,0.031c0.062,0.012,0.107,0.021,0.145,0.029L472.139,442.728L472.139,442.728z M468.663,448.265
			c0,0.073,0.018,0.146,0.047,0.211c0.031,0.068,0.08,0.13,0.148,0.183c0.07,0.052,0.162,0.094,0.273,0.124
			c0.113,0.03,0.252,0.046,0.418,0.046c0.451,0,0.791-0.063,1.021-0.191c0.229-0.127,0.342-0.298,0.342-0.514
			c0-0.183-0.07-0.304-0.213-0.364c-0.145-0.06-0.361-0.091-0.66-0.091h-0.613c-0.078,0-0.162,0.009-0.252,0.027
			s-0.172,0.052-0.248,0.099c-0.076,0.046-0.139,0.108-0.188,0.184C468.69,448.052,468.663,448.15,468.663,448.265z M469.139,444.31
			c0,0.264,0.051,0.469,0.148,0.612c0.1,0.146,0.248,0.217,0.447,0.217c0.209,0,0.357-0.069,0.451-0.217
			c0.094-0.145,0.141-0.35,0.141-0.612c0-0.261-0.045-0.468-0.137-0.622c-0.094-0.151-0.244-0.229-0.455-0.229
			C469.338,443.458,469.139,443.741,469.139,444.31z"/>
	</g>
	<g>
		<path fill="#8C8C8C" d="M417.733,439.848h-8.146c-0.531,0-0.965,0.433-0.965,0.964v8.146c0,0.531,0.434,0.964,0.965,0.964h5.551
			l3.557-3.558v-5.552C418.698,440.279,418.264,439.848,417.733,439.848z M416.055,443.577h-1.074v0.4h1.074v1.602h-2.195v2.058
			h-2.572v-4.67l0.988-0.99h3.779v1.604l0,0V443.577z"/>
	</g>
</g>
<g>
	<g transform="translate(411.53,295.926)">
		<g id="schematic">
			<rect id="connector0pin" x="50.758" y="0.103" width="8" height="1.601"/>
			<rect id="connector1pin" x="50.758" y="25.705" width="8" height="1.6"/>
			<rect id="connector2pin" x="0.586" y="0.107" width="8" height="1.6"/>
			<rect id="connector3pin" x="0.586" y="25.708" width="8" height="1.601"/>
			<g id="connector0terminal">
			</g>
			<g id="connector1terminal">
			</g>
			<g id="connector2terminal">
			</g>
			<g id="connector3terminal">
			</g>
			<path fill="none" stroke="#000000" stroke-width="1.6" stroke-linecap="round" d="M5.705,13.693"/>
			<path fill="none" stroke="#000000" stroke-width="1.6" stroke-linecap="round" d="M20.027,13.693"/>
			<polyline fill="none" stroke="#000000" stroke-width="1.6" stroke-linecap="round" stroke-linejoin="round" points="
				58.638,0.892 48.193,0.892 48.193,26.493 58.638,26.493 			"/>
			
				<line fill="none" stroke="#000000" stroke-width="1.6" stroke-linecap="round" x1="39.392" y1="13.693" x2="48.193" y2="13.693"/>
			<polyline fill="none" stroke="#000000" stroke-width="1.6" stroke-linecap="round" stroke-linejoin="round" points="
				0.783,26.493 11.226,26.493 11.226,0.892 0.783,0.892 			"/>
			<polyline fill="none" stroke="#000000" stroke-width="1.6" stroke-linecap="round" points="38.195,6.031 20.027,13.693 
				11.226,13.693 			"/>
		</g>
	</g>
</g>
<g>
	<g transform="translate(65.8236,23.5672)">
		<g id="schematic_1_">
			
				<rect x="22.46" y="22.46" fill="none" stroke="#000000" stroke-width="2.4" stroke-linecap="round" stroke-linejoin="round" width="233.858" height="361.418"/>
			<text id="label" transform="matrix(1 0 0 1 106.9313 64.9797)" font-family="'DroidSans'" font-size="18">Arduino</text>
			<text id="label_1_" transform="matrix(1 0 0 1 100.8229 86.2394)" font-family="'DroidSans'" font-size="18">Leonardo</text>
			
				<line fill="none" stroke="#000000" stroke-width="2.4" stroke-linecap="round" stroke-linejoin="round" x1="1.2" y1="64.98" x2="21.26" y2="64.98"/>
			<rect id="connector105pin" x="0" y="63.779" fill="none" width="21.26" height="2.4"/>
			<g id="connector105terminal">
			</g>
			<text id="label105" transform="matrix(1 0 0 1 27.7399 67.3791)" font-family="'DroidSans'" font-size="9.936">AREF</text>
			
				<line fill="none" stroke="#000000" stroke-width="2.4" stroke-linecap="round" stroke-linejoin="round" x1="1.2" y1="86.239" x2="21.26" y2="86.239"/>
			<rect id="connector86pin" x="0" y="85.039" fill="none" width="21.26" height="2.4"/>
			<g id="connector86terminal">
			</g>
			<text id="label86" transform="matrix(1 0 0 1 27.7399 88.6389)" font-family="'DroidSans'" font-size="9.936">RESET</text>
			
				<line fill="none" stroke="#000000" stroke-width="2.4" stroke-linecap="round" stroke-linejoin="round" x1="1.2" y1="107.499" x2="21.26" y2="107.499"/>
			<rect id="connector84pin" x="0" y="106.299" fill="none" width="21.26" height="2.4"/>
			<g id="connector84terminal">
			</g>
			<text id="label84" transform="matrix(1 0 0 1 27.7399 109.8986)" font-family="'DroidSans'" font-size="9.936">IOREF</text>
			
				<line fill="none" stroke="#000000" stroke-width="2.4" stroke-linecap="round" stroke-linejoin="round" x1="1.2" y1="128.759" x2="21.26" y2="128.759"/>
			<rect id="connector85pin" x="0" y="127.559" fill="none" width="21.26" height="2.4"/>
			<g id="connector85terminal">
			</g>
			<text id="label85" transform="matrix(1 0 0 1 27.7399 131.1594)" font-family="'DroidSans'" font-size="9.936">+5V</text>
			
				<line fill="none" stroke="#000000" stroke-width="2.4" stroke-linecap="round" stroke-linejoin="round" x1="1.2" y1="171.279" x2="21.26" y2="171.279"/>
			<rect id="connector92pin" x="0" y="170.078" fill="none" width="21.26" height="2.4"/>
			<g id="connector92terminal">
			</g>
			<text id="label92" transform="matrix(1 0 0 1 27.7399 173.6779)" font-family="'DroidSans'" font-size="9.936">A0</text>
			
				<line fill="none" stroke="#000000" stroke-width="2.4" stroke-linecap="round" stroke-linejoin="round" x1="1.2" y1="192.539" x2="21.26" y2="192.539"/>
			<rect id="connector93pin" x="0" y="191.339" fill="none" width="21.26" height="2.4"/>
			<g id="connector93terminal">
			</g>
			<text id="label93" transform="matrix(1 0 0 1 27.7399 194.9387)" font-family="'DroidSans'" font-size="9.936">A1</text>
			
				<line fill="none" stroke="#000000" stroke-width="2.4" stroke-linecap="round" stroke-linejoin="round" x1="1.2" y1="213.798" x2="21.26" y2="213.798"/>
			<rect id="connector94pin" x="0" y="212.599" fill="none" width="21.26" height="2.4"/>
			<g id="connector94terminal">
			</g>
			<text id="label94" transform="matrix(1 0 0 1 27.7399 216.1994)" font-family="'DroidSans'" font-size="9.936">A2</text>
			
				<line fill="none" stroke="#000000" stroke-width="2.4" stroke-linecap="round" stroke-linejoin="round" x1="1.2" y1="235.058" x2="21.26" y2="235.058"/>
			<rect id="connector95pin" x="0" y="233.859" fill="none" width="21.26" height="2.399"/>
			<g id="connector95terminal">
			</g>
			<text id="label95" transform="matrix(1 0 0 1 27.7399 237.4582)" font-family="'DroidSans'" font-size="9.936">A3</text>
			
				<line fill="none" stroke="#000000" stroke-width="2.4" stroke-linecap="round" stroke-linejoin="round" x1="1.2" y1="256.318" x2="21.26" y2="256.318"/>
			<rect id="connector96pin" x="0" y="255.118" fill="none" width="21.26" height="2.399"/>
			<g id="connector96terminal">
			</g>
			<text id="label96" transform="matrix(1 0 0 1 27.7399 258.718)" font-family="'DroidSans'" font-size="9.936">A4</text>
			
				<line fill="none" stroke="#000000" stroke-width="2.4" stroke-linecap="round" stroke-linejoin="round" x1="1.2" y1="277.577" x2="21.26" y2="277.577"/>
			<rect id="connector97pin" x="0" y="276.378" fill="none" width="21.26" height="2.4"/>
			<g id="connector97terminal">
			</g>
			<text id="label97" transform="matrix(1 0 0 1 27.7399 279.9777)" font-family="'DroidSans'" font-size="9.936">A5</text>
			
				<line fill="none" stroke="#000000" stroke-width="2.4" stroke-linecap="round" stroke-linejoin="round" x1="256.318" y1="64.98" x2="277.577" y2="64.98"/>
			<rect id="connector103pin" x="257.519" y="63.779" fill="none" width="21.26" height="2.4"/>
			<g id="connector103terminal">
			</g>
			<text id="label103" transform="matrix(1 0 0 1 207.5636 67.3791)" font-family="'DroidSans'" font-size="9.936">D13 PWM</text>
			
				<line fill="none" stroke="#000000" stroke-width="2.4" stroke-linecap="round" stroke-linejoin="round" x1="256.318" y1="86.239" x2="277.577" y2="86.239"/>
			<rect id="connector102pin" x="257.519" y="85.039" fill="none" width="21.26" height="2.4"/>
			<g id="connector102terminal">
			</g>
			<text id="label102" transform="matrix(1 0 0 1 212.6046 88.6389)" font-family="'DroidSans'" font-size="9.936">D12/A11</text>
			
				<line fill="none" stroke="#000000" stroke-width="2.4" stroke-linecap="round" stroke-linejoin="round" x1="256.318" y1="107.499" x2="277.577" y2="107.499"/>
			<rect id="connector101pin" x="257.519" y="106.299" fill="none" width="21.26" height="2.4"/>
			<g id="connector101terminal">
			</g>
			<text id="label101" transform="matrix(1 0 0 1 207.5636 109.8986)" font-family="'DroidSans'" font-size="9.936">D11 PWM</text>
			
				<line fill="none" stroke="#000000" stroke-width="2.4" stroke-linecap="round" stroke-linejoin="round" x1="256.318" y1="128.759" x2="277.577" y2="128.759"/>
			<rect id="connector100pin" x="257.519" y="127.559" fill="none" width="21.26" height="2.4"/>
			<g id="connector100terminal">
			</g>
			<text id="label100" transform="matrix(1 0 0 1 186.8712 131.1594)" font-family="'DroidSans'" font-size="9.936">D10 PWM/A10</text>
			
				<line fill="none" stroke="#000000" stroke-width="2.4" stroke-linecap="round" stroke-linejoin="round" x1="256.318" y1="150.019" x2="277.577" y2="150.019"/>
			<rect id="connector99pin" x="257.519" y="148.819" fill="none" width="21.26" height="2.4"/>
			<g id="connector99terminal">
			</g>
			<text id="label99" transform="matrix(1 0 0 1 197.8165 152.4191)" font-family="'DroidSans'" font-size="9.936">D9 PWM/A9</text>
			
				<line fill="none" stroke="#000000" stroke-width="2.4" stroke-linecap="round" stroke-linejoin="round" x1="256.318" y1="171.279" x2="277.577" y2="171.279"/>
			<rect id="connector98pin" x="257.519" y="170.078" fill="none" width="21.26" height="2.4"/>
			<g id="connector98terminal">
			</g>
			<text id="label98" transform="matrix(1 0 0 1 223.549 173.6779)" font-family="'DroidSans'" font-size="9.936">D8/A8</text>
			
				<line fill="none" stroke="#000000" stroke-width="2.4" stroke-linecap="round" stroke-linejoin="round" x1="256.318" y1="192.539" x2="277.577" y2="192.539"/>
			<rect id="connector83pin" x="257.519" y="191.339" fill="none" width="21.26" height="2.4"/>
			<g id="connector83terminal">
			</g>
			<text id="label83" transform="matrix(1 0 0 1 238.7687 194.9387)" font-family="'DroidSans'" font-size="9.936">D7</text>
			
				<line fill="none" stroke="#000000" stroke-width="2.4" stroke-linecap="round" stroke-linejoin="round" x1="256.318" y1="213.798" x2="277.577" y2="213.798"/>
			<rect id="connector82pin" x="257.519" y="212.599" fill="none" width="21.26" height="2.4"/>
			<g id="connector82terminal">
			</g>
			<text id="label82" transform="matrix(1 0 0 1 197.8165 216.1994)" font-family="'DroidSans'" font-size="9.936">D6 PWM/A7</text>
			
				<line fill="none" stroke="#000000" stroke-width="2.4" stroke-linecap="round" stroke-linejoin="round" x1="256.318" y1="235.058" x2="277.577" y2="235.058"/>
			<rect id="connector81pin" x="257.519" y="233.859" fill="none" width="21.26" height="2.399"/>
			<g id="connector81terminal">
			</g>
			<text id="label81" transform="matrix(1 0 0 1 213.0363 237.4582)" font-family="'DroidSans'" font-size="9.936">D5 PWM</text>
			
				<line fill="none" stroke="#000000" stroke-width="2.4" stroke-linecap="round" stroke-linejoin="round" x1="256.318" y1="256.318" x2="277.577" y2="256.318"/>
			<rect id="connector80pin" x="257.519" y="255.118" fill="none" width="21.26" height="2.399"/>
			<g id="connector80terminal">
			</g>
			<text id="label80" transform="matrix(1 0 0 1 223.549 258.718)" font-family="'DroidSans'" font-size="9.936">D4/A6</text>
			
				<line fill="none" stroke="#000000" stroke-width="2.4" stroke-linecap="round" stroke-linejoin="round" x1="256.318" y1="277.577" x2="277.577" y2="277.577"/>
			<rect id="connector79pin" x="257.519" y="276.378" fill="none" width="21.26" height="2.4"/>
			<g id="connector79terminal">
			</g>
			<text id="label79" transform="matrix(1 0 0 1 193.2999 279.9777)" font-family="'DroidSans'" font-size="9.936">D3 PWM/SCL</text>
			
				<line fill="none" stroke="#000000" stroke-width="2.4" stroke-linecap="round" stroke-linejoin="round" x1="256.318" y1="298.837" x2="277.577" y2="298.837"/>
			<rect id="connector78pin" x="257.519" y="297.638" fill="none" width="21.26" height="2.4"/>
			<g id="connector78terminal">
			</g>
			<text id="label78" transform="matrix(1 0 0 1 217.1642 301.2385)" font-family="'DroidSans'" font-size="9.936">D2/SDA</text>
			
				<line fill="none" stroke="#000000" stroke-width="2.4" stroke-linecap="round" stroke-linejoin="round" x1="256.318" y1="320.098" x2="277.577" y2="320.098"/>
			<rect id="connector77pin" x="257.519" y="318.898" fill="none" width="21.26" height="2.399"/>
			<g id="connector77terminal">
			</g>
			<text id="label77" transform="matrix(1 0 0 1 224.4708 322.4973)" font-family="'DroidSans'" font-size="9.936">D1/TX</text>
			
				<line fill="none" stroke="#000000" stroke-width="2.4" stroke-linecap="round" stroke-linejoin="round" x1="256.318" y1="341.359" x2="277.577" y2="341.359"/>
			<rect id="connector76pin" x="257.519" y="340.157" fill="none" width="21.26" height="2.4"/>
			<g id="connector76terminal">
			</g>
			<text id="label76" transform="matrix(1 0 0 1 223.7667 343.758)" font-family="'DroidSans'" font-size="9.936">D0/RX</text>
			
				<line fill="none" stroke="#000000" stroke-width="2.4" stroke-linecap="round" stroke-linejoin="round" x1="86.239" y1="1.2" x2="86.239" y2="21.26"/>
			<rect id="connector87pin" x="85.039" y="0" fill="none" width="2.4" height="21.26"/>
			<g id="connector87terminal">
			</g>
			<text id="label87" transform="matrix(1 0 0 1 77.9459 33.8596)" font-family="'DroidSans'" font-size="9.936">3V3</text>
			
				<line fill="none" stroke="#000000" stroke-width="2.4" stroke-linecap="round" stroke-linejoin="round" x1="150.019" y1="1.2" x2="150.019" y2="21.26"/>
			<rect id="connector91pin" x="148.819" y="0" fill="none" width="2.4" height="21.26"/>
			<g id="connector91terminal">
			</g>
			<text id="label91" transform="matrix(1 0 0 1 141.8927 33.8596)" font-family="'DroidSans'" font-size="9.936">VIN</text>
			
				<line fill="none" stroke="#000000" stroke-width="2.4" stroke-linecap="round" stroke-linejoin="round" x1="139.389" y1="385.077" x2="139.389" y2="405.137"/>
			<rect id="connector89pin" x="138.189" y="385.077" fill="none" width="2.4" height="21.26"/>
			<g id="connector89terminal">
			</g>
			<text id="label89" transform="matrix(1 0 0 1 128.941 379.3166)" font-family="'DroidSans'" font-size="9.936">GND</text>
			<rect id="connector88pin" x="0" y="127.559" fill="none" width="21.26" height="2.4"/>
			<g id="connector88terminal">
			</g>
			<rect id="connector104pin" x="138.189" y="385.077" fill="none" width="2.4" height="21.26"/>
			<g id="connector104terminal">
			</g>
			<rect id="connector90pin" x="138.189" y="385.077" fill="none" width="2.4" height="21.26"/>
			<g id="connector90terminal">
			</g>
			<rect id="connector107pin" x="257.519" y="276.378" fill="none" width="21.26" height="2.4"/>
			<g id="connector107terminal">
			</g>
			<rect id="connector106pin" x="257.519" y="297.638" fill="none" width="21.26" height="2.4"/>
			<g id="connector106terminal">
			</g>
		</g>
	</g>
</g>
<g>
	<g transform="translate(418.367,399.734)">
		<g transform="matrix(-1,0,0,-1,0,0)">
			<g id="schematic_2_">
				<rect id="connector0pin_1_" x="5.474" y="1.089" width="1.893" height="9.783"/>
				<g id="connector0terminal_1_">
				</g>
				<rect id="connector1pin_1_" x="5.478" y="54.369" width="1.893" height="9.783"/>
				<g id="connector1terminal_1_">
				</g>
				<g>
					<polyline fill="#FFFFFF" stroke="#000000" stroke-width="2.2284" stroke-linecap="round" points="6.406,1.132 6.406,20.392 
						9.906,22.255 2.656,26.291 9.906,30.324 2.656,34.359 9.906,38.392 2.656,42.427 6.406,44.599 6.406,63.861 					"/>
				</g>
			</g>
		</g>
	</g>
</g>
<g>
	
		<line fill="none" stroke="#FFE24D" stroke-width="0.56" stroke-linecap="round" x1="67.023" y1="152.326" x2="470.475" y2="296.803"/>
</g>
<g>
	
		<line fill="none" stroke="#404040" stroke-width="2.4" stroke-linecap="round" x1="412.165" y1="322.266" x2="343.403" y2="322.404"/>
</g>
<g>
	
		<line fill="none" stroke="#404040" stroke-width="2.4" stroke-linecap="round" x1="411.983" y1="322.406" x2="412.165" y2="322.268"/>
</g>
<circle cx="411.983" cy="322.406" r="3.6"/>
<g>
	
		<line fill="none" stroke="#404040" stroke-width="2.4" stroke-linecap="round" x1="411.983" y1="322.406" x2="411.979" y2="335.309"/>
</g>
<circle cx="411.983" cy="322.406" r="3.6"/>
<g>
	<line fill="none" stroke="#404040" stroke-width="2.4" stroke-linecap="round" x1="37.764" y1="95.333" x2="3.631" y2="94.8"/>
</g>
<g>
	<line fill="none" stroke="#404040" stroke-width="2.4" stroke-linecap="round" x1="37.764" y1="152.326" x2="37.764" y2="95.333"/>
</g>
<g>
	
		<line fill="none" stroke="#404040" stroke-width="2.4" stroke-linecap="round" x1="67.023" y1="152.326" x2="37.764" y2="152.326"/>
</g>
<g>
	
		<line fill="none" stroke="#404040" stroke-width="2.4" stroke-linecap="round" x1="411.098" y1="429.904" x2="205.213" y2="429.904"/>
</g>
<g>
	
		<line fill="none" stroke="#404040" stroke-width="2.4" stroke-linecap="round" x1="411.098" y1="399.333" x2="411.098" y2="429.904"/>
</g>
<g>
	
		<line fill="none" stroke="#404040" stroke-width="2.4" stroke-linecap="round" x1="411.983" y1="398.985" x2="411.096" y2="399.333"/>
</g>
<g>
	<line fill="none" stroke="#404040" stroke-width="2.4" stroke-linecap="round" x1="3.63" y1="3.6" x2="3.631" y2="94.8"/>
</g>
<g>
	<line fill="none" stroke="#404040" stroke-width="2.4" stroke-linecap="round" x1="470.475" y1="3.6" x2="3.63" y2="3.6"/>
</g>
<g>
	<line fill="none" stroke="#404040" stroke-width="2.4" stroke-linecap="round" x1="470.475" y1="296.803" x2="470.475" y2="3.6"/>
</g>
<g id="partLabel">
	<g transform="translate(344.602,12.3672)">
		<g id="schematicLabel">
			<text transform="matrix(1 0 0 1 6.103516e-05 6.75)" font-family="'DroidSans'" font-size="9">Leonardo</text>
		</g>
	</g>
</g>
<g id="partLabel_1_">
	<g transform="translate(428.767,351.359)">
		<g id="schematicLabel_1_">
			<text transform="matrix(1 0 0 1 9.155273e-05 6.7504)" font-family="'DroidSans'" font-size="9">R1</text>
			<text transform="matrix(1 0 0 1 9.155273e-05 15.7504)" font-family="'DroidSans'" font-size="9">10kΩ</text>
		</g>
	</g>
</g>
<g id="partLabel_2_">
	<g transform="translate(435.802,276.726)">
		<g id="schematicLabel_2_">
			<text transform="matrix(1 0 0 1 2.441406e-04 6.7496)" font-family="'DroidSans'" font-size="9">S1</text>
		</g>
	</g>
</g>
</svg>
