<?xml version='1.0' encoding='UTF-8' standalone='no'?>
<!-- Created with Fritzing (http://www.fritzing.org/) -->
<svg xmlns="http://www.w3.org/2000/svg" width="7.316in" x="0in" version="1.2" y="0in"  height="6.63144in" viewBox="0 0 526.752 477.464" baseProfile="tiny" xmlns:svg="http://www.w3.org/2000/svg">
 <g  id="watermark">
  <g >
   <path fill="#8C8C8C"  d="M418.935,475.136L417.01,469.572L416.975,469.572c0.017,0.214,0.032,0.427,0.044,0.64c0.012,0.183,0.021,0.375,0.028,0.574c0.007,0.203,0.011,0.385,0.011,0.551l0,3.8L416.31,475.137L416.31,468.781l1.199,0l1.791,5.181l0.025,0l1.8,-5.181L422.325,468.781l0,6.354L421.516,475.135l0,-3.854c0,-0.15,0.003,-0.324,0.009,-0.518s0.013,-0.38,0.021,-0.557c0.012,-0.207,0.021,-0.416,0.029,-0.625L421.543,469.581L419.599,475.136L418.935,475.136z"/>
   <path fill="#8C8C8C"  d="M426.635,475.136l-0.16,-0.661l-0.035,0c-0.095,0.131,-0.19,0.243,-0.286,0.338c-0.095,0.095,-0.2,0.172,-0.313,0.231c-0.113,0.062,-0.239,0.106,-0.378,0.136c-0.141,0.028,-0.3,0.042,-0.482,0.042c-0.2,0,-0.384,-0.026,-0.552,-0.084c-0.168,-0.057,-0.314,-0.144,-0.438,-0.261c-0.122,-0.116,-0.219,-0.265,-0.288,-0.443S423.599,474.046,423.599,473.801c0,-0.475,0.167,-0.841,0.501,-1.095c0.335,-0.256,0.845,-0.394,1.528,-0.418l0.799,-0.029l0,-0.301c0,-0.193,-0.021,-0.356,-0.063,-0.486s-0.103,-0.234,-0.183,-0.314s-0.178,-0.138,-0.295,-0.172c-0.117,-0.035,-0.251,-0.052,-0.402,-0.052c-0.241,0,-0.464,0.034,-0.671,0.104c-0.207,0.068,-0.407,0.152,-0.597,0.25L423.937,470.695c0.214,-0.117,0.453,-0.217,0.717,-0.298c0.264,-0.079,0.54,-0.12,0.83,-0.12c0.296,0,0.551,0.029,0.768,0.09c0.216,0.059,0.395,0.151,0.534,0.28c0.141,0.13,0.247,0.294,0.316,0.494c0.07,0.199,0.104,0.44,0.104,0.726l0,3.269L426.635,475.136L426.635,475.136zM425.184,474.585c0.178,0,0.341,-0.028,0.491,-0.084c0.149,-0.055,0.282,-0.138,0.391,-0.249c0.11,-0.111,0.196,-0.252,0.258,-0.422c0.063,-0.17,0.094,-0.369,0.094,-0.599l0,-0.43l-0.621,0.03c-0.262,0.012,-0.48,0.041,-0.656,0.086c-0.175,0.047,-0.317,0.113,-0.423,0.193c-0.105,0.084,-0.183,0.185,-0.229,0.301c-0.046,0.117,-0.068,0.25,-0.068,0.398c0,0.268,0.069,0.462,0.211,0.586C424.771,474.522,424.955,474.585,425.184,474.585z"/>
   <path fill="#8C8C8C"  d="M431.617,474.497l-0.034,0c-0.063,0.099,-0.139,0.191,-0.224,0.281c-0.085,0.088,-0.184,0.165,-0.296,0.231c-0.111,0.066,-0.237,0.118,-0.376,0.156c-0.139,0.037,-0.295,0.056,-0.47,0.056c-0.271,0,-0.517,-0.051,-0.738,-0.154c-0.223,-0.105,-0.416,-0.262,-0.575,-0.469s-0.282,-0.464,-0.369,-0.771c-0.087,-0.309,-0.13,-0.664,-0.13,-1.069c0,-0.408,0.043,-0.767,0.13,-1.076c0.086,-0.31,0.209,-0.567,0.369,-0.774c0.159,-0.209,0.352,-0.367,0.575,-0.473c0.222,-0.105,0.469,-0.158,0.738,-0.158c0.171,0,0.327,0.02,0.466,0.057s0.264,0.088,0.376,0.152c0.112,0.063,0.211,0.137,0.297,0.221s0.163,0.172,0.227,0.266l0.052,0c-0.009,-0.1,-0.018,-0.191,-0.026,-0.283c-0.006,-0.074,-0.012,-0.152,-0.018,-0.232c-0.005,-0.078,-0.009,-0.143,-0.009,-0.188L431.582,468.373l0.792,0l0,6.763l-0.641,0L431.617,474.497zM430.369,474.568c0.221,0,0.407,-0.033,0.56,-0.102c0.151,-0.065,0.274,-0.168,0.37,-0.304c0.094,-0.136,0.163,-0.308,0.209,-0.512c0.044,-0.204,0.069,-0.442,0.076,-0.716l0,-0.177c0,-0.292,-0.02,-0.552,-0.059,-0.78c-0.04,-0.229,-0.105,-0.418,-0.2,-0.574c-0.094,-0.154,-0.219,-0.271,-0.376,-0.351c-0.156,-0.08,-0.352,-0.119,-0.586,-0.119c-0.391,0,-0.679,0.157,-0.861,0.474c-0.185,0.315,-0.277,0.771,-0.277,1.359c0,0.605,0.092,1.058,0.277,1.354C429.682,474.418,429.972,474.568,430.369,474.568z"/>
   <path fill="#8C8C8C"  d="M435.771,475.222c-0.318,0,-0.609,-0.053,-0.874,-0.16c-0.263,-0.106,-0.49,-0.264,-0.68,-0.469c-0.19,-0.207,-0.338,-0.461,-0.442,-0.766c-0.104,-0.306,-0.156,-0.651,-0.156,-1.045s0.049,-0.744,0.144,-1.055c0.096,-0.311,0.229,-0.574,0.405,-0.789c0.174,-0.216,0.382,-0.381,0.623,-0.492c0.241,-0.113,0.51,-0.17,0.802,-0.17c0.287,0,0.545,0.051,0.772,0.153c0.229,0.104,0.423,0.248,0.583,0.435c0.159,0.188,0.282,0.412,0.367,0.674c0.087,0.263,0.13,0.554,0.13,0.873l0,0.49l-3.008,0c0.015,0.559,0.133,0.971,0.354,1.234c0.222,0.263,0.551,0.396,0.987,0.396c0.149,0,0.285,-0.008,0.411,-0.021s0.248,-0.035,0.365,-0.063c0.118,-0.026,0.23,-0.063,0.342,-0.104s0.222,-0.089,0.334,-0.142l0,0.704c-0.116,0.055,-0.229,0.104,-0.341,0.144c-0.112,0.041,-0.226,0.074,-0.343,0.102c-0.117,0.024,-0.239,0.045,-0.365,0.056S435.92,475.222,435.771,475.222zM435.576,470.934c-0.331,0,-0.592,0.112,-0.783,0.339c-0.193,0.227,-0.307,0.555,-0.338,0.985l2.14,0c0,-0.196,-0.021,-0.378,-0.06,-0.541c-0.039,-0.164,-0.1,-0.304,-0.183,-0.419s-0.187,-0.205,-0.315,-0.27C435.909,470.964,435.756,470.934,435.576,470.934z"/>
   <path fill="#8C8C8C"  d="M444.585,475.136l-0.729,-2.678c-0.012,-0.053,-0.026,-0.111,-0.044,-0.176c-0.017,-0.065,-0.034,-0.136,-0.051,-0.207c-0.019,-0.072,-0.036,-0.146,-0.055,-0.223c-0.02,-0.074,-0.037,-0.148,-0.055,-0.222c-0.041,-0.169,-0.083,-0.341,-0.126,-0.521l-0.024,0c-0.041,0.182,-0.08,0.356,-0.117,0.524c-0.032,0.146,-0.066,0.294,-0.104,0.448c-0.037,0.152,-0.069,0.283,-0.103,0.391l-0.75,2.66l-0.917,0l-1.221,-4.771l0.83,0l0.57,2.539c0.029,0.129,0.059,0.27,0.086,0.423c0.028,0.151,0.057,0.303,0.082,0.452c0.026,0.148,0.05,0.288,0.07,0.421c0.02,0.132,0.037,0.238,0.049,0.322l0.025,0c0.015,-0.074,0.034,-0.177,0.059,-0.302c0.025,-0.126,0.052,-0.26,0.083,-0.399c0.031,-0.141,0.063,-0.28,0.093,-0.417c0.032,-0.139,0.063,-0.254,0.091,-0.351l0.778,-2.69l0.853,0l0.748,2.69c0.025,0.098,0.056,0.215,0.089,0.348c0.033,0.135,0.065,0.27,0.098,0.407c0.032,0.139,0.061,0.271,0.087,0.397c0.025,0.127,0.045,0.231,0.056,0.315l0.026,0c0.01,-0.074,0.022,-0.177,0.042,-0.302c0.02,-0.126,0.042,-0.265,0.067,-0.415c0.025,-0.149,0.054,-0.306,0.084,-0.464c0.03,-0.157,0.062,-0.306,0.094,-0.44L445.945,470.363l0.809,0l-1.234,4.771L444.585,475.134L444.585,475.136z"/>
   <path fill="#8C8C8C"  d="M447.54,469.073c0,-0.175,0.045,-0.3,0.133,-0.379c0.088,-0.078,0.197,-0.117,0.328,-0.117c0.063,0,0.123,0.011,0.181,0.028c0.056,0.019,0.104,0.049,0.147,0.089c0.042,0.041,0.075,0.092,0.101,0.154c0.023,0.063,0.037,0.137,0.037,0.224c0,0.168,-0.045,0.293,-0.138,0.376c-0.092,0.083,-0.2,0.123,-0.327,0.123c-0.131,0,-0.24,-0.04,-0.328,-0.12C447.586,469.37,447.54,469.243,447.54,469.073zM448.392,475.136l-0.791,0L447.601,470.363l0.791,0L448.392,475.136z"/>
   <path fill="#8C8C8C"  d="M451.348,474.575c0.052,0,0.111,-0.003,0.176,-0.01c0.066,-0.006,0.128,-0.013,0.189,-0.021c0.061,-0.009,0.116,-0.019,0.167,-0.031c0.051,-0.011,0.089,-0.021,0.115,-0.028l0,0.6c-0.037,0.017,-0.085,0.035,-0.144,0.052c-0.059,0.018,-0.122,0.033,-0.191,0.046c-0.068,0.015,-0.142,0.022,-0.217,0.03s-0.148,0.011,-0.221,0.011c-0.18,0,-0.347,-0.021,-0.5,-0.068c-0.153,-0.048,-0.286,-0.126,-0.397,-0.239c-0.111,-0.112,-0.198,-0.267,-0.263,-0.458c-0.063,-0.192,-0.095,-0.437,-0.095,-0.729L449.967,470.959l-0.674,0L449.293,470.607l0.673,-0.339l0.339,-0.999l0.456,0l0,1.096l1.199,0l0,0.596l-1.199,0l0,2.769c0,0.281,0.045,0.492,0.137,0.636C450.99,474.504,451.139,474.575,451.348,474.575z"/>
   <path fill="#8C8C8C"  d="M455.903,475.136l0,-3.073c0,-0.377,-0.076,-0.659,-0.228,-0.848c-0.152,-0.188,-0.391,-0.282,-0.715,-0.282c-0.234,0,-0.433,0.037,-0.592,0.111c-0.158,0.076,-0.286,0.188,-0.384,0.336c-0.097,0.148,-0.166,0.328,-0.208,0.544c-0.042,0.214,-0.063,0.461,-0.063,0.739l0,2.473l-0.791,0L452.922,468.373l0.791,0l0,2.008l-0.034,0.626l0.044,0c0.072,-0.124,0.158,-0.232,0.258,-0.323s0.209,-0.167,0.328,-0.229c0.118,-0.061,0.245,-0.104,0.378,-0.135c0.133,-0.027,0.27,-0.043,0.408,-0.043c0.531,0,0.93,0.139,1.198,0.416c0.268,0.275,0.401,0.719,0.401,1.326l0,3.117L455.903,475.136L455.903,475.136z"/>
  </g>
  <g >
   <path fill="#8C8C8C"  d="M477.663,475.12l-1.324,0L476.339,468.766l3.642,0l0,1.104l-2.316,0l0,1.639l2.156,0l0,1.1l-2.156,0L477.663,475.12L477.663,475.12z"/>
   <path fill="#8C8C8C"  d="M483.696,470.17c0.035,0,0.074,0.002,0.116,0.002c0.042,0.002,0.083,0.006,0.12,0.01c0.041,0.005,0.076,0.009,0.11,0.014c0.031,0.004,0.059,0.01,0.075,0.016l0,1.244c-0.022,-0.008,-0.056,-0.012,-0.095,-0.018c-0.04,-0.007,-0.083,-0.012,-0.128,-0.018c-0.045,-0.004,-0.09,-0.006,-0.133,-0.008c-0.044,-0.002,-0.08,-0.002,-0.108,-0.002c-0.171,0,-0.328,0.021,-0.472,0.064c-0.146,0.043,-0.269,0.113,-0.37,0.211s-0.183,0.225,-0.239,0.383c-0.057,0.157,-0.084,0.352,-0.084,0.581l0,2.474l-1.326,0L481.162,470.261l1.005,0l0.194,0.73l0.066,0c0.068,-0.125,0.145,-0.238,0.226,-0.34c0.081,-0.103,0.172,-0.189,0.272,-0.259c0.1,-0.071,0.212,-0.126,0.338,-0.165C483.389,470.19,483.535,470.17,483.696,470.17z"/>
   <path fill="#8C8C8C"  d="M485.014,469.005c0,-0.125,0.018,-0.228,0.056,-0.311c0.038,-0.084,0.089,-0.15,0.154,-0.2c0.065,-0.051,0.142,-0.086,0.229,-0.106c0.088,-0.02,0.184,-0.03,0.281,-0.03c0.099,0,0.191,0.01,0.277,0.03c0.088,0.02,0.164,0.055,0.229,0.106c0.066,0.05,0.117,0.116,0.156,0.2c0.04,0.083,0.059,0.186,0.059,0.311c0,0.122,-0.019,0.225,-0.059,0.309c-0.039,0.084,-0.09,0.151,-0.156,0.203c-0.063,0.05,-0.142,0.086,-0.229,0.108c-0.086,0.021,-0.18,0.032,-0.277,0.032c-0.099,0,-0.191,-0.012,-0.281,-0.032c-0.088,-0.021,-0.164,-0.059,-0.229,-0.108c-0.065,-0.051,-0.116,-0.119,-0.154,-0.203C485.033,469.23,485.014,469.127,485.014,469.005zM486.396,475.12l-1.325,0L485.071,470.261l1.325,0L486.396,475.12z"/>
   <path fill="#8C8C8C"  d="M489.805,474.151c0.13,0,0.254,-0.016,0.371,-0.045c0.117,-0.027,0.235,-0.064,0.357,-0.107l0,0.986c-0.124,0.063,-0.278,0.116,-0.463,0.157c-0.184,0.042,-0.385,0.063,-0.603,0.063c-0.211,0,-0.408,-0.024,-0.59,-0.073c-0.185,-0.05,-0.342,-0.137,-0.476,-0.259c-0.133,-0.123,-0.237,-0.288,-0.313,-0.495c-0.077,-0.208,-0.114,-0.468,-0.114,-0.781L487.974,471.256l-0.636,0L487.338,470.695l0.729,-0.443l0.383,-1.024l0.848,0l0,1.034l1.184,0l0,0.995l-1.184,0l0,2.343c0,0.188,0.048,0.327,0.141,0.417C489.532,474.106,489.654,474.151,489.805,474.151z"/>
   <path fill="#8C8C8C"  d="M494.678,475.12L491.105,475.12l0,-0.781l1.985,-3.064l-1.853,0L491.237,470.261l3.355,0l0,0.859l-1.92,2.985l2.004,0L494.678,475.12L494.678,475.12z"/>
   <path fill="#8C8C8C"  d="M495.617,469.005c0,-0.125,0.02,-0.228,0.057,-0.311c0.038,-0.084,0.09,-0.15,0.153,-0.2c0.065,-0.051,0.144,-0.086,0.23,-0.106s0.182,-0.03,0.28,-0.03c0.098,0,0.19,0.01,0.277,0.03c0.088,0.02,0.164,0.055,0.229,0.106c0.064,0.05,0.117,0.116,0.156,0.2c0.038,0.083,0.059,0.186,0.059,0.311c0,0.122,-0.021,0.225,-0.059,0.309c-0.039,0.084,-0.092,0.151,-0.156,0.203c-0.064,0.05,-0.143,0.086,-0.229,0.108c-0.086,0.021,-0.18,0.032,-0.277,0.032c-0.099,0,-0.192,-0.012,-0.28,-0.032c-0.088,-0.021,-0.165,-0.059,-0.23,-0.108c-0.063,-0.051,-0.115,-0.119,-0.153,-0.203C495.636,469.23,495.617,469.127,495.617,469.005zM496.999,475.12L495.675,475.12L495.675,470.261l1.324,0L496.999,475.12z"/>
   <path fill="#8C8C8C"  d="M502.649,475.12L501.325,475.12l0,-2.839c0,-0.351,-0.053,-0.613,-0.158,-0.787c-0.105,-0.176,-0.274,-0.265,-0.508,-0.265c-0.173,0,-0.317,0.035,-0.434,0.104c-0.116,0.07,-0.209,0.173,-0.276,0.31c-0.066,0.136,-0.115,0.304,-0.146,0.504c-0.029,0.2,-0.043,0.429,-0.043,0.687l0,2.286L498.435,475.12L498.435,470.261l1.012,0l0.181,0.621l0.073,0c0.069,-0.124,0.153,-0.23,0.253,-0.321c0.102,-0.089,0.21,-0.163,0.328,-0.221s0.245,-0.103,0.378,-0.128c0.136,-0.028,0.271,-0.043,0.409,-0.043c0.237,0,0.454,0.033,0.647,0.104c0.194,0.067,0.36,0.174,0.5,0.318c0.141,0.146,0.247,0.328,0.321,0.555c0.075,0.225,0.113,0.492,0.113,0.807l0,3.168L502.649,475.12L502.649,475.12z"/>
   <path fill="#8C8C8C"  d="M508.079,470.27l0,0.722l-0.708,0.221c0.059,0.1,0.1,0.201,0.122,0.308c0.021,0.106,0.033,0.22,0.033,0.343c0,0.246,-0.039,0.471,-0.116,0.676c-0.078,0.203,-0.193,0.379,-0.349,0.522c-0.152,0.146,-0.346,0.258,-0.578,0.337c-0.23,0.08,-0.5,0.119,-0.808,0.119c-0.067,0,-0.141,-0.003,-0.218,-0.012c-0.078,-0.007,-0.137,-0.015,-0.175,-0.021c-0.057,0.049,-0.104,0.101,-0.137,0.152c-0.033,0.054,-0.049,0.117,-0.049,0.193c0,0.061,0.018,0.108,0.056,0.146s0.087,0.065,0.147,0.087c0.06,0.022,0.133,0.036,0.214,0.044s0.165,0.012,0.251,0.012l0.756,0c0.236,0,0.446,0.025,0.631,0.081c0.186,0.055,0.342,0.135,0.472,0.246c0.129,0.109,0.229,0.249,0.299,0.419c0.069,0.169,0.104,0.372,0.104,0.605c0,0.275,-0.054,0.523,-0.164,0.745c-0.109,0.224,-0.274,0.41,-0.494,0.565c-0.219,0.154,-0.488,0.273,-0.813,0.355c-0.324,0.082,-0.699,0.123,-1.126,0.123c-0.329,0,-0.618,-0.031,-0.864,-0.094c-0.247,-0.063,-0.451,-0.15,-0.617,-0.27c-0.165,-0.116,-0.288,-0.258,-0.371,-0.424c-0.084,-0.164,-0.125,-0.353,-0.125,-0.561c0,-0.177,0.031,-0.33,0.093,-0.46c0.061,-0.131,0.143,-0.243,0.243,-0.336c0.102,-0.093,0.218,-0.168,0.347,-0.227c0.129,-0.058,0.262,-0.103,0.396,-0.134c-0.061,-0.026,-0.12,-0.063,-0.181,-0.109c-0.059,-0.047,-0.113,-0.1,-0.161,-0.159c-0.047,-0.063,-0.086,-0.129,-0.116,-0.203c-0.031,-0.072,-0.047,-0.15,-0.047,-0.23c0,-0.093,0.015,-0.178,0.04,-0.252c0.029,-0.076,0.068,-0.146,0.12,-0.212c0.052,-0.064,0.117,-0.126,0.196,-0.184c0.078,-0.06,0.166,-0.117,0.264,-0.18c-0.254,-0.11,-0.456,-0.287,-0.604,-0.53c-0.15,-0.244,-0.225,-0.529,-0.225,-0.859c0,-0.26,0.04,-0.494,0.121,-0.699c0.081,-0.207,0.2,-0.381,0.356,-0.523c0.155,-0.144,0.35,-0.252,0.582,-0.328c0.231,-0.076,0.499,-0.113,0.801,-0.113c0.057,0,0.122,0.004,0.194,0.012s0.145,0.018,0.216,0.025c0.07,0.01,0.137,0.021,0.196,0.033c0.061,0.01,0.109,0.021,0.146,0.029L508.079,470.27L508.079,470.27zM504.602,475.807c0,0.073,0.017,0.145,0.047,0.211c0.03,0.068,0.08,0.129,0.15,0.182c0.068,0.052,0.16,0.094,0.272,0.124c0.113,0.03,0.252,0.046,0.417,0.046c0.452,0,0.792,-0.063,1.021,-0.191c0.229,-0.127,0.343,-0.298,0.343,-0.514c0,-0.183,-0.07,-0.304,-0.213,-0.364c-0.143,-0.06,-0.361,-0.091,-0.66,-0.091l-0.613,0c-0.077,0,-0.162,0.009,-0.252,0.027c-0.09,0.018,-0.172,0.052,-0.248,0.099c-0.075,0.046,-0.139,0.108,-0.188,0.184S504.602,475.692,504.602,475.807zM505.081,471.852c0,0.263,0.049,0.468,0.147,0.612c0.098,0.146,0.248,0.217,0.447,0.217c0.209,0,0.358,-0.07,0.451,-0.217c0.094,-0.145,0.14,-0.35,0.14,-0.612c0,-0.261,-0.046,-0.468,-0.137,-0.622c-0.092,-0.152,-0.243,-0.229,-0.454,-0.229C505.278,471,505.081,471.283,505.081,471.852z"/>
   <path fill="#8C8C8C"  d="M508.829,474.499c0,-0.136,0.02,-0.251,0.059,-0.346c0.04,-0.095,0.094,-0.172,0.163,-0.229c0.069,-0.058,0.149,-0.101,0.244,-0.126c0.092,-0.026,0.191,-0.039,0.299,-0.039c0.102,0,0.198,0.013,0.289,0.039c0.092,0.025,0.172,0.068,0.242,0.126c0.068,0.057,0.123,0.134,0.163,0.229c0.041,0.095,0.062,0.21,0.062,0.346c0,0.13,-0.021,0.242,-0.062,0.335c-0.04,0.093,-0.095,0.17,-0.163,0.229c-0.07,0.062,-0.15,0.104,-0.242,0.133c-0.091,0.027,-0.188,0.042,-0.289,0.042c-0.106,0,-0.207,-0.015,-0.299,-0.042c-0.095,-0.027,-0.175,-0.071,-0.244,-0.133c-0.069,-0.061,-0.123,-0.138,-0.163,-0.229C508.847,474.741,508.829,474.629,508.829,474.499z"/>
   <path fill="#8C8C8C"  d="M515.788,472.681c0,0.406,-0.052,0.767,-0.153,1.079c-0.104,0.313,-0.251,0.576,-0.443,0.79c-0.192,0.215,-0.428,0.378,-0.704,0.489c-0.277,0.111,-0.587,0.167,-0.933,0.167c-0.321,0,-0.617,-0.056,-0.886,-0.167c-0.271,-0.112,-0.503,-0.274,-0.698,-0.489c-0.195,-0.214,-0.35,-0.479,-0.458,-0.79c-0.11,-0.313,-0.165,-0.673,-0.165,-1.079c0,-0.402,0.051,-0.76,0.154,-1.072c0.103,-0.314,0.25,-0.576,0.442,-0.789C512.136,470.606,512.37,470.445,512.645,470.336s0.587,-0.164,0.937,-0.164c0.319,0,0.615,0.055,0.886,0.164c0.27,0.111,0.502,0.271,0.695,0.484c0.197,0.213,0.351,0.477,0.459,0.789C515.732,471.921,515.788,472.279,515.788,472.681zM512.702,472.681c0,0.484,0.068,0.851,0.205,1.093c0.137,0.246,0.357,0.368,0.664,0.368c0.306,0,0.524,-0.123,0.66,-0.37c0.137,-0.245,0.205,-0.608,0.205,-1.091s-0.068,-0.846,-0.205,-1.084c-0.136,-0.238,-0.358,-0.357,-0.668,-0.357c-0.305,0,-0.523,0.119,-0.659,0.357C512.769,471.836,512.702,472.199,512.702,472.681z"/>
   <path fill="#8C8C8C"  d="M519.508,470.17c0.035,0,0.073,0.002,0.115,0.002c0.042,0.002,0.083,0.006,0.12,0.01c0.04,0.005,0.076,0.009,0.109,0.014c0.033,0.004,0.059,0.01,0.076,0.016l0,1.244c-0.023,-0.008,-0.055,-0.012,-0.095,-0.018c-0.041,-0.007,-0.083,-0.012,-0.13,-0.018c-0.045,-0.004,-0.089,-0.006,-0.132,-0.008c-0.045,-0.002,-0.08,-0.002,-0.108,-0.002c-0.171,0,-0.328,0.021,-0.473,0.064c-0.144,0.043,-0.267,0.113,-0.37,0.211c-0.102,0.098,-0.182,0.225,-0.237,0.383c-0.058,0.157,-0.084,0.352,-0.084,0.581l0,2.474l-1.326,0L516.973,470.261l1.004,0l0.195,0.73l0.065,0c0.068,-0.125,0.146,-0.238,0.226,-0.34c0.081,-0.103,0.172,-0.189,0.271,-0.259c0.101,-0.071,0.213,-0.126,0.339,-0.165C519.202,470.19,519.346,470.17,519.508,470.17z"/>
   <path fill="#8C8C8C"  d="M524.816,470.27l0,0.722l-0.708,0.221c0.058,0.1,0.099,0.201,0.121,0.308s0.034,0.22,0.034,0.343c0,0.246,-0.039,0.471,-0.116,0.676c-0.079,0.203,-0.194,0.379,-0.349,0.522c-0.153,0.146,-0.348,0.258,-0.578,0.337c-0.232,0.08,-0.501,0.119,-0.809,0.119c-0.067,0,-0.141,-0.003,-0.219,-0.012c-0.078,-0.007,-0.135,-0.015,-0.173,-0.021c-0.058,0.049,-0.104,0.101,-0.137,0.152c-0.034,0.054,-0.05,0.117,-0.05,0.193c0,0.061,0.019,0.108,0.057,0.146c0.037,0.037,0.086,0.065,0.146,0.087c0.062,0.021,0.133,0.036,0.215,0.044c0.08,0.008,0.164,0.012,0.251,0.012l0.756,0c0.234,0,0.445,0.025,0.63,0.081c0.186,0.055,0.343,0.135,0.472,0.246c0.129,0.109,0.229,0.249,0.298,0.419c0.07,0.169,0.104,0.372,0.104,0.605c0,0.275,-0.054,0.523,-0.165,0.745c-0.109,0.224,-0.275,0.41,-0.493,0.565c-0.219,0.154,-0.489,0.273,-0.815,0.355c-0.323,0.082,-0.698,0.123,-1.125,0.123c-0.329,0,-0.617,-0.031,-0.864,-0.094c-0.246,-0.063,-0.451,-0.15,-0.617,-0.27c-0.164,-0.116,-0.287,-0.258,-0.371,-0.424c-0.083,-0.164,-0.124,-0.353,-0.124,-0.561c0,-0.177,0.03,-0.33,0.091,-0.46c0.063,-0.131,0.144,-0.243,0.244,-0.336c0.103,-0.093,0.217,-0.168,0.346,-0.227c0.129,-0.058,0.263,-0.103,0.398,-0.134c-0.062,-0.026,-0.121,-0.063,-0.182,-0.109c-0.06,-0.047,-0.113,-0.1,-0.16,-0.159c-0.047,-0.063,-0.087,-0.129,-0.117,-0.203c-0.03,-0.073,-0.045,-0.151,-0.045,-0.231c0,-0.093,0.014,-0.178,0.04,-0.252c0.027,-0.076,0.067,-0.146,0.12,-0.212c0.051,-0.064,0.117,-0.126,0.194,-0.184c0.078,-0.06,0.166,-0.117,0.266,-0.18c-0.255,-0.109,-0.456,-0.287,-0.606,-0.529c-0.148,-0.244,-0.223,-0.531,-0.223,-0.861c0,-0.26,0.039,-0.493,0.121,-0.698c0.081,-0.207,0.199,-0.382,0.354,-0.524c0.156,-0.143,0.351,-0.252,0.583,-0.328c0.231,-0.074,0.499,-0.111,0.8,-0.111c0.059,0,0.123,0.003,0.195,0.011s0.146,0.017,0.215,0.026c0.072,0.009,0.138,0.021,0.198,0.031c0.062,0.012,0.108,0.021,0.145,0.03L524.816,470.269L524.816,470.27zM521.34,475.807c0,0.073,0.017,0.145,0.046,0.211c0.031,0.068,0.081,0.129,0.149,0.182c0.07,0.052,0.161,0.094,0.273,0.124c0.114,0.03,0.252,0.046,0.418,0.046c0.451,0,0.792,-0.063,1.021,-0.191c0.229,-0.127,0.343,-0.298,0.343,-0.514c0,-0.183,-0.071,-0.304,-0.214,-0.364s-0.361,-0.091,-0.66,-0.091l-0.612,0c-0.079,0,-0.163,0.009,-0.252,0.027c-0.09,0.019,-0.173,0.052,-0.248,0.099c-0.076,0.046,-0.139,0.108,-0.188,0.184C521.366,475.594,521.34,475.692,521.34,475.807zM521.817,471.852c0,0.263,0.049,0.468,0.148,0.612c0.099,0.146,0.248,0.217,0.447,0.217c0.209,0,0.358,-0.07,0.451,-0.217c0.094,-0.145,0.141,-0.35,0.141,-0.612c0,-0.261,-0.046,-0.468,-0.138,-0.622c-0.092,-0.152,-0.243,-0.229,-0.454,-0.229C522.015,471,521.817,471.283,521.817,471.852z"/>
  </g>
  <g >
   <path fill="#8C8C8C"  d="M470.41,467.39l-8.146,0c-0.532,0,-0.965,0.432,-0.965,0.964l0,8.146c0,0.531,0.433,0.964,0.965,0.964l5.55,0l3.557,-3.558L471.371,468.354C471.374,467.821,470.942,467.39,470.41,467.39zM468.733,471.119l-1.075,0l0,0.401l1.075,0l0,1.601l-2.196,0l0,2.058l-2.572,0l0,-4.67l0.988,-0.99l3.779,0l0,1.603l0.001,0L468.733,471.119z"/>
  </g>
 </g>
 <g partID="1151770">
  <g transform="translate(389.437,234.085)">
   <g transform="matrix(-2.77556e-16,-1,-1,2.77556e-16,0,0)">
    <g  id="schematic">
     <rect width="8" x="50.7584" y="0.104"  height="1.6" id="connector0pin"/>
     <rect width="8" x="50.7584" y="25.7048"  height="1.6" id="connector1pin"/>
     <rect width="8" x="0.5848" y="0.1072"  height="1.6" id="connector2pin"/>
     <rect width="8" x="0.5848" y="25.708"  height="1.6" id="connector3pin"/>
     <g width="0.5472" x="58.672" y="0.5304"  height="0.6928" id="connector0terminal"/>
     <g width="0.5472" x="58.672" y="26.1312"  height="0.6928" id="connector1terminal"/>
     <g width="0.5504" x="0.1768" y="0.5328"  height="0.6928" id="connector2terminal"/>
     <g width="0.5504" x="0.1768" y="26.1328"  height="0.6928" id="connector3terminal"/>
     <path fill="none"  stroke="#000000" stroke-linecap="round" stroke-width="1.6" d="M5.7048,13.6928"/>
     <path fill="none"  stroke="#000000" stroke-linecap="round" stroke-width="1.6" d="M20.0272,13.6928"/>
     <polyline fill="none" points="58.6384,0.8928,48.1928,0.8928,48.1928,26.4928,58.6384,26.4928"  stroke="#000000" stroke-linejoin="round" stroke-linecap="round" stroke-width="1.6"/>
     <line fill="none"  stroke="#000000" stroke-linecap="round" y1="13.6928" stroke-width="1.6" x1="39.3928" y2="13.6928" x2="48.1928"/>
     <polyline fill="none" points="0.7824,26.4928,11.2272,26.4928,11.2272,0.8928,0.7824,0.8928"  stroke="#000000" stroke-linejoin="round" stroke-linecap="round" stroke-width="1.6"/>
     <polyline fill="none" points="38.196,6.0304,20.0272,13.6928,11.2272,13.6928"  stroke="#000000" stroke-linecap="round" stroke-width="1.6"/>
    </g>
   </g>
  </g>
 </g>
 <g partID="1151750">
  <g transform="translate(474.477,234.085)">
   <g transform="matrix(0,-1,-1,0,0,0)">
    <g  id="schematic">
     <rect width="8" x="50.7584" y="0.104"  height="1.6" id="connector0pin"/>
     <rect width="8" x="50.7584" y="25.7048"  height="1.6" id="connector1pin"/>
     <rect width="8" x="0.5848" y="0.1072"  height="1.6" id="connector2pin"/>
     <rect width="8" x="0.5848" y="25.708"  height="1.6" id="connector3pin"/>
     <g width="0.5472" x="58.672" y="0.5304"  height="0.6928" id="connector0terminal"/>
     <g width="0.5472" x="58.672" y="26.1312"  height="0.6928" id="connector1terminal"/>
     <g width="0.5504" x="0.1768" y="0.5328"  height="0.6928" id="connector2terminal"/>
     <g width="0.5504" x="0.1768" y="26.1328"  height="0.6928" id="connector3terminal"/>
     <path fill="none"  stroke="#000000" stroke-linecap="round" stroke-width="1.6" d="M5.7048,13.6928"/>
     <path fill="none"  stroke="#000000" stroke-linecap="round" stroke-width="1.6" d="M20.0272,13.6928"/>
     <polyline fill="none" points="58.6384,0.8928,48.1928,0.8928,48.1928,26.4928,58.6384,26.4928"  stroke="#000000" stroke-linejoin="round" stroke-linecap="round" stroke-width="1.6"/>
     <line fill="none"  stroke="#000000" stroke-linecap="round" y1="13.6928" stroke-width="1.6" x1="39.3928" y2="13.6928" x2="48.1928"/>
     <polyline fill="none" points="0.7824,26.4928,11.2272,26.4928,11.2272,0.8928,0.7824,0.8928"  stroke="#000000" stroke-linejoin="round" stroke-linecap="round" stroke-width="1.6"/>
     <polyline fill="none" points="38.196,6.0304,20.0272,13.6928,11.2272,13.6928"  stroke="#000000" stroke-linecap="round" stroke-width="1.6"/>
    </g>
   </g>
  </g>
 </g>
 <g partID="1151730">
  <g transform="translate(431.957,234.085)">
   <g transform="matrix(0,-1,-1,0,0,0)">
    <g  id="schematic">
     <rect width="8" x="50.7584" y="0.104"  height="1.6" id="connector0pin"/>
     <rect width="8" x="50.7584" y="25.7048"  height="1.6" id="connector1pin"/>
     <rect width="8" x="0.5848" y="0.1072"  height="1.6" id="connector2pin"/>
     <rect width="8" x="0.5848" y="25.708"  height="1.6" id="connector3pin"/>
     <g width="0.5472" x="58.672" y="0.5304"  height="0.6928" id="connector0terminal"/>
     <g width="0.5472" x="58.672" y="26.1312"  height="0.6928" id="connector1terminal"/>
     <g width="0.5504" x="0.1768" y="0.5328"  height="0.6928" id="connector2terminal"/>
     <g width="0.5504" x="0.1768" y="26.1328"  height="0.6928" id="connector3terminal"/>
     <path fill="none"  stroke="#000000" stroke-linecap="round" stroke-width="1.6" d="M5.7048,13.6928"/>
     <path fill="none"  stroke="#000000" stroke-linecap="round" stroke-width="1.6" d="M20.0272,13.6928"/>
     <polyline fill="none" points="58.6384,0.8928,48.1928,0.8928,48.1928,26.4928,58.6384,26.4928"  stroke="#000000" stroke-linejoin="round" stroke-linecap="round" stroke-width="1.6"/>
     <line fill="none"  stroke="#000000" stroke-linecap="round" y1="13.6928" stroke-width="1.6" x1="39.3928" y2="13.6928" x2="48.1928"/>
     <polyline fill="none" points="0.7824,26.4928,11.2272,26.4928,11.2272,0.8928,0.7824,0.8928"  stroke="#000000" stroke-linejoin="round" stroke-linecap="round" stroke-width="1.6"/>
     <polyline fill="none" points="38.196,6.0304,20.0272,13.6928,11.2272,13.6928"  stroke="#000000" stroke-linecap="round" stroke-width="1.6"/>
    </g>
   </g>
  </g>
 </g>
 <g partID="1151700">
  <g transform="translate(516.996,234.085)">
   <g transform="matrix(0,-1,-1,0,0,0)">
    <g  id="schematic">
     <rect width="8" x="50.7584" y="0.104"  height="1.6" id="connector0pin"/>
     <rect width="8" x="50.7584" y="25.7048"  height="1.6" id="connector1pin"/>
     <rect width="8" x="0.5848" y="0.1072"  height="1.6" id="connector2pin"/>
     <rect width="8" x="0.5848" y="25.708"  height="1.6" id="connector3pin"/>
     <g width="0.5472" x="58.672" y="0.5304"  height="0.6928" id="connector0terminal"/>
     <g width="0.5472" x="58.672" y="26.1312"  height="0.6928" id="connector1terminal"/>
     <g width="0.5504" x="0.1768" y="0.5328"  height="0.6928" id="connector2terminal"/>
     <g width="0.5504" x="0.1768" y="26.1328"  height="0.6928" id="connector3terminal"/>
     <path fill="none"  stroke="#000000" stroke-linecap="round" stroke-width="1.6" d="M5.7048,13.6928"/>
     <path fill="none"  stroke="#000000" stroke-linecap="round" stroke-width="1.6" d="M20.0272,13.6928"/>
     <polyline fill="none" points="58.6384,0.8928,48.1928,0.8928,48.1928,26.4928,58.6384,26.4928"  stroke="#000000" stroke-linejoin="round" stroke-linecap="round" stroke-width="1.6"/>
     <line fill="none"  stroke="#000000" stroke-linecap="round" y1="13.6928" stroke-width="1.6" x1="39.3928" y2="13.6928" x2="48.1928"/>
     <polyline fill="none" points="0.7824,26.4928,11.2272,26.4928,11.2272,0.8928,0.7824,0.8928"  stroke="#000000" stroke-linejoin="round" stroke-linecap="round" stroke-width="1.6"/>
     <polyline fill="none" points="38.196,6.0304,20.0272,13.6928,11.2272,13.6928"  stroke="#000000" stroke-linecap="round" stroke-width="1.6"/>
    </g>
   </g>
  </g>
 </g>
 <g partID="1144040">
  <g transform="translate(342.435,234.085)">
   <g transform="matrix(2.77556e-16,-1,-1,-2.77556e-16,0,0)">
    <g  id="schematic">
     <rect width="8" x="50.7584" y="0.104"  height="1.6" id="connector0pin"/>
     <rect width="8" x="50.7584" y="25.7048"  height="1.6" id="connector1pin"/>
     <rect width="8" x="0.5848" y="0.1072"  height="1.6" id="connector2pin"/>
     <rect width="8" x="0.5848" y="25.708"  height="1.6" id="connector3pin"/>
     <g width="0.5472" x="58.672" y="0.5304"  height="0.6928" id="connector0terminal"/>
     <g width="0.5472" x="58.672" y="26.1312"  height="0.6928" id="connector1terminal"/>
     <g width="0.5504" x="0.1768" y="0.5328"  height="0.6928" id="connector2terminal"/>
     <g width="0.5504" x="0.1768" y="26.1328"  height="0.6928" id="connector3terminal"/>
     <path fill="none"  stroke="#000000" stroke-linecap="round" stroke-width="1.6" d="M5.7048,13.6928"/>
     <path fill="none"  stroke="#000000" stroke-linecap="round" stroke-width="1.6" d="M20.0272,13.6928"/>
     <polyline fill="none" points="58.6384,0.8928,48.1928,0.8928,48.1928,26.4928,58.6384,26.4928"  stroke="#000000" stroke-linejoin="round" stroke-linecap="round" stroke-width="1.6"/>
     <line fill="none"  stroke="#000000" stroke-linecap="round" y1="13.6928" stroke-width="1.6" x1="39.3928" y2="13.6928" x2="48.1928"/>
     <polyline fill="none" points="0.7824,26.4928,11.2272,26.4928,11.2272,0.8928,0.7824,0.8928"  stroke="#000000" stroke-linejoin="round" stroke-linecap="round" stroke-width="1.6"/>
     <polyline fill="none" points="38.196,6.0304,20.0272,13.6928,11.2272,13.6928"  stroke="#000000" stroke-linecap="round" stroke-width="1.6"/>
    </g>
   </g>
  </g>
 </g>
 <g partID="56220">
  <g transform="translate(19.6596,49.4344)">
   <g  id="schematic">
    <rect width="233.858" x="22.4598" y="22.4598" fill="none"  height="361.418" stroke="#000000" stroke-linejoin="round" stroke-linecap="round" stroke-width="2.4"/>
    <text x="139.389" y="64.9795" font-family="Droid Sans" fill="#000000"  text-anchor="middle" stroke="none" id="label" font-size="18">Arduino</text>
    <text x="139.389" y="86.2394" font-family="Droid Sans" fill="#000000"  text-anchor="middle" stroke="none" id="label" font-size="18">Leonardo</text>
    <text x="139.389" y="107.499" font-family="Droid Sans" fill="#000000"  text-anchor="middle" stroke="none" id="label" font-size="18">(Rev3b)</text>
    <line fill="none"  stroke="#000000" stroke-linejoin="round" stroke-linecap="round" y1="64.9795" stroke-width="2.4" x1="1.2" y2="64.9795" x2="21.2599"/>
    <rect width="21.2599" x="0" y="63.7795" fill="none"  height="2.4" id="connector105pin" stroke-width="0" connectorName="AREF"/>
    <g width="2.4" x="0" y="63.7795" fill="none"  height="2.4" id="connector105terminal" stroke-width="0"/>
    <text x="27.7399" y="67.3795" font-family="Droid Sans" fill="#000000"  text-anchor="start" stroke="none" id="label105" font-size="9.93601">AREF</text>
    <line fill="none"  stroke="#000000" stroke-linejoin="round" stroke-linecap="round" y1="86.2394" stroke-width="2.4" x1="1.2" y2="86.2394" x2="21.2599"/>
    <rect width="21.2599" x="0" y="85.0392" fill="none"  height="2.4" id="connector86pin" stroke-width="0" connectorName="RESET"/>
    <g width="2.4" x="0" y="85.0392" fill="none"  height="2.4" id="connector86terminal" stroke-width="0"/>
    <text x="27.7399" y="88.6392" font-family="Droid Sans" fill="#000000"  text-anchor="start" stroke="none" id="label86" font-size="9.93601">RESET</text>
    <line fill="none"  stroke="#000000" stroke-linejoin="round" stroke-linecap="round" y1="107.499" stroke-width="2.4" x1="1.2" y2="107.499" x2="21.2599"/>
    <rect width="21.2599" x="0" y="106.299" fill="none"  height="2.4" id="connector84pin" stroke-width="0" connectorName="IOREF"/>
    <g width="2.4" x="0" y="106.299" fill="none"  height="2.4" id="connector84terminal" stroke-width="0"/>
    <text x="27.7399" y="109.899" font-family="Droid Sans" fill="#000000"  text-anchor="start" stroke="none" id="label84" font-size="9.93601">IOREF</text>
    <line fill="none"  stroke="#000000" stroke-linejoin="round" stroke-linecap="round" y1="128.759" stroke-width="2.4" x1="1.2" y2="128.759" x2="21.2599"/>
    <rect width="21.2599" x="0" y="127.559" fill="none"  height="2.4" id="connector85pin" stroke-width="0" connectorName="IOREF"/>
    <g width="2.4" x="0" y="127.559" fill="none"  height="2.4" id="connector85terminal" stroke-width="0"/>
    <text x="27.7399" y="131.159" font-family="Droid Sans" fill="#000000"  text-anchor="start" stroke="none" id="label85" font-size="9.93601">IOREF</text>
    <line fill="none"  stroke="#000000" stroke-linejoin="round" stroke-linecap="round" y1="171.279" stroke-width="2.4" x1="1.2" y2="171.279" x2="21.2599"/>
    <rect width="21.2599" x="0" y="170.078" fill="none"  height="2.4" id="connector92pin" stroke-width="0" connectorName="A0"/>
    <g width="2.4" x="0" y="170.078" fill="none"  height="2.4" id="connector92terminal" stroke-width="0"/>
    <text x="27.7399" y="173.678" font-family="Droid Sans" fill="#000000"  text-anchor="start" stroke="none" id="label92" font-size="9.93601">A0</text>
    <line fill="none"  stroke="#000000" stroke-linejoin="round" stroke-linecap="round" y1="192.539" stroke-width="2.4" x1="1.2" y2="192.539" x2="21.2599"/>
    <rect width="21.2599" x="0" y="191.339" fill="none"  height="2.4" id="connector93pin" stroke-width="0" connectorName="A1"/>
    <g width="2.4" x="0" y="191.339" fill="none"  height="2.4" id="connector93terminal" stroke-width="0"/>
    <text x="27.7399" y="194.939" font-family="Droid Sans" fill="#000000"  text-anchor="start" stroke="none" id="label93" font-size="9.93601">A1</text>
    <line fill="none"  stroke="#000000" stroke-linejoin="round" stroke-linecap="round" y1="213.798" stroke-width="2.4" x1="1.2" y2="213.798" x2="21.2599"/>
    <rect width="21.2599" x="0" y="212.599" fill="none"  height="2.4" id="connector94pin" stroke-width="0" connectorName="A2"/>
    <g width="2.4" x="0" y="212.599" fill="none"  height="2.4" id="connector94terminal" stroke-width="0"/>
    <text x="27.7399" y="216.199" font-family="Droid Sans" fill="#000000"  text-anchor="start" stroke="none" id="label94" font-size="9.93601">A2</text>
    <line fill="none"  stroke="#000000" stroke-linejoin="round" stroke-linecap="round" y1="235.058" stroke-width="2.4" x1="1.2" y2="235.058" x2="21.2599"/>
    <rect width="21.2599" x="0" y="233.858" fill="none"  height="2.4" id="connector95pin" stroke-width="0" connectorName="A3"/>
    <g width="2.4" x="0" y="233.858" fill="none"  height="2.4" id="connector95terminal" stroke-width="0"/>
    <text x="27.7399" y="237.458" font-family="Droid Sans" fill="#000000"  text-anchor="start" stroke="none" id="label95" font-size="9.93601">A3</text>
    <line fill="none"  stroke="#000000" stroke-linejoin="round" stroke-linecap="round" y1="256.318" stroke-width="2.4" x1="1.2" y2="256.318" x2="21.2599"/>
    <rect width="21.2599" x="0" y="255.118" fill="none"  height="2.4" id="connector96pin" stroke-width="0" connectorName="A4"/>
    <g width="2.4" x="0" y="255.118" fill="none"  height="2.4" id="connector96terminal" stroke-width="0"/>
    <text x="27.7399" y="258.718" font-family="Droid Sans" fill="#000000"  text-anchor="start" stroke="none" id="label96" font-size="9.93601">A4</text>
    <line fill="none"  stroke="#000000" stroke-linejoin="round" stroke-linecap="round" y1="277.578" stroke-width="2.4" x1="1.2" y2="277.578" x2="21.2599"/>
    <rect width="21.2599" x="0" y="276.378" fill="none"  height="2.4" id="connector97pin" stroke-width="0" connectorName="A5"/>
    <g width="2.4" x="0" y="276.378" fill="none"  height="2.4" id="connector97terminal" stroke-width="0"/>
    <text x="27.7399" y="279.978" font-family="Droid Sans" fill="#000000"  text-anchor="start" stroke="none" id="label97" font-size="9.93601">A5</text>
    <line fill="none"  stroke="#000000" stroke-linejoin="round" stroke-linecap="round" y1="64.9795" stroke-width="2.4" x1="256.318" y2="64.9795" x2="277.578"/>
    <rect width="21.2599" x="257.518" y="63.7795" fill="none"  connectorname="D13 PWM" height="2.4" id="connector103pin" stroke-width="0"/>
    <g width="2.4" x="276.378" y="63.7795" fill="none"  height="2.4" id="connector103terminal" stroke-width="0"/>
    <text x="251.038" y="67.3795" font-family="Droid Sans" fill="#000000"  text-anchor="end" stroke="none" id="label103" font-size="9.93601">D13 PWM</text>
    <line fill="none"  stroke="#000000" stroke-linejoin="round" stroke-linecap="round" y1="86.2394" stroke-width="2.4" x1="256.318" y2="86.2394" x2="277.578"/>
    <rect width="21.2599" x="257.518" y="85.0392" fill="none"  connectorname="D12/A11" height="2.4" id="connector102pin" stroke-width="0"/>
    <g width="2.4" x="276.378" y="85.0392" fill="none"  height="2.4" id="connector102terminal" stroke-width="0"/>
    <text x="251.038" y="88.6392" font-family="Droid Sans" fill="#000000"  text-anchor="end" stroke="none" id="label102" font-size="9.93601">D12/A11</text>
    <line fill="none"  stroke="#000000" stroke-linejoin="round" stroke-linecap="round" y1="107.499" stroke-width="2.4" x1="256.318" y2="107.499" x2="277.578"/>
    <rect width="21.2599" x="257.518" y="106.299" fill="none"  connectorname="D11 PWM" height="2.4" id="connector101pin" stroke-width="0"/>
    <g width="2.4" x="276.378" y="106.299" fill="none"  height="2.4" id="connector101terminal" stroke-width="0"/>
    <text x="251.038" y="109.899" font-family="Droid Sans" fill="#000000"  text-anchor="end" stroke="none" id="label101" font-size="9.93601">D11 PWM</text>
    <line fill="none"  stroke="#000000" stroke-linejoin="round" stroke-linecap="round" y1="128.759" stroke-width="2.4" x1="256.318" y2="128.759" x2="277.578"/>
    <rect width="21.2599" x="257.518" y="127.559" fill="none"  connectorname="D10 PWM/A10" height="2.4" id="connector100pin" stroke-width="0"/>
    <g width="2.4" x="276.378" y="127.559" fill="none"  height="2.4" id="connector100terminal" stroke-width="0"/>
    <text x="251.038" y="131.159" font-family="Droid Sans" fill="#000000"  text-anchor="end" stroke="none" id="label100" font-size="9.93601">D10 PWM/A10</text>
    <line fill="none"  stroke="#000000" stroke-linejoin="round" stroke-linecap="round" y1="150.019" stroke-width="2.4" x1="256.318" y2="150.019" x2="277.578"/>
    <rect width="21.2599" x="257.518" y="148.819" fill="none"  connectorname="D9 PWM/A9" height="2.4" id="connector99pin" stroke-width="0"/>
    <g width="2.4" x="276.378" y="148.819" fill="none"  height="2.4" id="connector99terminal" stroke-width="0"/>
    <text x="251.038" y="152.419" font-family="Droid Sans" fill="#000000"  text-anchor="end" stroke="none" id="label99" font-size="9.93601">D9 PWM/A9</text>
    <line fill="none"  stroke="#000000" stroke-linejoin="round" stroke-linecap="round" y1="171.279" stroke-width="2.4" x1="256.318" y2="171.279" x2="277.578"/>
    <rect width="21.2599" x="257.518" y="170.078" fill="none"  connectorname="D8/A8" height="2.4" id="connector98pin" stroke-width="0"/>
    <g width="2.4" x="276.378" y="170.078" fill="none"  height="2.4" id="connector98terminal" stroke-width="0"/>
    <text x="251.038" y="173.678" font-family="Droid Sans" fill="#000000"  text-anchor="end" stroke="none" id="label98" font-size="9.93601">D8/A8</text>
    <line fill="none"  stroke="#000000" stroke-linejoin="round" stroke-linecap="round" y1="192.539" stroke-width="2.4" x1="256.318" y2="192.539" x2="277.578"/>
    <rect width="21.2599" x="257.518" y="191.339" fill="none"  connectorname="D7" height="2.4" id="connector83pin" stroke-width="0"/>
    <g width="2.4" x="276.378" y="191.339" fill="none"  height="2.4" id="connector83terminal" stroke-width="0"/>
    <text x="251.038" y="194.939" font-family="Droid Sans" fill="#000000"  text-anchor="end" stroke="none" id="label83" font-size="9.93601">D7</text>
    <line fill="none"  stroke="#000000" stroke-linejoin="round" stroke-linecap="round" y1="213.798" stroke-width="2.4" x1="256.318" y2="213.798" x2="277.578"/>
    <rect width="21.2599" x="257.518" y="212.599" fill="none"  connectorname="D6 PWM/A7" height="2.4" id="connector82pin" stroke-width="0"/>
    <g width="2.4" x="276.378" y="212.599" fill="none"  height="2.4" id="connector82terminal" stroke-width="0"/>
    <text x="251.038" y="216.199" font-family="Droid Sans" fill="#000000"  text-anchor="end" stroke="none" id="label82" font-size="9.93601">D6 PWM/A7</text>
    <line fill="none"  stroke="#000000" stroke-linejoin="round" stroke-linecap="round" y1="235.058" stroke-width="2.4" x1="256.318" y2="235.058" x2="277.578"/>
    <rect width="21.2599" x="257.518" y="233.858" fill="none"  connectorname="D5 PWM" height="2.4" id="connector81pin" stroke-width="0"/>
    <g width="2.4" x="276.378" y="233.858" fill="none"  height="2.4" id="connector81terminal" stroke-width="0"/>
    <text x="251.038" y="237.458" font-family="Droid Sans" fill="#000000"  text-anchor="end" stroke="none" id="label81" font-size="9.93601">D5 PWM</text>
    <line fill="none"  stroke="#000000" stroke-linejoin="round" stroke-linecap="round" y1="256.318" stroke-width="2.4" x1="256.318" y2="256.318" x2="277.578"/>
    <rect width="21.2599" x="257.518" y="255.118" fill="none"  connectorname="D4/A6" height="2.4" id="connector80pin" stroke-width="0"/>
    <g width="2.4" x="276.378" y="255.118" fill="none"  height="2.4" id="connector80terminal" stroke-width="0"/>
    <text x="251.038" y="258.718" font-family="Droid Sans" fill="#000000"  text-anchor="end" stroke="none" id="label80" font-size="9.93601">D4/A6</text>
    <line fill="none"  stroke="#000000" stroke-linejoin="round" stroke-linecap="round" y1="277.578" stroke-width="2.4" x1="256.318" y2="277.578" x2="277.578"/>
    <rect width="21.2599" x="257.518" y="276.378" fill="none"  connectorname="D3 PWM/SCL" height="2.4" id="connector79pin" stroke-width="0"/>
    <g width="2.4" x="276.378" y="276.378" fill="none"  height="2.4" id="connector79terminal" stroke-width="0"/>
    <text x="251.038" y="279.978" font-family="Droid Sans" fill="#000000"  text-anchor="end" stroke="none" id="label79" font-size="9.93601">D3 PWM/SCL</text>
    <line fill="none"  stroke="#000000" stroke-linejoin="round" stroke-linecap="round" y1="298.837" stroke-width="2.4" x1="256.318" y2="298.837" x2="277.578"/>
    <rect width="21.2599" x="257.518" y="297.638" fill="none"  connectorname="D2/SDA" height="2.4" id="connector78pin" stroke-width="0"/>
    <g width="2.4" x="276.378" y="297.638" fill="none"  height="2.4" id="connector78terminal" stroke-width="0"/>
    <text x="251.038" y="301.238" font-family="Droid Sans" fill="#000000"  text-anchor="end" stroke="none" id="label78" font-size="9.93601">D2/SDA</text>
    <line fill="none"  stroke="#000000" stroke-linejoin="round" stroke-linecap="round" y1="320.098" stroke-width="2.4" x1="256.318" y2="320.098" x2="277.578"/>
    <rect width="21.2599" x="257.518" y="318.897" fill="none"  connectorname="D1/TX" height="2.4" id="connector77pin" stroke-width="0"/>
    <g width="2.4" x="276.378" y="318.897" fill="none"  height="2.4" id="connector77terminal" stroke-width="0"/>
    <text x="251.038" y="322.497" font-family="Droid Sans" fill="#000000"  text-anchor="end" stroke="none" id="label77" font-size="9.93601">D1/TX</text>
    <line fill="none"  stroke="#000000" stroke-linejoin="round" stroke-linecap="round" y1="341.358" stroke-width="2.4" x1="256.318" y2="341.358" x2="277.578"/>
    <rect width="21.2599" x="257.518" y="340.158" fill="none"  connectorname="D0/RX" height="2.4" id="connector76pin" stroke-width="0"/>
    <g width="2.4" x="276.378" y="340.158" fill="none"  height="2.4" id="connector76terminal" stroke-width="0"/>
    <text x="251.038" y="343.758" font-family="Droid Sans" fill="#000000"  text-anchor="end" stroke="none" id="label76" font-size="9.93601">D0/RX</text>
    <line fill="none"  stroke="#000000" stroke-linejoin="round" stroke-linecap="round" y1="1.2" stroke-width="2.4" x1="86.2395" y2="21.2599" x2="86.2395"/>
    <rect width="2.4" x="85.0393" y="0" fill="none"  connectorname="3V3" height="21.2599" id="connector87pin" stroke-width="0"/>
    <g width="2.4" x="85.0393" y="0" fill="none"  height="0" id="connector87terminal" stroke-width="0"/>
    <text x="86.2395" y="33.8599" font-family="Droid Sans" fill="#000000"  text-anchor="middle" stroke="none" id="label87" font-size="9.93601">3V3</text>
    <line fill="none"  stroke="#000000" stroke-linejoin="round" stroke-linecap="round" y1="1.2" stroke-width="2.4" x1="150.019" y2="21.2599" x2="150.019"/>
    <rect width="2.4" x="148.819" y="0" fill="none"  connectorname="VIN" height="21.2599" id="connector91pin" stroke-width="0"/>
    <g width="2.4" x="148.819" y="0" fill="none"  height="0" id="connector91terminal" stroke-width="0"/>
    <text x="150.019" y="33.8599" font-family="Droid Sans" fill="#000000"  text-anchor="middle" stroke="none" id="label91" font-size="9.93601">VIN</text>
    <line fill="none"  stroke="#000000" stroke-linejoin="round" stroke-linecap="round" y1="385.077" stroke-width="2.4" x1="139.389" y2="405.137" x2="139.389"/>
    <rect width="2.4" x="138.189" y="385.077" fill="none"  connectorname="GND" height="21.2599" id="connector89pin" stroke-width="0"/>
    <g width="2.4" x="138.189" y="406.337" fill="none"  height="0" id="connector89terminal" stroke-width="0"/>
    <text x="139.389" y="379.317" font-family="Droid Sans" fill="#000000"  text-anchor="middle" stroke="none" id="label89" font-size="9.93601">GND</text>
    <rect width="21.2599" x="0" y="127.559" fill="none"  height="2.4" id="connector88pin" stroke-width="0" connectorName="IOREF"/>
    <g width="2.4" x="0" y="127.559" fill="none"  height="2.4" id="connector88terminal" stroke-width="0"/>
    <rect width="2.4" x="138.189" y="385.077" fill="none"  connectorname="GND" height="21.2599" id="connector104pin" stroke-width="0"/>
    <g width="2.4" x="138.189" y="406.337" fill="none"  height="0" id="connector104terminal" stroke-width="0"/>
    <rect width="2.4" x="138.189" y="385.077" fill="none"  connectorname="GND" height="21.2599" id="connector90pin" stroke-width="0"/>
    <g width="2.4" x="138.189" y="406.337" fill="none"  height="0" id="connector90terminal" stroke-width="0"/>
    <rect width="21.2599" x="257.518" y="276.378" fill="none"  connectorname="D3 PWM/SCL" height="2.4" id="connector107pin" stroke-width="0"/>
    <g width="2.4" x="276.378" y="276.378" fill="none"  height="2.4" id="connector107terminal" stroke-width="0"/>
    <rect width="21.2599" x="257.518" y="297.638" fill="none"  connectorname="D2/SDA" height="2.4" id="connector106pin" stroke-width="0"/>
    <g width="2.4" x="276.378" y="297.638" fill="none"  height="2.4" id="connector106terminal" stroke-width="0"/>
   </g>
  </g>
 </g>
 <g partID="1151930">
  <g transform="translate(369.343,457.528)">
   <g transform="matrix(-1,0,0,-1,0,0)">
    <g  id="schematic">
     <rect width="1.893" x="5.474" y="1.089"  height="9.783" id="connector0pin"/>
     <g width="0.866" x="5.952" y="0.406"  height="0.686" id="connector0terminal"/>
     <rect width="1.894" x="5.477" y="54.369"  height="9.783" id="connector1pin"/>
     <g width="0.866" x="5.956" y="64.082"  height="0.688" id="connector1terminal"/>
     <g >
      <polyline fill="#FFFFFF" points="6.405,1.132,6.405,20.392,9.905,22.255,2.655,26.291,9.905,30.324,2.655,34.359,9.905,38.392,2.655,42.427,6.405,44.599,6.405,63.861"  stroke="#000000" stroke-linecap="round" stroke-width="2.2284"/>
     </g>
    </g>
   </g>
  </g>
 </g>
 <g partID="56740">
  <g transform="translate(412.856,457.794)">
   <g transform="matrix(-1,0,0,-1,0,0)">
    <g  id="schematic">
     <rect width="1.893" x="5.474" y="1.089"  height="9.783" id="connector0pin"/>
     <g width="0.866" x="5.952" y="0.406"  height="0.686" id="connector0terminal"/>
     <rect width="1.894" x="5.477" y="54.369"  height="9.783" id="connector1pin"/>
     <g width="0.866" x="5.956" y="64.082"  height="0.688" id="connector1terminal"/>
     <g >
      <polyline fill="#FFFFFF" points="6.405,1.132,6.405,20.392,9.905,22.255,2.655,26.291,9.905,30.324,2.655,34.359,9.905,38.392,2.655,42.427,6.405,44.599,6.405,63.861"  stroke="#000000" stroke-linecap="round" stroke-width="2.2284"/>
     </g>
    </g>
   </g>
  </g>
 </g>
 <g partID="56810">
  <g transform="translate(307.653,391.91)">
   <g  id="schematic">
    <rect width="1.893" x="5.474" y="1.089"  height="9.783" id="connector0pin"/>
    <g width="0.866" x="5.952" y="0.406"  height="0.686" id="connector0terminal"/>
    <rect width="1.894" x="5.477" y="54.369"  height="9.783" id="connector1pin"/>
    <g width="0.866" x="5.956" y="64.082"  height="0.688" id="connector1terminal"/>
    <g >
     <polyline fill="#FFFFFF" points="6.405,1.132,6.405,20.392,9.905,22.255,2.655,26.291,9.905,30.324,2.655,34.359,9.905,38.392,2.655,42.427,6.405,44.599,6.405,63.861"  stroke="#000000" stroke-linecap="round" stroke-width="2.2284"/>
    </g>
   </g>
  </g>
 </g>
 <g partID="1156160">
  <g transform="translate(483.793,393.003)">
   <g transform="matrix(1,-2.22045e-16,2.22045e-16,1,0,0)">
    <g  id="schematic">
     <rect width="1.893" x="5.474" y="1.089"  height="9.783" id="connector0pin"/>
     <g width="0.866" x="5.952" y="0.406"  height="0.686" id="connector0terminal"/>
     <rect width="1.894" x="5.477" y="54.369"  height="9.783" id="connector1pin"/>
     <g width="0.866" x="5.956" y="64.082"  height="0.688" id="connector1terminal"/>
     <g >
      <polyline fill="#FFFFFF" points="6.405,1.132,6.405,20.392,9.905,22.255,2.655,26.291,9.905,30.324,2.655,34.359,9.905,38.392,2.655,42.427,6.405,44.599,6.405,63.861"  stroke="#000000" stroke-linecap="round" stroke-width="2.2284"/>
     </g>
    </g>
   </g>
  </g>
 </g>
 <g partID="59070">
  <g transform="translate(441.579,392.66)">
   <g  id="schematic">
    <rect width="1.893" x="5.474" y="1.089"  height="9.783" id="connector0pin"/>
    <g width="0.866" x="5.952" y="0.406"  height="0.686" id="connector0terminal"/>
    <rect width="1.894" x="5.477" y="54.369"  height="9.783" id="connector1pin"/>
    <g width="0.866" x="5.956" y="64.082"  height="0.688" id="connector1terminal"/>
    <g >
     <polyline fill="#FFFFFF" points="6.405,1.132,6.405,20.392,9.905,22.255,2.655,26.291,9.905,30.324,2.655,34.359,9.905,38.392,2.655,42.427,6.405,44.599,6.405,63.861"  stroke="#000000" stroke-linecap="round" stroke-width="2.2284"/>
    </g>
   </g>
  </g>
 </g>
 <g partID="1189430">
  <line stroke="#404040" stroke-linecap="round" y1="348.273" x1="314" y2="392.659" stroke-width="2.4" x2="314.038"/>
 </g>
 <g partID="1189340">
  <line stroke="#404040" stroke-linecap="round" y1="348.273" x1="297.238" y2="348.273" stroke-width="2.4" x2="314"/>
 </g>
 <circle fill="black" cx="314" cy="348.273" stroke="none" r="3.6" stroke-width="0"/>
 <g partID="1189560">
  <line stroke="#404040" stroke-linecap="round" y1="319.334" x1="314" y2="348.272" stroke-width="2.4" x2="314"/>
 </g>
 <g partID="1189570">
  <line stroke="#404040" stroke-linecap="round" y1="233.633" x1="315.956" y2="319.334" stroke-width="2.4" x2="314"/>
 </g>
 <g partID="1191070">
  <line stroke="#404040" stroke-linecap="round" y1="327.013" x1="297.238" y2="326.801" stroke-width="2.4" x2="362.954"/>
 </g>
 <g partID="1191280">
  <line stroke="#404040" stroke-linecap="round" y1="326.8" x1="362.954" y2="233.633" stroke-width="2.4" x2="362.958"/>
 </g>
 <circle fill="black" cx="362.954" cy="326.8" stroke="none" r="3.6" stroke-width="0"/>
 <g partID="1191370">
  <line stroke="#404040" stroke-linecap="round" y1="326.8" x1="362.954" y2="393.101" stroke-width="2.4" x2="362.954"/>
 </g>
 <g partID="1191900">
  <line stroke="#404040" stroke-linecap="round" y1="232.4" x1="406.266" y2="305.752" stroke-width="2.4" x2="406.266"/>
 </g>
 <g partID="1191910">
  <line stroke="#404040" stroke-linecap="round" y1="233.633" x1="405.478" y2="232.4" stroke-width="2.4" x2="406.267"/>
 </g>
 <g partID="1192400">
  <line stroke="#404040" stroke-linecap="round" y1="305.753" x1="406.266" y2="305.753" stroke-width="2.4" x2="297.238"/>
 </g>
 <circle fill="black" cx="406.266" cy="305.753" stroke="none" r="3.6" stroke-width="0"/>
 <g partID="1192260">
  <line stroke="#404040" stroke-linecap="round" y1="393.368" x1="406.467" y2="305.752" stroke-width="2.4" x2="406.267"/>
 </g>
 <g partID="1192930">
  <line stroke="#404040" stroke-linecap="round" y1="284.134" x1="447.998" y2="284.492" stroke-width="2.4" x2="297.238"/>
 </g>
 <g partID="1192940">
  <line stroke="#404040" stroke-linecap="round" y1="393.409" x1="447.965" y2="284.134" stroke-width="2.4" x2="447.998"/>
 </g>
 <circle fill="black" cx="447.998" cy="284.134" stroke="none" r="3.6" stroke-width="0"/>
 <g partID="1193050">
  <line stroke="#404040" stroke-linecap="round" y1="284.134" x1="447.998" y2="233.633" stroke-width="2.4" x2="447.998"/>
 </g>
 <g partID="1193380">
  <line stroke="#404040" stroke-linecap="round" y1="261.2" x1="490.534" y2="233.633" stroke-width="2.4" x2="490.517"/>
 </g>
 <g partID="1193390">
  <line stroke="#404040" stroke-linecap="round" y1="263.234" x1="297.238" y2="261.2" stroke-width="2.4" x2="490.533"/>
 </g>
 <circle fill="black" cx="490.533" cy="261.2" stroke="none" r="3.6" stroke-width="0"/>
 <g partID="1193760">
  <line stroke="#404040" stroke-linecap="round" y1="393.752" x1="490.178" y2="261.2" stroke-width="2.4" x2="490.533"/>
 </g>
 <g partID="1199690">
  <line stroke="#404040" stroke-linecap="round" y1="457.046" x1="406.471" y2="456.779" stroke-width="2.4" x2="362.958"/>
 </g>
 <circle fill="black" cx="406.471" cy="457.046" stroke="none" r="3.6" stroke-width="0"/>
 <circle fill="black" cx="362.958" cy="456.779" stroke="none" r="3.6" stroke-width="0"/>
 <g partID="1200080">
  <line stroke="#404040" stroke-linecap="round" y1="456.336" x1="314.042" y2="456.779" stroke-width="2.4" x2="362.958"/>
 </g>
 <circle fill="black" cx="314.042" cy="456.336" stroke="none" r="3.6" stroke-width="0"/>
 <circle fill="black" cx="362.958" cy="456.779" stroke="none" r="3.6" stroke-width="0"/>
 <g partID="1200360">
  <line stroke="#404040" stroke-linecap="round" y1="456.336" x1="314.042" y2="455.772" stroke-width="2.4" x2="159.049"/>
 </g>
 <circle fill="black" cx="314.042" cy="456.336" stroke="none" r="3.6" stroke-width="0"/>
 <g partID="1201300">
  <line stroke="#404040" stroke-linecap="round" y1="457.086" x1="447.969" y2="457.045" stroke-width="2.4" x2="406.471"/>
 </g>
 <circle fill="black" cx="447.969" cy="457.086" stroke="none" r="3.6" stroke-width="0"/>
 <circle fill="black" cx="406.471" cy="457.045" stroke="none" r="3.6" stroke-width="0"/>
 <g partID="1202470">
  <line stroke="#404040" stroke-linecap="round" y1="457.43" x1="490.182" y2="457.086" stroke-width="2.4" x2="447.968"/>
 </g>
 <circle fill="black" cx="447.968" cy="457.086" stroke="none" r="3.6" stroke-width="0"/>
 <g partID="1202750">
  <line stroke="#404040" stroke-linecap="round" y1="175.334" x1="489.466" y2="175.139" stroke-width="2.4" x2="473.6"/>
 </g>
 <g partID="1202760">
  <line stroke="#404040" stroke-linecap="round" y1="175.139" x1="490.518" y2="175.334" stroke-width="2.4" x2="489.466"/>
 </g>
 <g partID="1202970">
  <line stroke="#404040" stroke-linecap="round" y1="175.139" x1="447.999" y2="175.139" stroke-width="2.4" x2="431.08"/>
 </g>
 <g partID="1203200">
  <line stroke="#404040" stroke-linecap="round" y1="175.139" x1="388.56" y2="175.139" stroke-width="2.4" x2="405.479"/>
 </g>
 <g partID="1203540">
  <line stroke="#404040" stroke-linecap="round" y1="174.8" x1="341.734" y2="175.139" stroke-width="2.4" x2="362.96"/>
 </g>
 <g partID="1203550">
  <line stroke="#404040" stroke-linecap="round" y1="175.139" x1="341.558" y2="174.8" stroke-width="2.4" x2="341.734"/>
 </g>
 <g partID="1204090">
  <line stroke="#404040" stroke-linecap="round" y1="178.193" x1="3.6" y2="3.60064" stroke-width="2.4" x2="3.6"/>
 </g>
 <g partID="1203960">
  <line stroke="#404040" stroke-linecap="round" y1="3.6" x1="3.6" y2="3.6" stroke-width="2.4" x2="315.958"/>
 </g>
 <g partID="1203830">
  <line stroke="#404040" stroke-linecap="round" y1="3.6" x1="315.958" y2="175.139" stroke-width="2.4" x2="315.958"/>
 </g>
 <g partID="1203700">
  <line stroke="#404040" stroke-linecap="round" y1="178.193" x1="20.8596" y2="178.193" stroke-width="2.4" x2="3.6"/>
 </g>
 <g id="partLabel" partID="56220">
  <g transform="translate(229.105,52.6344)">
   <g fill="#000000" font-family="'DroidSans'" stroke="none" font-style="normal" fill-opacity="1" font-weight="normal" id="schematicLabel" font-size="9">
    <text x="0" y="6.75">Leonardo</text>
   </g>
  </g>
 </g>
 <g id="partLabel" partID="56740">
  <g transform="translate(416.056,418.486)">
   <g fill="#000000" font-family="'DroidSans'" stroke="none" font-style="normal" fill-opacity="1" font-weight="normal" id="schematicLabel" font-size="9">
    <text x="0" y="6.75">R3</text>
    <text x="0" y="15.75">10k&#x3a9;</text>
   </g>
  </g>
 </g>
 <g id="partLabel" partID="1151930">
  <g transform="translate(372.543,418.219)">
   <g fill="#000000" font-family="'DroidSans'" stroke="none" font-style="normal" fill-opacity="1" font-weight="normal" id="schematicLabel" font-size="9">
    <text x="0" y="6.75">R2</text>
    <text x="0" y="15.75">10k&#x3a9;</text>
   </g>
  </g>
 </g>
 <g id="partLabel" partID="59070">
  <g transform="translate(457.605,416.926)">
   <g fill="#000000" font-family="'DroidSans'" stroke="none" font-style="normal" fill-opacity="1" font-weight="normal" id="schematicLabel" font-size="9">
    <text x="0" y="6.75">R4</text>
    <text x="0" y="15.75">10k&#x3a9;</text>
   </g>
  </g>
 </g>
 <g id="partLabel" partID="1156160">
  <g transform="translate(500.352,417.27)">
   <g fill="#000000" font-family="'DroidSans'" stroke="none" font-style="normal" fill-opacity="1" font-weight="normal" id="schematicLabel" font-size="9">
    <text x="0" y="6.75">R5</text>
    <text x="0" y="15.75">10k&#x3a9;</text>
   </g>
  </g>
 </g>
 <g id="partLabel" partID="1144040">
  <g transform="translate(323.363,161.141)">
   <g fill="#000000" font-family="'DroidSans'" stroke="none" font-style="normal" fill-opacity="1" font-weight="normal" id="schematicLabel" font-size="9">
    <text x="0" y="6.75">S1</text>
   </g>
  </g>
 </g>
 <g id="partLabel" partID="1151770">
  <g transform="translate(370.365,159.541)">
   <g fill="#000000" font-family="'DroidSans'" stroke="none" font-style="normal" fill-opacity="1" font-weight="normal" id="schematicLabel" font-size="9">
    <text x="0" y="6.75">S2</text>
   </g>
  </g>
 </g>
 <g id="partLabel" partID="1151750">
  <g transform="translate(453.005,158.741)">
   <g fill="#000000" font-family="'DroidSans'" stroke="none" font-style="normal" fill-opacity="1" font-weight="normal" id="schematicLabel" font-size="9">
    <text x="0" y="6.75">S4</text>
   </g>
  </g>
 </g>
 <g id="partLabel" partID="1151730">
  <g transform="translate(412.885,159.541)">
   <g fill="#000000" font-family="'DroidSans'" stroke="none" font-style="normal" fill-opacity="1" font-weight="normal" id="schematicLabel" font-size="9">
    <text x="0" y="6.75">S3</text>
   </g>
  </g>
 </g>
 <g id="partLabel" partID="1151700">
  <g transform="translate(497.924,159.541)">
   <g fill="#000000" font-family="'DroidSans'" stroke="none" font-style="normal" fill-opacity="1" font-weight="normal" id="schematicLabel" font-size="9">
    <text x="0" y="6.75">S5</text>
   </g>
  </g>
 </g>
 <g id="partLabel" partID="56810">
  <g transform="translate(322.879,417.243)">
   <g fill="#000000" font-family="'DroidSans'" stroke="none" font-style="normal" fill-opacity="1" font-weight="normal" id="schematicLabel" font-size="9">
    <text x="0" y="6.75">R1</text>
    <text x="0" y="15.75">10k&#x3a9;</text>
   </g>
  </g>
 </g>
</svg>
