<?xml version="1.0" encoding="utf-8"?>
<!-- Generator: Adobe Illustrator 16.0.4, SVG Export Plug-In . SVG Version: 6.00 Build 0)  -->
<!DOCTYPE svg PUBLIC "-//W3C//DTD SVG 1.1//EN" "http://www.w3.org/Graphics/SVG/1.1/DTD/svg11.dtd">
<svg version="1.1" id="Layer_1" xmlns:svg="http://www.w3.org/2000/svg"
	 xmlns="http://www.w3.org/2000/svg" xmlns:xlink="http://www.w3.org/1999/xlink" x="0px" y="0px" width="576px" height="448.136px"
	 viewBox="-150.077 -0.541 576 448.136" enable-background="new -150.077 -0.541 576 448.136" xml:space="preserve">
<g>
	<g transform="translate(0.84328,70.6478)">
		<g id="schematic">
			
				<line fill="none" stroke="#000000" stroke-width="2" stroke-linecap="round" x1="-142.394" y1="153.36" x2="-142.394" y2="150.352"/>
			
				<line fill="none" stroke="#000000" stroke-width="2" stroke-linecap="round" x1="-142.394" y1="150.352" x2="-148.407" y2="145.842"/>
			
				<line fill="none" stroke="#000000" stroke-width="2" stroke-linecap="round" x1="-148.407" y1="145.842" x2="-134.878" y2="138.326"/>
			
				<line fill="none" stroke="#000000" stroke-width="2" stroke-linecap="round" x1="-134.878" y1="138.326" x2="-148.407" y2="130.808"/>
			
				<line fill="none" stroke="#000000" stroke-width="2" stroke-linecap="round" x1="-148.407" y1="130.808" x2="-134.878" y2="123.291"/>
			
				<line fill="none" stroke="#000000" stroke-width="2" stroke-linecap="round" x1="-134.878" y1="123.291" x2="-148.407" y2="115.775"/>
			
				<line fill="none" stroke="#000000" stroke-width="2" stroke-linecap="round" x1="-148.407" y1="115.775" x2="-134.878" y2="108.257"/>
			
				<line fill="none" stroke="#000000" stroke-width="2" stroke-linecap="round" x1="-134.878" y1="108.257" x2="-148.407" y2="100.74"/>
			
				<line fill="none" stroke="#000000" stroke-width="2" stroke-linecap="round" x1="-148.407" y1="100.74" x2="-142.394" y2="96.23"/>
			
				<line fill="none" stroke="#000000" stroke-width="2" stroke-linecap="round" x1="-142.394" y1="96.23" x2="-142.394" y2="93.223"/>
			
				<line fill="none" stroke="#000000" stroke-width="2" stroke-linecap="round" x1="-134.878" y1="123.291" x2="-127.36" y2="115.775"/>
			
				<line fill="none" stroke="#000000" stroke-width="2" stroke-linecap="round" x1="-127.36" y1="130.808" x2="-134.878" y2="123.291"/>
			
				<line fill="none" stroke="#000000" stroke-width="2" stroke-linecap="round" x1="-127.36" y1="115.775" x2="-127.36" y2="130.808"/>
			
				<line fill="none" stroke="#000000" stroke-width="2" stroke-linecap="round" x1="-130.367" y1="151.105" x2="-130.367" y2="136.07"/>
			
				<line fill="none" stroke="#000000" stroke-width="2" stroke-linecap="round" x1="-130.367" y1="136.07" x2="-126.61" y2="143.587"/>
			
				<line fill="none" stroke="#000000" stroke-width="2" stroke-linecap="round" x1="-126.61" y1="143.587" x2="-134.126" y2="143.587"/>
			
				<line fill="none" stroke="#000000" stroke-width="2" stroke-linecap="round" x1="-134.126" y1="143.587" x2="-130.367" y2="136.07"/>
			
				<line id="connector2pin" fill="none" stroke="#787878" stroke-width="2" stroke-linecap="round" x1="-142.394" y1="168.394" x2="-142.394" y2="153.36"/>
			<g id="connector2terminal">
			</g>
			<g transform="matrix(1, 0, 0, 1, 2.19, 39.9502)">
				<g>
					<g transform="rotate(270)">
						<g>
							<text transform="matrix(1 0 0 1 -122.3798 -146.7772)" fill="#8C8C8C" font-family="'ArialMT'" font-size="5.2202">3</text>
						</g>
					</g>
				</g>
			</g>
			
				<line id="connector0pin" fill="none" stroke="#787878" stroke-width="2" stroke-linecap="round" x1="-142.394" y1="78.19" x2="-142.394" y2="93.223"/>
			<g id="connector0terminal">
			</g>
			<g transform="matrix(1, 0, 0, 1, 2.19, 3.95)">
				<g>
					<g transform="rotate(270)">
						<g>
							<text transform="matrix(1 0 0 1 -83.2081 -146.7772)" fill="#8C8C8C" font-family="'ArialMT'" font-size="5.2202">1</text>
						</g>
					</g>
				</g>
			</g>
			
				<line id="connector1pin" fill="none" stroke="#787878" stroke-width="2" stroke-linecap="round" x1="-112.325" y1="123.291" x2="-127.36" y2="123.291"/>
			<g id="connector1terminal">
			</g>
			<text transform="matrix(1 0 0 1 -121.2952 121.0985)" fill="#8C8C8C" font-family="'ArialMT'" font-size="5.2202">2</text>
		</g>
	</g>
</g>
<g>
	<g transform="translate(198.176,107.035)">
		<g transform="matrix(1,0,0,1,0,0)">
			<g id="schematic_1_">
				
					<line fill="none" stroke="#000000" stroke-width="2" stroke-linecap="round" x1="96.35" y1="132.815" x2="84.323" y2="138.829"/>
				<line fill="none" stroke="#000000" stroke-width="2" stroke-linecap="round" x1="91.84" y1="156.869" x2="96.35" y2="162.884"/>
				
					<line fill="none" stroke="#000000" stroke-width="2" stroke-linecap="round" x1="96.35" y1="162.884" x2="88.834" y2="162.884"/>
				
					<line fill="none" stroke="#000000" stroke-width="2" stroke-linecap="round" x1="88.834" y1="162.884" x2="91.84" y2="156.869"/>
				
					<line fill="none" stroke="#000000" stroke-width="2" stroke-linecap="round" x1="90.431" y1="159.923" x2="83.139" y2="156.278"/>
				
					<line fill="none" stroke="#000000" stroke-width="2" stroke-linecap="round" x1="90.337" y1="162.131" x2="94.847" y2="162.131"/>
				
					<line fill="none" stroke="#000000" stroke-width="2" stroke-linecap="round" x1="94.847" y1="162.131" x2="91.84" y2="158.373"/>
				
					<line fill="none" stroke="#000000" stroke-width="2" stroke-linecap="round" x1="91.84" y1="158.373" x2="90.337" y2="161.379"/>
				
					<line fill="none" stroke="#000000" stroke-width="2" stroke-linecap="round" x1="90.337" y1="161.379" x2="92.592" y2="161.379"/>
				
					<line fill="none" stroke="#000000" stroke-width="2" stroke-linecap="round" x1="92.592" y1="161.379" x2="91.84" y2="159.876"/>
				<rect x="79.813" y="132.815" width="4.511" height="30.069"/>
				
					<line id="connector0pin_1_" fill="none" stroke="#787878" stroke-width="2" stroke-linecap="round" x1="66.281" y1="147.85" x2="81.315" y2="147.85"/>
				<g id="connector0terminal_1_">
				</g>
				<text transform="matrix(1 0 0 1 72.3477 145.6566)" fill="#8C8C8C" font-family="'ArialMT'" font-size="5.2202">1</text>
				
					<line id="connector2pin_1_" fill="none" stroke="#787878" stroke-width="2" stroke-linecap="round" x1="96.35" y1="177.916" x2="96.35" y2="162.884"/>
				<g id="connector2terminal_1_">
				</g>
				<g transform="matrix(1, 0, 0, 1, 13.7, 25.5501)">
					<g>
						<g transform="rotate(270)">
							<g>
								<text transform="matrix(1 0 0 1 -146.3028 80.4582)" fill="#8C8C8C" font-family="'ArialMT'" font-size="5.2202">2</text>
							</g>
						</g>
					</g>
				</g>
				
					<line id="connector1pin_1_" fill="none" stroke="#787878" stroke-width="2" stroke-linecap="round" x1="96.35" y1="117.781" x2="96.35" y2="132.815"/>
				<g id="connector1terminal_1_">
				</g>
				<g transform="matrix(1, 0, 0, 1, 13.7, 3.95001)">
					<g>
						<g transform="rotate(270)">
							<g>
								<text transform="matrix(1 0 0 1 -122.8014 80.4582)" fill="#8C8C8C" font-family="'ArialMT'" font-size="5.2202">3</text>
							</g>
						</g>
					</g>
				</g>
			</g>
		</g>
	</g>
</g>
<g>
	<g transform="translate(207.322,30.5606)">
		<g id="schematic_2_">
			<path fill="#FFFFFF" stroke="#000000" stroke-width="2" d="M100.309,64.64c0-4.531-2.504-8.475-6.209-10.524h1.699V42.089h-7.519
				h-7.517v12.027h1.699c-3.701,2.049-6.212,5.993-6.212,10.524s2.509,8.475,6.212,10.524h-1.699v12.029h7.517h7.519V75.164h-1.701
				C97.801,73.114,100.309,69.171,100.309,64.64z"/>
			<g transform="matrix(1, 0, 0, 1, 4.3203, 16.2754)">
				<text id="label" transform="matrix(1 0 0 1 80.2036 51.549)" font-family="'ArialMT'" font-size="8.8743">M</text>
			</g>
			<line fill="none" stroke="#000000" stroke-width="2" stroke-linecap="round" x1="80.764" y1="42.089" x2="80.764" y2="54.116"/>
			<line fill="none" stroke="#000000" stroke-width="2" stroke-linecap="round" x1="80.764" y1="42.089" x2="88.281" y2="42.089"/>
			<line fill="none" stroke="#000000" stroke-width="2" stroke-linecap="round" x1="88.281" y1="42.089" x2="95.799" y2="42.089"/>
			<line fill="none" stroke="#000000" stroke-width="2" stroke-linecap="round" x1="95.799" y1="42.089" x2="95.799" y2="54.116"/>
			<line fill="none" stroke="#000000" stroke-width="2" stroke-linecap="round" x1="95.799" y1="87.193" x2="95.799" y2="75.164"/>
			<line fill="none" stroke="#000000" stroke-width="2" stroke-linecap="round" x1="95.799" y1="87.193" x2="88.281" y2="87.193"/>
			<line fill="none" stroke="#000000" stroke-width="2" stroke-linecap="round" x1="88.281" y1="87.193" x2="80.764" y2="87.193"/>
			<line fill="none" stroke="#000000" stroke-width="2" stroke-linecap="round" x1="80.764" y1="87.193" x2="80.764" y2="75.164"/>
			
				<line id="connector0pin_2_" fill="none" stroke="#8C8C8C" stroke-width="2" stroke-linecap="round" stroke-miterlimit="10" x1="88.281" y1="34.571" x2="88.281" y2="42.089"/>
			
				<line id="connector1pin_2_" fill="none" stroke="#8C8C8C" stroke-width="2" stroke-linecap="round" stroke-miterlimit="10" x1="88.281" y1="94.707" x2="88.281" y2="87.193"/>
			<circle fill="none" stroke="#000000" stroke-width="2" cx="88.281" cy="64.64" r="12.027"/>
			<g id="connector0terminal_2_">
			</g>
			<g transform="matrix(1, 0, 0, 1, 7.2441, 2.6348)">
				<text transform="matrix(1 0 0 1 83.3853 36.7072)" fill="#8C8C8C" font-family="'ArialMT'" font-size="5.2202">1</text>
			</g>
			<g transform="matrix(1, 0, 0, 1, 2.40594, 0.864304)">
				<g>
					<g transform="rotate(270)">
						<g>
							<g transform="matrix(0, 1, -1, 0, -6.5263, 2.7464)">
								<text transform="matrix(1 0 0 1 81.1099 41.882)" fill="#787878" font-family="'ArialMT'" font-size="7.3082">+</text>
							</g>
						</g>
					</g>
				</g>
			</g>
			<g id="connector1terminal_2_">
			</g>
			<g transform="matrix(1, 0, 0, 1, 7.2441, 28.5156)">
				<text transform="matrix(1 0 0 1 83.3853 64.8674)" fill="#8C8C8C" font-family="'ArialMT'" font-size="5.2202">2</text>
			</g>
			<g transform="matrix(1, 0, 0, 1, 2.40594, 11.0243)">
				<g>
					<g transform="rotate(270)">
						<g>
							<g transform="matrix(0, 1, -1, 0, -13.1007, 3.0257)">
								<text transform="matrix(1 0 0 1 81.4146 60.09)" fill="#787878" font-family="'ArialMT'" font-size="7.3082">-</text>
							</g>
						</g>
					</g>
				</g>
			</g>
		</g>
	</g>
</g>
<g>
	<g transform="translate(183.237,55.6047)">
		<g id="schematic_3_">
			<path id="connector0pin_3_" fill="none" stroke="#787878" stroke-width="2" stroke-linecap="round" d="M64.332,76.907V61.873"/>
			<g id="connector0terminal_3_">
			</g>
			<path id="path4098" fill="none" stroke="#000000" stroke-width="2" stroke-linecap="round" d="M50.339,77.191h27.98"/>
			<path id="path4100" fill="none" stroke="#000000" stroke-width="2" stroke-linecap="round" d="M55.001,82.923h18.656"/>
			<path id="path4102" fill="none" stroke="#000000" stroke-width="2" stroke-linecap="round" d="M68.989,88.6h-9.32"/>
		</g>
	</g>
</g>
<g>
	<g transform="translate(204.993,170.513)">
		<g id="schematic_4_">
			<path id="connector0pin_4_" fill="none" stroke="#787878" stroke-width="2" stroke-linecap="round" d="M88.003,201.935v-15.034"
				/>
			<g id="connector0terminal_4_">
			</g>
			<path id="path4098_1_" fill="none" stroke="#000000" stroke-width="2" stroke-linecap="round" d="M74.013,202.219h27.979"/>
			<path id="path4100_1_" fill="none" stroke="#000000" stroke-width="2" stroke-linecap="round" d="M78.672,207.951h18.658"/>
			<path id="path4102_1_" fill="none" stroke="#000000" stroke-width="2" stroke-linecap="round" d="M92.661,213.628h-9.32"/>
		</g>
	</g>
</g>
<g>
	<g transform="translate(97.933,200.423)">
		<g id="schematic_5_">
			<path id="connector0pin_5_" fill="none" stroke="#787878" stroke-width="2" stroke-linecap="round" d="M-28.483,234.481v-15.035"
				/>
			<g id="connector0terminal_5_">
			</g>
			<path id="path4098_2_" fill="none" stroke="#000000" stroke-width="2" stroke-linecap="round" d="M-42.476,234.764h27.981"/>
			<path id="path4100_2_" fill="none" stroke="#000000" stroke-width="2" stroke-linecap="round" d="M-37.814,240.495h18.656"/>
			<path id="path4102_2_" fill="none" stroke="#000000" stroke-width="2" stroke-linecap="round" d="M-23.826,246.172h-9.323"/>
		</g>
	</g>
</g>
<g>
	<g transform="translate(234.016,129.468)">
		<g transform="matrix(-1,0,0,-1,0,0)">
			<g id="schematic_6_">
				
					<line fill="none" stroke="#000000" stroke-width="2" stroke-linecap="round" x1="-88.287" y1="-110.812" x2="-95.804" y2="-110.812"/>
				
					<line fill="none" stroke="#000000" stroke-width="2" stroke-linecap="round" x1="-95.804" y1="-110.812" x2="-103.321" y2="-110.812"/>
				<polygon fill="#FFFFFF" stroke="#000000" stroke-width="2" stroke-linecap="round" points="-95.804,-110.812 -103.321,-125.847 
					-95.804,-125.847 -88.287,-125.847 				"/>
				
					<line fill="none" stroke="#000000" stroke-width="2" stroke-linecap="round" x1="-95.804" y1="-125.847" x2="-95.804" y2="-110.812"/>
				
					<line id="connector0pin_6_" fill="none" stroke="#787878" stroke-width="2" stroke-linecap="round" x1="-95.804" y1="-95.78" x2="-95.804" y2="-110.812"/>
				<g id="connector0terminal_6_">
				</g>
				<g transform="matrix(1, 0, 0, 1, 3.429, 6.4262)">
					<g>
						<g transform="rotate(270)">
							<g>
								<g transform="matrix(1, 0, 0, 1, -12.6912, -0.1726)">
									<text transform="matrix(1 0 0 1 120.6574 -101.0063)" fill="#787878" font-family="'ArialMT'" font-size="4.1761">2</text>
								</g>
							</g>
						</g>
					</g>
				</g>
				
					<line id="connector1pin_3_" fill="none" stroke="#787878" stroke-width="2" stroke-linecap="round" x1="-95.804" y1="-140.882" x2="-95.804" y2="-125.847"/>
				<g id="connector1terminal_3_">
				</g>
				<g transform="matrix(1, 0, 0, 1, 3.429, 1.3462)">
					<g>
						<g transform="rotate(270)">
							<g>
								<g transform="matrix(1, 0, 0, 1, -3.3708, -0.1726)">
									<text transform="matrix(1 0 0 1 136.3254 -101.0063)" fill="#787878" font-family="'ArialMT'" font-size="4.1761">1</text>
								</g>
							</g>
						</g>
					</g>
				</g>
			</g>
		</g>
	</g>
</g>
<g>
	<g transform="translate(47.8486,28.2503)">
		<g id="schematic_7_">
			
				<rect x="-67.007" y="62.333" fill="#FFFFFF" stroke="#000000" stroke-width="2" stroke-linecap="round" width="163.495" height="283.769"/>
			
				<line id="connector61pin" fill="none" stroke="#787878" stroke-width="2" stroke-linecap="round" x1="96.698" y1="91.463" x2="126.764" y2="91.463"/>
			<text transform="matrix(1 0 0 1 72.2493 92.9238)" fill="#8C8C8C" font-family="'ArialMT'" font-size="7.3082">D0/RX</text>
			<g id="connector61terminal">
			</g>
			
				<line id="connector62pin" fill="none" stroke="#787878" stroke-width="2" stroke-linecap="round" x1="96.698" y1="106.497" x2="126.764" y2="106.497"/>
			<text transform="matrix(1 0 0 1 73.0628 107.9589)" fill="#8C8C8C" font-family="'ArialMT'" font-size="7.3082">D1/TX</text>
			<g id="connector62terminal">
			</g>
			
				<line id="connector63pin" fill="none" stroke="#787878" stroke-width="2" stroke-linecap="round" x1="96.698" y1="121.531" x2="126.764" y2="121.531"/>
			<text transform="matrix(1 0 0 1 84.4319 122.9931)" fill="#8C8C8C" font-family="'ArialMT'" font-size="7.3082">D2</text>
			<g id="connector63terminal">
			</g>
			
				<line id="connector64pin" fill="none" stroke="#787878" stroke-width="2" stroke-linecap="round" x1="96.698" y1="136.566" x2="126.764" y2="136.566"/>
			<text transform="matrix(1 0 0 1 64.5413 138.0273)" fill="#8C8C8C" font-family="'ArialMT'" font-size="7.3082">D3 PWM</text>
			<g id="connector64terminal">
			</g>
			
				<line id="connector65pin" fill="none" stroke="#787878" stroke-width="2" stroke-linecap="round" x1="96.698" y1="151.599" x2="126.764" y2="151.599"/>
			<text transform="matrix(1 0 0 1 84.4319 153.0595)" fill="#8C8C8C" font-family="'ArialMT'" font-size="7.3082">D4</text>
			<g id="connector65terminal">
			</g>
			
				<line id="connector66pin" fill="none" stroke="#787878" stroke-width="2" stroke-linecap="round" x1="96.698" y1="166.633" x2="126.764" y2="166.633"/>
			<text transform="matrix(1 0 0 1 64.5413 168.0947)" fill="#8C8C8C" font-family="'ArialMT'" font-size="7.3082">D5 PWM</text>
			<g id="connector66terminal">
			</g>
			
				<line id="connector67pin" fill="none" stroke="#787878" stroke-width="2" stroke-linecap="round" x1="96.698" y1="181.668" x2="126.764" y2="181.668"/>
			<text transform="matrix(1 0 0 1 64.5413 183.1288)" fill="#8C8C8C" font-family="'ArialMT'" font-size="7.3082">D6 PWM</text>
			<g id="connector67terminal">
			</g>
			
				<line id="connector68pin" fill="none" stroke="#787878" stroke-width="2" stroke-linecap="round" x1="96.698" y1="196.702" x2="126.764" y2="196.702"/>
			<text transform="matrix(1 0 0 1 84.4319 198.163)" fill="#8C8C8C" font-family="'ArialMT'" font-size="7.3082">D7</text>
			<g id="connector68terminal">
			</g>
			
				<line id="connector51pin" fill="none" stroke="#787878" stroke-width="2" stroke-linecap="round" x1="96.698" y1="211.736" x2="126.764" y2="211.736"/>
			<text transform="matrix(1 0 0 1 84.4319 213.1982)" fill="#8C8C8C" font-family="'ArialMT'" font-size="7.3082">D8</text>
			<g id="connector51terminal">
			</g>
			
				<line id="connector52pin" fill="none" stroke="#787878" stroke-width="2" stroke-linecap="round" x1="96.698" y1="226.768" x2="126.764" y2="226.768"/>
			<text transform="matrix(1 0 0 1 64.5413 228.2304)" fill="#8C8C8C" font-family="'ArialMT'" font-size="7.3082">D9 PWM</text>
			<g id="connector52terminal">
			</g>
			
				<line id="connector53pin" fill="none" stroke="#787878" stroke-width="2" stroke-linecap="round" x1="96.698" y1="241.804" x2="126.764" y2="241.804"/>
			<text transform="matrix(1 0 0 1 48.6976 243.2646)" fill="#8C8C8C" font-family="'ArialMT'" font-size="7.3082">D10 PWM/SS</text>
			<g id="connector53terminal">
			</g>
			
				<line id="connector54pin" fill="none" stroke="#787878" stroke-width="2" stroke-linecap="round" x1="96.698" y1="256.838" x2="126.764" y2="256.838"/>
			<text transform="matrix(1 0 0 1 40.3118 258.2997)" fill="#8C8C8C" font-family="'ArialMT'" font-size="7.3082">D11 PWM/MOSI</text>
			<g id="connector54terminal">
			</g>
			
				<line id="connector55pin" fill="none" stroke="#787878" stroke-width="2" stroke-linecap="round" x1="96.698" y1="271.872" x2="126.764" y2="271.872"/>
			<text transform="matrix(1 0 0 1 59.6595 273.3339)" fill="#8C8C8C" font-family="'ArialMT'" font-size="7.3082">D12/MISO</text>
			<g id="connector55terminal">
			</g>
			<line id="connector41pin" fill="none" x1="96.698" y1="286.907" x2="126.764" y2="286.907"/>
			<rect id="connector41terminal" x="126.764" y="286.175" fill="none" width="1.462" height="1.462"/>
			
				<line id="connector56pin" fill="none" stroke="#787878" stroke-width="2" stroke-linecap="round" x1="96.698" y1="286.907" x2="126.764" y2="286.907"/>
			<text transform="matrix(1 0 0 1 63.3099 288.3681)" fill="#8C8C8C" font-family="'ArialMT'" font-size="7.3082">D13/SCK</text>
			<g id="connector56terminal">
			</g>
			<line id="connector43pin" fill="none" x1="-97.284" y1="91.463" x2="-67.215" y2="91.463"/>
			<rect id="connector43terminal" x="-98.746" y="90.732" fill="none" width="1.462" height="1.462"/>
			
				<line id="connector85pin" fill="none" stroke="#787878" stroke-width="2" stroke-linecap="round" x1="-97.284" y1="91.463" x2="-67.215" y2="91.463"/>
			<text transform="matrix(1 0 0 1 -64.2927 92.9238)" fill="#8C8C8C" font-family="'ArialMT'" font-size="7.3082">RESET</text>
			<g id="connector85terminal">
			</g>
			
				<line id="connector49pin" fill="none" stroke="#787878" stroke-width="2" stroke-linecap="round" x1="-97.284" y1="106.497" x2="-67.215" y2="106.497"/>
			<text transform="matrix(1 0 0 1 -64.2927 107.9589)" fill="#8C8C8C" font-family="'ArialMT'" font-size="7.3082">RESET2</text>
			<rect id="connector49terminal" x="-98.746" y="105.767" fill="none" width="1.462" height="1.461"/>
			
				<line id="connector58pin" fill="none" stroke="#787878" stroke-width="2" stroke-linecap="round" x1="-97.284" y1="121.531" x2="-67.215" y2="121.531"/>
			<text transform="matrix(1 0 0 1 -64.2927 122.9931)" fill="#8C8C8C" font-family="'ArialMT'" font-size="7.3082">AREF</text>
			<g id="connector58terminal">
			</g>
			
				<line id="connector84pin" fill="none" stroke="#787878" stroke-width="2" stroke-linecap="round" x1="-97.284" y1="136.566" x2="-67.215" y2="136.566"/>
			<text transform="matrix(1 0 0 1 -64.2927 138.0273)" fill="#8C8C8C" font-family="'ArialMT'" font-size="7.3082">ioref</text>
			<g id="connector84terminal">
			</g>
			
				<line id="connector0pin_7_" fill="none" stroke="#787878" stroke-width="2" stroke-linecap="round" x1="-97.284" y1="166.633" x2="-67.215" y2="166.633"/>
			<text transform="matrix(1 0 0 1 -64.2927 168.0947)" fill="#8C8C8C" font-family="'ArialMT'" font-size="7.3082">A0</text>
			<g id="connector0terminal_7_">
			</g>
			
				<line id="connector1pin_4_" fill="none" stroke="#787878" stroke-width="2" stroke-linecap="round" x1="-97.284" y1="181.668" x2="-67.215" y2="181.668"/>
			<text transform="matrix(1 0 0 1 -64.2927 183.1288)" fill="#8C8C8C" font-family="'ArialMT'" font-size="7.3082">A1</text>
			<g id="connector1terminal_4_">
			</g>
			
				<line id="connector2pin_2_" fill="none" stroke="#787878" stroke-width="2" stroke-linecap="round" x1="-97.284" y1="196.702" x2="-67.215" y2="196.702"/>
			<text transform="matrix(1 0 0 1 -64.2927 198.163)" fill="#8C8C8C" font-family="'ArialMT'" font-size="7.3082">A2</text>
			<g id="connector2terminal_2_">
			</g>
			
				<line id="connector3pin" fill="none" stroke="#787878" stroke-width="2" stroke-linecap="round" x1="-97.284" y1="211.736" x2="-67.215" y2="211.736"/>
			<text transform="matrix(1 0 0 1 -64.2927 213.1982)" fill="#8C8C8C" font-family="'ArialMT'" font-size="7.3082">A3</text>
			<g id="connector3terminal">
			</g>
			<line id="connector48pin" fill="none" x1="-97.284" y1="226.768" x2="-67.215" y2="226.768"/>
			<rect id="connector48terminal" x="-98.746" y="226.039" fill="none" width="1.462" height="1.462"/>
			<line id="connector45pin" fill="none" x1="-97.284" y1="226.768" x2="-67.215" y2="226.768"/>
			<rect id="connector45terminal" x="-98.746" y="226.039" fill="none" width="1.462" height="1.462"/>
			<line id="connector4pin" fill="none" x1="-97.284" y1="226.768" x2="-67.215" y2="226.768"/>
			<g id="connector4terminal">
			</g>
			<line id="connector39pin" fill="none" x1="-97.284" y1="226.768" x2="-67.215" y2="226.768"/>
			<rect id="connector39terminal" x="-98.746" y="226.039" fill="none" width="1.462" height="1.462"/>
			<line id="connector47pin" fill="none" x1="-97.284" y1="226.768" x2="-67.215" y2="226.768"/>
			<rect id="connector47terminal" x="-98.746" y="226.039" fill="none" width="1.462" height="1.462"/>
			<line id="connector42pin" fill="none" x1="-97.284" y1="226.768" x2="-67.215" y2="226.768"/>
			<rect id="connector42terminal" x="-98.746" y="226.039" fill="none" width="1.462" height="1.462"/>
			
				<line id="connector59pin" fill="none" stroke="#787878" stroke-width="2" stroke-linecap="round" x1="-97.284" y1="226.768" x2="-67.215" y2="226.768"/>
			<text transform="matrix(1 0 0 1 -64.2927 228.2304)" fill="#8C8C8C" font-family="'ArialMT'" font-size="7.3082">A4/SDA</text>
			<g id="connector59terminal">
			</g>
			<line id="connector5pin" fill="none" x1="-97.284" y1="241.804" x2="-67.215" y2="241.804"/>
			<g id="connector5terminal">
			</g>
			
				<line id="connector60pin" fill="none" stroke="#787878" stroke-width="2" stroke-linecap="round" x1="-97.284" y1="241.804" x2="-67.215" y2="241.804"/>
			<text transform="matrix(1 0 0 1 -64.2927 243.2646)" fill="#8C8C8C" font-family="'ArialMT'" font-size="7.3082">A5/SCL</text>
			<g id="connector60terminal">
			</g>
			
				<line id="connector91pin" fill="none" stroke="#787878" stroke-width="2" stroke-linecap="round" x1="-97.284" y1="316.974" x2="-67.215" y2="316.974"/>
			<text transform="matrix(1 0 0 1 -64.2927 318.4355)" fill="#8C8C8C" font-family="'ArialMT'" font-size="7.3082">N/C</text>
			<g id="connector91terminal">
			</g>
			<line id="connector88pin" fill="none" x1="22.258" y1="346.312" x2="22.258" y2="376.38"/>
			<g id="connector88terminal">
			</g>
			<line id="connector57pin" fill="none" x1="22.258" y1="346.312" x2="22.258" y2="376.38"/>
			<g id="connector57terminal">
			</g>
			<line id="connector44pin" fill="none" x1="22.258" y1="346.312" x2="22.258" y2="376.38"/>
			<rect id="connector44terminal" x="21.528" y="376.38" fill="none" width="1.46" height="1.462"/>
			<line id="connector50pin" fill="none" x1="22.258" y1="346.312" x2="22.258" y2="376.38"/>
			<rect id="connector50terminal" x="21.528" y="376.38" fill="none" width="1.46" height="1.462"/>
			
				<line id="connector89pin" fill="none" stroke="#787878" stroke-width="2" stroke-linecap="round" x1="22.258" y1="346.312" x2="22.258" y2="376.38"/>
			<g transform="matrix(1, 0, 0, 1, 58.2999, 149.45)">
				<g>
					<g transform="rotate(270)">
						<g>
							<text transform="matrix(1 0 0 1 -193.9376 -34.5809)" fill="#8C8C8C" font-family="'ArialMT'" font-size="7.3082">GND</text>
						</g>
					</g>
				</g>
			</g>
			<g id="connector89terminal">
			</g>
			
				<line id="connector86pin" fill="none" stroke="#787878" stroke-width="2" stroke-linecap="round" x1="-22.843" y1="32.057" x2="-22.843" y2="62.125"/>
			<g transform="matrix(1, 0, 0, 1, 36.6999, 16.15)">
				<g>
					<g transform="rotate(270)">
						<g>
							<text transform="matrix(1 0 0 1 -61.9056 -58.0815)" fill="#8C8C8C" font-family="'ArialMT'" font-size="7.3082">3V3</text>
						</g>
					</g>
				</g>
			</g>
			<g id="connector86terminal">
			</g>
			<line id="connector40pin" fill="none" x1="7.223" y1="32.057" x2="7.223" y2="62.125"/>
			<rect id="connector40terminal" x="6.493" y="30.597" fill="none" width="1.462" height="1.46"/>
			<line id="connector46pin" fill="none" x1="7.223" y1="32.057" x2="7.223" y2="62.125"/>
			<rect id="connector46terminal" x="6.493" y="30.597" fill="none" width="1.462" height="1.46"/>
			
				<line id="connector87pin" fill="none" stroke="#787878" stroke-width="2" stroke-linecap="round" x1="7.223" y1="32.057" x2="7.223" y2="62.125"/>
			<g transform="matrix(1, 0, 0, 1, 51.0999, 16.15)">
				<g>
					<g transform="rotate(270)">
						<g>
							<text transform="matrix(1 0 0 1 -57.8392 -42.415)" fill="#8C8C8C" font-family="'ArialMT'" font-size="7.3082">5V</text>
						</g>
					</g>
				</g>
			</g>
			<g id="connector87terminal">
			</g>
			
				<line id="connector90pin" fill="none" stroke="#787878" stroke-width="2" stroke-linecap="round" x1="37.292" y1="32.057" x2="37.292" y2="62.125"/>
			<g transform="matrix(1, 0, 0, 1, 65.4999, 16.15)">
				<g>
					<g transform="rotate(270)">
						<g>
							<text transform="matrix(1 0 0 1 -61.0814 -26.7457)" fill="#8C8C8C" font-family="'ArialMT'" font-size="7.3082">VIN</text>
						</g>
					</g>
				</g>
			</g>
			<g id="connector90terminal">
			</g>
			<text id="label_1_" transform="matrix(1 0 0 1 0.386 190.9589)" font-family="'ArialMT'" font-size="8.8743">Arduino</text>
			<text id="label_2_" transform="matrix(1 0 0 1 7.5403 200.4247)" font-family="'ArialMT'" font-size="8.8743">Uno</text>
			<text id="label_3_" transform="matrix(1 0 0 1 2.3675 209.8906)" font-family="'ArialMT'" font-size="8.8743">(Rev3)</text>
		</g>
	</g>
</g>
<g>
	<g transform="translate(191.295,7.25904)">
		<g transform="matrix(-1,0,0,1,0,0)">
			<g id="schematic_8_">
				<polyline fill="none" stroke="#000000" stroke-width="2" stroke-linecap="round" stroke-linejoin="round" points="-42.3,36.959 
					-34.586,36.959 -28.889,42.626 -21.711,42.626 -12.231,36.225 				"/>
				<polyline fill="none" stroke="#000000" stroke-width="2" stroke-linecap="round" stroke-linejoin="round" points="-42.3,51.81 
					-32.673,51.81 -15.619,51.81 				"/>
				<polyline id="box_1_" fill="none" stroke="#000000" stroke-width="2" stroke-linecap="round" stroke-linejoin="round" points="
					-12.231,68.623 -42.3,68.623 -42.3,23.521 -12.231,23.521 				"/>
				<polygon points="-36.38,39.426 -39.498,43.705 -37.371,44.125 -40.04,49.318 -34.822,43.044 -37.041,42.477 				"/>
				<g id="connector2terminal_3_">
				</g>
				<g id="connector1terminal_5_">
				</g>
				<g id="connector0terminal_8_">
				</g>
				
					<line id="connector2pin_3_" fill="none" stroke="#787878" stroke-width="2" stroke-linecap="round" stroke-linejoin="round" x1="-42.3" y1="51.81" x2="-57.332" y2="51.81"/>
				
					<line id="connector0pin_8_" fill="none" stroke="#787878" stroke-width="2" stroke-linecap="round" stroke-linejoin="round" x1="-42.3" y1="37.077" x2="-57.332" y2="37.077"/>
				
					<line id="connector1pin_5_" fill="none" stroke="#787878" stroke-width="2" stroke-linecap="round" stroke-linejoin="round" x1="-42.3" y1="51.81" x2="-57.332" y2="51.81"/>
				<g transform="matrix(1, 0, 0, 1, 19.3843, 25.585)">
					<text transform="matrix(1 0 0 1 -36.9724 36.3242)" fill="#787878" font-family="'ArialMT'" font-size="9.3963">-</text>
				</g>
				<g transform="matrix(1, 0, 0, 1, 18.5503, 12.1563)">
					<text transform="matrix(1 0 0 1 -37.8806 21.7128)" fill="#787878" font-family="'ArialMT'" font-size="9.3963">+</text>
				</g>
			</g>
		</g>
	</g>
</g>
<g>
	<g transform="translate(254.377,57.0932)">
		<g transform="matrix(-1,0,0,-1,0,0)">
			<g id="schematic_9_">
				
					<line fill="none" stroke="#000000" stroke-width="2" stroke-linecap="round" x1="-110.442" y1="-32.063" x2="-117.956" y2="-32.063"/>
				
					<line fill="none" stroke="#000000" stroke-width="2" stroke-linecap="round" x1="-117.956" y1="-32.063" x2="-125.477" y2="-32.063"/>
				<polygon fill="#FFFFFF" stroke="#000000" stroke-width="2" stroke-linecap="round" points="-117.956,-32.063 -125.477,-47.098 
					-117.956,-47.098 -110.442,-47.098 				"/>
				
					<line fill="none" stroke="#000000" stroke-width="2" stroke-linecap="round" x1="-117.956" y1="-47.098" x2="-117.956" y2="-32.063"/>
				
					<line id="connector0pin_9_" fill="none" stroke="#787878" stroke-width="2" stroke-linecap="round" x1="-117.956" y1="-17.031" x2="-117.956" y2="-32.063"/>
				<g id="connector0terminal_9_">
				</g>
				<g transform="matrix(1, 0, 0, 1, 3.429, 6.4262)">
					<g>
						<g transform="rotate(270)">
							<g>
								<g transform="matrix(1, 0, 0, 1, -12.6912, -0.1726)">
									<text transform="matrix(1 0 0 1 41.9082 -123.1609)" fill="#787878" font-family="'ArialMT'" font-size="4.1761">2</text>
								</g>
							</g>
						</g>
					</g>
				</g>
				
					<line id="connector1pin_6_" fill="none" stroke="#787878" stroke-width="2" stroke-linecap="round" x1="-117.956" y1="-62.135" x2="-117.956" y2="-47.098"/>
				<g id="connector1terminal_6_">
				</g>
				<g transform="matrix(1, 0, 0, 1, 3.429, 1.3462)">
					<g>
						<g transform="rotate(270)">
							<g>
								<g transform="matrix(1, 0, 0, 1, -3.3708, -0.1726)">
									<text transform="matrix(1 0 0 1 57.5762 -123.1609)" fill="#787878" font-family="'ArialMT'" font-size="4.1761">1</text>
								</g>
							</g>
						</g>
					</g>
				</g>
			</g>
		</g>
	</g>
</g>
<g>
	
		<line fill="none" stroke="#404040" stroke-width="2" stroke-linecap="round" x1="264.457" y1="254.887" x2="175.345" y2="255.019"/>
</g>
<g>
	
		<line fill="none" stroke="#404040" stroke-width="2" stroke-linecap="round" x1="-141.551" y1="406.09" x2="-141.551" y2="239.042"/>
</g>
<g>
	<line fill="none" stroke="#404040" stroke-width="2" stroke-linecap="round" x1="69.325" y1="406.09" x2="-141.551" y2="406.09"/>
</g>
<g>
	<line fill="none" stroke="#404040" stroke-width="2" stroke-linecap="round" x1="70.107" y1="405.361" x2="69.325" y2="406.09"/>
</g>
<circle cx="70.107" cy="405.361" r="3.006"/>
<g>
	<line fill="none" stroke="#404040" stroke-width="2" stroke-linecap="round" x1="55.072" y1="39.375" x2="-141.551" y2="39.375"/>
</g>
<g>
	
		<line fill="none" stroke="#404040" stroke-width="2" stroke-linecap="round" x1="-141.551" y1="39.375" x2="-141.551" y2="148.838"/>
</g>
<g>
	<line fill="none" stroke="#404040" stroke-width="2" stroke-linecap="round" x1="55.072" y1="59.577" x2="55.072" y2="39.375"/>
</g>
<g>
	
		<line fill="none" stroke="#404040" stroke-width="2" stroke-linecap="round" x1="-111.482" y1="193.939" x2="-50.165" y2="194.883"/>
</g>
<g>
	<line fill="none" stroke="#404040" stroke-width="2" stroke-linecap="round" x1="70.107" y1="405.361" x2="69.45" y2="420.078"/>
</g>
<circle cx="70.107" cy="405.361" r="3.006"/>
<g>
	
		<line fill="none" stroke="#404040" stroke-width="2" stroke-linecap="round" x1="294.524" y1="284.953" x2="292.996" y2="357.626"/>
</g>
<circle cx="294.524" cy="284.954" r="3.007"/>
<g>
	<line fill="none" stroke="#404040" stroke-width="2" stroke-linecap="round" x1="248.028" y1="59.075" x2="247.567" y2="117.69"/>
</g>
<g>
	<line fill="none" stroke="#404040" stroke-width="2" stroke-linecap="round" x1="295.57" y1="44.334" x2="295.573" y2="65.543"/>
</g>
<circle cx="295.573" cy="65.543" r="3.008"/>
<g>
	<line fill="none" stroke="#404040" stroke-width="2" stroke-linecap="round" x1="248.028" y1="44.334" x2="295.57" y2="44.334"/>
</g>
<g>
	
		<line fill="none" stroke="#404040" stroke-width="2" stroke-linecap="round" x1="294.526" y1="224.816" x2="295.603" y2="124.972"/>
</g>
<circle cx="294.526" cy="224.816" r="3.008"/>
<circle cx="295.603" cy="124.971" r="3.007"/>
<g>
	<line fill="none" stroke="#404040" stroke-width="2" stroke-linecap="round" x1="329.82" y1="225.248" x2="294.526" y2="224.816"/>
</g>
<circle cx="294.526" cy="224.816" r="3.008"/>
<g>
	<line fill="none" stroke="#404040" stroke-width="2" stroke-linecap="round" x1="329.82" y1="284.953" x2="294.524" y2="284.953"/>
</g>
<circle cx="294.524" cy="284.954" r="3.007"/>
<g>
	<line fill="none" stroke="#404040" stroke-width="2" stroke-linecap="round" x1="329.82" y1="270.347" x2="329.82" y2="284.951"/>
</g>
<g>
	
		<line fill="none" stroke="#404040" stroke-width="2" stroke-linecap="round" x1="372.331" y1="124.972" x2="295.603" y2="124.972"/>
</g>
<circle cx="295.603" cy="124.971" r="3.007"/>
<g>
	
		<line fill="none" stroke="#404040" stroke-width="2" stroke-linecap="round" x1="372.331" y1="119.226" x2="372.331" y2="124.972"/>
</g>
<g>
	<line fill="none" stroke="#404040" stroke-width="2" stroke-linecap="round" x1="372.331" y1="65.543" x2="295.573" y2="65.543"/>
</g>
<circle cx="295.573" cy="65.543" r="3.008"/>
<g>
	<line fill="none" stroke="#404040" stroke-width="2" stroke-linecap="round" x1="372.331" y1="74.124" x2="372.331" y2="65.543"/>
</g>
<g id="partLabel">
	<g transform="translate(60.6486,22.2503)">
		<g id="schematicLabel">
			<text transform="matrix(1 0 0 1 -84.0878 32.6279)" font-family="'ArialMT'" font-size="10.4403">Arduino1</text>
		</g>
	</g>
</g>
<g id="partLabel_1_">
	<g transform="translate(0,62.7603)">
		<g id="schematicLabel_1_">
			<text transform="matrix(1 0 0 1 -150.0769 76.7067)" font-family="'ArialMT'" font-size="10.4403">Potentiometer</text>
		</g>
	</g>
</g>
<g id="partLabel_2_">
	<g transform="translate(223.905,43.6253)">
		<g transform="matrix(1,0,0,1,0,0)">
			<g id="schematicLabel_2_">
				<text transform="matrix(1 0 0 1 93.5464 55.8857)" font-family="'ArialMT'" font-size="10.4403">Motor</text>
			</g>
		</g>
	</g>
</g>
<g id="partLabel_3_">
	<g transform="translate(160.733,140.378)">
		<g id="schematicLabel_3_">
			<text transform="matrix(1 0 0 1 24.8112 161.1594)" font-family="'ArialMT'" font-size="10.4403">TIP 120 Transistor</text>
		</g>
	</g>
</g>
<g id="partLabel_4_">
	<g transform="translate(240.841,116.268)">
		<g id="schematicLabel_4_">
			<text transform="matrix(1 0 0 1 111.9737 134.9256)" font-family="'ArialMT'" font-size="10.4403">Diode</text>
			<text transform="matrix(1 0 0 1 111.9737 145.366)" font-family="'ArialMT'" font-size="10.4403">1N4001</text>
		</g>
	</g>
</g>
<g id="partLabel_5_">
	<g transform="translate(258.339,39.0376)">
		<g id="schematicLabel_5_">
			<text transform="matrix(1 0 0 1 131.0128 50.8933)" font-family="'ArialMT'" font-size="10.4403">Diode</text>
			<text transform="matrix(1 0 0 1 131.0128 61.3337)" font-family="'ArialMT'" font-size="10.4403">1N4001</text>
		</g>
	</g>
</g>
<g id="partLabel_6_">
	<g transform="translate(163.505,0)">
		<g id="schematicLabel_6_">
			<text transform="matrix(1 0 0 1 27.8273 8.4182)" font-family="'ArialMT'" font-size="10.4403">Power Plug</text>
		</g>
	</g>
</g>
</svg>
