<?xml version="1.0" encoding="utf-8"?>
<!-- Generator: Adobe Illustrator 16.0.4, SVG Export Plug-In . SVG Version: 6.00 Build 0)  -->
<!DOCTYPE svg PUBLIC "-//W3C//DTD SVG 1.1//EN" "http://www.w3.org/Graphics/SVG/1.1/DTD/svg11.dtd">
<svg version="1.1" id="Layer_1" xmlns:svg="http://www.w3.org/2000/svg"
	 xmlns="http://www.w3.org/2000/svg" xmlns:xlink="http://www.w3.org/1999/xlink" x="0px" y="0px" width="576px" height="478.419px"
	 viewBox="-158.825 -0.541 576 478.419" enable-background="new -158.825 -0.541 576 478.419" xml:space="preserve">
<g>
	<g transform="translate(0.84328,70.6478)">
		<g id="schematic">
			
				<line fill="none" stroke="#000000" stroke-width="2" stroke-linecap="round" x1="-150.565" y1="168.568" x2="-150.565" y2="165.357"/>
			
				<line fill="none" stroke="#000000" stroke-width="2" stroke-linecap="round" x1="-150.565" y1="165.357" x2="-156.986" y2="160.541"/>
			
				<line fill="none" stroke="#000000" stroke-width="2" stroke-linecap="round" x1="-156.986" y1="160.541" x2="-142.539" y2="152.516"/>
			
				<line fill="none" stroke="#000000" stroke-width="2" stroke-linecap="round" x1="-142.539" y1="152.516" x2="-156.986" y2="144.488"/>
			
				<line fill="none" stroke="#000000" stroke-width="2" stroke-linecap="round" x1="-156.986" y1="144.488" x2="-142.539" y2="136.463"/>
			
				<line fill="none" stroke="#000000" stroke-width="2" stroke-linecap="round" x1="-142.539" y1="136.463" x2="-156.986" y2="128.437"/>
			
				<line fill="none" stroke="#000000" stroke-width="2" stroke-linecap="round" x1="-156.986" y1="128.437" x2="-142.539" y2="120.41"/>
			
				<line fill="none" stroke="#000000" stroke-width="2" stroke-linecap="round" x1="-142.539" y1="120.41" x2="-156.986" y2="112.385"/>
			
				<line fill="none" stroke="#000000" stroke-width="2" stroke-linecap="round" x1="-156.986" y1="112.385" x2="-150.565" y2="107.569"/>
			
				<line fill="none" stroke="#000000" stroke-width="2" stroke-linecap="round" x1="-150.565" y1="107.569" x2="-150.565" y2="104.357"/>
			
				<line fill="none" stroke="#000000" stroke-width="2" stroke-linecap="round" x1="-142.539" y1="136.463" x2="-134.512" y2="128.437"/>
			
				<line fill="none" stroke="#000000" stroke-width="2" stroke-linecap="round" x1="-134.512" y1="144.488" x2="-142.539" y2="136.463"/>
			
				<line fill="none" stroke="#000000" stroke-width="2" stroke-linecap="round" x1="-134.512" y1="128.437" x2="-134.512" y2="144.488"/>
			
				<line fill="none" stroke="#000000" stroke-width="2" stroke-linecap="round" x1="-137.723" y1="166.16" x2="-137.723" y2="150.107"/>
			
				<line fill="none" stroke="#000000" stroke-width="2" stroke-linecap="round" x1="-137.723" y1="150.107" x2="-133.71" y2="158.133"/>
			
				<line fill="none" stroke="#000000" stroke-width="2" stroke-linecap="round" x1="-133.71" y1="158.133" x2="-141.736" y2="158.133"/>
			
				<line fill="none" stroke="#000000" stroke-width="2" stroke-linecap="round" x1="-141.736" y1="158.133" x2="-137.723" y2="150.107"/>
			
				<line id="connector2pin" fill="none" stroke="#787878" stroke-width="2" stroke-linecap="round" x1="-150.565" y1="184.621" x2="-150.565" y2="168.568"/>
			<g id="connector2terminal">
			</g>
			<g transform="matrix(1, 0, 0, 1, 2.19, 39.9502)">
				<g>
					<g transform="rotate(270)">
						<g>
							<text transform="matrix(1 0 0 1 -138.1923 -155.0963)" fill="#8C8C8C" font-family="'ArialMT'" font-size="5.5737">3</text>
						</g>
					</g>
				</g>
			</g>
			
				<line id="connector0pin" fill="none" stroke="#787878" stroke-width="2" stroke-linecap="round" x1="-150.565" y1="88.307" x2="-150.565" y2="104.357"/>
			<g id="connector0terminal">
			</g>
			<g transform="matrix(1, 0, 0, 1, 2.19, 3.95)">
				<g>
					<g transform="rotate(270)">
						<g>
							<text transform="matrix(1 0 0 1 -93.9308 -155.0963)" fill="#8C8C8C" font-family="'ArialMT'" font-size="5.5737">1</text>
						</g>
					</g>
				</g>
			</g>
			
				<line id="connector1pin" fill="none" stroke="#787878" stroke-width="2" stroke-linecap="round" x1="-118.46" y1="136.463" x2="-134.512" y2="136.463"/>
			<g id="connector1terminal">
			</g>
			<text transform="matrix(1 0 0 1 -128.0361 134.123)" fill="#8C8C8C" font-family="'ArialMT'" font-size="5.5737">2</text>
		</g>
	</g>
</g>
<g>
	<g transform="translate(198.176,107.035)">
		<g transform="matrix(1,0,0,1,0,0)">
			<g id="schematic_1_">
				
					<line fill="none" stroke="#000000" stroke-width="2" stroke-linecap="round" x1="117.714" y1="149.096" x2="104.873" y2="155.517"/>
				
					<line fill="none" stroke="#000000" stroke-width="2" stroke-linecap="round" x1="112.899" y1="174.779" x2="117.714" y2="181.202"/>
				
					<line fill="none" stroke="#000000" stroke-width="2" stroke-linecap="round" x1="117.714" y1="181.202" x2="109.687" y2="181.202"/>
				
					<line fill="none" stroke="#000000" stroke-width="2" stroke-linecap="round" x1="109.687" y1="181.202" x2="112.899" y2="174.779"/>
				
					<line fill="none" stroke="#000000" stroke-width="2" stroke-linecap="round" x1="111.394" y1="178.04" x2="103.608" y2="174.147"/>
				
					<line fill="none" stroke="#000000" stroke-width="2" stroke-linecap="round" x1="111.294" y1="180.398" x2="116.11" y2="180.398"/>
				
					<line fill="none" stroke="#000000" stroke-width="2" stroke-linecap="round" x1="116.11" y1="180.398" x2="112.899" y2="176.385"/>
				
					<line fill="none" stroke="#000000" stroke-width="2" stroke-linecap="round" x1="112.899" y1="176.385" x2="111.294" y2="179.595"/>
				
					<line fill="none" stroke="#000000" stroke-width="2" stroke-linecap="round" x1="111.294" y1="179.595" x2="113.701" y2="179.595"/>
				
					<line fill="none" stroke="#000000" stroke-width="2" stroke-linecap="round" x1="113.701" y1="179.595" x2="112.899" y2="177.99"/>
				<rect x="100.057" y="149.096" width="4.816" height="32.105"/>
				
					<line id="connector0pin_1_" fill="none" stroke="#787878" stroke-width="2" stroke-linecap="round" x1="85.612" y1="165.149" x2="101.661" y2="165.149"/>
				<g id="connector0terminal_1_">
				</g>
				<text transform="matrix(1 0 0 1 92.0862 162.809)" fill="#8C8C8C" font-family="'ArialMT'" font-size="5.5737">1</text>
				
					<line id="connector2pin_1_" fill="none" stroke="#787878" stroke-width="2" stroke-linecap="round" x1="117.714" y1="197.252" x2="117.714" y2="181.202"/>
				<g id="connector2terminal_1_">
				</g>
				<g transform="matrix(1, 0, 0, 1, 13.7, 25.5501)">
					<g>
						<g transform="rotate(270)">
							<g>
								<text transform="matrix(1 0 0 1 -165.2247 101.6733)" fill="#8C8C8C" font-family="'ArialMT'" font-size="5.5737">2</text>
							</g>
						</g>
					</g>
				</g>
				
					<line id="connector1pin_1_" fill="none" stroke="#787878" stroke-width="2" stroke-linecap="round" x1="117.714" y1="133.043" x2="117.714" y2="149.096"/>
				<g id="connector1terminal_1_">
				</g>
				<g transform="matrix(1, 0, 0, 1, 13.7, 3.95001)">
					<g>
						<g transform="rotate(270)">
							<g>
								<text transform="matrix(1 0 0 1 -138.6685 101.6733)" fill="#8C8C8C" font-family="'ArialMT'" font-size="5.5737">3</text>
							</g>
						</g>
					</g>
				</g>
			</g>
		</g>
	</g>
</g>
<g>
	<g transform="translate(207.322,30.5606)">
		<g id="schematic_2_">
			<path fill="#FFFFFF" stroke="#000000" stroke-width="2" d="M122.561,71.124c0-4.838-2.674-9.049-6.627-11.237h1.812V47.046
				h-8.025h-8.027v12.841h1.813c-3.952,2.188-6.632,6.399-6.632,11.237s2.678,9.049,6.632,11.236h-1.813v12.844h8.027h8.025V82.361
				h-1.816C119.884,80.173,122.561,75.962,122.561,71.124z"/>
			<g transform="matrix(1, 0, 0, 1, 4.3203, 16.2754)">
				<text id="label" transform="matrix(1 0 0 1 101.3865 58.2502)" font-family="'ArialMT'" font-size="9.4753">M</text>
			</g>
			
				<line fill="none" stroke="#000000" stroke-width="2" stroke-linecap="round" x1="101.693" y1="47.046" x2="101.693" y2="59.887"/>
			<line fill="none" stroke="#000000" stroke-width="2" stroke-linecap="round" x1="101.693" y1="47.046" x2="109.72" y2="47.046"/>
			<line fill="none" stroke="#000000" stroke-width="2" stroke-linecap="round" x1="109.72" y1="47.046" x2="117.746" y2="47.046"/>
			
				<line fill="none" stroke="#000000" stroke-width="2" stroke-linecap="round" x1="117.746" y1="47.046" x2="117.746" y2="59.887"/>
			
				<line fill="none" stroke="#000000" stroke-width="2" stroke-linecap="round" x1="117.746" y1="95.204" x2="117.746" y2="82.361"/>
			<line fill="none" stroke="#000000" stroke-width="2" stroke-linecap="round" x1="117.746" y1="95.204" x2="109.72" y2="95.204"/>
			<line fill="none" stroke="#000000" stroke-width="2" stroke-linecap="round" x1="109.72" y1="95.204" x2="101.693" y2="95.204"/>
			
				<line fill="none" stroke="#000000" stroke-width="2" stroke-linecap="round" x1="101.693" y1="95.204" x2="101.693" y2="82.361"/>
			
				<line id="connector0pin_2_" fill="none" stroke="#8C8C8C" stroke-width="2" stroke-linecap="round" stroke-miterlimit="10" x1="109.72" y1="39.019" x2="109.72" y2="47.046"/>
			
				<line id="connector1pin_2_" fill="none" stroke="#8C8C8C" stroke-width="2" stroke-linecap="round" stroke-miterlimit="10" x1="109.72" y1="103.228" x2="109.72" y2="95.204"/>
			<circle fill="none" stroke="#000000" stroke-width="2" cx="109.72" cy="71.124" r="12.841"/>
			<g id="connector0terminal_2_">
			</g>
			<g transform="matrix(1, 0, 0, 1, 7.2441, 2.6348)">
				<text transform="matrix(1 0 0 1 104.9812 41.4796)" fill="#8C8C8C" font-family="'ArialMT'" font-size="5.5737">1</text>
			</g>
			<g transform="matrix(1, 0, 0, 1, 2.40594, 0.864304)">
				<g>
					<g transform="rotate(270)">
						<g>
							<g transform="matrix(0, 1, -1, 0, -6.5263, 2.7464)">
								<text transform="matrix(1 0 0 1 102.4089 47.3264)" fill="#787878" font-family="'ArialMT'" font-size="7.8032">+</text>
							</g>
						</g>
					</g>
				</g>
			</g>
			<g id="connector1terminal_2_">
			</g>
			<g transform="matrix(1, 0, 0, 1, 7.2441, 28.5156)">
				<text transform="matrix(1 0 0 1 104.9812 73.299)" fill="#8C8C8C" font-family="'ArialMT'" font-size="5.5737">2</text>
			</g>
			<g transform="matrix(1, 0, 0, 1, 2.40594, 11.0243)">
				<g>
					<g transform="rotate(270)">
						<g>
							<g transform="matrix(0, 1, -1, 0, -13.1007, 3.0257)">
								<text transform="matrix(1 0 0 1 102.7527 67.9016)" fill="#787878" font-family="'ArialMT'" font-size="7.8032">-</text>
							</g>
						</g>
					</g>
				</g>
			</g>
		</g>
	</g>
</g>
<g>
	<g transform="translate(183.237,55.6047)">
		<g id="schematic_3_">
			<path id="connector0pin_3_" fill="none" stroke="#787878" stroke-width="2" stroke-linecap="round" d="M82.518,85.919V69.866"/>
			<g id="connector0terminal_3_">
			</g>
			<path id="path4098" fill="none" stroke="#000000" stroke-width="2" stroke-linecap="round" d="M67.578,86.222h29.874"/>
			<path id="path4100" fill="none" stroke="#000000" stroke-width="2" stroke-linecap="round" d="M72.554,92.342h19.919"/>
			<path id="path4102" fill="none" stroke="#000000" stroke-width="2" stroke-linecap="round" d="M87.489,98.403h-9.952"/>
		</g>
	</g>
</g>
<g>
	<g transform="translate(204.993,170.513)">
		<g id="schematic_4_">
			<path id="connector0pin_4_" fill="none" stroke="#787878" stroke-width="2" stroke-linecap="round" d="M109.266,227.197v-16.053"
				/>
			<g id="connector0terminal_4_">
			</g>
			<path id="path4098_1_" fill="none" stroke="#000000" stroke-width="2" stroke-linecap="round" d="M94.327,227.5H124.2"/>
			<path id="path4100_1_" fill="none" stroke="#000000" stroke-width="2" stroke-linecap="round" d="M99.301,233.62h19.92"/>
			<path id="path4102_1_" fill="none" stroke="#000000" stroke-width="2" stroke-linecap="round" d="M114.237,239.682h-9.952"/>
		</g>
	</g>
</g>
<g>
	<g transform="translate(97.933,200.423)">
		<g id="schematic_5_">
			<path id="connector0pin_5_" fill="none" stroke="#787878" stroke-width="2" stroke-linecap="round" d="M-22.363,263.971v-16.053"
				/>
			<g id="connector0terminal_5_">
			</g>
			<path id="path4098_2_" fill="none" stroke="#000000" stroke-width="2" stroke-linecap="round" d="M-37.304,264.274h29.876"/>
			<path id="path4100_2_" fill="none" stroke="#000000" stroke-width="2" stroke-linecap="round" d="M-32.327,270.394h19.919"/>
			<path id="path4102_2_" fill="none" stroke="#000000" stroke-width="2" stroke-linecap="round" d="M-17.391,276.455h-9.952"/>
		</g>
	</g>
</g>
<g>
	<g transform="translate(234.016,129.468)">
		<g transform="matrix(-1,0,0,-1,0,0)">
			<g id="schematic_6_">
				
					<line fill="none" stroke="#000000" stroke-width="2" stroke-linecap="round" x1="-111.535" y1="-127.122" x2="-119.556" y2="-127.122"/>
				
					<line fill="none" stroke="#000000" stroke-width="2" stroke-linecap="round" x1="-119.556" y1="-127.122" x2="-127.585" y2="-127.122"/>
				<polygon fill="#FFFFFF" stroke="#000000" stroke-width="2" stroke-linecap="round" points="-119.556,-127.122 
					-127.585,-143.175 -119.556,-143.175 -111.535,-143.175 				"/>
				
					<line fill="none" stroke="#000000" stroke-width="2" stroke-linecap="round" x1="-119.556" y1="-143.175" x2="-119.556" y2="-127.122"/>
				
					<line id="connector0pin_6_" fill="none" stroke="#787878" stroke-width="2" stroke-linecap="round" x1="-119.556" y1="-111.072" x2="-119.556" y2="-127.122"/>
				<g id="connector0terminal_6_">
				</g>
				<g transform="matrix(1, 0, 0, 1, 3.429, 6.4262)">
					<g>
						<g transform="rotate(270)">
							<g>
								<g transform="matrix(1, 0, 0, 1, -12.6912, -0.1726)">
									<text transform="matrix(1 0 0 1 136.3401 -124.8903)" fill="#787878" font-family="'ArialMT'" font-size="4.459">2</text>
								</g>
							</g>
						</g>
					</g>
				</g>
				
					<line id="connector1pin_3_" fill="none" stroke="#787878" stroke-width="2" stroke-linecap="round" x1="-119.556" y1="-159.228" x2="-119.556" y2="-143.175"/>
				<g id="connector1terminal_3_">
				</g>
				<g transform="matrix(1, 0, 0, 1, 3.429, 1.3462)">
					<g>
						<g transform="rotate(270)">
							<g>
								<g transform="matrix(1, 0, 0, 1, -3.3708, -0.1726)">
									<text transform="matrix(1 0 0 1 154.0451 -124.8903)" fill="#787878" font-family="'ArialMT'" font-size="4.459">1</text>
								</g>
							</g>
						</g>
					</g>
				</g>
			</g>
		</g>
	</g>
</g>
<g>
	<g transform="translate(47.8486,28.2503)">
		<g id="schematic_7_">
			
				<rect x="-66.889" y="68.505" fill="#FFFFFF" stroke="#000000" stroke-width="2" stroke-linecap="round" width="174.571" height="302.988"/>
			
				<line id="connector61pin" fill="none" stroke="#787878" stroke-width="2" stroke-linecap="round" x1="107.904" y1="99.606" x2="140.009" y2="99.606"/>
			<text transform="matrix(1 0 0 1 81.7994 101.1689)" fill="#8C8C8C" font-family="'ArialMT'" font-size="7.8032">D0/RX</text>
			<g id="connector61terminal">
			</g>
			
				<line id="connector62pin" fill="none" stroke="#787878" stroke-width="2" stroke-linecap="round" x1="107.904" y1="115.66" x2="140.009" y2="115.66"/>
			<text transform="matrix(1 0 0 1 82.6675 117.2216)" fill="#8C8C8C" font-family="'ArialMT'" font-size="7.8032">D1/TX</text>
			<g id="connector62terminal">
			</g>
			
				<line id="connector63pin" fill="none" stroke="#787878" stroke-width="2" stroke-linecap="round" x1="107.904" y1="131.713" x2="140.009" y2="131.713"/>
			<text transform="matrix(1 0 0 1 94.8072 133.2744)" fill="#8C8C8C" font-family="'ArialMT'" font-size="7.8032">D2</text>
			<g id="connector63terminal">
			</g>
			
				<line id="connector64pin" fill="none" stroke="#787878" stroke-width="2" stroke-linecap="round" x1="107.904" y1="147.766" x2="140.009" y2="147.766"/>
			<text transform="matrix(1 0 0 1 73.5689 149.3271)" fill="#8C8C8C" font-family="'ArialMT'" font-size="7.8032">D3 PWM</text>
			<g id="connector64terminal">
			</g>
			
				<line id="connector65pin" fill="none" stroke="#787878" stroke-width="2" stroke-linecap="round" x1="107.904" y1="163.815" x2="140.009" y2="163.815"/>
			<text transform="matrix(1 0 0 1 94.8072 165.3779)" fill="#8C8C8C" font-family="'ArialMT'" font-size="7.8032">D4</text>
			<g id="connector65terminal">
			</g>
			
				<line id="connector66pin" fill="none" stroke="#787878" stroke-width="2" stroke-linecap="round" x1="107.904" y1="179.868" x2="140.009" y2="179.868"/>
			<text transform="matrix(1 0 0 1 73.5689 181.4306)" fill="#8C8C8C" font-family="'ArialMT'" font-size="7.8032">D5 PWM</text>
			<g id="connector66terminal">
			</g>
			
				<line id="connector67pin" fill="none" stroke="#787878" stroke-width="2" stroke-linecap="round" x1="107.904" y1="195.921" x2="140.009" y2="195.921"/>
			<text transform="matrix(1 0 0 1 73.5689 197.4833)" fill="#8C8C8C" font-family="'ArialMT'" font-size="7.8032">D6 PWM</text>
			<g id="connector67terminal">
			</g>
			
				<line id="connector68pin" fill="none" stroke="#787878" stroke-width="2" stroke-linecap="round" x1="107.904" y1="211.974" x2="140.009" y2="211.974"/>
			<text transform="matrix(1 0 0 1 94.8072 213.5361)" fill="#8C8C8C" font-family="'ArialMT'" font-size="7.8032">D7</text>
			<g id="connector68terminal">
			</g>
			
				<line id="connector51pin" fill="none" stroke="#787878" stroke-width="2" stroke-linecap="round" x1="107.904" y1="228.026" x2="140.009" y2="228.026"/>
			<text transform="matrix(1 0 0 1 94.8072 229.5888)" fill="#8C8C8C" font-family="'ArialMT'" font-size="7.8032">D8</text>
			<g id="connector51terminal">
			</g>
			
				<line id="connector52pin" fill="none" stroke="#787878" stroke-width="2" stroke-linecap="round" x1="107.904" y1="244.077" x2="140.009" y2="244.077"/>
			<text transform="matrix(1 0 0 1 73.5689 245.6386)" fill="#8C8C8C" font-family="'ArialMT'" font-size="7.8032">D9 PWM</text>
			<g id="connector52terminal">
			</g>
			
				<line id="connector53pin" fill="none" stroke="#787878" stroke-width="2" stroke-linecap="round" x1="107.904" y1="260.13" x2="140.009" y2="260.13"/>
			<text transform="matrix(1 0 0 1 56.6519 261.6913)" fill="#8C8C8C" font-family="'ArialMT'" font-size="7.8032">D10 PWM/SS</text>
			<g id="connector53terminal">
			</g>
			
				<line id="connector54pin" fill="none" stroke="#787878" stroke-width="2" stroke-linecap="round" x1="107.904" y1="276.183" x2="140.009" y2="276.183"/>
			<text transform="matrix(1 0 0 1 47.6988 277.7441)" fill="#8C8C8C" font-family="'ArialMT'" font-size="7.8032">D11 PWM/MOSI</text>
			<g id="connector54terminal">
			</g>
			
				<line id="connector55pin" fill="none" stroke="#787878" stroke-width="2" stroke-linecap="round" x1="107.904" y1="292.235" x2="140.009" y2="292.235"/>
			<text transform="matrix(1 0 0 1 68.357 293.7968)" fill="#8C8C8C" font-family="'ArialMT'" font-size="7.8032">D12/MISO</text>
			<g id="connector55terminal">
			</g>
			<line id="connector41pin" fill="none" x1="107.904" y1="308.288" x2="140.009" y2="308.288"/>
			<rect id="connector41terminal" x="140.009" y="307.507" fill="none" width="1.56" height="1.561"/>
			
				<line id="connector56pin" fill="none" stroke="#787878" stroke-width="2" stroke-linecap="round" x1="107.904" y1="308.288" x2="140.009" y2="308.288"/>
			<text transform="matrix(1 0 0 1 72.2554 309.8495)" fill="#8C8C8C" font-family="'ArialMT'" font-size="7.8032">D13/SCK</text>
			<g id="connector56terminal">
			</g>
			<line id="connector43pin" fill="none" x1="-99.216" y1="99.606" x2="-67.11" y2="99.606"/>
			<rect id="connector43terminal" x="-100.776" y="98.827" fill="none" width="1.56" height="1.562"/>
			
				<line id="connector85pin" fill="none" stroke="#787878" stroke-width="2" stroke-linecap="round" x1="-99.216" y1="99.606" x2="-67.11" y2="99.606"/>
			<text transform="matrix(1 0 0 1 -63.9897 101.1689)" fill="#8C8C8C" font-family="'ArialMT'" font-size="7.8032">RESET</text>
			<g id="connector85terminal">
			</g>
			
				<line id="connector49pin" fill="none" stroke="#787878" stroke-width="2" stroke-linecap="round" x1="-99.216" y1="115.66" x2="-67.11" y2="115.66"/>
			<text transform="matrix(1 0 0 1 -63.9897 117.2216)" fill="#8C8C8C" font-family="'ArialMT'" font-size="7.8032">RESET2</text>
			<rect id="connector49terminal" x="-100.776" y="114.88" fill="none" width="1.56" height="1.56"/>
			
				<line id="connector58pin" fill="none" stroke="#787878" stroke-width="2" stroke-linecap="round" x1="-99.216" y1="131.713" x2="-67.11" y2="131.713"/>
			<text transform="matrix(1 0 0 1 -63.9897 133.2744)" fill="#8C8C8C" font-family="'ArialMT'" font-size="7.8032">AREF</text>
			<g id="connector58terminal">
			</g>
			
				<line id="connector84pin" fill="none" stroke="#787878" stroke-width="2" stroke-linecap="round" x1="-99.216" y1="147.766" x2="-67.11" y2="147.766"/>
			<text transform="matrix(1 0 0 1 -63.9897 149.3271)" fill="#8C8C8C" font-family="'ArialMT'" font-size="7.8032">ioref</text>
			<g id="connector84terminal">
			</g>
			
				<line id="connector0pin_7_" fill="none" stroke="#787878" stroke-width="2" stroke-linecap="round" x1="-99.216" y1="179.868" x2="-67.11" y2="179.868"/>
			<text transform="matrix(1 0 0 1 -63.9897 181.4306)" fill="#8C8C8C" font-family="'ArialMT'" font-size="7.8032">A0</text>
			<g id="connector0terminal_7_">
			</g>
			
				<line id="connector1pin_4_" fill="none" stroke="#787878" stroke-width="2" stroke-linecap="round" x1="-99.216" y1="195.921" x2="-67.11" y2="195.921"/>
			<text transform="matrix(1 0 0 1 -63.9897 197.4833)" fill="#8C8C8C" font-family="'ArialMT'" font-size="7.8032">A1</text>
			<g id="connector1terminal_4_">
			</g>
			
				<line id="connector2pin_2_" fill="none" stroke="#787878" stroke-width="2" stroke-linecap="round" x1="-99.216" y1="211.974" x2="-67.11" y2="211.974"/>
			<text transform="matrix(1 0 0 1 -63.9897 213.5361)" fill="#8C8C8C" font-family="'ArialMT'" font-size="7.8032">A2</text>
			<g id="connector2terminal_2_">
			</g>
			
				<line id="connector3pin" fill="none" stroke="#787878" stroke-width="2" stroke-linecap="round" x1="-99.216" y1="228.026" x2="-67.11" y2="228.026"/>
			<text transform="matrix(1 0 0 1 -63.9897 229.5888)" fill="#8C8C8C" font-family="'ArialMT'" font-size="7.8032">A3</text>
			<g id="connector3terminal">
			</g>
			<line id="connector48pin" fill="none" x1="-99.216" y1="244.077" x2="-67.11" y2="244.077"/>
			<rect id="connector48terminal" x="-100.776" y="243.298" fill="none" width="1.56" height="1.561"/>
			<line id="connector45pin" fill="none" x1="-99.216" y1="244.077" x2="-67.11" y2="244.077"/>
			<rect id="connector45terminal" x="-100.776" y="243.298" fill="none" width="1.56" height="1.561"/>
			<line id="connector4pin" fill="none" x1="-99.216" y1="244.077" x2="-67.11" y2="244.077"/>
			<g id="connector4terminal">
			</g>
			<line id="connector39pin" fill="none" x1="-99.216" y1="244.077" x2="-67.11" y2="244.077"/>
			<rect id="connector39terminal" x="-100.776" y="243.298" fill="none" width="1.56" height="1.561"/>
			<line id="connector47pin" fill="none" x1="-99.216" y1="244.077" x2="-67.11" y2="244.077"/>
			<rect id="connector47terminal" x="-100.776" y="243.298" fill="none" width="1.56" height="1.561"/>
			<line id="connector42pin" fill="none" x1="-99.216" y1="244.077" x2="-67.11" y2="244.077"/>
			<rect id="connector42terminal" x="-100.776" y="243.298" fill="none" width="1.56" height="1.561"/>
			
				<line id="connector59pin" fill="none" stroke="#787878" stroke-width="2" stroke-linecap="round" x1="-99.216" y1="244.077" x2="-67.11" y2="244.077"/>
			<text transform="matrix(1 0 0 1 -63.9897 245.6386)" fill="#8C8C8C" font-family="'ArialMT'" font-size="7.8032">A4/SDA</text>
			<g id="connector59terminal">
			</g>
			<line id="connector5pin" fill="none" x1="-99.216" y1="260.13" x2="-67.11" y2="260.13"/>
			<g id="connector5terminal">
			</g>
			
				<line id="connector60pin" fill="none" stroke="#787878" stroke-width="2" stroke-linecap="round" x1="-99.216" y1="260.13" x2="-67.11" y2="260.13"/>
			<text transform="matrix(1 0 0 1 -63.9897 261.6913)" fill="#8C8C8C" font-family="'ArialMT'" font-size="7.8032">A5/SCL</text>
			<g id="connector60terminal">
			</g>
			
				<line id="connector91pin" fill="none" stroke="#787878" stroke-width="2" stroke-linecap="round" x1="-99.216" y1="340.392" x2="-67.11" y2="340.392"/>
			<text transform="matrix(1 0 0 1 -63.9897 341.9531)" fill="#8C8C8C" font-family="'ArialMT'" font-size="7.8032">N/C</text>
			<g id="connector91terminal">
			</g>
			<line id="connector88pin" fill="none" x1="28.422" y1="371.718" x2="28.422" y2="403.821"/>
			<g id="connector88terminal">
			</g>
			<line id="connector57pin" fill="none" x1="28.422" y1="371.718" x2="28.422" y2="403.821"/>
			<g id="connector57terminal">
			</g>
			<line id="connector44pin" fill="none" x1="28.422" y1="371.718" x2="28.422" y2="403.821"/>
			<rect id="connector44terminal" x="27.642" y="403.821" fill="none" width="1.561" height="1.561"/>
			<line id="connector50pin" fill="none" x1="28.422" y1="371.718" x2="28.422" y2="403.821"/>
			<rect id="connector50terminal" x="27.642" y="403.821" fill="none" width="1.561" height="1.561"/>
			
				<line id="connector89pin" fill="none" stroke="#787878" stroke-width="2" stroke-linecap="round" x1="28.422" y1="371.718" x2="28.422" y2="403.821"/>
			<g transform="matrix(1, 0, 0, 1, 58.2999, 149.45)">
				<g>
					<g transform="rotate(270)">
						<g>
							<text transform="matrix(1 0 0 1 -219.1447 -28.3179)" fill="#8C8C8C" font-family="'ArialMT'" font-size="7.8032">GND</text>
						</g>
					</g>
				</g>
			</g>
			<g id="connector89terminal">
			</g>
			
				<line id="connector86pin" fill="none" stroke="#787878" stroke-width="2" stroke-linecap="round" x1="-19.734" y1="36.178" x2="-19.734" y2="68.283"/>
			<g transform="matrix(1, 0, 0, 1, 36.6999, 16.15)">
				<g>
					<g transform="rotate(270)">
						<g>
							<text transform="matrix(1 0 0 1 -69.14 -54.8732)" fill="#8C8C8C" font-family="'ArialMT'" font-size="7.8032">3V3</text>
						</g>
					</g>
				</g>
			</g>
			<g id="connector86terminal">
			</g>
			<line id="connector40pin" fill="none" x1="12.371" y1="36.178" x2="12.371" y2="68.283"/>
			<rect id="connector40terminal" x="11.59" y="34.619" fill="none" width="1.56" height="1.559"/>
			<line id="connector46pin" fill="none" x1="12.371" y1="36.178" x2="12.371" y2="68.283"/>
			<rect id="connector46terminal" x="11.59" y="34.619" fill="none" width="1.56" height="1.559"/>
			
				<line id="connector87pin" fill="none" stroke="#787878" stroke-width="2" stroke-linecap="round" x1="12.371" y1="36.178" x2="12.371" y2="68.283"/>
			<g transform="matrix(1, 0, 0, 1, 51.0999, 16.15)">
				<g>
					<g transform="rotate(270)">
						<g>
							<text transform="matrix(1 0 0 1 -64.8001 -37.1677)" fill="#8C8C8C" font-family="'ArialMT'" font-size="7.8032">5V</text>
						</g>
					</g>
				</g>
			</g>
			<g id="connector87terminal">
			</g>
			
				<line id="connector90pin" fill="none" stroke="#787878" stroke-width="2" stroke-linecap="round" x1="44.475" y1="36.178" x2="44.475" y2="68.283"/>
			<g transform="matrix(1, 0, 0, 1, 65.4999, 16.15)">
				<g>
					<g transform="rotate(270)">
						<g>
							<text transform="matrix(1 0 0 1 -68.2611 -19.4652)" fill="#8C8C8C" font-family="'ArialMT'" font-size="7.8032">VIN</text>
						</g>
					</g>
				</g>
			</g>
			<g id="connector90terminal">
			</g>
			<text id="label_1_" transform="matrix(1 0 0 1 5.0699 205.8437)" font-family="'ArialMT'" font-size="9.4753">Arduino</text>
			<text id="label_2_" transform="matrix(1 0 0 1 12.7095 215.9501)" font-family="'ArialMT'" font-size="9.4753">Uno</text>
			<text id="label_3_" transform="matrix(1 0 0 1 7.1841 226.0566)" font-family="'ArialMT'" font-size="9.4753">(Rev3)</text>
		</g>
	</g>
</g>
<g>
	<g transform="translate(191.295,7.25904)">
		<g transform="matrix(-1,0,0,1,0,0)">
			<g id="schematic_8_">
				<polyline fill="none" stroke="#000000" stroke-width="2" stroke-linecap="round" stroke-linejoin="round" points="
					-59.538,39.99 -51.301,39.99 -45.215,46.041 -37.554,46.041 -27.432,39.207 				"/>
				<polyline fill="none" stroke="#000000" stroke-width="2" stroke-linecap="round" stroke-linejoin="round" points="
					-59.538,55.847 -49.259,55.847 -31.05,55.847 				"/>
				<polyline id="box_1_" fill="none" stroke="#000000" stroke-width="2" stroke-linecap="round" stroke-linejoin="round" points="
					-27.432,73.798 -59.538,73.798 -59.538,25.643 -27.432,25.643 				"/>
				<polygon points="-53.215,42.625 -56.546,47.193 -54.275,47.641 -57.125,53.187 -51.551,46.487 -53.924,45.882 				"/>
				<g id="connector2terminal_3_">
				</g>
				<g id="connector1terminal_5_">
				</g>
				<g id="connector0terminal_8_">
				</g>
				
					<line id="connector2pin_3_" fill="none" stroke="#787878" stroke-width="2" stroke-linecap="round" stroke-linejoin="round" x1="-59.538" y1="55.847" x2="-75.588" y2="55.847"/>
				
					<line id="connector0pin_8_" fill="none" stroke="#787878" stroke-width="2" stroke-linecap="round" stroke-linejoin="round" x1="-59.538" y1="40.117" x2="-75.588" y2="40.117"/>
				
					<line id="connector1pin_5_" fill="none" stroke="#787878" stroke-width="2" stroke-linecap="round" stroke-linejoin="round" x1="-59.538" y1="55.847" x2="-75.588" y2="55.847"/>
				<g transform="matrix(1, 0, 0, 1, 19.3843, 25.585)">
					<text transform="matrix(1 0 0 1 -52.5381 41.0468)" fill="#787878" font-family="'ArialMT'" font-size="10.0327">-</text>
				</g>
				<g transform="matrix(1, 0, 0, 1, 18.5503, 12.1563)">
					<text transform="matrix(1 0 0 1 -53.5634 24.5361)" fill="#787878" font-family="'ArialMT'" font-size="10.0327">+</text>
				</g>
			</g>
		</g>
	</g>
</g>
<g>
	
		<line fill="none" stroke="#404040" stroke-width="2" stroke-linecap="round" x1="283.788" y1="272.186" x2="188.638" y2="272.327"/>
</g>
<g>
	
		<line fill="none" stroke="#404040" stroke-width="2" stroke-linecap="round" x1="-149.721" y1="433.63" x2="-149.721" y2="255.269"/>
</g>
<g>
	<line fill="none" stroke="#404040" stroke-width="2" stroke-linecap="round" x1="75.436" y1="433.63" x2="-149.722" y2="433.63"/>
</g>
<g>
	<line fill="none" stroke="#404040" stroke-width="2" stroke-linecap="round" x1="76.27" y1="432.851" x2="75.436" y2="433.63"/>
</g>
<circle cx="76.27" cy="432.851" r="3.21"/>
<g>
	<line fill="none" stroke="#404040" stroke-width="2" stroke-linecap="round" x1="60.219" y1="42.078" x2="-149.721" y2="42.078"/>
</g>
<g>
	
		<line fill="none" stroke="#404040" stroke-width="2" stroke-linecap="round" x1="-149.721" y1="42.078" x2="-149.721" y2="158.954"/>
</g>
<g>
	<line fill="none" stroke="#404040" stroke-width="2" stroke-linecap="round" x1="60.219" y1="63.648" x2="60.219" y2="42.078"/>
</g>
<g>
	
		<line fill="none" stroke="#404040" stroke-width="2" stroke-linecap="round" x1="-117.616" y1="207.111" x2="-52.147" y2="208.118"/>
</g>
<g>
	<line fill="none" stroke="#404040" stroke-width="2" stroke-linecap="round" x1="76.27" y1="432.851" x2="75.57" y2="448.566"/>
</g>
<circle cx="76.27" cy="432.851" r="3.21"/>
<g>
	
		<line fill="none" stroke="#404040" stroke-width="2" stroke-linecap="round" x1="315.888" y1="304.289" x2="314.259" y2="381.884"/>
</g>
<circle cx="315.888" cy="304.29" r="3.21"/>
<g>
	<line fill="none" stroke="#404040" stroke-width="2" stroke-linecap="round" x1="266.243" y1="63.113" x2="265.75" y2="125.698"/>
</g>
<g>
	<line fill="none" stroke="#404040" stroke-width="2" stroke-linecap="round" x1="317.005" y1="47.374" x2="317.007" y2="70.019"/>
</g>
<g>
	<line fill="none" stroke="#404040" stroke-width="2" stroke-linecap="round" x1="266.243" y1="47.374" x2="317.005" y2="47.374"/>
</g>
<g>
	<line fill="none" stroke="#404040" stroke-width="2" stroke-linecap="round" x1="315.89" y1="240.078" x2="317.042" y2="133.472"/>
</g>
<circle cx="315.89" cy="240.078" r="3.211"/>
<g>
	<line fill="none" stroke="#404040" stroke-width="2" stroke-linecap="round" x1="353.572" y1="240.54" x2="315.89" y2="240.078"/>
</g>
<circle cx="315.89" cy="240.078" r="3.211"/>
<g>
	
		<line fill="none" stroke="#404040" stroke-width="2" stroke-linecap="round" x1="353.572" y1="304.289" x2="315.888" y2="304.289"/>
</g>
<circle cx="315.888" cy="304.29" r="3.21"/>
<g>
	
		<line fill="none" stroke="#404040" stroke-width="2" stroke-linecap="round" x1="353.572" y1="288.694" x2="353.572" y2="304.287"/>
</g>
<g id="partLabel">
	<g transform="translate(60.6486,22.2503)">
		<g id="schematicLabel">
			<text transform="matrix(1 0 0 1 -84.2585 36.3828)" font-family="'ArialMT'" font-size="11.1474">Arduino1</text>
		</g>
	</g>
</g>
<g id="partLabel_1_">
	<g transform="translate(0,62.7603)">
		<g id="schematicLabel_1_">
			<text transform="matrix(1 0 0 1 -158.8247 86.1901)" font-family="'ArialMT'" font-size="11.1474">Potentiometer</text>
		</g>
	</g>
</g>
<g id="partLabel_2_">
	<g transform="translate(223.905,43.6253)">
		<g transform="matrix(1,0,0,1,0,0)">
			<g id="schematicLabel_2_">
				<text transform="matrix(1 0 0 1 116.4627 62.663)" font-family="'ArialMT'" font-size="11.1474">Motor</text>
			</g>
		</g>
	</g>
</g>
<g id="partLabel_3_">
	<g transform="translate(240.841,116.268)">
		<g id="schematicLabel_3_">
			<text transform="matrix(1 0 0 1 137.2855 151.9754)" font-family="'ArialMT'" font-size="11.1474">Diode</text>
			<text transform="matrix(1 0 0 1 137.2855 163.1229)" font-family="'ArialMT'" font-size="11.1474">1N4001</text>
		</g>
	</g>
</g>
<g id="partLabel_4_">
	<g transform="translate(160.733,140.378)">
		<g id="schematicLabel_4_">
			<text transform="matrix(1 0 0 1 38.7939 181.6193)" font-family="'ArialMT'" font-size="11.1474">TIP 120 Transistor</text>
		</g>
	</g>
</g>
<g id="partLabel_5_">
	<g transform="translate(163.505,0)">
		<g id="schematicLabel_5_">
			<text transform="matrix(1 0 0 1 42.2025 9.0266)" font-family="'ArialMT'" font-size="11.1474">Power Plug</text>
		</g>
	</g>
</g>
</svg>
