<?xml version="1.0" encoding="UTF-8"?>
<svg width="718px" height="753px" viewBox="0 0 718 753" version="1.1" xmlns="http://www.w3.org/2000/svg" xmlns:xlink="http://www.w3.org/1999/xlink">
    <!-- Generator: Sketch 48.2 (47327) - http://www.bohemiancoding.com/sketch -->
    <title>Slice 1</title>
    <desc>Created with Sketch.</desc>
    <defs></defs>
    <g id="Page-1" stroke="none" stroke-width="1" fill="none" fill-rule="evenodd">
        <g id="2_led_resistor_switch_schem_1" transform="translate(118.000000, 2.000000)">
            <g id="Schematic">
                <g id="Group" transform="translate(36.800000, 257.066670)">
                    <g transform="translate(23.500000, 24.000000) scale(-1, 1) translate(-23.500000, -24.000000) " id="schematic">
                        <g>
                            <polyline id="Shape" stroke="#000000" stroke-width="2" stroke-linecap="round" stroke-linejoin="round" points="16 14.5 23.9 14.5 29.7 20.4 37.1 20.4 46.9 13.7"></polyline>
                            <polyline id="Shape" stroke="#000000" stroke-width="2" stroke-linecap="round" stroke-linejoin="round" points="16 29.8 25.9 29.8 43.4 29.8"></polyline>
                            <polyline id="box_1_" stroke="#000000" stroke-width="2" stroke-linecap="round" stroke-linejoin="round" points="46.9 47.1 16 47.1 16 0.7 46.9 0.7"></polyline>
                            <polygon id="Shape" fill="#000000" fill-rule="nonzero" points="22 17 18.8 21.5 21 21.9 18.3 27.2 23.6 20.8 21.4 20.2"></polygon>
                            <path d="M16,29.8 L0.5,29.8" id="connector2pin" stroke="#787878" stroke-width="2" stroke-linecap="round" stroke-linejoin="round"></path>
                            <path d="M16,14.7 L0.5,14.7" id="connector0pin" stroke="#787878" stroke-width="2" stroke-linecap="round" stroke-linejoin="round"></path>
                            <path d="M16,29.8 L0.5,29.8" id="connector1pin" stroke="#787878" stroke-width="2" stroke-linecap="round" stroke-linejoin="round"></path>
                            <g id="Group" transform="translate(40.384300, 30.585000)" fill="#787878" font-family="Helvetica" font-size="9.6613" font-weight="normal">
                                <text id="-">
                                    <tspan x="0.9665" y="9.5866">-</tspan>
                                </text>
                            </g>
                            <g id="Group" transform="translate(39.550300, 2.156300)" fill="#787878" font-family="Helvetica" font-size="9.6613" font-weight="normal">
                                <text id="+">
                                    <tspan x="0.0114" y="9.1833">+</tspan>
                                </text>
                            </g>
                        </g>
                    </g>
                </g>
                <rect id="Rectangle-path" fill="#FFFFFF" fill-rule="nonzero" x="199.3" y="255.6" width="61.8" height="46.4"></rect>
                <path d="M199.3,302 L261.2,302" id="Shape" stroke="#000000" stroke-width="2" stroke-linecap="round"></path>
                <path d="M261.2,302 L261.2,255.6" id="Shape" stroke="#000000" stroke-width="2" stroke-linecap="round"></path>
                <path d="M261.2,255.6 L199.3,255.6" id="Shape" stroke="#000000" stroke-width="2" stroke-linecap="round"></path>
                <path d="M199.3,255.6 L199.3,302" id="Shape" stroke="#000000" stroke-width="2" stroke-linecap="round"></path>
                <path d="M183.9,271 L199.3,271" id="connector1pin_1_" stroke="#787878" stroke-width="2" stroke-linecap="round"></path>
                <path d="M230.3,317.5 L230.3,302" id="connector0pin_1_" stroke="#787878" stroke-width="2" stroke-linecap="round"></path>
                <path d="M276.6,271 L261.2,271" id="connector2pin_1_" stroke="#787878" stroke-width="2" stroke-linecap="round"></path>
                <path d="M381.2,312.5 L381.2,316.4" id="Shape" stroke="#000000" stroke-width="2" stroke-linecap="round"></path>
                <path d="M381.2,285.5 L389,312.5" id="Shape" stroke="#000000" stroke-width="2" stroke-linecap="round"></path>
                <circle id="Oval" stroke="#000000" stroke-width="2" cx="381.2" cy="285.5" r="1"></circle>
                <circle id="Oval" stroke="#000000" stroke-width="2" cx="381.2" cy="316.4" r="1"></circle>
                <path d="M396.7,316.4 L365.8,316.4" id="Shape" stroke="#000000" stroke-width="2" stroke-linecap="round"></path>
                <path d="M396.7,285.5 L365.8,285.5" id="Shape" stroke="#000000" stroke-width="2" stroke-linecap="round"></path>
                <path d="M365.8,270.7 L365.8,285.5" id="connector3pin" stroke="#555555" stroke-width="2" stroke-linecap="round"></path>
                <path d="M396.7,270.7 L396.7,285.5" id="connector2pin_2_" stroke="#555555" stroke-width="2" stroke-linecap="round"></path>
                <path d="M365.8,331.1 L365.8,316.4" id="connector1pin_2_" stroke="#555555" stroke-width="2" stroke-linecap="round"></path>
                <path d="M396.7,331.1 L396.7,316.4" id="connector0pin_2_" stroke="#555555" stroke-width="2" stroke-linecap="round"></path>
                <path d="M396.8,402 L390.6,399.7" id="Shape" stroke="#000000" stroke-width="2" stroke-linecap="round"></path>
                <path d="M390.6,399.7 L403,395.8" id="Shape" stroke="#000000" stroke-width="2" stroke-linecap="round"></path>
                <path d="M403,395.8 L390.6,392" id="Shape" stroke="#000000" stroke-width="2" stroke-linecap="round"></path>
                <path d="M390.6,392 L403,388.1" id="Shape" stroke="#000000" stroke-width="2" stroke-linecap="round"></path>
                <path d="M403,388.1 L390.6,384.3" id="Shape" stroke="#000000" stroke-width="2" stroke-linecap="round"></path>
                <path d="M390.6,384.3 L403,380.4" id="Shape" stroke="#000000" stroke-width="2" stroke-linecap="round"></path>
                <path d="M403,380.4 L390.6,376.5" id="Shape" stroke="#000000" stroke-width="2" stroke-linecap="round"></path>
                <path d="M390.6,376.5 L403,372.7" id="Shape" stroke="#000000" stroke-width="2" stroke-linecap="round"></path>
                <path d="M403,372.7 L396.8,371.1" id="Shape" stroke="#000000" stroke-width="2" stroke-linecap="round"></path>
                <path d="M396.8,355.7 L396.8,371.1" id="connector1pin_3_" stroke="#787878" stroke-width="2" stroke-linecap="round"></path>
                <path d="M396.8,417.5 L396.8,402" id="connector0pin_3_" stroke="#787878" stroke-width="2" stroke-linecap="round"></path>
                <path d="M343.6,425.5 L343.6,417.8 C343.6,417.4 343.9,417 344.4,417 C344.8,417 345.2,417.3 345.2,417.8 L345.2,425.5 C345.2,425.9 344.9,426.3 344.4,426.3 C343.9,426.2 343.6,425.9 343.6,425.5 Z" id="Shape" fill="#000000" fill-rule="nonzero"></path>
                <path d="M343.6,417.8 L343.6,410.1 C343.6,409.7 343.9,409.3 344.4,409.3 C344.8,409.3 345.2,409.6 345.2,410.1 L345.2,417.8 C345.2,418.2 344.9,418.6 344.4,418.6 C343.9,418.5 343.6,418.2 343.6,417.8 Z" id="Shape" fill="#000000" fill-rule="nonzero"></path>
                <g id="Group" transform="translate(342.000000, 408.000000)" fill-rule="nonzero">
                    <polygon id="Shape" fill="#FFFFFF" points="2.3 9.8 17.8 2.1 17.8 9.8 17.8 17.5"></polygon>
                    <path d="M0.7,9.8 L18.6,0.8 L18.6,18.7 L0.7,9.8 Z M17.1,3.2 L4,9.7 L17.1,16.2 L17.1,3.2 Z" id="Shape" fill="#000000"></path>
                </g>
                <path d="M343.9,417.8 C343.9,417.6 344.1,417.3 344.4,417.3 L359.8,417.3 C360,417.3 360.3,417.5 360.3,417.8 C360.3,418 360.1,418.3 359.8,418.3 L344.4,418.3 C344.1,418.3 343.9,418 343.9,417.8 Z" id="Shape" fill="#000000" fill-rule="nonzero"></path>
                <path d="M349.6,400.4 C349.6,400.2 349.7,400.2 349.8,400.1 C350,399.9 350.3,399.9 350.5,400.1 L355.5,405.1 C355.7,405.3 355.7,405.6 355.5,405.8 C355.4,406 355,406 354.8,405.8 L349.8,400.8 C349.7,400.6 349.6,400.5 349.6,400.4 Z" id="Shape" fill="#000000" fill-rule="nonzero"></path>
                <path d="M342.7,401.2 C342.7,401 342.8,401 342.8,400.9 C343,400.7 343.3,400.7 343.5,400.9 L348.5,405.9 C348.7,406.1 348.7,406.4 348.5,406.6 C348.4,406.8 348,406.8 347.8,406.6 L342.8,401.6 C342.8,401.4 342.7,401.3 342.7,401.2 Z" id="Shape" fill="#000000" fill-rule="nonzero"></path>
                <g id="connector0pin_4_" transform="translate(328.000000, 417.000000)" fill="#787878" fill-rule="nonzero">
                    <path d="M0.2,0.8 C0.2,0.4 0.5,0 1,0 L16.5,0 C16.9,0 17.3,0.3 17.3,0.8 C17.3,1.2 17,1.6 16.5,1.6 L1,1.6 C0.5,1.5 0.2,1.2 0.2,0.8 Z" id="Shape"></path>
                </g>
                <g id="connector0terminal_4_"></g>
                <g id="connector1pin_4_" transform="translate(359.000000, 417.000000)" fill="#787878" fill-rule="nonzero">
                    <path d="M0.1,0.8 C0.1,0.4 0.4,0 0.9,0 L16.4,0 C16.8,0 17.2,0.3 17.2,0.8 C17.2,1.2 16.9,1.6 16.4,1.6 L0.9,1.6 C0.4,1.5 0.1,1.2 0.1,0.8 Z" id="Shape"></path>
                </g>
                <g id="connector1terminal_4_"></g>
                <polygon id="Shape" fill="#000000" fill-rule="nonzero" points="346.6 396.9 352 399.2 348.9 402.3"></polygon>
                <polygon id="Shape" fill="#000000" fill-rule="nonzero" points="339.7 397.7 345.1 400 342 403.1"></polygon>
                <path d="M244.2,425.9 L244.2,418.2 C244.2,417.8 244.5,417.4 245,417.4 C245.5,417.4 245.8,417.7 245.8,418.2 L245.8,425.9 C245.8,426.3 245.5,426.7 245,426.7 C244.5,426.7 244.2,426.3 244.2,425.9 Z" id="Shape" fill="#000000" fill-rule="nonzero"></path>
                <path d="M244.2,418.2 L244.2,410.5 C244.2,410.1 244.5,409.7 245,409.7 C245.5,409.7 245.8,410 245.8,410.5 L245.8,418.2 C245.8,418.6 245.5,419 245,419 C244.5,419 244.2,418.6 244.2,418.2 Z" id="Shape" fill="#000000" fill-rule="nonzero"></path>
                <polygon id="Shape" fill="#FFFFFF" fill-rule="nonzero" points="244.9 418.2 260.4 410.4 260.4 418.2 260.4 425.9"></polygon>
                <path d="M243.2,418.2 L261,409.2 L261,427.1 L243.2,418.2 Z M259.7,411.7 L246.6,418.2 L259.7,424.7 L259.7,411.7 Z" id="Shape" fill="#000000" fill-rule="nonzero"></path>
                <path d="M244.5,418.2 C244.5,418 244.7,417.7 245,417.7 L260.5,417.7 C260.7,417.7 261,417.9 261,418.2 C261,418.5 260.8,418.7 260.5,418.7 L245,418.7 C244.7,418.6 244.5,418.4 244.5,418.2 Z" id="Shape" fill="#000000" fill-rule="nonzero"></path>
                <path d="M250.3,400.8 C250.3,400.6 250.4,400.6 250.5,400.5 C250.7,400.3 251,400.3 251.2,400.5 L256.2,405.5 C256.4,405.7 256.4,406 256.2,406.2 C256,406.4 255.7,406.4 255.5,406.2 L250.5,401.2 C250.3,401 250.3,400.9 250.3,400.8 Z" id="Shape" fill="#000000" fill-rule="nonzero"></path>
                <path d="M243.3,401.6 C243.3,401.4 243.4,401.4 243.5,401.3 C243.7,401.1 244,401.1 244.2,401.3 L249.2,406.3 C249.4,406.5 249.4,406.8 249.2,407 C249,407.2 248.7,407.2 248.5,407 L243.5,402 C243.4,401.8 243.3,401.7 243.3,401.6 Z" id="Shape" fill="#000000" fill-rule="nonzero"></path>
                <path d="M228.7,418.2 C228.7,417.8 229,417.4 229.5,417.4 L245,417.4 C245.4,417.4 245.8,417.7 245.8,418.2 C245.8,418.7 245.5,419 245,419 L229.5,419 C229.1,419 228.7,418.6 228.7,418.2 Z" id="Shape" fill="#787878" fill-rule="nonzero"></path>
                <path d="M259.7,418.2 C259.7,417.8 260,417.4 260.5,417.4 L276,417.4 C276.4,417.4 276.8,417.7 276.8,418.2 C276.8,418.7 276.5,419 276,419 L260.5,419 C260,419 259.7,418.6 259.7,418.2 Z" id="Shape" fill="#787878" fill-rule="nonzero"></path>
                <polygon id="Shape" fill="#000000" fill-rule="nonzero" points="247.3 397.3 252.7 399.6 249.6 402.7"></polygon>
                <polygon id="Shape" fill="#000000" fill-rule="nonzero" points="240.3 398.1 245.7 400.4 242.6 403.5"></polygon>
                <path d="M183.9,271 L82.7,271.7" id="Shape" stroke="#404040" stroke-width="2" stroke-linecap="round"></path>
                <path d="M276.6,271 L365.8,270.9" id="Shape" stroke="#404040" stroke-width="2" stroke-linecap="round"></path>
                <path d="M396.7,330.7 L396.8,355.7" id="Shape" stroke="#404040" stroke-width="2" stroke-linecap="round"></path>
                <path d="M396.8,417.5 L375.2,417.8" id="Shape" stroke="#404040" stroke-width="2" stroke-linecap="round"></path>
                <path d="M82.7,286.9 L82.7,317.5" id="Shape" stroke="#404040" stroke-width="2" stroke-linecap="round"></path>
                <path d="M82.7,317.5 L230.3,317.5" id="Shape" stroke="#404040" stroke-width="2" stroke-linecap="round"></path>
                <circle id="Oval" fill="#000000" fill-rule="nonzero" cx="230.3" cy="317.5" r="3.1"></circle>
                <path d="M328.9,417.8 L275.8,418.2" id="Shape" stroke="#404040" stroke-width="2" stroke-linecap="round"></path>
                <path d="M229.5,418.2 L230.3,317.5" id="Shape" stroke="#404040" stroke-width="2" stroke-linecap="round"></path>
                <circle id="Oval" fill="#000000" fill-rule="nonzero" cx="230.3" cy="317.5" r="3.1"></circle>
                <circle id="Oval" fill="#000000" fill-rule="nonzero" cx="229.5" cy="417.5" r="3.1"></circle>
                <g id="Group" transform="translate(213.149000, 450.380000)" stroke-linecap="round" stroke-width="2">
                    <g id="schematic_6_">
                        <path d="M16.3,17.7 L16.3,0.8" id="connector0pin_6_" stroke="#787878"></path>
                        <path d="M0.6,18.1 L32,18.1" id="path4098" stroke="#000000"></path>
                        <path d="M5.8,24.5 L26.7,24.5" id="path4100" stroke="#000000"></path>
                        <path d="M21.6,30.8 L11,30.8" id="path4102" stroke="#000000"></path>
                    </g>
                </g>
                <path d="M229.5,417.4 L229.5,451.2" id="Shape" stroke="#404040" stroke-width="2" stroke-linecap="round"></path>
            </g>
            <text id="IN" fill="#787878" font-family="Helvetica" font-size="6.4132" font-weight="normal">
                <tspan x="206.9702" y="271.1719">IN</tspan>
            </text>
            <g id="Group" transform="translate(228.000000, 285.000000) rotate(-90.000000) translate(-228.000000, -285.000000) translate(220.000000, 281.000000)" fill="#787878" font-family="Helvetica" font-size="6.4132" font-weight="normal">
                <g id="GND">
                    <text>
                        <tspan x="0.5706" y="6.79">GND</tspan>
                    </text>
                </g>
            </g>
            <text id="OUT" fill="#787878" font-family="Helvetica" font-size="6.4132" font-weight="normal">
                <tspan x="238.5088" y="271.1719">OUT</tspan>
            </text>
            <g id="partLabel_12_" transform="translate(44.000000, 214.000000)" fill="#000000" font-family="Helvetica" font-size="9" font-weight="normal">
                <g id="Group" transform="translate(0.400000, 0.000000)">
                    <g id="schematicLabel_12_">
                        <text id="PP1">
                            <tspan x="0.5863" y="9.8027">PP1</tspan>
                        </text>
                    </g>
                </g>
            </g>
            <g id="partLabel_11_" transform="translate(220.000000, 209.000000)" fill="#000000" font-family="Helvetica" font-size="9" font-weight="normal">
                <g id="Group" transform="translate(0.289000, 0.737570)">
                    <g id="schematicLabel_11_">
                        <text id="IC1">
                            <tspan x="0.7969" y="9.1238">IC1</tspan>
                        </text>
                    </g>
                </g>
            </g>
            <g id="partLabel_10_" transform="translate(499.000000, 295.000000)" fill="#000000" font-family="Helvetica" font-size="9.1618" font-weight="normal">
                <g id="Group" transform="translate(0.012000, 0.656600)">
                    <g id="schematicLabel_10_">
                        <text id="S1">
                            <tspan x="0.5544" y="9.3346">S1</tspan>
                        </text>
                    </g>
                </g>
            </g>
            <g id="partLabel_9_" transform="translate(496.000000, 345.000000)" fill="#000000" font-family="Helvetica" font-size="9.1618" font-weight="normal">
                <g id="Group" transform="translate(0.719000, 0.234400)">
                    <g id="schematicLabel_9_">
                        <text id="R1">
                            <tspan x="0.4783" y="9.4941">R1</tspan>
                        </text>
                        <text id="220Ω">
                            <tspan x="0.4783" y="18.6562">220Ω</tspan>
                        </text>
                    </g>
                </g>
            </g>
            <g id="partLabel_8_" transform="translate(372.000000, 462.000000)" fill="#000000" font-family="Helvetica" font-size="9" font-weight="normal">
                <g id="Group" transform="translate(0.845000, 0.570300)">
                    <g id="schematicLabel_8_">
                        <text id="LED1">
                            <tspan x="0.862" y="9.4746">LED1</tspan>
                        </text>
                    </g>
                </g>
            </g>
            <g id="partLabel_7_" transform="translate(274.000000, 462.000000)" fill="#000000" font-family="Helvetica" font-size="9" font-weight="normal">
                <g id="Group" transform="translate(0.354000, 0.826800)">
                    <g id="schematicLabel_7_">
                        <text id="LED2">
                            <tspan x="0.1465" y="9.2181">LED2</tspan>
                        </text>
                    </g>
                </g>
            </g>
            <text id="Key:" fill="#000000" font-family="Helvetica" font-size="9" font-weight="normal">
                <tspan x="489.4297" y="493.2773">Key:</tspan>
            </text>
            <text id="PP1---DC-power-plug" fill="#000000" font-family="Helvetica" font-size="9" font-weight="normal">
                <tspan x="489.4297" y="504.0762">PP1 - DC power plug</tspan>
            </text>
            <text id="IC1--7805-5-volt-regulator" fill="#000000" font-family="Helvetica" font-size="9" font-weight="normal">
                <tspan x="489.4297" y="514.877">IC1- 7805 5-volt regulator</tspan>
            </text>
            <text id="S1--switch-or-pushbutton" fill="#000000" font-family="Helvetica" font-size="9" font-weight="normal">
                <tspan x="489.4297" y="525.6777">S1- switch or pushbutton</tspan>
            </text>
            <text id="R1---220-ohm-resistor" fill="#000000" font-family="Helvetica" font-size="9" font-weight="normal">
                <tspan x="489.4297" y="536.4766">R1 - 220-ohm resistor</tspan>
            </text>
            <text id="LED1---5mm-red-LED" fill="#000000" font-family="Helvetica" font-size="9" font-weight="normal">
                <tspan x="489.4297" y="547.2773">LED1 - 5mm red LED</tspan>
            </text>
            <text id="LED2---5mm-red-LED" fill="#000000" font-family="Helvetica" font-size="9" font-weight="normal">
                <tspan x="489.4297" y="558.0762">LED2 - 5mm red LED</tspan>
            </text>
            <g id="partLabel_6_" transform="translate(13.000000, 94.000000)" fill="#000000" font-family="Helvetica" font-size="12" font-weight="normal">
                <g id="Group" transform="translate(0.400000, 0.000000)">
                    <g id="schematicLabel_6_">
                        <text id="2-LEDs,-switch,-resistor-in-series">
                            <tspan x="0.6488" y="11.7051">2 LEDs, switch, resistor in series</tspan>
                        </text>
                    </g>
                </g>
            </g>
            <text id="⠼⠃-⠠⠇⠠⠑⠠⠙⠎⠂-⠎⠺⠊⠞⠉⠓⠂" fill="#000000" font-family="AppleBraille, Apple Braille" font-size="30" font-weight="normal">
                <tspan x="14.001" y="144.5957">⠼⠃</tspan>
                <tspan x="55.016625" y="144.5957" font-family="Helvetica"> </tspan>
                <tspan x="63.3515859" y="144.5957">⠠⠇⠠⠑⠠⠙⠎⠂</tspan>
                <tspan x="227.414086" y="144.5957" font-family="Helvetica"> </tspan>
                <tspan x="235.749047" y="144.5957">⠎⠺⠊⠞⠉⠓⠂</tspan>
            </text>
            <text id="⠗⠑⠎⠊⠎⠞⠕⠗-⠊⠝-⠎⠑⠗⠊⠑⠎" fill="#000000" font-family="AppleBraille, Apple Braille" font-size="30" font-weight="normal">
                <tspan x="14.001" y="180.5957">⠗⠑⠎⠊⠎⠞⠕⠗</tspan>
                <tspan x="178.0635" y="180.5957" font-family="Helvetica"> </tspan>
                <tspan x="186.398461" y="180.5957">⠊⠝</tspan>
                <tspan x="227.414086" y="180.5957" font-family="Helvetica"> </tspan>
                <tspan x="235.749047" y="180.5957">⠎⠑⠗⠊⠑⠎</tspan>
            </text>
            <text id="⠠⠏⠠⠏⠼⠁" fill="#000000" font-family="AppleBraille, Apple Braille" font-size="30" font-weight="normal">
                <tspan x="14.353" y="239.5625">⠠⠏⠠⠏⠼⠁</tspan>
            </text>
            <text id="⠠⠊⠠⠉⠼⠁" fill="#000000" font-family="AppleBraille, Apple Braille" font-size="30" font-weight="normal">
                <tspan x="194.3906" y="239.7705">⠠⠊⠠⠉⠼⠁</tspan>
            </text>
            <text id="⠠⠊⠠⠝" fill="#000000" font-family="AppleBraille, Apple Braille" font-size="30" font-weight="normal">
                <tspan x="113.8667" y="290.6641">⠠⠊⠠⠝</tspan>
            </text>
            <text id="⠕⠥⠞" fill="#000000" font-family="AppleBraille, Apple Braille" font-size="30" font-weight="normal">
                <tspan x="266.144" y="289.4355">⠕⠥⠞</tspan>
            </text>
            <text id="⠠⠛⠠⠝⠠⠙" fill="#000000" font-family="AppleBraille, Apple Braille" font-size="30" font-weight="normal">
                <tspan x="230.7817" y="332.0195">⠠⠛⠠⠝⠠⠙</tspan>
            </text>
            <text id="⠠⠎⠼⠁" fill="#000000" font-family="AppleBraille, Apple Braille" font-size="30" font-weight="normal">
                <tspan x="409.8789" y="304.6006">⠠⠎⠼⠁</tspan>
            </text>
            <text id="⠠⠗⠼⠁" fill="#000000" font-family="AppleBraille, Apple Braille" font-size="30" font-weight="normal">
                <tspan x="408.0391" y="362.5273">⠠⠗⠼⠁</tspan>
            </text>
            <text id="⠼⠃⠃⠚-⠕⠓⠍" fill="#000000" font-family="AppleBraille, Apple Braille" font-size="30" font-weight="normal">
                <tspan x="408.0391" y="398.5273">⠼⠃⠃⠚</tspan>
                <tspan x="490.07035" y="398.5273" font-family="Helvetica"> </tspan>
                <tspan x="498.405311" y="398.5273">⠕⠓⠍</tspan>
            </text>
            <text id="⠠⠇⠠⠑⠠⠙⠼⠁" fill="#000000" font-family="AppleBraille, Apple Braille" font-size="30" font-weight="normal">
                <tspan x="375.7461" y="449.2676">⠠⠇⠠⠑⠠⠙⠼⠁</tspan>
            </text>
            <text id="⠠⠇⠠⠑⠠⠙⠼⠃" fill="#000000" font-family="AppleBraille, Apple Braille" font-size="30" font-weight="normal">
                <tspan x="225.5078" y="446.9492">⠠⠇⠠⠑⠠⠙⠼⠃</tspan>
            </text>
            <text id="⠠⠅⠑⠽" fill="#000000" font-family="AppleBraille, Apple Braille" font-size="30" font-weight="normal">
                <tspan x="0" y="520.3516">⠠⠅⠑⠽</tspan>
            </text>
            <text id="⠠⠏⠠⠏⠼⠁-⠤-⠠⠙⠠⠉-⠏⠕⠺⠑⠗-⠏⠇⠥⠛" fill="#000000" font-family="AppleBraille, Apple Braille" font-size="30" font-weight="normal">
                <tspan x="0" y="556.3516">⠠⠏⠠⠏⠼⠁</tspan>
                <tspan x="123.046875" y="556.3516" font-family="Helvetica"> </tspan>
                <tspan x="131.381836" y="556.3516">⠤</tspan>
                <tspan x="151.889648" y="556.3516" font-family="Helvetica"> </tspan>
                <tspan x="160.224609" y="556.3516">⠠⠙⠠⠉</tspan>
                <tspan x="242.255859" y="556.3516" font-family="Helvetica"> </tspan>
                <tspan x="250.59082" y="556.3516">⠏⠕⠺⠑⠗</tspan>
                <tspan x="353.129883" y="556.3516" font-family="Helvetica"> </tspan>
                <tspan x="361.464844" y="556.3516">⠏⠇⠥⠛</tspan>
            </text>
            <text id="⠠⠊⠠⠉⠼⠁⠤-⠼⠛⠓⠚⠑-⠼⠑⠤⠧⠕⠇⠞-⠗⠑⠛⠥⠇⠁⠞⠕⠗" fill="#000000" font-family="AppleBraille, Apple Braille" font-size="30" font-weight="normal">
                <tspan x="0" y="592.3516">⠠⠊⠠⠉⠼⠁⠤</tspan>
                <tspan x="143.554688" y="592.3516" font-family="Helvetica"> </tspan>
                <tspan x="151.889648" y="592.3516">⠼⠛⠓⠚⠑</tspan>
                <tspan x="254.428711" y="592.3516" font-family="Helvetica"> </tspan>
                <tspan x="262.763672" y="592.3516">⠼⠑⠤⠧⠕⠇⠞</tspan>
                <tspan x="406.318359" y="592.3516" font-family="Helvetica"> </tspan>
                <tspan x="414.65332" y="592.3516">⠗⠑⠛⠥⠇⠁⠞⠕⠗</tspan>
            </text>
            <text id="⠠⠎⠼⠁⠤-⠎⠺⠊⠞⠉⠓-⠕⠗-⠏⠥⠎⠓⠃⠥⠞⠞⠕⠝" fill="#000000" font-family="AppleBraille, Apple Braille" font-size="30" font-weight="normal">
                <tspan x="0" y="628.3516">⠠⠎⠼⠁⠤</tspan>
                <tspan x="102.539062" y="628.3516" font-family="Helvetica"> </tspan>
                <tspan x="110.874023" y="628.3516">⠎⠺⠊⠞⠉⠓</tspan>
                <tspan x="233.920898" y="628.3516" font-family="Helvetica"> </tspan>
                <tspan x="242.255859" y="628.3516">⠕⠗</tspan>
                <tspan x="283.271484" y="628.3516" font-family="Helvetica"> </tspan>
                <tspan x="291.606445" y="628.3516">⠏⠥⠎⠓⠃⠥⠞⠞⠕⠝</tspan>
            </text>
            <text id="⠠⠗⠼⠁-⠤-⠼⠃⠃⠚⠤⠕⠓⠍-⠗⠑⠎⠊⠎⠞⠕⠗" fill="#000000" font-family="AppleBraille, Apple Braille" font-size="30" font-weight="normal">
                <tspan x="0" y="664.3516">⠠⠗⠼⠁</tspan>
                <tspan x="82.03125" y="664.3516" font-family="Helvetica"> </tspan>
                <tspan x="90.3662109" y="664.3516">⠤</tspan>
                <tspan x="110.874023" y="664.3516" font-family="Helvetica"> </tspan>
                <tspan x="119.208984" y="664.3516">⠼⠃⠃⠚⠤⠕⠓⠍</tspan>
                <tspan x="283.271484" y="664.3516" font-family="Helvetica"> </tspan>
                <tspan x="291.606445" y="664.3516">⠗⠑⠎⠊⠎⠞⠕⠗</tspan>
            </text>
            <text id="⠠⠇⠠⠑⠠⠙⠼⠁-⠤-⠼⠑⠍⠍-⠗⠑⠙-⠠⠇⠠⠑⠠⠙" fill="#000000" font-family="AppleBraille, Apple Braille" font-size="30" font-weight="normal">
                <tspan x="0" y="700.3516">⠠⠇⠠⠑⠠⠙⠼⠁</tspan>
                <tspan x="164.0625" y="700.3516" font-family="Helvetica"> </tspan>
                <tspan x="172.397461" y="700.3516">⠤</tspan>
                <tspan x="192.905273" y="700.3516" font-family="Helvetica"> </tspan>
                <tspan x="201.240234" y="700.3516">⠼⠑⠍⠍</tspan>
                <tspan x="283.271484" y="700.3516" font-family="Helvetica"> </tspan>
                <tspan x="291.606445" y="700.3516">⠗⠑⠙</tspan>
                <tspan x="353.129883" y="700.3516" font-family="Helvetica"> </tspan>
                <tspan x="361.464844" y="700.3516">⠠⠇⠠⠑⠠⠙</tspan>
            </text>
            <text id="⠠⠇⠠⠑⠠⠙⠼⠃-⠤-⠼⠑⠍⠍-⠗⠑⠙-⠠⠇⠠⠑⠠⠙" fill="#000000" font-family="AppleBraille, Apple Braille" font-size="30" font-weight="normal">
                <tspan x="0" y="736.3516">⠠⠇⠠⠑⠠⠙⠼⠃</tspan>
                <tspan x="164.0625" y="736.3516" font-family="Helvetica"> </tspan>
                <tspan x="172.397461" y="736.3516">⠤</tspan>
                <tspan x="192.905273" y="736.3516" font-family="Helvetica"> </tspan>
                <tspan x="201.240234" y="736.3516">⠼⠑⠍⠍</tspan>
                <tspan x="283.271484" y="736.3516" font-family="Helvetica"> </tspan>
                <tspan x="291.606445" y="736.3516">⠗⠑⠙</tspan>
                <tspan x="353.129883" y="736.3516" font-family="Helvetica"> </tspan>
                <tspan x="361.464844" y="736.3516">⠠⠇⠠⠑⠠⠙</tspan>
            </text>
            <g id="Top_Left_Corner_Strokes" stroke="#000000" stroke-width="4">
                <g id="Group">
                    <path d="M22.7,0 L0.5,22.2" id="Shape"></path>
                    <path d="M30.6,0 L0,30.6" id="Shape"></path>
                </g>
            </g>
        </g>
        <text id="Same-as-the-other?-D" font-family="Helvetica" font-size="48" font-weight="normal" fill="#FF0000">
            <tspan x="0" y="109">Same as the other?  Delete one</tspan>
        </text>
    </g>
</svg>