<?xml version="1.0" encoding="utf-8"?>
<!-- Generator: Adobe Illustrator 16.0.0, SVG Export Plug-In . SVG Version: 6.00 Build 0)  -->
<!DOCTYPE svg PUBLIC "-//W3C//DTD SVG 1.1//EN" "http://www.w3.org/Graphics/SVG/1.1/DTD/svg11.dtd">
<svg version="1.1" id="Layer_1" xmlns="http://www.w3.org/2000/svg" xmlns:xlink="http://www.w3.org/1999/xlink" x="0px" y="0px"
	 width="612px" height="792px" viewBox="0 0 612 792" enable-background="new 0 0 612 792" xml:space="preserve">
<g id="Layer_2">
	<line fill="none" stroke="#000000" stroke-width="4" stroke-miterlimit="10" x1="238.232" y1="287.045" x2="307.7" y2="287.045"/>
	<polyline fill="none" stroke="#000000" stroke-width="4" stroke-miterlimit="10" points="346.414,287.045 379.178,287.045 
		379.178,511.678 333.818,511.678 326.4,520.562 214.741,520.562 206.086,511.678 197.432,511.678 197.432,287.045 208.714,287.045 
			"/>
	
		<rect x="307.7" y="265.563" fill="none" stroke="#000000" stroke-width="4" stroke-miterlimit="10" width="39.021" height="53.164"/>
	
		<rect x="208.735" y="281.096" transform="matrix(0.9998 -0.0174 0.0174 0.9998 -5.2459 3.938)" fill="none" stroke="#000000" stroke-width="4" stroke-miterlimit="10" width="29.586" height="44.265"/>
	
		<rect x="243.718" y="381.705" fill="none" stroke="#000000" stroke-width="4" stroke-miterlimit="10" width="19.009" height="126.341"/>
	<circle cx="364.805" cy="307.446" r="10.509"/>
	<circle cx="205.854" cy="381.936" r="2.009"/>
	<circle cx="205.854" cy="442.673" r="2.009"/>
	<circle cx="205.854" cy="425.364" r="2.009"/>
	<circle cx="205.854" cy="434.018" r="2.009"/>
	<circle cx="205.854" cy="416.632" r="2.009"/>
	<circle cx="205.854" cy="407.977" r="2.009"/>
	<circle cx="205.854" cy="399.323" r="2.009"/>
	<circle cx="205.854" cy="390.591" r="2.009"/>
	<circle cx="206.086" cy="503.563" r="2.009"/>
	<circle cx="206.086" cy="486.177" r="2.009"/>
	<circle cx="206.086" cy="494.909" r="2.009"/>
	<circle cx="206.086" cy="477.523" r="2.009"/>
	<circle cx="206.086" cy="468.868" r="2.009"/>
	<circle cx="206.086" cy="460.136" r="2.009"/>
	<circle cx="371.062" cy="442.364" r="2.009"/>
	<circle cx="371.062" cy="503.1" r="2.009"/>
	<circle cx="371.062" cy="485.713" r="2.009"/>
	<circle cx="371.062" cy="494.368" r="2.009"/>
	<circle cx="371.062" cy="477.059" r="2.009"/>
	<circle cx="371.062" cy="468.405" r="2.009"/>
	<circle cx="371.062" cy="459.673" r="2.009"/>
	<circle cx="371.062" cy="451.018" r="2.009"/>
	<circle cx="370.909" cy="368.414" r="2.009"/>
	<circle cx="370.909" cy="428.841" r="2.009"/>
	<circle cx="370.909" cy="411.609" r="2.009"/>
	<circle cx="370.909" cy="420.264" r="2.009"/>
	<circle cx="370.909" cy="402.955" r="2.009"/>
	<circle cx="370.909" cy="394.3" r="2.009"/>
	<circle cx="370.909" cy="385.723" r="2.009"/>
	<circle cx="370.909" cy="377.068" r="2.009"/>
	<circle cx="370.909" cy="351.105" r="2.009"/>
	<circle cx="370.909" cy="359.759" r="2.009"/>
	<g id="connector1terminal_4_">
	</g>
	<g id="connector0terminal_4_">
	</g>
	<g id="partLabel_7_">
		<g transform="translate(214.282,28.9157)">
		</g>
	</g>
	<g id="partLabel_21_">
	</g>
	
		<line fill="none" stroke="#000000" stroke-width="2" stroke-linecap="round" stroke-miterlimit="10" x1="379.562" y1="377.068" x2="362.255" y2="377.068"/>
	
		<line fill="none" stroke="#000000" stroke-width="2" stroke-linecap="round" stroke-miterlimit="10" x1="214.586" y1="434.019" x2="197.2" y2="434.019"/>
	
		<line fill="none" stroke="#000000" stroke-width="2" stroke-linecap="round" stroke-miterlimit="10" x1="214.818" y1="425.286" x2="197.432" y2="425.286"/>
	<g>
		
			<rect x="254.234" y="296.556" transform="matrix(0.9998 -0.0174 0.0174 0.9998 -5.2117 4.6412)" fill="none" stroke="#000000" stroke-width="4" stroke-miterlimit="10" width="19.931" height="10.736"/>
		
			<line fill="none" stroke="#000000" stroke-width="4" stroke-miterlimit="10" x1="264.195" y1="307.368" x2="264.195" y2="314.632"/>
		
			<line fill="none" stroke="#000000" stroke-width="4" stroke-miterlimit="10" x1="258.555" y1="307.368" x2="258.555" y2="314.632"/>
		
			<line fill="none" stroke="#000000" stroke-width="4" stroke-miterlimit="10" x1="269.836" y1="307.368" x2="269.836" y2="314.632"/>
	</g>
	<g>
		<g>
			
				<line fill="none" stroke="#000000" stroke-width="4" stroke-miterlimit="10" x1="139.864" y1="265.563" x2="175.332" y2="277.386"/>
			<g>
				<polygon points="185.687,280.864 169.15,281.945 174.559,277.154 173.091,270.045 				"/>
			</g>
		</g>
	</g>
	<g>
		<g>
			
				<line fill="none" stroke="#000000" stroke-width="4" stroke-miterlimit="10" x1="123.018" y1="390.591" x2="180.045" y2="401.718"/>
			<g>
				<polygon points="190.786,403.805 174.482,407.05 179.273,401.562 176.877,394.687 				"/>
			</g>
		</g>
	</g>
	<g>
		<g>
			
				<line fill="none" stroke="#000000" stroke-width="4" stroke-miterlimit="10" x1="262.727" y1="239.523" x2="262.727" y2="269.891"/>
			<g>
				<polygon points="262.727,280.864 256.468,265.486 262.727,269.118 268.986,265.486 				"/>
			</g>
		</g>
	</g>
	<g>
		<g>
			
				<line fill="none" stroke="#000000" stroke-width="4" stroke-miterlimit="10" x1="373.072" y1="251.577" x2="364.959" y2="260.695"/>
			<g>
				<polygon points="357.695,268.886 363.259,253.2 365.5,260.077 372.609,261.545 				"/>
			</g>
		</g>
	</g>
	<g>
		<g>
			
				<line fill="none" stroke="#000000" stroke-width="4" stroke-miterlimit="10" x1="424.305" y1="292.146" x2="398.572" y2="299.1"/>
			<g>
				<polygon points="387.986,301.959 401.2,291.836 399.346,298.868 404.522,303.968 				"/>
			</g>
		</g>
	</g>
	<g>
		<g>
			
				<line fill="none" stroke="#000000" stroke-width="4" stroke-miterlimit="10" x1="417.195" y1="375.059" x2="396.486" y2="375.214"/>
			<g>
				<polygon points="385.591,375.291 400.891,368.877 397.336,375.214 401.046,381.473 				"/>
			</g>
		</g>
	</g>
	<g>
		<g>
			
				<line fill="none" stroke="#000000" stroke-width="4" stroke-miterlimit="10" x1="424.305" y1="400.945" x2="394.786" y2="389.741"/>
			<g>
				<polygon points="384.586,385.877 401.123,385.414 395.481,390.05 396.718,397.159 				"/>
			</g>
		</g>
	</g>
	<g>
		<g>
			
				<line fill="none" stroke="#000000" stroke-width="4" stroke-miterlimit="10" x1="423.377" y1="523.113" x2="393.859" y2="511.909"/>
			<g>
				<polygon points="383.659,508.046 400.272,507.659 394.632,512.218 395.791,519.404 				"/>
			</g>
		</g>
	</g>
	<g>
		<g>
			
				<line fill="none" stroke="#000000" stroke-width="4" stroke-miterlimit="10" x1="159.414" y1="428.688" x2="180.123" y2="428.918"/>
			<g>
				<polygon points="191.018,428.995 175.563,435.1 179.273,428.841 175.718,422.582 				"/>
			</g>
		</g>
	</g>
	<g>
		<g>
			
				<line fill="none" stroke="#000000" stroke-width="4" stroke-miterlimit="10" x1="156.941" y1="502.945" x2="179.968" y2="489.654"/>
			<g>
				<polygon points="189.396,484.168 179.273,497.305 179.273,490.041 172.937,486.409 				"/>
			</g>
		</g>
	</g>
	<g>
		<g>
			
				<line fill="none" stroke="#000000" stroke-width="4" stroke-miterlimit="10" x1="258.555" y1="577.282" x2="255.232" y2="543.282"/>
			<g>
				<polygon points="254.15,532.387 261.877,547.146 255.309,544.132 249.437,548.382 				"/>
			</g>
		</g>
	</g>
</g>
<g id="Plaintext" display="none">
	<text transform="matrix(1 0 0 1 11.5908 200.4922)" display="inline" font-family="'Helvetica'" font-size="10.8182">Arduino Uno</text>
	<text transform="matrix(1 0 0 1 40.9546 301.9141)" display="inline" font-family="'Helvetica'" font-size="10.8182">Voltage plug</text>
	<text transform="matrix(1 0 0 1 14.6816 353.1133)" display="inline" font-family="'Helvetica'" font-size="10.8182">voltage pins</text>
	<text transform="matrix(1 0 0 1 30.6001 451.0176)" display="inline" font-family="'Helvetica'" font-size="10.8182">Ground</text>
	<text transform="matrix(1 0 0 1 40.9546 560.2812)" display="inline" font-family="'Helvetica'" font-size="10.8182">Analog inputs</text>
	<text transform="matrix(1 0 0 1 269.8364 616.6904)" display="inline" font-family="'Helvetica'" font-size="10.8182">ATMega328</text>
	<text transform="matrix(1 0 0 1 417.1953 544.7236)" display="inline" font-family="'Helvetica'" font-size="10.8182">D0</text>
	<text transform="matrix(1 0 0 1 468.1953 496.918)" display="inline" font-family="'Helvetica'" font-size="10.8182">Digital Pins</text>
	<text transform="matrix(1 0 0 1 543.9229 380.0049)" display="inline" font-family="'Helvetica'" font-size="10.8182">Ground</text>
	<text transform="matrix(1 0 0 1 513.0137 409.8086)" display="inline" font-family="'Helvetica'" font-size="10.8182">D13</text>
	<text transform="matrix(1 0 0 1 513.0137 260.6953)" display="inline" font-family="'Helvetica'" font-size="10.8182">Reset button</text>
	<text transform="matrix(1 0 0 1 423.377 186.5137)" display="inline" font-family="'Helvetica'" font-size="10.8182">USB Plug</text>
	<text transform="matrix(1 0 0 1 243.7183 181.7617)" display="inline" font-family="'Helvetica'" font-size="10.8182">Voltage regulator</text>
</g>
<g id="Braille_1_">
	<text transform="matrix(1 0 0 1 4.1304 447.5928)" font-family="'AppleBraille'" font-size="30">⠠⠛⠗⠕⠥⠝⠙</text>
	<text transform="matrix(1 0 0 1 29.6909 537.6904)" font-family="'AppleBraille'" font-size="30">⠠⠁⠝⠁⠇⠕⠛</text>
	<text transform="matrix(1 0 0 1 29.6909 573.6904)" font-family="'AppleBraille'" font-size="30">⠊⠝⠏⠥⠞⠎ </text>
	<text transform="matrix(1 0 0 1 10.6001 358.1904)" font-family="'AppleBraille'" font-size="30">⠠⠧⠕⠇⠞⠁⠛⠑</text>
	<text transform="matrix(1 0 0 1 10.6001 394.1904)" font-family="'AppleBraille'" font-size="30">⠏⠊⠝⠎ </text>
	<text transform="matrix(1 0 0 1 19.5234 259.1484)" font-family="'AppleBraille'" font-size="30">⠠⠧⠕⠇⠞⠁⠛⠑</text>
	<text transform="matrix(1 0 0 1 24.5234 292.1484)" font-family="'AppleBraille'" font-size="30">⠠⠏⠇⠥⠛ </text>
	<text transform="matrix(1 0 0 1 154.5537 184.0771)" font-family="'AppleBraille'" font-size="30">⠠⠧⠕⠇⠞⠁⠛⠑</text>
	<text transform="matrix(1 0 0 1 154.5537 220.0771)" font-family="'AppleBraille'" font-size="30">⠠⠗⠑⠛⠥⠇⠁⠞⠕⠗ </text>
	<text transform="matrix(1 0 0 1 367.418 200.6709)" font-family="'AppleBraille'" font-size="30">⠠⠠⠥⠎⠃</text>
	<text transform="matrix(1 0 0 1 367.418 236.6709)" font-family="'AppleBraille'" font-size="30">⠠⠏⠇⠥⠛ </text>
	<text transform="matrix(1 0 0 1 437.2969 285.8223)" font-family="'AppleBraille'" font-size="30">⠠⠗⠑⠎⠑⠞</text>
	<text transform="matrix(1 0 0 1 437.2969 321.8223)" font-family="'AppleBraille'" font-size="30">⠃⠥⠞⠞⠕⠝ </text>
	<text transform="matrix(1 0 0 1 425.7207 379.3955)" font-family="'AppleBraille'" font-size="30">⠠⠛⠗⠕⠥⠝⠙</text>
	<text transform="matrix(1 0 0 1 415.5088 551.9961)" font-family="'AppleBraille'" font-size="30">⠠⠙⠼⠚</text>
	<text transform="matrix(1 0 0 1 422.7998 423.1592)" font-family="'AppleBraille'" font-size="30">⠠⠙⠼⠉</text>
	<text transform="matrix(1 0 0 1 422.7998 459.1592)" font-family="'AppleBraille'" font-size="30">⠠⠙⠊⠛⠊⠞⠁⠇</text>
	<text transform="matrix(1 0 0 1 422.7998 495.1592)" font-family="'AppleBraille'" font-size="30">⠏⠊⠝⠎ </text>
	<text transform="matrix(1 0 0 1 171.688 608.8125)" font-family="'AppleBraille'" font-size="30">⠠⠁⠠⠞⠍⠑⠛⠁⠼⠉⠃⠓</text>
</g>
<line fill="none" stroke="#000000" stroke-width="4" stroke-miterlimit="10" x1="22.719" y1="0" x2="0.5" y2="22.219"/>
<line fill="none" stroke="#000000" stroke-width="4" stroke-miterlimit="10" x1="37.125" y1="-3.5" x2="-4.5" y2="38.125"/>
<text transform="matrix(1 0 0 1 37.0137 112.2578)" fill="#939597" font-family="'Helvetica'" font-size="21">Arduino Uno</text>
<text transform="matrix(1 0 0 1 24.4102 84.4004)" font-family="'AppleBraille'" font-size="30">⠠⠁⠗⠙⠥⠊⠝⠕ ⠠⠥⠝⠕</text>
<text transform="matrix(1 0 0 1 30.1294 599.2432)" fill="#939597" font-family="'ArialMT'" font-size="12">Analog inputs</text>
<text transform="matrix(1 0 0 1 232.6196 629.2412)" fill="#939597" font-family="'ArialMT'" font-size="12">ATmega328</text>
<text transform="matrix(1 0 0 1 19.6455 467.7363)" fill="#939597" font-family="'ArialMT'" font-size="12">Ground</text>
<text transform="matrix(1 0 0 1 16.6455 410.7402)" fill="#939597" font-family="'ArialMT'" font-size="12">Voltage pins </text>
<text transform="matrix(1 0 0 1 16.6455 311.7441)" fill="#939597" font-family="'ArialMT'" font-size="12">Voltage Plug</text>
<text transform="matrix(1 0 0 1 390.127 250.248)" fill="#939597" font-family="'ArialMT'" font-size="12">USB Plug </text>
<text transform="matrix(1 0 0 1 192.1367 233.748)" fill="#939597" font-family="'ArialMT'" font-size="12">Voltage Regulator</text>
<text transform="matrix(1 0 0 1 439.625 335.7432)" fill="#939597" font-family="'ArialMT'" font-size="12">Reset button</text>
<text transform="matrix(1 0 0 1 439.625 391.2402)" fill="#939597" font-family="'ArialMT'" font-size="12">Ground</text>
<text transform="matrix(1 0 0 1 439.625 432.7383)" fill="#939597" font-family="'ArialMT'" font-size="12">D3</text>
<text transform="matrix(1 0 0 1 439.625 512.2344)" fill="#939597" font-family="'ArialMT'" font-size="12">Digital pins</text>
<text transform="matrix(1 0 0 1 423.125 575.2314)" fill="#939597" font-family="'ArialMT'" font-size="12">D0</text>
</svg>
