<?xml version="1.0" encoding="utf-8"?>
<!-- Generator: Adobe Illustrator 21.1.0, SVG Export Plug-In . SVG Version: 6.00 Build 0)  -->
<svg version="1.1" xmlns="http://www.w3.org/2000/svg" xmlns:xlink="http://www.w3.org/1999/xlink" x="0px" y="0px"
	 viewBox="0 0 792 612" style="enable-background:new 0 0 792 612;" xml:space="preserve">
<style type="text/css">
	.st0{fill:none;stroke:#000000;stroke-width:4;stroke-miterlimit:10;}
	.st1{fill:none;stroke:#000000;stroke-width:2;stroke-linecap:round;stroke-miterlimit:10;}
	.st2{fill:#FFFFFF;stroke:#000000;stroke-width:4;stroke-miterlimit:10;}
	.st3{font-family:'AppleBraille';}
	.st4{font-size:29px;}
	.st5{enable-background:new    ;}
	.st6{display:none;}
	.st7{display:inline;}
	.st8{font-family:'MyriadPro-Regular';}
	.st9{font-size:12px;}
	.st10{display:inline;enable-background:new    ;}
</style>
<g id="Layer_1">
	<path class="st0" d="M409.2,451h-81.6c-6.6,0-12-5.4-12-12V203.3c0-6.6,5.4-12,12-12h81.6c6.6,0,12,5.4,12,12V439
		C421.2,445.6,415.8,451,409.2,451z"/>
	<circle cx="363.1" cy="259.4" r="7.9"/>
	<circle cx="409.3" cy="403.1" r="2.6"/>
	<circle cx="409.3" cy="436.7" r="2.6"/>
	<circle cx="409.3" cy="425.5" r="2.6"/>
	<circle cx="409.3" cy="414.3" r="2.6"/>
	<circle cx="409.1" cy="313.3" r="2.6"/>
	<circle cx="409.1" cy="391.8" r="2.6"/>
	<circle cx="409.1" cy="369.4" r="2.6"/>
	<circle cx="409.1" cy="380.6" r="2.6"/>
	<circle cx="409.1" cy="358.2" r="2.6"/>
	<circle cx="409.1" cy="347" r="2.6"/>
	<circle cx="409.1" cy="335.8" r="2.6"/>
	<circle cx="409.1" cy="324.5" r="2.6"/>
	<circle cx="409.1" cy="290.9" r="2.6"/>
	<circle cx="409.1" cy="302.1" r="2.6"/>
	<circle cx="329" cy="403.1" r="2.6"/>
	<circle cx="329" cy="436.7" r="2.6"/>
	<circle cx="329" cy="425.5" r="2.6"/>
	<circle cx="329" cy="414.3" r="2.6"/>
	<circle cx="328.8" cy="313.3" r="2.6"/>
	<circle cx="328.8" cy="391.8" r="2.6"/>
	<circle cx="328.8" cy="369.4" r="2.6"/>
	<circle cx="328.8" cy="380.6" r="2.6"/>
	<circle cx="328.8" cy="358.2" r="2.6"/>
	<circle cx="328.8" cy="347" r="2.6"/>
	<circle cx="328.8" cy="335.8" r="2.6"/>
	<circle cx="328.8" cy="324.5" r="2.6"/>
	<circle cx="328.8" cy="290.9" r="2.6"/>
	<circle cx="328.8" cy="302.1" r="2.6"/>
	<g id="connector1terminal_4_">
	</g>
	<g id="connector0terminal_4_">
	</g>
	<g id="partLabel_7_">
		<g transform="translate(214.282,28.9157)">
		</g>
	</g>
	<g id="partLabel_21_">
	</g>
	<line class="st1" x1="414.9" y1="324.5" x2="403.5" y2="324.5"/>
	<g>
		<g>
			<line class="st0" x1="294.9" y1="282" x2="261.6" y2="273"/>
			<g>
				<polygon points="287.2,288.3 293.9,281.7 291.5,272.6 308.6,285.7 				"/>
			</g>
		</g>
	</g>
	<g>
		<g>
			<line class="st0" x1="367.8" y1="136.4" x2="368" y2="163.2"/>
			<g>
				<polygon points="368.1,177.3 359.8,157.5 368,162.1 376.1,157.3 				"/>
			</g>
		</g>
	</g>
	<g>
		<g>
			<line class="st0" x1="293" y1="237.2" x2="266.2" y2="237"/>
			<g>
				<polygon points="287.1,245.3 291.9,237.2 287.3,229 307.1,237.3 				"/>
			</g>
		</g>
	</g>
	<g>
		<g>
			<line class="st0" x1="467.6" y1="223.8" x2="440.8" y2="224"/>
			<g>
				<polygon points="426.7,224.1 446.5,215.8 441.9,224 446.7,232.1 				"/>
			</g>
		</g>
	</g>
	<g>
		<g>
			<line class="st0" x1="261.6" y1="301.8" x2="295" y2="302.2"/>
			<g>
				<polygon points="309.1,302.3 289.1,310.2 293.9,302.1 289.3,294 				"/>
			</g>
		</g>
	</g>
	<g>
		<g>
			<line class="st0" x1="267.2" y1="380.4" x2="294" y2="380.7"/>
			<g>
				<polygon points="308.1,380.8 288.1,388.7 292.9,380.6 288.3,372.5 				"/>
			</g>
		</g>
	</g>
	<g>
		<g>
			<line class="st0" x1="267.2" y1="436.9" x2="294" y2="437.2"/>
			<g>
				<polygon points="308.1,437.3 288.1,445.2 292.9,437.1 288.3,429 				"/>
			</g>
		</g>
	</g>
	<g>
		<g>
			<line class="st0" x1="365" y1="502.4" x2="365.3" y2="475.6"/>
			<g>
				<polygon points="365.4,461.5 373.3,481.5 365.2,476.7 357.1,481.3 				"/>
			</g>
		</g>
	</g>
	<g>
		<g>
			<line class="st0" x1="442.8" y1="437.2" x2="469.6" y2="436.9"/>
			<g>
				<polygon points="448.5,429 443.9,437.1 448.7,445.2 428.7,437.3 				"/>
			</g>
		</g>
	</g>
	<g>
		<g>
			<line class="st0" x1="442.8" y1="344.5" x2="469.6" y2="344.2"/>
			<g>
				<polygon points="448.5,336.3 443.9,344.4 448.7,352.5 428.7,344.6 				"/>
			</g>
		</g>
	</g>
	<rect x="355.8" y="181.8" class="st2" width="25.2" height="19"/>
	<rect x="315.9" y="219.7" class="st0" width="24.9" height="35.1"/>
	<rect x="355.9" y="330.6" class="st0" width="24.9" height="24.9"/>
	<rect x="342.1" y="386.5" class="st0" width="52.6" height="59.2"/>
	<rect x="404.4" y="210.6" class="st0" width="16.6" height="26.6"/>
</g>
<g id="braille">
	<text transform="matrix(1 0 0 1 20.1189 45.0477)" class="st3 st4">⠠⠍⠠⠅⠠⠗⠠⠵⠑⠗⠕</text>
	<text transform="matrix(1 0 0 1 104.2938 175.2998)" class="st5"><tspan x="0" y="0" class="st3 st4">⠠⠇⠊⠠⠏⠕</tspan><tspan x="0" y="34.8" class="st3 st4">⠠⠃⠁⠞⠞⠑⠗⠽ </tspan><tspan x="0" y="69.6" class="st3 st4">⠠⠏⠇⠥⠛</tspan></text>
	<text transform="matrix(1 0 0 1 93.2938 282.0002)" class="st3 st4">⠠⠁⠠⠗⠠⠑⠠⠋</text>
	<text transform="matrix(1 0 0 1 183.2936 313.7154)" class="st3 st4">⠠⠁⠚</text>
	<text transform="matrix(1 0 0 1 206.2936 389.6998)" class="st3 st4">⠠⠙⠚</text>
	<text transform="matrix(1 0 0 1 201.2936 446.2999)" class="st3 st4">⠠⠙⠑</text>
	<text transform="matrix(1 0 0 1 316.2002 525.2999)" class="st5"><tspan x="0" y="0" class="st3 st4">⠠⠎⠠⠙</tspan><tspan x="0" y="34.8" class="st3 st4">⠠⠉⠁⠗⠙</tspan><tspan x="0" y="69.6" class="st3 st4">⠠⠎⠇⠕⠞</tspan></text>
	<text transform="matrix(1 0 0 1 467.6 445.2003)" class="st3 st4">⠠⠙⠋</text>
	<text transform="matrix(1 0 0 1 467.5994 344.5004)" class="st3 st4">⠠⠙⠁⠙</text>
	<text transform="matrix(1 0 0 1 474.5217 210.5736)" class="st5"><tspan x="0" y="0" class="st3 st4">⠠⠁⠙⠙⠊⠞⠊⠕⠝⠁⠇ </tspan><tspan x="0" y="34.8" class="st3 st4">⠠⠊⠃⠠⠉ ⠏⠕⠗⠞</tspan></text>
	<text transform="matrix(1 0 0 1 311.6003 90.0209)" class="st5"><tspan x="0" y="0" class="st3 st4">⠠⠥⠠⠎⠠⠃ </tspan><tspan x="0" y="34.8" class="st3 st4">⠠⠏⠇⠥⠛</tspan></text>
</g>
<g id="plaintext" class="st6">
	<text transform="matrix(1 0 0 1 139.1 303.7154)" class="st7 st8 st9">A0</text>
	<text transform="matrix(1 0 0 1 49.1 276.5001)" class="st7 st8 st9">AREF</text>
	<text transform="matrix(1 0 0 1 49.2 68.1498)" class="st7 st8 st9">MKRZero</text>
	<text transform="matrix(1 0 0 1 174.1 383.2235)" class="st7 st8 st9">D0</text>
	<text transform="matrix(1 0 0 1 174.1 445.3)" class="st7 st8 st9">D5</text>
	<text transform="matrix(1 0 0 1 562 439.2996)" class="st7 st8 st9">D6</text>
	<text transform="matrix(1 0 0 1 561.9997 343.0972)" class="st7 st8 st9">D14</text>
	<text transform="matrix(1 0 0 1 521.4497 262.1002)" class="st7 st8 st9">Additional I2C port</text>
	<text transform="matrix(1 0 0 1 235.8901 555.1002)" class="st7 st8 st9">SD card slot</text>
	<text transform="matrix(1 0 0 1 18.8306 202.6355)" class="st10"><tspan x="0" y="0" class="st8 st9">LiPo</tspan><tspan x="0" y="14.4" class="st8 st9">Battery Plug</tspan></text>
	<text transform="matrix(1 0 0 1 324.85 60.9975)" class="st7 st8 st9">USB Plug</text>
</g>
</svg>
