<?xml version="1.0" encoding="utf-8"?>
<!-- Generator: Adobe Illustrator 16.0.0, SVG Export Plug-In . SVG Version: 6.00 Build 0)  -->
<!DOCTYPE svg PUBLIC "-//W3C//DTD SVG 1.1//EN" "http://www.w3.org/Graphics/SVG/1.1/DTD/svg11.dtd">
<svg version="1.1" id="Layer_1" xmlns="http://www.w3.org/2000/svg" xmlns:xlink="http://www.w3.org/1999/xlink" x="0px" y="0px"
	 width="612px" height="792px" viewBox="0 0 612 792" enable-background="new 0 0 612 792" xml:space="preserve">
<g id="Layer_1_1_">
	<path fill="none" stroke="#000000" stroke-width="4" stroke-miterlimit="10" d="M316.2,518.046h-63.055
		c-5.1,0-9.273-4.173-9.273-9.271V326.641c0-5.1,4.173-9.273,9.273-9.273H316.2c5.1,0,9.271,4.173,9.271,9.273v182.13
		C325.473,513.873,321.3,518.046,316.2,518.046z"/>
	<circle cx="280.577" cy="369.991" r="6.105"/>
	<circle cx="316.277" cy="481.032" r="2.009"/>
	<circle cx="316.277" cy="506.996" r="2.009"/>
	<circle cx="316.277" cy="498.341" r="2.009"/>
	<circle cx="316.277" cy="489.687" r="2.009"/>
	<circle cx="316.123" cy="411.641" r="2.009"/>
	<circle cx="316.123" cy="472.3" r="2.009"/>
	<circle cx="316.123" cy="454.991" r="2.009"/>
	<circle cx="316.123" cy="463.646" r="2.009"/>
	<circle cx="316.123" cy="446.336" r="2.009"/>
	<circle cx="316.123" cy="437.682" r="2.009"/>
	<circle cx="316.123" cy="429.027" r="2.009"/>
	<circle cx="316.123" cy="420.295" r="2.009"/>
	<circle cx="316.123" cy="394.332" r="2.009"/>
	<circle cx="316.123" cy="402.987" r="2.009"/>
	<circle cx="254.227" cy="481.032" r="2.009"/>
	<circle cx="254.227" cy="506.996" r="2.009"/>
	<circle cx="254.227" cy="498.341" r="2.009"/>
	<circle cx="254.227" cy="489.687" r="2.009"/>
	<circle cx="254.073" cy="411.641" r="2.009"/>
	<circle cx="254.073" cy="472.3" r="2.009"/>
	<circle cx="254.073" cy="454.991" r="2.009"/>
	<circle cx="254.073" cy="463.646" r="2.009"/>
	<circle cx="254.073" cy="446.336" r="2.009"/>
	<circle cx="254.073" cy="437.682" r="2.009"/>
	<circle cx="254.073" cy="429.027" r="2.009"/>
	<circle cx="254.073" cy="420.295" r="2.009"/>
	<circle cx="254.073" cy="394.332" r="2.009"/>
	<circle cx="254.073" cy="402.987" r="2.009"/>
	<g id="connector1terminal_4_">
	</g>
	<g id="connector0terminal_4_">
	</g>
	<g id="partLabel_7_">
		<g transform="translate(214.282,28.9157)">
		</g>
	</g>
	<g id="partLabel_21_">
	</g>
	
		<line fill="none" stroke="#000000" stroke-width="2" stroke-linecap="round" stroke-miterlimit="10" x1="320.604" y1="420.296" x2="311.796" y2="420.296"/>
	<g>
		<g>
			
				<line fill="none" stroke="#000000" stroke-width="4" stroke-miterlimit="10" x1="220.579" y1="385.589" x2="151.896" y2="356.296"/>
			<g>
				<polygon points="214.019,389.598 219.845,385.254 218.97,378.034 230.675,389.869 				"/>
			</g>
		</g>
	</g>
	<g>
		<g>
			
				<line fill="none" stroke="#000000" stroke-width="4" stroke-miterlimit="10" x1="284.209" y1="199.833" x2="284.364" y2="288.654"/>
			<g>
				<polygon points="284.441,299.55 278.027,284.25 284.364,287.805 290.623,284.096 				"/>
			</g>
		</g>
	</g>
	<g>
		<g>
			
				<line fill="none" stroke="#000000" stroke-width="4" stroke-miterlimit="10" x1="225.108" y1="340.558" x2="185.047" y2="301.279"/>
			<g>
				<polygon points="217.458,341.76 224.507,339.957 226.474,332.962 232.758,348.317 				"/>
			</g>
		</g>
	</g>
	<g>
		<g>
			
				<line fill="none" stroke="#000000" stroke-width="4" stroke-miterlimit="10" x1="388.327" y1="342.482" x2="356.618" y2="342.636"/>
			<g>
				<polygon points="345.723,342.714 361.022,336.3 357.468,342.636 361.178,348.896 				"/>
			</g>
		</g>
	</g>
	<g>
		<g>
			
				<line fill="none" stroke="#000000" stroke-width="4" stroke-miterlimit="10" x1="114.5" y1="402.754" x2="220.955" y2="403.062"/>
			<g>
				<polygon points="231.85,403.141 216.396,409.245 220.104,402.986 216.55,396.729 				"/>
			</g>
		</g>
	</g>
	<g>
		<g>
			
				<line fill="none" stroke="#000000" stroke-width="4" stroke-miterlimit="10" x1="116.6" y1="463.491" x2="220.182" y2="463.723"/>
			<g>
				<polygon points="231.077,463.8 215.623,469.904 219.332,463.646 215.777,457.387 				"/>
			</g>
			<line fill="none" stroke="#000000" stroke-width="4" stroke-miterlimit="10" x1="116.6" y1="500.158" x2="219.182" y2="500.39"/>
			<g>
				<polygon points="230.077,500.467 214.623,506.571 218.332,500.312 214.777,494.054 				"/>
			</g>
		</g>
	</g>
	<g>
		<g>
			
				<line fill="none" stroke="#000000" stroke-width="4" stroke-miterlimit="10" x1="282.045" y1="642.166" x2="282.277" y2="550.055"/>
			<g>
				<polygon points="282.354,539.159 288.459,554.613 282.2,550.904 275.941,554.459 				"/>
			</g>
		</g>
	</g>
	<g>
		<g>
			<line fill="none" stroke="#000000" stroke-width="4" stroke-miterlimit="10" x1="349.164" y1="507.382" x2="470.5" y2="507.15"/>
			<g>
				<polygon points="353.568,501.046 350.014,507.305 353.723,513.562 338.269,507.459 				"/>
			</g>
		</g>
	</g>
	<g>
		<g>
			<line fill="none" stroke="#000000" stroke-width="4" stroke-miterlimit="10" x1="346.164" y1="435.75" x2="471.5" y2="435.519"/>
			<g>
				<polygon points="356.568,429.414 353.014,435.673 356.723,441.932 341.269,435.827 				"/>
			</g>
		</g>
	</g>
	
		<rect x="274.937" y="310.027" fill="#FFFFFF" stroke="#000000" stroke-width="4" stroke-miterlimit="10" width="19.473" height="14.682"/>
	
		<rect x="244.104" y="339.313" fill="none" stroke="#000000" stroke-width="4" stroke-miterlimit="10" width="19.241" height="27.123"/>
	
		<rect x="275.014" y="425.009" fill="none" stroke="#000000" stroke-width="4" stroke-miterlimit="10" width="19.241" height="19.241"/>
	
		<rect x="264.35" y="468.204" fill="none" stroke="#000000" stroke-width="4" stroke-miterlimit="10" width="40.646" height="45.746"/>
	
		<rect x="312.491" y="332.282" fill="none" stroke="#000000" stroke-width="4" stroke-miterlimit="10" width="12.827" height="20.555"/>
</g>
<g id="plaintext" display="none">
	<text transform="matrix(1 0 0 1 107.4863 394.2344)" display="inline" font-family="'MyriadPro-Regular'" font-size="9.2727">A0</text>
	<text transform="matrix(1 0 0 1 37.9409 373.2051)" display="inline" font-family="'MyriadPro-Regular'" font-size="9.2727">AREF</text>
	<text transform="matrix(1 0 0 1 38.0181 212.2061)" display="inline" font-family="'MyriadPro-Regular'" font-size="9.2727">MKRZero</text>
	<text transform="matrix(1 0 0 1 134.5317 455.6729)" display="inline" font-family="'MyriadPro-Regular'" font-size="9.2727">D0</text>
	<text transform="matrix(1 0 0 1 134.5317 503.6416)" display="inline" font-family="'MyriadPro-Regular'" font-size="9.2727">D5</text>
	<text transform="matrix(1 0 0 1 434.2734 499.0039)" display="inline" font-family="'MyriadPro-Regular'" font-size="9.2727">D6</text>
	<text transform="matrix(1 0 0 1 434.2725 424.666)" display="inline" font-family="'MyriadPro-Regular'" font-size="9.2727">D14</text>
	<text transform="matrix(1 0 0 1 402.9385 362.0771)" display="inline" font-family="'MyriadPro-Regular'" font-size="9.2727">Additional I2C port</text>
	<text transform="matrix(1 0 0 1 182.2788 588.4863)" display="inline" font-family="'MyriadPro-Regular'" font-size="9.2727">SD card slot</text>
	<text transform="matrix(1 0 0 1 14.5508 316.127)" display="inline" font-family="'MyriadPro-Regular'" font-size="9.2727">LiPo</text>
	<text transform="matrix(1 0 0 1 14.5508 327.2549)" display="inline" font-family="'MyriadPro-Regular'" font-size="9.2727">Battery Plug</text>
	<text transform="matrix(1 0 0 1 251.0205 206.6797)" display="inline" font-family="'MyriadPro-Regular'" font-size="9.2727">USB Plug</text>
</g>
<g id="Braille">
	<text transform="matrix(1 0 0 1 30.5464 87.3555)" font-family="'AppleBraille'" font-size="30">⠠⠍⠠⠅⠠⠗⠠⠵⠑⠗⠕</text>
	<text transform="matrix(1 0 0 1 12.5908 345.0039)" font-family="'AppleBraille'" font-size="30">⠠⠁⠠⠗⠠⠑⠠⠋</text>
	<text transform="matrix(1 0 0 1 17.5908 411.0039)" font-family="'AppleBraille'" font-size="30">⠠⠁⠼⠚ </text>
	<text transform="matrix(1 0 0 1 82.5908 231.0039)" font-family="'AppleBraille'" font-size="30">⠠⠇⠊⠠⠏⠕</text>
	<text transform="matrix(1 0 0 1 67.5908 262.0039)" font-family="'AppleBraille'" font-size="30">⠠⠃⠁⠞⠞⠑⠗⠽</text>
	<text transform="matrix(1 0 0 1 82.5908 293.0039)" font-family="'AppleBraille'" font-size="30">⠠⠏⠇⠥⠛</text>
	<text transform="matrix(1 0 0 1 16.4126 467.6777)" font-family="'AppleBraille'" font-size="30">⠠⠙⠼⠚</text>
	<text transform="matrix(1 0 0 1 16.5488 519.4141)" font-family="'AppleBraille'" font-size="30">⠠⠙⠼⠑</text>
	<text transform="matrix(1 0 0 1 235.3369 683.9551)" font-family="'AppleBraille'" font-size="30">⠠⠎⠠⠙</text>
	<text transform="matrix(1 0 0 1 235.3369 719.9551)" font-family="'AppleBraille'" font-size="30">⠠⠉⠁⠗⠙</text>
	<text transform="matrix(1 0 0 1 235.3369 755.9551)" font-family="'AppleBraille'" font-size="30">⠠⠎⠇⠕⠞</text>
	<text transform="matrix(1 0 0 1 477.3271 513.5635)" font-family="'AppleBraille'" font-size="30">⠠⠙⠼⠋</text>
	<text transform="matrix(1 0 0 1 477.3262 443.75)" font-family="'AppleBraille'" font-size="30">⠠⠙⠼⠙</text>
	<text transform="matrix(1 0 0 1 385.6758 332.2607)" font-family="'AppleBraille'" font-size="30">⠠⠁⠙⠙⠊⠞⠊⠕⠝⠁⠇</text>
	<text transform="matrix(1 0 0 1 385.6758 368.2607)" font-family="'AppleBraille'" font-size="30">⠠⠊⠼⠃⠠⠉</text>
	<text transform="matrix(1 0 0 1 488.2148 368.2607)" font-family="'Apple-Chancery'" font-size="30"> </text>
	<text transform="matrix(1 0 0 1 496.5498 368.2607)" font-family="'AppleBraille'" font-size="30">⠏⠕⠗⠞</text>
	<text transform="matrix(1 0 0 1 578.5811 368.2607)" font-family="'Apple-Chancery'" font-size="30"> </text>
	<text transform="matrix(1 0 0 1 240.7822 152.1074)" font-family="'AppleBraille'" font-size="30">⠠⠥⠠⠎⠠⠃</text>
	<text transform="matrix(1 0 0 1 240.7822 188.1074)" font-family="'AppleBraille'" font-size="30">⠠⠏⠇⠥⠛ </text>
</g>
<line fill="none" stroke="#000000" stroke-width="4" stroke-miterlimit="10" x1="22.719" y1="0" x2="0.5" y2="22.219"/>
<line fill="none" stroke="#000000" stroke-width="4" stroke-miterlimit="10" x1="37.125" y1="-3.5" x2="-4.5" y2="38.125"/>
<g>
	<text transform="matrix(1 0 0 1 39.9526 114.3125)" fill="#939597" font-family="'ArialMT'" font-size="21">MKRZero</text>
</g>
<text transform="matrix(1 0 0 1 366.5293 140.9092)" fill="#939597" font-family="'ArialMT'" font-size="14">USB</text>
<text transform="matrix(1 0 0 1 366.5293 157.709)" fill="#939597" font-family="'ArialMT'" font-size="14">Plug</text>
<text transform="matrix(1 0 0 1 34.5293 219.9092)" fill="#939597" font-family="'ArialMT'" font-size="14">LiPo</text>
<text transform="matrix(1 0 0 1 34.5293 236.709)" fill="#939597" font-family="'ArialMT'" font-size="14">Battery</text>
<text transform="matrix(1 0 0 1 34.5293 253.5088)" fill="#939597" font-family="'ArialMT'" font-size="14">Plug</text>
<text transform="matrix(1 0 0 1 391.5293 383.9092)" fill="#939597" font-family="'ArialMT'" font-size="14">Additional I2Cport</text>
<text transform="matrix(1 0 0 1 487.5293 459.9092)" fill="#939597" font-family="'ArialMT'" font-size="14">D4</text>
<text transform="matrix(1 0 0 1 486.5293 530.9092)" fill="#939597" font-family="'ArialMT'" font-size="14">D6</text>
<text transform="matrix(1 0 0 1 246.5298 776.4053)" fill="#939597" font-family="'ArialMT'" font-size="14">SD Card Slot</text>
<text transform="matrix(1 0 0 1 33.5332 535.9092)" fill="#939597" font-family="'ArialMT'" font-size="14">D5</text>
<text transform="matrix(1 0 0 1 33.5332 480.9092)" fill="#939597" font-family="'ArialMT'" font-size="14">D0</text>
<text transform="matrix(1 0 0 1 43.5293 425.9092)" fill="#939597" font-family="'ArialMT'" font-size="14">A0</text>
<text transform="matrix(1 0 0 1 23.5293 358.9092)" fill="#939597" font-family="'ArialMT'" font-size="14">AREF</text>
</svg>
