<?xml version="1.0" encoding="utf-8"?>
<!-- Generator: Adobe Illustrator 21.1.0, SVG Export Plug-In . SVG Version: 6.00 Build 0)  -->
<svg version="1.1" id="Layer_2" xmlns="http://www.w3.org/2000/svg" xmlns:xlink="http://www.w3.org/1999/xlink" x="0px" y="0px"
	 viewBox="0 0 792 612" style="enable-background:new 0 0 792 612;" xml:space="preserve">
<style type="text/css">
	.st0{fill:none;stroke:#000000;stroke-width:4;stroke-miterlimit:10;}
	.st1{enable-background:new    ;}
	.st2{fill:none;stroke:#000000;stroke-width:2;stroke-linecap:round;stroke-miterlimit:10;}
	.st3{font-family:'AppleBraille';}
	.st4{font-size:29px;}
</style>
<line class="st0" x1="308.3" y1="165" x2="398.2" y2="165"/>
<polyline class="st0" points="448.3,165 490.7,165 490.7,455.7 432,455.7 422.4,467.2 277.9,467.2 266.7,455.7 255.5,455.7 
	255.5,165 270.1,165 "/>
<rect x="398.2" y="137.2" class="st0" width="50.5" height="68.8"/>
<rect x="270.1" y="157.3" transform="matrix(0.9998 -1.743414e-02 1.743414e-02 0.9998 -3.1979 5.0711)" class="st0" width="38.3" height="57.3"/>
<rect x="315.4" y="287.5" class="st0" width="24.6" height="163.5"/>
<circle cx="472.1" cy="191.4" r="13.6"/>
<circle cx="266.4" cy="287.8" r="2.6"/>
<circle cx="266.4" cy="366.4" r="2.6"/>
<circle cx="266.4" cy="344" r="2.6"/>
<circle cx="266.4" cy="355.2" r="2.6"/>
<circle cx="266.4" cy="332.7" r="2.6"/>
<circle cx="266.4" cy="321.5" r="2.6"/>
<circle cx="266.4" cy="310.3" r="2.6"/>
<circle cx="266.4" cy="299" r="2.6"/>
<circle cx="266.7" cy="445.2" r="2.6"/>
<circle cx="266.7" cy="422.7" r="2.6"/>
<circle cx="266.7" cy="434" r="2.6"/>
<circle cx="266.7" cy="411.5" r="2.6"/>
<circle cx="266.7" cy="400.3" r="2.6"/>
<circle cx="266.7" cy="389" r="2.6"/>
<circle cx="480.2" cy="366" r="2.6"/>
<circle cx="480.2" cy="444.6" r="2.6"/>
<circle cx="480.2" cy="422.1" r="2.6"/>
<circle cx="480.2" cy="433.3" r="2.6"/>
<circle cx="480.2" cy="410.9" r="2.6"/>
<circle cx="480.2" cy="399.7" r="2.6"/>
<circle cx="480.2" cy="388.4" r="2.6"/>
<circle cx="480.2" cy="377.2" r="2.6"/>
<circle cx="480" cy="270.3" r="2.6"/>
<circle cx="480" cy="348.5" r="2.6"/>
<circle cx="480" cy="326.2" r="2.6"/>
<circle cx="480" cy="337.4" r="2.6"/>
<circle cx="480" cy="315" r="2.6"/>
<circle cx="480" cy="303.8" r="2.6"/>
<circle cx="480" cy="292.7" r="2.6"/>
<circle cx="480" cy="281.5" r="2.6"/>
<circle cx="480" cy="247.9" r="2.6"/>
<circle cx="480" cy="259.1" r="2.6"/>
<g id="connector1terminal_4_">
</g>
<g id="connector0terminal_4_">
</g>
<g id="partLabel_7_">
	<g transform="translate(214.282,28.9157)">
	</g>
</g>
<text transform="matrix(1 0 0 1 -45.3078 552.7351)" style="font-family:'ArialMT'; font-size:13.0465px;">R1</text>
<g id="partLabel_21_">
</g>
<line class="st2" x1="491.2" y1="281.5" x2="468.8" y2="281.5"/>
<line class="st2" x1="277.7" y1="355.2" x2="255.2" y2="355.2"/>
<line class="st2" x1="278" y1="343.9" x2="255.5" y2="343.9"/>
<g>
	
		<rect x="329" y="177.3" transform="matrix(0.9998 -1.743412e-02 1.743412e-02 0.9998 -3.1608 5.9893)" class="st0" width="25.8" height="13.9"/>
	<line class="st0" x1="341.9" y1="191.3" x2="341.9" y2="200.7"/>
	<line class="st0" x1="334.6" y1="191.3" x2="334.6" y2="200.7"/>
	<line class="st0" x1="349.2" y1="191.3" x2="349.2" y2="200.7"/>
</g>
<text transform="matrix(1 0 0 1 235.9518 52.4168)" class="st3 st4">⠠⠧⠕⠇⠞⠁⠛⠑ </text>
<text transform="matrix(1 0 0 1 235.9518 87.2167)" class="st3 st4">⠠⠗⠑⠛⠥⠇⠁⠞⠕⠗</text>
<text transform="matrix(1 0 0 1 482.6 65.7503)" class="st1"><tspan x="0" y="0" class="st3 st4">⠠⠠⠥⠎⠃ </tspan><tspan x="0" y="34.8" class="st3 st4">⠠⠏⠇⠥⠛</tspan></text>
<text transform="matrix(1 0 0 1 565.2667 160.417)" class="st1"><tspan x="0" y="0" class="st3 st4">⠠⠗⠑⠎⠑⠞ </tspan><tspan x="0" y="34.8" class="st3 st4">⠃⠥⠞⠞⠕⠝</tspan></text>
<text transform="matrix(1 0 0 1 539.9333 284.1002)" class="st3 st4">⠠⠛⠗⠕⠥⠝⠙</text>
<text transform="matrix(1 0 0 1 552.6 328.7995)" class="st3 st4">⠼⠁⠉</text>
<text transform="matrix(1 0 0 1 552.6005 485.4662)" class="st3 st4">⠚</text>
<text transform="matrix(1 0 0 1 549.0938 370.4993)" class="st1"><tspan x="0" y="0" class="st3 st4">⠠⠙⠊⠛⠊⠞⠁⠇ </tspan><tspan x="0" y="34.8" class="st3 st4">⠏⠊⠝⠎</tspan></text>
<text transform="matrix(1 0 0 1 51.9333 358.7668)" class="st3 st4">⠠⠛⠗⠕⠥⠝⠙</text>
<text transform="matrix(1 0 0 1 54.5998 456.5995)" class="st1"><tspan x="0" y="0" class="st3 st4">⠠⠁⠝⠁⠇⠕⠛ </tspan><tspan x="0" y="34.8" class="st3 st4">⠊⠝⠏⠥⠞⠎</tspan></text>
<text transform="matrix(1 0 0 1 215.0668 571.9335)" class="st3 st4">⠠⠁⠠⠞⠍⠑⠛⠁⠼⠉⠃⠓</text>
<text transform="matrix(1 0 0 1 28.5999 276.0706)" class="st1"><tspan x="0" y="0" class="st3 st4">⠠⠧⠕⠇⠞⠁⠛⠑ </tspan><tspan x="0" y="34.8" class="st3 st4">⠏⠊⠝⠎</tspan></text>
<text transform="matrix(1 0 0 1 46.6184 122.0164)" class="st1"><tspan x="0" y="0" class="st3 st4">⠠⠧⠕⠇⠞⠁⠛⠑ </tspan><tspan x="0" y="34.8" class="st3 st4">⠠⠏⠇⠥⠛</tspan></text>
<g>
	<g>
		<line class="st0" x1="181" y1="137.2" x2="226.9" y2="152.5"/>
		<g>
			<polygon points="240.3,157 218.9,158.4 225.9,152.2 224,143 			"/>
		</g>
	</g>
</g>
<g>
	<g>
		<line class="st0" x1="159.2" y1="299" x2="233" y2="313.4"/>
		<g>
			<polygon points="246.9,316.1 225.8,320.3 232,313.2 228.9,304.3 			"/>
		</g>
	</g>
</g>
<g>
	<g>
		<line class="st0" x1="340" y1="103.5" x2="340" y2="142.8"/>
		<g>
			<polygon points="340,157 331.9,137.1 340,141.8 348.1,137.1 			"/>
		</g>
	</g>
</g>
<g>
	<g>
		<line class="st0" x1="482.8" y1="119.1" x2="472.3" y2="130.9"/>
		<g>
			<polygon points="462.9,141.5 470.1,121.2 473,130.1 482.2,132 			"/>
		</g>
	</g>
</g>
<g>
	<g>
		<line class="st0" x1="549.1" y1="171.6" x2="515.8" y2="180.6"/>
		<g>
			<polygon points="502.1,184.3 519.2,171.2 516.8,180.3 523.5,186.9 			"/>
		</g>
	</g>
</g>
<g>
	<g>
		<line class="st0" x1="539.9" y1="278.9" x2="513.1" y2="279.1"/>
		<g>
			<polygon points="499,279.2 518.8,270.9 514.2,279.1 519,287.2 			"/>
		</g>
	</g>
</g>
<g>
	<g>
		<line class="st0" x1="549.1" y1="312.4" x2="510.9" y2="297.9"/>
		<g>
			<polygon points="497.7,292.9 519.1,292.3 511.8,298.3 513.4,307.5 			"/>
		</g>
	</g>
</g>
<g>
	<g>
		<line class="st0" x1="547.9" y1="470.5" x2="509.7" y2="456"/>
		<g>
			<polygon points="496.5,451 518,450.5 510.7,456.4 512.2,465.7 			"/>
		</g>
	</g>
</g>
<g>
	<g>
		<line class="st0" x1="206.3" y1="348.3" x2="233.1" y2="348.6"/>
		<g>
			<polygon points="247.2,348.7 227.2,356.6 232,348.5 227.4,340.4 			"/>
		</g>
	</g>
</g>
<g>
	<g>
		<line class="st0" x1="203.1" y1="444.4" x2="232.9" y2="427.2"/>
		<g>
			<polygon points="245.1,420.1 232,437.1 232,427.7 223.8,423 			"/>
		</g>
	</g>
</g>
<g>
	<g>
		<line class="st0" x1="334.6" y1="540.6" x2="330.3" y2="496.6"/>
		<g>
			<polygon points="328.9,482.5 338.9,501.6 330.4,497.7 322.8,503.2 			"/>
		</g>
	</g>
</g>
</svg>
