<?xml version="1.0" encoding="utf-8"?>
<!-- Generator: Adobe Illustrator 16.0.0, SVG Export Plug-In . SVG Version: 6.00 Build 0)  -->
<!DOCTYPE svg PUBLIC "-//W3C//DTD SVG 1.1//EN" "http://www.w3.org/Graphics/SVG/1.1/DTD/svg11.dtd">
<svg version="1.1" id="Layer_1" xmlns="http://www.w3.org/2000/svg" xmlns:xlink="http://www.w3.org/1999/xlink" x="0px" y="0px"
	 width="792px" height="612px" viewBox="0 0 792 612" enable-background="new 0 0 792 612" xml:space="preserve">
<g id="plaintext" display="none">
	<text transform="matrix(1 0 0 1 262.8433 340.8613)" display="inline" font-family="'MyriadPro-Regular'" font-size="17.7326">Output</text>
	<text transform="matrix(1 0 0 1 162.7798 362.1406)" display="inline" font-family="'MyriadPro-Regular'" font-size="17.7326">from microcontroller</text>
	<text transform="matrix(1 0 0 1 29.8711 236.959)" display="inline" font-family="'MyriadPro-Regular'" font-size="17.7326">Digital Output</text>
	<text transform="matrix(1 0 0 1 404.5684 400.3926)" display="inline" font-family="'MyriadPro-Regular'" font-size="17.7326">220Ω</text>
	<text transform="matrix(1 0 0 1 413.8398 467.625)" display="inline" font-family="'MyriadPro-Regular'" font-size="17.7326">LED</text>
</g>
<g id="Braille_1_">
	<text transform="matrix(1 0 0 1 42.626 94.5957)" font-family="'AppleBraille'" font-size="30">⠜⠙⠥⠔⠕⠀⠎⠺⠊⠞⠡</text>
</g>
<line fill="none" stroke="#000000" stroke-width="4" stroke-miterlimit="10" x1="23.22" y1="-3.5" x2="1" y2="18.719"/>
<line fill="none" stroke="#000000" stroke-width="4" stroke-miterlimit="10" x1="37.625" y1="-7" x2="-4" y2="34.625"/>
<text transform="matrix(1 0 0 1 285.5 87.5312)" fill="#BBBDC0" font-family="'ArialMT'" font-size="21">Arduino Switch</text>
<g>
	<circle fill="#D1D2D4" stroke="#FFFFFF" stroke-miterlimit="10" cx="89.503" cy="41.393" r="9.212"/>
	<circle fill="#D1D2D4" stroke="#FFFFFF" stroke-miterlimit="10" cx="702.496" cy="39.893" r="9.212"/>
	<circle fill="#D1D2D4" stroke="#FFFFFF" stroke-miterlimit="10" cx="395.646" cy="38.393" r="9.213"/>
</g>
<g>
	<g transform="translate(126.231,26.6186)">
		<g id="schematic">
			
				<rect x="23.717" y="178.429" fill="#FFFFFF" stroke="#010201" stroke-width="6" stroke-linecap="round" width="192.747" height="334.479"/>
			
				<line id="connector61pin" fill="none" stroke="#797979" stroke-width="2" stroke-linecap="round" x1="216.68" y1="212.76" x2="252.086" y2="212.76"/>
			
				<line id="connector62pin" fill="none" stroke="#797979" stroke-width="2" stroke-linecap="round" x1="216.68" y1="230.518" x2="252.086" y2="230.518"/>
			
				<line id="connector63pin" fill="none" stroke="#797979" stroke-width="2" stroke-linecap="round" x1="216.68" y1="248.165" x2="252.086" y2="248.165"/>
			
				<line id="connector64pin" fill="none" stroke="#797979" stroke-width="2" stroke-linecap="round" x1="216.68" y1="265.922" x2="252.086" y2="265.922"/>
			
				<line id="connector65pin" fill="none" stroke="#797979" stroke-width="2" stroke-linecap="round" x1="216.68" y1="283.681" x2="252.086" y2="283.681"/>
			
				<line id="connector66pin" fill="none" stroke="#797979" stroke-width="2" stroke-linecap="round" x1="216.68" y1="301.333" x2="252.086" y2="301.333"/>
			
				<line id="connector67pin" fill="none" stroke="#797979" stroke-width="2" stroke-linecap="round" x1="216.68" y1="319.086" x2="252.086" y2="319.086"/>
			
				<line id="connector68pin" fill="none" stroke="#797979" stroke-width="2" stroke-linecap="round" x1="216.68" y1="336.844" x2="252.086" y2="336.844"/>
			
				<line id="connector51pin" fill="none" stroke="#797979" stroke-width="2" stroke-linecap="round" x1="216.68" y1="354.495" x2="252.086" y2="354.495"/>
			
				<line id="connector52pin" fill="none" stroke="#797979" stroke-width="2" stroke-linecap="round" x1="216.68" y1="372.252" x2="252.086" y2="372.252"/>
			
				<line id="connector53pin" fill="none" stroke="#797979" stroke-width="2" stroke-linecap="round" x1="216.68" y1="390.008" x2="252.086" y2="390.008"/>
			
				<line id="connector54pin" fill="none" stroke="#797979" stroke-width="2" stroke-linecap="round" x1="216.68" y1="407.661" x2="252.086" y2="407.661"/>
			
				<line id="connector55pin" fill="none" stroke="#797979" stroke-width="2" stroke-linecap="round" x1="216.68" y1="425.417" x2="252.086" y2="425.417"/>
			<line id="connector41pin" fill="none" x1="216.68" y1="443.174" x2="252.086" y2="443.174"/>
			<rect id="connector41terminal" x="252.086" y="442.313" fill="none" width="1.721" height="1.722"/>
			
				<line id="connector56pin" fill="none" stroke="#797979" stroke-width="2" stroke-linecap="round" x1="216.68" y1="443.174" x2="252.086" y2="443.174"/>
			
				<line id="connector0pin" fill="none" stroke="#797979" stroke-width="2" stroke-linecap="round" x1="-12.012" y1="212.14" x2="23.502" y2="212.14"/>
			
				<line id="connector1pin" fill="none" stroke="#797979" stroke-width="2" stroke-linecap="round" x1="-12.012" y1="229.1" x2="23.502" y2="229.1"/>
			
				<line id="connector2pin" fill="none" stroke="#797979" stroke-width="2" stroke-linecap="round" x1="-12.012" y1="247.675" x2="23.502" y2="247.675"/>
			
				<line id="connector3pin" fill="none" stroke="#797979" stroke-width="2" stroke-linecap="round" x1="-12.012" y1="266.09" x2="23.502" y2="266.09"/>
			
				<line id="connector91pin" fill="none" stroke="#797979" stroke-width="2" stroke-linecap="round" x1="-12.012" y1="478.581" x2="23.502" y2="478.581"/>
			
				<line id="connector86pin" fill="none" stroke="#797979" stroke-width="2" stroke-linecap="round" x1="75.805" y1="142.698" x2="75.805" y2="178.214"/>
			<line id="connector40pin" fill="none" x1="111.212" y1="142.698" x2="111.212" y2="178.214"/>
			<rect id="connector40terminal" x="110.351" y="140.979" fill="none" width="1.723" height="1.719"/>
			<line id="connector46pin" fill="none" x1="111.212" y1="142.698" x2="111.212" y2="178.214"/>
			<rect id="connector46terminal" x="110.351" y="140.979" fill="none" width="1.723" height="1.719"/>
			
				<line id="connector87pin" fill="none" stroke="#797979" stroke-width="2" stroke-linecap="round" x1="111.212" y1="142.698" x2="111.212" y2="178.214"/>
			
				<line id="connector90pin" fill="none" stroke="#797979" stroke-width="2" stroke-linecap="round" x1="146.619" y1="142.698" x2="146.619" y2="178.214"/>
		</g>
	</g>
</g>
<g>
	<g transform="translate(283.421,55.4048)">
		<g transform="matrix(-1,0,0,-1,0,0)">
			<g id="schematic_1_">
				
					<line fill="none" stroke="#010201" stroke-width="2" stroke-linecap="round" x1="-351.197" y1="-160.927" x2="-351.197" y2="-165.34"/>
				
					<line fill="none" stroke="#010201" stroke-width="2" stroke-linecap="round" x1="-351.197" y1="-129.934" x2="-360.129" y2="-160.927"/>
				<circle fill="none" stroke="#010201" stroke-width="2" cx="-351.197" cy="-129.934" r="0.861"/>
				<circle fill="none" stroke="#010201" stroke-width="2" cx="-351.197" cy="-165.34" r="0.861"/>
				
					<line id="connector0pin_1_" fill="none" stroke="#565656" stroke-width="2" stroke-linecap="round" x1="-351.197" y1="-112.176" x2="-351.197" y2="-129.934"/>
				
					<line id="connector1pin_1_" fill="none" stroke="#565656" stroke-width="2" stroke-linecap="round" x1="-351.197" y1="-183.097" x2="-351.197" y2="-165.34"/>
			</g>
		</g>
	</g>
</g>
<g>
	<g transform="translate(0,64.2787)">
		<g id="schematic_2_">
			<text transform="matrix(1 0 0 1 169.478 160.6022)" fill="#BBBDC0" font-family="'ArialMT'" font-size="12">3V3</text>
			<text transform="matrix(1 0 0 1 282.8496 231.2623)" fill="#BBBDC0" font-family="'ArialMT'" font-size="12">D2</text>
			<text transform="matrix(1 0 0 1 289.7856 160.6022)" fill="#BBBDC0" font-family="'ArialMT'" font-size="12">VIN</text>
			<text transform="matrix(1 0 0 1 203.9902 365.1666)" fill="#BBBDC0" font-family="'ArialMT'" font-size="12">Arduino Uno</text>
			<text transform="matrix(1 0 0 1 217.6753 379.567)" fill="#BBBDC0" font-family="'ArialMT'" font-size="12">(Rev 3)</text>
			<text transform="matrix(1 0 0 1 232.7841 191.4391)" fill="#BBBDC0" font-family="'ArialMT'" font-size="12">5V</text>
		</g>
	</g>
</g>
<g>
	<g transform="translate(176.73,201.995)">
		<g id="schematic_4_">
			<path id="connector0pin_3_" fill="none" stroke="#797979" stroke-width="2" stroke-linecap="round" d="M457.897,269.615V251.85"
				/>
			<path id="path4098" fill="none" stroke="#010201" stroke-width="2" stroke-linecap="round" d="M441.43,269.939h32.931"/>
			<path id="path4100" fill="none" stroke="#010201" stroke-width="2" stroke-linecap="round" d="M446.918,276.72h21.949"/>
			<path id="path4102" fill="none" stroke="#010201" stroke-width="2" stroke-linecap="round" d="M463.385,283.392H452.41"/>
		</g>
	</g>
</g>
<text transform="matrix(1 0 0 1 225.9526 532.1982)" font-family="'AppleBraille'" font-size="30">⠛⠝⠙</text>
<text transform="matrix(1 0 0 1 282.8495 284.8496)" font-family="'AppleBraille'" font-size="30">⠙⠼⠃</text>
<text transform="matrix(1 0 0 1 571.5273 200.8359)" font-family="'AppleBraille'" font-size="30">⠎⠼⠁</text>
<text transform="matrix(1 0 0 1 651.0917 357.8203)" fill="#010201" font-family="'AppleBraille'" font-size="30">⠗⠼⠁</text>
<text transform="matrix(1 0 0 1 651.0917 393.8203)" fill="#010201" font-family="'AppleBraille'" font-size="30">⠼⠁⠚⠨⠺</text>
<text transform="matrix(1 0 0 1 207.9902 238.4971)" font-family="'AppleBraille'" font-size="30">⠼⠑⠧</text>
<text transform="matrix(1 0 0 1 282.8495 195.5)" font-family="'AppleBraille'" font-size="30">⠧⠔</text>
<text transform="matrix(1 0 0 1 92.7358 194.5)" font-family="'AppleBraille'" font-size="30">⠼⠉⠧⠼⠉</text>
<text transform="matrix(1 0 0 1 192.0361 344.3809)" font-family="'AppleBraille'" font-size="30">⠜⠙⠥⠔⠕⠀</text>
<text transform="matrix(1 0 0 1 192.0361 380.3809)" font-family="'AppleBraille'" font-size="30">⠥⠝⠕⠀</text>
<text transform="matrix(1 0 0 1 192.0361 416.3809)" font-family="'AppleBraille'" font-size="30">⠗⠑⠧⠀⠼⠉</text>
<text transform="matrix(1 0 0 1 229.3979 498.9326)" fill="#BBBDC0" font-family="'ArialMT'" font-size="13.9091">GND</text>
<g>
	<path fill="none" stroke="#A27A2C" stroke-width="2" stroke-linecap="round" d="M634.594,238.497"/>
</g>
<g>
	
		<line fill="none" stroke="#414141" stroke-width="2" stroke-linecap="round" x1="236.335" y1="126.772" x2="237.412" y2="168.437"/>
</g>
<circle fill="#010201" cx="236.335" cy="126.77" r="3.551"/>
<g>
	<path fill="none" stroke="#414141" stroke-width="2" stroke-linecap="round" d="M251.232,126.772"/>
</g>
<g>
	
		<line fill="none" stroke="#414141" stroke-width="2" stroke-linecap="round" x1="634.594" y1="167.577" x2="635.994" y2="125.587"/>
</g>
<g>
	
		<line fill="none" stroke="#414141" stroke-width="2" stroke-linecap="round" x1="635.994" y1="125.587" x2="236.335" y2="126.772"/>
</g>
<g>
	<line fill="none" stroke="#414141" stroke-width="2" stroke-linecap="round" x1="634.81" y1="274.784" x2="379.254" y2="274.784"/>
</g>
<g>
	<path fill="none" stroke="#414141" stroke-width="2" stroke-linecap="round" d="M634.917,405.066"/>
</g>
<g>
	<path fill="none" stroke="#414141" stroke-width="2" stroke-linecap="round" d="M113.432,328.037"/>
</g>
<g>
	<path fill="none" stroke="#414141" stroke-width="2" stroke-linecap="round" d="M114.219,238.757"/>
</g>
<g>
	<path fill="none" stroke="#414141" stroke-width="2" stroke-linecap="round" d="M114.219,255.718"/>
</g>
<line id="connector0pin_6_" fill="none" stroke="#797979" stroke-width="2" stroke-linecap="round" x1="114.219" y1="327.816" x2="149.733" y2="327.816"/>
<line id="connector1pin_5_" fill="none" stroke="#797979" stroke-width="2" stroke-linecap="round" x1="114.219" y1="345.777" x2="149.733" y2="345.777"/>
<line id="connector2pin_1_" fill="none" stroke="#797979" stroke-width="2" stroke-linecap="round" x1="114.219" y1="364.354" x2="149.733" y2="364.354"/>
<line id="connector3pin_1_" fill="none" stroke="#797979" stroke-width="2" stroke-linecap="round" x1="114.219" y1="380.768" x2="149.733" y2="380.768"/>
<line id="connector2pin_2_" fill="none" stroke="#797979" stroke-width="2" stroke-linecap="round" x1="114.219" y1="398.919" x2="149.733" y2="398.919"/>
<line id="connector3pin_2_" fill="none" stroke="#797979" stroke-width="2" stroke-linecap="round" x1="114.219" y1="416.334" x2="149.733" y2="416.334"/>
<g>
	<path fill="none" stroke="#414141" stroke-width="2" stroke-linecap="round" d="M114.219,327.816"/>
</g>
<g>
	<path fill="none" stroke="#414141" stroke-width="2" stroke-linecap="round" d="M114.219,345.777"/>
</g>
<g>
	<line fill="none" stroke="#414141" stroke-width="2" stroke-linecap="round" x1="634.594" y1="238.497" x2="634.81" y2="275.626"/>
</g>
<g>
	<path fill="none" stroke="#414141" stroke-width="2" stroke-linecap="round" d="M634.594,454.075"/>
	<path fill="none" stroke="#414141" stroke-width="2" stroke-linecap="round" d="M635.379,428.893"/>
</g>
<g id="partLabel_1_">
	<g transform="translate(260.005,35.4048)">
		<g id="schematicLabel_1_">
			<text transform="matrix(1 0 0 1 347.0467 189.4761)" fill="#BBBDC0" font-family="'ArialMT'" font-size="12.9143">S1</text>
		</g>
	</g>
</g>
<g id="partLabel_2_">
	<g transform="translate(260.005,35.4048)">
		<g id="schematicLabel_2_">
			<text transform="matrix(1 0 0 1 391.0867 378.4731)" fill="#BBBDC0" font-family="'ArialMT'" font-size="12.9143">R1</text>
			<text transform="matrix(1 0 0 1 391.0867 393.9702)" fill="#BBBDC0" font-family="'ArialMT'" font-size="12.9143">10Ω</text>
		</g>
	</g>
</g>
<path id="connector1pin_4_" fill="none" stroke="#7C7B7C" stroke-width="2" stroke-linecap="round" d="M634.982,425.613"/>
<line id="connector0pin_5_" fill="none" stroke="#7C7B7C" stroke-width="2" stroke-linecap="round" x1="634.982" y1="275.727" x2="634.982" y2="287.262"/>
<path id="connector1pin_2_" fill="none" stroke="#797979" stroke-width="2" stroke-linecap="round" d="M635.202,333.924"/>
<line fill="none" stroke="#414141" stroke-width="2" stroke-linecap="round" x1="635.078" y1="281.85" x2="635.202" y2="333.924"/>
<path id="connector0pin_2_" fill="none" stroke="#7B7B7B" stroke-width="2" stroke-linecap="round" d="M635.625,330.705"/>
<polyline fill="none" stroke="#030303" stroke-width="2" stroke-linecap="round" points="635.039,453.848 635.039,403.525 
	627.977,397.787 645.183,388.229 627.977,378.67 645.183,369.027 627.977,359.467 645.183,349.908 627.977,340.264 635.202,334.615 
	635.202,330.791 "/>
<circle fill="#010201" cx="635.294" cy="274.784" r="3.551"/>
<g>
	<g transform="translate(176.73,201.995)">
		<g id="schematic_3_">
			<path id="connector0pin_4_" fill="none" stroke="#797979" stroke-width="2" stroke-linecap="round" d="M69.593,388.229v-17.764"
				/>
			<path id="path4098_1_" fill="none" stroke="#010201" stroke-width="2" stroke-linecap="round" d="M53.126,388.552h32.931"/>
			<path id="path4100_1_" fill="none" stroke="#010201" stroke-width="2" stroke-linecap="round" d="M58.615,395.333h21.952"/>
			<path id="path4102_1_" fill="none" stroke="#010201" stroke-width="2" stroke-linecap="round" d="M75.081,402.005H64.106"/>
		</g>
	</g>
</g>
<g>
	<path fill="none" stroke="#414141" stroke-width="2" stroke-linecap="round" d="M246.29,572.688"/>
	<path fill="none" stroke="#414141" stroke-width="2" stroke-linecap="round" d="M247.075,568.501"/>
</g>
<path id="connector1pin_3_" fill="none" stroke="#7C7B7C" stroke-width="2" stroke-linecap="round" d="M246.679,565.223"/>
<line fill="none" stroke="#030303" stroke-width="2" stroke-linecap="round" x1="246.735" y1="572.46" x2="246.735" y2="539.526"/>
</svg>
