<?xml version="1.0" encoding="utf-8"?>
<!-- Generator: Adobe Illustrator 21.1.0, SVG Export Plug-In . SVG Version: 6.00 Build 0)  -->
<svg version="1.1" xmlns="http://www.w3.org/2000/svg" xmlns:xlink="http://www.w3.org/1999/xlink" x="0px" y="0px"
	 viewBox="0 0 792 612" style="enable-background:new 0 0 792 612;" xml:space="preserve">
<style type="text/css">
	.st0{fill:#FFFFFF;}
	.st1{fill:none;stroke:#000000;stroke-miterlimit:10;}
</style>
<g id="Layer_1">
	<g>
		<path class="st0" d="M330,459.5c-6.3,0-11.5-5.2-11.5-11.5V119c0-6.3,5.2-11.5,11.5-11.5h194c6.3,0,11.5,5.2,11.5,11.5v329
			c0,6.3-5.2,11.5-11.5,11.5H330z"/>
		<path d="M524,108c6.1,0,11,4.9,11,11v329c0,6.1-4.9,11-11,11H330c-6.1,0-11-4.9-11-11V119c0-6.1,4.9-11,11-11H524 M524,107H330
			c-6.6,0-12,5.4-12,12v329c0,6.6,5.4,12,12,12h194c6.6,0,12-5.4,12-12V119C536,112.4,530.6,107,524,107L524,107z"/>
	</g>
	<circle cx="368" cy="122.8" r="2.6"/>
	<circle cx="379" cy="122.8" r="2.6"/>
	<circle cx="390" cy="122.8" r="2.6"/>
	<circle cx="401" cy="122.8" r="2.6"/>
	<circle cx="412" cy="122.8" r="2.6"/>
	<g>
		<circle cx="350" cy="122.8" r="2.6"/>
		<circle cx="350" cy="133.8" r="2.6"/>
		<circle cx="350" cy="144.8" r="2.6"/>
		<circle cx="350" cy="155.8" r="2.6"/>
		<circle cx="350" cy="166.8" r="2.6"/>
	</g>
	<g>
		<circle cx="350" cy="192.1" r="2.6"/>
		<circle cx="350" cy="203.1" r="2.6"/>
		<circle cx="350" cy="214.1" r="2.6"/>
		<circle cx="350" cy="225.1" r="2.6"/>
		<circle cx="350" cy="236.1" r="2.6"/>
	</g>
	<g>
		<circle cx="350" cy="261.3" r="2.6"/>
		<circle cx="350" cy="272.3" r="2.6"/>
		<circle cx="350" cy="283.3" r="2.6"/>
		<circle cx="350" cy="294.3" r="2.6"/>
		<circle cx="350" cy="305.3" r="2.6"/>
	</g>
	<g>
		<circle cx="350" cy="330.5" r="2.6"/>
		<circle cx="350" cy="341.5" r="2.6"/>
		<circle cx="350" cy="352.5" r="2.6"/>
		<circle cx="350" cy="363.5" r="2.6"/>
		<circle cx="350" cy="374.5" r="2.6"/>
	</g>
	<g>
		<circle cx="350" cy="399.8" r="2.6"/>
		<circle cx="350" cy="410.8" r="2.6"/>
		<circle cx="350" cy="421.8" r="2.6"/>
		<circle cx="350" cy="432.8" r="2.6"/>
		<circle cx="350" cy="443.8" r="2.6"/>
	</g>
	<g>
		<circle cx="339" cy="122.8" r="2.6"/>
		<circle cx="339" cy="133.8" r="2.6"/>
		<circle cx="339" cy="144.8" r="2.6"/>
		<circle cx="339" cy="155.8" r="2.6"/>
		<circle cx="339" cy="166.8" r="2.6"/>
	</g>
	<g>
		<circle cx="339" cy="192.1" r="2.6"/>
		<circle cx="339" cy="203.1" r="2.6"/>
		<circle cx="339" cy="214.1" r="2.6"/>
		<circle cx="339" cy="225.1" r="2.6"/>
		<circle cx="339" cy="236.1" r="2.6"/>
	</g>
	<g>
		<circle cx="339" cy="261.3" r="2.6"/>
		<circle cx="339" cy="272.3" r="2.6"/>
		<circle cx="339" cy="283.3" r="2.6"/>
		<circle cx="339" cy="294.3" r="2.6"/>
		<circle cx="339" cy="305.3" r="2.6"/>
	</g>
	<g>
		<circle cx="339" cy="330.5" r="2.6"/>
		<circle cx="339" cy="341.5" r="2.6"/>
		<circle cx="339" cy="352.5" r="2.6"/>
		<circle cx="339" cy="363.5" r="2.6"/>
		<circle cx="339" cy="374.5" r="2.6"/>
	</g>
	<g>
		<circle cx="339" cy="399.8" r="2.6"/>
		<circle cx="339" cy="410.8" r="2.6"/>
		<circle cx="339" cy="421.8" r="2.6"/>
		<circle cx="339" cy="432.8" r="2.6"/>
		<circle cx="339" cy="443.8" r="2.6"/>
	</g>
	<g>
		<circle cx="513" cy="122.8" r="2.6"/>
		<circle cx="513" cy="133.8" r="2.6"/>
		<circle cx="513" cy="144.8" r="2.6"/>
		<circle cx="513" cy="155.8" r="2.6"/>
		<circle cx="513" cy="166.8" r="2.6"/>
	</g>
	<g>
		<circle cx="513" cy="192.1" r="2.6"/>
		<circle cx="513" cy="203.1" r="2.6"/>
		<circle cx="513" cy="214.1" r="2.6"/>
		<circle cx="513" cy="225.1" r="2.6"/>
		<circle cx="513" cy="236.1" r="2.6"/>
	</g>
	<g>
		<circle cx="513" cy="261.3" r="2.6"/>
		<circle cx="513" cy="272.3" r="2.6"/>
		<circle cx="513" cy="283.3" r="2.6"/>
		<circle cx="513" cy="294.3" r="2.6"/>
		<circle cx="513" cy="305.3" r="2.6"/>
	</g>
	<g>
		<circle cx="513" cy="330.5" r="2.6"/>
		<circle cx="513" cy="341.5" r="2.6"/>
		<circle cx="513" cy="352.5" r="2.6"/>
		<circle cx="513" cy="363.5" r="2.6"/>
		<circle cx="513" cy="374.5" r="2.6"/>
	</g>
	<g>
		<circle cx="513" cy="399.8" r="2.6"/>
		<circle cx="513" cy="410.8" r="2.6"/>
		<circle cx="513" cy="421.8" r="2.6"/>
		<circle cx="513" cy="432.8" r="2.6"/>
		<circle cx="513" cy="443.8" r="2.6"/>
	</g>
	<g>
		<circle cx="502" cy="122.8" r="2.6"/>
		<circle cx="502" cy="133.8" r="2.6"/>
		<circle cx="502" cy="144.8" r="2.6"/>
		<circle cx="502" cy="155.8" r="2.6"/>
		<circle cx="502" cy="166.8" r="2.6"/>
	</g>
	<g>
		<circle cx="502" cy="192.1" r="2.6"/>
		<circle cx="502" cy="203.1" r="2.6"/>
		<circle cx="502" cy="214.1" r="2.6"/>
		<circle cx="502" cy="225.1" r="2.6"/>
		<circle cx="502" cy="236.1" r="2.6"/>
	</g>
	<g>
		<circle cx="502" cy="261.3" r="2.6"/>
		<circle cx="502" cy="272.3" r="2.6"/>
		<circle cx="502" cy="283.3" r="2.6"/>
		<circle cx="502" cy="294.3" r="2.6"/>
		<circle cx="502" cy="305.3" r="2.6"/>
	</g>
	<g>
		<circle cx="502" cy="330.5" r="2.6"/>
		<circle cx="502" cy="341.5" r="2.6"/>
		<circle cx="502" cy="352.5" r="2.6"/>
		<circle cx="502" cy="363.5" r="2.6"/>
		<circle cx="502" cy="374.5" r="2.6"/>
	</g>
	<g>
		<circle cx="502" cy="399.8" r="2.6"/>
		<circle cx="502" cy="410.8" r="2.6"/>
		<circle cx="502" cy="421.8" r="2.6"/>
		<circle cx="502" cy="432.8" r="2.6"/>
		<circle cx="502" cy="443.8" r="2.6"/>
	</g>
	<circle cx="368" cy="133.8" r="2.6"/>
	<circle cx="379" cy="133.8" r="2.6"/>
	<circle cx="390" cy="133.8" r="2.6"/>
	<circle cx="401" cy="133.8" r="2.6"/>
	<circle cx="412" cy="133.8" r="2.6"/>
	<circle cx="368" cy="144.8" r="2.6"/>
	<circle cx="379" cy="144.8" r="2.6"/>
	<circle cx="390" cy="144.8" r="2.6"/>
	<circle cx="401" cy="144.8" r="2.6"/>
	<circle cx="412" cy="144.8" r="2.6"/>
	<circle cx="368" cy="155.8" r="2.6"/>
	<circle cx="379" cy="155.8" r="2.6"/>
	<circle cx="390" cy="155.8" r="2.6"/>
	<circle cx="401" cy="155.8" r="2.6"/>
	<circle cx="412" cy="155.8" r="2.6"/>
	<circle cx="368" cy="166.8" r="2.6"/>
	<circle cx="379" cy="166.8" r="2.6"/>
	<circle cx="390" cy="166.8" r="2.6"/>
	<circle cx="401" cy="166.8" r="2.6"/>
	<circle cx="412" cy="166.8" r="2.6"/>
	<circle cx="368" cy="177.8" r="2.6"/>
	<circle cx="379" cy="177.8" r="2.6"/>
	<circle cx="390" cy="177.8" r="2.6"/>
	<circle cx="401" cy="177.8" r="2.6"/>
	<circle cx="412" cy="177.8" r="2.6"/>
	<circle cx="368" cy="188.8" r="2.6"/>
	<circle cx="379" cy="188.8" r="2.6"/>
	<circle cx="390" cy="188.8" r="2.6"/>
	<circle cx="401" cy="188.8" r="2.6"/>
	<circle cx="412" cy="188.8" r="2.6"/>
	<circle cx="368" cy="199.8" r="2.6"/>
	<circle cx="379" cy="199.8" r="2.6"/>
	<circle cx="390" cy="199.8" r="2.6"/>
	<circle cx="401" cy="199.8" r="2.6"/>
	<circle cx="412" cy="199.8" r="2.6"/>
	<circle cx="368" cy="210.8" r="2.6"/>
	<circle cx="379" cy="210.8" r="2.6"/>
	<circle cx="390" cy="210.8" r="2.6"/>
	<circle cx="401" cy="210.8" r="2.6"/>
	<circle cx="412" cy="210.8" r="2.6"/>
	<circle cx="368" cy="221.8" r="2.6"/>
	<circle cx="379" cy="221.8" r="2.6"/>
	<circle cx="390" cy="221.8" r="2.6"/>
	<circle cx="401" cy="221.8" r="2.6"/>
	<circle cx="412" cy="221.8" r="2.6"/>
	<circle cx="368" cy="232.8" r="2.6"/>
	<circle cx="379" cy="232.8" r="2.6"/>
	<circle cx="390" cy="232.8" r="2.6"/>
	<circle cx="401" cy="232.8" r="2.6"/>
	<circle cx="412" cy="232.8" r="2.6"/>
	<circle cx="368" cy="243.8" r="2.6"/>
	<circle cx="379" cy="243.8" r="2.6"/>
	<circle cx="390" cy="243.8" r="2.6"/>
	<circle cx="401" cy="243.8" r="2.6"/>
	<circle cx="412" cy="243.8" r="2.6"/>
	<circle cx="368" cy="254.8" r="2.6"/>
	<circle cx="379" cy="254.8" r="2.6"/>
	<circle cx="390" cy="254.8" r="2.6"/>
	<circle cx="401" cy="254.8" r="2.6"/>
	<circle cx="412" cy="254.8" r="2.6"/>
	<circle cx="368" cy="265.8" r="2.6"/>
	<circle cx="379" cy="265.8" r="2.6"/>
	<circle cx="390" cy="265.8" r="2.6"/>
	<circle cx="401" cy="265.8" r="2.6"/>
	<circle cx="412" cy="265.8" r="2.6"/>
	<circle cx="368" cy="276.8" r="2.6"/>
	<circle cx="379" cy="276.8" r="2.6"/>
	<circle cx="390" cy="276.8" r="2.6"/>
	<circle cx="401" cy="276.8" r="2.6"/>
	<circle cx="412" cy="276.8" r="2.6"/>
	<circle cx="368" cy="287.8" r="2.6"/>
	<circle cx="379" cy="287.8" r="2.6"/>
	<circle cx="390" cy="287.8" r="2.6"/>
	<circle cx="401" cy="287.8" r="2.6"/>
	<circle cx="412" cy="287.8" r="2.6"/>
	<circle cx="368" cy="298.8" r="2.6"/>
	<circle cx="379" cy="298.8" r="2.6"/>
	<circle cx="390" cy="298.8" r="2.6"/>
	<circle cx="401" cy="298.8" r="2.6"/>
	<circle cx="412" cy="298.8" r="2.6"/>
	<circle cx="368" cy="309.8" r="2.6"/>
	<circle cx="379" cy="309.8" r="2.6"/>
	<circle cx="390" cy="309.8" r="2.6"/>
	<circle cx="401" cy="309.8" r="2.6"/>
	<circle cx="412" cy="309.8" r="2.6"/>
	<circle cx="368" cy="320.8" r="2.6"/>
	<circle cx="379" cy="320.8" r="2.6"/>
	<circle cx="390" cy="320.8" r="2.6"/>
	<circle cx="401" cy="320.8" r="2.6"/>
	<circle cx="412" cy="320.8" r="2.6"/>
	<circle cx="368" cy="331.8" r="2.6"/>
	<circle cx="379" cy="331.8" r="2.6"/>
	<circle cx="390" cy="331.8" r="2.6"/>
	<circle cx="401" cy="331.8" r="2.6"/>
	<circle cx="412" cy="331.8" r="2.6"/>
	<circle cx="368" cy="342.8" r="2.6"/>
	<circle cx="379" cy="342.8" r="2.6"/>
	<circle cx="390" cy="342.8" r="2.6"/>
	<circle cx="401" cy="342.8" r="2.6"/>
	<circle cx="412" cy="342.8" r="2.6"/>
	<circle cx="368" cy="353.8" r="2.6"/>
	<circle cx="379" cy="353.8" r="2.6"/>
	<circle cx="390" cy="353.8" r="2.6"/>
	<circle cx="401" cy="353.8" r="2.6"/>
	<circle cx="412" cy="353.8" r="2.6"/>
	<circle cx="368" cy="364.8" r="2.6"/>
	<circle cx="379" cy="364.8" r="2.6"/>
	<circle cx="390" cy="364.8" r="2.6"/>
	<circle cx="401" cy="364.8" r="2.6"/>
	<circle cx="412" cy="364.8" r="2.6"/>
	<circle cx="368" cy="375.8" r="2.6"/>
	<circle cx="379" cy="375.8" r="2.6"/>
	<circle cx="390" cy="375.8" r="2.6"/>
	<circle cx="401" cy="375.8" r="2.6"/>
	<circle cx="412" cy="375.8" r="2.6"/>
	<circle cx="368" cy="386.8" r="2.6"/>
	<circle cx="379" cy="386.8" r="2.6"/>
	<circle cx="390" cy="386.8" r="2.6"/>
	<circle cx="401" cy="386.8" r="2.6"/>
	<circle cx="412" cy="386.8" r="2.6"/>
	<circle cx="368" cy="397.8" r="2.6"/>
	<circle cx="379" cy="397.8" r="2.6"/>
	<circle cx="390" cy="397.8" r="2.6"/>
	<circle cx="401" cy="397.8" r="2.6"/>
	<circle cx="412" cy="397.8" r="2.6"/>
	<circle cx="368" cy="408.8" r="2.6"/>
	<circle cx="379" cy="408.8" r="2.6"/>
	<circle cx="390" cy="408.8" r="2.6"/>
	<circle cx="401" cy="408.8" r="2.6"/>
	<circle cx="412" cy="408.8" r="2.6"/>
	<circle cx="368" cy="419.8" r="2.6"/>
	<circle cx="379" cy="419.8" r="2.6"/>
	<circle cx="390" cy="419.8" r="2.6"/>
	<circle cx="401" cy="419.8" r="2.6"/>
	<circle cx="412" cy="419.8" r="2.6"/>
	<circle cx="368" cy="430.8" r="2.6"/>
	<circle cx="379" cy="430.8" r="2.6"/>
	<circle cx="390" cy="430.8" r="2.6"/>
	<circle cx="401" cy="430.8" r="2.6"/>
	<circle cx="412" cy="430.8" r="2.6"/>
	<circle cx="368" cy="441.8" r="2.6"/>
	<circle cx="379" cy="441.8" r="2.6"/>
	<circle cx="390" cy="441.8" r="2.6"/>
	<circle cx="401" cy="441.8" r="2.6"/>
	<circle cx="412" cy="441.8" r="2.6"/>
	<circle cx="439" cy="122.8" r="2.6"/>
	<circle cx="450" cy="122.8" r="2.6"/>
	<circle cx="461" cy="122.8" r="2.6"/>
	<circle cx="472" cy="122.8" r="2.6"/>
	<circle cx="483" cy="122.8" r="2.6"/>
	<circle cx="439" cy="133.8" r="2.6"/>
	<circle cx="450" cy="133.8" r="2.6"/>
	<circle cx="461" cy="133.8" r="2.6"/>
	<circle cx="472" cy="133.8" r="2.6"/>
	<circle cx="483" cy="133.8" r="2.6"/>
	<circle cx="439" cy="144.8" r="2.6"/>
	<circle cx="450" cy="144.8" r="2.6"/>
	<circle cx="461" cy="144.8" r="2.6"/>
	<circle cx="472" cy="144.8" r="2.6"/>
	<circle cx="483" cy="144.8" r="2.6"/>
	<circle cx="439" cy="155.8" r="2.6"/>
	<circle cx="450" cy="155.8" r="2.6"/>
	<circle cx="461" cy="155.8" r="2.6"/>
	<circle cx="472" cy="155.8" r="2.6"/>
	<circle cx="483" cy="155.8" r="2.6"/>
	<circle cx="439" cy="166.8" r="2.6"/>
	<circle cx="450" cy="166.8" r="2.6"/>
	<circle cx="461" cy="166.8" r="2.6"/>
	<circle cx="472" cy="166.8" r="2.6"/>
	<circle cx="483" cy="166.8" r="2.6"/>
	<circle cx="439" cy="177.8" r="2.6"/>
	<circle cx="450" cy="177.8" r="2.6"/>
	<circle cx="461" cy="177.8" r="2.6"/>
	<circle cx="472" cy="177.8" r="2.6"/>
	<circle cx="483" cy="177.8" r="2.6"/>
	<circle cx="439" cy="188.8" r="2.6"/>
	<circle cx="450" cy="188.8" r="2.6"/>
	<circle cx="461" cy="188.8" r="2.6"/>
	<circle cx="472" cy="188.8" r="2.6"/>
	<circle cx="483" cy="188.8" r="2.6"/>
	<circle cx="439" cy="199.8" r="2.6"/>
	<circle cx="450" cy="199.8" r="2.6"/>
	<circle cx="461" cy="199.8" r="2.6"/>
	<circle cx="472" cy="199.8" r="2.6"/>
	<circle cx="483" cy="199.8" r="2.6"/>
	<circle cx="439" cy="210.8" r="2.6"/>
	<circle cx="450" cy="210.8" r="2.6"/>
	<circle cx="461" cy="210.8" r="2.6"/>
	<circle cx="472" cy="210.8" r="2.6"/>
	<circle cx="483" cy="210.8" r="2.6"/>
	<circle cx="439" cy="221.8" r="2.6"/>
	<circle cx="450" cy="221.8" r="2.6"/>
	<circle cx="461" cy="221.8" r="2.6"/>
	<circle cx="472" cy="221.8" r="2.6"/>
	<circle cx="483" cy="221.8" r="2.6"/>
	<circle cx="439" cy="232.8" r="2.6"/>
	<circle cx="450" cy="232.8" r="2.6"/>
	<circle cx="461" cy="232.8" r="2.6"/>
	<circle cx="472" cy="232.8" r="2.6"/>
	<circle cx="483" cy="232.8" r="2.6"/>
	<circle cx="439" cy="243.8" r="2.6"/>
	<circle cx="450" cy="243.8" r="2.6"/>
	<circle cx="461" cy="243.8" r="2.6"/>
	<circle cx="472" cy="243.8" r="2.6"/>
	<circle cx="483" cy="243.8" r="2.6"/>
	<circle cx="439" cy="254.8" r="2.6"/>
	<circle cx="450" cy="254.8" r="2.6"/>
	<circle cx="461" cy="254.8" r="2.6"/>
	<circle cx="472" cy="254.8" r="2.6"/>
	<circle cx="483" cy="254.8" r="2.6"/>
	<circle cx="439" cy="265.8" r="2.6"/>
	<circle cx="450" cy="265.8" r="2.6"/>
	<circle cx="461" cy="265.8" r="2.6"/>
	<circle cx="472" cy="265.8" r="2.6"/>
	<circle cx="483" cy="265.8" r="2.6"/>
	<circle cx="439" cy="276.8" r="2.6"/>
	<circle cx="450" cy="276.8" r="2.6"/>
	<circle cx="461" cy="276.8" r="2.6"/>
	<circle cx="472" cy="276.8" r="2.6"/>
	<circle cx="483" cy="276.8" r="2.6"/>
	<circle cx="439" cy="287.8" r="2.6"/>
	<circle cx="450" cy="287.8" r="2.6"/>
	<circle cx="461" cy="287.8" r="2.6"/>
	<circle cx="472" cy="287.8" r="2.6"/>
	<circle cx="483" cy="287.8" r="2.6"/>
	<circle cx="439" cy="298.8" r="2.6"/>
	<circle cx="450" cy="298.8" r="2.6"/>
	<circle cx="461" cy="298.8" r="2.6"/>
	<circle cx="472" cy="298.8" r="2.6"/>
	<circle cx="483" cy="298.8" r="2.6"/>
	<circle cx="439" cy="309.8" r="2.6"/>
	<circle cx="450" cy="309.8" r="2.6"/>
	<circle cx="461" cy="309.8" r="2.6"/>
	<circle cx="472" cy="309.8" r="2.6"/>
	<circle cx="483" cy="309.8" r="2.6"/>
	<circle cx="439" cy="320.8" r="2.6"/>
	<circle cx="450" cy="320.8" r="2.6"/>
	<circle cx="461" cy="320.8" r="2.6"/>
	<circle cx="472" cy="320.8" r="2.6"/>
	<circle cx="483" cy="320.8" r="2.6"/>
	<circle cx="439" cy="331.8" r="2.6"/>
	<circle cx="450" cy="331.8" r="2.6"/>
	<circle cx="461" cy="331.8" r="2.6"/>
	<circle cx="472" cy="331.8" r="2.6"/>
	<circle cx="483" cy="331.8" r="2.6"/>
	<circle cx="439" cy="342.8" r="2.6"/>
	<circle cx="450" cy="342.8" r="2.6"/>
	<circle cx="461" cy="342.8" r="2.6"/>
	<circle cx="472" cy="342.8" r="2.6"/>
	<circle cx="483" cy="342.8" r="2.6"/>
	<circle cx="439" cy="353.8" r="2.6"/>
	<circle cx="450" cy="353.8" r="2.6"/>
	<circle cx="461" cy="353.8" r="2.6"/>
	<circle cx="472" cy="353.8" r="2.6"/>
	<circle cx="483" cy="353.8" r="2.6"/>
	<circle cx="439" cy="364.8" r="2.6"/>
	<circle cx="450" cy="364.8" r="2.6"/>
	<circle cx="461" cy="364.8" r="2.6"/>
	<circle cx="472" cy="364.8" r="2.6"/>
	<circle cx="483" cy="364.8" r="2.6"/>
	<circle cx="439" cy="375.8" r="2.6"/>
	<circle cx="450" cy="375.8" r="2.6"/>
	<circle cx="461" cy="375.8" r="2.6"/>
	<circle cx="472" cy="375.8" r="2.6"/>
	<circle cx="483" cy="375.8" r="2.6"/>
	<circle cx="439" cy="386.8" r="2.6"/>
	<circle cx="450" cy="386.8" r="2.6"/>
	<circle cx="461" cy="386.8" r="2.6"/>
	<circle cx="472" cy="386.8" r="2.6"/>
	<circle cx="483" cy="386.8" r="2.6"/>
	<circle cx="439" cy="397.8" r="2.6"/>
	<circle cx="450" cy="397.8" r="2.6"/>
	<circle cx="461" cy="397.8" r="2.6"/>
	<circle cx="472" cy="397.8" r="2.6"/>
	<circle cx="483" cy="397.8" r="2.6"/>
	<circle cx="439" cy="408.8" r="2.6"/>
	<circle cx="450" cy="408.8" r="2.6"/>
	<circle cx="461" cy="408.8" r="2.6"/>
	<circle cx="472" cy="408.8" r="2.6"/>
	<circle cx="483" cy="408.8" r="2.6"/>
	<circle cx="439" cy="419.8" r="2.6"/>
	<circle cx="450" cy="419.8" r="2.6"/>
	<circle cx="461" cy="419.8" r="2.6"/>
	<circle cx="472" cy="419.8" r="2.6"/>
	<circle cx="483" cy="419.8" r="2.6"/>
	<circle cx="439" cy="430.8" r="2.6"/>
	<circle cx="450" cy="430.8" r="2.6"/>
	<circle cx="461" cy="430.8" r="2.6"/>
	<circle cx="472" cy="430.8" r="2.6"/>
	<circle cx="483" cy="430.8" r="2.6"/>
	<circle cx="439" cy="441.8" r="2.6"/>
	<circle cx="450" cy="441.8" r="2.6"/>
	<circle cx="461" cy="441.8" r="2.6"/>
	<circle cx="472" cy="441.8" r="2.6"/>
	<circle cx="483" cy="441.8" r="2.6"/>
</g>
<g id="Layer_2">
	<line class="st1" x1="367.5" y1="122.5" x2="411.5" y2="122.5"/>
	<line class="st1" x1="367.5" y1="133.5" x2="411.5" y2="133.5"/>
	<line class="st1" x1="367.5" y1="144.5" x2="411.5" y2="144.5"/>
	<line class="st1" x1="367.5" y1="155.5" x2="411.5" y2="155.5"/>
	<line class="st1" x1="367.5" y1="166.5" x2="411.5" y2="166.5"/>
	<line class="st1" x1="367.5" y1="177.5" x2="411.5" y2="177.5"/>
	<line class="st1" x1="367.5" y1="188.5" x2="411.5" y2="188.5"/>
	<line class="st1" x1="367.5" y1="199.5" x2="411.5" y2="199.5"/>
	<line class="st1" x1="367.5" y1="210.5" x2="411.5" y2="210.5"/>
	<line class="st1" x1="367.5" y1="221.5" x2="411.5" y2="221.5"/>
	<line class="st1" x1="367.5" y1="232.5" x2="411.5" y2="232.5"/>
	<line class="st1" x1="367.5" y1="243.5" x2="411.5" y2="243.5"/>
	<line class="st1" x1="367.5" y1="254.5" x2="411.5" y2="254.5"/>
	<line class="st1" x1="367.5" y1="265.5" x2="411.5" y2="265.5"/>
	<line class="st1" x1="367.5" y1="276.5" x2="411.5" y2="276.5"/>
	<line class="st1" x1="367.5" y1="287.5" x2="411.5" y2="287.5"/>
	<line class="st1" x1="367.5" y1="298.5" x2="411.5" y2="298.5"/>
	<line class="st1" x1="367.5" y1="309.5" x2="411.5" y2="309.5"/>
	<line class="st1" x1="367.5" y1="320.5" x2="411.5" y2="320.5"/>
	<line class="st1" x1="367.5" y1="331.5" x2="411.5" y2="331.5"/>
	<line class="st1" x1="367.5" y1="342.5" x2="411.5" y2="342.5"/>
	<line class="st1" x1="367.5" y1="353.5" x2="411.5" y2="353.5"/>
	<line class="st1" x1="367.5" y1="364.5" x2="411.5" y2="364.5"/>
	<line class="st1" x1="367.5" y1="375.5" x2="411.5" y2="375.5"/>
	<line class="st1" x1="367.5" y1="386.5" x2="411.5" y2="386.5"/>
	<line class="st1" x1="367.5" y1="397.5" x2="411.5" y2="397.5"/>
	<line class="st1" x1="367.5" y1="408.5" x2="411.5" y2="408.5"/>
	<line class="st1" x1="367.5" y1="419.5" x2="411.5" y2="419.5"/>
	<line class="st1" x1="367.5" y1="430.5" x2="411.5" y2="430.5"/>
	<line class="st1" x1="367.5" y1="441.5" x2="411.5" y2="441.5"/>
	<line class="st1" x1="439.5" y1="122.5" x2="483.5" y2="122.5"/>
	<line class="st1" x1="439.5" y1="133.5" x2="483.5" y2="133.5"/>
	<line class="st1" x1="439.5" y1="144.5" x2="483.5" y2="144.5"/>
	<line class="st1" x1="439.5" y1="155.5" x2="483.5" y2="155.5"/>
	<line class="st1" x1="439.5" y1="166.5" x2="483.5" y2="166.5"/>
	<line class="st1" x1="439.5" y1="177.5" x2="483.5" y2="177.5"/>
	<line class="st1" x1="439.5" y1="188.5" x2="483.5" y2="188.5"/>
	<line class="st1" x1="439.5" y1="199.5" x2="483.5" y2="199.5"/>
	<line class="st1" x1="439.5" y1="210.5" x2="483.5" y2="210.5"/>
	<line class="st1" x1="439.5" y1="221.5" x2="483.5" y2="221.5"/>
	<line class="st1" x1="439.5" y1="232.5" x2="483.5" y2="232.5"/>
	<line class="st1" x1="439.5" y1="243.5" x2="483.5" y2="243.5"/>
	<line class="st1" x1="439.5" y1="254.5" x2="483.5" y2="254.5"/>
	<line class="st1" x1="439.5" y1="265.5" x2="483.5" y2="265.5"/>
	<line class="st1" x1="439.5" y1="276.5" x2="483.5" y2="276.5"/>
	<line class="st1" x1="439.5" y1="287.5" x2="483.5" y2="287.5"/>
	<line class="st1" x1="439.5" y1="298.5" x2="483.5" y2="298.5"/>
	<line class="st1" x1="439.5" y1="309.5" x2="483.5" y2="309.5"/>
	<line class="st1" x1="439.5" y1="320.5" x2="483.5" y2="320.5"/>
	<line class="st1" x1="439.5" y1="331.5" x2="483.5" y2="331.5"/>
	<line class="st1" x1="439.5" y1="342.5" x2="483.5" y2="342.5"/>
	<line class="st1" x1="439.5" y1="353.5" x2="483.5" y2="353.5"/>
	<line class="st1" x1="439.5" y1="364.5" x2="483.5" y2="364.5"/>
	<line class="st1" x1="439.5" y1="375.5" x2="483.5" y2="375.5"/>
	<line class="st1" x1="439.5" y1="386.5" x2="483.5" y2="386.5"/>
	<line class="st1" x1="439.5" y1="397.5" x2="483.5" y2="397.5"/>
	<line class="st1" x1="439.5" y1="408.5" x2="483.5" y2="408.5"/>
	<line class="st1" x1="439.5" y1="419.5" x2="483.5" y2="419.5"/>
	<line class="st1" x1="439.5" y1="430.5" x2="483.5" y2="430.5"/>
	<line class="st1" x1="439.5" y1="441.5" x2="483.5" y2="441.5"/>
	<line class="st1" x1="438.5" y1="122.5" x2="482.5" y2="122.5"/>
	<line class="st1" x1="351.5" y1="618.5" x2="347.5" y2="257.5"/>
</g>
</svg>
