<?xml version="1.0" encoding="utf-8"?>
<!-- Generator: Adobe Illustrator 16.0.0, SVG Export Plug-In . SVG Version: 6.00 Build 0)  -->
<!DOCTYPE svg PUBLIC "-//W3C//DTD SVG 1.1//EN" "http://www.w3.org/Graphics/SVG/1.1/DTD/svg11.dtd">
<svg version="1.1" id="Layer_1" xmlns="http://www.w3.org/2000/svg" xmlns:xlink="http://www.w3.org/1999/xlink" x="0px" y="0px"
	 width="612px" height="792px" viewBox="0 0 612 792" enable-background="new 0 0 612 792" xml:space="preserve">
<g id="Layer_1_2_">
	<g id="Layer_1_1_">
		<g>
			<path fill="#FFFFFF" d="M360.136,429.916c-4.868,0-8.886-4.021-8.886-8.891V166.803c0-4.868,4.018-8.886,8.886-8.886h149.909
				c4.868,0,8.887,4.018,8.887,8.886v254.229c0,4.867-4.019,8.891-8.887,8.891L360.136,429.916L360.136,429.916z"/>
			<path d="M510.045,158.303c4.714,0,8.5,3.786,8.5,8.5v254.229c0,4.719-3.786,8.5-8.5,8.5H360.136c-4.714,0-8.5-3.781-8.5-8.5
				V166.803c0-4.714,3.786-8.5,8.5-8.5H510.045 M510.045,157.531H360.136c-5.101,0-9.271,4.172-9.271,9.271v254.229
				c0,5.104,4.172,9.271,9.271,9.271h149.909c5.1,0,9.271-4.172,9.271-9.271V166.803
				C519.317,161.703,515.145,157.531,510.045,157.531L510.045,157.531z"/>
		</g>
		<circle cx="389.5" cy="169.739" r="2.009"/>
		<circle cx="398" cy="169.739" r="2.009"/>
		<circle cx="406.5" cy="169.739" r="2.009"/>
		<circle cx="414.999" cy="169.739" r="2.009"/>
		<circle cx="423.499" cy="169.739" r="2.009"/>
		<g>
			<circle cx="375.591" cy="169.739" r="2.009"/>
			<circle cx="375.591" cy="178.239" r="2.009"/>
			<circle cx="375.591" cy="186.739" r="2.009"/>
			<circle cx="375.591" cy="195.239" r="2.009"/>
			<circle cx="375.591" cy="203.739" r="2.009"/>
		</g>
		<g>
			<circle cx="375.591" cy="223.29" r="2.009"/>
			<circle cx="375.591" cy="231.79" r="2.009"/>
			<circle cx="375.591" cy="240.29" r="2.009"/>
			<circle cx="375.591" cy="248.79" r="2.009"/>
			<circle cx="375.591" cy="257.29" r="2.009"/>
		</g>
		<g>
			<circle cx="375.591" cy="276.762" r="2.009"/>
			<circle cx="375.591" cy="285.262" r="2.009"/>
			<circle cx="375.591" cy="293.762" r="2.009"/>
			<circle cx="375.591" cy="302.262" r="2.009"/>
			<circle cx="375.591" cy="310.762" r="2.009"/>
		</g>
		<g>
			<circle cx="375.591" cy="330.235" r="2.009"/>
			<circle cx="375.591" cy="338.735" r="2.009"/>
			<circle cx="375.591" cy="347.235" r="2.009"/>
			<circle cx="375.591" cy="355.735" r="2.009"/>
			<circle cx="375.591" cy="364.235" r="2.009"/>
		</g>
		<g>
			<circle cx="375.591" cy="383.784" r="2.01"/>
			<circle cx="375.591" cy="392.285" r="2.01"/>
			<circle cx="375.591" cy="400.785" r="2.01"/>
			<circle cx="375.591" cy="409.285" r="2.01"/>
			<circle cx="375.591" cy="417.785" r="2.01"/>
		</g>
		<g>
			<circle cx="367.091" cy="169.739" r="2.009"/>
			<circle cx="367.091" cy="178.239" r="2.009"/>
			<circle cx="367.091" cy="186.739" r="2.009"/>
			<circle cx="367.091" cy="195.239" r="2.009"/>
			<circle cx="367.091" cy="203.739" r="2.009"/>
		</g>
		<g>
			<circle cx="367.091" cy="223.29" r="2.009"/>
			<circle cx="367.091" cy="231.79" r="2.009"/>
			<circle cx="367.091" cy="240.29" r="2.009"/>
			<circle cx="367.091" cy="248.79" r="2.009"/>
			<circle cx="367.091" cy="257.29" r="2.009"/>
		</g>
		<g>
			<circle cx="367.091" cy="276.762" r="2.009"/>
			<circle cx="367.091" cy="285.262" r="2.009"/>
			<circle cx="367.091" cy="293.762" r="2.009"/>
			<circle cx="367.091" cy="302.262" r="2.009"/>
			<circle cx="367.091" cy="310.762" r="2.009"/>
		</g>
		<g>
			<circle cx="367.091" cy="330.235" r="2.009"/>
			<circle cx="367.091" cy="338.735" r="2.009"/>
			<circle cx="367.091" cy="347.235" r="2.009"/>
			<circle cx="367.091" cy="355.735" r="2.009"/>
			<circle cx="367.091" cy="364.235" r="2.009"/>
		</g>
		<g>
			<circle cx="367.091" cy="383.784" r="2.01"/>
			<circle cx="367.091" cy="392.285" r="2.01"/>
			<circle cx="367.091" cy="400.785" r="2.01"/>
			<circle cx="367.091" cy="409.285" r="2.01"/>
			<circle cx="367.091" cy="417.785" r="2.01"/>
		</g>
		<g>
			<circle cx="501.545" cy="169.739" r="2.009"/>
			<circle cx="501.545" cy="178.239" r="2.009"/>
			<circle cx="501.545" cy="186.739" r="2.009"/>
			<circle cx="501.545" cy="195.239" r="2.009"/>
			<circle cx="501.545" cy="203.739" r="2.009"/>
		</g>
		<g>
			<circle cx="501.545" cy="223.29" r="2.009"/>
			<circle cx="501.545" cy="231.79" r="2.009"/>
			<circle cx="501.545" cy="240.29" r="2.009"/>
			<circle cx="501.545" cy="248.79" r="2.009"/>
			<circle cx="501.545" cy="257.29" r="2.009"/>
		</g>
		<g>
			<circle cx="501.545" cy="276.762" r="2.009"/>
			<circle cx="501.545" cy="285.262" r="2.009"/>
			<circle cx="501.545" cy="293.762" r="2.009"/>
			<circle cx="501.545" cy="302.262" r="2.009"/>
			<circle cx="501.545" cy="310.762" r="2.009"/>
		</g>
		<g>
			<circle cx="501.545" cy="330.235" r="2.009"/>
			<circle cx="501.545" cy="338.735" r="2.009"/>
			<circle cx="501.545" cy="347.235" r="2.009"/>
			<circle cx="501.545" cy="355.735" r="2.009"/>
			<circle cx="501.545" cy="364.235" r="2.009"/>
		</g>
		<g>
			<circle cx="501.545" cy="383.784" r="2.01"/>
			<circle cx="501.545" cy="392.285" r="2.01"/>
			<circle cx="501.545" cy="400.785" r="2.01"/>
			<circle cx="501.545" cy="409.285" r="2.01"/>
			<circle cx="501.545" cy="417.785" r="2.01"/>
		</g>
		<g>
			<circle cx="493.045" cy="169.739" r="2.009"/>
			<circle cx="493.045" cy="178.239" r="2.009"/>
			<circle cx="493.045" cy="186.739" r="2.009"/>
			<circle cx="493.045" cy="195.239" r="2.009"/>
			<circle cx="493.045" cy="203.739" r="2.009"/>
		</g>
		<g>
			<circle cx="493.045" cy="223.29" r="2.009"/>
			<circle cx="493.045" cy="231.79" r="2.009"/>
			<circle cx="493.045" cy="240.29" r="2.009"/>
			<circle cx="493.045" cy="248.79" r="2.009"/>
			<circle cx="493.045" cy="257.29" r="2.009"/>
		</g>
		<g>
			<circle cx="493.045" cy="276.762" r="2.009"/>
			<circle cx="493.045" cy="285.262" r="2.009"/>
			<circle cx="493.045" cy="293.762" r="2.009"/>
			<circle cx="493.045" cy="302.262" r="2.009"/>
			<circle cx="493.045" cy="310.762" r="2.009"/>
		</g>
		<g>
			<circle cx="493.045" cy="330.235" r="2.009"/>
			<circle cx="493.045" cy="338.735" r="2.009"/>
			<circle cx="493.045" cy="347.235" r="2.009"/>
			<circle cx="493.045" cy="355.735" r="2.009"/>
			<circle cx="493.045" cy="364.235" r="2.009"/>
		</g>
		<g>
			<circle cx="493.045" cy="383.784" r="2.01"/>
			<circle cx="493.045" cy="392.285" r="2.01"/>
			<circle cx="493.045" cy="400.785" r="2.01"/>
			<circle cx="493.045" cy="409.285" r="2.01"/>
			<circle cx="493.045" cy="417.785" r="2.01"/>
		</g>
		<circle cx="389.5" cy="178.239" r="2.009"/>
		<circle cx="398" cy="178.239" r="2.009"/>
		<circle cx="406.5" cy="178.239" r="2.009"/>
		<circle cx="414.999" cy="178.239" r="2.009"/>
		<circle cx="423.499" cy="178.239" r="2.009"/>
		<circle cx="389.5" cy="186.739" r="2.009"/>
		<circle cx="398" cy="186.739" r="2.009"/>
		<circle cx="406.5" cy="186.739" r="2.009"/>
		<circle cx="414.999" cy="186.739" r="2.009"/>
		<circle cx="423.499" cy="186.739" r="2.009"/>
		<circle cx="389.5" cy="195.239" r="2.009"/>
		<circle cx="398" cy="195.239" r="2.009"/>
		<circle cx="406.5" cy="195.239" r="2.009"/>
		<circle cx="414.999" cy="195.239" r="2.009"/>
		<circle cx="423.499" cy="195.239" r="2.009"/>
		<circle cx="389.5" cy="203.739" r="2.009"/>
		<circle cx="398" cy="203.739" r="2.009"/>
		<circle cx="406.5" cy="203.739" r="2.009"/>
		<circle cx="414.999" cy="203.739" r="2.009"/>
		<circle cx="423.499" cy="203.739" r="2.009"/>
		<circle cx="389.5" cy="212.239" r="2.009"/>
		<circle cx="398" cy="212.239" r="2.009"/>
		<circle cx="406.5" cy="212.239" r="2.009"/>
		<circle cx="414.999" cy="212.239" r="2.009"/>
		<circle cx="423.499" cy="212.239" r="2.009"/>
		<circle cx="389.5" cy="220.739" r="2.009"/>
		<circle cx="398" cy="220.739" r="2.009"/>
		<circle cx="406.5" cy="220.739" r="2.009"/>
		<circle cx="414.999" cy="220.739" r="2.009"/>
		<circle cx="423.499" cy="220.739" r="2.009"/>
		<circle cx="389.5" cy="229.239" r="2.009"/>
		<circle cx="398" cy="229.239" r="2.009"/>
		<circle cx="406.5" cy="229.239" r="2.009"/>
		<circle cx="414.999" cy="229.239" r="2.009"/>
		<circle cx="423.499" cy="229.239" r="2.009"/>
		<circle cx="389.5" cy="237.739" r="2.009"/>
		<circle cx="398" cy="237.739" r="2.009"/>
		<circle cx="406.5" cy="237.739" r="2.009"/>
		<circle cx="414.999" cy="237.739" r="2.009"/>
		<circle cx="423.499" cy="237.739" r="2.009"/>
		<circle cx="389.5" cy="246.239" r="2.009"/>
		<circle cx="398" cy="246.239" r="2.009"/>
		<circle cx="406.5" cy="246.239" r="2.009"/>
		<circle cx="414.999" cy="246.239" r="2.009"/>
		<circle cx="423.499" cy="246.239" r="2.009"/>
		<circle cx="389.5" cy="254.739" r="2.009"/>
		<circle cx="398" cy="254.739" r="2.009"/>
		<circle cx="406.5" cy="254.739" r="2.009"/>
		<circle cx="414.999" cy="254.739" r="2.009"/>
		<circle cx="423.499" cy="254.739" r="2.009"/>
		<circle cx="389.5" cy="263.239" r="2.009"/>
		<circle cx="398" cy="263.239" r="2.009"/>
		<circle cx="406.5" cy="263.239" r="2.009"/>
		<circle cx="414.999" cy="263.239" r="2.009"/>
		<circle cx="423.499" cy="263.239" r="2.009"/>
		<circle cx="389.5" cy="271.739" r="2.009"/>
		<circle cx="398" cy="271.739" r="2.009"/>
		<circle cx="406.5" cy="271.739" r="2.009"/>
		<circle cx="414.999" cy="271.739" r="2.009"/>
		<circle cx="423.499" cy="271.739" r="2.009"/>
		<circle cx="389.5" cy="280.239" r="2.009"/>
		<circle cx="398" cy="280.239" r="2.009"/>
		<circle cx="406.5" cy="280.239" r="2.009"/>
		<circle cx="414.999" cy="280.239" r="2.009"/>
		<circle cx="423.499" cy="280.239" r="2.009"/>
		<circle cx="389.5" cy="288.739" r="2.009"/>
		<circle cx="398" cy="288.739" r="2.009"/>
		<circle cx="406.5" cy="288.739" r="2.009"/>
		<circle cx="414.999" cy="288.739" r="2.009"/>
		<circle cx="423.499" cy="288.739" r="2.009"/>
		<circle cx="389.5" cy="297.239" r="2.009"/>
		<circle cx="398" cy="297.239" r="2.009"/>
		<circle cx="406.5" cy="297.239" r="2.009"/>
		<circle cx="414.999" cy="297.239" r="2.009"/>
		<circle cx="423.499" cy="297.239" r="2.009"/>
		<circle cx="389.5" cy="305.739" r="2.009"/>
		<circle cx="398" cy="305.739" r="2.009"/>
		<circle cx="406.5" cy="305.739" r="2.009"/>
		<circle cx="414.999" cy="305.739" r="2.009"/>
		<circle cx="423.499" cy="305.739" r="2.009"/>
		<circle cx="389.5" cy="314.24" r="2.009"/>
		<circle cx="398" cy="314.24" r="2.009"/>
		<circle cx="406.5" cy="314.24" r="2.009"/>
		<circle cx="414.999" cy="314.24" r="2.009"/>
		<circle cx="423.499" cy="314.24" r="2.009"/>
		<circle cx="389.5" cy="322.74" r="2.01"/>
		<circle cx="398" cy="322.74" r="2.01"/>
		<circle cx="406.5" cy="322.74" r="2.01"/>
		<circle cx="414.999" cy="322.74" r="2.01"/>
		<circle cx="423.499" cy="322.74" r="2.01"/>
		<circle cx="389.5" cy="331.24" r="2.01"/>
		<circle cx="398" cy="331.24" r="2.01"/>
		<circle cx="406.5" cy="331.24" r="2.01"/>
		<circle cx="414.999" cy="331.24" r="2.01"/>
		<circle cx="423.499" cy="331.24" r="2.01"/>
		<circle cx="389.5" cy="339.74" r="2.01"/>
		<circle cx="398" cy="339.74" r="2.01"/>
		<circle cx="406.5" cy="339.74" r="2.01"/>
		<circle cx="414.999" cy="339.74" r="2.01"/>
		<circle cx="423.499" cy="339.74" r="2.01"/>
		<circle cx="389.5" cy="348.24" r="2.01"/>
		<circle cx="398" cy="348.24" r="2.01"/>
		<circle cx="406.5" cy="348.24" r="2.01"/>
		<circle cx="414.999" cy="348.24" r="2.01"/>
		<circle cx="423.499" cy="348.24" r="2.01"/>
		<circle cx="389.5" cy="356.74" r="2.01"/>
		<circle cx="398" cy="356.74" r="2.01"/>
		<circle cx="406.5" cy="356.74" r="2.01"/>
		<circle cx="414.999" cy="356.74" r="2.01"/>
		<circle cx="423.499" cy="356.74" r="2.01"/>
		<circle cx="389.5" cy="365.24" r="2.01"/>
		<circle cx="398" cy="365.24" r="2.01"/>
		<circle cx="406.5" cy="365.24" r="2.01"/>
		<circle cx="414.999" cy="365.24" r="2.01"/>
		<circle cx="423.499" cy="365.24" r="2.01"/>
		<circle cx="389.5" cy="373.74" r="2.01"/>
		<circle cx="398" cy="373.74" r="2.01"/>
		<circle cx="406.5" cy="373.74" r="2.01"/>
		<circle cx="414.999" cy="373.74" r="2.01"/>
		<circle cx="423.499" cy="373.74" r="2.01"/>
		<circle cx="389.5" cy="382.239" r="2.01"/>
		<circle cx="398" cy="382.239" r="2.01"/>
		<circle cx="406.5" cy="382.239" r="2.01"/>
		<circle cx="414.999" cy="382.239" r="2.01"/>
		<circle cx="423.499" cy="382.239" r="2.01"/>
		<circle cx="389.5" cy="390.74" r="2.01"/>
		<circle cx="398" cy="390.74" r="2.01"/>
		<circle cx="406.5" cy="390.74" r="2.01"/>
		<circle cx="414.999" cy="390.74" r="2.01"/>
		<circle cx="423.499" cy="390.74" r="2.01"/>
		<circle cx="389.5" cy="399.24" r="2.01"/>
		<circle cx="398" cy="399.24" r="2.01"/>
		<circle cx="406.5" cy="399.24" r="2.01"/>
		<circle cx="414.999" cy="399.24" r="2.01"/>
		<circle cx="423.499" cy="399.24" r="2.01"/>
		<circle cx="389.5" cy="407.74" r="2.01"/>
		<circle cx="398" cy="407.74" r="2.01"/>
		<circle cx="406.5" cy="407.74" r="2.01"/>
		<circle cx="414.999" cy="407.74" r="2.01"/>
		<circle cx="423.499" cy="407.74" r="2.01"/>
		<circle cx="389.5" cy="416.24" r="2.01"/>
		<circle cx="398" cy="416.24" r="2.01"/>
		<circle cx="406.5" cy="416.24" r="2.01"/>
		<circle cx="414.999" cy="416.24" r="2.01"/>
		<circle cx="423.499" cy="416.24" r="2.01"/>
		<circle cx="444.363" cy="169.739" r="2.009"/>
		<circle cx="452.863" cy="169.739" r="2.009"/>
		<circle cx="461.363" cy="169.739" r="2.009"/>
		<circle cx="469.863" cy="169.739" r="2.009"/>
		<circle cx="478.363" cy="169.739" r="2.009"/>
		<circle cx="444.363" cy="178.239" r="2.009"/>
		<circle cx="452.863" cy="178.239" r="2.009"/>
		<circle cx="461.363" cy="178.239" r="2.009"/>
		<circle cx="469.863" cy="178.239" r="2.009"/>
		<circle cx="478.363" cy="178.239" r="2.009"/>
		<circle cx="444.363" cy="186.739" r="2.009"/>
		<circle cx="452.863" cy="186.739" r="2.009"/>
		<circle cx="461.363" cy="186.739" r="2.009"/>
		<circle cx="469.863" cy="186.739" r="2.009"/>
		<circle cx="478.363" cy="186.739" r="2.009"/>
		<circle cx="444.363" cy="195.239" r="2.009"/>
		<circle cx="452.863" cy="195.239" r="2.009"/>
		<circle cx="461.363" cy="195.239" r="2.009"/>
		<circle cx="469.863" cy="195.239" r="2.009"/>
		<circle cx="478.363" cy="195.239" r="2.009"/>
		<circle cx="444.363" cy="203.739" r="2.009"/>
		<circle cx="452.863" cy="203.739" r="2.009"/>
		<circle cx="461.363" cy="203.739" r="2.009"/>
		<circle cx="469.863" cy="203.739" r="2.009"/>
		<circle cx="478.363" cy="203.739" r="2.009"/>
		<circle cx="444.363" cy="212.239" r="2.009"/>
		<circle cx="452.863" cy="212.239" r="2.009"/>
		<circle cx="461.363" cy="212.239" r="2.009"/>
		<circle cx="469.863" cy="212.239" r="2.009"/>
		<circle cx="478.363" cy="212.239" r="2.009"/>
		<circle cx="444.363" cy="220.739" r="2.009"/>
		<circle cx="452.863" cy="220.739" r="2.009"/>
		<circle cx="461.363" cy="220.739" r="2.009"/>
		<circle cx="469.863" cy="220.739" r="2.009"/>
		<circle cx="478.363" cy="220.739" r="2.009"/>
		<circle cx="444.363" cy="229.239" r="2.009"/>
		<circle cx="452.863" cy="229.239" r="2.009"/>
		<circle cx="461.363" cy="229.239" r="2.009"/>
		<circle cx="469.863" cy="229.239" r="2.009"/>
		<circle cx="478.363" cy="229.239" r="2.009"/>
		<circle cx="444.363" cy="237.739" r="2.009"/>
		<circle cx="452.863" cy="237.739" r="2.009"/>
		<circle cx="461.363" cy="237.739" r="2.009"/>
		<circle cx="469.863" cy="237.739" r="2.009"/>
		<circle cx="478.363" cy="237.739" r="2.009"/>
		<circle cx="444.363" cy="246.239" r="2.009"/>
		<circle cx="452.863" cy="246.239" r="2.009"/>
		<circle cx="461.363" cy="246.239" r="2.009"/>
		<circle cx="469.863" cy="246.239" r="2.009"/>
		<circle cx="478.363" cy="246.239" r="2.009"/>
		<circle cx="444.363" cy="254.739" r="2.009"/>
		<circle cx="452.863" cy="254.739" r="2.009"/>
		<circle cx="461.363" cy="254.739" r="2.009"/>
		<circle cx="469.863" cy="254.739" r="2.009"/>
		<circle cx="478.363" cy="254.739" r="2.009"/>
		<circle cx="444.363" cy="263.239" r="2.009"/>
		<circle cx="452.863" cy="263.239" r="2.009"/>
		<circle cx="461.363" cy="263.239" r="2.009"/>
		<circle cx="469.863" cy="263.239" r="2.009"/>
		<circle cx="478.363" cy="263.239" r="2.009"/>
		<circle cx="444.363" cy="271.739" r="2.009"/>
		<circle cx="452.863" cy="271.739" r="2.009"/>
		<circle cx="461.363" cy="271.739" r="2.009"/>
		<circle cx="469.863" cy="271.739" r="2.009"/>
		<circle cx="478.363" cy="271.739" r="2.009"/>
		<circle cx="444.363" cy="280.239" r="2.009"/>
		<circle cx="452.863" cy="280.239" r="2.009"/>
		<circle cx="461.363" cy="280.239" r="2.009"/>
		<circle cx="469.863" cy="280.239" r="2.009"/>
		<circle cx="478.363" cy="280.239" r="2.009"/>
		<circle cx="444.363" cy="288.739" r="2.009"/>
		<circle cx="452.863" cy="288.739" r="2.009"/>
		<circle cx="461.363" cy="288.739" r="2.009"/>
		<circle cx="469.863" cy="288.739" r="2.009"/>
		<circle cx="478.363" cy="288.739" r="2.009"/>
		<circle cx="444.363" cy="297.239" r="2.009"/>
		<circle cx="452.863" cy="297.239" r="2.009"/>
		<circle cx="461.363" cy="297.239" r="2.009"/>
		<circle cx="469.863" cy="297.239" r="2.009"/>
		<circle cx="478.363" cy="297.239" r="2.009"/>
		<circle cx="444.363" cy="305.739" r="2.009"/>
		<circle cx="452.863" cy="305.739" r="2.009"/>
		<circle cx="461.363" cy="305.739" r="2.009"/>
		<circle cx="469.863" cy="305.739" r="2.009"/>
		<circle cx="478.363" cy="305.739" r="2.009"/>
		<circle cx="444.363" cy="314.24" r="2.009"/>
		<circle cx="452.863" cy="314.24" r="2.009"/>
		<circle cx="461.363" cy="314.24" r="2.009"/>
		<circle cx="469.863" cy="314.24" r="2.009"/>
		<circle cx="478.363" cy="314.24" r="2.009"/>
		<circle cx="444.363" cy="322.74" r="2.01"/>
		<circle cx="452.863" cy="322.74" r="2.01"/>
		<circle cx="461.363" cy="322.74" r="2.01"/>
		<circle cx="469.863" cy="322.74" r="2.01"/>
		<circle cx="478.363" cy="322.74" r="2.01"/>
		<circle cx="444.363" cy="331.24" r="2.01"/>
		<circle cx="452.863" cy="331.24" r="2.01"/>
		<circle cx="461.363" cy="331.24" r="2.01"/>
		<circle cx="469.863" cy="331.24" r="2.01"/>
		<circle cx="478.363" cy="331.24" r="2.01"/>
		<circle cx="444.363" cy="339.74" r="2.01"/>
		<circle cx="452.863" cy="339.74" r="2.01"/>
		<circle cx="461.363" cy="339.74" r="2.01"/>
		<circle cx="469.863" cy="339.74" r="2.01"/>
		<circle cx="478.363" cy="339.74" r="2.01"/>
		<circle cx="444.363" cy="348.24" r="2.01"/>
		<circle cx="452.863" cy="348.24" r="2.01"/>
		<circle cx="461.363" cy="348.24" r="2.01"/>
		<circle cx="469.863" cy="348.24" r="2.01"/>
		<circle cx="478.363" cy="348.24" r="2.01"/>
		<circle cx="444.363" cy="356.74" r="2.01"/>
		<circle cx="452.863" cy="356.74" r="2.01"/>
		<circle cx="461.363" cy="356.74" r="2.01"/>
		<circle cx="469.863" cy="356.74" r="2.01"/>
		<circle cx="478.363" cy="356.74" r="2.01"/>
		<circle cx="444.363" cy="365.24" r="2.01"/>
		<circle cx="452.863" cy="365.24" r="2.01"/>
		<circle cx="461.363" cy="365.24" r="2.01"/>
		<circle cx="469.863" cy="365.24" r="2.01"/>
		<circle cx="478.363" cy="365.24" r="2.01"/>
		<circle cx="444.363" cy="373.74" r="2.01"/>
		<circle cx="452.863" cy="373.74" r="2.01"/>
		<circle cx="461.363" cy="373.74" r="2.01"/>
		<circle cx="469.863" cy="373.74" r="2.01"/>
		<circle cx="478.363" cy="373.74" r="2.01"/>
		<circle cx="444.363" cy="382.239" r="2.01"/>
		<circle cx="452.863" cy="382.239" r="2.01"/>
		<circle cx="461.363" cy="382.239" r="2.01"/>
		<circle cx="469.863" cy="382.239" r="2.01"/>
		<circle cx="478.363" cy="382.239" r="2.01"/>
		<circle cx="444.363" cy="390.74" r="2.01"/>
		<circle cx="452.863" cy="390.74" r="2.01"/>
		<circle cx="461.363" cy="390.74" r="2.01"/>
		<circle cx="469.863" cy="390.74" r="2.01"/>
		<circle cx="478.363" cy="390.74" r="2.01"/>
		<circle cx="444.363" cy="399.24" r="2.01"/>
		<circle cx="452.863" cy="399.24" r="2.01"/>
		<circle cx="461.363" cy="399.24" r="2.01"/>
		<circle cx="469.863" cy="399.24" r="2.01"/>
		<circle cx="478.363" cy="399.24" r="2.01"/>
		<circle cx="444.363" cy="407.74" r="2.01"/>
		<circle cx="452.863" cy="407.74" r="2.01"/>
		<circle cx="461.363" cy="407.74" r="2.01"/>
		<circle cx="469.863" cy="407.74" r="2.01"/>
		<circle cx="478.363" cy="407.74" r="2.01"/>
		<circle cx="444.363" cy="416.24" r="2.01"/>
		<circle cx="452.863" cy="416.24" r="2.01"/>
		<circle cx="461.363" cy="416.24" r="2.01"/>
		<circle cx="469.863" cy="416.24" r="2.01"/>
		<circle cx="478.363" cy="416.24" r="2.01"/>
	</g>
	<g id="Layer_2">
		<line fill="none" stroke="#000000" stroke-miterlimit="10" x1="389.113" y1="169.508" x2="423.113" y2="169.508"/>
		<line fill="none" stroke="#000000" stroke-miterlimit="10" x1="389.113" y1="178.008" x2="423.113" y2="178.008"/>
		<line fill="none" stroke="#000000" stroke-miterlimit="10" x1="389.113" y1="186.508" x2="423.113" y2="186.508"/>
		<line fill="none" stroke="#000000" stroke-miterlimit="10" x1="389.113" y1="195.008" x2="423.113" y2="195.008"/>
		<line fill="none" stroke="#000000" stroke-miterlimit="10" x1="389.113" y1="203.508" x2="423.113" y2="203.508"/>
		<line fill="none" stroke="#000000" stroke-miterlimit="10" x1="389.113" y1="212.008" x2="423.113" y2="212.008"/>
		<line fill="none" stroke="#000000" stroke-miterlimit="10" x1="389.113" y1="220.508" x2="423.113" y2="220.508"/>
		<line fill="none" stroke="#000000" stroke-miterlimit="10" x1="389.113" y1="229.008" x2="423.113" y2="229.008"/>
		<line fill="none" stroke="#000000" stroke-miterlimit="10" x1="389.113" y1="237.508" x2="423.113" y2="237.508"/>
		<line fill="none" stroke="#000000" stroke-miterlimit="10" x1="389.113" y1="246.008" x2="423.113" y2="246.008"/>
		<line fill="none" stroke="#000000" stroke-miterlimit="10" x1="389.113" y1="254.508" x2="423.113" y2="254.508"/>
		<line fill="none" stroke="#000000" stroke-miterlimit="10" x1="389.113" y1="263.008" x2="423.113" y2="263.008"/>
		<line fill="none" stroke="#000000" stroke-miterlimit="10" x1="389.113" y1="271.508" x2="423.113" y2="271.508"/>
		<line fill="none" stroke="#000000" stroke-miterlimit="10" x1="389.113" y1="280.008" x2="423.113" y2="280.008"/>
		<line fill="none" stroke="#000000" stroke-miterlimit="10" x1="389.113" y1="288.508" x2="423.113" y2="288.508"/>
		<line fill="none" stroke="#000000" stroke-miterlimit="10" x1="389.113" y1="297.008" x2="423.113" y2="297.008"/>
		<line fill="none" stroke="#000000" stroke-miterlimit="10" x1="389.113" y1="305.508" x2="423.113" y2="305.508"/>
		<line fill="none" stroke="#000000" stroke-miterlimit="10" x1="389.113" y1="314.007" x2="423.113" y2="314.007"/>
		<line fill="none" stroke="#000000" stroke-miterlimit="10" x1="389.113" y1="322.507" x2="423.113" y2="322.507"/>
		<line fill="none" stroke="#000000" stroke-miterlimit="10" x1="389.113" y1="331.007" x2="423.113" y2="331.007"/>
		<line fill="none" stroke="#000000" stroke-miterlimit="10" x1="389.113" y1="339.507" x2="423.113" y2="339.507"/>
		<line fill="none" stroke="#000000" stroke-miterlimit="10" x1="389.113" y1="348.007" x2="423.113" y2="348.007"/>
		<line fill="none" stroke="#000000" stroke-miterlimit="10" x1="389.113" y1="356.507" x2="423.113" y2="356.507"/>
		<line fill="none" stroke="#000000" stroke-miterlimit="10" x1="389.113" y1="365.007" x2="423.113" y2="365.007"/>
		<line fill="none" stroke="#000000" stroke-miterlimit="10" x1="389.113" y1="373.507" x2="423.113" y2="373.507"/>
		<line fill="none" stroke="#000000" stroke-miterlimit="10" x1="389.113" y1="382.007" x2="423.113" y2="382.007"/>
		<line fill="none" stroke="#000000" stroke-miterlimit="10" x1="389.113" y1="390.507" x2="423.113" y2="390.507"/>
		<line fill="none" stroke="#000000" stroke-miterlimit="10" x1="389.113" y1="399.008" x2="423.113" y2="399.008"/>
		<line fill="none" stroke="#000000" stroke-miterlimit="10" x1="389.113" y1="407.508" x2="423.113" y2="407.508"/>
		<line fill="none" stroke="#000000" stroke-miterlimit="10" x1="389.113" y1="416.008" x2="423.113" y2="416.008"/>
		<line fill="none" stroke="#000000" stroke-miterlimit="10" x1="444.749" y1="169.508" x2="478.749" y2="169.508"/>
		<line fill="none" stroke="#000000" stroke-miterlimit="10" x1="444.749" y1="178.008" x2="478.749" y2="178.008"/>
		<line fill="none" stroke="#000000" stroke-miterlimit="10" x1="444.749" y1="186.508" x2="478.749" y2="186.508"/>
		<line fill="none" stroke="#000000" stroke-miterlimit="10" x1="444.749" y1="195.008" x2="478.749" y2="195.008"/>
		<line fill="none" stroke="#000000" stroke-miterlimit="10" x1="444.749" y1="203.508" x2="478.749" y2="203.508"/>
		<line fill="none" stroke="#000000" stroke-miterlimit="10" x1="444.749" y1="212.008" x2="478.749" y2="212.008"/>
		<line fill="none" stroke="#000000" stroke-miterlimit="10" x1="444.749" y1="220.508" x2="478.749" y2="220.508"/>
		<line fill="none" stroke="#000000" stroke-miterlimit="10" x1="444.749" y1="229.008" x2="478.749" y2="229.008"/>
		<line fill="none" stroke="#000000" stroke-miterlimit="10" x1="444.749" y1="237.508" x2="478.749" y2="237.508"/>
		<line fill="none" stroke="#000000" stroke-miterlimit="10" x1="444.749" y1="246.008" x2="478.749" y2="246.008"/>
		<line fill="none" stroke="#000000" stroke-miterlimit="10" x1="444.749" y1="254.508" x2="478.749" y2="254.508"/>
		<line fill="none" stroke="#000000" stroke-miterlimit="10" x1="444.749" y1="263.008" x2="478.749" y2="263.008"/>
		<line fill="none" stroke="#000000" stroke-miterlimit="10" x1="444.749" y1="271.508" x2="478.749" y2="271.508"/>
		<line fill="none" stroke="#000000" stroke-miterlimit="10" x1="444.749" y1="280.008" x2="478.749" y2="280.008"/>
		<line fill="none" stroke="#000000" stroke-miterlimit="10" x1="444.749" y1="288.508" x2="478.749" y2="288.508"/>
		<line fill="none" stroke="#000000" stroke-miterlimit="10" x1="444.749" y1="297.008" x2="478.749" y2="297.008"/>
		<line fill="none" stroke="#000000" stroke-miterlimit="10" x1="444.749" y1="305.508" x2="478.749" y2="305.508"/>
		<line fill="none" stroke="#000000" stroke-miterlimit="10" x1="444.749" y1="314.007" x2="478.749" y2="314.007"/>
		<line fill="none" stroke="#000000" stroke-miterlimit="10" x1="444.749" y1="322.507" x2="478.749" y2="322.507"/>
		<line fill="none" stroke="#000000" stroke-miterlimit="10" x1="444.749" y1="331.007" x2="478.749" y2="331.007"/>
		<line fill="none" stroke="#000000" stroke-miterlimit="10" x1="444.749" y1="339.507" x2="478.749" y2="339.507"/>
		<line fill="none" stroke="#000000" stroke-miterlimit="10" x1="444.749" y1="348.007" x2="478.749" y2="348.007"/>
		<line fill="none" stroke="#000000" stroke-miterlimit="10" x1="444.749" y1="356.507" x2="478.749" y2="356.507"/>
		<line fill="none" stroke="#000000" stroke-miterlimit="10" x1="444.749" y1="365.007" x2="478.749" y2="365.007"/>
		<line fill="none" stroke="#000000" stroke-miterlimit="10" x1="444.749" y1="373.507" x2="478.749" y2="373.507"/>
		<line fill="none" stroke="#000000" stroke-miterlimit="10" x1="444.749" y1="382.007" x2="478.749" y2="382.007"/>
		<line fill="none" stroke="#000000" stroke-miterlimit="10" x1="444.749" y1="390.507" x2="478.749" y2="390.507"/>
		<line fill="none" stroke="#000000" stroke-miterlimit="10" x1="444.749" y1="399.008" x2="478.749" y2="399.008"/>
		<line fill="none" stroke="#000000" stroke-miterlimit="10" x1="444.749" y1="407.508" x2="478.749" y2="407.508"/>
		<line fill="none" stroke="#000000" stroke-miterlimit="10" x1="444.749" y1="416.008" x2="478.749" y2="416.008"/>
		<line fill="none" stroke="#000000" stroke-miterlimit="10" x1="443.977" y1="169.508" x2="477.977" y2="169.508"/>
	</g>
</g>
<line fill="none" stroke="#000000" stroke-width="4" stroke-miterlimit="10" x1="22.719" y1="0" x2="0.5" y2="22.219"/>
<line fill="none" stroke="#000000" stroke-width="4" stroke-miterlimit="10" x1="37.125" y1="-3.5" x2="-4.5" y2="38.125"/>
<text transform="matrix(1 0 0 1 19.6167 377.2676)" fill="#939597" font-family="'ArialMT'" font-size="12">The breadboard rows are connected </text>
<text transform="matrix(1 0 0 1 19.6167 392.667)" fill="#939597" font-family="'ArialMT'" font-size="12">vertically on the sides and parallel in the center</text>
<text transform="matrix(1 0 0 1 18.6167 725.3574)" fill="#939597" font-family="'ArialMT'" font-size="12">The two side rows are usually used </text>
<text transform="matrix(1 0 0 1 18.6167 741.7578)" fill="#939597" font-family="'ArialMT'" font-size="12">as voltage and ground buses</text>
<text transform="matrix(1 0 0 1 227.8521 644.8203)" font-family="'MyriadPro-Regular'" font-size="12">-</text>
<text transform="matrix(1 0 0 1 234.9678 659.2197)" font-family="'MyriadPro-Regular'" font-size="12">-</text>
<line fill="none" stroke="#000000" stroke-miterlimit="10" x1="375.609" y1="168.511" x2="375.609" y2="419.889"/>
<line fill="none" stroke="#000000" stroke-miterlimit="10" x1="367.109" y1="168.511" x2="367.109" y2="419.889"/>
<line fill="none" stroke="#000000" stroke-miterlimit="10" x1="501.609" y1="168.511" x2="501.609" y2="419.889"/>
<line fill="none" stroke="#000000" stroke-miterlimit="10" x1="493.109" y1="168.511" x2="493.109" y2="419.889"/>
<text transform="matrix(1 0 0 1 52.0137 121.2578)" fill="#939597" font-family="'Helvetica'" font-size="21">Solderless Breadboard</text>
<text transform="matrix(1 0 0 1 39.4102 93.4004)" font-family="'AppleBraille'" font-size="30">⠠⠎⠕⠇⠙⠑⠗⠇⠑⠎⠎⠀⠠⠃⠗⠑⠁⠙⠃⠕⠁⠗⠙</text>
<text transform="matrix(1 0 0 1 14.3184 178.9199)" font-family="'AppleBraille'" font-size="30">⠠⠞⠓⠑⠀⠗⠕⠺⠎ ⠁⠗⠑⠀</text>
<text transform="matrix(1 0 0 1 14.3184 214.9199)" font-family="'AppleBraille'" font-size="30">⠉⠕⠝⠝⠑⠉⠞⠑⠙⠀</text>
<text transform="matrix(1 0 0 1 14.3184 250.9199)" font-family="'AppleBraille'" font-size="30">⠧⠑⠗⠞⠊⠉⠁⠇⠇⠽⠀</text>
<text transform="matrix(1 0 0 1 14.3184 286.9199)" font-family="'AppleBraille'" font-size="30">⠕⠝⠀⠞⠓⠑⠀⠎⠊⠙⠑⠎⠀</text>
<text transform="matrix(1 0 0 1 14.3184 322.9199)" font-family="'AppleBraille'" font-size="30">⠁⠝⠙⠀⠏⠁⠗⠁⠇⠇⠑⠇⠀</text>
<text transform="matrix(1 0 0 1 14.3184 358.9199)" font-family="'AppleBraille'" font-size="30">⠊⠝⠀⠞⠓⠑⠀⠉⠑⠝⠞⠑⠗</text>
<text transform="matrix(1 0 0 1 12.3184 486.6729)" font-family="'AppleBraille'" font-size="30">⠠⠮⠀⠞⠺⠕⠀⠎⠊⠙⠑⠀</text>
<text transform="matrix(1 0 0 1 12.3184 522.6729)" font-family="'AppleBraille'" font-size="30">⠗⠪⠎⠀⠜⠑⠀</text>
<text transform="matrix(1 0 0 1 12.3184 558.6729)" font-family="'AppleBraille'" font-size="30">⠥⠎⠥⠁⠇⠇⠽⠀</text>
<text transform="matrix(1 0 0 1 12.3184 594.6729)" font-family="'AppleBraille'" font-size="30">⠥⠎⠫⠀⠵⠀</text>
<text transform="matrix(1 0 0 1 12.3184 630.6729)" font-family="'AppleBraille'" font-size="30">⠧⠕⠇⠞⠁⠛⠑⠀</text>
<text transform="matrix(1 0 0 1 12.3184 666.6729)" font-family="'AppleBraille'" font-size="30">⠯⠀⠛⠗⠨⠙⠀</text>
<text transform="matrix(1 0 0 1 12.3184 702.6729)" font-family="'AppleBraille'" font-size="30">⠃⠥⠎⠑⠎</text>
<text transform="matrix(1 0 0 1 279.3057 761.2012)" fill="#939597" font-family="'ArialMT'" font-size="12">The center is used to mount components. </text>
<text transform="matrix(1 0 0 1 279.3057 778.6016)" fill="#939597" font-family="'ArialMT'" font-size="12">They are referred to as &quot;right-center&quot; or &quot;left-center&quot; sections</text>
<text transform="matrix(1 0 0 1 276.7603 487.1914)" font-family="'AppleBraille'" font-size="30">⠠⠞⠓⠑⠀⠉⠑⠝⠞⠑⠗⠀⠊⠎⠀</text>
<text transform="matrix(1 0 0 1 276.7603 523.1914)" font-family="'AppleBraille'" font-size="30">⠥⠎⠑⠙⠀⠞⠕⠀⠍⠕⠥⠝⠞⠀</text>
<text transform="matrix(1 0 0 1 276.7603 559.1914)" font-family="'AppleBraille'" font-size="30">⠉⠕⠍⠏⠕⠝⠑⠝⠞⠎⠲⠀</text>
<text transform="matrix(1 0 0 1 276.7603 595.1914)" font-family="'AppleBraille'" font-size="30">⠠⠞⠓⠑⠽⠀⠁⠗⠑⠀</text>
<text transform="matrix(1 0 0 1 276.7603 631.1914)" font-family="'AppleBraille'" font-size="30">⠗⠑⠋⠑⠗⠗⠑⠙⠀⠞⠕⠀⠁⠎⠀</text>
<text transform="matrix(1 0 0 1 276.7603 667.1914)" font-family="'AppleBraille'" font-size="30">⠦⠗⠊⠛⠓⠞⠤⠉⠑⠝⠞⠑⠗⠴⠀</text>
<text transform="matrix(1 0 0 1 276.7603 703.1914)" font-family="'AppleBraille'" font-size="30">⠕⠗⠀⠦⠇⠑⠋⠞⠤⠉⠑⠝⠞⠑⠗⠴⠀</text>
<text transform="matrix(1 0 0 1 276.7603 739.1914)" font-family="'AppleBraille'" font-size="30">⠎⠑⠉⠞⠊⠕⠝⠎⠎</text>
</svg>
