<?xml version="1.0" encoding="utf-8"?>
<!-- Generator: Adobe Illustrator 16.0.0, SVG Export Plug-In . SVG Version: 6.00 Build 0)  -->
<!DOCTYPE svg PUBLIC "-//W3C//DTD SVG 1.1//EN" "http://www.w3.org/Graphics/SVG/1.1/DTD/svg11.dtd">
<svg version="1.1" id="Layer_1" xmlns="http://www.w3.org/2000/svg" xmlns:xlink="http://www.w3.org/1999/xlink" x="0px" y="0px"
	 width="612px" height="792px" viewBox="0 0 612 792" enable-background="new 0 0 612 792" xml:space="preserve">
<g id="Layer_1_1_">
	<g>
		<g transform="translate(213.948,11.3336)">
			<g id="schematic_11_">
				<g>
					<path fill="#010101" d="M188.757,445.197h-11.745c-0.618,0-1.159-0.541-1.159-1.155c0-0.618,0.541-1.159,1.159-1.159h11.668
						c0.618,0,1.159,0.541,1.159,1.159C189.839,444.733,189.375,445.197,188.757,445.197z"/>
				</g>
				<g>
					<path fill="#010101" d="M177.012,445.197h-11.668c-0.618,0-1.159-0.541-1.159-1.155c0-0.618,0.541-1.159,1.159-1.159h11.668
						c0.618,0,1.159,0.541,1.159,1.159C178.171,444.733,177.63,445.197,177.012,445.197z"/>
				</g>
				<g>
					<polygon fill="#FFFFFF" points="177.012,444.115 165.344,420.702 177.012,420.702 188.757,420.702 					"/>
					<path fill="#010101" d="M177.012,446.665L163.49,419.62h27.049L177.012,446.665z M167.198,421.861l9.812,19.704l9.813-19.704
						C186.903,421.861,167.198,421.861,167.198,421.861z"/>
				</g>
				<g>
					<path fill="#010101" d="M177.012,444.811c-0.387,0-0.695-0.31-0.695-0.696v-23.336c0-0.387,0.312-0.691,0.695-0.691
						s0.695,0.309,0.695,0.691v23.336C177.784,444.501,177.476,444.811,177.012,444.811z"/>
				</g>
				<g>
					<path fill="#010101" d="M150.74,436.078c-0.151,0-0.387-0.077-0.537-0.231c-0.312-0.31-0.312-0.772,0-1.005l7.568-7.572
						c0.312-0.31,0.772-0.31,1.005,0c0.312,0.312,0.312,0.772,0,1.004l-7.569,7.573C151.125,436.001,150.971,436.078,150.74,436.078
						z"/>
				</g>
				<g>
					<path fill="#010101" d="M151.898,446.588c-0.15,0-0.386-0.078-0.54-0.232c-0.31-0.309-0.31-0.771,0-1.005l7.572-7.572
						c0.31-0.309,0.772-0.309,1.005,0c0.312,0.312,0.312,0.772,0,1.005l-7.573,7.572C152.284,446.51,152.13,446.588,151.898,446.588
						z"/>
				</g>
				<g id="connector0pin_11_">
					<path fill="#797979" d="M177.012,468.611c-0.618,0-1.159-0.541-1.159-1.159v-23.337c0-0.614,0.541-1.155,1.159-1.155
						s1.159,0.541,1.159,1.155v23.337C178.171,468.07,177.63,468.611,177.012,468.611z"/>
				</g>
				<g id="connector0terminal_11_">
					<path fill="none" d="M177.012,467.452L177.012,467.452L177.012,467.452z"/>
				</g>
				<g id="connector1pin_9_">
					<path fill="#797979" d="M177.012,421.861c-0.618,0-1.159-0.541-1.159-1.159v-23.337c0-0.614,0.541-1.155,1.159-1.155
						s1.159,0.541,1.159,1.155v23.337C178.171,421.32,177.63,421.861,177.012,421.861z"/>
				</g>
				<g id="connector1terminal_9_">
					<path fill="none" d="M177.012,397.365L177.012,397.365L177.012,397.365z"/>
				</g>
				<g>
					<path fill="#010101" d="M145.485,440.561l3.479-8.191l4.713,4.641L145.485,440.561z"/>
				</g>
				<g>
					<path fill="#010101" d="M146.644,451.07l3.479-8.188l4.636,4.637L146.644,451.07z"/>
				</g>
			</g>
		</g>
	</g>
	<g>
		<g transform="translate(91.6785,50.587)">
			<g id="schematic_5_">
				<polyline fill="none" stroke="#020202" stroke-width="2" stroke-linecap="round" points="299.305,341.076 299.305,337.599 
					292.505,332.498 307.805,323.998 292.505,315.498 307.805,306.921 292.505,298.421 307.805,289.921 292.505,281.344 
					299.305,276.244 299.305,272.844 				"/>
				
					<line id="connector1pin_5_" fill="none" stroke="#7A7A7A" stroke-width="2" stroke-linecap="round" x1="299.305" y1="358.076" x2="299.305" y2="341.076"/>
				<g id="connector1terminal_5_">
				</g>
				
					<line id="connector0pin_5_" fill="none" stroke="#7A7A7A" stroke-width="2" stroke-linecap="round" x1="299.305" y1="255.767" x2="299.305" y2="272.844"/>
				<g id="connector0terminal_5_">
				</g>
			</g>
		</g>
	</g>
	<g>
		<g transform="translate(46.5692,160.233)">
			<g id="schematic_8_">
				<path id="connector0pin_8_" fill="none" stroke="#7A7A7A" stroke-width="2" stroke-linecap="round" d="M344.407,336.786V319.71"
					/>
				<g id="connector0terminal_8_">
				</g>
				<path id="path4098" fill="none" stroke="#020202" stroke-width="2" stroke-linecap="round" d="M328.567,337.097h31.763"/>
				<path id="path4100" fill="none" stroke="#020202" stroke-width="2" stroke-linecap="round" d="M333.82,343.588h21.173"/>
				<path id="path4102" fill="none" stroke="#020202" stroke-width="2" stroke-linecap="round" d="M349.661,350.001h-10.586"/>
			</g>
		</g>
	</g>
	
		<line fill="none" stroke="#020202" stroke-width="2" stroke-linecap="round" x1="321.764" y1="306.364" x2="390.536" y2="306.364"/>
</g>
<g id="plaintext" display="none">
	<text transform="matrix(1 0 0 1 262.8433 340.8613)" display="inline" font-family="'MyriadPro-Regular'" font-size="17.7326">Output</text>
	<text transform="matrix(1 0 0 1 162.7798 362.1406)" display="inline" font-family="'MyriadPro-Regular'" font-size="17.7326">from microcontroller</text>
	<text transform="matrix(1 0 0 1 29.8706 236.959)" display="inline" font-family="'MyriadPro-Regular'" font-size="17.7326">Digital Output</text>
	<text transform="matrix(1 0 0 1 404.5684 400.3926)" display="inline" font-family="'MyriadPro-Regular'" font-size="17.7326">220Ω</text>
	<text transform="matrix(1 0 0 1 413.8398 467.625)" display="inline" font-family="'MyriadPro-Regular'" font-size="17.7326">LED</text>
</g>
<g id="Braille_1_">
	<text transform="matrix(1 0 0 1 47.4219 312.8682)" font-family="'AppleBraille'" font-size="30">⠠⠕⠥⠞⠏⠥⠞ ⠋⠗⠕⠍</text>
	<text transform="matrix(1 0 0 1 47.4219 348.8682)" font-family="'AppleBraille'" font-size="30">⠍⠊⠉⠗⠕⠉⠕⠝⠞⠗⠕⠇⠇⠑⠗ </text>
	<text transform="matrix(1 0 0 1 29.0977 140.3223)" font-family="'AppleBraille'" font-size="30">⠠⠙⠊⠛⠊⠞⠁⠇ ⠠⠕⠥⠞⠏⠥⠞</text>
	<text transform="matrix(1 0 0 1 415.7949 339.7559)" font-family="'AppleBraille'" font-size="30">⠼⠃⠃⠚⠨⠺  </text>
	<text transform="matrix(1 0 0 1 416.1582 439.8066)" font-family="'AppleBraille'" font-size="30">⠠⠠⠇⠑⠙</text>
</g>
<line fill="none" stroke="#000000" stroke-width="4" stroke-miterlimit="10" x1="22.719" y1="0" x2="0.5" y2="22.219"/>
<line fill="none" stroke="#000000" stroke-width="4" stroke-miterlimit="10" x1="37.125" y1="-3.5" x2="-4.5" y2="38.125"/>
<text transform="matrix(1 0 0 1 50.2407 377.9395)" fill="#939597" font-family="'Helvetica'" font-size="13.9091">Output from microcontroller</text>
<text transform="matrix(1 0 0 1 419.2402 361.9395)" fill="#939597" font-family="'Helvetica'" font-size="13.9091">220Ω</text>
<text transform="matrix(1 0 0 1 419.2402 462.9395)" fill="#939597" font-family="'Helvetica'" font-size="13.9091">LED</text>
<text transform="matrix(1 0 0 1 45.0137 165.2578)" fill="#939597" font-family="'Helvetica'" font-size="21">Digital Output</text>
</svg>
