<?xml version="1.0" encoding="utf-8"?>
<!-- Generator: Adobe Illustrator 16.0.0, SVG Export Plug-In . SVG Version: 6.00 Build 0)  -->
<!DOCTYPE svg PUBLIC "-//W3C//DTD SVG 1.1//EN" "http://www.w3.org/Graphics/SVG/1.1/DTD/svg11.dtd">
<svg version="1.1" id="Layer_1" xmlns="http://www.w3.org/2000/svg" xmlns:xlink="http://www.w3.org/1999/xlink" x="0px" y="0px"
	 width="612px" height="792px" viewBox="0 0 612 792" enable-background="new 0 0 612 792" xml:space="preserve">
<g id="Layer_1_1_">
	<g>
		<g transform="translate(155.328,46.5354)">
			<g id="schematic_4_">
				
					<line fill="none" stroke="#010101" stroke-width="2" stroke-linecap="round" x1="123.726" y1="313.019" x2="123.726" y2="310.392"/>
				
					<line fill="none" stroke="#010101" stroke-width="2" stroke-linecap="round" x1="123.726" y1="331.256" x2="118.548" y2="313.019"/>
				<circle fill="none" stroke="#010101" stroke-width="2" cx="123.726" cy="331.256" r="0.541"/>
				<circle fill="none" stroke="#010101" stroke-width="2" cx="123.726" cy="310.392" r="0.541"/>
				
					<line id="connector0pin_4_" fill="none" stroke="#565656" stroke-width="2" stroke-linecap="round" x1="123.726" y1="341.61" x2="123.726" y2="331.256"/>
				<g id="connector0terminal_4_">
				</g>
				
					<line id="connector1pin_4_" fill="none" stroke="#565656" stroke-width="2" stroke-linecap="round" x1="123.726" y1="300.037" x2="123.726" y2="310.392"/>
				<g id="connector1terminal_4_">
				</g>
			</g>
		</g>
	</g>
	<g>
		<g transform="translate(91.6785,50.587)">
			<g id="schematic_5_">
				<polyline fill="none" stroke="#010101" stroke-width="2" stroke-linecap="round" points="187.337,389.603 187.337,387.517 
					183.164,384.426 192.591,379.171 183.164,373.994 192.591,368.816 183.164,363.562 192.591,358.385 183.164,353.208 
					187.337,350.039 187.337,348.03 				"/>
				
					<line id="connector1pin_5_" fill="none" stroke="#797979" stroke-width="2" stroke-linecap="round" x1="187.337" y1="400.035" x2="187.337" y2="389.603"/>
				<g id="connector1terminal_5_">
				</g>
				
					<line id="connector0pin_5_" fill="none" stroke="#797979" stroke-width="2" stroke-linecap="round" x1="187.337" y1="337.599" x2="187.337" y2="348.03"/>
				<g id="connector0terminal_5_">
				</g>
			</g>
		</g>
	</g>
	<g>
		<g transform="translate(46.5692,160.233)">
			<g id="schematic_8_">
				<path id="connector0pin_8_" fill="none" stroke="#797979" stroke-width="2" stroke-linecap="round" d="M232.593,300.006V289.57"
					/>
				<g id="connector0terminal_8_">
				</g>
				<path id="path4098" fill="none" stroke="#010101" stroke-width="2" stroke-linecap="round" d="M222.857,300.161h19.396"/>
				<path id="path4100" fill="none" stroke="#010101" stroke-width="2" stroke-linecap="round" d="M226.103,304.179h12.904"/>
				<path id="path4102" fill="none" stroke="#010101" stroke-width="2" stroke-linecap="round" d="M235.761,308.12h-6.414"/>
			</g>
		</g>
	</g>
	
		<line id="connector0pin_10_" fill="none" stroke="#797979" stroke-width="2" stroke-linecap="round" stroke-miterlimit="10" x1="279.032" y1="336.191" x2="279.032" y2="346.623"/>
	<path fill="none" stroke="#010101" stroke-width="2" stroke-linecap="round" d="M269.295,335.882h19.473"/>
	
		<line fill="none" stroke="#010101" stroke-width="2" stroke-linecap="round" x1="279.032" y1="388.195" x2="320.991" y2="388.195"/>
	<circle fill="#010101" cx="279.573" cy="388.196" r="2.936"/>
</g>
<g id="plaintext">
	<text transform="matrix(1 0 0 1 402.2402 380.4502)" fill="#939597" font-family="'Helvetica'" font-size="13.9091">I1</text>
	<text transform="matrix(1 0 0 1 321.7559 321.7432)" fill="#939597" font-family="'Helvetica'" font-size="13.9091">+V</text>
	<text transform="matrix(1 0 0 1 167.4736 417.2832)" fill="#939597" font-family="'Helvetica'" font-size="13.9091">R1</text>
	<text transform="matrix(1 0 0 1 168.2407 360.9395)" fill="#939597" font-family="'Helvetica'" font-size="13.9091">S1</text>
	<text transform="matrix(1 0 0 1 32.0137 213.2578)" fill="#939597" font-family="'Helvetica'" font-size="21">Digital Input</text>
	<text transform="matrix(1 0 0 1 459.2021 499.6738)" fill="#939597" font-family="'Helvetica'" font-size="12">Key:</text>
	<text transform="matrix(1 0 0 1 459.2021 514.6553)" fill="#939597" font-family="'Helvetica'" font-size="12">R1 - 10-kilohm resistor</text>
	<text transform="matrix(1 0 0 1 459.2021 529.6377)" fill="#939597" font-family="'Helvetica'" font-size="12">S1 - switch or pushbutton</text>
	<text transform="matrix(1 0 0 1 459.2021 544.6191)" fill="#939597" font-family="'Helvetica'" font-size="12">I1 - input to microcontroller</text>
</g>
<g id="Braille_1_">
	<g id="Braille">
		<text transform="matrix(1 0 0 1 19.4102 187.4004)" font-family="'AppleBraille'" font-size="30">⠠⠙⠊⠛⠊⠞⠁⠇ ⠠⠊⠝⠏⠥⠞</text>
		<text transform="matrix(1 0 0 1 186.8623 426.0898)" font-family="'AppleBraille'" font-size="30">⠠⠗⠼⠁ </text>
		<text transform="matrix(1 0 0 1 242.2495 327.1523)" font-family="'MyriadPro-Regular'" font-size="22.4091">+</text>
		<text transform="matrix(1 0 0 1 255.6177 327.1523)" font-family="'AppleBraille'" font-size="30">⠠⠠⠧</text>
		<text transform="matrix(1 0 0 1 186.8623 366.3486)" font-family="'AppleBraille'" font-size="30">⠠⠎⠼⠁ </text>
		<text transform="matrix(1 0 0 1 323.0547 391.0605)" font-family="'AppleBraille'" font-size="30">⠠⠊⠼⠁</text>
		<text transform="matrix(1 0 0 1 8.2017 550.6729)" font-family="'AppleBraille'" font-size="30">⠠⠅⠑⠽</text>
		<text transform="matrix(1 0 0 1 8.2017 586.6729)" font-family="'AppleBraille'" font-size="30">⠠⠗⠼⠁ ⠤ ⠼⠁⠚ ⠤⠅⠊⠇⠕⠓⠍ ⠗⠑⠎⠊⠎⠞⠕⠗</text>
		<text transform="matrix(1 0 0 1 8.2017 622.6729)" font-family="'AppleBraille'" font-size="30">⠠⠎⠼⠁ ⠤ ⠎⠺⠊⠞⠉⠓ ⠕⠗ ⠏⠥⠎⠓⠃⠥⠞⠞⠕⠝</text>
		<text transform="matrix(1 0 0 1 8.2017 658.6729)" font-family="'AppleBraille'" font-size="30">⠠⠊⠼⠁ ⠤ ⠊⠝⠏⠥⠞ ⠞⠕ ⠍⠊⠉⠗⠕⠉⠕⠝⠞⠗⠕⠇⠇⠑⠗  </text>
	</g>
</g>
<line fill="none" stroke="#000000" stroke-width="4" stroke-miterlimit="10" x1="22.719" y1="0" x2="0.5" y2="22.219"/>
<line fill="none" stroke="#000000" stroke-width="4" stroke-miterlimit="10" x1="37.125" y1="-3.5" x2="-4.5" y2="38.125"/>
</svg>
