<?xml version="1.0" encoding="utf-8"?>
<!-- Generator: Adobe Illustrator 16.0.0, SVG Export Plug-In . SVG Version: 6.00 Build 0)  -->
<!DOCTYPE svg PUBLIC "-//W3C//DTD SVG 1.1//EN" "http://www.w3.org/Graphics/SVG/1.1/DTD/svg11.dtd">
<svg version="1.1" id="Layer_1" xmlns="http://www.w3.org/2000/svg" xmlns:xlink="http://www.w3.org/1999/xlink" x="0px" y="0px"
	 width="792px" height="612px" viewBox="0 0 792 612" enable-background="new 0 0 792 612" xml:space="preserve">
<g>
	<line fill="none" stroke="#000000" stroke-width="4" stroke-miterlimit="10" x1="755.229" y1="0.772" x2="791.227" y2="36.771"/>
	<line fill="none" stroke="#000000" stroke-width="4" stroke-miterlimit="10" x1="738" y1="0" x2="792" y2="54"/>
	<line fill="none" stroke="#000000" stroke-width="4" stroke-miterlimit="10" x1="772.457" y1="1.543" x2="790.457" y2="19.543"/>
</g>
<text transform="matrix(1 0 0 1 41.625 137.3633)" fill="#010101" font-family="'AppleBraille'" font-size="26">⠅⠑⠽</text>
<text transform="matrix(1 0 0 1 41.625 255.7627)" fill="#010101" font-family="'AppleBraille'" font-size="26">⠀</text>
<text transform="matrix(1 0 0 1 41.625 368.0381)" fill="#532E85" font-family="'ArialMT'" font-size="19.0417">Key:</text>
<text transform="matrix(1 0 0 1 41.625 390.8857)" fill="#532E85" font-family="'ArialMT'" font-size="19.0417">MC1 - Arduino Uno (Rev 3)</text>
<text transform="matrix(1 0 0 1 41.625 413.7373)" fill="#532E85" font-family="'ArialMT'" font-size="19.0417">HB1 - H-Bridge L293D</text>
<text transform="matrix(1 0 0 1 41.625 436.5869)" fill="#532E85" font-family="'ArialMT'" font-size="19.0417">S1 - Switch</text>
<text transform="matrix(1 0 0 1 41.625 459.4375)" fill="#532E85" font-family="'ArialMT'" font-size="19.0417">R1 - 10kΩ Resistor</text>
<text transform="matrix(1 0 0 1 41.625 482.2871)" fill="#532E85" font-family="'ArialMT'" font-size="19.0417">B1 - VCC1 9V Battery</text>
<text transform="matrix(1 0 0 1 41.625 505.1367)" fill="#532E85" font-family="'ArialMT'" font-size="19.0417">PC1 - Polarized Capacitor</text>
<text transform="matrix(1 0 0 1 41.625 527.9863)" fill="#532E85" font-family="'ArialMT'" font-size="19.0417">M1- Motor</text>
<text transform="matrix(1 0 0 1 41.625 166.1631)" fill="#010101" font-family="'AppleBraille'" font-size="26">⠍⠉⠼⠁⠀⠤⠀⠁⠗⠙⠥⠊⠝⠕⠀⠥⠝⠕⠀⠐⠣⠗⠑⠧⠼⠉⠐⠜</text>
<text transform="matrix(1 0 0 1 41.625 194.9629)" fill="#010101" font-family="'AppleBraille'" font-size="26">⠓⠃⠼⠁⠀⠤⠀⠓⠤⠃⠗⠊⠙⠛⠑⠀⠇⠼⠃⠊⠉⠰⠙</text>
<text transform="matrix(1 0 0 1 41.625 223.7627)" fill="#010101" font-family="'AppleBraille'" font-size="26">⠎⠼⠁⠀⠤⠀⠎⠺⠊⠞⠉⠓</text>
<text transform="matrix(1 0 0 1 41.625 252.5635)" font-family="'AppleBraille'" font-size="26">⠗⠼⠁⠀⠤⠀⠼⠁⠚⠨⠺ ⠗⠑⠎⠊⠎⠞⠕⠗</text>
<text transform="matrix(1 0 0 1 41.625 281.3633)" font-family="'AppleBraille'" font-size="26">⠃⠼⠁⠀⠤⠀⠧⠉⠉⠼⠁⠀⠼⠊⠧⠀⠃⠁⠞⠞⠑⠗⠽</text>
<text transform="matrix(1 0 0 1 41.625 310.1631)" font-family="'AppleBraille'" font-size="26">⠏⠉⠼⠁⠀⠤⠀⠏⠕⠇⠜⠊⠵⠫⠀⠉⠁⠏⠁⠉⠊⠞⠕⠗</text>
<text transform="matrix(1 0 0 1 41.625 338.9629)" font-family="'AppleBraille'" font-size="26">⠍⠼⠁⠀⠤⠀⠍⠕⠞⠕⠗</text>
<g id="Braille_1_">
	<text transform="matrix(1 0 0 1 42.626 78.0645)" font-family="'AppleBraille'" font-size="26">⠍⠕⠞⠕⠗⠀⠓⠤⠃⠗⠊⠙⠛⠑⠀⠉⠁⠏⠁⠉⠊⠞⠕⠗</text>
</g>
<text transform="matrix(1 0 0 1 484.8857 75.002)" fill="#532E85" font-family="'ArialMT'" font-size="21">Motor H-Bridge Capacitor</text>
</svg>
