<?xml version="1.0" encoding="utf-8"?>
<!-- Generator: Adobe Illustrator 16.0.0, SVG Export Plug-In . SVG Version: 6.00 Build 0)  -->
<!DOCTYPE svg PUBLIC "-//W3C//DTD SVG 1.1//EN" "http://www.w3.org/Graphics/SVG/1.1/DTD/svg11.dtd">
<svg version="1.1" id="Layer_1" xmlns="http://www.w3.org/2000/svg" xmlns:xlink="http://www.w3.org/1999/xlink" x="0px" y="0px"
	 width="792px" height="612px" viewBox="0 0 792 612" enable-background="new 0 0 792 612" xml:space="preserve">
<g id="Layer_1_2_">
	<g id="Layer_1_1_">
		
			<rect x="62.623" y="176.883" fill="#FFFFFF" stroke="#000000" stroke-width="2" stroke-linecap="round" width="170.309" height="295.568"/>
		
			<line id="connector61pin" fill="none" stroke="#787878" stroke-width="2" stroke-linecap="round" x1="233.087" y1="207.174" x2="264.459" y2="207.174"/>
		<g id="connector61terminal">
		</g>
		
			<line id="connector62pin" fill="none" stroke="#787878" stroke-width="2" stroke-linecap="round" x1="233.087" y1="222.859" x2="264.459" y2="222.859"/>
		<g id="connector62terminal">
		</g>
		
			<line id="connector63pin" fill="none" stroke="#787878" stroke-width="2" stroke-linecap="round" x1="233.087" y1="238.545" x2="264.459" y2="238.545"/>
		<g id="connector63terminal">
		</g>
		
			<line id="connector64pin" fill="none" stroke="#787878" stroke-width="2" stroke-linecap="round" x1="233.087" y1="254.232" x2="264.459" y2="254.232"/>
		<g id="connector64terminal">
		</g>
		
			<line id="connector65pin" fill="none" stroke="#787878" stroke-width="2" stroke-linecap="round" x1="233.087" y1="269.918" x2="264.459" y2="269.918"/>
		<g id="connector65terminal">
		</g>
		
			<line id="connector66pin" fill="none" stroke="#787878" stroke-width="2" stroke-linecap="round" x1="233.087" y1="285.527" x2="264.459" y2="285.527"/>
		<g id="connector66terminal">
		</g>
		
			<line id="connector67pin" fill="none" stroke="#787878" stroke-width="2" stroke-linecap="round" x1="233.087" y1="301.139" x2="264.459" y2="301.139"/>
		<g id="connector67terminal">
		</g>
		
			<line id="connector68pin" fill="none" stroke="#787878" stroke-width="2" stroke-linecap="round" x1="233.087" y1="316.824" x2="264.459" y2="316.824"/>
		<g id="connector68terminal">
		</g>
		
			<line id="connector51pin" fill="none" stroke="#787878" stroke-width="2" stroke-linecap="round" x1="233.087" y1="332.51" x2="264.459" y2="332.51"/>
		<g id="connector51terminal">
		</g>
		
			<line id="connector52pin" fill="none" stroke="#787878" stroke-width="2" stroke-linecap="round" x1="233.087" y1="348.195" x2="264.459" y2="348.195"/>
		<g id="connector52terminal">
		</g>
		
			<line id="connector53pin" fill="none" stroke="#787878" stroke-width="2" stroke-linecap="round" x1="233.087" y1="363.807" x2="264.459" y2="363.807"/>
		<g id="connector53terminal">
		</g>
		
			<line id="connector54pin" fill="none" stroke="#787878" stroke-width="2" stroke-linecap="round" x1="233.087" y1="379.492" x2="264.459" y2="379.492"/>
		<g id="connector54terminal">
		</g>
		
			<line id="connector55pin" fill="none" stroke="#787878" stroke-width="2" stroke-linecap="round" x1="233.087" y1="395.178" x2="264.459" y2="395.178"/>
		<g id="connector55terminal">
		</g>
		<line id="connector41pin" fill="none" x1="233.087" y1="410.863" x2="264.459" y2="410.863"/>
		<rect id="connector41terminal" x="264.459" y="410.014" fill="none" width="1.468" height="1.472"/>
		
			<line id="connector56pin" fill="none" stroke="#787878" stroke-width="2" stroke-linecap="round" x1="233.087" y1="410.863" x2="264.459" y2="410.863"/>
		<g id="connector56terminal">
		</g>
		<line id="connector43pin" fill="none" x1="31.018" y1="207.174" x2="62.391" y2="207.174"/>
		<rect id="connector43terminal" x="29.55" y="206.479" fill="none" width="1.468" height="1.467"/>
		
			<line id="connector85pin" fill="none" stroke="#787878" stroke-width="2" stroke-linecap="round" x1="31.018" y1="207.174" x2="62.391" y2="207.174"/>
		<g id="connector85terminal">
		</g>
		
			<line id="connector49pin" fill="none" stroke="#787878" stroke-width="2" stroke-linecap="round" x1="31.018" y1="222.859" x2="62.391" y2="222.859"/>
		<rect id="connector49terminal" x="29.55" y="222.086" fill="none" width="1.468" height="1.469"/>
		
			<line id="connector58pin" fill="none" stroke="#787878" stroke-width="2" stroke-linecap="round" x1="31.018" y1="238.545" x2="62.391" y2="238.545"/>
		<g id="connector58terminal">
		</g>
		
			<line id="connector84pin" fill="none" stroke="#787878" stroke-width="2" stroke-linecap="round" x1="31.018" y1="254.232" x2="62.391" y2="254.232"/>
		<g id="connector84terminal">
		</g>
		
			<line id="connector0pin" fill="none" stroke="#787878" stroke-width="2" stroke-linecap="round" x1="31.018" y1="285.527" x2="62.391" y2="285.527"/>
		<g id="connector0terminal">
		</g>
		
			<line id="connector1pin" fill="none" stroke="#787878" stroke-width="2" stroke-linecap="round" x1="31.018" y1="301.139" x2="62.391" y2="301.139"/>
		<g id="connector1terminal">
		</g>
		
			<line id="connector2pin" fill="none" stroke="#787878" stroke-width="2" stroke-linecap="round" x1="31.018" y1="316.824" x2="62.391" y2="316.824"/>
		<g id="connector2terminal">
		</g>
		
			<line id="connector3pin" fill="none" stroke="#787878" stroke-width="2" stroke-linecap="round" x1="31.018" y1="332.51" x2="62.391" y2="332.51"/>
		<g id="connector3terminal">
		</g>
		<line id="connector48pin" fill="none" x1="31.018" y1="348.195" x2="62.391" y2="348.195"/>
		<rect id="connector48terminal" x="29.55" y="347.424" fill="none" width="1.468" height="1.471"/>
		<line id="connector45pin" fill="none" x1="31.018" y1="348.195" x2="62.391" y2="348.195"/>
		<rect id="connector45terminal" x="29.55" y="347.424" fill="none" width="1.468" height="1.471"/>
		<line id="connector4pin" fill="none" x1="31.018" y1="348.195" x2="62.391" y2="348.195"/>
		<g id="connector4terminal">
		</g>
		<line id="connector39pin" fill="none" x1="31.018" y1="348.195" x2="62.391" y2="348.195"/>
		<rect id="connector39terminal" x="29.55" y="347.424" fill="none" width="1.468" height="1.471"/>
		<line id="connector47pin" fill="none" x1="31.018" y1="348.195" x2="62.391" y2="348.195"/>
		<rect id="connector47terminal" x="29.55" y="347.424" fill="none" width="1.468" height="1.471"/>
		<line id="connector42pin" fill="none" x1="31.018" y1="348.195" x2="62.391" y2="348.195"/>
		<rect id="connector42terminal" x="29.55" y="347.424" fill="none" width="1.468" height="1.471"/>
		
			<line id="connector59pin" fill="none" stroke="#787878" stroke-width="2" stroke-linecap="round" x1="31.018" y1="348.195" x2="62.391" y2="348.195"/>
		<g id="connector59terminal">
		</g>
		<line id="connector5pin" fill="none" x1="31.018" y1="363.807" x2="62.391" y2="363.807"/>
		<g id="connector5terminal">
		</g>
		
			<line id="connector60pin" fill="none" stroke="#787878" stroke-width="2" stroke-linecap="round" x1="31.018" y1="363.807" x2="62.391" y2="363.807"/>
		<g id="connector60terminal">
		</g>
		
			<line id="connector91pin" fill="none" stroke="#787878" stroke-width="2" stroke-linecap="round" x1="31.018" y1="442.082" x2="62.391" y2="442.082"/>
		<g id="connector91terminal">
		</g>
		<line id="connector88pin" fill="none" x1="155.582" y1="472.682" x2="155.582" y2="504.057"/>
		<g id="connector88terminal">
		</g>
		<line id="connector57pin" fill="none" x1="155.582" y1="472.682" x2="155.582" y2="504.057"/>
		<g id="connector57terminal">
		</g>
		<line id="connector44pin" fill="none" x1="155.582" y1="472.682" x2="155.582" y2="504.057"/>
		<rect id="connector44terminal" x="154.81" y="504.057" fill="none" width="1.468" height="1.468"/>
		<line id="connector50pin" fill="none" x1="155.582" y1="472.682" x2="155.582" y2="504.057"/>
		<rect id="connector50terminal" x="154.81" y="504.057" fill="none" width="1.468" height="1.468"/>
		
			<line id="connector89pin" fill="none" stroke="#787878" stroke-width="2" stroke-linecap="round" x1="155.582" y1="472.682" x2="155.582" y2="504.057"/>
		<g id="connector89terminal">
		</g>
		
			<line id="connector86pin" fill="none" stroke="#787878" stroke-width="2" stroke-linecap="round" x1="108.601" y1="145.355" x2="108.601" y2="176.729"/>
		<g id="connector86terminal">
		</g>
		<line id="connector40pin" fill="none" x1="139.896" y1="145.355" x2="139.896" y2="176.729"/>
		<rect id="connector40terminal" x="139.2" y="143.889" fill="none" width="1.468" height="1.467"/>
		<line id="connector46pin" fill="none" x1="139.896" y1="145.355" x2="139.896" y2="176.729"/>
		<rect id="connector46terminal" x="139.2" y="143.889" fill="none" width="1.468" height="1.467"/>
		
			<line id="connector87pin" fill="none" stroke="#787878" stroke-width="2" stroke-linecap="round" x1="139.896" y1="145.355" x2="139.896" y2="176.729"/>
		<g id="connector87terminal">
		</g>
		
			<line id="connector90pin" fill="none" stroke="#787878" stroke-width="2" stroke-linecap="round" x1="171.268" y1="145.355" x2="171.268" y2="176.729"/>
		<g id="connector90terminal">
		</g>
		<line fill="none" stroke="#000000" stroke-width="2" stroke-linecap="round" x1="531.9" y1="284.91" x2="525.719" y2="282.592"/>
		
			<line fill="none" stroke="#000000" stroke-width="2" stroke-linecap="round" x1="525.719" y1="282.592" x2="538.159" y2="278.65"/>
		
			<line fill="none" stroke="#000000" stroke-width="2" stroke-linecap="round" x1="538.159" y1="278.65" x2="525.719" y2="274.709"/>
		
			<line fill="none" stroke="#000000" stroke-width="2" stroke-linecap="round" x1="525.719" y1="274.709" x2="538.159" y2="270.848"/>
		
			<line fill="none" stroke="#000000" stroke-width="2" stroke-linecap="round" x1="538.159" y1="270.848" x2="525.719" y2="266.906"/>
		
			<line fill="none" stroke="#000000" stroke-width="2" stroke-linecap="round" x1="525.719" y1="266.906" x2="538.159" y2="262.965"/>
		
			<line fill="none" stroke="#000000" stroke-width="2" stroke-linecap="round" x1="538.159" y1="262.965" x2="525.719" y2="259.102"/>
		
			<line fill="none" stroke="#000000" stroke-width="2" stroke-linecap="round" x1="525.719" y1="259.102" x2="538.159" y2="255.16"/>
		<line fill="none" stroke="#000000" stroke-width="2" stroke-linecap="round" x1="538.159" y1="255.16" x2="531.9" y2="253.691"/>
		
			<line id="connector1pin_1_" fill="none" stroke="#787878" stroke-width="2" stroke-linecap="round" x1="531.9" y1="238.006" x2="531.9" y2="253.691"/>
		<g id="connector1terminal_1_">
		</g>
		
			<line id="connector0pin_1_" fill="none" stroke="#787878" stroke-width="2" stroke-linecap="round" x1="531.9" y1="300.598" x2="531.9" y2="284.91"/>
		<g id="connector0terminal_1_">
		</g>
		
			<line fill="none" stroke="#000000" stroke-width="2" stroke-linecap="round" x1="547.277" y1="178.893" x2="547.277" y2="174.951"/>
		
			<line fill="none" stroke="#000000" stroke-width="2" stroke-linecap="round" x1="547.277" y1="206.324" x2="539.396" y2="178.893"/>
		<circle fill="none" stroke="#000000" stroke-width="2" cx="547.277" cy="206.324" r="0.773"/>
		<circle fill="none" stroke="#000000" stroke-width="2" cx="547.277" cy="174.951" r="0.773"/>
		
			<line fill="none" stroke="#000000" stroke-width="2" stroke-linecap="round" x1="531.592" y1="174.951" x2="562.887" y2="174.951"/>
		
			<line fill="none" stroke="#000000" stroke-width="2" stroke-linecap="round" x1="531.592" y1="206.324" x2="562.887" y2="206.324"/>
		
			<line id="connector3pin_1_" fill="none" stroke="#555555" stroke-width="2" stroke-linecap="round" x1="562.887" y1="221.236" x2="562.887" y2="206.324"/>
		
			<line id="connector2pin_1_" fill="none" stroke="#555555" stroke-width="2" stroke-linecap="round" x1="531.592" y1="221.236" x2="531.592" y2="206.324"/>
		<g id="connector2terminal_1_">
		</g>
		<g id="connector3terminal_1_">
		</g>
		
			<line id="connector1pin_2_" fill="none" stroke="#555555" stroke-width="2" stroke-linecap="round" x1="562.887" y1="160.037" x2="562.887" y2="174.951"/>
		<g id="connector1terminal_2_">
		</g>
		<g id="connector0terminal_2_">
		</g>
		
			<line id="connector0pin_2_" fill="none" stroke="#555555" stroke-width="2" stroke-linecap="round" x1="531.592" y1="160.037" x2="531.592" y2="174.951"/>
		
			<line fill="none" stroke="#000000" stroke-width="2" stroke-linecap="round" x1="435.311" y1="270.307" x2="441.568" y2="272.623"/>
		
			<line fill="none" stroke="#000000" stroke-width="2" stroke-linecap="round" x1="441.568" y1="272.623" x2="428.974" y2="276.564"/>
		
			<line fill="none" stroke="#000000" stroke-width="2" stroke-linecap="round" x1="428.974" y1="276.564" x2="441.568" y2="280.428"/>
		
			<line fill="none" stroke="#000000" stroke-width="2" stroke-linecap="round" x1="441.568" y1="280.428" x2="428.974" y2="284.369"/>
		
			<line fill="none" stroke="#000000" stroke-width="2" stroke-linecap="round" x1="428.974" y1="284.369" x2="441.568" y2="288.311"/>
		
			<line fill="none" stroke="#000000" stroke-width="2" stroke-linecap="round" x1="441.568" y1="288.311" x2="428.974" y2="292.174"/>
		
			<line fill="none" stroke="#000000" stroke-width="2" stroke-linecap="round" x1="428.974" y1="292.174" x2="441.568" y2="296.115"/>
		
			<line fill="none" stroke="#000000" stroke-width="2" stroke-linecap="round" x1="441.568" y1="296.115" x2="428.974" y2="300.057"/>
		
			<line fill="none" stroke="#000000" stroke-width="2" stroke-linecap="round" x1="428.974" y1="300.057" x2="435.311" y2="301.523"/>
		
			<line id="connector1pin_3_" fill="none" stroke="#787878" stroke-width="2" stroke-linecap="round" x1="435.311" y1="317.209" x2="435.311" y2="301.523"/>
		<g id="connector1terminal_3_">
		</g>
		
			<line id="connector0pin_3_" fill="none" stroke="#787878" stroke-width="2" stroke-linecap="round" x1="435.311" y1="254.619" x2="435.311" y2="270.307"/>
		<g id="connector0terminal_3_">
		</g>
		
			<line fill="none" stroke="#000000" stroke-width="2" stroke-linecap="round" x1="299.619" y1="285.451" x2="305.878" y2="287.848"/>
		
			<line fill="none" stroke="#000000" stroke-width="2" stroke-linecap="round" x1="305.878" y1="287.848" x2="293.359" y2="291.709"/>
		
			<line fill="none" stroke="#000000" stroke-width="2" stroke-linecap="round" x1="293.359" y1="291.709" x2="305.878" y2="295.65"/>
		
			<line fill="none" stroke="#000000" stroke-width="2" stroke-linecap="round" x1="305.878" y1="295.65" x2="293.359" y2="299.514"/>
		
			<line fill="none" stroke="#000000" stroke-width="2" stroke-linecap="round" x1="293.359" y1="299.514" x2="305.878" y2="303.455"/>
		
			<line fill="none" stroke="#000000" stroke-width="2" stroke-linecap="round" x1="305.878" y1="303.455" x2="293.359" y2="307.396"/>
		
			<line fill="none" stroke="#000000" stroke-width="2" stroke-linecap="round" x1="293.359" y1="307.396" x2="305.878" y2="311.26"/>
		
			<line fill="none" stroke="#000000" stroke-width="2" stroke-linecap="round" x1="305.878" y1="311.26" x2="293.359" y2="315.201"/>
		
			<line fill="none" stroke="#000000" stroke-width="2" stroke-linecap="round" x1="293.359" y1="315.201" x2="299.619" y2="316.824"/>
		
			<line id="connector1pin_4_" fill="none" stroke="#787878" stroke-width="2" stroke-linecap="round" x1="299.619" y1="332.432" x2="299.619" y2="316.824"/>
		<g id="connector1terminal_4_">
		</g>
		
			<line id="connector0pin_4_" fill="none" stroke="#787878" stroke-width="2" stroke-linecap="round" x1="299.619" y1="269.764" x2="299.619" y2="285.451"/>
		<g id="connector0terminal_4_">
		</g>
		<path d="M443.037,380.033h-7.805c-0.392,0-0.772-0.312-0.772-0.773s0.312-0.771,0.772-0.771h7.805
			c0.386,0,0.771,0.311,0.771,0.771C443.887,379.723,443.578,380.033,443.037,380.033z"/>
		<path d="M435.311,380.033h-7.809c-0.387,0-0.771-0.312-0.771-0.773s0.309-0.771,0.771-0.771h7.809
			c0.388,0,0.771,0.311,0.771,0.771C436.082,379.723,435.773,380.033,435.311,380.033z"/>
		<polygon fill="#FFFFFF" points="435.311,379.26 427.505,363.574 435.311,363.574 443.037,363.574 		"/>
		<path d="M435.311,380.959l-9.117-18.082h18.082L435.311,380.959z M428.664,364.348l6.568,13.14l6.563-13.14H428.664z"/>
		<path d="M435.311,379.801c-0.23,0-0.468-0.229-0.468-0.463V363.65c0-0.232,0.232-0.463,0.468-0.463
			c0.229,0,0.465,0.229,0.465,0.463v15.688C435.773,379.568,435.541,379.801,435.311,379.801z"/>
		<path d="M417.614,373.852c-0.077,0-0.232-0.077-0.312-0.155c-0.149-0.154-0.149-0.463,0-0.695l5.104-5.1
			c0.149-0.154,0.463-0.154,0.69,0c0.154,0.149,0.154,0.463,0,0.69l-5.101,5.104C417.923,373.852,417.846,373.852,417.614,373.852z"
			/>
		<path d="M418.464,380.959c-0.077,0-0.229-0.076-0.309-0.152c-0.155-0.151-0.155-0.465,0-0.692l5.1-5.104
			c0.154-0.149,0.464-0.149,0.695,0c0.153,0.154,0.153,0.467,0,0.695l-5.104,5.104C418.773,380.883,418.541,380.959,418.464,380.959
			z"/>
		<path fill="#787878" d="M435.311,395.719c-0.391,0-0.771-0.309-0.771-0.771V379.26c0-0.387,0.309-0.771,0.771-0.771
			c0.388,0,0.771,0.311,0.771,0.771v15.688C436.082,395.332,435.773,395.719,435.311,395.719z"/>
		<path fill="none" d="M435.311,394.945L435.311,394.945L435.311,394.945z"/>
		<path fill="#787878" d="M435.311,364.348c-0.391,0-0.771-0.311-0.771-0.771v-15.688c0-0.387,0.309-0.771,0.771-0.771
			c0.388,0,0.771,0.311,0.771,0.771v15.688C436.082,364.037,435.773,364.348,435.311,364.348z"/>
		<path fill="none" d="M435.311,347.965L435.311,347.965L435.311,347.965z"/>
		<path d="M414.137,376.941l2.318-5.486l3.168,3.168L414.137,376.941z"/>
		<path d="M414.909,383.973l2.313-5.485l3.172,3.168L414.909,383.973z"/>
		<path d="M307.578,380.033h-7.805c-0.386,0-0.772-0.312-0.772-0.773s0.309-0.771,0.772-0.771h7.805
			c0.386,0,0.772,0.311,0.772,0.771C308.352,379.723,308.041,380.033,307.578,380.033z"/>
		<path d="M299.773,380.033h-7.804c-0.387,0-0.773-0.312-0.773-0.773s0.309-0.771,0.773-0.771h7.804
			c0.387,0,0.773,0.311,0.773,0.771C300.546,379.723,300.16,380.033,299.773,380.033z"/>
		<polygon fill="#FFFFFF" points="299.773,379.26 291.891,363.574 299.773,363.574 307.578,363.574 		"/>
		<path d="M299.773,380.959l-9.118-18.082h18.083L299.773,380.959z M293.128,364.348l6.568,13.14l6.568-13.14H293.128z"/>
		<path d="M299.773,379.801c-0.231,0-0.463-0.229-0.463-0.463V363.65c0-0.232,0.232-0.463,0.463-0.463
			c0.232,0,0.464,0.229,0.464,0.463v15.688C300.16,379.568,300.005,379.801,299.773,379.801z"/>
		<path d="M282.078,373.852c-0.077,0-0.232-0.077-0.309-0.155c-0.154-0.154-0.154-0.463,0-0.695l5.1-5.1
			c0.154-0.154,0.463-0.154,0.695,0c0.155,0.149,0.155,0.463,0,0.69l-5.1,5.104C282.31,373.852,282.232,373.852,282.078,373.852z"/>
		<path d="M282.928,380.959c-0.077,0-0.232-0.076-0.309-0.152c-0.155-0.151-0.155-0.465,0-0.692l5.1-5.104
			c0.154-0.149,0.463-0.149,0.695,0c0.154,0.154,0.154,0.467,0,0.695l-5.1,5.104C283.16,380.883,283.005,380.959,282.928,380.959z"
			/>
		<path fill="#787878" d="M299.773,395.719c-0.386,0-0.772-0.309-0.772-0.771V379.26c0-0.387,0.309-0.771,0.772-0.771
			c0.464,0,0.773,0.311,0.773,0.771v15.688C300.546,395.332,300.16,395.719,299.773,395.719z"/>
		<path fill="none" d="M299.773,394.945L299.773,394.945L299.773,394.945z"/>
		<path fill="#787878" d="M299.773,364.348c-0.386,0-0.772-0.311-0.772-0.771v-15.688c0-0.387,0.309-0.771,0.772-0.771
			c0.464,0,0.773,0.311,0.773,0.771v15.688C300.546,364.037,300.16,364.348,299.773,364.348z"/>
		<path fill="none" d="M299.773,347.965L299.773,347.965L299.773,347.965z"/>
		<path d="M278.601,376.941l2.318-5.486l3.168,3.168L278.601,376.941z"/>
		<path d="M279.373,383.973l2.318-5.485l3.168,3.168L279.373,383.973z"/>
		<g>
			<g transform="translate(116.561,135.05)">
				<g id="schematic_7_">
					<path id="connector0pin_7_" fill="none" stroke="#787878" stroke-width="2" stroke-linecap="round" d="M182.95,295.944v-15.688
						"/>
					<g id="connector0terminal_7_">
					</g>
					<path id="path4098" fill="none" stroke="#000000" stroke-width="2" stroke-linecap="round" d="M168.346,296.253h29.209"/>
					<path id="path4100" fill="none" stroke="#000000" stroke-width="2" stroke-linecap="round" d="M173.214,302.202h19.396"/>
					<path id="path4102" fill="none" stroke="#000000" stroke-width="2" stroke-linecap="round" d="M187.741,308.075h-9.659"/>
				</g>
			</g>
		</g>
		<g>
			<g transform="translate(157.788,135.05)">
				<g id="schematic_8_">
					<path id="connector0pin_8_" fill="none" stroke="#787878" stroke-width="2" stroke-linecap="round" d="M277.744,295.944
						v-15.688"/>
					<g id="connector0terminal_8_">
					</g>
					<path id="path4098_1_" fill="none" stroke="#000000" stroke-width="2" stroke-linecap="round" d="M263.14,296.253h29.209"/>
					<path id="path4100_1_" fill="none" stroke="#000000" stroke-width="2" stroke-linecap="round" d="M268.008,302.202h19.396"/>
					<path id="path4102_1_" fill="none" stroke="#000000" stroke-width="2" stroke-linecap="round" d="M282.612,308.075h-9.659"/>
				</g>
			</g>
		</g>
		<g>
			<g transform="translate(191.548,91.3167)">
				<g id="schematic_9_">
					<path id="connector0pin_9_" fill="none" stroke="#787878" stroke-width="2" stroke-linecap="round" d="M340.621,244.529
						v-15.688"/>
					<g id="connector0terminal_9_">
					</g>
					<path id="path4098_2_" fill="none" stroke="#000000" stroke-width="2" stroke-linecap="round" d="M326.016,244.838h29.209"/>
					<path id="path4100_2_" fill="none" stroke="#000000" stroke-width="2" stroke-linecap="round" d="M330.885,250.787h19.396"/>
					<path id="path4102_2_" fill="none" stroke="#000000" stroke-width="2" stroke-linecap="round" d="M345.489,256.66h-9.658"/>
				</g>
			</g>
		</g>
		<g>
			<g transform="translate(50.4276,181.183)">
				<g id="schematic_10_">
					<path id="connector0pin_10_" fill="none" stroke="#787878" stroke-width="2" stroke-linecap="round" d="M105.253,342.487
						v-15.688"/>
					<g id="connector0terminal_10_">
					</g>
					<path id="path4098_3_" fill="none" stroke="#000000" stroke-width="2" stroke-linecap="round" d="M90.649,342.717h29.209"/>
					<path id="path4100_3_" fill="none" stroke="#000000" stroke-width="2" stroke-linecap="round" d="M95.517,348.669h19.396"/>
					<path id="path4102_3_" fill="none" stroke="#000000" stroke-width="2" stroke-linecap="round" d="M110.121,354.618h-9.736"/>
				</g>
			</g>
		</g>
		<g>
			
				<line fill="none" stroke="#404040" stroke-width="2" stroke-linecap="round" x1="299.464" y1="415.5" x2="299.696" y2="394.945"/>
		</g>
		<g>
			
				<line fill="none" stroke="#404040" stroke-width="2" stroke-linecap="round" x1="435.541" y1="415.5" x2="435.232" y2="394.945"/>
		</g>
		<g>
			
				<line fill="none" stroke="#404040" stroke-width="2" stroke-linecap="round" x1="532.132" y1="320.377" x2="531.977" y2="300.598"/>
		</g>
		<g>
			
				<line fill="none" stroke="#404040" stroke-width="2" stroke-linecap="round" x1="299.619" y1="332.51" x2="299.696" y2="347.965"/>
		</g>
		<g>
			
				<line fill="none" stroke="#404040" stroke-width="2" stroke-linecap="round" x1="435.232" y1="317.209" x2="435.232" y2="347.965"/>
		</g>
		<g>
			
				<line fill="none" stroke="#404040" stroke-width="2" stroke-linecap="round" x1="531.592" y1="221.006" x2="531.977" y2="237.928"/>
		</g>
		<circle cx="531.977" cy="237.928" r="3.168"/>
		<g>
			
				<line fill="none" stroke="#404040" stroke-width="2" stroke-linecap="round" x1="264.459" y1="238.623" x2="531.977" y2="237.852"/>
		</g>
		<circle cx="531.977" cy="237.928" r="3.168"/>
		<g>
			
				<line fill="none" stroke="#404040" stroke-width="2" stroke-linecap="round" x1="299.619" y1="269.842" x2="265.232" y2="269.918"/>
		</g>
		<g>
			
				<line fill="none" stroke="#404040" stroke-width="2" stroke-linecap="round" x1="435.232" y1="254.695" x2="264.459" y2="254.156"/>
		</g>
		<g>
			
				<line fill="none" stroke="#404040" stroke-width="2" stroke-linecap="round" x1="139.896" y1="144.582" x2="139.896" y2="123.024"/>
		</g>
		<g>
			
				<line fill="none" stroke="#404040" stroke-width="2" stroke-linecap="round" x1="531.592" y1="123.024" x2="531.592" y2="160.5"/>
		</g>
		<g>
			
				<line fill="none" stroke="#404040" stroke-width="2" stroke-linecap="round" x1="139.896" y1="123.024" x2="531.592" y2="123.024"/>
		</g>
		
			<line fill="none" stroke="#404040" stroke-width="2" stroke-linecap="round" x1="155.66" y1="515.723" x2="155.582" y2="504.057"/>
		<g id="Braille">
		</g>
	</g>
	<g id="plaintext" display="none">
		<g id="partLabel_28_" display="inline">
			<g transform="translate(12.8,4.94822)">
				<g id="schematicLabel_28_">
					<text transform="matrix(1 0 0 1 39.0154 239.3281)" font-family="'ArialMT'" font-size="10.8749">U1</text>
				</g>
			</g>
		</g>
		<g id="partLabel_2_" display="inline">
			<g transform="translate(12.8,4.94822)">
				<g id="schematicLabel_2_">
					<text transform="matrix(1 0 0 1 6.5608 187.8135)" font-family="'ArialMT'" font-size="10.8749">Digital input, 2 digital outputs</text>
				</g>
			</g>
		</g>
		<g id="partLabel_20_" display="inline">
			<g transform="translate(214.282,28.9157)">
				<g id="schematicLabel_20_">
					<text transform="matrix(1 0 0 1 271.8674 245.5179)" font-family="'ArialMT'" font-size="10.8749">S1</text>
				</g>
			</g>
		</g>
		<g id="partLabel_19_" display="inline">
			<g transform="translate(203.431,62.6874)">
				<g id="schematicLabel_19_">
					<text transform="matrix(1 0 0 1 336.3893 316.1095)" font-family="'ArialMT'" font-size="10.8749">R1</text>
					<text transform="matrix(1 0 0 1 336.3893 326.9845)" font-family="'ArialMT'" font-size="10.8749">10kΩ</text>
				</g>
			</g>
		</g>
		<g id="partLabel_18_" display="inline">
			<g transform="translate(169.729,71.5158)">
				<g id="schematicLabel_18_">
					<text transform="matrix(1 0 0 1 273.6079 326.4832)" font-family="'ArialMT'" font-size="10.8749">R2</text>
					<text transform="matrix(1 0 0 1 273.6079 337.3572)" font-family="'ArialMT'" font-size="10.8749">220Ω</text>
				</g>
			</g>
		</g>
		<g id="partLabel_17_" display="inline">
			<g transform="translate(128.695,78.7673)">
				<g id="schematicLabel_17_">
					<text transform="matrix(1 0 0 1 171.3016 327.2756)" font-family="'ArialMT'" font-size="10.8749">R3</text>
					<text transform="matrix(1 0 0 1 171.3016 338.1516)" font-family="'ArialMT'" font-size="10.8749">220Ω</text>
				</g>
			</g>
		</g>
		<g id="partLabel_16_" display="inline">
			<g transform="translate(169.878,112.904)">
				<g id="schematicLabel_16_">
					<text transform="matrix(1 0 0 1 281.5107 367.387)" font-family="'ArialMT'" font-size="10.8749">LED1</text>
				</g>
			</g>
		</g>
		<g id="partLabel_15_" display="inline">
			<g transform="translate(129.266,112.873)">
				<g id="schematicLabel_15_">
					<text transform="matrix(1 0 0 1 171.9737 367.3506)" font-family="'ArialMT'" font-size="10.8749">LED2</text>
				</g>
			</g>
		</g>
		
			<text transform="matrix(1 0 0 1 204.5654 316.0107)" display="inline" fill="#8C8C8C" font-family="'ArialMT'" font-size="7.6125">D2</text>
		
			<text transform="matrix(1 0 0 1 204.5654 331.6729)" display="inline" fill="#8C8C8C" font-family="'ArialMT'" font-size="7.6125">D3</text>
		<text transform="matrix(1 0 0 1 204.5654 347.332)" display="inline" fill="#8C8C8C" font-family="'ArialMT'" font-size="7.6125">D4</text>
		<g transform="matrix(1, 0, 0, 1, 58.2999, 149.45)" display="inline">
			<g>
				<g transform="rotate(270)">
					<g>
						<text transform="matrix(1 0 0 1 -396.132 86.0868)" fill="#8C8C8C" font-family="'ArialMT'" font-size="7.6125">GND</text>
					</g>
				</g>
			</g>
		</g>
		<g transform="matrix(1, 0, 0, 1, 36.6999, 16.15)" display="inline">
			<g>
				<g transform="rotate(270)">
					<g>
						<text transform="matrix(1 0 0 1 -253.0511 60.7083)" fill="#8C8C8C" font-family="'ArialMT'" font-size="7.6125">3V3</text>
					</g>
				</g>
			</g>
		</g>
		<g transform="matrix(1, 0, 0, 1, 51.0999, 16.15)" display="inline">
			<g>
				<g transform="rotate(270)">
					<g>
						<text transform="matrix(1 0 0 1 -248.8168 77.6267)" fill="#8C8C8C" font-family="'ArialMT'" font-size="7.6125">5V</text>
					</g>
				</g>
			</g>
		</g>
		<g transform="matrix(1, 0, 0, 1, 65.4999, 16.15)" display="inline">
			<g>
				<g transform="rotate(270)">
					<g>
						<text transform="matrix(1 0 0 1 -252.1937 94.5489)" fill="#8C8C8C" font-family="'ArialMT'" font-size="7.6125">VIN</text>
					</g>
				</g>
			</g>
		</g>
	</g>
	<g id="Braille_1_">
		<g id="partLabel_13_">
			<g transform="translate(12.8,4.94822)">
				<g id="schematicLabel_13_">
					<text transform="matrix(1 0 0 1 17.6585 146.1475)" font-family="'AppleBraille'" font-size="30">⠠⠥⠼⠁</text>
				</g>
			</g>
		</g>
		<g id="partLabel_1_" display="none">
			<g transform="translate(12.8,4.94822)" display="inline">
				<g id="schematicLabel_1_">
					<text transform="matrix(1 0 0 1 2.2508 180.3428)" font-family="'AppleBraille'" font-size="18.5455">⠠⠥⠁</text>
				</g>
			</g>
		</g>
		<g id="partLabel_12_">
			<g transform="translate(214.282,28.9157)">
				<g id="schematicLabel_12_">
					<text transform="matrix(1 0 0 1 347.6399 168.7415)" font-family="'AppleBraille'" font-size="30">⠠⠎⠼⠁</text>
				</g>
			</g>
		</g>
		<g id="partLabel_11_">
			<g transform="translate(203.431,62.6874)">
				<g id="schematicLabel_11_">
					<text transform="matrix(1 0 0 1 337.7077 209.299)" font-family="'AppleBraille'" font-size="30">⠠⠗⠼⠁</text>
				</g>
			</g>
		</g>
		<g id="partLabel_10_">
			<g transform="translate(169.729,71.5158)">
				<g id="schematicLabel_10_">
					<text transform="matrix(1 0 0 1 269.6362 234.6707)" font-family="'AppleBraille'" font-size="30">⠠⠗⠼⠃</text>
				</g>
			</g>
		</g>
		<g id="partLabel_9_">
			<g transform="translate(128.695,78.7673)">
				<g id="schematicLabel_9_">
					<text transform="matrix(1 0 0 1 181.2845 236.1926)" font-family="'AppleBraille'" font-size="30">⠠⠗⠼⠉</text>
				</g>
			</g>
		</g>
		<g id="partLabel_8_">
			<g transform="translate(169.878,112.904)">
				<g id="schematicLabel_8_">
					<text transform="matrix(1 0 0 1 272.3466 282.428)" font-family="'AppleBraille'" font-size="30">⠠⠇⠠⠑⠠⠙⠼⠁</text>
				</g>
			</g>
		</g>
		<g id="partLabel_7_">
			<g transform="translate(129.266,112.873)">
				<g id="schematicLabel_7_">
					<text transform="matrix(1 0 0 1 169.8512 304.1973)" font-family="'AppleBraille'" font-size="30">⠠⠇⠠⠑⠠⠙</text>
					<text transform="matrix(1 0 0 1 174.8512 335.1973)" font-family="'AppleBraille'" font-size="30"> ⠼⠃</text>
				</g>
			</g>
		</g>
		<text transform="matrix(1 0 0 1 155.4912 241.2334)" font-family="'AppleBraille'" font-size="30">⠠⠙⠼⠃</text>
		<text transform="matrix(1 0 0 1 149.9067 267.0234)" font-family="'AppleBraille'" font-size="30">⠠⠙⠼⠉</text>
		<text transform="matrix(1 0 0 1 146.4912 291.8916)" font-family="'AppleBraille'" font-size="30">⠠⠙⠼⠙</text>
		<g transform="matrix(1, 0, 0, 1, 58.2999, 149.45)">
			<g>
				<g transform="rotate(270)">
					<g>
						<text transform="matrix(0 -1 1 0 -289.9523 152.9521)" font-family="'AppleBraille'" font-size="30">⠠⠠⠛⠝⠙</text>
					</g>
				</g>
			</g>
		</g>
		<g transform="matrix(1, 0, 0, 1, 51.0999, 16.15)">
			<g>
				<g transform="rotate(270)">
					<g>
						<text transform="matrix(0 1 -1 0 -192.5824 40.4523)" font-family="'AppleBraille'" font-size="30">⠼⠑⠠⠠⠧</text>
					</g>
				</g>
			</g>
		</g>
		<g id="partLabel_3_">
			<g transform="translate(12.8,4.94822)">
				<g id="schematicLabel_3_">
					<text transform="matrix(1 0 0 1 5.783 51.1309)" font-family="'AppleBraille'" font-size="30">⠠⠙⠊⠛⠊⠞⠁⠇ ⠊⠝⠏⠥⠞⠂ ⠙⠊⠛⠊⠞⠁⠇ ⠕⠥⠞⠏⠥⠞⠎ </text>
				</g>
			</g>
		</g>
	</g>
</g>
<line fill="none" stroke="#000000" stroke-width="4" stroke-miterlimit="10" x1="23.133" y1="-0.699" x2="0.914" y2="21.52"/>
<line fill="none" stroke="#000000" stroke-width="4" stroke-miterlimit="10" x1="37.539" y1="-4.199" x2="-4.086" y2="37.426"/>
<text transform="matrix(1 0 0 1 142.6167 239.333)" fill="#8C8C8C" font-family="'ArialMT'" font-size="13.05">D2</text>
<text transform="matrix(1 0 0 1 136.4492 258.1211)" fill="#8C8C8C" font-family="'ArialMT'" font-size="13.05">D3</text>
<text transform="matrix(1 0 0 1 132.2144 282.4004)" fill="#8C8C8C" font-family="'ArialMT'" font-size="13.05">D4</text>
<text transform="matrix(1 0 0 1 137.2144 422.6602)" fill="#8C8C8C" font-family="'ArialMT'" font-size="13.05">GND</text>
<g id="partLabel_22_">
	<g transform="translate(214.282,28.9157)">
		<g id="schematicLabel_22_">
			<text transform="matrix(1 0 0 1 369.928 188.2698)" fill="#939597" font-family="'ArialMT'" font-size="13.0465">S1</text>
		</g>
	</g>
</g>
<g id="partLabel_21_">
	<g transform="translate(203.431,62.6874)">
		<g id="schematicLabel_21_">
			<text transform="matrix(1 0 0 1 354.9528 232.3048)" fill="#939597" font-family="'ArialMT'" font-size="13.0465">R1</text>
		</g>
	</g>
</g>
<g id="partLabel_14_">
	<g transform="translate(169.729,71.5158)">
		<g id="schematicLabel_14_">
			<text transform="matrix(1 0 0 1 279.8315 254.1102)" fill="#939597" font-family="'ArialMT'" font-size="13.0465">R2</text>
		</g>
	</g>
</g>
<g id="partLabel_4_">
	<g transform="translate(128.695,78.7673)">
		<g id="schematicLabel_4_">
			<text transform="matrix(1 0 0 1 186.764 257.4387)" fill="#939597" font-family="'ArialMT'" font-size="13.0465">R3</text>
		</g>
	</g>
</g>
<g id="partLabel_5_">
	<g transform="translate(169.878,112.904)">
		<g id="schematicLabel_5_">
			<text transform="matrix(1 0 0 1 279.0908 303.3646)" fill="#939597" font-family="'ArialMT'" font-size="13.0465">LED1</text>
		</g>
	</g>
</g>
<g id="partLabel_6_">
	<g transform="translate(129.266,112.873)">
		<g id="schematicLabel_6_">
			<text transform="matrix(1 0 0 1 185.3697 356.9512)" fill="#939597" font-family="'ArialMT'" font-size="13.0465">LED2</text>
		</g>
	</g>
</g>
<text transform="matrix(1 0 0 1 96.2271 222.8125)" fill="#8C8C8C" font-family="'ArialMT'" font-size="13.05">5V</text>
<text transform="matrix(1 0 0 1 37.3047 165.1377)" fill="#8C8C8C" font-family="'ArialMT'" font-size="13.05">U1</text>
<text transform="matrix(1 0 0 1 24.3501 83.8975)" fill="#939597" font-family="'Helvetica'" font-size="21">Digital Input, digital outputs</text>
<text transform="matrix(1 0 0 1 370.5078 490.9561)" font-family="'AppleBraille'" font-size="30">⠠⠅⠑⠽</text>
<text transform="matrix(1 0 0 1 370.5078 526.9561)" font-family="'AppleBraille'" font-size="30">⠠⠗⠼⠁ ⠤ ⠼⠁⠚ ⠨⠺ ⠗⠑⠎⠊⠎⠞⠕⠗</text>
<text transform="matrix(1 0 0 1 370.5078 562.9561)" font-family="'AppleBraille'" font-size="30">⠠⠗⠼⠃ ⠁⠝⠙ ⠠⠗⠼⠉ ⠤ </text>
<text transform="matrix(1 0 0 1 370.5078 598.9561)" font-family="'AppleBraille'" font-size="30">⠼⠃⠃⠚ ⠨⠺ ⠗⠑⠎⠊⠎⠞⠕⠗⠎</text>
<text transform="matrix(1 0 0 1 370.5078 634.9561)" font-family="'AppleBraille'" font-size="30"> </text>
<g>
	<text transform="matrix(1 0 0 1 181.4966 563.0996)" fill="#939597" font-family="'ArialMT'" font-size="14">Key</text>
	<text transform="matrix(1 0 0 1 181.4966 579.9004)" fill="#939597" font-family="'ArialMT'" font-size="14">R1 - </text>
	<text transform="matrix(1 0 0 1 211.8345 579.9004)" fill="#939597" font-family="'ArialMT'" font-size="13.0465">10kΩ</text>
	<text transform="matrix(1 0 0 1 242.6226 579.9004)" fill="#939597" font-family="'ArialMT'" font-size="14"> resistor</text>
	<text transform="matrix(1 0 0 1 181.4966 596.6992)" fill="#939597" font-family="'ArialMT'" font-size="14">R2 and R3 - </text>
	<text transform="matrix(1 0 0 1 260.8687 596.6992)" fill="#939597" font-family="'ArialMT'" font-size="13.0465">220Ω</text>
	<text transform="matrix(1 0 0 1 292.3896 596.6992)" fill="#939597" font-family="'ArialMT'" font-size="14"> resistors</text>
</g>
</svg>
