<?xml version="1.0" encoding="utf-8"?>
<!-- Generator: Adobe Illustrator 21.1.0, SVG Export Plug-In . SVG Version: 6.00 Build 0)  -->
<svg version="1.1" xmlns="http://www.w3.org/2000/svg" xmlns:xlink="http://www.w3.org/1999/xlink" x="0px" y="0px"
	 viewBox="0 0 792 612" style="enable-background:new 0 0 792 612;" xml:space="preserve">
<style type="text/css">
	.st0{fill:#FFFFFF;stroke:#000000;stroke-width:2;stroke-linecap:round;}
	.st1{fill:none;stroke:#787878;stroke-width:2;stroke-linecap:round;}
	.st2{fill:none;}
	.st3{fill:none;stroke:#000000;stroke-width:2;stroke-linecap:round;}
	.st4{fill:none;stroke:#000000;stroke-width:2;}
	.st5{fill:none;stroke:#555555;stroke-width:2;stroke-linecap:round;}
	.st6{fill:#FFFFFF;}
	.st7{fill:#787878;}
	.st8{fill:none;stroke:#404040;stroke-width:2;stroke-linecap:round;}
	.st9{display:none;}
	.st10{display:inline;}
	.st11{font-family:'ArialMT';}
	.st12{font-size:14.0734px;}
	.st13{display:inline;fill:#8C8C8C;}
	.st14{font-size:9.8515px;}
	.st15{fill:#8C8C8C;}
	.st16{font-family:'AppleBraille';}
	.st17{font-size:24px;}
	.st18{enable-background:new    ;}
</style>
<g id="Layer_1">
	<rect x="60.8" y="122.7" class="st0" width="220.4" height="382.5"/>
	<line id="connector61pin" class="st1" x1="281.4" y1="161.9" x2="322" y2="161.9"/>
	<g id="connector61terminal">
	</g>
	<line id="connector62pin" class="st1" x1="281.4" y1="182.2" x2="322" y2="182.2"/>
	<g id="connector62terminal">
	</g>
	<line id="connector63pin" class="st1" x1="281.4" y1="202.5" x2="322" y2="202.5"/>
	<g id="connector63terminal">
	</g>
	<line id="connector64pin" class="st1" x1="281.4" y1="222.8" x2="322" y2="222.8"/>
	<g id="connector64terminal">
	</g>
	<line id="connector65pin" class="st1" x1="281.4" y1="243.1" x2="322" y2="243.1"/>
	<g id="connector65terminal">
	</g>
	<line id="connector66pin" class="st1" x1="281.4" y1="263.3" x2="322" y2="263.3"/>
	<g id="connector66terminal">
	</g>
	<line id="connector67pin" class="st1" x1="281.4" y1="283.5" x2="322" y2="283.5"/>
	<g id="connector67terminal">
	</g>
	<line id="connector68pin" class="st1" x1="281.4" y1="303.8" x2="322" y2="303.8"/>
	<g id="connector68terminal">
	</g>
	<line id="connector51pin" class="st1" x1="281.4" y1="324.1" x2="322" y2="324.1"/>
	<g id="connector51terminal">
	</g>
	<line id="connector52pin" class="st1" x1="281.4" y1="344.4" x2="322" y2="344.4"/>
	<g id="connector52terminal">
	</g>
	<line id="connector53pin" class="st1" x1="281.4" y1="364.6" x2="322" y2="364.6"/>
	<g id="connector53terminal">
	</g>
	<line id="connector54pin" class="st1" x1="281.4" y1="384.9" x2="322" y2="384.9"/>
	<g id="connector54terminal">
	</g>
	<line id="connector55pin" class="st1" x1="281.4" y1="405.2" x2="322" y2="405.2"/>
	<g id="connector55terminal">
	</g>
	<line id="connector41pin" class="st2" x1="281.4" y1="425.5" x2="322" y2="425.5"/>
	<rect id="connector41terminal" x="322" y="424.4" class="st2" width="1.9" height="1.9"/>
	<line id="connector56pin" class="st1" x1="281.4" y1="425.5" x2="322" y2="425.5"/>
	<g id="connector56terminal">
	</g>
	<line id="connector43pin" class="st2" x1="19.9" y1="161.9" x2="60.5" y2="161.9"/>
	<rect id="connector43terminal" x="18" y="161" class="st2" width="1.9" height="1.9"/>
	<line id="connector85pin" class="st1" x1="19.9" y1="161.9" x2="60.5" y2="161.9"/>
	<g id="connector85terminal">
	</g>
	<line id="connector49pin" class="st1" x1="19.9" y1="182.2" x2="60.5" y2="182.2"/>
	<rect id="connector49terminal" x="18" y="181.2" class="st2" width="1.9" height="1.9"/>
	<line id="connector58pin" class="st1" x1="19.9" y1="202.5" x2="60.5" y2="202.5"/>
	<g id="connector58terminal">
	</g>
	<line id="connector84pin" class="st1" x1="19.9" y1="222.8" x2="60.5" y2="222.8"/>
	<g id="connector84terminal">
	</g>
	<line id="connector0pin" class="st1" x1="19.9" y1="263.3" x2="60.5" y2="263.3"/>
	<g id="connector0terminal">
	</g>
	<line id="connector1pin" class="st1" x1="19.9" y1="283.5" x2="60.5" y2="283.5"/>
	<g id="connector1terminal">
	</g>
	<line id="connector2pin" class="st1" x1="19.9" y1="303.8" x2="60.5" y2="303.8"/>
	<g id="connector2terminal">
	</g>
	<line id="connector3pin" class="st1" x1="19.9" y1="324.1" x2="60.5" y2="324.1"/>
	<g id="connector3terminal">
	</g>
	<line id="connector48pin" class="st2" x1="19.9" y1="344.4" x2="60.5" y2="344.4"/>
	<rect id="connector48terminal" x="18" y="343.4" class="st2" width="1.9" height="1.9"/>
	<line id="connector45pin" class="st2" x1="19.9" y1="344.4" x2="60.5" y2="344.4"/>
	<rect id="connector45terminal" x="18" y="343.4" class="st2" width="1.9" height="1.9"/>
	<line id="connector4pin" class="st2" x1="19.9" y1="344.4" x2="60.5" y2="344.4"/>
	<g id="connector4terminal">
	</g>
	<line id="connector39pin" class="st2" x1="19.9" y1="344.4" x2="60.5" y2="344.4"/>
	<rect id="connector39terminal" x="18" y="343.4" class="st2" width="1.9" height="1.9"/>
	<line id="connector47pin" class="st2" x1="19.9" y1="344.4" x2="60.5" y2="344.4"/>
	<rect id="connector47terminal" x="18" y="343.4" class="st2" width="1.9" height="1.9"/>
	<line id="connector42pin" class="st2" x1="19.9" y1="344.4" x2="60.5" y2="344.4"/>
	<rect id="connector42terminal" x="18" y="343.4" class="st2" width="1.9" height="1.9"/>
	<line id="connector59pin" class="st1" x1="19.9" y1="344.4" x2="60.5" y2="344.4"/>
	<g id="connector59terminal">
	</g>
	<line id="connector5pin" class="st2" x1="19.9" y1="364.6" x2="60.5" y2="364.6"/>
	<g id="connector5terminal">
	</g>
	<line id="connector60pin" class="st1" x1="19.9" y1="364.6" x2="60.5" y2="364.6"/>
	<g id="connector60terminal">
	</g>
	<line id="connector91pin" class="st1" x1="19.9" y1="465.9" x2="60.5" y2="465.9"/>
	<g id="connector91terminal">
	</g>
	<line id="connector88pin" class="st2" x1="181.1" y1="505.5" x2="181.1" y2="546.1"/>
	<g id="connector88terminal">
	</g>
	<line id="connector57pin" class="st2" x1="181.1" y1="505.5" x2="181.1" y2="546.1"/>
	<g id="connector57terminal">
	</g>
	<line id="connector44pin" class="st2" x1="181.1" y1="505.5" x2="181.1" y2="546.1"/>
	<rect id="connector44terminal" x="180.1" y="546.1" class="st2" width="1.9" height="1.9"/>
	<line id="connector50pin" class="st2" x1="181.1" y1="505.5" x2="181.1" y2="546.1"/>
	<rect id="connector50terminal" x="180.1" y="546.1" class="st2" width="1.9" height="1.9"/>
	<line id="connector89pin" class="st1" x1="181.1" y1="505.5" x2="181.1" y2="546.1"/>
	<g id="connector89terminal">
	</g>
	<line id="connector86pin" class="st1" x1="120.3" y1="81.9" x2="120.3" y2="122.5"/>
	<g id="connector86terminal">
	</g>
	<line id="connector40pin" class="st2" x1="160.8" y1="81.9" x2="160.8" y2="122.5"/>
	<rect id="connector40terminal" x="159.9" y="80" class="st2" width="1.9" height="1.9"/>
	<line id="connector46pin" class="st2" x1="160.8" y1="81.9" x2="160.8" y2="122.5"/>
	<rect id="connector46terminal" x="159.9" y="80" class="st2" width="1.9" height="1.9"/>
	<line id="connector87pin" class="st1" x1="160.8" y1="81.9" x2="160.8" y2="122.5"/>
	<g id="connector87terminal">
	</g>
	<line id="connector90pin" class="st1" x1="201.4" y1="81.9" x2="201.4" y2="122.5"/>
	<g id="connector90terminal">
	</g>
	<line class="st3" x1="668.1" y1="262.5" x2="660.1" y2="259.5"/>
	<line class="st3" x1="660.1" y1="259.5" x2="676.2" y2="254.4"/>
	<line class="st3" x1="676.2" y1="254.4" x2="660.1" y2="249.3"/>
	<line class="st3" x1="660.1" y1="249.3" x2="676.2" y2="244.3"/>
	<line class="st3" x1="676.2" y1="244.3" x2="660.1" y2="239.2"/>
	<line class="st3" x1="660.1" y1="239.2" x2="676.2" y2="234.1"/>
	<line class="st3" x1="676.2" y1="234.1" x2="660.1" y2="229.1"/>
	<line class="st3" x1="660.1" y1="229.1" x2="676.2" y2="224"/>
	<line class="st3" x1="676.2" y1="224" x2="668.1" y2="222.1"/>
	<line id="connector1pin_1_" class="st1" x1="668.1" y1="201.8" x2="668.1" y2="222.1"/>
	<g id="connector1terminal_1_">
	</g>
	<line id="connector0pin_1_" class="st1" x1="668.1" y1="282.8" x2="668.1" y2="262.5"/>
	<g id="connector0terminal_1_">
	</g>
	<line class="st3" x1="688" y1="125.3" x2="688" y2="120.2"/>
	<line class="st3" x1="688" y1="160.8" x2="677.8" y2="125.3"/>
	<circle class="st4" cx="688" cy="160.8" r="1"/>
	<circle class="st4" cx="688" cy="120.2" r="1"/>
	<line class="st3" x1="667.7" y1="120.2" x2="708.2" y2="120.2"/>
	<line class="st3" x1="667.7" y1="160.8" x2="708.2" y2="160.8"/>
	<line id="connector3pin_1_" class="st5" x1="708.2" y1="180.1" x2="708.2" y2="160.8"/>
	<line id="connector2pin_1_" class="st5" x1="667.7" y1="180.1" x2="667.7" y2="160.8"/>
	<g id="connector2terminal_1_">
	</g>
	<g id="connector3terminal_1_">
	</g>
	<line id="connector1pin_2_" class="st5" x1="708.2" y1="100.9" x2="708.2" y2="120.2"/>
	<g id="connector1terminal_2_">
	</g>
	<g id="connector0terminal_2_">
	</g>
	<line id="connector0pin_2_" class="st5" x1="667.7" y1="100.9" x2="667.7" y2="120.2"/>
	<line class="st3" x1="543.1" y1="243.6" x2="551.2" y2="246.6"/>
	<line class="st3" x1="551.2" y1="246.6" x2="534.9" y2="251.7"/>
	<line class="st3" x1="534.9" y1="251.7" x2="551.2" y2="256.7"/>
	<line class="st3" x1="551.2" y1="256.7" x2="534.9" y2="261.8"/>
	<line class="st3" x1="534.9" y1="261.8" x2="551.2" y2="266.9"/>
	<line class="st3" x1="551.2" y1="266.9" x2="534.9" y2="271.9"/>
	<line class="st3" x1="534.9" y1="271.9" x2="551.2" y2="277"/>
	<line class="st3" x1="551.2" y1="277" x2="534.9" y2="282.1"/>
	<line class="st3" x1="534.9" y1="282.1" x2="543.1" y2="284"/>
	<line id="connector1pin_3_" class="st1" x1="543.1" y1="304.3" x2="543.1" y2="284"/>
	<g id="connector1terminal_3_">
	</g>
	<line id="connector0pin_3_" class="st1" x1="543.1" y1="223.3" x2="543.1" y2="243.6"/>
	<g id="connector0terminal_3_">
	</g>
	<line class="st3" x1="367.5" y1="263.2" x2="375.6" y2="266.3"/>
	<line class="st3" x1="375.6" y1="266.3" x2="359.4" y2="271.3"/>
	<line class="st3" x1="359.4" y1="271.3" x2="375.6" y2="276.4"/>
	<line class="st3" x1="375.6" y1="276.4" x2="359.4" y2="281.4"/>
	<line class="st3" x1="359.4" y1="281.4" x2="375.6" y2="286.5"/>
	<line class="st3" x1="375.6" y1="286.5" x2="359.4" y2="291.6"/>
	<line class="st3" x1="359.4" y1="291.6" x2="375.6" y2="296.6"/>
	<line class="st3" x1="375.6" y1="296.6" x2="359.4" y2="301.7"/>
	<line class="st3" x1="359.4" y1="301.7" x2="367.5" y2="303.8"/>
	<line id="connector1pin_4_" class="st1" x1="367.5" y1="324" x2="367.5" y2="303.8"/>
	<g id="connector1terminal_4_">
	</g>
	<line id="connector0pin_4_" class="st1" x1="367.5" y1="242.9" x2="367.5" y2="263.2"/>
	<g id="connector0terminal_4_">
	</g>
	<path d="M553.1,385.6H543c-0.5,0-1-0.4-1-1s0.4-1,1-1h10.1c0.5,0,1,0.4,1,1C554.2,385.2,553.8,385.6,553.1,385.6z"/>
	<path d="M543.1,385.6H533c-0.5,0-1-0.4-1-1s0.4-1,1-1h10.1c0.5,0,1,0.4,1,1S543.7,385.6,543.1,385.6z"/>
	<polygon class="st6" points="543.1,384.6 533,364.3 543.1,364.3 553.1,364.3 	"/>
	<path d="M543.1,386.8l-11.8-23.4h23.4L543.1,386.8z M534.5,365.3l8.5,17l8.5-17H534.5z"/>
	<path d="M543.1,385.3c-0.3,0-0.6-0.3-0.6-0.6v-20.3c0-0.3,0.3-0.6,0.6-0.6c0.3,0,0.6,0.3,0.6,0.6v20.3
		C543.7,385,543.4,385.3,543.1,385.3z"/>
	<path d="M520.2,377.6c-0.1,0-0.3-0.1-0.4-0.2c-0.2-0.2-0.2-0.6,0-0.9l6.6-6.6c0.2-0.2,0.6-0.2,0.9,0c0.2,0.2,0.2,0.6,0,0.9
		l-6.6,6.6C520.6,377.6,520.5,377.6,520.2,377.6z"/>
	<path d="M521.3,386.8c-0.1,0-0.3-0.1-0.4-0.2c-0.2-0.2-0.2-0.6,0-0.9l6.6-6.6c0.2-0.2,0.6-0.2,0.9,0c0.2,0.2,0.2,0.6,0,0.9
		l-6.6,6.6C521.7,386.7,521.4,386.8,521.3,386.8z"/>
	<path class="st7" d="M543.1,405.9c-0.5,0-1-0.4-1-1v-20.3c0-0.5,0.4-1,1-1c0.5,0,1,0.4,1,1v20.3
		C544.1,405.4,543.7,405.9,543.1,405.9z"/>
	<polygon class="st2" points="543.1,404.9 543.1,404.9 543.1,404.9 	"/>
	<path class="st7" d="M543.1,365.3c-0.5,0-1-0.4-1-1v-20.3c0-0.5,0.4-1,1-1c0.5,0,1,0.4,1,1v20.3
		C544.1,364.9,543.7,365.3,543.1,365.3z"/>
	<path class="st2" d="M543.1,344.1L543.1,344.1L543.1,344.1z"/>
	<path d="M515.7,381.6l3-7.1l4.1,4.1L515.7,381.6z"/>
	<path d="M516.7,390.7l3-7.1l4.1,4.1L516.7,390.7z"/>
	<path d="M377.8,385.6h-10.1c-0.5,0-1-0.4-1-1s0.4-1,1-1h10.1c0.5,0,1,0.4,1,1S378.4,385.6,377.8,385.6z"/>
	<path d="M367.7,385.6h-10.1c-0.5,0-1-0.4-1-1s0.4-1,1-1h10.1c0.5,0,1,0.4,1,1S368.2,385.6,367.7,385.6z"/>
	<polygon class="st6" points="367.7,384.6 357.5,364.3 367.7,364.3 377.8,364.3 	"/>
	<path d="M367.7,386.8l-11.8-23.4h23.4L367.7,386.8z M359.1,365.3l8.5,17l8.5-17H359.1z"/>
	<path d="M367.7,385.3c-0.3,0-0.6-0.3-0.6-0.6v-20.3c0-0.3,0.3-0.6,0.6-0.6s0.6,0.3,0.6,0.6v20.3C368.2,385,368,385.3,367.7,385.3z"
		/>
	<path d="M344.8,377.6c-0.1,0-0.3-0.1-0.4-0.2c-0.2-0.2-0.2-0.6,0-0.9l6.6-6.6c0.2-0.2,0.6-0.2,0.9,0c0.2,0.2,0.2,0.6,0,0.9
		l-6.6,6.6C345.1,377.6,345,377.6,344.8,377.6z"/>
	<path d="M345.9,386.8c-0.1,0-0.3-0.1-0.4-0.2c-0.2-0.2-0.2-0.6,0-0.9l6.6-6.6c0.2-0.2,0.6-0.2,0.9,0c0.2,0.2,0.2,0.6,0,0.9
		l-6.6,6.6C346.2,386.7,346,386.8,345.9,386.8z"/>
	<path class="st7" d="M367.7,405.9c-0.5,0-1-0.4-1-1v-20.3c0-0.5,0.4-1,1-1s1,0.4,1,1v20.3C368.7,405.4,368.2,405.9,367.7,405.9z"/>
	<polygon class="st2" points="367.7,404.9 367.7,404.9 367.7,404.9 	"/>
	<path class="st7" d="M367.7,365.3c-0.5,0-1-0.4-1-1v-20.3c0-0.5,0.4-1,1-1s1,0.4,1,1v20.3C368.7,364.9,368.2,365.3,367.7,365.3z"/>
	<path class="st2" d="M367.7,344.1L367.7,344.1L367.7,344.1z"/>
	<path d="M340.3,381.6l3-7.1l4.1,4.1L340.3,381.6z"/>
	<path d="M341.3,390.7l3-7.1l4.1,4.1L341.3,390.7z"/>
	<g>
		<g transform="translate(116.561,135.05)">
			<g id="schematic_7_">
				<path id="connector0pin_7_" class="st1" d="M250.8,316.5v-20.3"/>
				<g id="connector0terminal_7_">
				</g>
				<path id="path4098" class="st3" d="M231.9,316.9h37.8"/>
				<path id="path4100" class="st3" d="M238.2,324.6h25.1"/>
				<path id="path4102" class="st3" d="M257,332.2h-12.5"/>
			</g>
		</g>
	</g>
	<g>
		<g transform="translate(157.788,135.05)">
			<g id="schematic_8_">
				<path id="connector0pin_8_" class="st1" d="M385.6,316.5v-20.3"/>
				<g id="connector0terminal_8_">
				</g>
				<path id="path4098_1_" class="st3" d="M366.7,316.9h37.8"/>
				<path id="path4100_1_" class="st3" d="M373,324.6h25.1"/>
				<path id="path4102_1_" class="st3" d="M391.9,332.2h-12.5"/>
			</g>
		</g>
	</g>
	<g>
		<g transform="translate(191.548,91.3167)">
			<g id="schematic_9_">
				<path id="connector0pin_9_" class="st1" d="M476.9,237.1v-20.3"/>
				<g id="connector0terminal_9_">
				</g>
				<path id="path4098_2_" class="st3" d="M458,237.5h37.8"/>
				<path id="path4100_2_" class="st3" d="M464.3,245.2h25.1"/>
				<path id="path4102_2_" class="st3" d="M483.2,252.8h-12.5"/>
			</g>
		</g>
	</g>
	<g>
		<g transform="translate(50.4276,181.183)">
			<g id="schematic_10_">
				<path id="connector0pin_10_" class="st1" d="M130.8,400.3V380"/>
				<g id="connector0terminal_10_">
				</g>
				<path id="path4098_3_" class="st3" d="M111.9,400.6h37.8"/>
				<path id="path4100_3_" class="st3" d="M118.2,408.3h25.1"/>
				<path id="path4102_3_" class="st3" d="M137.1,416h-12.6"/>
			</g>
		</g>
	</g>
	<g>
		<line class="st8" x1="367.3" y1="431.5" x2="367.6" y2="404.9"/>
	</g>
	<g>
		<line class="st8" x1="543.4" y1="431.5" x2="543" y2="404.9"/>
	</g>
	<g>
		<line class="st8" x1="668.4" y1="308.4" x2="668.2" y2="282.8"/>
	</g>
	<g>
		<line class="st8" x1="367.5" y1="324.1" x2="367.6" y2="344.1"/>
	</g>
	<g>
		<line class="st8" x1="543" y1="304.3" x2="543" y2="344.1"/>
	</g>
	<g>
		<line class="st8" x1="667.7" y1="179.8" x2="668.2" y2="201.7"/>
	</g>
	<circle cx="668.2" cy="201.7" r="4.1"/>
	<g>
		<line class="st8" x1="322" y1="202.6" x2="668.2" y2="201.6"/>
	</g>
	<circle cx="668.2" cy="201.7" r="4.1"/>
	<g>
		<line class="st8" x1="367.5" y1="243" x2="323" y2="243.1"/>
	</g>
	<g>
		<line class="st8" x1="543" y1="223.4" x2="322" y2="222.7"/>
	</g>
	<g>
		<line class="st8" x1="160.8" y1="80.9" x2="160.8" y2="53"/>
	</g>
	<g>
		<line class="st8" x1="667.7" y1="53" x2="667.7" y2="101.5"/>
	</g>
	<g>
		<line class="st8" x1="160.8" y1="53" x2="667.7" y2="53"/>
	</g>
	<line class="st8" x1="181.2" y1="561.2" x2="181.1" y2="546.1"/>
	<g id="Braille">
	</g>
</g>
<g id="plaintext" class="st9">
	<g id="partLabel_28_" class="st10">
		<g transform="translate(12.8,4.94822)">
			<g id="schematicLabel_28_">
				<text transform="matrix(1 0 0 1 53.7195 105.6082)" class="st11 st12">U1</text>
			</g>
		</g>
	</g>
	<g id="partLabel_2_" class="st10">
		<g transform="translate(12.8,4.94822)">
			<g id="schematicLabel_2_">
				<text transform="matrix(1 0 0 1 11.7195 38.9415)" class="st11 st12">Digital input, 2 digital outputs</text>
			</g>
		</g>
	</g>
	<g id="partLabel_20_" class="st10">
		<g transform="translate(214.282,28.9157)">
			<g id="schematicLabel_20_">
				<text transform="matrix(1 0 0 1 414.3166 120.6685)" class="st11 st12">S1</text>
			</g>
		</g>
	</g>
	<g id="partLabel_19_" class="st10">
		<g transform="translate(203.431,62.6874)">
			<g id="schematicLabel_19_">
				<text transform="matrix(1 0 0 1 494.6247 221.9545)" class="st11 st12">R1</text>
				<text transform="matrix(1 0 0 1 494.6247 236.0282)" class="st11 st12">10kΩ</text>
			</g>
		</g>
	</g>
	<g id="partLabel_18_" class="st10">
		<g transform="translate(169.729,71.5158)">
			<g id="schematicLabel_18_">
				<text transform="matrix(1 0 0 1 403.4653 237.9757)" class="st11 st12">R2</text>
				<text transform="matrix(1 0 0 1 403.4653 252.0474)" class="st11 st12">220Ω</text>
			</g>
		</g>
	</g>
	<g id="partLabel_17_" class="st10">
		<g transform="translate(128.695,78.7673)">
			<g id="schematicLabel_17_">
				<text transform="matrix(1 0 0 1 259.0003 241.1343)" class="st11 st12">R3</text>
				<text transform="matrix(1 0 0 1 259.0003 255.209)" class="st11 st12">220Ω</text>
			</g>
		</g>
	</g>
	<g id="partLabel_16_" class="st10">
		<g transform="translate(169.878,112.904)">
			<g id="schematicLabel_16_">
				<text transform="matrix(1 0 0 1 413.7362 303.0831)" class="st11 st12">LED1</text>
			</g>
		</g>
	</g>
	<g id="partLabel_15_" class="st10">
		<g transform="translate(129.266,112.873)">
			<g id="schematicLabel_15_">
				<text transform="matrix(1 0 0 1 260.0377 303.0272)" class="st11 st12">LED2</text>
			</g>
		</g>
	</g>
	<text transform="matrix(1 0 0 1 264.1958 203.3894)" class="st13 st11 st14">D2</text>
	<text transform="matrix(1 0 0 1 264.1958 223.6575)" class="st13 st11 st14">D3</text>
	<text transform="matrix(1 0 0 1 264.1958 243.9226)" class="st13 st11 st14">D4</text>
	<g transform="matrix(1, 0, 0, 1, 58.2999, 149.45)" class="st10">
		<g>
			<g transform="rotate(270)">
				<g>
					<text transform="matrix(1 0 0 1 -351.0312 128.0185)" class="st15 st11 st14">GND</text>
				</g>
			</g>
		</g>
	</g>
	<g transform="matrix(1, 0, 0, 1, 36.6999, 16.15)" class="st10">
		<g>
			<g transform="rotate(270)">
				<g>
					<text transform="matrix(1 0 0 1 -126.6613 88.8216)" class="st15 st11 st14">3V3</text>
				</g>
			</g>
		</g>
	</g>
	<g transform="matrix(1, 0, 0, 1, 51.0999, 16.15)" class="st10">
		<g>
			<g transform="rotate(270)">
				<g>
					<text transform="matrix(1 0 0 1 -121.1818 114.9523)" class="st15 st11 st14">5V</text>
				</g>
			</g>
		</g>
	</g>
	<g transform="matrix(1, 0, 0, 1, 65.4999, 16.15)" class="st10">
		<g>
			<g transform="rotate(270)">
				<g>
					<text transform="matrix(1 0 0 1 -125.5529 141.0855)" class="st15 st11 st14">VIN</text>
				</g>
			</g>
		</g>
	</g>
</g>
<g id="Braille_1_">
	<g id="partLabel_13_">
		<g transform="translate(12.8,4.94822)">
			<g id="schematicLabel_13_">
				<text transform="matrix(1 0 0 1 53.7195 105.6082)" class="st16 st17">⠠⠥⠁</text>
			</g>
		</g>
	</g>
	<g id="partLabel_1_" class="st9">
		<g transform="translate(12.8,4.94822)" class="st10">
			<g id="schematicLabel_1_">
				<text transform="matrix(1 0 0 1 7.1417 24.2749)" class="st16 st17">⠠⠥⠁</text>
			</g>
		</g>
	</g>
	<g id="partLabel_12_">
		<g transform="translate(214.282,28.9157)">
			<g id="schematicLabel_12_">
				<text transform="matrix(1 0 0 1 504.3166 120.6685)" class="st16 st17">⠠⠎⠁</text>
			</g>
		</g>
	</g>
	<g id="partLabel_11_">
		<g transform="translate(203.431,62.6874)">
			<g id="schematicLabel_11_">
				<text transform="matrix(1 0 0 1 484.6247 196.0282)" class="st18"><tspan x="0" y="0" class="st16 st17">⠠⠗⠁</tspan><tspan x="0" y="28.8" class="st16 st17">⠼⠁⠚ ⠅</tspan><tspan x="73.8" y="28.8" class="st11 st17">Ω</tspan></text>
			</g>
		</g>
	</g>
	<g id="partLabel_10_">
		<g transform="translate(169.729,71.5158)">
			<g id="schematicLabel_10_">
				<text transform="matrix(1 0 0 1 387.6782 212.0474)" class="st18"><tspan x="0" y="0" class="st16 st17">⠠⠗⠃</tspan><tspan x="0" y="32" class="st16 st17">⠼⠃⠃⠚ </tspan><tspan x="73.8" y="32" class="st11 st17">Ω</tspan></text>
			</g>
		</g>
	</g>
	<g id="partLabel_9_">
		<g transform="translate(128.695,78.7673)">
			<g id="schematicLabel_9_">
				<text transform="matrix(1 0 0 1 252.2132 225.209)" class="st18"><tspan x="0" y="0" class="st16 st17">⠠⠗⠉</tspan><tspan x="0" y="28.8" class="st16 st17">⠼⠃⠃⠚ </tspan><tspan x="73.8" y="28.8" class="st11 st17">Ω</tspan></text>
			</g>
		</g>
	</g>
	<g id="partLabel_8_">
		<g transform="translate(169.878,112.904)">
			<g id="schematicLabel_8_">
				<text transform="matrix(1 0 0 1 392.5233 273.0831)" class="st16 st17">⠠⠇⠠⠑⠠⠙⠁</text>
			</g>
		</g>
	</g>
	<g id="partLabel_7_">
		<g transform="translate(129.266,112.873)">
			<g id="schematicLabel_7_">
				<text transform="matrix(1 0 0 1 258.0377 273.0272)" class="st16 st17">⠠⠇⠠⠑⠠⠙⠃</text>
			</g>
		</g>
	</g>
	<text transform="matrix(1 0 0 1 227.5703 203.3894)" class="st16 st17">⠠⠙⠃</text>
	<text transform="matrix(1 0 0 1 227.5703 234.4446)" class="st16 st17">⠠⠙⠉</text>
	<text transform="matrix(1 0 0 1 227.5703 254.7097)" class="st16 st17">⠠⠙⠙</text>
	<g transform="matrix(1, 0, 0, 1, 58.2999, 149.45)">
		<g>
			<g transform="rotate(270)">
				<g>
					<text transform="matrix(0 -1 1 0 -328.5107 163.7831)" class="st16 st17">⠠⠠⠛⠝⠙</text>
				</g>
			</g>
		</g>
	</g>
	<g transform="matrix(1, 0, 0, 1, 51.0999, 16.15)">
		<g>
			<g transform="rotate(270)">
				<g>
					<text transform="matrix(0 1 -1 0 -137.4142 74.3142)" class="st16 st17">⠑⠠⠠⠧</text>
				</g>
			</g>
		</g>
	</g>
	<g id="partLabel_3_">
		<g transform="translate(12.8,4.94822)">
			<g id="schematicLabel_3_">
				<text transform="matrix(1 0 0 1 1.7195 28.9415)" class="st16 st17">⠠⠙⠊⠛⠊⠞⠁⠇ ⠊⠝⠏⠥⠞⠂ ⠃ ⠙⠊⠛⠊⠞⠁⠇ ⠕⠥⠞⠏⠥⠞⠎</text>
			</g>
		</g>
	</g>
</g>
</svg>
