<?xml version="1.0" encoding="utf-8"?>
<!-- Generator: Adobe Illustrator 16.0.0, SVG Export Plug-In . SVG Version: 6.00 Build 0)  -->
<!DOCTYPE svg PUBLIC "-//W3C//DTD SVG 1.1//EN" "http://www.w3.org/Graphics/SVG/1.1/DTD/svg11.dtd">
<svg version="1.1" id="Layer_1" xmlns="http://www.w3.org/2000/svg" xmlns:xlink="http://www.w3.org/1999/xlink" x="0px" y="0px"
	 width="792px" height="612px" viewBox="0 0 792 612" enable-background="new 0 0 792 612" xml:space="preserve">
<text transform="matrix(1 0 0 1 41.625 296.5352)" fill="#010101" font-family="'AppleBraille'" font-size="26">⠀</text>
<polygon fill="none" points="41.625,504.098 546.625,522.5 546.625,542.5 41.625,524.098 "/>
<g>
	<line fill="none" stroke="#000000" stroke-width="4" stroke-miterlimit="10" x1="755.229" y1="0.772" x2="791.227" y2="36.771"/>
	<line fill="none" stroke="#000000" stroke-width="4" stroke-miterlimit="10" x1="738" y1="0" x2="792" y2="54"/>
	<line fill="none" stroke="#000000" stroke-width="4" stroke-miterlimit="10" x1="772.457" y1="1.543" x2="790.457" y2="19.543"/>
</g>
<text transform="matrix(1 0 0 1 41.625 150.1357)" fill="#010101" font-family="'AppleBraille'" font-size="26">⠅⠑⠽</text>
<text transform="matrix(1 0 0 1 41.625 268.5352)" fill="#010101" font-family="'AppleBraille'" font-size="26">⠀</text>
<text transform="matrix(1 0 0 1 41.625 361.8105)" fill="#532E85" font-family="'ArialMT'" font-size="19.0417">Key:</text>
<text transform="matrix(1 0 0 1 41.625 384.6582)" fill="#532E85" font-family="'ArialMT'" font-size="19.0417">MC1 - Arduino Uno (Rev 3)</text>
<text transform="matrix(1 0 0 1 41.625 407.5098)" fill="#532E85" font-family="'ArialMT'" font-size="19.0417">HB1 - H-Bridge L293D</text>
<text transform="matrix(1 0 0 1 41.625 430.3594)" fill="#532E85" font-family="'ArialMT'" font-size="19.0417">S1 - Switch</text>
<text transform="matrix(1 0 0 1 41.625 453.21)" fill="#532E85" font-family="'ArialMT'" font-size="19.0417">R1 - 10kΩ Resistor</text>
<text transform="matrix(1 0 0 1 41.625 476.0596)" fill="#532E85" font-family="'ArialMT'" font-size="19.0417">B1 - VCC1 9V Battery</text>
<text transform="matrix(1 0 0 1 41.625 498.9092)" fill="#532E85" font-family="'ArialMT'" font-size="19.0417">M1- Motor</text>
<text transform="matrix(1 0 0 1 41.625 178.9355)" fill="#010101" font-family="'AppleBraille'" font-size="26">⠍⠉⠼⠁⠀⠤⠀⠁⠗⠙⠥⠊⠝⠕⠀⠥⠝⠕⠀⠐⠣⠗⠑⠧⠼⠉⠐⠜</text>
<text transform="matrix(1 0 0 1 41.625 207.7354)" fill="#010101" font-family="'AppleBraille'" font-size="26">⠓⠃⠼⠁⠀⠤⠀⠓⠤⠃⠗⠊⠙⠛⠑⠀⠇⠼⠃⠊⠉⠰⠙</text>
<text transform="matrix(1 0 0 1 41.625 236.5352)" fill="#010101" font-family="'AppleBraille'" font-size="26">⠎⠼⠁⠀⠤⠀⠎⠺⠊⠞⠉⠓</text>
<text transform="matrix(1 0 0 1 41.625 265.3359)" font-family="'AppleBraille'" font-size="26">⠗⠼⠁⠀⠤⠀⠼⠁⠚⠨⠺ ⠗⠑⠎⠊⠎⠞⠕⠗</text>
<text transform="matrix(1 0 0 1 41.625 294.1357)" font-family="'AppleBraille'" font-size="26">⠃⠼⠁⠀⠤⠀⠧⠉⠉⠼⠁⠀⠼⠊⠧⠀⠃⠁⠞⠞⠑⠗⠽</text>
<text transform="matrix(1 0 0 1 41.625 322.9355)" font-family="'AppleBraille'" font-size="26">⠍⠼⠁⠀⠤⠀⠍⠕⠞⠕⠗</text>
<g id="Braille_1_">
	<text transform="matrix(1 0 0 1 42.626 78.0645)" font-family="'AppleBraille'" font-size="26">⠙⠉⠀⠍⠕⠞⠕⠗⠀⠓⠤⠃⠗⠊⠙⠛⠑⠀⠼⠊⠧</text>
</g>
<text transform="matrix(1 0 0 1 429.7568 75.002)" fill="#532E85" font-family="'ArialMT'" font-size="21">DC Motor, H-Bridge, 9V</text>
</svg>
