<?xml version="1.0" encoding="utf-8"?>
<!-- Generator: Adobe Illustrator 21.1.0, SVG Export Plug-In . SVG Version: 6.00 Build 0)  -->
<svg version="1.1" id="Layer_1" xmlns="http://www.w3.org/2000/svg" xmlns:xlink="http://www.w3.org/1999/xlink" x="0px" y="0px"
	 viewBox="0 0 792 612" style="enable-background:new 0 0 792 612;" xml:space="preserve">
<style type="text/css">
	.st0{fill:#FFFFFF;stroke:#000000;stroke-width:2;stroke-linecap:round;}
	.st1{fill:none;stroke:#787878;stroke-width:2;stroke-linecap:round;}
	.st2{fill:none;}
	.st3{fill:none;stroke:#000000;stroke-width:2;stroke-linecap:round;}
	.st4{fill:none;stroke:#000000;stroke-width:2;}
	.st5{fill:none;stroke:#555555;stroke-width:2;stroke-linecap:round;}
	.st6{fill:#FFFFFF;}
	.st7{fill:#787878;}
	.st8{fill:none;stroke:#404040;stroke-width:2;stroke-linecap:round;}
	.st9{display:none;}
	.st10{display:inline;}
	.st11{font-family:'ArialMT';}
	.st12{font-size:14.0734px;}
	.st13{display:inline;fill:#8C8C8C;}
	.st14{font-size:9.8515px;}
	.st15{fill:#8C8C8C;}
	.st16{font-family:'AppleBraille';}
	.st17{font-size:24px;}
</style>
<g id="Layer_1_1_">
	<rect x="59.8" y="127.7" class="st0" width="220.4" height="382.5"/>
	<line id="connector61pin" class="st1" x1="280.4" y1="166.9" x2="321" y2="166.9"/>
	<g id="connector61terminal">
	</g>
	<line id="connector62pin" class="st1" x1="280.4" y1="187.2" x2="321" y2="187.2"/>
	<g id="connector62terminal">
	</g>
	<line id="connector63pin" class="st1" x1="280.4" y1="207.5" x2="321" y2="207.5"/>
	<g id="connector63terminal">
	</g>
	<line id="connector64pin" class="st1" x1="280.4" y1="227.8" x2="321" y2="227.8"/>
	<g id="connector64terminal">
	</g>
	<line id="connector65pin" class="st1" x1="280.4" y1="248.1" x2="321" y2="248.1"/>
	<g id="connector65terminal">
	</g>
	<line id="connector66pin" class="st1" x1="280.4" y1="268.3" x2="321" y2="268.3"/>
	<g id="connector66terminal">
	</g>
	<line id="connector67pin" class="st1" x1="280.4" y1="288.5" x2="321" y2="288.5"/>
	<g id="connector67terminal">
	</g>
	<line id="connector68pin" class="st1" x1="280.4" y1="308.8" x2="321" y2="308.8"/>
	<g id="connector68terminal">
	</g>
	<line id="connector51pin" class="st1" x1="280.4" y1="329.1" x2="321" y2="329.1"/>
	<g id="connector51terminal">
	</g>
	<line id="connector52pin" class="st1" x1="280.4" y1="349.4" x2="321" y2="349.4"/>
	<g id="connector52terminal">
	</g>
	<line id="connector53pin" class="st1" x1="280.4" y1="369.6" x2="321" y2="369.6"/>
	<g id="connector53terminal">
	</g>
	<line id="connector54pin" class="st1" x1="280.4" y1="389.9" x2="321" y2="389.9"/>
	<g id="connector54terminal">
	</g>
	<line id="connector55pin" class="st1" x1="280.4" y1="410.2" x2="321" y2="410.2"/>
	<g id="connector55terminal">
	</g>
	<line id="connector41pin" class="st2" x1="280.4" y1="430.5" x2="321" y2="430.5"/>
	<rect id="connector41terminal" x="321" y="429.4" class="st2" width="1.9" height="1.9"/>
	<line id="connector56pin" class="st1" x1="280.4" y1="430.5" x2="321" y2="430.5"/>
	<g id="connector56terminal">
	</g>
	<line id="connector43pin" class="st2" x1="18.9" y1="166.9" x2="59.5" y2="166.9"/>
	<rect id="connector43terminal" x="17" y="166" class="st2" width="1.9" height="1.9"/>
	<line id="connector85pin" class="st1" x1="18.9" y1="166.9" x2="59.5" y2="166.9"/>
	<g id="connector85terminal">
	</g>
	<line id="connector49pin" class="st1" x1="18.9" y1="187.2" x2="59.5" y2="187.2"/>
	<rect id="connector49terminal" x="17" y="186.2" class="st2" width="1.9" height="1.9"/>
	<line id="connector58pin" class="st1" x1="18.9" y1="207.5" x2="59.5" y2="207.5"/>
	<g id="connector58terminal">
	</g>
	<line id="connector84pin" class="st1" x1="18.9" y1="227.8" x2="59.5" y2="227.8"/>
	<g id="connector84terminal">
	</g>
	<line id="connector0pin" class="st1" x1="18.9" y1="268.3" x2="59.5" y2="268.3"/>
	<g id="connector0terminal">
	</g>
	<line id="connector1pin" class="st1" x1="18.9" y1="288.5" x2="59.5" y2="288.5"/>
	<g id="connector1terminal">
	</g>
	<line id="connector2pin" class="st1" x1="18.9" y1="308.8" x2="59.5" y2="308.8"/>
	<g id="connector2terminal">
	</g>
	<line id="connector3pin" class="st1" x1="18.9" y1="329.1" x2="59.5" y2="329.1"/>
	<g id="connector3terminal">
	</g>
	<line id="connector48pin" class="st2" x1="18.9" y1="349.4" x2="59.5" y2="349.4"/>
	<rect id="connector48terminal" x="17" y="348.4" class="st2" width="1.9" height="1.9"/>
	<line id="connector45pin" class="st2" x1="18.9" y1="349.4" x2="59.5" y2="349.4"/>
	<rect id="connector45terminal" x="17" y="348.4" class="st2" width="1.9" height="1.9"/>
	<line id="connector4pin" class="st2" x1="18.9" y1="349.4" x2="59.5" y2="349.4"/>
	<g id="connector4terminal">
	</g>
	<line id="connector39pin" class="st2" x1="18.9" y1="349.4" x2="59.5" y2="349.4"/>
	<rect id="connector39terminal" x="17" y="348.4" class="st2" width="1.9" height="1.9"/>
	<line id="connector47pin" class="st2" x1="18.9" y1="349.4" x2="59.5" y2="349.4"/>
	<rect id="connector47terminal" x="17" y="348.4" class="st2" width="1.9" height="1.9"/>
	<line id="connector42pin" class="st2" x1="18.9" y1="349.4" x2="59.5" y2="349.4"/>
	<rect id="connector42terminal" x="17" y="348.4" class="st2" width="1.9" height="1.9"/>
	<line id="connector59pin" class="st1" x1="18.9" y1="349.4" x2="59.5" y2="349.4"/>
	<g id="connector59terminal">
	</g>
	<line id="connector5pin" class="st2" x1="18.9" y1="369.6" x2="59.5" y2="369.6"/>
	<g id="connector5terminal">
	</g>
	<line id="connector60pin" class="st1" x1="18.9" y1="369.6" x2="59.5" y2="369.6"/>
	<g id="connector60terminal">
	</g>
	<line id="connector91pin" class="st1" x1="18.9" y1="470.9" x2="59.5" y2="470.9"/>
	<g id="connector91terminal">
	</g>
	<line id="connector88pin" class="st2" x1="180.1" y1="510.5" x2="180.1" y2="551.1"/>
	<g id="connector88terminal">
	</g>
	<line id="connector57pin" class="st2" x1="180.1" y1="510.5" x2="180.1" y2="551.1"/>
	<g id="connector57terminal">
	</g>
	<line id="connector44pin" class="st2" x1="180.1" y1="510.5" x2="180.1" y2="551.1"/>
	<rect id="connector44terminal" x="179.1" y="551.1" class="st2" width="1.9" height="1.9"/>
	<line id="connector50pin" class="st2" x1="180.1" y1="510.5" x2="180.1" y2="551.1"/>
	<rect id="connector50terminal" x="179.1" y="551.1" class="st2" width="1.9" height="1.9"/>
	<line id="connector89pin" class="st1" x1="180.1" y1="510.5" x2="180.1" y2="551.1"/>
	<g id="connector89terminal">
	</g>
	<line id="connector86pin" class="st1" x1="119.3" y1="86.9" x2="119.3" y2="127.5"/>
	<g id="connector86terminal">
	</g>
	<line id="connector40pin" class="st2" x1="159.8" y1="86.9" x2="159.8" y2="127.5"/>
	<rect id="connector40terminal" x="158.9" y="85" class="st2" width="1.9" height="1.9"/>
	<line id="connector46pin" class="st2" x1="159.8" y1="86.9" x2="159.8" y2="127.5"/>
	<rect id="connector46terminal" x="158.9" y="85" class="st2" width="1.9" height="1.9"/>
	<line id="connector87pin" class="st1" x1="159.8" y1="86.9" x2="159.8" y2="127.5"/>
	<g id="connector87terminal">
	</g>
	<line id="connector90pin" class="st1" x1="200.4" y1="86.9" x2="200.4" y2="127.5"/>
	<g id="connector90terminal">
	</g>
	<line class="st3" x1="667.1" y1="267.5" x2="659.1" y2="264.5"/>
	<line class="st3" x1="659.1" y1="264.5" x2="675.2" y2="259.4"/>
	<line class="st3" x1="675.2" y1="259.4" x2="659.1" y2="254.3"/>
	<line class="st3" x1="659.1" y1="254.3" x2="675.2" y2="249.3"/>
	<line class="st3" x1="675.2" y1="249.3" x2="659.1" y2="244.2"/>
	<line class="st3" x1="659.1" y1="244.2" x2="675.2" y2="239.1"/>
	<line class="st3" x1="675.2" y1="239.1" x2="659.1" y2="234.1"/>
	<line class="st3" x1="659.1" y1="234.1" x2="675.2" y2="229"/>
	<line class="st3" x1="675.2" y1="229" x2="667.1" y2="227.1"/>
	<line id="connector1pin_1_" class="st1" x1="667.1" y1="206.8" x2="667.1" y2="227.1"/>
	<g id="connector1terminal_1_">
	</g>
	<line id="connector0pin_1_" class="st1" x1="667.1" y1="287.8" x2="667.1" y2="267.5"/>
	<g id="connector0terminal_1_">
	</g>
	<line class="st3" x1="687" y1="130.3" x2="687" y2="125.2"/>
	<line class="st3" x1="687" y1="165.8" x2="676.8" y2="130.3"/>
	<circle class="st4" cx="687" cy="165.8" r="1"/>
	<circle class="st4" cx="687" cy="125.2" r="1"/>
	<line class="st3" x1="666.7" y1="125.2" x2="707.2" y2="125.2"/>
	<line class="st3" x1="666.7" y1="165.8" x2="707.2" y2="165.8"/>
	<line id="connector3pin_1_" class="st5" x1="707.2" y1="185.1" x2="707.2" y2="165.8"/>
	<line id="connector2pin_1_" class="st5" x1="666.7" y1="185.1" x2="666.7" y2="165.8"/>
	<g id="connector2terminal_1_">
	</g>
	<g id="connector3terminal_1_">
	</g>
	<line id="connector1pin_2_" class="st5" x1="707.2" y1="105.9" x2="707.2" y2="125.2"/>
	<g id="connector1terminal_2_">
	</g>
	<g id="connector0terminal_2_">
	</g>
	<line id="connector0pin_2_" class="st5" x1="666.7" y1="105.9" x2="666.7" y2="125.2"/>
	<line class="st3" x1="542.1" y1="248.6" x2="550.2" y2="251.6"/>
	<line class="st3" x1="550.2" y1="251.6" x2="533.9" y2="256.7"/>
	<line class="st3" x1="533.9" y1="256.7" x2="550.2" y2="261.7"/>
	<line class="st3" x1="550.2" y1="261.7" x2="533.9" y2="266.8"/>
	<line class="st3" x1="533.9" y1="266.8" x2="550.2" y2="271.9"/>
	<line class="st3" x1="550.2" y1="271.9" x2="533.9" y2="276.9"/>
	<line class="st3" x1="533.9" y1="276.9" x2="550.2" y2="282"/>
	<line class="st3" x1="550.2" y1="282" x2="533.9" y2="287.1"/>
	<line class="st3" x1="533.9" y1="287.1" x2="542.1" y2="289"/>
	<line id="connector1pin_3_" class="st1" x1="542.1" y1="309.3" x2="542.1" y2="289"/>
	<g id="connector1terminal_3_">
	</g>
	<line id="connector0pin_3_" class="st1" x1="542.1" y1="228.3" x2="542.1" y2="248.6"/>
	<g id="connector0terminal_3_">
	</g>
	<line class="st3" x1="366.5" y1="268.2" x2="374.6" y2="271.3"/>
	<line class="st3" x1="374.6" y1="271.3" x2="358.4" y2="276.3"/>
	<line class="st3" x1="358.4" y1="276.3" x2="374.6" y2="281.4"/>
	<line class="st3" x1="374.6" y1="281.4" x2="358.4" y2="286.4"/>
	<line class="st3" x1="358.4" y1="286.4" x2="374.6" y2="291.5"/>
	<line class="st3" x1="374.6" y1="291.5" x2="358.4" y2="296.6"/>
	<line class="st3" x1="358.4" y1="296.6" x2="374.6" y2="301.6"/>
	<line class="st3" x1="374.6" y1="301.6" x2="358.4" y2="306.7"/>
	<line class="st3" x1="358.4" y1="306.7" x2="366.5" y2="308.8"/>
	<line id="connector1pin_4_" class="st1" x1="366.5" y1="329" x2="366.5" y2="308.8"/>
	<g id="connector1terminal_4_">
	</g>
	<line id="connector0pin_4_" class="st1" x1="366.5" y1="247.9" x2="366.5" y2="268.2"/>
	<g id="connector0terminal_4_">
	</g>
	<path d="M552.1,390.6H542c-0.5,0-1-0.4-1-1s0.4-1,1-1h10.1c0.5,0,1,0.4,1,1C553.2,390.2,552.8,390.6,552.1,390.6z"/>
	<path d="M542.1,390.6H532c-0.5,0-1-0.4-1-1s0.4-1,1-1h10.1c0.5,0,1,0.4,1,1S542.7,390.6,542.1,390.6z"/>
	<polygon class="st6" points="542.1,389.6 532,369.3 542.1,369.3 552.1,369.3 	"/>
	<path d="M542.1,391.8l-11.8-23.4h23.4L542.1,391.8z M533.5,370.3l8.5,17l8.5-17H533.5z"/>
	<path d="M542.1,390.3c-0.3,0-0.6-0.3-0.6-0.6v-20.3c0-0.3,0.3-0.6,0.6-0.6s0.6,0.3,0.6,0.6v20.3C542.7,390,542.4,390.3,542.1,390.3
		z"/>
	<path d="M519.2,382.6c-0.1,0-0.3-0.1-0.4-0.2c-0.2-0.2-0.2-0.6,0-0.9l6.6-6.6c0.2-0.2,0.6-0.2,0.9,0c0.2,0.2,0.2,0.6,0,0.9
		l-6.6,6.6C519.6,382.6,519.5,382.6,519.2,382.6z"/>
	<path d="M520.3,391.8c-0.1,0-0.3-0.1-0.4-0.2c-0.2-0.2-0.2-0.6,0-0.9l6.6-6.6c0.2-0.2,0.6-0.2,0.9,0c0.2,0.2,0.2,0.6,0,0.9
		l-6.6,6.6C520.7,391.7,520.4,391.8,520.3,391.8z"/>
	<path class="st7" d="M542.1,410.9c-0.5,0-1-0.4-1-1v-20.3c0-0.5,0.4-1,1-1c0.5,0,1,0.4,1,1v20.3
		C543.1,410.4,542.7,410.9,542.1,410.9z"/>
	<path class="st2" d="M542.1,409.9L542.1,409.9L542.1,409.9z"/>
	<path class="st7" d="M542.1,370.3c-0.5,0-1-0.4-1-1V349c0-0.5,0.4-1,1-1c0.5,0,1,0.4,1,1v20.3C543.1,369.9,542.7,370.3,542.1,370.3
		z"/>
	<path class="st2" d="M542.1,349.1L542.1,349.1L542.1,349.1z"/>
	<path d="M514.7,386.6l3-7.1l4.1,4.1L514.7,386.6z"/>
	<path d="M515.7,395.7l3-7.1l4.1,4.1L515.7,395.7z"/>
	<path d="M376.8,390.6h-10.1c-0.5,0-1-0.4-1-1s0.4-1,1-1h10.1c0.5,0,1,0.4,1,1S377.4,390.6,376.8,390.6z"/>
	<path d="M366.7,390.6h-10.1c-0.5,0-1-0.4-1-1s0.4-1,1-1h10.1c0.5,0,1,0.4,1,1S367.2,390.6,366.7,390.6z"/>
	<polygon class="st6" points="366.7,389.6 356.5,369.3 366.7,369.3 376.8,369.3 	"/>
	<path d="M366.7,391.8l-11.8-23.4h23.4L366.7,391.8z M358.1,370.3l8.5,17l8.5-17H358.1z"/>
	<path d="M366.7,390.3c-0.3,0-0.6-0.3-0.6-0.6v-20.3c0-0.3,0.3-0.6,0.6-0.6s0.6,0.3,0.6,0.6v20.3C367.2,390,367,390.3,366.7,390.3z"
		/>
	<path d="M343.8,382.6c-0.1,0-0.3-0.1-0.4-0.2c-0.2-0.2-0.2-0.6,0-0.9l6.6-6.6c0.2-0.2,0.6-0.2,0.9,0c0.2,0.2,0.2,0.6,0,0.9
		l-6.6,6.6C344.1,382.6,344,382.6,343.8,382.6z"/>
	<path d="M344.9,391.8c-0.1,0-0.3-0.1-0.4-0.2c-0.2-0.2-0.2-0.6,0-0.9l6.6-6.6c0.2-0.2,0.6-0.2,0.9,0c0.2,0.2,0.2,0.6,0,0.9
		l-6.6,6.6C345.2,391.7,345,391.8,344.9,391.8z"/>
	<path class="st7" d="M366.7,410.9c-0.5,0-1-0.4-1-1v-20.3c0-0.5,0.4-1,1-1s1,0.4,1,1v20.3C367.7,410.4,367.2,410.9,366.7,410.9z"/>
	<path class="st2" d="M366.7,409.9L366.7,409.9L366.7,409.9z"/>
	<path class="st7" d="M366.7,370.3c-0.5,0-1-0.4-1-1V349c0-0.5,0.4-1,1-1s1,0.4,1,1v20.3C367.7,369.9,367.2,370.3,366.7,370.3z"/>
	<path class="st2" d="M366.7,349.1L366.7,349.1L366.7,349.1z"/>
	<path d="M339.3,386.6l3-7.1l4.1,4.1L339.3,386.6z"/>
	<path d="M340.3,395.7l3-7.1l4.1,4.1L340.3,395.7z"/>
	<g>
		<g transform="translate(116.561,135.05)">
			<g id="schematic_7_">
				<path id="connector0pin_7_" class="st1" d="M249.8,321.5v-20.3"/>
				<g id="connector0terminal_7_">
				</g>
				<path id="path4098" class="st3" d="M230.9,321.9h37.8"/>
				<path id="path4100" class="st3" d="M237.2,329.6h25.1"/>
				<path id="path4102" class="st3" d="M256,337.2h-12.5"/>
			</g>
		</g>
	</g>
	<g>
		<g transform="translate(157.788,135.05)">
			<g id="schematic_8_">
				<path id="connector0pin_8_" class="st1" d="M384.6,321.5v-20.3"/>
				<g id="connector0terminal_8_">
				</g>
				<path id="path4098_1_" class="st3" d="M365.7,321.9h37.8"/>
				<path id="path4100_1_" class="st3" d="M372,329.6h25.1"/>
				<path id="path4102_1_" class="st3" d="M390.9,337.2h-12.5"/>
			</g>
		</g>
	</g>
	<g>
		<g transform="translate(191.548,91.3167)">
			<g id="schematic_9_">
				<path id="connector0pin_9_" class="st1" d="M475.9,242.1v-20.3"/>
				<g id="connector0terminal_9_">
				</g>
				<path id="path4098_2_" class="st3" d="M457,242.5h37.8"/>
				<path id="path4100_2_" class="st3" d="M463.3,250.2h25.1"/>
				<path id="path4102_2_" class="st3" d="M482.2,257.8h-12.5"/>
			</g>
		</g>
	</g>
	<g>
		<g transform="translate(50.4276,181.183)">
			<g id="schematic_10_">
				<path id="connector0pin_10_" class="st1" d="M129.8,395.3V375"/>
				<g id="connector0terminal_10_">
				</g>
				<path id="path4098_3_" class="st3" d="M110.9,395.6h37.8"/>
				<path id="path4100_3_" class="st3" d="M117.2,403.3h25.1"/>
				<path id="path4102_3_" class="st3" d="M136.1,411h-12.6"/>
			</g>
		</g>
	</g>
	<g>
		<line class="st8" x1="366.3" y1="436.5" x2="366.6" y2="409.9"/>
	</g>
	<g>
		<line class="st8" x1="542.4" y1="436.5" x2="542" y2="409.9"/>
	</g>
	<g>
		<line class="st8" x1="667.4" y1="313.4" x2="667.2" y2="287.8"/>
	</g>
	<g>
		<line class="st8" x1="366.5" y1="329.1" x2="366.6" y2="349.1"/>
	</g>
	<g>
		<line class="st8" x1="542" y1="309.3" x2="542" y2="349.1"/>
	</g>
	<g>
		<line class="st8" x1="666.7" y1="184.8" x2="667.2" y2="206.7"/>
	</g>
	<circle cx="667.2" cy="206.7" r="4.1"/>
	<g>
		<line class="st8" x1="321" y1="207.6" x2="667.2" y2="206.6"/>
	</g>
	<circle cx="667.2" cy="206.7" r="4.1"/>
	<g>
		<line class="st8" x1="366.5" y1="248" x2="322" y2="248.1"/>
	</g>
	<g>
		<line class="st8" x1="542" y1="228.4" x2="321" y2="227.7"/>
	</g>
	<g>
		<line class="st8" x1="159.8" y1="85.9" x2="159.8" y2="58"/>
	</g>
	<g>
		<line class="st8" x1="666.7" y1="58" x2="666.7" y2="106.5"/>
	</g>
	<g>
		<line class="st8" x1="159.8" y1="58" x2="666.7" y2="58"/>
	</g>
	<line class="st8" x1="180.2" y1="566.2" x2="180.1" y2="551.1"/>
	<g id="Braille">
	</g>
</g>
<g id="plaintext" class="st9">
	<g id="partLabel_28_" class="st10">
		<g transform="translate(12.8,4.94822)">
			<g id="schematicLabel_28_">
				<text transform="matrix(1 0 0 1 53.7195 105.6082)" class="st11 st12">U1</text>
			</g>
		</g>
	</g>
	<g id="partLabel_2_" class="st10">
		<g transform="translate(12.8,4.94822)">
			<g id="schematicLabel_2_">
				<text transform="matrix(1 0 0 1 11.7195 38.9415)" class="st11 st12">Digital input, 2 digital outputs</text>
			</g>
		</g>
	</g>
	<g id="partLabel_20_" class="st10">
		<g transform="translate(214.282,28.9157)">
			<g id="schematicLabel_20_">
				<text transform="matrix(1 0 0 1 414.3166 120.6685)" class="st11 st12">S1</text>
			</g>
		</g>
	</g>
	<g id="partLabel_19_" class="st10">
		<g transform="translate(203.431,62.6874)">
			<g id="schematicLabel_19_">
				<text transform="matrix(1 0 0 1 494.6247 221.9545)" class="st11 st12">R1</text>
				<text transform="matrix(1 0 0 1 494.6247 236.0282)" class="st11 st12">10kΩ</text>
			</g>
		</g>
	</g>
	<g id="partLabel_18_" class="st10">
		<g transform="translate(169.729,71.5158)">
			<g id="schematicLabel_18_">
				<text transform="matrix(1 0 0 1 403.4653 237.9757)" class="st11 st12">R2</text>
				<text transform="matrix(1 0 0 1 403.4653 252.0474)" class="st11 st12">220Ω</text>
			</g>
		</g>
	</g>
	<g id="partLabel_17_" class="st10">
		<g transform="translate(128.695,78.7673)">
			<g id="schematicLabel_17_">
				<text transform="matrix(1 0 0 1 259.0003 241.1343)" class="st11 st12">R3</text>
				<text transform="matrix(1 0 0 1 259.0003 255.209)" class="st11 st12">220Ω</text>
			</g>
		</g>
	</g>
	<g id="partLabel_16_" class="st10">
		<g transform="translate(169.878,112.904)">
			<g id="schematicLabel_16_">
				<text transform="matrix(1 0 0 1 413.7362 303.0831)" class="st11 st12">LED1</text>
			</g>
		</g>
	</g>
	<g id="partLabel_15_" class="st10">
		<g transform="translate(129.266,112.873)">
			<g id="schematicLabel_15_">
				<text transform="matrix(1 0 0 1 260.0377 303.0272)" class="st11 st12">LED2</text>
			</g>
		</g>
	</g>
	<text transform="matrix(1 0 0 1 264.1958 203.3894)" class="st13 st11 st14">D2</text>
	<text transform="matrix(1 0 0 1 264.1958 223.6575)" class="st13 st11 st14">D3</text>
	<text transform="matrix(1 0 0 1 264.1958 243.9226)" class="st13 st11 st14">D4</text>
	<g transform="matrix(1, 0, 0, 1, 58.2999, 149.45)" class="st10">
		<g>
			<g transform="rotate(270)">
				<g>
					<text transform="matrix(1 0 0 1 -351.0312 128.0185)" class="st15 st11 st14">GND</text>
				</g>
			</g>
		</g>
	</g>
	<g transform="matrix(1, 0, 0, 1, 36.6999, 16.15)" class="st10">
		<g>
			<g transform="rotate(270)">
				<g>
					<text transform="matrix(1 0 0 1 -126.6613 88.8216)" class="st15 st11 st14">3V3</text>
				</g>
			</g>
		</g>
	</g>
	<g transform="matrix(1, 0, 0, 1, 51.0999, 16.15)" class="st10">
		<g>
			<g transform="rotate(270)">
				<g>
					<text transform="matrix(1 0 0 1 -121.1818 114.9523)" class="st15 st11 st14">5V</text>
				</g>
			</g>
		</g>
	</g>
	<g transform="matrix(1, 0, 0, 1, 65.4999, 16.15)" class="st10">
		<g>
			<g transform="rotate(270)">
				<g>
					<text transform="matrix(1 0 0 1 -125.5529 141.0855)" class="st15 st11 st14">VIN</text>
				</g>
			</g>
		</g>
	</g>
</g>
<g id="Braille_1_">
	<g id="partLabel_13_">
		<g transform="translate(12.8,4.94822)">
			<g id="schematicLabel_13_">
				<text transform="matrix(1 0 0 1 52.7195 110.6082)" class="st16 st17">⠠⠥⠁</text>
			</g>
		</g>
	</g>
	<g id="partLabel_1_" class="st9">
		<g transform="translate(12.8,4.94822)" class="st10">
			<g id="schematicLabel_1_">
				<text transform="matrix(1 0 0 1 6.1417 29.2749)" class="st16 st17">⠠⠥⠁</text>
			</g>
		</g>
	</g>
	<g id="partLabel_12_">
		<g transform="translate(214.282,28.9157)">
			<g id="schematicLabel_12_">
				<text transform="matrix(1 0 0 1 503.3166 125.6685)" class="st16 st17">⠠⠎⠁</text>
			</g>
		</g>
	</g>
	<g id="partLabel_11_">
		<g transform="translate(203.431,62.6874)">
			<g id="schematicLabel_11_">
				<text transform="matrix(1 0 0 1 475.6247 201.0282)" class="st16 st17">⠠⠗⠁</text>
				<text transform="matrix(1 0 0 1 475.6247 229.8282)" class="st16 st17">⠼⠁⠚ ⠅</text>
				<text transform="matrix(1 0 0 1 549.4247 229.8282)" class="st11 st17">Ω</text>
			</g>
		</g>
	</g>
	<g id="partLabel_10_">
		<g transform="translate(169.729,71.5158)">
			<g id="schematicLabel_10_">
				<text transform="matrix(1 0 0 1 386.6782 217.0474)" class="st16 st17">⠠⠗⠃</text>
				<text transform="matrix(1 0 0 1 386.6782 249.0474)" class="st16 st17">⠼⠃⠃⠚ </text>
				<text transform="matrix(1 0 0 1 460.4782 249.0474)" class="st11 st17">Ω</text>
			</g>
		</g>
	</g>
	<g id="partLabel_9_">
		<g transform="translate(128.695,78.7673)">
			<g id="schematicLabel_9_">
				<text transform="matrix(1 0 0 1 251.2132 230.209)" class="st16 st17">⠠⠗⠉</text>
				<text transform="matrix(1 0 0 1 251.2132 259.009)" class="st16 st17">⠼⠃⠃⠚ </text>
				<text transform="matrix(1 0 0 1 325.0132 259.009)" class="st11 st17">Ω</text>
			</g>
		</g>
	</g>
	<g id="partLabel_8_">
		<g transform="translate(169.878,112.904)">
			<g id="schematicLabel_8_">
				<text transform="matrix(1 0 0 1 391.5233 278.0831)" class="st16 st17">⠠⠇⠠⠑⠠⠙⠁</text>
			</g>
		</g>
	</g>
	<g id="partLabel_7_">
		<g transform="translate(129.266,112.873)">
			<g id="schematicLabel_7_">
				<text transform="matrix(1 0 0 1 257.0377 278.0272)" class="st16 st17">⠠⠇⠠⠑⠠⠙⠃</text>
			</g>
		</g>
	</g>
	<text transform="matrix(1 0 0 1 226.5703 208.3894)" class="st16 st17">⠠⠙⠃</text>
	<text transform="matrix(1 0 0 1 226.5703 239.4446)" class="st16 st17">⠠⠙⠉</text>
	<text transform="matrix(1 0 0 1 226.5703 259.7097)" class="st16 st17">⠠⠙⠙</text>
	<g transform="matrix(1, 0, 0, 1, 58.2999, 149.45)">
		<g>
			<g transform="rotate(270)">
				<g>
					<text transform="matrix(0 -1 1 0 -333.5107 162.7831)" class="st16 st17">⠠⠠⠛⠝⠙</text>
				</g>
			</g>
		</g>
	</g>
	<g transform="matrix(1, 0, 0, 1, 51.0999, 16.15)">
		<g>
			<g transform="rotate(270)">
				<g>
					<text transform="matrix(0 1 -1 0 -142.4142 73.3142)" class="st16 st17">⠑⠠⠠⠧</text>
				</g>
			</g>
		</g>
	</g>
	<g id="partLabel_3_">
		<g transform="translate(12.8,4.94822)">
			<g id="schematicLabel_3_">
				<text transform="matrix(1 0 0 1 30.7195 43.9415)" class="st16 st17">⠠⠙⠊⠛⠊⠞⠁⠇ ⠊⠝⠏⠥⠞⠂ ⠃ ⠙⠊⠛⠊⠞⠁⠇ ⠕⠥⠞⠏⠥⠞⠎</text>
			</g>
		</g>
	</g>
</g>
</svg>
