<?xml version="1.0" encoding="utf-8"?>
<!-- Generator: Adobe Illustrator 16.0.0, SVG Export Plug-In . SVG Version: 6.00 Build 0)  -->
<!DOCTYPE svg PUBLIC "-//W3C//DTD SVG 1.1//EN" "http://www.w3.org/Graphics/SVG/1.1/DTD/svg11.dtd">
<svg version="1.1" id="Layer_1" xmlns="http://www.w3.org/2000/svg" xmlns:xlink="http://www.w3.org/1999/xlink" x="0px" y="0px"
	 width="792px" height="612px" viewBox="0 0 792 612" enable-background="new 0 0 792 612" xml:space="preserve">
<g id="plaintext" display="none">
	<text transform="matrix(1 0 0 1 262.8433 340.8613)" display="inline" font-family="'MyriadPro-Regular'" font-size="17.7326">Output</text>
	<text transform="matrix(1 0 0 1 162.7798 362.1406)" display="inline" font-family="'MyriadPro-Regular'" font-size="17.7326">from microcontroller</text>
	<text transform="matrix(1 0 0 1 29.8711 236.959)" display="inline" font-family="'MyriadPro-Regular'" font-size="17.7326">Digital Output</text>
	<text transform="matrix(1 0 0 1 404.5684 400.3926)" display="inline" font-family="'MyriadPro-Regular'" font-size="17.7326">220Ω</text>
	<text transform="matrix(1 0 0 1 413.8398 467.625)" display="inline" font-family="'MyriadPro-Regular'" font-size="17.7326">LED</text>
</g>
<g id="Braille_1_">
	<text transform="matrix(1 0 0 1 42.626 78.0645)" font-family="'AppleBraille'" font-size="26">⠍⠊⠙⠊⠀⠕⠥⠞⠀⠎⠑⠝⠎⠕⠗⠎</text>
</g>
<text transform="matrix(1 0 0 1 346.6108 75)" fill="#532E85" font-family="'ArialMT'" font-size="21">Midi Out Sensors</text>
<g>
	<g transform="translate(126.231,26.6186)">
		<g id="schematic">
			
				<rect x="102.358" y="137.719" fill="#FFFFFF" stroke="#010201" stroke-width="8" stroke-linecap="round" width="192.747" height="282.479"/>
			
				<line id="connector63pin" fill="none" stroke="#000000" stroke-width="2" stroke-miterlimit="10" x1="295.321" y1="157.455" x2="336.824" y2="157.455"/>
			<path id="connector56pin_1_" fill="none" stroke="#000000" stroke-width="2" stroke-miterlimit="10" d="M295.321,352.463"/>
			
				<line id="connector86pin" fill="none" stroke="#000000" stroke-width="2" stroke-miterlimit="10" x1="154.446" y1="109.988" x2="154.446" y2="139.504"/>
			<line id="connector40pin" fill="none" x1="189.853" y1="103.988" x2="189.853" y2="139.504"/>
			<rect id="connector40terminal" x="188.992" y="102.269" fill="none" width="1.728" height="1.719"/>
			<line id="connector46pin" fill="none" x1="189.853" y1="103.988" x2="189.853" y2="139.504"/>
			<rect id="connector46terminal" x="188.992" y="102.269" fill="none" width="1.728" height="1.719"/>
			
				<line id="connector87pin" fill="none" stroke="#000000" stroke-width="2" stroke-miterlimit="10" x1="189.853" y1="95.109" x2="189.853" y2="139.504"/>
			
				<line id="connector90pin" fill="none" stroke="#000000" stroke-width="2" stroke-miterlimit="10" x1="225.26" y1="108.988" x2="225.26" y2="139.504"/>
		</g>
	</g>
</g>
<g>
	<g transform="translate(0,64.2787)">
		<g id="schematic_2_">
			<text transform="matrix(1 0 0 1 159.7446 461.9703)" fill="#BBBDC0" font-family="'ArialMT'" font-size="12"> </text>
			<text transform="matrix(1 0 0 1 87.0517 460.9948)" fill="#532E85" font-family="'ArialMT'" font-size="12">R1 </text>
			<text transform="matrix(1 0 0 1 105.7256 460.9948)" fill="#532E85" font-family="'ArialMT'" font-size="12.9143">10Ω</text>
			<text transform="matrix(1 0 0 1 129.7446 460.9948)" fill="#BBBDC0" font-family="'ArialMT'" font-size="12"> </text>
			<text transform="matrix(1 0 0 1 307.377 294.1324)" fill="#532E85" font-family="'ArialMT'" font-size="12">Arduino Uno </text>
			<text transform="matrix(1 0 0 1 307.377 308.5328)" fill="#532E85" font-family="'ArialMT'" font-size="12">(Rev 3)</text>
			<text transform="matrix(1 0 0 1 308.4492 150.1881)" fill="#532E85" font-family="'ArialMT'" font-size="12">5V</text>
		</g>
	</g>
</g>
<text transform="matrix(1 0 0 1 351.4902 530.9209)" font-family="'AppleBraille'" font-size="26">⠛⠝⠙</text>
<text transform="matrix(1 0 0 1 299.3848 433.4668)" fill="#532E85" font-family="'ArialMT'" font-size="12">A0</text>
<text transform="matrix(1 0 0 1 308.3848 293.2637)" fill="#532E85" font-family="'ArialMT'" font-size="12">D10</text>
<text transform="matrix(1 0 0 1 238.3804 437.498)" font-family="'AppleBraille'" font-size="26">⠁⠼⠚</text>
<text transform="matrix(1 0 0 1 336.6108 303.125)" font-family="'AppleBraille'" font-size="26">⠙⠼⠁⠚</text>
<text transform="matrix(1 0 0 1 290.3164 201.4336)" font-family="'AppleBraille'" font-size="26">⠼⠑⠧</text>
<text transform="matrix(1 0 0 1 87.0517 268.5195)" fill="#532E85" font-family="'ArialMT'" font-size="12">FSR</text>
<text transform="matrix(1 0 0 1 86.0517 253.875)" font-family="'AppleBraille'" font-size="26">⠋⠎⠗</text>
<text transform="matrix(1 0 0 1 86.0517 480.0391)" font-family="'AppleBraille'" font-size="26">⠗⠼⠁</text>
<text transform="matrix(1 0 0 1 86.0517 508.8398)" fill="#010201" font-family="'AppleBraille'" font-size="26">⠼⠁⠚⠨⠺</text>
<text transform="matrix(1 0 0 1 92.0181 148.3643)" font-family="'AppleBraille'" font-size="26">⠼⠉⠲⠉⠧</text>
<text transform="matrix(1 0 0 1 247.3789 340.6113)" font-family="'AppleBraille'" font-size="26">⠁⠗⠙⠥⠊⠝⠕</text>
<text transform="matrix(1 0 0 1 245.8789 369.4111)" font-family="'AppleBraille'" font-size="26">⠥⠝⠕</text>
<text transform="matrix(1 0 0 1 247.3789 398.2109)" font-family="'AppleBraille'" font-size="26">⠗⠑⠧⠀⠼⠉</text>
<text transform="matrix(1 0 0 1 412.0391 524.249)" fill="#532E85" font-family="'ArialMT'" font-size="13.9091">GND</text>
<g>
	<path fill="none" stroke="#414141" stroke-width="2" stroke-linecap="round" d="M316.053,110.509"/>
	<path fill="none" stroke="#414141" stroke-width="2" stroke-linecap="round" d="M314.976,114.062"/>
</g>
<circle fill="#010201" cx="314.976" cy="114.06" r="3.551"/>
<g>
	<path fill="none" stroke="#414141" stroke-width="2" stroke-linecap="round" d="M329.873,114.062"/>
</g>
<g>
	<line fill="none" stroke="#000000" stroke-width="2" stroke-miterlimit="10" x1="314.911" y1="113.877" x2="61.586" y2="114.062"/>
</g>
<g>
	<path fill="none" stroke="#000000" stroke-width="2" stroke-miterlimit="10" d="M463.055,408.785"/>
</g>
<g>
	<path fill="none" stroke="#414141" stroke-width="2" stroke-linecap="round" d="M324.931,448.816"/>
</g>
<path fill="none" stroke="#030303" stroke-width="2" stroke-linecap="round" d="M325.375,448.816"/>
<g>
	<g>
		<path fill="none" stroke="#000000" stroke-width="2" stroke-linecap="round" d="M324.893,448.816"/>
		<path fill="none" stroke="#000000" stroke-width="2" stroke-linecap="round" d="M325.179,455.558"/>
	</g>
</g>
<circle fill="#FFFFFF" stroke="#000000" stroke-width="2" stroke-miterlimit="10" cx="316.053" cy="114.062" r="7.668"/>
<g>
	<g>
		<path fill="none" stroke="#000000" stroke-width="2" stroke-linecap="round" stroke-miterlimit="10" d="M399.566,119.908"/>
		
			<line fill="none" stroke="#000000" stroke-width="2" stroke-linecap="round" stroke-miterlimit="10" stroke-dasharray="0.1027,5.1335" x1="453.895" y1="138.086" x2="355.875" y2="132.389"/>
	</g>
</g>
<g>
	<g>
		
			<line fill="none" stroke="#000000" stroke-linecap="round" stroke-miterlimit="10" x1="280.677" y1="126.79" x2="280.628" y2="126.781"/>
		
			<line fill="none" stroke="#000000" stroke-linecap="round" stroke-miterlimit="10" x1="228.639" y1="116.799" x2="228.589" y2="116.79"/>
	</g>
</g>
<g>
	<line fill="none" stroke="#000000" stroke-width="4" stroke-miterlimit="10" x1="755.229" y1="0.772" x2="791.227" y2="36.771"/>
	<line fill="none" stroke="#000000" stroke-width="4" stroke-miterlimit="10" x1="738" y1="0" x2="792" y2="54"/>
	<line fill="none" stroke="#000000" stroke-width="4" stroke-miterlimit="10" x1="772.457" y1="1.543" x2="790.457" y2="19.543"/>
</g>
<line fill="none" stroke="#010101" stroke-width="2" stroke-miterlimit="10" x1="228.589" y1="242.592" x2="186.591" y2="242.592"/>
<line fill="none" stroke="#010101" stroke-width="2" stroke-miterlimit="10" x1="228.589" y1="256.703" x2="186.591" y2="256.703"/>
<line fill="none" stroke="#010101" stroke-width="2" stroke-miterlimit="10" x1="228.589" y1="270.57" x2="186.591" y2="270.57"/>
<line fill="none" stroke="#010101" stroke-width="2" stroke-miterlimit="10" x1="228.589" y1="284.313" x2="186.591" y2="284.313"/>
<line fill="none" stroke="#010101" stroke-width="2" stroke-miterlimit="10" x1="228.589" y1="298.058" x2="186.591" y2="298.058"/>
<line fill="none" stroke="#010101" stroke-width="2" stroke-miterlimit="10" x1="228.589" y1="311.926" x2="186.591" y2="311.926"/>
<line fill="none" stroke="#010101" stroke-width="2" stroke-miterlimit="10" x1="228.589" y1="325.672" x2="186.591" y2="325.672"/>
<line fill="none" stroke="#010101" stroke-width="2" stroke-miterlimit="10" x1="228.589" y1="339.414" x2="186.591" y2="339.414"/>
<line fill="none" stroke="#010101" stroke-width="5" stroke-miterlimit="10" x1="228.589" y1="366.411" x2="186.591" y2="366.411"/>
<line fill="none" stroke="#010101" stroke-width="2" stroke-miterlimit="10" x1="228.589" y1="380.338" x2="186.591" y2="380.338"/>
<line fill="none" stroke="#010101" stroke-width="2" stroke-miterlimit="10" x1="228.589" y1="394.021" x2="186.591" y2="394.021"/>
<line fill="none" stroke="#010101" stroke-width="2" stroke-miterlimit="10" x1="228.589" y1="408.502" x2="186.591" y2="408.502"/>
<line fill="none" stroke="#010101" stroke-width="2" stroke-miterlimit="10" x1="228.589" y1="422.369" x2="186.591" y2="422.369"/>
<line fill="none" stroke="#010101" stroke-width="5" stroke-miterlimit="10" x1="228.589" y1="435.377" x2="186.591" y2="435.377"/>
<line fill="none" stroke="#000000" stroke-width="2" stroke-miterlimit="10" x1="463.055" y1="366.411" x2="421.057" y2="366.411"/>
<line fill="none" stroke="#010101" stroke-width="2" stroke-miterlimit="10" x1="463.055" y1="352.666" x2="421.057" y2="352.666"/>
<line fill="none" stroke="#010101" stroke-width="2" stroke-miterlimit="10" x1="463.055" y1="338.924" x2="421.057" y2="338.924"/>
<line fill="none" stroke="#010101" stroke-width="2" stroke-miterlimit="10" x1="463.055" y1="317.447" x2="421.057" y2="317.447"/>
<line fill="none" stroke="#010101" stroke-width="2" stroke-miterlimit="10" x1="463.055" y1="303.826" x2="421.057" y2="303.826"/>
<line fill="none" stroke="#000000" stroke-width="2" stroke-miterlimit="10" x1="463.055" y1="290.081" x2="421.057" y2="290.081"/>
<line fill="none" stroke="#010101" stroke-width="2" stroke-miterlimit="10" x1="463.055" y1="262.592" x2="421.057" y2="262.592"/>
<line fill="none" stroke="#010101" stroke-width="2" stroke-miterlimit="10" x1="463.055" y1="276.338" x2="421.057" y2="276.338"/>
<line fill="none" stroke="#010101" stroke-width="5" stroke-miterlimit="10" x1="463.055" y1="248.971" x2="421.057" y2="248.971"/>
<line fill="none" stroke="#010101" stroke-width="2" stroke-miterlimit="10" x1="463.055" y1="235.227" x2="421.057" y2="235.227"/>
<line fill="none" stroke="#010101" stroke-width="2" stroke-miterlimit="10" x1="463.055" y1="207.738" x2="421.057" y2="207.738"/>
<line fill="none" stroke="#010101" stroke-width="2" stroke-miterlimit="10" x1="463.055" y1="220.074" x2="421.057" y2="220.074"/>
<line fill="none" stroke="#010101" stroke-width="2" stroke-miterlimit="10" x1="463.055" y1="193.996" x2="421.057" y2="193.996"/>
<line fill="none" stroke="#000000" stroke-width="2" stroke-miterlimit="10" x1="463.055" y1="380.338" x2="421.057" y2="380.338"/>
<line fill="none" stroke="#000000" stroke-width="2" stroke-miterlimit="10" x1="463.055" y1="394.021" x2="421.057" y2="394.021"/>
<path fill="none" stroke="#000000" stroke-width="2" stroke-miterlimit="10" d="M463.055,303.826"/>
<line fill="none" stroke="#010101" stroke-width="2" stroke-miterlimit="10" x1="463.055" y1="408.502" x2="421.057" y2="408.502"/>
<line fill="none" stroke="#010101" stroke-width="2" stroke-miterlimit="10" x1="463.055" y1="422.369" x2="421.057" y2="422.369"/>
<line fill="none" stroke="#010101" stroke-width="5" stroke-miterlimit="10" x1="463.055" y1="435.377" x2="421.057" y2="435.377"/>
<line fill="none" stroke="#000000" stroke-width="2" stroke-linecap="round" stroke-miterlimit="10" stroke-dasharray="0.1027,5.1335" x1="279.628" y1="129.781" x2="189.748" y2="135.606"/>
<g>
	<g>
		<g transform="translate(191.548,91.3167)">
			<g id="schematic_6_">
				<path id="connector0pin_6_" fill="none" stroke="#000000" stroke-width="2" stroke-linecap="round" d="M132.173,404.207v-49.645
					"/>
				<g id="connector0terminal_2_">
				</g>
			</g>
		</g>
	</g>
</g>
<polygon fill="none" stroke="#000000" stroke-width="2" stroke-linecap="round" points="348.186,495.521 323.721,537.896 
	299.256,495.521 "/>
<path id="connector0pin_21_" fill="none" stroke="#7C7B7C" stroke-width="2" stroke-linecap="round" d="M484.739,408.78"/>
<path fill="none" stroke="#414141" stroke-width="2" stroke-linecap="round" d="M484.836,414.903"/>
<g>
	<path fill="none" stroke="#000000" stroke-width="2" stroke-linecap="round" d="M484.233,401.112"/>
</g>
<g>
	<g>
		<g transform="translate(191.548,91.3167)">
			<g id="schematic_1_">
				<g id="connector0terminal_6_">
				</g>
			</g>
		</g>
	</g>
	<g>
		<path fill="none" stroke="#000000" stroke-width="2" stroke-linecap="round" d="M140.593,550.202"/>
	</g>
</g>
<path fill="none" stroke="#000000" stroke-width="2" stroke-miterlimit="10" d="M147.407,518.936"/>
<path id="connector0pin_4_" fill="none" stroke="#7B7B7B" stroke-width="2" stroke-linecap="round" d="M147.76,518.936"/>
<path fill="none" stroke="#000000" stroke-width="2" stroke-miterlimit="10" d="M146.968,533.288"/>
<path fill="none" stroke="#000000" stroke-width="2" stroke-miterlimit="10" d="M62.54,303.137"/>
<polyline fill="none" stroke="#000000" stroke-width="2" stroke-miterlimit="10" points="62.54,536.779 62.54,518.996 
	70.188,514.261 52.983,503.615 70.188,494.056 52.983,484.498 70.188,474.854 52.983,465.294 70.188,455.735 62.54,449.996 
	62.54,441.804 "/>
<g>
	<g>
		<g transform="translate(191.548,91.3167)">
			<g id="schematic_4_">
				<g id="connector0terminal_3_">
				</g>
			</g>
		</g>
	</g>
	<g>
		<path fill="none" stroke="#000000" stroke-width="2" stroke-linecap="round" d="M55.374,523.085"/>
	</g>
</g>
<polygon fill="none" stroke="#000000" stroke-width="2" stroke-linecap="round" points="86.052,535.742 60.006,578.105 
	37.123,535.742 "/>
<path fill="none" stroke="#000000" stroke-width="2" stroke-miterlimit="10" d="M62.186,520.818"/>
<path id="connector0pin_3_" fill="none" stroke="#7B7B7B" stroke-width="2" stroke-linecap="round" d="M62.54,520.818"/>
<path fill="none" stroke="#000000" stroke-width="2" stroke-miterlimit="10" d="M61.749,535.171"/>
<g id="connector0pin_1_">
	<path d="M63.166,534.171c-0.137,0.777-0.652,1.305-1.312,1.305s-1.311,0.48-1.311-0.305"/>
</g>
<path fill="none" stroke="#000000" stroke-width="2" stroke-miterlimit="10" d="M147.76,113.877"/>
<path fill="none" stroke="#000000" stroke-width="2" stroke-miterlimit="10" d="M62.54,114.062"/>
<path fill="none" stroke="#000000" stroke-width="2" stroke-miterlimit="10" d="M62.54,303.125"/>
<line fill="none" stroke="#000000" stroke-width="2" stroke-miterlimit="10" x1="189.748" y1="435.377" x2="66.166" y2="435.377"/>
<circle fill="#FFFFFF" stroke="#000000" stroke-width="2" stroke-miterlimit="10" cx="63.166" cy="434.136" r="7.668"/>
<g>
	<g>
		<g>
			<path id="connector0pin_2_" fill="none" stroke="#000000" stroke-width="2" stroke-linecap="round" d="M62.415,114.062"/>
			<path fill="none" stroke="#030303" stroke-width="2" stroke-linecap="round" d="M62.415,305.194"/>
		</g>
	</g>
</g>
<path fill="none" stroke="#000000" stroke-width="2" stroke-miterlimit="10" d="M462.65,393.961"/>
<polyline fill="none" stroke="#000000" stroke-width="2" stroke-miterlimit="10" points="61.498,426.468 61.498,288.175 
	69.145,283.439 51.94,272.794 69.145,263.234 51.94,253.677 69.145,244.032 51.94,234.473 69.145,224.914 61.498,219.175 
	61.498,113.062 "/>
<g>
	<g>
		<g transform="translate(191.548,91.3167)">
			<g id="schematic_7_">
				<g id="connector0terminal_4_">
				</g>
			</g>
		</g>
	</g>
	<g>
		<path fill="none" stroke="#000000" stroke-width="2" stroke-linecap="round" d="M54.332,292.264"/>
	</g>
</g>
<path fill="none" stroke="#000000" stroke-width="2" stroke-miterlimit="10" d="M61.144,289.997"/>
<path id="connector0pin_5_" fill="none" stroke="#7B7B7B" stroke-width="2" stroke-linecap="round" d="M61.498,289.997"/>
<path fill="none" stroke="#000000" stroke-width="2" stroke-miterlimit="10" d="M63.166,437.971"/>
<path fill="none" stroke="#000000" stroke-width="2" stroke-miterlimit="10" d="M63.166,447.702"/>
<text transform="matrix(1 0 0 1 466.6504 158.3438)" fill="#532E85" font-family="'ArialMT'" font-size="12">VIN</text>
<text transform="matrix(1 0 0 1 467.6504 142.3848)" font-family="'AppleBraille'" font-size="26">⠧⠊⠝</text>
<g>
	<g transform="translate(283.421,55.4048)">
		<g transform="matrix(-1,0,0,-1,0,0)">
			<g id="schematic_10_">
				<path fill="none" stroke="#000000" stroke-width="2" stroke-miterlimit="10" d="M-344.702-150.507"/>
			</g>
		</g>
	</g>
</g>
<g>
	<g transform="translate(176.73,201.995)">
		<g id="schematic_9_">
			<path id="connector0pin_13_" fill="none" stroke="#797979" stroke-width="2" stroke-linecap="round" d="M458.685,299.455"/>
		</g>
	</g>
</g>
<text transform="matrix(1 0 0 1 571.3154 220.126)" font-family="'AppleBraille'" font-size="26">⠎⠼⠁</text>
<text transform="matrix(1 0 0 1 661.4501 479.5488)" fill="#010201" font-family="'AppleBraille'" font-size="26">⠗⠼⠃</text>
<text transform="matrix(1 0 0 1 661.4501 508.3486)" fill="#010201" font-family="'AppleBraille'" font-size="26">⠼⠁⠚⠨⠺</text>
<g>
	<path fill="none" stroke="#000000" stroke-width="2" stroke-miterlimit="10" d="M628.098,229.07"/>
</g>
<g>
	
		<line fill="none" stroke="#000000" stroke-width="2" stroke-miterlimit="10" x1="636.782" y1="113.877" x2="323.721" y2="114.062"/>
</g>
<g>
	
		<line fill="none" stroke="#000000" stroke-width="2" stroke-miterlimit="10" x1="635.598" y1="290.327" x2="453.959" y2="290.327"/>
</g>
<g>
	<path fill="none" stroke="#414141" stroke-width="2" stroke-linecap="round" d="M635.705,526.795"/>
</g>
<g>
	<path fill="none" stroke="#414141" stroke-width="2" stroke-linecap="round" d="M635.382,501.681"/>
</g>
<g id="partLabel_1_">
	<g transform="translate(260.005,35.4048)">
		<g id="schematicLabel_1_">
			<text transform="matrix(1 0 0 1 343.8348 206.0952)" fill="#532E85" font-family="'ArialMT'" font-size="12.9143">S1</text>
		</g>
	</g>
</g>
<g id="partLabel_2_">
	<g transform="translate(260.005,35.4048)">
		<g id="schematicLabel_2_">
			<text transform="matrix(1 0 0 1 467.2567 427.7329)" fill="#532E85" font-family="'ArialMT'" font-size="12.9143">R2</text>
			<text transform="matrix(1 0 0 1 467.2567 446.23)" fill="#532E85" font-family="'ArialMT'" font-size="12.9143">10Ω</text>
		</g>
	</g>
</g>
<path id="connector0pin_12_" fill="none" stroke="#7C7B7C" stroke-width="2" stroke-linecap="round" d="M635.768,408.455"/>
<path fill="none" stroke="#414141" stroke-width="2" stroke-linecap="round" d="M635.866,414.578"/>
<path id="connector0pin_10_" fill="none" stroke="#7B7B7B" stroke-width="2" stroke-linecap="round" d="M636.413,452.434"/>
<path fill="none" stroke="#030303" stroke-width="2" stroke-linecap="round" d="M635.99,452.52"/>
<path fill="none" stroke="#030303" stroke-width="2" stroke-linecap="round" d="M635.827,525.254"/>
<g>
	<g>
		<path fill="none" stroke="#000000" stroke-width="2" stroke-linecap="round" d="M635.598,515.107"/>
	</g>
</g>
<g>
	
		<line id="connector0pin_9_" fill="none" stroke="#000000" stroke-width="2" stroke-miterlimit="10" x1="634.643" y1="297.995" x2="634.643" y2="442.024"/>
	<polyline fill="none" stroke="#030303" stroke-width="2" stroke-linecap="round" points="634.643,514.845 626.995,509.107 
		644.2,499.547 626.995,489.99 644.2,480.345 626.995,470.787 644.2,461.229 626.995,451.582 634.643,445.847 634.643,442.024 	"/>
</g>
<g>
	<path fill="none" stroke="#000000" stroke-width="2" stroke-linecap="round" d="M671.98,247.71"/>
</g>
<path id="connector0pin_11_" fill="none" stroke="#000000" stroke-width="2" stroke-linecap="round" d="M634.643,515.107"/>
<g>
	<g transform="translate(283.421,55.4048)">
		<g transform="matrix(-1,0,0,-1,0,0)">
			<g id="schematic_8_">
				
					<line fill="none" stroke="#000000" stroke-width="2" stroke-linecap="round" x1="-351.867" y1="-177.022" x2="-351.867" y2="-181.434"/>
				
					<line fill="none" stroke="#000000" stroke-width="2" stroke-linecap="round" x1="-351.867" y1="-146.029" x2="-374.084" y2="-172.095"/>
				
					<line id="connector0pin_8_" fill="none" stroke="#000000" stroke-width="2" stroke-linecap="round" x1="-351.867" y1="-58.657" x2="-351.867" y2="-146.029"/>
				
					<line id="connector1pin_6_" fill="none" stroke="#000000" stroke-width="2" stroke-linecap="round" x1="-351.867" y1="-227.254" x2="-351.867" y2="-181.434"/>
			</g>
		</g>
	</g>
</g>
<g>
	<path fill="none" stroke="#000000" stroke-width="2" stroke-linecap="round" d="M635.264,282.659"/>
</g>
<g>
	<g>
		<g transform="translate(191.548,91.3167)">
			<g id="schematic_3_">
				<path id="connector0pin_7_" fill="none" stroke="#000000" stroke-width="2" stroke-linecap="round" d="M443.095,442.661v-18.87"
					/>
				<g id="connector0terminal_1_">
				</g>
			</g>
		</g>
	</g>
</g>
<polygon fill="none" stroke="#000000" stroke-width="2" stroke-linecap="round" points="659.108,533.977 634.643,576.352 
	610.179,533.977 "/>
<circle fill="#FFFFFF" stroke="#000000" stroke-width="2" stroke-miterlimit="10" cx="635.866" cy="290.327" r="7.668"/>
<text transform="matrix(1 0 0 1 92.018 164.3379)" fill="#532E85" font-family="'ArialMT'" font-size="12">3.3V</text>
</svg>
