<?xml version="1.0" encoding="utf-8"?>
<!-- Generator: Adobe Illustrator 16.0.0, SVG Export Plug-In . SVG Version: 6.00 Build 0)  -->
<!DOCTYPE svg PUBLIC "-//W3C//DTD SVG 1.1//EN" "http://www.w3.org/Graphics/SVG/1.1/DTD/svg11.dtd">
<svg version="1.1" id="Layer_1" xmlns="http://www.w3.org/2000/svg" xmlns:xlink="http://www.w3.org/1999/xlink" x="0px" y="0px"
	 width="792px" height="612px" viewBox="0 0 792 612" enable-background="new 0 0 792 612" xml:space="preserve">
<text transform="matrix(1 0 0 1 41.625 162.4492)" fill="#010101" font-family="'AppleBraille'" font-size="26">⠅⠑⠽</text>
<text transform="matrix(1 0 0 1 41.625 191.249)" fill="#010101" font-family="'AppleBraille'" font-size="26">⠙⠏⠼⠁⠀⠤⠀⠁⠙⠼⠑⠃⠚⠋⠀⠙⠊⠛⠊⠞⠁⠇⠀⠏⠕⠞⠑⠝⠞⠊⠕⠍⠑⠞⠑⠗</text>
<text transform="matrix(1 0 0 1 41.625 220.0488)" fill="#010101" font-family="'AppleBraille'" font-size="26">⠗⠼⠁⠀⠤⠀⠼⠁⠚⠨⠺ ⠗⠑⠎⠊⠎⠞⠕⠗</text>
<text transform="matrix(1 0 0 1 41.625 248.8496)" fill="#010101" font-family="'AppleBraille'" font-size="26">⠎⠏⠅⠗⠼⠁⠀⠤⠀⠎⠺⠊⠞⠉⠓</text>
<text transform="matrix(1 0 0 1 41.625 277.6494)" fill="#010101" font-family="'AppleBraille'" font-size="26">⠁⠼⠁⠀⠤⠀⠁⠗⠙⠥⠊⠝⠕ ⠥⠝⠕ ⠗⠑⠧⠀⠼⠉</text>
<text transform="matrix(1 0 0 1 41.625 307.3486)" fill="#532E85" font-family="'ArialMT'" font-size="19.0417">Key</text>
<text transform="matrix(1 0 0 1 74.4355 307.3486)" fill="#532E85" font-family="'ArialMT'" font-size="19.0417">:</text>
<text transform="matrix(1 0 0 1 41.625 330.1963)" fill="#532E85" font-family="'ArialMT'" font-size="19.0417">DP1 - AD5206 Digital Potentiometer</text>
<text transform="matrix(1 0 0 1 41.625 353.0479)" fill="#532E85" font-family="'ArialMT'" font-size="19.0417">R1 - 220Ω Resistor</text>
<text transform="matrix(1 0 0 1 41.625 375.8975)" fill="#532E85" font-family="'ArialMT'" font-size="19.0417">SPKR1 - Switch</text>
<text transform="matrix(1 0 0 1 41.625 398.748)" fill="#532E85" font-family="'ArialMT'" font-size="19.0417">A1 - Arduino Uno (Rev 3)</text>
<rect x="41.625" y="522.5" fill="none" width="505" height="20"/>
<g>
	<line fill="none" stroke="#000000" stroke-width="4" stroke-miterlimit="10" x1="755.229" y1="0.772" x2="791.227" y2="36.771"/>
	<line fill="none" stroke="#000000" stroke-width="4" stroke-miterlimit="10" x1="738" y1="0" x2="792" y2="54"/>
	<line fill="none" stroke="#000000" stroke-width="4" stroke-miterlimit="10" x1="772.457" y1="1.543" x2="790.457" y2="19.543"/>
</g>
<g id="Braille_1_">
	<text transform="matrix(1 0 0 1 42.626 78.0645)" font-family="'AppleBraille'" font-size="26">⠎⠏⠊⠂⠀⠎⠏⠑⠁⠅⠑⠗</text>
</g>
<text transform="matrix(1 0 0 1 265.7847 75)" fill="#532E85" font-family="'ArialMT'" font-size="21">SPI, Speaker</text>
</svg>
