<?xml version="1.0" encoding="utf-8"?>
<!-- Generator: Adobe Illustrator 16.0.0, SVG Export Plug-In . SVG Version: 6.00 Build 0)  -->
<!DOCTYPE svg PUBLIC "-//W3C//DTD SVG 1.1//EN" "http://www.w3.org/Graphics/SVG/1.1/DTD/svg11.dtd">
<svg version="1.1" id="Layer_1" xmlns="http://www.w3.org/2000/svg" xmlns:xlink="http://www.w3.org/1999/xlink" x="0px" y="0px"
	 width="792px" height="612px" viewBox="-79.42 90 792 612" enable-background="new -79.42 90 792 612" xml:space="preserve">
<g id="partLabel_6_">
	<g transform="translate(0.4,0)">
		<g id="schematicLabel_6_">
			<text transform="matrix(1 0 0 1 -24.8473 176.3086)" fill="#B1B3B5" font-family="'ArialMT'" font-size="21">Lab Serial Duplex</text>
		</g>
	</g>
</g>
<text transform="matrix(1 0 0 1 -24.4951 144.1992)" font-family="'AppleBraille'" font-size="30">⠠⠇⠁⠃⠀⠠⠎⠻⠊⠁⠇⠀⠠⠙⠥⠏⠇⠑⠭</text>
<text transform="matrix(1 0 0 1 80.5049 499.1992)" enable-background="new    "><tspan x="0" y="0" font-family="'AppleBraille'" font-size="24">⠠⠞⠗⠊⠏⠇⠑⠀</tspan><tspan x="0" y="28.8" font-family="'AppleBraille'" font-size="24">⠠⠁⠭⠊⠎⠀</tspan><tspan x="0" y="57.6" font-family="'AppleBraille'" font-size="24">⠠⠁⠒⠑⠇⠻⠕⠍⠑⠞⠻⠀</tspan><tspan x="0" y="86.4" font-family="'AppleBraille'" font-size="24">⠠⠃⠗⠂⠅⠳⠞⠀</tspan><tspan x="0" y="115.2" font-family="'AppleBraille'" font-size="24">⠠⠠⠁⠙⠭⠇⠠⠄⠼⠉⠉⠑</tspan></text>
<text transform="matrix(1 0 0 1 142.5049 313.1992)" font-family="'AppleBraille'" font-size="24">⠠⠐⠏⠼⠁</text>
<text transform="matrix(1 0 0 1 530.5049 263.1992)" font-family="'AppleBraille'" font-size="24">⠠⠎⠼⠁</text>
<text transform="matrix(1 0 0 1 607.5049 455.1992)" enable-background="new    "><tspan x="0" y="0" font-family="'AppleBraille'" font-size="30">⠠⠗⠼⠁ </tspan><tspan x="0" y="36" font-family="'AppleBraille'" font-size="30">⠼⠁⠚⠨⠺</tspan></text>
<line fill="none" stroke="#000000" stroke-width="4" stroke-miterlimit="10" x1="-55.277" y1="86.602" x2="-77.496" y2="108.82"/>
<line fill="none" stroke="#000000" stroke-width="4" stroke-miterlimit="10" x1="-40.871" y1="83.102" x2="-82.496" y2="124.727"/>
<g>
	<g transform="translate(126.231,26.6186)">
		<g id="schematic">
			
				<rect x="164.078" y="261.087" fill="#FFFFFF" stroke="#000000" stroke-width="2" stroke-linecap="round" width="179.082" height="310.828"/>
			
				<line id="connector61pin" fill="none" stroke="#787878" stroke-width="2" stroke-linecap="round" x1="343.389" y1="292.994" x2="376.325" y2="292.994"/>
			<text transform="matrix(1 0 0 1 316.6088 294.5953)" fill="#BBBDC0" font-family="'Arial-Black'" font-size="6.4132">D0/RX</text>
			<g id="connector61terminal">
			</g>
			
				<line id="connector62pin" fill="none" stroke="#787878" stroke-width="2" stroke-linecap="round" x1="343.389" y1="309.461" x2="376.325" y2="309.461"/>
			<text transform="matrix(1 0 0 1 317.5014 311.0626)" fill="#BBBDC0" font-family="'Arial-Black'" font-size="6.4132">D1/TX</text>
			<g id="connector62terminal">
			</g>
			
				<line id="connector63pin" fill="none" stroke="#787878" stroke-width="2" stroke-linecap="round" x1="343.389" y1="325.93" x2="376.325" y2="325.93"/>
			<text transform="matrix(1 0 0 1 329.9536 327.5298)" fill="#BBBDC0" font-family="'Arial-Black'" font-size="6.4132">D2</text>
			<g id="connector63terminal">
			</g>
			
				<line id="connector64pin" fill="none" stroke="#787878" stroke-width="2" stroke-linecap="round" x1="343.389" y1="342.396" x2="376.325" y2="342.396"/>
			<text transform="matrix(1 0 0 1 308.1674 343.9976)" fill="#BBBDC0" font-family="'Arial-Black'" font-size="6.4132">D3 PWM</text>
			<g id="connector64terminal">
			</g>
			
				<line id="connector65pin" fill="none" stroke="#787878" stroke-width="2" stroke-linecap="round" x1="343.389" y1="358.865" x2="376.325" y2="358.865"/>
			<text transform="matrix(1 0 0 1 329.9536 360.4654)" fill="#BBBDC0" font-family="'Arial-Black'" font-size="6.4132">D4</text>
			<g id="connector65terminal">
			</g>
			
				<line id="connector66pin" fill="none" stroke="#787878" stroke-width="2" stroke-linecap="round" x1="343.389" y1="375.333" x2="376.325" y2="375.333"/>
			<text transform="matrix(1 0 0 1 308.1674 376.9341)" fill="#BBBDC0" font-family="'Arial-Black'" font-size="6.4132">D5 PWM</text>
			<g id="connector66terminal">
			</g>
			
				<line id="connector67pin" fill="none" stroke="#787878" stroke-width="2" stroke-linecap="round" x1="343.389" y1="391.799" x2="376.325" y2="391.799"/>
			<text transform="matrix(1 0 0 1 308.1674 393.4)" fill="#BBBDC0" font-family="'Arial-Black'" font-size="6.4132">D6 PWM</text>
			<g id="connector67terminal">
			</g>
			
				<line id="connector68pin" fill="none" stroke="#787878" stroke-width="2" stroke-linecap="round" x1="343.389" y1="408.268" x2="376.325" y2="408.268"/>
			<text transform="matrix(1 0 0 1 329.9536 409.8687)" fill="#BBBDC0" font-family="'Arial-Black'" font-size="6.4132">D7</text>
			<g id="connector68terminal">
			</g>
			
				<line id="connector51pin" fill="none" stroke="#787878" stroke-width="2" stroke-linecap="round" x1="343.389" y1="424.734" x2="376.325" y2="424.734"/>
			<text transform="matrix(1 0 0 1 329.9536 426.3375)" fill="#BBBDC0" font-family="'Arial-Black'" font-size="6.4132">D8</text>
			<g id="connector51terminal">
			</g>
			
				<line id="connector52pin" fill="none" stroke="#787878" stroke-width="2" stroke-linecap="round" x1="343.389" y1="441.203" x2="376.325" y2="441.203"/>
			<text transform="matrix(1 0 0 1 308.1674 442.8033)" fill="#BBBDC0" font-family="'Arial-Black'" font-size="6.4132">D9 PWM</text>
			<g id="connector52terminal">
			</g>
			
				<line id="connector53pin" fill="none" stroke="#787878" stroke-width="2" stroke-linecap="round" x1="343.389" y1="457.671" x2="376.325" y2="457.671"/>
			<text transform="matrix(1 0 0 1 290.811 459.272)" fill="#BBBDC0" font-family="'Arial-Black'" font-size="6.4132">D10 PWM/SS</text>
			<g id="connector53terminal">
			</g>
			
				<line id="connector54pin" fill="none" stroke="#787878" stroke-width="2" stroke-linecap="round" x1="343.389" y1="474.137" x2="376.325" y2="474.137"/>
			<text transform="matrix(1 0 0 1 281.6254 475.7388)" fill="#BBBDC0" font-family="'Arial-Black'" font-size="6.4132">D11 PWM/MOSI</text>
			<g id="connector54terminal">
			</g>
			
				<line id="connector55pin" fill="none" stroke="#787878" stroke-width="2" stroke-linecap="round" x1="343.389" y1="490.606" x2="376.325" y2="490.606"/>
			<text transform="matrix(1 0 0 1 302.8188 492.2066)" fill="#BBBDC0" font-family="'Arial-Black'" font-size="6.4132">D12/MISO</text>
			<g id="connector55terminal">
			</g>
			<line id="connector41pin" fill="none" x1="343.389" y1="507.073" x2="376.325" y2="507.073"/>
			<rect id="connector41terminal" x="376.325" y="506.272" fill="none" width="1.604" height="1.603"/>
			
				<line id="connector56pin" fill="none" stroke="#787878" stroke-width="2" stroke-linecap="round" x1="343.389" y1="507.073" x2="376.325" y2="507.073"/>
			<text transform="matrix(1 0 0 1 306.8178 508.6734)" fill="#BBBDC0" font-family="'Arial-Black'" font-size="6.4132">D13/SCK</text>
			<g id="connector56terminal">
			</g>
			<line id="connector43pin" fill="none" x1="130.914" y1="292.994" x2="163.848" y2="292.994"/>
			<rect id="connector43terminal" x="129.312" y="292.193" fill="none" width="1.602" height="1.601"/>
			
				<line id="connector85pin" fill="none" stroke="#787878" stroke-width="2" stroke-linecap="round" x1="130.914" y1="292.994" x2="163.848" y2="292.994"/>
			<text transform="matrix(1 0 0 1 167.0473 294.5953)" fill="#BBBDC0" font-family="'Arial-Black'" font-size="6.4132">RESET</text>
			<g id="connector85terminal">
			</g>
			
				<line id="connector49pin" fill="none" stroke="#787878" stroke-width="2" stroke-linecap="round" x1="130.914" y1="309.461" x2="163.848" y2="309.461"/>
			<text transform="matrix(1 0 0 1 167.0473 311.0626)" fill="#BBBDC0" font-family="'Arial-Black'" font-size="6.4132">RESET2</text>
			<rect id="connector49terminal" x="129.312" y="308.661" fill="none" width="1.602" height="1.601"/>
			
				<line id="connector58pin" fill="none" stroke="#787878" stroke-width="2" stroke-linecap="round" x1="130.914" y1="325.93" x2="163.848" y2="325.93"/>
			<text transform="matrix(1 0 0 1 167.0473 327.5298)" fill="#BBBDC0" font-family="'Arial-Black'" font-size="6.4132">AREF</text>
			<g id="connector58terminal">
			</g>
			
				<line id="connector84pin" fill="none" stroke="#787878" stroke-width="2" stroke-linecap="round" x1="130.914" y1="342.396" x2="163.848" y2="342.396"/>
			<text transform="matrix(1 0 0 1 167.0473 343.9976)" fill="#BBBDC0" font-family="'Arial-Black'" font-size="6.4132">ioref</text>
			<g id="connector84terminal">
			</g>
			
				<line id="connector0pin" fill="none" stroke="#787878" stroke-width="2" stroke-linecap="round" x1="130.914" y1="375.333" x2="163.848" y2="375.333"/>
			<text transform="matrix(1 0 0 1 167.0473 376.9341)" fill="#BBBDC0" font-family="'Arial-Black'" font-size="6.4132">A0</text>
			<g id="connector0terminal">
			</g>
			
				<line id="connector1pin" fill="none" stroke="#787878" stroke-width="2" stroke-linecap="round" x1="130.914" y1="391.799" x2="163.848" y2="391.799"/>
			<text transform="matrix(1 0 0 1 167.0473 393.4)" fill="#B1B3B5" font-family="'Arial-Black'" font-size="6.4132">A1</text>
			<g id="connector1terminal">
			</g>
			
				<line id="connector2pin" fill="none" stroke="#787878" stroke-width="2" stroke-linecap="round" x1="130.914" y1="408.268" x2="163.848" y2="408.268"/>
			<text transform="matrix(1 0 0 1 167.0473 409.8687)" fill="#B1B3B5" font-family="'Arial-Black'" font-size="6.4132">A2</text>
			<g id="connector2terminal">
			</g>
			
				<line id="connector3pin" fill="none" stroke="#787878" stroke-width="2" stroke-linecap="round" x1="130.914" y1="424.734" x2="163.848" y2="424.734"/>
			<text transform="matrix(1 0 0 1 167.0473 426.3375)" fill="#B1B3B5" font-family="'Arial-Black'" font-size="6.4132">A3</text>
			<g id="connector3terminal">
			</g>
			<line id="connector48pin" fill="none" x1="130.914" y1="441.203" x2="163.848" y2="441.203"/>
			<rect id="connector48terminal" x="129.312" y="440.403" fill="none" width="1.602" height="1.603"/>
			<line id="connector45pin" fill="none" x1="130.914" y1="441.203" x2="163.848" y2="441.203"/>
			<rect id="connector45terminal" x="129.312" y="440.403" fill="none" width="1.602" height="1.603"/>
			<line id="connector4pin" fill="none" x1="130.914" y1="441.203" x2="163.848" y2="441.203"/>
			<g id="connector4terminal">
			</g>
			<line id="connector39pin" fill="none" x1="130.914" y1="441.203" x2="163.848" y2="441.203"/>
			<rect id="connector39terminal" x="129.312" y="440.403" fill="none" width="1.602" height="1.603"/>
			<line id="connector47pin" fill="none" x1="130.914" y1="441.203" x2="163.848" y2="441.203"/>
			<rect id="connector47terminal" x="129.312" y="440.403" fill="none" width="1.602" height="1.603"/>
			<line id="connector42pin" fill="none" x1="130.914" y1="441.203" x2="163.848" y2="441.203"/>
			<rect id="connector42terminal" x="129.312" y="440.403" fill="none" width="1.602" height="1.603"/>
			
				<line id="connector59pin" fill="none" stroke="#787878" stroke-width="2" stroke-linecap="round" x1="130.914" y1="441.203" x2="163.848" y2="441.203"/>
			<text transform="matrix(1 0 0 1 167.0473 442.8033)" fill="#B1B3B5" font-family="'Arial-Black'" font-size="6.4132">A4/SDA</text>
			<g id="connector59terminal">
			</g>
			<line id="connector5pin" fill="none" x1="130.914" y1="457.671" x2="163.848" y2="457.671"/>
			<g id="connector5terminal">
			</g>
			
				<line id="connector60pin" fill="none" stroke="#787878" stroke-width="2" stroke-linecap="round" x1="130.914" y1="457.671" x2="163.848" y2="457.671"/>
			<text transform="matrix(1 0 0 1 167.0473 459.272)" fill="#B1B3B5" font-family="'Arial-Black'" font-size="6.4132">A5/SCL</text>
			<g id="connector60terminal">
			</g>
			
				<line id="connector91pin" fill="none" stroke="#787878" stroke-width="2" stroke-linecap="round" x1="130.914" y1="540.009" x2="163.848" y2="540.009"/>
			<text transform="matrix(1 0 0 1 167.0473 541.6089)" fill="#B1B3B5" font-family="'Arial-Black'" font-size="6.4132">N/C</text>
			<g id="connector91terminal">
			</g>
			<line id="connector88pin" fill="none" x1="261.853" y1="572.144" x2="261.853" y2="605.08"/>
			<g id="connector88terminal">
			</g>
			<line id="connector57pin" fill="none" x1="261.853" y1="572.144" x2="261.853" y2="605.08"/>
			<g id="connector57terminal">
			</g>
			<line id="connector44pin" fill="none" x1="261.853" y1="572.144" x2="261.853" y2="605.08"/>
			<rect id="connector44terminal" x="261.053" y="605.08" fill="none" width="1.601" height="1.601"/>
			<line id="connector50pin" fill="none" x1="261.853" y1="572.144" x2="261.853" y2="605.08"/>
			<rect id="connector50terminal" x="261.053" y="605.08" fill="none" width="1.601" height="1.601"/>
			
				<line id="connector89pin" fill="none" stroke="#787878" stroke-width="2" stroke-linecap="round" x1="261.853" y1="572.144" x2="261.853" y2="605.08"/>
			<g transform="matrix(1, 0, 0, 1, 58.2999, 149.45)">
				<g>
					<g transform="rotate(270)">
						<g>
							<text transform="matrix(1 0 0 1 -419.4929 205.1517)" fill="#B1B3B5" font-family="'Arial-Black'" font-size="6.4132">GND</text>
						</g>
					</g>
				</g>
			</g>
			<g id="connector89terminal">
			</g>
			
				<line id="connector86pin" fill="none" stroke="#787878" stroke-width="2" stroke-linecap="round" x1="212.451" y1="227.924" x2="212.451" y2="260.859"/>
			<g transform="matrix(1, 0, 0, 1, 36.6999, 16.15)">
				<g>
					<g transform="rotate(270)">
						<g>
							<text transform="matrix(1 0 0 1 -262.1562 177.3474)" fill="#BBBDC0" font-family="'Arial-Black'" font-size="6.4132">3V3</text>
						</g>
					</g>
				</g>
			</g>
			<g id="connector86terminal">
			</g>
			<line id="connector40pin" fill="none" x1="245.385" y1="227.924" x2="245.385" y2="260.859"/>
			<rect id="connector40terminal" x="244.584" y="226.323" fill="none" width="1.601" height="1.601"/>
			<line id="connector46pin" fill="none" x1="245.385" y1="227.924" x2="245.385" y2="260.859"/>
			<rect id="connector46terminal" x="244.584" y="226.323" fill="none" width="1.601" height="1.601"/>
			
				<line id="connector87pin" fill="none" stroke="#787878" stroke-width="2" stroke-linecap="round" x1="245.385" y1="227.924" x2="245.385" y2="260.859"/>
			<g transform="matrix(1, 0, 0, 1, 51.0999, 16.15)">
				<g>
					<g transform="rotate(270)">
						<g>
							<text transform="matrix(1 0 0 1 -257.7031 195.883)" fill="#BBBDC0" font-family="'Arial-Black'" font-size="6.4132">5V</text>
						</g>
					</g>
				</g>
			</g>
			<g id="connector87terminal">
			</g>
			
				<line id="connector90pin" fill="none" stroke="#787878" stroke-width="2" stroke-linecap="round" x1="278.32" y1="227.924" x2="278.32" y2="260.859"/>
			<g transform="matrix(1, 0, 0, 1, 65.4999, 16.15)">
				<g>
					<g transform="rotate(270)">
						<g>
							<text transform="matrix(1 0 0 1 -261.2578 214.4166)" fill="#BBBDC0" font-family="'Arial-Black'" font-size="6.4132">VIN</text>
						</g>
					</g>
				</g>
			</g>
			<g id="connector90terminal">
			</g>
			<text id="label" transform="matrix(1 0 0 1 237.894 401.9771)" fill="#BBBDC0" font-family="'ArialMT'" font-size="9.7205">Arduino</text>
			<text id="label_1_" transform="matrix(1 0 0 1 245.7299 412.3453)" fill="#BBBDC0" font-family="'ArialMT'" font-size="9.7205">Uno</text>
			<text id="label_2_" transform="matrix(1 0 0 1 240.0639 422.7164)" fill="#BBBDC0" font-family="'ArialMT'" font-size="9.7205">(Rev3)</text>
		</g>
	</g>
</g>
<g>
	<g transform="translate(283.421,55.4048)">
		<g transform="matrix(-1,0,0,-1,0,0)">
			<g id="schematic_1_">
				
					<line fill="none" stroke="#000000" stroke-width="2" stroke-linecap="round" x1="-321.6" y1="-242.829" x2="-321.6" y2="-246.945"/>
				
					<line fill="none" stroke="#000000" stroke-width="2" stroke-linecap="round" x1="-321.6" y1="-214.009" x2="-329.831" y2="-242.829"/>
				<circle fill="none" stroke="#000000" stroke-width="2" cx="-321.6" cy="-214.009" r="0.824"/>
				<circle fill="none" stroke="#000000" stroke-width="2" cx="-321.6" cy="-246.944" r="0.824"/>
				
					<line id="connector0pin_1_" fill="none" stroke="#555555" stroke-width="2" stroke-linecap="round" x1="-321.6" y1="-197.539" x2="-321.6" y2="-214.009"/>
				<g id="connector0terminal_1_">
				</g>
				
					<line id="connector1pin_1_" fill="none" stroke="#555555" stroke-width="2" stroke-linecap="round" x1="-321.6" y1="-263.414" x2="-321.6" y2="-246.945"/>
				<g id="connector1terminal_1_">
				</g>
			</g>
		</g>
	</g>
</g>
<g>
	<g transform="translate(0,64.2787)">
		<g id="schematic_2_">
			
				<rect x="1.598" y="309.563" fill="#FFFFFF" stroke="#000000" stroke-width="2" stroke-linecap="round" width="129.681" height="96.748"/>
			
				<line id="connector11pin" fill="none" stroke="#787878" stroke-width="2" stroke-linecap="round" x1="131.509" y1="341.468" x2="164.444" y2="341.468"/>
			<text transform="matrix(1 0 0 1 106.0654 343.069)" fill="#BBBDC0" font-family="'Arial-Black'" font-size="6.4132">XOUT</text>
			<g id="connector11terminal">
			</g>
			
				<line id="connector10pin" fill="none" stroke="#787878" stroke-width="2" stroke-linecap="round" x1="131.509" y1="357.936" x2="164.444" y2="357.936"/>
			<text transform="matrix(1 0 0 1 106.0654 359.5377)" fill="#BBBDC0" font-family="'Arial-Black'" font-size="6.4132">YOUT</text>
			<g id="connector10terminal">
			</g>
			
				<line id="connector9pin" fill="none" stroke="#787878" stroke-width="2" stroke-linecap="round" x1="131.509" y1="374.403" x2="164.444" y2="374.403"/>
			<text transform="matrix(1 0 0 1 106.5161 376.0045)" fill="#BBBDC0" font-family="'Arial-Black'" font-size="6.4132">ZOUT</text>
			<g id="connector9terminal">
			</g>
			
				<line id="connector8pin" fill="none" stroke="#787878" stroke-width="2" stroke-linecap="round" x1="-31.566" y1="341.468" x2="1.369" y2="341.468"/>
			<text transform="matrix(1 0 0 1 4.5674 343.069)" fill="#BBBDC0" font-family="'Arial-Black'" font-size="6.4132">ST</text>
			<g id="connector8terminal">
			</g>
			
				<line id="connector12pin" fill="none" stroke="#787878" stroke-width="2" stroke-linecap="round" x1="66.439" y1="406.538" x2="66.439" y2="439.473"/>
			<g transform="matrix(1, 0, 0, 1, 43.8999, 55.8499)">
				<g>
					<g transform="rotate(270)">
						<g>
							<text transform="matrix(1 0 0 1 -347.4876 24.1328)" fill="#BBBDC0" font-family="'Arial-Black'" font-size="6.4132">GND</text>
						</g>
					</g>
				</g>
			</g>
			<g id="connector12terminal">
			</g>
			
				<line id="connector13pin" fill="none" stroke="#787878" stroke-width="2" stroke-linecap="round" x1="66.439" y1="276.399" x2="66.439" y2="309.334"/>
			<g transform="matrix(1, 0, 0, 1, 43.8999, 16.15)">
				<g>
					<g transform="rotate(270)">
						<g>
							<text transform="matrix(1 0 0 1 -313.2891 24.1328)" fill="#BBBDC0" font-family="'Arial-Black'" font-size="6.4132">VCC</text>
						</g>
					</g>
				</g>
			</g>
			<g id="connector13terminal">
			</g>
			<text id="label_3_" transform="matrix(1 0 0 1 45.228 339.6012)" fill="#BBBDC0" font-family="'ArialMT'" font-size="9.7205">Triple Axis</text>
			<text id="label_4_" transform="matrix(1 0 0 1 36.1318 349.9694)" fill="#BBBDC0" font-family="'ArialMT'" font-size="9.7205">Accelerometer</text>
			<text id="label_5_" transform="matrix(1 0 0 1 48.0112 360.3395)" fill="#BBBDC0" font-family="'ArialMT'" font-size="9.7205">Breakout</text>
			<text id="label_6_" transform="matrix(1 0 0 1 46.6587 370.7086)" fill="#BBBDC0" font-family="'ArialMT'" font-size="9.7205">ADXL335</text>
		</g>
	</g>
</g>
<g>
	<g transform="translate(275.697,117.988)">
		<g transform="matrix(0,-1,1,0,0,0)">
			<g id="schematic_3_">
				
					<line fill="none" stroke="#000000" stroke-width="2" stroke-linecap="round" x1="-327.463" y1="329.581" x2="-324.992" y2="322.995"/>
				
					<line fill="none" stroke="#000000" stroke-width="2" stroke-linecap="round" x1="-324.992" y1="322.995" x2="-320.875" y2="336.169"/>
				
					<line fill="none" stroke="#000000" stroke-width="2" stroke-linecap="round" x1="-320.875" y1="336.169" x2="-316.761" y2="322.995"/>
				
					<line fill="none" stroke="#000000" stroke-width="2" stroke-linecap="round" x1="-316.761" y1="322.995" x2="-312.644" y2="336.169"/>
				
					<line fill="none" stroke="#000000" stroke-width="2" stroke-linecap="round" x1="-312.644" y1="336.169" x2="-308.527" y2="322.995"/>
				
					<line fill="none" stroke="#000000" stroke-width="2" stroke-linecap="round" x1="-308.527" y1="322.995" x2="-304.407" y2="336.169"/>
				
					<line fill="none" stroke="#000000" stroke-width="2" stroke-linecap="round" x1="-304.407" y1="336.169" x2="-300.292" y2="322.995"/>
				
					<line fill="none" stroke="#000000" stroke-width="2" stroke-linecap="round" x1="-300.292" y1="322.995" x2="-296.174" y2="336.169"/>
				
					<line fill="none" stroke="#000000" stroke-width="2" stroke-linecap="round" x1="-296.174" y1="336.169" x2="-294.528" y2="329.581"/>
				
					<line id="connector1pin_2_" fill="none" stroke="#787878" stroke-width="2" stroke-linecap="round" x1="-278.059" y1="329.581" x2="-294.528" y2="329.581"/>
				<g id="connector1terminal_2_">
				</g>
				<text transform="matrix(1 0 0 1 -287.8821 327.177)" fill="#8C8C8C" font-family="'ArialMT'" font-size="5.718">2</text>
				
					<line id="connector0pin_2_" fill="none" stroke="#787878" stroke-width="2" stroke-linecap="round" x1="-343.932" y1="329.581" x2="-327.463" y2="329.581"/>
				<g id="connector0terminal_2_">
				</g>
				<text transform="matrix(1 0 0 1 -337.2884 327.177)" fill="#8C8C8C" font-family="'ArialMT'" font-size="5.718">1</text>
			</g>
		</g>
	</g>
</g>
<text transform="matrix(1 0 0 1 298.5049 522.1992)" enable-background="new    "><tspan x="0" y="0" font-family="'AppleBraille'" font-size="24">⠠⠜⠙⠥⠔⠕⠀⠠</tspan><tspan x="0" y="28.8" font-family="'AppleBraille'" font-size="24">⠥⠝⠕⠀</tspan><tspan x="0" y="57.6" font-family="'AppleBraille'" font-size="24">⠐⠣⠠⠗⠑⠧⠼⠉⠐⠜</tspan></text>
<g>
	<g transform="translate(176.73,201.995)">
		<g id="schematic_4_">
			<path id="connector0pin_3_" fill="none" stroke="#787878" stroke-width="2" stroke-linecap="round" d="M211.584,470.19v-16.471"
				/>
			<g id="connector0terminal_3_">
			</g>
			<path id="path4098" fill="none" stroke="#000000" stroke-width="2" stroke-linecap="round" d="M196.256,470.498h30.65"/>
			<path id="path4100" fill="none" stroke="#000000" stroke-width="2" stroke-linecap="round" d="M201.362,476.78h20.436"/>
			<path id="path4102" fill="none" stroke="#000000" stroke-width="2" stroke-linecap="round" d="M216.685,482.998h-10.211"/>
		</g>
	</g>
</g>
<g>
	
		<line fill="none" stroke="#A37911" stroke-width="2" stroke-linecap="round" x1="605.278" y1="396.048" x2="605.021" y2="318.818"/>
</g>
<g>
	<line fill="none" stroke="#404040" stroke-width="2" stroke-linecap="round" x1="66.438" y1="339.876" x2="66.438" y2="196.509"/>
</g>
<g>
	
		<line fill="none" stroke="#404040" stroke-width="2" stroke-linecap="round" x1="370.595" y1="196.398" x2="371.616" y2="253.742"/>
</g>
<circle cx="370.595" cy="196.399" r="3.294"/>
<g>
	<line fill="none" stroke="#404040" stroke-width="2" stroke-linecap="round" x1="66.438" y1="196.509" x2="370.595" y2="196.398"/>
</g>
<g>
	
		<line fill="none" stroke="#404040" stroke-width="2" stroke-linecap="round" x1="605.021" y1="252.946" x2="606.238" y2="195.289"/>
</g>
<g>
	
		<line fill="none" stroke="#404040" stroke-width="2" stroke-linecap="round" x1="606.238" y1="195.289" x2="370.595" y2="196.398"/>
</g>
<g>
	
		<line fill="none" stroke="#404040" stroke-width="2" stroke-linecap="round" x1="605.136" y1="352.549" x2="503.357" y2="352.549"/>
</g>
<g>
	
		<line fill="none" stroke="#404040" stroke-width="2" stroke-linecap="round" x1="605.136" y1="396.561" x2="605.136" y2="352.549"/>
</g>
<g>
	
		<line fill="none" stroke="#404040" stroke-width="2" stroke-linecap="round" x1="605.278" y1="396.048" x2="605.136" y2="396.561"/>
</g>
<g>
	
		<line fill="none" stroke="#404040" stroke-width="2" stroke-linecap="round" x1="605.278" y1="632.496" x2="388.084" y2="632.496"/>
</g>
<circle cx="388.084" cy="632.497" r="3.294"/>
<g>
	<line fill="none" stroke="#404040" stroke-width="2" stroke-linecap="round" x1="605.278" y1="461.92" x2="605.278" y2="632.496"/>
</g>
<g>
	<line fill="none" stroke="#404040" stroke-width="2" stroke-linecap="round" x1="68.413" y1="632.496" x2="388.084" y2="632.496"/>
</g>
<circle cx="388.084" cy="632.497" r="3.294"/>
<g>
	<line fill="none" stroke="#404040" stroke-width="2" stroke-linecap="round" x1="66.438" y1="504.557" x2="68.413" y2="632.496"/>
</g>
<g>
	<path fill="none" stroke="#404040" stroke-width="2" stroke-linecap="round" d="M256.345,401.951"/>
</g>
<g>
	<path fill="none" stroke="#404040" stroke-width="2" stroke-linecap="round" d="M165.245,422.216
		c51.854-1.903,57.246-21.329,91.101-20.266"/>
</g>
<g>
	<path fill="none" stroke="#404040" stroke-width="2" stroke-linecap="round" d="M165.245,405.746
		c45.235-0.205,47.181,16.442,91.101,12.672"/>
</g>
<g>
	
		<line fill="none" stroke="#404040" stroke-width="2" stroke-linecap="round" x1="605.021" y1="318.818" x2="605.136" y2="353.257"/>
</g>
<g>
	<line fill="none" stroke="#404040" stroke-width="2" stroke-linecap="round" x1="388.084" y1="632.496" x2="388.31" y2="655.948"/>
</g>
<circle cx="388.084" cy="632.497" r="3.294"/>
<g id="partLabel">
	<g transform="translate(139.031,20.6186)">
		<g id="schematicLabel">
			<text transform="matrix(1 0 0 1 146.5862 227.9781)" fill="#FFFFFF" font-family="'ArialMT'" font-size="11.4358">Arduino1</text>
		</g>
	</g>
</g>
<g id="partLabel_1_">
	<g transform="translate(260.005,35.4048)">
		<g id="schematicLabel_1_">
			<text transform="matrix(1 0 0 1 302.2997 247.0103)" fill="#B1B3B5" font-family="'ArialMT'" font-size="12">S1</text>
		</g>
	</g>
</g>
<g id="partLabel_2_">
	<g transform="translate(86.4,58.6787)">
		<g id="schematicLabel_2_">
			<text transform="matrix(1 0 0 1 78.8407 276.9658)" fill="#B1B3B5" font-family="'ArialMT'" font-size="12">Part1</text>
		</g>
	</g>
</g>
<g id="partLabel_3_">
	<g transform="translate(254.734,98.3344)">
		<g id="schematicLabel_3_">
			<text transform="matrix(1 0 0 1 295.515 328.0132)" fill="#B1B3B5" font-family="'ArialMT'" font-size="12">R1</text>
			<text transform="matrix(1 0 0 1 295.515 339.4468)" fill="#B1B3B5" font-family="'ArialMT'" font-size="12">10kΩ</text>
		</g>
	</g>
</g>
</svg>
