<?xml version="1.0" encoding="utf-8"?>
<!-- Generator: Adobe Illustrator 16.0.0, SVG Export Plug-In . SVG Version: 6.00 Build 0)  -->
<!DOCTYPE svg PUBLIC "-//W3C//DTD SVG 1.1//EN" "http://www.w3.org/Graphics/SVG/1.1/DTD/svg11.dtd">
<svg version="1.1" id="Layer_1" xmlns="http://www.w3.org/2000/svg" xmlns:xlink="http://www.w3.org/1999/xlink" x="0px" y="0px"
	 width="792px" height="612px" viewBox="0 0 792 612" enable-background="new 0 0 792 612" xml:space="preserve">
<g id="plaintext" display="none">
	<text transform="matrix(1 0 0 1 262.8433 340.8613)" display="inline" font-family="'MyriadPro-Regular'" font-size="17.7326">Output</text>
	<text transform="matrix(1 0 0 1 162.7798 362.1406)" display="inline" font-family="'MyriadPro-Regular'" font-size="17.7326">from microcontroller</text>
	<text transform="matrix(1 0 0 1 29.8711 236.959)" display="inline" font-family="'MyriadPro-Regular'" font-size="17.7326">Digital Output</text>
	<text transform="matrix(1 0 0 1 404.5684 400.3926)" display="inline" font-family="'MyriadPro-Regular'" font-size="17.7326">220Ω</text>
	<text transform="matrix(1 0 0 1 413.8398 467.625)" display="inline" font-family="'MyriadPro-Regular'" font-size="17.7326">LED</text>
</g>
<g id="Braille_1_">
	<text transform="matrix(1 0 0 1 42.626 78.0645)" font-family="'AppleBraille'" font-size="26">⠎⠑⠗⠧⠕</text>
</g>
<text transform="matrix(1 0 0 1 139.2881 75)" fill="#532E85" font-family="'ArialMT'" font-size="21">Servo</text>
<g>
	<g transform="translate(126.231,26.6186)">
		<g id="schematic">
			
				<rect x="118.442" y="137.719" fill="#FFFFFF" stroke="#010201" stroke-width="8" stroke-linecap="round" width="192.747" height="282.479"/>
			
				<line id="connector63pin" fill="none" stroke="#000000" stroke-width="2" stroke-miterlimit="10" x1="311.405" y1="157.455" x2="352.908" y2="157.455"/>
			<path id="connector56pin_1_" fill="none" stroke="#000000" stroke-width="2" stroke-miterlimit="10" d="M311.405,352.463"/>
			
				<line id="connector86pin" fill="none" stroke="#000000" stroke-width="2" stroke-miterlimit="10" x1="170.53" y1="109.988" x2="170.53" y2="139.504"/>
			<line id="connector40pin" fill="none" x1="205.937" y1="103.988" x2="205.937" y2="139.504"/>
			<rect id="connector40terminal" x="205.076" y="102.269" fill="none" width="1.727" height="1.719"/>
			<line id="connector46pin" fill="none" x1="205.937" y1="103.988" x2="205.937" y2="139.504"/>
			<rect id="connector46terminal" x="205.076" y="102.269" fill="none" width="1.727" height="1.719"/>
			
				<line id="connector87pin" fill="none" stroke="#000000" stroke-width="2" stroke-miterlimit="10" x1="205.937" y1="95.109" x2="205.937" y2="139.504"/>
			
				<line id="connector90pin" fill="none" stroke="#000000" stroke-width="2" stroke-miterlimit="10" x1="241.344" y1="108.988" x2="241.344" y2="139.504"/>
		</g>
	</g>
</g>
<g>
	<g transform="translate(0,64.2787)">
		<g id="schematic_2_">
			<text transform="matrix(1 0 0 1 133.1357 461.9703)" fill="#532E85" font-family="'ArialMT'" font-size="12">R1 </text>
			<text transform="matrix(1 0 0 1 151.8096 461.9703)" fill="#532E85" font-family="'ArialMT'" font-size="12.9143">10Ω</text>
			<text transform="matrix(1 0 0 1 175.8286 461.9703)" fill="#BBBDC0" font-family="'ArialMT'" font-size="12"> </text>
			<text transform="matrix(1 0 0 1 103.1357 187.692)" fill="#532E85" font-family="'ArialMT'" font-size="12">VR1 </text>
			<text transform="matrix(1 0 0 1 327.5088 292.3873)" fill="#532E85" font-family="'ArialMT'" font-size="12">Arduino Uno </text>
			<text transform="matrix(1 0 0 1 327.5088 306.7877)" fill="#532E85" font-family="'ArialMT'" font-size="12">(Rev 3)</text>
			<text transform="matrix(1 0 0 1 324.5327 150.1881)" fill="#532E85" font-family="'ArialMT'" font-size="12">5V</text>
		</g>
	</g>
</g>
<text transform="matrix(1 0 0 1 367.5747 530.9209)" font-family="'AppleBraille'" font-size="26">⠛⠝⠙</text>
<text transform="matrix(1 0 0 1 327.9595 295.3262)" fill="#532E85" font-family="'ArialMT'" font-size="12">D10</text>
<text transform="matrix(1 0 0 1 315.4688 433.4668)" fill="#532E85" font-family="'ArialMT'" font-size="12">A0</text>
<text transform="matrix(1 0 0 1 353.9595 302.791)" font-family="'AppleBraille'" font-size="26">⠙⠼⠁⠚</text>
<text transform="matrix(1 0 0 1 254.4643 437.498)" font-family="'AppleBraille'" font-size="26">⠁⠼⠚</text>
<text transform="matrix(1 0 0 1 306.3999 201.4336)" font-family="'AppleBraille'" font-size="26">⠼⠑⠧</text>
<text transform="matrix(1 0 0 1 102.1357 476.6045)" font-family="'AppleBraille'" font-size="26">⠗⠼⠁</text>
<text transform="matrix(1 0 0 1 102.1357 235.7363)" font-family="'AppleBraille'" font-size="26">⠧⠗⠼⠁</text>
<text transform="matrix(1 0 0 1 102.1357 507.8047)" fill="#010201" font-family="'AppleBraille'" font-size="26">⠼⠁⠚⠨⠺</text>
<text transform="matrix(1 0 0 1 108.102 148.3643)" font-family="'AppleBraille'" font-size="26">⠼⠉⠲⠉⠧</text>
<text transform="matrix(1 0 0 1 267.5107 338.8662)" font-family="'AppleBraille'" font-size="26">⠁⠗⠙⠥⠊⠝⠕</text>
<text transform="matrix(1 0 0 1 266.0107 367.666)" font-family="'AppleBraille'" font-size="26">⠥⠝⠕</text>
<text transform="matrix(1 0 0 1 267.5107 396.4658)" font-family="'AppleBraille'" font-size="26">⠗⠑⠧⠀⠼⠉</text>
<text transform="matrix(1 0 0 1 428.123 524.249)" fill="#532E85" font-family="'ArialMT'" font-size="13.9091">GND</text>
<g>
	<path fill="none" stroke="#414141" stroke-width="2" stroke-linecap="round" d="M332.137,110.509"/>
	<path fill="none" stroke="#414141" stroke-width="2" stroke-linecap="round" d="M331.06,114.062"/>
</g>
<circle fill="#010201" cx="331.06" cy="114.06" r="3.551"/>
<g>
	<path fill="none" stroke="#414141" stroke-width="2" stroke-linecap="round" d="M345.957,114.062"/>
</g>
<g>
	<line fill="none" stroke="#000000" stroke-width="2" stroke-miterlimit="10" x1="330.995" y1="113.877" x2="77.671" y2="114.062"/>
	
		<line fill="none" stroke="#000000" stroke-width="2" stroke-miterlimit="10" x1="593.996" y1="113.877" x2="340.672" y2="114.062"/>
</g>
<g>
	<path fill="none" stroke="#000000" stroke-width="2" stroke-miterlimit="10" d="M479.139,408.785"/>
</g>
<g>
	<path fill="none" stroke="#414141" stroke-width="2" stroke-linecap="round" d="M341.015,448.816"/>
</g>
<path fill="none" stroke="#030303" stroke-width="2" stroke-linecap="round" d="M341.46,448.816"/>
<g>
	<g>
		<path fill="none" stroke="#000000" stroke-width="2" stroke-linecap="round" d="M340.977,448.816"/>
		<path fill="none" stroke="#000000" stroke-width="2" stroke-linecap="round" d="M341.263,455.558"/>
	</g>
</g>
<g>
	<path fill="none" stroke="#000000" stroke-width="2" stroke-linecap="round" d="M821.917,247.71"/>
</g>
<circle fill="#FFFFFF" stroke="#000000" stroke-width="2" stroke-miterlimit="10" cx="332.137" cy="114.062" r="7.668"/>
<g>
	<g>
		<path fill="none" stroke="#000000" stroke-width="2" stroke-linecap="round" stroke-miterlimit="10" d="M415.65,119.908"/>
		
			<line fill="none" stroke="#000000" stroke-width="2" stroke-linecap="round" stroke-miterlimit="10" stroke-dasharray="0.1027,5.1335" x1="469.979" y1="138.086" x2="371.96" y2="132.389"/>
	</g>
</g>
<g>
	<g>
		
			<line fill="none" stroke="#000000" stroke-linecap="round" stroke-miterlimit="10" x1="296.761" y1="126.79" x2="296.712" y2="126.781"/>
		
			<line fill="none" stroke="#000000" stroke-linecap="round" stroke-miterlimit="10" x1="244.722" y1="116.799" x2="244.673" y2="116.79"/>
	</g>
</g>
<g>
	<line fill="none" stroke="#000000" stroke-width="4" stroke-miterlimit="10" x1="755.229" y1="0.772" x2="791.227" y2="36.771"/>
	<line fill="none" stroke="#000000" stroke-width="4" stroke-miterlimit="10" x1="738" y1="0" x2="792" y2="54"/>
	<line fill="none" stroke="#000000" stroke-width="4" stroke-miterlimit="10" x1="772.457" y1="1.543" x2="790.457" y2="19.543"/>
</g>
<line fill="none" stroke="#010101" stroke-width="2" stroke-miterlimit="10" x1="244.673" y1="242.592" x2="202.675" y2="242.592"/>
<line fill="none" stroke="#010101" stroke-width="2" stroke-miterlimit="10" x1="244.673" y1="256.703" x2="202.675" y2="256.703"/>
<line fill="none" stroke="#010101" stroke-width="2" stroke-miterlimit="10" x1="244.673" y1="270.57" x2="202.675" y2="270.57"/>
<line fill="none" stroke="#010101" stroke-width="2" stroke-miterlimit="10" x1="244.673" y1="284.313" x2="202.675" y2="284.313"/>
<line fill="none" stroke="#010101" stroke-width="2" stroke-miterlimit="10" x1="244.673" y1="298.058" x2="202.675" y2="298.058"/>
<line fill="none" stroke="#010101" stroke-width="2" stroke-miterlimit="10" x1="244.673" y1="311.926" x2="202.675" y2="311.926"/>
<line fill="none" stroke="#010101" stroke-width="2" stroke-miterlimit="10" x1="244.673" y1="325.672" x2="202.675" y2="325.672"/>
<line fill="none" stroke="#010101" stroke-width="2" stroke-miterlimit="10" x1="244.673" y1="339.414" x2="202.675" y2="339.414"/>
<line fill="none" stroke="#010101" stroke-width="5" stroke-miterlimit="10" x1="244.673" y1="366.411" x2="202.675" y2="366.411"/>
<line fill="none" stroke="#010101" stroke-width="2" stroke-miterlimit="10" x1="244.673" y1="380.338" x2="202.675" y2="380.338"/>
<line fill="none" stroke="#010101" stroke-width="2" stroke-miterlimit="10" x1="244.673" y1="394.021" x2="202.675" y2="394.021"/>
<line fill="none" stroke="#010101" stroke-width="2" stroke-miterlimit="10" x1="244.673" y1="408.502" x2="202.675" y2="408.502"/>
<line fill="none" stroke="#010101" stroke-width="2" stroke-miterlimit="10" x1="244.673" y1="422.369" x2="202.675" y2="422.369"/>
<line fill="none" stroke="#010101" stroke-width="5" stroke-miterlimit="10" x1="244.673" y1="435.377" x2="202.675" y2="435.377"/>
<line fill="none" stroke="#000000" stroke-width="2" stroke-miterlimit="10" x1="479.139" y1="366.411" x2="437.141" y2="366.411"/>
<line fill="none" stroke="#010101" stroke-width="2" stroke-miterlimit="10" x1="479.139" y1="352.666" x2="437.141" y2="352.666"/>
<line fill="none" stroke="#010101" stroke-width="2" stroke-miterlimit="10" x1="479.139" y1="338.924" x2="437.141" y2="338.924"/>
<line fill="none" stroke="#010101" stroke-width="2" stroke-miterlimit="10" x1="479.139" y1="317.447" x2="437.141" y2="317.447"/>
<line fill="none" stroke="#010101" stroke-width="2" stroke-miterlimit="10" x1="479.139" y1="303.826" x2="437.141" y2="303.826"/>
<line fill="none" stroke="#000000" stroke-width="2" stroke-miterlimit="10" x1="479.139" y1="290.081" x2="437.141" y2="290.081"/>
<line fill="none" stroke="#010101" stroke-width="2" stroke-miterlimit="10" x1="479.139" y1="262.592" x2="437.141" y2="262.592"/>
<line fill="none" stroke="#010101" stroke-width="2" stroke-miterlimit="10" x1="479.139" y1="276.338" x2="437.141" y2="276.338"/>
<line fill="none" stroke="#010101" stroke-width="5" stroke-miterlimit="10" x1="479.139" y1="248.971" x2="437.141" y2="248.971"/>
<line fill="none" stroke="#010101" stroke-width="2" stroke-miterlimit="10" x1="479.139" y1="235.227" x2="437.141" y2="235.227"/>
<line fill="none" stroke="#010101" stroke-width="2" stroke-miterlimit="10" x1="479.139" y1="207.738" x2="437.141" y2="207.738"/>
<line fill="none" stroke="#010101" stroke-width="2" stroke-miterlimit="10" x1="479.139" y1="220.074" x2="437.141" y2="220.074"/>
<line fill="none" stroke="#010101" stroke-width="2" stroke-miterlimit="10" x1="479.139" y1="193.996" x2="437.141" y2="193.996"/>
<line fill="none" stroke="#000000" stroke-width="2" stroke-miterlimit="10" x1="479.139" y1="380.338" x2="437.141" y2="380.338"/>
<line fill="none" stroke="#000000" stroke-width="2" stroke-miterlimit="10" x1="479.139" y1="394.021" x2="437.141" y2="394.021"/>
<path fill="none" stroke="#000000" stroke-width="2" stroke-miterlimit="10" d="M479.139,303.826"/>
<line fill="none" stroke="#010101" stroke-width="2" stroke-miterlimit="10" x1="479.139" y1="408.502" x2="437.141" y2="408.502"/>
<line fill="none" stroke="#010101" stroke-width="2" stroke-miterlimit="10" x1="479.139" y1="422.369" x2="437.141" y2="422.369"/>
<line fill="none" stroke="#010101" stroke-width="5" stroke-miterlimit="10" x1="479.139" y1="435.377" x2="437.141" y2="435.377"/>
<line fill="none" stroke="#000000" stroke-width="2" stroke-linecap="round" stroke-miterlimit="10" stroke-dasharray="0.1027,5.1335" x1="295.712" y1="129.781" x2="205.832" y2="135.606"/>
<g>
	<g transform="translate(283.421,55.4048)">
		<g transform="matrix(-1,0,0,-1,0,0)">
			<g id="schematic_5_">
				<path id="connector0pin_22_" fill="none" stroke="#000000" stroke-width="2" stroke-linecap="round" d="M-501.804-58.657"/>
			</g>
		</g>
	</g>
</g>
<g>
	<g>
		<g transform="translate(191.548,91.3167)">
			<g id="schematic_6_">
				<path id="connector0pin_6_" fill="none" stroke="#000000" stroke-width="2" stroke-linecap="round" d="M148.257,404.207v-49.645
					"/>
				<g id="connector0terminal_2_">
				</g>
			</g>
		</g>
	</g>
</g>
<polygon fill="none" stroke="#000000" stroke-width="2" stroke-linecap="round" points="364.27,495.521 339.805,537.896 
	315.34,495.521 "/>
<path id="connector0pin_21_" fill="none" stroke="#7C7B7C" stroke-width="2" stroke-linecap="round" d="M500.823,408.78"/>
<path fill="none" stroke="#414141" stroke-width="2" stroke-linecap="round" d="M500.92,414.903"/>
<g>
	<path fill="none" stroke="#000000" stroke-width="2" stroke-linecap="round" d="M500.317,401.112"/>
</g>
<g>
	<g>
		<g transform="translate(191.548,91.3167)">
			<g id="schematic_1_">
				<g id="connector0terminal_6_">
				</g>
			</g>
		</g>
	</g>
	<g>
		<path fill="none" stroke="#000000" stroke-width="2" stroke-linecap="round" d="M156.677,521.202"/>
	</g>
</g>
<path fill="none" stroke="#000000" stroke-width="2" stroke-miterlimit="10" d="M163.491,518.936"/>
<path id="connector0pin_4_" fill="none" stroke="#7B7B7B" stroke-width="2" stroke-linecap="round" d="M163.844,518.936"/>
<path fill="none" stroke="#000000" stroke-width="2" stroke-miterlimit="10" d="M163.052,533.288"/>
<polyline fill="none" stroke="#000000" stroke-width="2" stroke-miterlimit="10" points="78.624,536.779 78.624,518.996 
	86.273,514.261 69.068,503.615 86.273,494.056 69.068,484.498 86.273,474.854 69.068,465.294 86.273,455.735 78.624,449.996 
	78.624,303.137 "/>
<g>
	<g>
		<g transform="translate(191.548,91.3167)">
			<g id="schematic_4_">
				<g id="connector0terminal_3_">
				</g>
			</g>
		</g>
	</g>
	<g>
		<path fill="none" stroke="#000000" stroke-width="2" stroke-linecap="round" d="M71.458,523.085"/>
	</g>
</g>
<polygon fill="none" stroke="#000000" stroke-width="2" stroke-linecap="round" points="102.136,535.742 76.091,578.105 
	53.206,535.742 "/>
<path fill="none" stroke="#000000" stroke-width="2" stroke-miterlimit="10" d="M78.271,520.818"/>
<path id="connector0pin_3_" fill="none" stroke="#7B7B7B" stroke-width="2" stroke-linecap="round" d="M78.624,520.818"/>
<path fill="none" stroke="#000000" stroke-width="2" stroke-miterlimit="10" d="M77.833,535.171"/>
<g id="connector0pin_1_">
	<path d="M79.251,534.171c-0.137,0.777-0.652,1.305-1.312,1.305s-1.311,0.48-1.311-0.305"/>
</g>
<path fill="none" stroke="#000000" stroke-width="2" stroke-miterlimit="10" d="M163.844,113.877"/>
<path fill="none" stroke="#000000" stroke-width="2" stroke-miterlimit="10" d="M78.625,114.062"/>
<path fill="none" stroke="#000000" stroke-width="2" stroke-miterlimit="10" d="M78.625,303.125"/>
<line fill="none" stroke="#000000" stroke-width="2" stroke-miterlimit="10" x1="205.832" y1="435.377" x2="82.251" y2="435.377"/>
<circle fill="#FFFFFF" stroke="#000000" stroke-width="2" stroke-miterlimit="10" cx="79.251" cy="434.136" r="7.668"/>
<text transform="matrix(1 0 0 1 678.3086 326.9258)" fill="#532E85" font-family="'ArialMT'" font-size="12">J1</text>
<text transform="matrix(1 0 0 1 627.1387 333.6924)" font-family="'AppleBraille'" font-size="26">⠚⠼⠁</text>
<g>
	<g>
		<g>
			
				<line id="connector0pin_5_" fill="none" stroke="#000000" stroke-width="2" stroke-linecap="round" x1="78.5" y1="114.062" x2="78.5" y2="210.942"/>
			<polyline fill="none" stroke="#030303" stroke-width="2" stroke-linecap="round" points="78.5,305.194 78.5,283.763 
				70.852,278.024 88.06,268.466 70.852,258.907 88.06,249.263 70.852,239.704 88.06,230.146 70.852,220.501 78.5,214.765 
				78.5,210.942 			"/>
		</g>
		<polyline fill="none" stroke="#000000" stroke-width="2" stroke-linecap="round" points="49.398,235.823 108.102,270.772 
			108.102,299.433 		"/>
	</g>
</g>
<path d="M48.916,236.81c-0.504-0.438-0.699-1.139-0.443-1.586c0.124-0.229,0.252-0.445,0.605-0.543
	c0.172-0.055,0.575,0.023,0.972,0.104"/>
<g>
	<path fill="none" stroke="#000000" stroke-width="2" stroke-miterlimit="10" d="M51.65,231.079l-5.069,8.994l-8.709-10.832
		L51.65,231.079z"/>
</g>
<g>
	<g transform="translate(198.508,45.3547)">
		<g id="schematic_3_">
			
				<rect id="connector0pin_8_" x="395.813" y="365.412" fill="none" stroke="#000000" stroke-width="2" stroke-miterlimit="10" width="9.562" height="1.592"/>
			
				<rect id="connector1pin_1_" x="395.813" y="331.532" fill="none" stroke="#000000" stroke-width="2" stroke-miterlimit="10" width="9.562" height="1.593"/>
			
				<rect id="connector2pin_1_" x="395.813" y="348.471" fill="none" stroke="#000000" stroke-width="2" stroke-miterlimit="10" width="9.562" height="1.596"/>
			<g id="connector0terminal_1_">
			</g>
			<g id="connector1terminal_1_">
			</g>
			<g id="connector2terminal_1_">
			</g>
			<g id="Diagram">
				
					<rect x="412.756" y="298.385" fill="none" stroke="#000000" stroke-width="2" stroke-miterlimit="10" width="102.951" height="102.95"/>
				
					<line fill="none" stroke="#000000" stroke-width="2" stroke-miterlimit="10" x1="412.756" y1="366.209" x2="395.813" y2="366.209"/>
				
					<line fill="none" stroke="#000000" stroke-width="2" stroke-miterlimit="10" x1="395.813" y1="332.328" x2="412.756" y2="332.328"/>
				
					<line fill="none" stroke="#000000" stroke-width="2" stroke-miterlimit="10" x1="395.813" y1="349.268" x2="412.756" y2="349.268"/>
				<g>
					<path fill="#FFFFFF" stroke="#000000" stroke-width="2" stroke-miterlimit="10" d="M551.777,326.447
						c-1.678-3.806-5.733-5.825-9.655-5.089l0,0l-44.162,7.098l0.01,0.016c-1.834,0.258-3.656,0.746-5.438,1.527
						c-10.403,4.566-15.131,16.713-10.563,27.113c4.567,10.406,16.709,15.132,27.108,10.566c1.781-0.785,3.38-1.799,4.808-2.976
						l0.01,0.017l35.108-27.715L549,337.001C552.187,334.61,553.449,330.257,551.777,326.447z"/>
					<circle fill="none" stroke="#000000" stroke-width="2" stroke-miterlimit="10" cx="500.801" cy="348.835" r="11.801"/>
					<circle fill="none" stroke="#000000" stroke-width="2" stroke-miterlimit="10" cx="543.742" cy="329.975" r="3.756"/>
				</g>
			</g>
		</g>
	</g>
</g>
<path id="connector0pin_7_" fill="none" stroke="#000000" stroke-width="2" stroke-miterlimit="10" d="M594.68,499.157v-63.212"/>
<g>
	<line fill="none" stroke="#000000" stroke-width="2" stroke-miterlimit="10" x1="594.72" y1="411.562" x2="594.679" y2="436.184"/>
</g>
<line fill="none" stroke="#000000" stroke-width="2" stroke-miterlimit="10" x1="478.734" y1="393.961" x2="594.72" y2="394.625"/>
<line fill="none" stroke="#000000" stroke-width="2" stroke-miterlimit="10" x1="594.72" y1="377.684" x2="594.72" y2="112.877"/>
<path id="connector0pin_10_" fill="none" stroke="#000000" stroke-width="2" stroke-linecap="round" d="M594.72,499.157"/>
<polygon fill="none" stroke="#000000" stroke-width="2" stroke-linecap="round" points="619.185,499.155 594.72,541.53 
	570.255,499.155 "/>
<text transform="matrix(1 0 0 1 471.1386 158.3438)" fill="#532E85" font-family="'ArialMT'" font-size="12">VIN</text>
<text transform="matrix(1 0 0 1 108.102 160.3438)" fill="#532E85" font-family="'ArialMT'" font-size="12">3.3V</text>
<text transform="matrix(1 0 0 1 481.1386 144.3848)" font-family="'AppleBraille'" font-size="26">⠧⠊⠝</text>
</svg>
