<?xml version="1.0" encoding="UTF-8"?>
<svg width="753px" height="786px" viewBox="0 0 753 786" version="1.1" xmlns="http://www.w3.org/2000/svg" xmlns:xlink="http://www.w3.org/1999/xlink">
    <!-- Generator: Sketch 48.2 (47327) - http://www.bohemiancoding.com/sketch -->
    <title>Slice 1</title>
    <desc>Created with Sketch.</desc>
    <defs></defs>
    <g id="Page-1" stroke="none" stroke-width="1" fill="none" fill-rule="evenodd">
        <g id="led_resistor_switch_schem" transform="translate(148.000000, 2.000000)">
            <g id="Layer_1_2_" transform="translate(5.000000, 4.000000)">
                <g id="Layer_1_1_">
                    <g id="Group" transform="translate(48.800000, 240.066670)">
                        <g transform="translate(23.500000, 23.500000) scale(-1, 1) translate(-23.500000, -23.500000) " id="schematic">
                            <g>
                                <polyline id="Shape" stroke="#000000" stroke-width="2" stroke-linecap="round" stroke-linejoin="round" points="15.5 14.2 23.4 14.2 29.3 20.1 36.7 20.1 46.4 13.4"></polyline>
                                <polyline id="Shape" stroke="#000000" stroke-width="2" stroke-linecap="round" stroke-linejoin="round" points="15.5 29.5 25.4 29.5 43 29.5"></polyline>
                                <polyline id="box_1_" stroke="#000000" stroke-width="2" stroke-linecap="round" stroke-linejoin="round" points="46.4 46.8 15.5 46.8 15.5 0.4 46.4 0.4"></polyline>
                                <polygon id="Shape" fill="#000000" fill-rule="nonzero" points="21.6 16.8 18.4 21.2 20.6 21.6 17.9 27 23.2 20.5 20.9 19.9"></polygon>
                                <path d="M15.5,29.5 L0.1,29.5" id="connector2pin" stroke="#787878" stroke-width="2" stroke-linecap="round" stroke-linejoin="round"></path>
                                <path d="M15.5,14.4 L0.1,14.4" id="connector0pin" stroke="#787878" stroke-width="2" stroke-linecap="round" stroke-linejoin="round"></path>
                                <path d="M15.5,29.5 L0.1,29.5" id="connector1pin" stroke="#787878" stroke-width="2" stroke-linecap="round" stroke-linejoin="round"></path>
                                <g id="Group" transform="translate(40.384300, 30.585000)" fill="#787878" font-family="Helvetica" font-size="9.6613" font-weight="normal">
                                    <text id="-">
                                        <tspan x="0.5309" y="9.2922">-</tspan>
                                    </text>
                                </g>
                                <g id="Group" transform="translate(38.550300, 1.156300)" fill="#787878" font-family="Helvetica" font-size="9.6613" font-weight="normal">
                                    <text id="+">
                                        <tspan x="0.5759" y="9.8898">+</tspan>
                                    </text>
                                </g>
                            </g>
                        </g>
                    </g>
                    <rect id="Rectangle-path" fill="#FFFFFF" fill-rule="nonzero" x="211.8" y="238.3" width="61.8" height="46.4"></rect>
                    <path d="M211.8,284.7 L273.6,284.7" id="Shape" stroke="#000000" stroke-width="2" stroke-linecap="round"></path>
                    <path d="M273.6,284.7 L273.6,238.3" id="Shape" stroke="#000000" stroke-width="2" stroke-linecap="round"></path>
                    <path d="M273.6,238.3 L211.8,238.3" id="Shape" stroke="#000000" stroke-width="2" stroke-linecap="round"></path>
                    <path d="M211.8,238.3 L211.8,284.7" id="Shape" stroke="#000000" stroke-width="2" stroke-linecap="round"></path>
                    <path d="M196.3,253.8 L211.8,253.8" id="connector1pin_1_" stroke="#787878" stroke-width="2" stroke-linecap="round"></path>
                    <path d="M242.7,300.2 L242.7,284.7" id="connector0pin_1_" stroke="#787878" stroke-width="2" stroke-linecap="round"></path>
                    <path d="M289.1,253.8 L273.6,253.8" id="connector2pin_1_" stroke="#787878" stroke-width="2" stroke-linecap="round"></path>
                    <path d="M393.7,295.3 L393.7,299.1" id="Shape" stroke="#000000" stroke-width="2" stroke-linecap="round"></path>
                    <path d="M393.7,268.2 L401.4,295.3" id="Shape" stroke="#000000" stroke-width="2" stroke-linecap="round"></path>
                    <circle id="Oval" stroke="#000000" stroke-width="2" cx="393.7" cy="268.2" r="1"></circle>
                    <circle id="Oval" stroke="#000000" stroke-width="2" cx="393.7" cy="299.1" r="1"></circle>
                    <path d="M409.1,299.1 L378.2,299.1" id="Shape" stroke="#000000" stroke-width="2" stroke-linecap="round"></path>
                    <path d="M409.1,268.2 L378.2,268.2" id="Shape" stroke="#000000" stroke-width="2" stroke-linecap="round"></path>
                    <path d="M378.2,253.4 L378.2,268.2" id="connector3pin" stroke="#555555" stroke-width="2" stroke-linecap="round"></path>
                    <path d="M409.1,253.4 L409.1,268.2" id="connector2pin_2_" stroke="#555555" stroke-width="2" stroke-linecap="round"></path>
                    <path d="M378.2,313.8 L378.2,299.1" id="connector1pin_2_" stroke="#555555" stroke-width="2" stroke-linecap="round"></path>
                    <path d="M409.1,313.8 L409.1,299.1" id="connector0pin_2_" stroke="#555555" stroke-width="2" stroke-linecap="round"></path>
                    <path d="M409.2,384.7 L403,382.4" id="Shape" stroke="#000000" stroke-width="2" stroke-linecap="round"></path>
                    <path d="M403,382.4 L415.4,378.6" id="Shape" stroke="#000000" stroke-width="2" stroke-linecap="round"></path>
                    <path d="M415.4,378.6 L403,374.7" id="Shape" stroke="#000000" stroke-width="2" stroke-linecap="round"></path>
                    <path d="M403,374.7 L415.4,370.8" id="Shape" stroke="#000000" stroke-width="2" stroke-linecap="round"></path>
                    <path d="M415.4,370.8 L403,367" id="Shape" stroke="#000000" stroke-width="2" stroke-linecap="round"></path>
                    <path d="M403,367 L415.4,363.1" id="Shape" stroke="#000000" stroke-width="2" stroke-linecap="round"></path>
                    <path d="M415.4,363.1 L403,359.2" id="Shape" stroke="#000000" stroke-width="2" stroke-linecap="round"></path>
                    <path d="M403,359.2 L415.4,355.4" id="Shape" stroke="#000000" stroke-width="2" stroke-linecap="round"></path>
                    <path d="M415.4,355.4 L409.2,353.8" id="Shape" stroke="#000000" stroke-width="2" stroke-linecap="round"></path>
                    <path d="M409.2,338.4 L409.2,353.8" id="connector1pin_3_" stroke="#787878" stroke-width="2" stroke-linecap="round"></path>
                    <path d="M409.2,400.2 L409.2,384.7" id="connector0pin_3_" stroke="#787878" stroke-width="2" stroke-linecap="round"></path>
                    <path d="M356.1,408.2 L356.1,400.5 C356.1,400.1 356.4,399.7 356.9,399.7 C357.3,399.7 357.7,400 357.7,400.5 L357.7,408.2 C357.7,408.6 357.4,409 356.9,409 C356.4,408.9 356.1,408.6 356.1,408.2 Z" id="Shape" fill="#000000" fill-rule="nonzero"></path>
                    <path d="M356.1,400.5 L356.1,392.8 C356.1,392.4 356.4,392 356.9,392 C357.3,392 357.7,392.3 357.7,392.8 L357.7,400.5 C357.7,400.9 357.4,401.3 356.9,401.3 C356.4,401.2 356.1,400.9 356.1,400.5 Z" id="Shape" fill="#000000" fill-rule="nonzero"></path>
                    <g id="Group" transform="translate(355.000000, 391.000000)" fill-rule="nonzero">
                        <polygon id="Shape" fill="#FFFFFF" points="1.7 9.5 17.2 1.8 17.2 9.5 17.2 17.2"></polygon>
                        <path d="M0.1,9.5 L18,0.5 L18,18.4 L0.1,9.5 Z M16.5,2.9 L3.4,9.4 L16.5,15.9 L16.5,2.9 Z" id="Shape" fill="#000000"></path>
                    </g>
                    <path d="M356.3,400.5 C356.3,400.3 356.5,400 356.8,400 L372.3,400 C372.5,400 372.8,400.2 372.8,400.5 C372.8,400.7 372.6,401 372.3,401 L356.8,401 C356.5,401 356.3,400.7 356.3,400.5 Z" id="Shape" fill="#000000" fill-rule="nonzero"></path>
                    <path d="M362.1,383.1 C362.1,382.9 362.2,382.9 362.3,382.8 C362.5,382.6 362.8,382.6 363,382.8 L368,387.8 C368.2,388 368.2,388.3 368,388.5 C367.8,388.7 367.5,388.7 367.3,388.5 L362.3,383.5 C362.2,383.3 362.1,383.2 362.1,383.1 Z" id="Shape" fill="#000000" fill-rule="nonzero"></path>
                    <path d="M355.1,383.9 C355.1,383.7 355.2,383.7 355.3,383.6 C355.5,383.4 355.8,383.4 356,383.6 L361,388.6 C361.2,388.8 361.2,389.1 361,389.3 C360.8,389.5 360.5,389.5 360.3,389.3 L355.3,384.3 C355.2,384.1 355.1,384 355.1,383.9 Z" id="Shape" fill="#000000" fill-rule="nonzero"></path>
                    <g id="connector0pin_4_" transform="translate(340.000000, 399.000000)" fill="#787878" fill-rule="nonzero">
                        <path d="M0.6,1.5 C0.6,1.1 0.9,0.7 1.4,0.7 L16.9,0.7 C17.3,0.7 17.7,1 17.7,1.5 C17.7,1.9 17.4,2.3 16.9,2.3 L1.4,2.3 C0.9,2.2 0.6,1.9 0.6,1.5 Z" id="Shape"></path>
                    </g>
                    <g id="connector0terminal_4_"></g>
                    <g id="connector1pin_4_" transform="translate(371.000000, 399.000000)" fill="#787878" fill-rule="nonzero">
                        <path d="M0.5,1.5 C0.5,1.1 0.8,0.7 1.3,0.7 L16.8,0.7 C17.2,0.7 17.6,1 17.6,1.5 C17.6,1.9 17.3,2.3 16.8,2.3 L1.3,2.3 C0.8,2.2 0.5,1.9 0.5,1.5 Z" id="Shape"></path>
                    </g>
                    <g id="connector1terminal_4_"></g>
                    <polygon id="Shape" fill="#000000" fill-rule="nonzero" points="359.1 379.6 364.5 381.9 361.4 385"></polygon>
                    <polygon id="Shape" fill="#000000" fill-rule="nonzero" points="352.1 380.4 357.5 382.7 354.4 385.8"></polygon>
                    <path d="M196.3,253.8 L95.1,254.4" id="Shape" stroke="#404040" stroke-width="2" stroke-linecap="round"></path>
                    <path d="M289.1,253.8 L378.2,253.6" id="Shape" stroke="#404040" stroke-width="2" stroke-linecap="round"></path>
                    <path d="M409.1,313.4 L409.2,338.4" id="Shape" stroke="#404040" stroke-width="2" stroke-linecap="round"></path>
                    <path d="M409.2,400.2 L387.7,400.5" id="Shape" stroke="#404040" stroke-width="2" stroke-linecap="round"></path>
                    <path d="M95.1,269.6 L95.1,300.2" id="Shape" stroke="#404040" stroke-width="2" stroke-linecap="round"></path>
                    <path d="M95.1,300.2 L242.7,300.2" id="Shape" stroke="#404040" stroke-width="2" stroke-linecap="round"></path>
                    <circle id="Oval" fill="#000000" fill-rule="nonzero" cx="242.7" cy="300.2" r="3.1"></circle>
                    <path d="M341.3,400.3 L241.9,401" id="Shape" stroke="#404040" stroke-width="2" stroke-linecap="round"></path>
                    <path d="M241.9,400.9 L242.7,300.2" id="Shape" stroke="#404040" stroke-width="2" stroke-linecap="round"></path>
                    <circle id="Oval" fill="#000000" fill-rule="nonzero" cx="242.7" cy="300.2" r="3.1"></circle>
                    <circle id="Oval" fill="#000000" fill-rule="nonzero" cx="241.9" cy="400.2" r="3.1"></circle>
                    <g id="Group" transform="translate(226.149000, 433.380000)" stroke-linecap="round" stroke-width="2">
                        <g id="schematic_6_">
                            <path d="M15.7,17.4 L15.7,0.5" id="connector0pin_6_" stroke="#787878"></path>
                            <path d="M0,17.8 L31.4,17.8" id="path4098" stroke="#000000"></path>
                            <path d="M5.2,24.2 L26.1,24.2" id="path4100" stroke="#000000"></path>
                            <path d="M21,30.5 L10.5,30.5" id="path4102" stroke="#000000"></path>
                        </g>
                    </g>
                    <path d="M241.9,400.1 L241.9,434" id="Shape" stroke="#404040" stroke-width="2" stroke-linecap="round"></path>
                </g>
                <g id="plaintext" transform="translate(57.000000, 174.000000)" font-family="Helvetica" font-weight="normal">
                    <text id="IN" fill="#B1B3B5" font-size="6.4132">
                        <tspan x="162.4048" y="79.8784">IN</tspan>
                    </text>
                    <g id="Group" transform="translate(184.000000, 94.000000) rotate(-90.000000) translate(-184.000000, -94.000000) translate(176.000000, 90.000000)" fill="#B1B3B5" font-size="6.4132">
                        <g id="GND">
                            <text>
                                <tspan x="0.8616" y="6.2251">GND</tspan>
                            </text>
                        </g>
                    </g>
                    <text id="OUT" fill="#B1B3B5" font-size="6.4132">
                        <tspan x="193.9434" y="79.8784">OUT</tspan>
                    </text>
                    <g id="partLabel" transform="translate(0.000000, 6.000000)" fill="#939597" font-size="14">
                        <g id="Group" transform="translate(0.400000, 0.000000)">
                            <g id="schematicLabel">
                                <text id="PP1">
                                    <tspan x="0.0209" y="14.5103">PP1</tspan>
                                </text>
                            </g>
                        </g>
                    </g>
                    <g id="partLabel_1_" transform="translate(176.000000, 0.000000)" fill="#939597" font-size="14">
                        <g id="Group" transform="translate(0.289000, 0.737570)">
                            <g id="schematicLabel_1_">
                                <text id="IC1">
                                    <tspan x="0.2315" y="14.8313">IC1</tspan>
                                </text>
                            </g>
                        </g>
                    </g>
                    <g id="partLabel_2_" transform="translate(454.000000, 99.000000)" fill="#939597" font-size="14">
                        <g id="Group" transform="translate(0.012000, 0.656600)">
                            <g id="schematicLabel_2_">
                                <text id="S1">
                                    <tspan x="0.99" y="14.0402">S1</tspan>
                                </text>
                            </g>
                        </g>
                    </g>
                    <g id="partLabel_3_" transform="translate(451.000000, 149.000000)" fill="#939597" font-size="14">
                        <g id="Group" transform="translate(0.719000, 0.234400)">
                            <g id="schematicLabel_3_">
                                <text id="R1">
                                    <tspan x="0.9138" y="14.2007">R1</tspan>
                                </text>
                                <text id="220Ω">
                                    <tspan x="0.9138" y="30.3628">220Ω</tspan>
                                </text>
                            </g>
                        </g>
                    </g>
                    <g id="partLabel_4_" transform="translate(302.000000, 270.000000)" fill="#939597" font-size="14">
                        <g id="Group" transform="translate(0.845000, 0.570300)">
                            <g id="schematicLabel_4_">
                                <text id="LED1">
                                    <tspan x="0.2976" y="14.1797">LED1</tspan>
                                </text>
                            </g>
                        </g>
                    </g>
                </g>
                <g id="braille" transform="translate(26.000000, 191.000000)" fill="#000000" font-family="AppleBraille, Apple Braille" font-size="30" font-weight="normal">
                    <text id="⠠⠏⠠⠏⠼⠁">
                        <tspan x="0.7876" y="28.603">⠠⠏⠠⠏⠼⠁</tspan>
                    </text>
                    <text id="⠠⠊⠠⠉⠼⠁">
                        <tspan x="180.8252" y="23.478">⠠⠊⠠⠉⠼⠁</tspan>
                    </text>
                    <text id="⠠⠊⠠⠝">
                        <tspan x="98.3013" y="84.3696">⠠⠊⠠⠝</tspan>
                    </text>
                    <text id="⠕⠥⠞">
                        <tspan x="252.5786" y="85.1421">⠕⠥⠞</tspan>
                    </text>
                    <text id="⠠⠛⠠⠝⠠⠙">
                        <tspan x="216.2163" y="122.7261">⠠⠛⠠⠝⠠⠙</tspan>
                    </text>
                    <text id="⠠⠎⠼⠁">
                        <tspan x="396.3145" y="96.3081">⠠⠎⠼⠁</tspan>
                    </text>
                    <text id="⠠⠗⠼⠁">
                        <tspan x="394.4746" y="159.2329">⠠⠗⠼⠁</tspan>
                    </text>
                    <text id="⠼⠃⠃⠚-⠨⠺">
                        <tspan x="394.4746" y="190.1235">⠼⠃⠃⠚</tspan>
                        <tspan x="476.50585" y="190.1235" font-family="Helvetica"> </tspan>
                        <tspan x="484.840811" y="190.1235">⠨⠺</tspan>
                    </text>
                    <text id="⠠⠇⠠⠑⠠⠙⠼⠁">
                        <tspan x="322.1797" y="242.9746">⠠⠇⠠⠑⠠⠙⠼⠁</tspan>
                    </text>
                </g>
            </g>
            <path d="M27.7,4 L5.5,26.2" id="Shape" stroke="#000000" stroke-width="4"></path>
            <path d="M42.1,0.5 L0.5,42.1" id="Shape" stroke="#000000" stroke-width="4"></path>
            <text id="⠠⠇⠠⠑⠠⠙⠂-⠎⠺⠊⠞⠉⠓⠂-⠗⠑⠎⠊⠎⠞⠕⠗" fill="#000000" font-family="AppleBraille, Apple Braille" font-size="30" font-weight="normal">
                <tspan x="48.001" y="65.8555">⠠⠇⠠⠑⠠⠙⠂</tspan>
                <tspan x="191.555687" y="65.8555" font-family="Helvetica"> </tspan>
                <tspan x="199.890648" y="65.8555">⠎⠺⠊⠞⠉⠓⠂</tspan>
                <tspan x="343.445336" y="65.8555" font-family="Helvetica"> </tspan>
                <tspan x="351.780297" y="65.8555">⠗⠑⠎⠊⠎⠞⠕⠗</tspan>
            </text>
            <text id="⠊⠝-⠎⠑⠗⠊⠑⠎" fill="#000000" font-family="AppleBraille, Apple Braille" font-size="30" font-weight="normal">
                <tspan x="48.001" y="101.8555">⠊⠝</tspan>
                <tspan x="89.016625" y="101.8555" font-family="Helvetica"> </tspan>
                <tspan x="97.3515859" y="101.8555">⠎⠑⠗⠊⠑⠎</tspan>
            </text>
            <text id="LED,-switch,-resistor-in-series" fill="#939597" font-family="Helvetica" font-size="21" font-weight="normal">
                <tspan x="53.9526" y="137.3145">LED, switch, resistor in series</tspan>
            </text>
            <text id="Key:" fill="#939597" font-family="Helvetica" font-size="14" font-weight="normal">
                <tspan x="22.6372" y="696.5371">Key:</tspan>
            </text>
            <text id="PP1---DC-power-plug" fill="#939597" font-family="Helvetica" font-size="14" font-weight="normal">
                <tspan x="22.6372" y="713.5195">PP1 - DC power plug</tspan>
            </text>
            <text id="IC1--7805-5-volt-regulator" fill="#939597" font-family="Helvetica" font-size="14" font-weight="normal">
                <tspan x="22.6372" y="730.5">IC1- 7805 5-volt regulator</tspan>
            </text>
            <text id="S1--switch-or-pushbutton" fill="#939597" font-family="Helvetica" font-size="14" font-weight="normal">
                <tspan x="22.6372" y="747.3">S1- switch or pushbutton</tspan>
            </text>
            <text id="R1---220-ohm-resistor" fill="#939597" font-family="Helvetica" font-size="14" font-weight="normal">
                <tspan x="22.6372" y="764.8721">R1 - 220-ohm resistor</tspan>
            </text>
            <text id="LED1---5mm-red-LED" fill="#939597" font-family="Helvetica" font-size="14" font-weight="normal">
                <tspan x="22.6372" y="781">LED1 - 5mm red LED</tspan>
            </text>
            <text id="⠠⠅⠑⠽" fill="#000000" font-family="AppleBraille, Apple Braille" font-size="30" font-weight="normal">
                <tspan x="5" y="491.4004">⠠⠅⠑⠽</tspan>
            </text>
            <text id="⠠⠏⠠⠏⠼⠁-⠤-⠠⠙⠠⠉-⠏⠕⠺⠑⠗-⠏⠇⠥⠛" fill="#000000" font-family="AppleBraille, Apple Braille" font-size="30" font-weight="normal">
                <tspan x="5" y="524.291">⠠⠏⠠⠏⠼⠁</tspan>
                <tspan x="128.046875" y="524.291" font-family="Helvetica"> </tspan>
                <tspan x="136.381836" y="524.291">⠤</tspan>
                <tspan x="156.889648" y="524.291" font-family="Helvetica"> </tspan>
                <tspan x="165.224609" y="524.291">⠠⠙⠠⠉</tspan>
                <tspan x="247.255859" y="524.291" font-family="Helvetica"> </tspan>
                <tspan x="255.59082" y="524.291">⠏⠕⠺⠑⠗</tspan>
                <tspan x="358.129883" y="524.291" font-family="Helvetica"> </tspan>
                <tspan x="366.464844" y="524.291">⠏⠇⠥⠛</tspan>
            </text>
            <text id="⠠⠊⠠⠉⠼⠁⠤-⠼⠛⠓⠚⠑-⠼⠑⠤⠧⠕⠇⠞-⠗⠑⠛⠥⠇⠁⠞⠕⠗" fill="#000000" font-family="AppleBraille, Apple Braille" font-size="30" font-weight="normal">
                <tspan x="5" y="557.1816">⠠⠊⠠⠉⠼⠁⠤</tspan>
                <tspan x="148.554688" y="557.1816" font-family="Helvetica"> </tspan>
                <tspan x="156.889648" y="557.1816">⠼⠛⠓⠚⠑</tspan>
                <tspan x="259.428711" y="557.1816" font-family="Helvetica"> </tspan>
                <tspan x="267.763672" y="557.1816">⠼⠑⠤⠧⠕⠇⠞</tspan>
                <tspan x="411.318359" y="557.1816" font-family="Helvetica"> </tspan>
                <tspan x="419.65332" y="557.1816">⠗⠑⠛⠥⠇⠁⠞⠕⠗</tspan>
            </text>
            <text id="⠠⠎⠼⠁⠤-⠎⠺⠊⠞⠉⠓-⠕⠗-⠏⠥⠎⠓⠃⠥⠞⠞⠕⠝" fill="#000000" font-family="AppleBraille, Apple Braille" font-size="30" font-weight="normal">
                <tspan x="5" y="587.1816">⠠⠎⠼⠁⠤</tspan>
                <tspan x="107.539062" y="587.1816" font-family="Helvetica"> </tspan>
                <tspan x="115.874023" y="587.1816">⠎⠺⠊⠞⠉⠓</tspan>
                <tspan x="238.920898" y="587.1816" font-family="Helvetica"> </tspan>
                <tspan x="247.255859" y="587.1816">⠕⠗</tspan>
                <tspan x="288.271484" y="587.1816" font-family="Helvetica"> </tspan>
                <tspan x="296.606445" y="587.1816">⠏⠥⠎⠓⠃⠥⠞⠞⠕⠝</tspan>
            </text>
            <text id="⠠⠗⠼⠁-⠤-⠼⠃⠃⠚-⠨⠺-⠗⠑⠎⠊⠎⠞⠕⠗" fill="#000000" font-family="AppleBraille, Apple Braille" font-size="30" font-weight="normal">
                <tspan x="5" y="620.0732">⠠⠗⠼⠁</tspan>
                <tspan x="87.03125" y="620.0732" font-family="Helvetica"> </tspan>
                <tspan x="95.3662109" y="620.0732">⠤</tspan>
                <tspan x="115.874023" y="620.0732" font-family="Helvetica"> </tspan>
                <tspan x="124.208984" y="620.0732">⠼⠃⠃⠚</tspan>
                <tspan x="206.240234" y="620.0732" font-family="Helvetica"> </tspan>
                <tspan x="214.575195" y="620.0732">⠨⠺</tspan>
                <tspan x="255.59082" y="620.0732" font-family="Helvetica"> </tspan>
                <tspan x="263.925781" y="620.0732">⠗⠑⠎⠊⠎⠞⠕⠗</tspan>
            </text>
            <text id="⠠⠇⠠⠑⠠⠙⠼⠁-⠤-⠼⠑⠍⠍-⠗⠑⠙-⠠⠇⠠⠑⠠⠙" fill="#000000" font-family="AppleBraille, Apple Braille" font-size="30" font-weight="normal">
                <tspan x="5" y="652.9629">⠠⠇⠠⠑⠠⠙⠼⠁</tspan>
                <tspan x="169.0625" y="652.9629" font-family="Helvetica"> </tspan>
                <tspan x="177.397461" y="652.9629">⠤</tspan>
                <tspan x="197.905273" y="652.9629" font-family="Helvetica"> </tspan>
                <tspan x="206.240234" y="652.9629">⠼⠑⠍⠍</tspan>
                <tspan x="288.271484" y="652.9629" font-family="Helvetica"> </tspan>
                <tspan x="296.606445" y="652.9629">⠗⠑⠙</tspan>
                <tspan x="358.129883" y="652.9629" font-family="Helvetica"> </tspan>
                <tspan x="366.464844" y="652.9629">⠠⠇⠠⠑⠠⠙</tspan>
            </text>
        </g>
        <text id="see-“leds-switch-par" font-family="Helvetica" font-size="48" font-weight="normal" fill="#FF0000">
            <tspan x="0" y="154">see “leds switch parallel” — same notes</tspan>
        </text>
    </g>
</svg>