<?xml version="1.0" encoding="utf-8"?>
<!-- Generator: Adobe Illustrator 16.0.0, SVG Export Plug-In . SVG Version: 6.00 Build 0)  -->
<!DOCTYPE svg PUBLIC "-//W3C//DTD SVG 1.1//EN" "http://www.w3.org/Graphics/SVG/1.1/DTD/svg11.dtd">
<svg version="1.1" id="Layer_1" xmlns="http://www.w3.org/2000/svg" xmlns:xlink="http://www.w3.org/1999/xlink" x="0px" y="0px"
	 width="792px" height="612px" viewBox="0 0 792 612" enable-background="new 0 0 792 612" xml:space="preserve">
<text transform="matrix(1 0 0 1 41.625 176.4004)" enable-background="new    "><tspan x="0" y="0" fill="#010101" font-family="'AppleBraille'" font-size="26">⠅⠑⠽</tspan><tspan x="0" y="28.8" fill="#010101" font-family="'AppleBraille'" font-size="26">⠏⠏⠼⠁⠀⠤⠀⠙⠉⠀⠏⠕⠺⠑⠗⠀⠏⠇⠥⠛</tspan><tspan x="0" y="57.6" fill="#010101" font-family="'AppleBraille'" font-size="26">⠊⠉⠼⠁⠤⠀⠼⠛⠓⠚⠑⠀⠼⠑⠤⠧⠕⠇⠞⠀⠗⠑⠛⠥⠇⠁⠞⠕⠗</tspan><tspan x="0" y="86.4" fill="#010101" font-family="'AppleBraille'" font-size="26">⠗⠼⠁⠀⠤⠀⠼⠃⠃⠚⠤⠕⠓⠍⠀⠗⠑⠎⠊⠎⠞⠕⠗</tspan><tspan x="0" y="115.2" fill="#010101" font-family="'AppleBraille'" font-size="26">⠇⠫⠼⠁⠀⠤⠀⠼⠑⠀⠍⠊⠇⠇⠊⠍⠑⠞⠑⠗⠀⠗⠑⠙</tspan></text>
<text transform="matrix(1 0 0 1 41.625 332.2998)" fill="#532E85" font-family="'ArialMT'" font-size="19.0417">Key</text>
<text transform="matrix(1 0 0 1 74.4355 332.2998)" fill="#532E85" font-family="'ArialMT'" font-size="19.0417">:</text>
<text transform="matrix(1 0 0 1 41.625 355.1475)" fill="#532E85" font-family="'ArialMT'" font-size="19.0417">PP1 - DC power plug</text>
<text transform="matrix(1 0 0 1 41.625 377.9971)" fill="#532E85" font-family="'ArialMT'" font-size="19.0417">IC1- 7805 5-volt regulator</text>
<text transform="matrix(1 0 0 1 41.625 400.8477)" fill="#532E85" font-family="'ArialMT'" font-size="19.0417">R1 - 220-ohm resistor</text>
<text transform="matrix(1 0 0 1 41.625 423.6973)" fill="#532E85" font-family="'ArialMT'" font-size="19.0417">LED1 - 5 millimeter red </text>
<g>
	<line fill="none" stroke="#000000" stroke-width="4" stroke-miterlimit="10" x1="755.229" y1="0.772" x2="791.227" y2="36.771"/>
	<line fill="none" stroke="#000000" stroke-width="4" stroke-miterlimit="10" x1="738" y1="0" x2="792" y2="54"/>
	<line fill="none" stroke="#000000" stroke-width="4" stroke-miterlimit="10" x1="772.457" y1="1.543" x2="790.457" y2="19.543"/>
</g>
<g id="Braille_1_">
	<text transform="matrix(1 0 0 1 42.626 78.0645)" enable-background="new    "><tspan x="0" y="0" font-family="'AppleBraille'" font-size="26">⠇⠑⠙⠀⠗⠑⠎⠊⠎⠞⠕⠗⠀</tspan><tspan x="0" y="31.2" font-family="'AppleBraille'" font-size="26">⠗⠑⠛⠥⠇⠁⠞⠕⠗⠀⠊⠝⠀⠎⠑⠗⠊⠑⠎</tspan></text>
</g>
<text transform="matrix(1 0 0 1 269.4062 75)" fill="#532E85" font-family="'ArialMT'" font-size="21">LED Resistor Regulator in Series</text>
</svg>
