<?xml version="1.0" encoding="utf-8"?>
<!-- Generator: Adobe Illustrator 21.1.0, SVG Export Plug-In . SVG Version: 6.00 Build 0)  -->
<svg version="1.1" id="Layer_1" xmlns="http://www.w3.org/2000/svg" xmlns:xlink="http://www.w3.org/1999/xlink" x="0px" y="0px"
	 viewBox="0 0 612 792" style="enable-background:new 0 0 612 792;" xml:space="preserve">
<style type="text/css">
	.st0{fill:none;stroke:#000000;stroke-width:2;stroke-linecap:round;stroke-linejoin:round;}
	.st1{fill:none;stroke:#787878;stroke-width:2;stroke-linecap:round;stroke-linejoin:round;}
	.st2{fill:#787878;}
	.st3{font-family:'ArialMT';}
	.st4{font-size:9.6613px;}
	.st5{fill:#FFFFFF;}
	.st6{fill:none;stroke:#000000;stroke-width:2;stroke-linecap:round;}
	.st7{fill:none;stroke:#787878;stroke-width:2;stroke-linecap:round;}
	.st8{fill:none;stroke:#000000;stroke-width:2;}
	.st9{fill:none;stroke:#555555;stroke-width:2;stroke-linecap:round;}
	.st10{fill:none;}
	.st11{fill:none;stroke:#404040;stroke-width:2;stroke-linecap:round;}
	.st12{fill:#B1B3B5;}
	.st13{font-family:'Arial-Black';}
	.st14{font-size:6.4132px;}
	.st15{fill:#939597;}
	.st16{font-size:14px;}
	.st17{font-family:'AppleBraille';}
	.st18{font-size:30px;}
	.st19{fill:none;stroke:#000000;stroke-width:4;stroke-miterlimit:10;}
	.st20{font-size:21px;}
</style>
<g id="Layer_1_2_">
	<g id="Layer_1_1_" xmlns:svg="http://www.w3.org/2000/svg">
		<g>
			<g transform="translate(28.8,7.06667)">
				<g transform="matrix(-1,0,0,1,0,0)">
					<g id="schematic">
						<polyline class="st0" points="-51.5,247.2 -43.6,247.2 -37.7,253.1 -30.3,253.1 -20.6,246.4 						"/>
						<polyline class="st0" points="-51.5,262.5 -41.6,262.5 -24,262.5 						"/>
						<polyline id="box_1_" class="st0" points="-20.6,279.8 -51.5,279.8 -51.5,233.4 -20.6,233.4 						"/>
						<polygon points="-45.4,249.8 -48.6,254.2 -46.4,254.6 -49.1,260 -43.8,253.5 -46.1,252.9 						"/>
						<g id="connector2terminal">
						</g>
						<g id="connector1terminal">
						</g>
						<g id="connector0terminal">
						</g>
						<line id="connector2pin" class="st1" x1="-51.5" y1="262.5" x2="-66.9" y2="262.5"/>
						<line id="connector0pin" class="st1" x1="-51.5" y1="247.4" x2="-66.9" y2="247.4"/>
						<line id="connector1pin" class="st1" x1="-51.5" y1="262.5" x2="-66.9" y2="262.5"/>
						<g transform="matrix(1, 0, 0, 1, 19.3843, 25.585)">
							<text transform="matrix(1 0 0 1 -45.4691 247.2922)" class="st2 st3 st4">-</text>
						</g>
						<g transform="matrix(1, 0, 0, 1, 18.5503, 12.1563)">
							<text transform="matrix(1 0 0 1 -46.4241 231.8898)" class="st2 st3 st4">+</text>
						</g>
					</g>
				</g>
			</g>
		</g>
		<rect x="211.8" y="238.3" class="st5" width="61.8" height="46.4"/>
		<line class="st6" x1="211.8" y1="284.7" x2="273.6" y2="284.7"/>
		<line class="st6" x1="273.6" y1="284.7" x2="273.6" y2="238.3"/>
		<line class="st6" x1="273.6" y1="238.3" x2="211.8" y2="238.3"/>
		<line class="st6" x1="211.8" y1="238.3" x2="211.8" y2="284.7"/>
		<line id="connector1pin_1_" class="st7" x1="196.3" y1="253.8" x2="211.8" y2="253.8"/>
		<line id="connector0pin_1_" class="st7" x1="242.7" y1="300.2" x2="242.7" y2="284.7"/>
		<line id="connector2pin_1_" class="st7" x1="289.1" y1="253.8" x2="273.6" y2="253.8"/>
		<line class="st6" x1="393.7" y1="295.3" x2="393.7" y2="299.1"/>
		<line class="st6" x1="393.7" y1="268.2" x2="401.4" y2="295.3"/>
		<circle class="st8" cx="393.7" cy="268.2" r="0.8"/>
		<circle class="st8" cx="393.7" cy="299.1" r="0.8"/>
		<line class="st6" x1="409.1" y1="299.1" x2="378.2" y2="299.1"/>
		<line class="st6" x1="409.1" y1="268.2" x2="378.2" y2="268.2"/>
		<line id="connector3pin" class="st9" x1="378.2" y1="253.4" x2="378.2" y2="268.2"/>
		<line id="connector2pin_2_" class="st9" x1="409.1" y1="253.4" x2="409.1" y2="268.2"/>
		<line id="connector1pin_2_" class="st9" x1="378.2" y1="313.8" x2="378.2" y2="299.1"/>
		<line id="connector0pin_2_" class="st9" x1="409.1" y1="313.8" x2="409.1" y2="299.1"/>
		<line class="st6" x1="409.2" y1="384.7" x2="403" y2="382.4"/>
		<line class="st6" x1="403" y1="382.4" x2="415.4" y2="378.6"/>
		<line class="st6" x1="415.4" y1="378.6" x2="403" y2="374.7"/>
		<line class="st6" x1="403" y1="374.7" x2="415.4" y2="370.8"/>
		<line class="st6" x1="415.4" y1="370.8" x2="403" y2="367"/>
		<line class="st6" x1="403" y1="367" x2="415.4" y2="363.1"/>
		<line class="st6" x1="415.4" y1="363.1" x2="403" y2="359.2"/>
		<line class="st6" x1="403" y1="359.2" x2="415.4" y2="355.4"/>
		<line class="st6" x1="415.4" y1="355.4" x2="409.2" y2="353.8"/>
		<line id="connector1pin_3_" class="st7" x1="409.2" y1="338.4" x2="409.2" y2="353.8"/>
		<line id="connector0pin_3_" class="st7" x1="409.2" y1="400.2" x2="409.2" y2="384.7"/>
		<g>
			<path d="M356.1,408.2v-7.7c0-0.4,0.3-0.8,0.8-0.8c0.4,0,0.8,0.3,0.8,0.8v7.7c0,0.4-0.3,0.8-0.8,0.8
				C356.4,408.9,356.1,408.6,356.1,408.2z"/>
		</g>
		<g>
			<path d="M356.1,400.5v-7.7c0-0.4,0.3-0.8,0.8-0.8c0.4,0,0.8,0.3,0.8,0.8v7.7c0,0.4-0.3,0.8-0.8,0.8
				C356.4,401.2,356.1,400.9,356.1,400.5z"/>
		</g>
		<g>
			<polygon class="st5" points="356.7,400.5 372.2,392.8 372.2,400.5 372.2,408.2 			"/>
			<path d="M355.1,400.5l17.9-9v17.9L355.1,400.5z M371.5,393.9l-13.1,6.5l13.1,6.5V393.9z"/>
		</g>
		<g>
			<path d="M356.3,400.5c0-0.2,0.2-0.5,0.5-0.5h15.5c0.2,0,0.5,0.2,0.5,0.5c0,0.2-0.2,0.5-0.5,0.5h-15.5
				C356.5,401,356.3,400.7,356.3,400.5z"/>
		</g>
		<g>
			<path d="M362.1,383.1c0-0.2,0.1-0.2,0.2-0.3c0.2-0.2,0.5-0.2,0.7,0l5,5c0.2,0.2,0.2,0.5,0,0.7c-0.2,0.2-0.5,0.2-0.7,0l-5-5
				C362.2,383.3,362.1,383.2,362.1,383.1z"/>
		</g>
		<g>
			<path d="M355.1,383.9c0-0.2,0.1-0.2,0.2-0.3c0.2-0.2,0.5-0.2,0.7,0l5,5c0.2,0.2,0.2,0.5,0,0.7c-0.2,0.2-0.5,0.2-0.7,0l-5-5
				C355.2,384.1,355.1,384,355.1,383.9z"/>
		</g>
		<g id="connector0pin_4_">
			<path class="st2" d="M340.6,400.5c0-0.4,0.3-0.8,0.8-0.8h15.5c0.4,0,0.8,0.3,0.8,0.8c0,0.4-0.3,0.8-0.8,0.8h-15.5
				C340.9,401.2,340.6,400.9,340.6,400.5z"/>
		</g>
		<g id="connector0terminal_4_">
			<path class="st10" d="M341.3,400.5L341.3,400.5L341.3,400.5z"/>
		</g>
		<g id="connector1pin_4_">
			<path class="st2" d="M371.5,400.5c0-0.4,0.3-0.8,0.8-0.8h15.5c0.4,0,0.8,0.3,0.8,0.8c0,0.4-0.3,0.8-0.8,0.8h-15.5
				C371.8,401.2,371.5,400.9,371.5,400.5z"/>
		</g>
		<g id="connector1terminal_4_">
			<path class="st10" d="M387.7,400.5L387.7,400.5L387.7,400.5z"/>
		</g>
		<g>
			<path d="M359.1,379.6l5.4,2.3l-3.1,3.1L359.1,379.6z"/>
		</g>
		<g>
			<path d="M352.1,380.4l5.4,2.3l-3.1,3.1L352.1,380.4z"/>
		</g>
		<path class="st10" d="M241.9,400.9L241.9,400.9L241.9,400.9z"/>
		<path class="st10" d="M288.3,400.9L288.3,400.9L288.3,400.9z"/>
		<g>
			<line class="st11" x1="196.3" y1="253.8" x2="95.1" y2="254.4"/>
		</g>
		<g>
			<line class="st11" x1="289.1" y1="253.8" x2="378.2" y2="253.6"/>
		</g>
		<g>
			<line class="st11" x1="409.1" y1="313.4" x2="409.2" y2="338.4"/>
		</g>
		<g>
			<line class="st11" x1="409.2" y1="400.2" x2="387.7" y2="400.5"/>
		</g>
		<g>
			<line class="st11" x1="95.1" y1="269.6" x2="95.1" y2="300.2"/>
		</g>
		<g>
			<line class="st11" x1="95.1" y1="300.2" x2="242.7" y2="300.2"/>
		</g>
		<circle cx="242.7" cy="300.2" r="3.1"/>
		<g>
			<line class="st11" x1="341.3" y1="400.3" x2="241.9" y2="401"/>
		</g>
		<g>
			<line class="st11" x1="241.9" y1="400.9" x2="242.7" y2="300.2"/>
		</g>
		<circle cx="242.7" cy="300.2" r="3.1"/>
		<circle cx="241.9" cy="400.2" r="3.1"/>
		<g>
			<g transform="translate(150.149,113.38)">
				<g id="schematic_6_">
					<path id="connector0pin_6_" class="st7" d="M91.7,337.4v-16.9"/>
					<g id="connector0terminal_6_">
					</g>
					<path id="path4098" class="st6" d="M76,337.8h31.4"/>
					<path id="path4100" class="st6" d="M81.2,344.2h20.9"/>
					<path id="path4102" class="st6" d="M97,350.5H86.5"/>
				</g>
			</g>
		</g>
		<line class="st11" x1="241.9" y1="400.1" x2="241.9" y2="434"/>
	</g>
	<g id="plaintext">
		<text transform="matrix(1 0 0 1 219.4048 253.8784)" class="st12 st13 st14">IN</text>
		<g>
			<g transform="rotate(270)">
				<g>
					<text transform="matrix(1 0 0 1 -275.1384 243.2251)" class="st12 st13 st14">GND</text>
				</g>
			</g>
		</g>
		<text transform="matrix(1 0 0 1 250.9434 253.8784)" class="st12 st13 st14">OUT</text>
		<g id="partLabel">
			<g transform="translate(0.4,0)">
				<g id="schematicLabel">
					<text transform="matrix(1 0 0 1 57.0209 194.5103)" class="st15 st3 st16">PP1</text>
				</g>
			</g>
		</g>
		<g id="partLabel_1_">
			<g transform="translate(92.289,5.73757)">
				<g id="schematicLabel_1_">
					<text transform="matrix(1 0 0 1 141.2315 183.8313)" class="st15 st3 st16">IC1</text>
				</g>
			</g>
		</g>
		<g id="partLabel_2_">
			<g transform="translate(181.012,31.6566)">
				<g id="schematicLabel_2_">
					<text transform="matrix(1 0 0 1 330.99 256.0402)" class="st15 st3 st16">S1</text>
				</g>
			</g>
		</g>
		<g id="partLabel_3_">
			<g transform="translate(179.719,67.2344)">
				<g id="schematicLabel_3_">
					<text transform="matrix(1 0 0 1 329.9138 270.2007)" class="st15 st3 st16">R1</text>
					<text transform="matrix(1 0 0 1 329.9138 286.3628)" class="st15 st3 st16">220Ω</text>
				</g>
			</g>
		</g>
		<g id="partLabel_4_">
			<g transform="translate(141.845,94.5703)">
				<g id="schematicLabel_4_">
					<text transform="matrix(1 0 0 1 218.2976 364.1797)" class="st15 st3 st16">LED1</text>
				</g>
			</g>
		</g>
	</g>
	<g id="braille">
		<text transform="matrix(1 0 0 1 26.7876 225.603)" class="st17 st18">⠠⠏⠠⠏⠼⠁</text>
		<text transform="matrix(1 0 0 1 206.8252 220.478)" class="st17 st18">⠠⠊⠠⠉⠼⠁</text>
		<text transform="matrix(1 0 0 1 124.3013 281.3696)" class="st17 st18">⠠⠊⠠⠝</text>
		<text transform="matrix(1 0 0 1 278.5786 282.1421)" class="st17 st18">⠕⠥⠞</text>
		<text transform="matrix(1 0 0 1 242.2163 319.7261)" class="st17 st18">⠠⠛⠠⠝⠠⠙</text>
		<text transform="matrix(1 0 0 1 422.3145 293.3081)" class="st17 st18">⠠⠎⠼⠁</text>
		<text transform="matrix(1 0 0 1 420.4746 356.2329)" class="st17 st18">⠠⠗⠼⠁</text>
		<text transform="matrix(1 0 0 1 420.4746 387.1235)" class="st17 st18">⠼⠃⠃⠚ ⠨⠺</text>
		<text transform="matrix(1 0 0 1 348.1797 439.9746)" class="st17 st18">⠠⠇⠠⠑⠠⠙⠼⠁</text>
	</g>
</g>
<line class="st19" x1="22.7" y1="0" x2="0.5" y2="22.2"/>
<line class="st19" x1="37.1" y1="-3.5" x2="-4.5" y2="38.1"/>
<text transform="matrix(1 0 0 1 43.001 67.8555)" class="st17 st18">⠠⠇⠠⠑⠠⠙⠂ ⠎⠺⠊⠞⠉⠓⠂ ⠗⠑⠎⠊⠎⠞⠕⠗ </text>
<text transform="matrix(1 0 0 1 43.001 103.8555)" class="st17 st18">⠊⠝ ⠎⠑⠗⠊⠑⠎</text>
<g>
	<text transform="matrix(1 0 0 1 48.9526 133.3145)" class="st15 st3 st20">LED, switch, resistor in series</text>
</g>
<text transform="matrix(1 0 0 1 17.6372 692.5371)" class="st15 st3 st16">Key:</text>
<text transform="matrix(1 0 0 1 17.6372 709.5195)" class="st15 st3 st16">PP1 - DC power plug</text>
<text transform="matrix(1 0 0 1 17.6372 726.5)" class="st15 st3 st16">IC1- 7805 5-volt regulator</text>
<text transform="matrix(1 0 0 1 17.6372 743.3)" class="st15 st3 st16">S1- switch or pushbutton</text>
<text transform="matrix(1 0 0 1 17.6372 760.8721)" class="st15 st3 st16">R1 - 220-ohm resistor</text>
<text transform="matrix(1 0 0 1 17.6372 777)" class="st15 st3 st16">LED1 - 5mm red LED</text>
<text transform="matrix(1 0 0 1 0 493.4004)" class="st17 st18">⠠⠅⠑⠽</text>
<text transform="matrix(1 0 0 1 0 526.291)" class="st17 st18">⠠⠏⠠⠏⠼⠁ ⠤ ⠠⠙⠠⠉ ⠏⠕⠺⠑⠗ ⠏⠇⠥⠛</text>
<text transform="matrix(1 0 0 1 0 559.1816)" class="st17 st18">⠠⠊⠠⠉⠼⠁⠤ ⠼⠛⠓⠚⠑ ⠼⠑⠤⠧⠕⠇⠞ ⠗⠑⠛⠥⠇⠁⠞⠕⠗</text>
<text transform="matrix(1 0 0 1 0 589.1816)" class="st17 st18">⠠⠎⠼⠁⠤ ⠎⠺⠊⠞⠉⠓ ⠕⠗ ⠏⠥⠎⠓⠃⠥⠞⠞⠕⠝</text>
<text transform="matrix(1 0 0 1 0 622.0732)" class="st17 st18">⠠⠗⠼⠁ ⠤ ⠼⠃⠃⠚ ⠨⠺ ⠗⠑⠎⠊⠎⠞⠕⠗ </text>
<text transform="matrix(1 0 0 1 0 654.9629)" class="st17 st18">⠠⠇⠠⠑⠠⠙⠼⠁ ⠤ ⠼⠑⠍⠍ ⠗⠑⠙ ⠠⠇⠠⠑⠠⠙</text>
</svg>
