<?xml version="1.0" encoding="utf-8"?>
<!-- Generator: Adobe Illustrator 16.0.0, SVG Export Plug-In . SVG Version: 6.00 Build 0)  -->
<!DOCTYPE svg PUBLIC "-//W3C//DTD SVG 1.1//EN" "http://www.w3.org/Graphics/SVG/1.1/DTD/svg11.dtd">
<svg version="1.1" id="Layer_1" xmlns="http://www.w3.org/2000/svg" xmlns:xlink="http://www.w3.org/1999/xlink" x="0px" y="0px"
	 width="612px" height="792px" viewBox="0 0 612 792" enable-background="new 0 0 612 792" xml:space="preserve">
<g id="Layer_1_2_">
	<g id="Layer_1_1_" xmlns:svg="http://www.w3.org/2000/svg">
		<g>
			<g transform="translate(28.8,7.0664)">
				<g transform="matrix(-1,0,0,1,0,0)">
					<g id="schematic">
						<polyline fill="none" stroke="#000000" stroke-width="2" stroke-linecap="round" stroke-linejoin="round" points="
							-50.104,243.403 -41.527,243.403 -35.191,249.739 -27.232,249.739 -16.645,242.553 						"/>
						<polyline fill="none" stroke="#000000" stroke-width="2" stroke-linecap="round" stroke-linejoin="round" points="
							-50.104,259.939 -39.441,259.939 -20.432,259.939 						"/>
						
							<polyline id="box_1_" fill="none" stroke="#000000" stroke-width="2" stroke-linecap="round" stroke-linejoin="round" points="
							-16.645,278.64 -50.104,278.64 -50.104,228.412 -16.645,228.412 						"/>
						<polygon points="-43.536,246.185 -47.013,250.898 -44.618,251.362 -47.632,257.158 -41.836,250.203 -44.309,249.585 						"/>
						<g id="connector2terminal">
						</g>
						<g id="connector1terminal">
						</g>
						<g id="connector0terminal">
						</g>
						
							<line id="connector2pin" fill="none" stroke="#787878" stroke-width="2" stroke-linecap="round" stroke-linejoin="round" x1="-50.104" y1="259.939" x2="-66.873" y2="259.939"/>
						
							<line id="connector0pin" fill="none" stroke="#787878" stroke-width="2" stroke-linecap="round" stroke-linejoin="round" x1="-50.104" y1="243.558" x2="-66.873" y2="243.558"/>
						
							<line id="connector1pin" fill="none" stroke="#787878" stroke-width="2" stroke-linecap="round" stroke-linejoin="round" x1="-50.104" y1="259.939" x2="-66.873" y2="259.939"/>
						<g transform="matrix(1, 0, 0, 1, 19.3843, 25.585)">
							<text transform="matrix(1 0 0 1 -42.0062 245.6064)" fill="#787878" font-family="'ArialMT'" font-size="10.4646">-</text>
						</g>
						<g transform="matrix(1, 0, 0, 1, 18.5503, 12.1563)">
							<text transform="matrix(1 0 0 1 -43.1136 227.8056)" fill="#787878" font-family="'ArialMT'" font-size="10.4646">+</text>
						</g>
					</g>
				</g>
			</g>
		</g>
		<rect x="221.318" y="233.187" fill="#FFFFFF" width="66.995" height="50.227"/>
		
			<line fill="none" stroke="#000000" stroke-width="2" stroke-linecap="round" x1="221.318" y1="283.414" x2="288.312" y2="283.414"/>
		
			<line fill="none" stroke="#000000" stroke-width="2" stroke-linecap="round" x1="288.312" y1="283.414" x2="288.312" y2="233.187"/>
		
			<line fill="none" stroke="#000000" stroke-width="2" stroke-linecap="round" x1="288.312" y1="233.187" x2="221.318" y2="233.187"/>
		
			<line fill="none" stroke="#000000" stroke-width="2" stroke-linecap="round" x1="221.318" y1="233.187" x2="221.318" y2="283.414"/>
		
			<line id="connector1pin_1_" fill="none" stroke="#787878" stroke-width="2" stroke-linecap="round" x1="204.627" y1="249.955" x2="221.318" y2="249.955"/>
		
			<line id="connector0pin_1_" fill="none" stroke="#787878" stroke-width="2" stroke-linecap="round" x1="254.854" y1="300.182" x2="254.854" y2="283.414"/>
		
			<line id="connector2pin_1_" fill="none" stroke="#787878" stroke-width="2" stroke-linecap="round" x1="305.082" y1="249.955" x2="288.312" y2="249.955"/>
		<line fill="none" stroke="#000000" stroke-width="2" stroke-linecap="round" x1="418.44" y1="294.85" x2="418.44" y2="299.023"/>
		<line fill="none" stroke="#000000" stroke-width="2" stroke-linecap="round" x1="418.44" y1="265.486" x2="426.786" y2="294.85"/>
		<circle fill="none" stroke="#000000" stroke-width="2" cx="418.44" cy="265.486" r="0.85"/>
		<circle fill="none" stroke="#000000" stroke-width="2" cx="418.44" cy="299.023" r="0.85"/>
		
			<line fill="none" stroke="#000000" stroke-width="2" stroke-linecap="round" x1="435.132" y1="299.023" x2="401.673" y2="299.023"/>
		
			<line fill="none" stroke="#000000" stroke-width="2" stroke-linecap="round" x1="435.132" y1="265.486" x2="401.673" y2="265.486"/>
		
			<line id="connector3pin" fill="none" stroke="#555555" stroke-width="2" stroke-linecap="round" x1="401.673" y1="249.491" x2="401.673" y2="265.486"/>
		
			<line id="connector2pin_2_" fill="none" stroke="#555555" stroke-width="2" stroke-linecap="round" x1="435.132" y1="249.491" x2="435.132" y2="265.486"/>
		
			<line id="connector1pin_2_" fill="none" stroke="#555555" stroke-width="2" stroke-linecap="round" x1="401.673" y1="314.941" x2="401.673" y2="299.023"/>
		
			<line id="connector0pin_2_" fill="none" stroke="#555555" stroke-width="2" stroke-linecap="round" x1="435.132" y1="314.941" x2="435.132" y2="299.023"/>
		
			<line fill="none" stroke="#000000" stroke-width="2" stroke-linecap="round" x1="435.209" y1="391.75" x2="428.562" y2="389.277"/>
		
			<line fill="none" stroke="#000000" stroke-width="2" stroke-linecap="round" x1="428.562" y1="389.277" x2="441.932" y2="385.104"/>
		
			<line fill="none" stroke="#000000" stroke-width="2" stroke-linecap="round" x1="441.932" y1="385.104" x2="428.562" y2="380.932"/>
		
			<line fill="none" stroke="#000000" stroke-width="2" stroke-linecap="round" x1="428.562" y1="380.932" x2="441.932" y2="376.682"/>
		
			<line fill="none" stroke="#000000" stroke-width="2" stroke-linecap="round" x1="441.932" y1="376.682" x2="428.562" y2="372.509"/>
		
			<line fill="none" stroke="#000000" stroke-width="2" stroke-linecap="round" x1="428.562" y1="372.509" x2="441.932" y2="368.336"/>
		
			<line fill="none" stroke="#000000" stroke-width="2" stroke-linecap="round" x1="441.932" y1="368.336" x2="428.562" y2="364.164"/>
		
			<line fill="none" stroke="#000000" stroke-width="2" stroke-linecap="round" x1="428.562" y1="364.164" x2="441.932" y2="359.991"/>
		
			<line fill="none" stroke="#000000" stroke-width="2" stroke-linecap="round" x1="441.932" y1="359.991" x2="435.209" y2="358.291"/>
		
			<line id="connector1pin_3_" fill="none" stroke="#787878" stroke-width="2" stroke-linecap="round" x1="435.209" y1="341.523" x2="435.209" y2="358.291"/>
		
			<line id="connector0pin_3_" fill="none" stroke="#787878" stroke-width="2" stroke-linecap="round" x1="435.209" y1="408.519" x2="435.209" y2="391.75"/>
		<path d="M317.522,471.341v-8.346c0-0.463,0.387-0.852,0.851-0.852c0.463,0,0.85,0.389,0.85,0.852v8.346
			c0,0.464-0.387,0.853-0.85,0.853C317.909,472.191,317.522,471.805,317.522,471.341z"/>
		<path d="M317.522,462.995v-8.345c0-0.466,0.387-0.853,0.851-0.853c0.463,0,0.85,0.387,0.85,0.853v8.345
			c0,0.464-0.387,0.851-0.85,0.851C317.909,463.846,317.522,463.459,317.522,462.995z"/>
		<polygon fill="#FFFFFF" points="318.373,462.995 335.141,454.65 335.141,462.995 335.141,471.341 		"/>
		<path d="M316.519,462.995l19.396-9.659v19.396L316.519,462.995z M334.291,455.964l-14.141,7.031l14.141,7.032V455.964z"/>
		<path d="M317.832,462.995c0-0.311,0.23-0.541,0.541-0.541h16.768c0.312,0,0.541,0.23,0.541,0.541c0,0.31-0.229,0.541-0.541,0.541
			h-16.768C318.062,463.536,317.832,463.305,317.832,462.995z"/>
		<path d="M324.091,444.141c0-0.152,0.077-0.229,0.154-0.386c0.23-0.23,0.541-0.23,0.771,0l5.409,5.409
			c0.231,0.229,0.231,0.54,0,0.771c-0.23,0.231-0.541,0.231-0.771,0l-5.409-5.407C324.168,444.45,324.091,444.296,324.091,444.141z"
			/>
		<path d="M316.596,444.991c0-0.155,0.077-0.232,0.154-0.389c0.231-0.229,0.541-0.229,0.772,0l5.407,5.409
			c0.232,0.231,0.232,0.541,0,0.772c-0.229,0.23-0.541,0.23-0.771,0l-5.409-5.409C316.673,445.3,316.596,445.146,316.596,444.991z"
			/>
		<path fill="#787878" d="M300.832,462.995c0-0.463,0.386-0.852,0.85-0.852h16.771c0.464,0,0.85,0.389,0.85,0.852
			c0,0.464-0.386,0.851-0.85,0.851h-16.771C301.141,463.769,300.832,463.459,300.832,462.995z"/>
		<path fill="none" d="M301.604,462.995L301.604,462.995L301.604,462.995z"/>
		<path fill="#787878" d="M334.291,462.995c0-0.463,0.387-0.852,0.85-0.852h16.771c0.464,0,0.85,0.389,0.85,0.852
			c0,0.464-0.386,0.851-0.85,0.851h-16.771C334.678,463.769,334.291,463.459,334.291,462.995z"/>
		<path fill="none" d="M351.832,462.995L351.832,462.995L351.832,462.995z"/>
		<path d="M320.846,440.354l5.872,2.475l-3.32,3.323L320.846,440.354z"/>
		<path d="M313.35,441.204l5.873,2.551l-3.32,3.322L313.35,441.204z"/>
		<path d="M317.522,416.632v-8.346c0-0.464,0.387-0.852,0.851-0.852c0.463,0,0.85,0.388,0.85,0.852v8.346
			c0,0.464-0.387,0.852-0.85,0.852C317.909,417.481,317.522,417.096,317.522,416.632z"/>
		<path d="M317.522,408.286v-8.345c0-0.466,0.387-0.853,0.851-0.853c0.463,0,0.85,0.387,0.85,0.853v8.345
			c0,0.464-0.387,0.851-0.85,0.851C317.909,409.137,317.522,408.75,317.522,408.286z"/>
		<polygon fill="#FFFFFF" points="318.373,408.286 335.141,399.941 335.141,408.286 335.141,416.632 		"/>
		<path d="M316.519,408.286l19.396-9.659v19.396L316.519,408.286z M334.291,401.255l-14.141,7.031l14.141,7.032V401.255z"/>
		<path d="M317.832,408.286c0-0.311,0.23-0.541,0.541-0.541h16.768c0.312,0,0.541,0.23,0.541,0.541c0,0.31-0.229,0.541-0.541,0.541
			h-16.768C318.062,408.827,317.832,408.596,317.832,408.286z"/>
		<path d="M324.091,389.432c0-0.152,0.077-0.229,0.154-0.386c0.23-0.23,0.541-0.23,0.771,0l5.409,5.408
			c0.231,0.23,0.231,0.541,0,0.771c-0.23,0.231-0.541,0.231-0.771,0l-5.409-5.407C324.168,389.741,324.091,389.586,324.091,389.432z
			"/>
		<path d="M316.596,390.282c0-0.155,0.077-0.232,0.154-0.389c0.231-0.229,0.541-0.229,0.772,0l5.407,5.409
			c0.232,0.231,0.232,0.541,0,0.772c-0.229,0.229-0.541,0.229-0.771,0l-5.409-5.409
			C316.673,390.591,316.596,390.438,316.596,390.282z"/>
		<path fill="#787878" d="M300.832,408.286c0-0.464,0.386-0.852,0.85-0.852h16.771c0.464,0,0.85,0.388,0.85,0.852
			s-0.386,0.851-0.85,0.851h-16.771C301.141,409.137,300.832,408.75,300.832,408.286z"/>
		<path fill="none" d="M301.604,408.286L301.604,408.286L301.604,408.286z"/>
		<path fill="#787878" d="M334.291,408.286c0-0.464,0.387-0.852,0.85-0.852h16.771c0.464,0,0.85,0.388,0.85,0.852
			s-0.386,0.851-0.85,0.851h-16.771C334.678,409.137,334.291,408.75,334.291,408.286z"/>
		<path fill="none" d="M351.832,408.286L351.832,408.286L351.832,408.286z"/>
		<path d="M320.846,385.723l5.872,2.475l-3.32,3.321L320.846,385.723z"/>
		<path d="M313.35,386.495l5.873,2.551l-3.32,3.322L313.35,386.495z"/>
		<g>
			<g transform="translate(89.068,101.205)">
				<g id="schematic_6_">
					<path id="connector0pin_6_" fill="none" stroke="#787878" stroke-width="2" stroke-linecap="round" d="M164.293,354.067
						v-16.771"/>
					<g id="connector0terminal_6_">
					</g>
					<path id="path4098" fill="none" stroke="#000000" stroke-width="2" stroke-linecap="round" d="M148.762,354.376h31.141"/>
					<path id="path4100" fill="none" stroke="#000000" stroke-width="2" stroke-linecap="round" d="M153.939,360.79h20.786"/>
					<path id="path4102" fill="none" stroke="#000000" stroke-width="2" stroke-linecap="round" d="M169.548,367.126h-10.354"/>
				</g>
			</g>
		</g>
		<path d="M317.522,366.559v-8.345c0-0.464,0.387-0.851,0.851-0.851c0.463,0,0.85,0.387,0.85,0.851v8.345
			c0,0.466-0.387,0.853-0.85,0.853C317.909,367.332,317.522,367.022,317.522,366.559z"/>
		<path d="M317.522,358.214v-8.346c0-0.464,0.387-0.852,0.851-0.852c0.463,0,0.85,0.388,0.85,0.852v8.346
			c0,0.464-0.387,0.852-0.85,0.852C317.909,358.986,317.522,358.6,317.522,358.214z"/>
		<polygon fill="#FFFFFF" points="318.373,358.214 335.141,349.791 335.141,358.214 335.141,366.559 		"/>
		<path d="M316.519,358.214l19.396-9.659v19.396L316.519,358.214z M334.291,351.104l-14.141,7.032l14.141,7.031V351.104z"/>
		<path d="M317.832,358.214c0-0.31,0.23-0.541,0.541-0.541h16.768c0.312,0,0.541,0.231,0.541,0.541c0,0.311-0.229,0.541-0.541,0.541
			h-16.768C318.062,358.678,317.832,358.445,317.832,358.214z"/>
		<path d="M324.091,339.359c0-0.155,0.077-0.232,0.154-0.387c0.23-0.232,0.541-0.232,0.771,0l5.409,5.409
			c0.231,0.232,0.231,0.541,0,0.772c-0.23,0.23-0.541,0.23-0.771,0l-5.409-5.409C324.168,339.591,324.091,339.514,324.091,339.359z"
			/>
		<path d="M316.596,340.209c0-0.154,0.077-0.231,0.154-0.386c0.231-0.232,0.541-0.232,0.772,0l5.407,5.409
			c0.232,0.23,0.232,0.541,0,0.771c-0.229,0.231-0.541,0.231-0.771,0l-5.409-5.409C316.673,340.441,316.596,340.286,316.596,340.209
			z"/>
		<path fill="#787878" d="M300.832,358.214c0-0.464,0.386-0.851,0.85-0.851h16.771c0.464,0,0.85,0.387,0.85,0.851
			s-0.386,0.852-0.85,0.852h-16.771C301.141,358.986,300.832,358.6,300.832,358.214z"/>
		<path fill="none" d="M301.604,358.214L301.604,358.214L301.604,358.214z"/>
		<path fill="#787878" d="M334.291,358.214c0-0.464,0.387-0.851,0.85-0.851h16.771c0.464,0,0.85,0.387,0.85,0.851
			s-0.386,0.852-0.85,0.852h-16.771C334.678,358.986,334.291,358.6,334.291,358.214z"/>
		<path fill="none" d="M351.832,358.214L351.832,358.214L351.832,358.214z"/>
		<path d="M320.846,335.573l5.872,2.473l-3.32,3.323L320.846,335.573z"/>
		<path d="M313.35,336.423l5.873,2.55l-3.32,3.323L313.35,336.423z"/>
		<g>
			
				<line fill="none" stroke="#404040" stroke-width="2" stroke-linecap="round" x1="204.627" y1="249.955" x2="94.977" y2="250.573"/>
		</g>
		<g>
			
				<line fill="none" stroke="#404040" stroke-width="2" stroke-linecap="round" x1="305.082" y1="249.955" x2="401.673" y2="249.723"/>
		</g>
		<g>
			
				<line fill="none" stroke="#404040" stroke-width="2" stroke-linecap="round" x1="435.132" y1="314.478" x2="435.209" y2="341.523"/>
		</g>
		<g>
			
				<line fill="none" stroke="#404040" stroke-width="2" stroke-linecap="round" x1="95.055" y1="300.182" x2="254.854" y2="300.182"/>
		</g>
		<circle cx="254.854" cy="300.182" r="3.323"/>
		<g>
			
				<line fill="none" stroke="#404040" stroke-width="2" stroke-linecap="round" x1="95.055" y1="267.032" x2="95.055" y2="300.182"/>
		</g>
		<g>
			
				<line fill="none" stroke="#404040" stroke-width="2" stroke-linecap="round" x1="253.387" y1="438.809" x2="253.695" y2="408.75"/>
		</g>
		<g>
			
				<line fill="none" stroke="#404040" stroke-width="2" stroke-linecap="round" x1="254.159" y1="298.482" x2="253.695" y2="408.75"/>
		</g>
		<path d="M253.695,405.428c1.854,0,3.321,1.47,3.321,3.322s-1.469,3.322-3.321,3.322c-1.854,0-3.323-1.47-3.323-3.322
			S251.841,405.428,253.695,405.428z"/>
		<g>
			
				<line fill="none" stroke="#404040" stroke-width="2" stroke-linecap="round" x1="254.854" y1="300.182" x2="254.159" y2="298.482"/>
		</g>
		<circle cx="254.854" cy="300.182" r="3.323"/>
		
			<line fill="none" stroke="#404040" stroke-width="2" stroke-linecap="round" x1="435.904" y1="408.286" x2="351.832" y2="408.286"/>
		<path d="M351.832,404.964c1.854,0,3.322,1.468,3.322,3.322c0,1.854-1.47,3.323-3.322,3.323c-1.854,0-3.323-1.471-3.323-3.323
			C348.509,406.432,349.978,404.964,351.832,404.964z"/>
		<g>
			
				<line fill="none" stroke="#404040" stroke-width="2" stroke-linecap="round" x1="435.209" y1="408.519" x2="435.904" y2="408.286"/>
		</g>
		
			<line fill="none" stroke="#404040" stroke-width="2" stroke-linecap="round" x1="352.527" y1="359.836" x2="351.832" y2="408.286"/>
		<path d="M351.832,404.964c1.854,0,3.322,1.468,3.322,3.322c0,1.854-1.47,3.323-3.322,3.323c-1.854,0-3.323-1.471-3.323-3.323
			C348.509,406.432,349.978,404.964,351.832,404.964z"/>
		
			<line fill="none" stroke="#404040" stroke-width="2" stroke-linecap="round" x1="351.832" y1="358.214" x2="352.527" y2="359.836"/>
		
			<line fill="none" stroke="#404040" stroke-width="2" stroke-linecap="round" x1="351.522" y1="462.454" x2="351.832" y2="408.286"/>
		<path d="M351.832,404.964c1.854,0,3.322,1.468,3.322,3.322c0,1.854-1.47,3.323-3.322,3.323c-1.854,0-3.323-1.471-3.323-3.323
			C348.509,406.432,349.978,404.964,351.832,404.964z"/>
		
			<line fill="none" stroke="#404040" stroke-width="2" stroke-linecap="round" x1="351.832" y1="462.995" x2="351.522" y2="462.454"/>
		
			<line fill="none" stroke="#404040" stroke-width="2" stroke-linecap="round" x1="301.604" y1="408.286" x2="301.604" y2="358.214"/>
		<circle cx="301.604" cy="408.287" r="3.323"/>
		
			<line fill="none" stroke="#404040" stroke-width="2" stroke-linecap="round" x1="253.695" y1="408.75" x2="301.604" y2="408.286"/>
		<circle cx="301.604" cy="408.287" r="3.323"/>
		
			<line fill="none" stroke="#404040" stroke-width="2" stroke-linecap="round" x1="301.604" y1="408.286" x2="301.604" y2="462.995"/>
		<circle cx="301.604" cy="408.287" r="3.323"/>
	</g>
	<g id="plaintext">
		<text transform="matrix(1 0 0 1 227.7705 251.5498)" fill="#939597" font-family="'Arial-Black'" font-size="8.1391">IN</text>
		<g transform="rotate(270)">
			<g>
				<text transform="matrix(1 0 0 1 -278.5273 258)" fill="#939597" font-family="'Arial-Black'" font-size="8.1391">GND</text>
			</g>
		</g>
		<text transform="matrix(1 0 0 1 263.7969 251.5498)" fill="#939597" font-family="'Arial-Black'" font-size="8.1391">OUT</text>
	</g>
	<g id="braille">
		<text transform="matrix(1 0 0 1 160.7861 269.7812)" font-family="'AppleBraille'" font-size="22.4091">⠠⠊⠠⠝</text>
		<text transform="matrix(1 0 0 1 294.0635 270.5547)" font-family="'AppleBraille'" font-size="22.4091">⠕⠥⠞</text>
		<text transform="matrix(1 0 0 1 258.7012 313.1377)" font-family="'AppleBraille'" font-size="22.4091">⠠⠛⠠⠝⠠⠙</text>
		<text transform="matrix(1 0 0 1 -424.3892 593.7188)" font-family="'AppleBraille'" font-size="22.4091">⠠⠅⠑⠽</text>
		<text transform="matrix(1 0 0 1 -416.1118 542.7188)" font-family="'MyriadPro-Regular'" font-size="22.4091">:</text>
	</g>
</g>
<line fill="none" stroke="#000000" stroke-width="4" stroke-miterlimit="10" x1="22.719" y1="0" x2="0.5" y2="22.219"/>
<line fill="none" stroke="#000000" stroke-width="4" stroke-miterlimit="10" x1="37.125" y1="-3.5" x2="-4.5" y2="38.125"/>
<text transform="matrix(1 0 0 1 43.001 103.8555)" font-family="'AppleBraille'" font-size="30">⠼⠉ ⠠⠇⠠⠑⠠⠙⠎ ⠊⠝ ⠏⠁⠗⠁⠇⠇⠑⠇</text>
<g>
	<text transform="matrix(1 0 0 1 48.9526 133.3145)" fill="#939597" font-family="'ArialMT'" font-size="21">3 LEDs in parallel</text>
</g>
<g id="partLabel">
	<g transform="translate(0.4,0)">
		<g id="schematicLabel">
			<text transform="matrix(1 0 0 1 50.0209 192.5107)" fill="#939597" font-family="'ArialMT'" font-size="14">PP1</text>
		</g>
	</g>
</g>
<g id="partLabel_1_">
	<g transform="translate(92.289,5.73757)">
		<g id="schematicLabel_1_">
			<text transform="matrix(1 0 0 1 134.2315 183.8308)" fill="#939597" font-family="'ArialMT'" font-size="14">IC1</text>
		</g>
	</g>
</g>
<text transform="matrix(1 0 0 1 19.7876 223.6035)" font-family="'AppleBraille'" font-size="30">⠠⠏⠠⠏⠼⠁</text>
<text transform="matrix(1 0 0 1 199.8252 220.4785)" font-family="'AppleBraille'" font-size="30">⠠⠊⠠⠉⠼⠁</text>
<g id="partLabel_2_">
	<g transform="translate(181.012,31.6566)">
		<g id="schematicLabel_2_">
			<text transform="matrix(1 0 0 1 264.99 270.0406)" fill="#939597" font-family="'ArialMT'" font-size="14">S1</text>
		</g>
	</g>
</g>
<text transform="matrix(1 0 0 1 434.3145 283.3086)" font-family="'AppleBraille'" font-size="30">⠠⠎⠼⠁</text>
<g id="partLabel_3_">
	<g transform="translate(179.719,67.2344)">
		<g id="schematicLabel_3_">
			<text transform="matrix(1 0 0 1 360.9138 282.2012)" fill="#939597" font-family="'ArialMT'" font-size="14">R1</text>
			<text transform="matrix(1 0 0 1 360.9138 298.3633)" fill="#939597" font-family="'ArialMT'" font-size="14">220Ω</text>
		</g>
	</g>
</g>
<g id="partLabel_4_">
	<g transform="translate(141.845,94.5703)">
		<g id="schematicLabel_4_">
			<text transform="matrix(1 0 0 1 169.2976 396.1797)" fill="#939597" font-family="'ArialMT'" font-size="14">LED1</text>
		</g>
	</g>
</g>
<g id="partLabel_5_">
	<g transform="translate(141.845,94.5703)">
		<g id="schematicLabel_5_">
			<text transform="matrix(1 0 0 1 169.2976 338.1797)" fill="#939597" font-family="'ArialMT'" font-size="14">LED2</text>
		</g>
	</g>
</g>
<g id="partLabel_6_">
	<g transform="translate(141.845,94.5703)">
		<g id="schematicLabel_6_">
			<text transform="matrix(1 0 0 1 169.2976 287.1797)" fill="#939597" font-family="'ArialMT'" font-size="14">LED3</text>
		</g>
	</g>
</g>
<text transform="matrix(1 0 0 1 451.4746 368.2324)" font-family="'AppleBraille'" font-size="30">⠠⠗⠼⠁</text>
<text transform="matrix(1 0 0 1 451.4746 399.123)" font-family="'AppleBraille'" font-size="30">⠼⠃⠃⠚ ⠨⠺</text>
<text transform="matrix(1 0 0 1 346.1797 485.9746)" font-family="'AppleBraille'" font-size="30">⠠⠇⠠⠑⠠⠙⠼⠁</text>
<text transform="matrix(1 0 0 1 346.1797 441.9746)" font-family="'AppleBraille'" font-size="30">⠠⠇⠠⠑⠠⠙⠼⠃</text>
<text transform="matrix(1 0 0 1 346.1797 366.9746)" enable-background="new    "><tspan x="0" y="0" font-family="'AppleBraille'" font-size="30">⠠⠇⠠⠑</tspan><tspan x="0" y="36" font-family="'AppleBraille'" font-size="30">⠠⠙⠼⠉</tspan></text>
<text transform="matrix(1 0 0 1 8.6372 704.5371)" fill="#939597" font-family="'ArialMT'" font-size="14">Key:</text>
<text transform="matrix(1 0 0 1 8.6372 721.5195)" fill="#939597" font-family="'ArialMT'" font-size="14">PP1 - DC power plug</text>
<text transform="matrix(1 0 0 1 8.6372 738.5)" fill="#939597" font-family="'ArialMT'" font-size="14">IC1- 7805 5-volt regulator</text>
<text transform="matrix(1 0 0 1 8.6372 755.4824)" fill="#939597" font-family="'ArialMT'" font-size="14">R1 - 220-ohm resistor</text>
<text transform="matrix(1 0 0 1 8.6372 771.6104)" fill="#939597" font-family="'ArialMT'" font-size="14">LED1 - 5mm red LED</text>
<text transform="matrix(1 0 0 1 0 521.4004)" font-family="'AppleBraille'" font-size="30">⠠⠅⠑⠽</text>
<text transform="matrix(1 0 0 1 0 554.291)" font-family="'AppleBraille'" font-size="30">⠠⠏⠠⠏⠼⠁ ⠤ ⠠⠙⠠⠉ ⠏⠕⠺⠑⠗ ⠏⠇⠥⠛</text>
<text transform="matrix(1 0 0 1 0 587.1816)" font-family="'AppleBraille'" font-size="30">⠠⠊⠠⠉⠼⠁⠤ ⠼⠛⠓⠚⠑ ⠼⠑⠤⠧⠕⠇⠞ ⠗⠑⠛⠥⠇⠁⠞⠕⠗</text>
<text transform="matrix(1 0 0 1 0 620.0732)" font-family="'AppleBraille'" font-size="30">⠠⠗⠼⠁ ⠤ ⠼⠃⠃⠚ ⠨⠺ ⠗⠑⠎⠊⠎⠞⠕⠗ </text>
<text transform="matrix(1 0 0 1 0 652.9629)" font-family="'AppleBraille'" font-size="30">⠠⠇⠠⠑⠠⠙⠼⠁ ⠤ ⠼⠑⠍⠍ ⠗⠑⠙ ⠠⠇⠠⠑⠠⠙</text>
</svg>
