<?xml version="1.0" encoding="utf-8"?>
<!-- Generator: Adobe Illustrator 21.1.0, SVG Export Plug-In . SVG Version: 6.00 Build 0)  -->
<svg version="1.1" xmlns="http://www.w3.org/2000/svg" xmlns:xlink="http://www.w3.org/1999/xlink" x="0px" y="0px"
	 viewBox="0 0 792 612" style="enable-background:new 0 0 792 612;" xml:space="preserve">
<style type="text/css">
	.st0{fill:none;stroke:#000000;stroke-width:2;stroke-linecap:round;stroke-linejoin:round;}
	.st1{fill:none;stroke:#787878;stroke-width:2;stroke-linecap:round;stroke-linejoin:round;}
	.st2{fill:#787878;}
	.st3{font-family:'ArialMT';}
	.st4{font-size:13.5424px;}
	.st5{fill:#FFFFFF;}
	.st6{fill:none;stroke:#000000;stroke-width:2;stroke-linecap:round;}
	.st7{fill:none;stroke:#787878;stroke-width:2;stroke-linecap:round;}
	.st8{fill:none;stroke:#000000;stroke-width:2;}
	.st9{fill:none;stroke:#555555;stroke-width:2;stroke-linecap:round;}
	.st10{fill:none;}
	.st11{fill:none;stroke:#404040;stroke-width:2;stroke-linecap:round;}
	.st12{font-size:10.533px;}
	.st13{font-size:15.0471px;}
	.st14{font-family:'Helvetica';}
	.st15{font-size:12px;}
	.st16{enable-background:new    ;}
	.st17{font-family:'AppleBraille';}
	.st18{font-size:29px;}
	.st19{font-family:'MyriadPro-Regular';}
</style>
<g id="Layer_1" xmlns:svg="http://www.w3.org/2000/svg">
	<g>
		<g transform="translate(28.8,7.0664)">
			<g transform="matrix(-1,0,0,1,0,0)">
				<g id="schematic">
					<polyline class="st0" points="-141.9,176.6 -130.8,176.6 -122.6,184.8 -112.3,184.8 -98.6,175.5 					"/>
					<polyline class="st0" points="-141.9,198 -128.1,198 -103.5,198 					"/>
					<polyline id="box_1_" class="st0" points="-98.6,222.2 -141.9,222.2 -141.9,157.2 -98.6,157.2 					"/>
					<polygon points="-133.4,180.2 -137.9,186.3 -134.8,186.9 -138.7,194.4 -131.2,185.4 -134.4,184.6 					"/>
					<g id="connector2terminal">
					</g>
					<g id="connector1terminal">
					</g>
					<g id="connector0terminal">
					</g>
					<line id="connector2pin" class="st1" x1="-141.9" y1="198" x2="-163.6" y2="198"/>
					<line id="connector0pin" class="st1" x1="-141.9" y1="176.8" x2="-163.6" y2="176.8"/>
					<line id="connector1pin" class="st1" x1="-141.9" y1="198" x2="-163.6" y2="198"/>
					<g transform="matrix(1, 0, 0, 1, 19.3843, 25.585)">
						<text transform="matrix(1 0 0 1 -125.7181 186.9756)" class="st2 st3 st4">-</text>
					</g>
					<g transform="matrix(1, 0, 0, 1, 18.5503, 12.1563)">
						<text transform="matrix(1 0 0 1 -127.3958 159.9901)" class="st2 st3 st4">+</text>
					</g>
				</g>
			</g>
		</g>
	</g>
	<rect x="355" y="161.3" class="st5" width="86.7" height="65"/>
	<line class="st6" x1="355" y1="226.3" x2="441.7" y2="226.3"/>
	<line class="st6" x1="441.7" y1="226.3" x2="441.7" y2="161.3"/>
	<line class="st6" x1="441.7" y1="161.3" x2="355" y2="161.3"/>
	<line class="st6" x1="355" y1="161.3" x2="355" y2="226.3"/>
	<line id="connector1pin_1_" class="st7" x1="333.4" y1="183" x2="355" y2="183"/>
	<line id="connector0pin_1_" class="st7" x1="398.4" y1="248" x2="398.4" y2="226.3"/>
	<line id="connector2pin_1_" class="st7" x1="463.4" y1="183" x2="441.7" y2="183"/>
	<line class="st6" x1="610.1" y1="241.1" x2="610.1" y2="246.5"/>
	<line class="st6" x1="610.1" y1="203.1" x2="620.9" y2="241.1"/>
	<circle class="st8" cx="610.1" cy="203.1" r="1.1"/>
	<circle class="st8" cx="610.1" cy="246.5" r="1.1"/>
	<line class="st6" x1="631.7" y1="246.5" x2="588.4" y2="246.5"/>
	<line class="st6" x1="631.7" y1="203.1" x2="588.4" y2="203.1"/>
	<line id="connector3pin" class="st9" x1="588.4" y1="182.4" x2="588.4" y2="203.1"/>
	<line id="connector2pin_2_" class="st9" x1="631.7" y1="182.4" x2="631.7" y2="203.1"/>
	<line id="connector1pin_2_" class="st9" x1="588.4" y1="267.1" x2="588.4" y2="246.5"/>
	<line id="connector0pin_2_" class="st9" x1="631.7" y1="267.1" x2="631.7" y2="246.5"/>
	<line class="st6" x1="631.8" y1="366.5" x2="623.2" y2="363.3"/>
	<line class="st6" x1="623.2" y1="363.3" x2="640.5" y2="357.9"/>
	<line class="st6" x1="640.5" y1="357.9" x2="623.2" y2="352.5"/>
	<line class="st6" x1="623.2" y1="352.5" x2="640.5" y2="347"/>
	<line class="st6" x1="640.5" y1="347" x2="623.2" y2="341.6"/>
	<line class="st6" x1="623.2" y1="341.6" x2="640.5" y2="336.2"/>
	<line class="st6" x1="640.5" y1="336.2" x2="623.2" y2="330.8"/>
	<line class="st6" x1="623.2" y1="330.8" x2="640.5" y2="325.4"/>
	<line class="st6" x1="640.5" y1="325.4" x2="631.8" y2="323.2"/>
	<line id="connector1pin_3_" class="st7" x1="631.8" y1="301.5" x2="631.8" y2="323.2"/>
	<line id="connector0pin_3_" class="st7" x1="631.8" y1="388.2" x2="631.8" y2="366.5"/>
	<path d="M479.5,469.5v-10.8c0-0.6,0.5-1.1,1.1-1.1c0.6,0,1.1,0.5,1.1,1.1v10.8c0,0.6-0.5,1.1-1.1,1.1
		C480,470.6,479.5,470.1,479.5,469.5z"/>
	<path d="M479.5,458.7v-10.8c0-0.6,0.5-1.1,1.1-1.1c0.6,0,1.1,0.5,1.1,1.1v10.8c0,0.6-0.5,1.1-1.1,1.1
		C480,459.8,479.5,459.3,479.5,458.7z"/>
	<polygon class="st5" points="480.6,458.7 502.3,447.9 502.3,458.7 502.3,469.5 	"/>
	<path d="M478.2,458.7l25.1-12.5v25.1L478.2,458.7z M501.2,449.6l-18.3,9.1l18.3,9.1V449.6z"/>
	<path d="M479.9,458.7c0-0.4,0.3-0.7,0.7-0.7h21.7c0.4,0,0.7,0.3,0.7,0.7c0,0.4-0.3,0.7-0.7,0.7h-21.7
		C480.2,459.4,479.9,459.1,479.9,458.7z"/>
	<path d="M488,434.3c0-0.2,0.1-0.3,0.2-0.5c0.3-0.3,0.7-0.3,1,0l7,7c0.3,0.3,0.3,0.7,0,1c-0.3,0.3-0.7,0.3-1,0l-7-7
		C488.1,434.7,488,434.5,488,434.3z"/>
	<path d="M478.3,435.4c0-0.2,0.1-0.3,0.2-0.5c0.3-0.3,0.7-0.3,1,0l7,7c0.3,0.3,0.3,0.7,0,1c-0.3,0.3-0.7,0.3-1,0l-7-7
		C478.4,435.8,478.3,435.6,478.3,435.4z"/>
	<path class="st2" d="M457.9,458.7c0-0.6,0.5-1.1,1.1-1.1h21.7c0.6,0,1.1,0.5,1.1,1.1c0,0.6-0.5,1.1-1.1,1.1h-21.7
		C458.3,459.7,457.9,459.3,457.9,458.7z"/>
	<rect x="458.9" y="458.7" class="st10" width="0" height="0"/>
	<path class="st2" d="M501.2,458.7c0-0.6,0.5-1.1,1.1-1.1h21.7c0.6,0,1.1,0.5,1.1,1.1c0,0.6-0.5,1.1-1.1,1.1h-21.7
		C501.7,459.7,501.2,459.3,501.2,458.7z"/>
	<polygon class="st10" points="523.9,458.7 523.9,458.7 523.9,458.7 	"/>
	<path d="M483.8,429.4l7.6,3.2l-4.3,4.3L483.8,429.4z"/>
	<path d="M474.1,430.5l7.6,3.3l-4.3,4.3L474.1,430.5z"/>
	<path d="M479.5,398.7v-10.8c0-0.6,0.5-1.1,1.1-1.1c0.6,0,1.1,0.5,1.1,1.1v10.8c0,0.6-0.5,1.1-1.1,1.1
		C480,399.8,479.5,399.3,479.5,398.7z"/>
	<path d="M479.5,387.9v-10.8c0-0.6,0.5-1.1,1.1-1.1c0.6,0,1.1,0.5,1.1,1.1v10.8c0,0.6-0.5,1.1-1.1,1.1
		C480,389,479.5,388.5,479.5,387.9z"/>
	<polygon class="st5" points="480.6,387.9 502.3,377.1 502.3,387.9 502.3,398.7 	"/>
	<path d="M478.2,387.9l25.1-12.5v25.1L478.2,387.9z M501.2,378.8l-18.3,9.1l18.3,9.1V378.8z"/>
	<path d="M479.9,387.9c0-0.4,0.3-0.7,0.7-0.7h21.7c0.4,0,0.7,0.3,0.7,0.7c0,0.4-0.3,0.7-0.7,0.7h-21.7
		C480.2,388.6,479.9,388.3,479.9,387.9z"/>
	<path d="M488,363.5c0-0.2,0.1-0.3,0.2-0.5c0.3-0.3,0.7-0.3,1,0l7,7c0.3,0.3,0.3,0.7,0,1c-0.3,0.3-0.7,0.3-1,0l-7-7
		C488.1,363.9,488,363.7,488,363.5z"/>
	<path d="M478.3,364.6c0-0.2,0.1-0.3,0.2-0.5c0.3-0.3,0.7-0.3,1,0l7,7c0.3,0.3,0.3,0.7,0,1c-0.3,0.3-0.7,0.3-1,0l-7-7
		C478.4,365,478.3,364.8,478.3,364.6z"/>
	<path class="st2" d="M457.9,387.9c0-0.6,0.5-1.1,1.1-1.1h21.7c0.6,0,1.1,0.5,1.1,1.1s-0.5,1.1-1.1,1.1h-21.7
		C458.3,389,457.9,388.5,457.9,387.9z"/>
	<rect x="458.9" y="387.9" class="st10" width="0" height="0"/>
	<path class="st2" d="M501.2,387.9c0-0.6,0.5-1.1,1.1-1.1h21.7c0.6,0,1.1,0.5,1.1,1.1s-0.5,1.1-1.1,1.1h-21.7
		C501.7,389,501.2,388.5,501.2,387.9z"/>
	<polygon class="st10" points="523.9,387.9 523.9,387.9 523.9,387.9 	"/>
	<path d="M483.8,358.7l7.6,3.2l-4.3,4.3L483.8,358.7z"/>
	<path d="M474.1,359.7l7.6,3.3l-4.3,4.3L474.1,359.7z"/>
	<g>
		<g transform="translate(89.068,101.205)">
			<g id="schematic_6_">
				<path id="connector0pin_6_" class="st7" d="M307.4,347.5v-21.7"/>
				<g id="connector0terminal_6_">
				</g>
				<path id="path4098" class="st6" d="M287.3,347.9h40.3"/>
				<path id="path4100" class="st6" d="M294,356.2h26.9"/>
				<path id="path4102" class="st6" d="M314.2,364.4h-13.4"/>
			</g>
		</g>
	</g>
	<path d="M479.5,333.9v-10.8c0-0.6,0.5-1.1,1.1-1.1c0.6,0,1.1,0.5,1.1,1.1v10.8c0,0.6-0.5,1.1-1.1,1.1
		C480,334.9,479.5,334.5,479.5,333.9z"/>
	<path d="M479.5,323.1v-10.8c0-0.6,0.5-1.1,1.1-1.1c0.6,0,1.1,0.5,1.1,1.1v10.8c0,0.6-0.5,1.1-1.1,1.1
		C480,324.1,479.5,323.6,479.5,323.1z"/>
	<polygon class="st5" points="480.6,323.1 502.3,312.2 502.3,323.1 502.3,333.9 	"/>
	<path d="M478.2,323.1l25.1-12.5v25.1L478.2,323.1z M501.2,313.9l-18.3,9.1l18.3,9.1V313.9z"/>
	<path d="M479.9,323.1c0-0.4,0.3-0.7,0.7-0.7h21.7c0.4,0,0.7,0.3,0.7,0.7c0,0.4-0.3,0.7-0.7,0.7h-21.7
		C480.2,323.7,479.9,323.4,479.9,323.1z"/>
	<path d="M488,298.7c0-0.2,0.1-0.3,0.2-0.5c0.3-0.3,0.7-0.3,1,0l7,7c0.3,0.3,0.3,0.7,0,1c-0.3,0.3-0.7,0.3-1,0l-7-7
		C488.1,299,488,298.9,488,298.7z"/>
	<path d="M478.3,299.8c0-0.2,0.1-0.3,0.2-0.5c0.3-0.3,0.7-0.3,1,0l7,7c0.3,0.3,0.3,0.7,0,1c-0.3,0.3-0.7,0.3-1,0l-7-7
		C478.4,300.1,478.3,299.9,478.3,299.8z"/>
	<path class="st2" d="M457.9,323.1c0-0.6,0.5-1.1,1.1-1.1h21.7c0.6,0,1.1,0.5,1.1,1.1s-0.5,1.1-1.1,1.1h-21.7
		C458.3,324.1,457.9,323.6,457.9,323.1z"/>
	<rect x="458.9" y="323.1" class="st10" width="0" height="0"/>
	<path class="st2" d="M501.2,323.1c0-0.6,0.5-1.1,1.1-1.1h21.7c0.6,0,1.1,0.5,1.1,1.1s-0.5,1.1-1.1,1.1h-21.7
		C501.7,324.1,501.2,323.6,501.2,323.1z"/>
	<polygon class="st10" points="523.9,323.1 523.9,323.1 523.9,323.1 	"/>
	<path d="M483.8,293.8l7.6,3.2l-4.3,4.3L483.8,293.8z"/>
	<path d="M474.1,294.9l7.6,3.3l-4.3,4.3L474.1,294.9z"/>
	<g>
		<line class="st11" x1="333.4" y1="183" x2="191.5" y2="183.8"/>
	</g>
	<g>
		<line class="st11" x1="463.4" y1="183" x2="588.4" y2="182.7"/>
	</g>
	<g>
		<line class="st11" x1="631.7" y1="266.5" x2="631.8" y2="301.5"/>
	</g>
	<g>
		<line class="st11" x1="191.6" y1="248" x2="398.4" y2="248"/>
	</g>
	<circle cx="398.4" cy="248" r="4.3"/>
	<g>
		<line class="st11" x1="191.6" y1="205.1" x2="191.6" y2="248"/>
	</g>
	<g>
		<line class="st11" x1="396.5" y1="427.4" x2="396.9" y2="388.5"/>
	</g>
	<g>
		<line class="st11" x1="397.5" y1="245.8" x2="396.9" y2="388.5"/>
	</g>
	<path d="M396.9,384.2c2.4,0,4.3,1.9,4.3,4.3c0,2.4-1.9,4.3-4.3,4.3c-2.4,0-4.3-1.9-4.3-4.3C392.6,386.1,394.5,384.2,396.9,384.2z"
		/>
	<g>
		<line class="st11" x1="398.4" y1="248" x2="397.5" y2="245.8"/>
	</g>
	<circle cx="398.4" cy="248" r="4.3"/>
	<line class="st11" x1="632.7" y1="387.9" x2="523.9" y2="387.9"/>
	<path d="M523.9,383.6c2.4,0,4.3,1.9,4.3,4.3c0,2.4-1.9,4.3-4.3,4.3c-2.4,0-4.3-1.9-4.3-4.3C519.6,385.5,521.5,383.6,523.9,383.6z"
		/>
	<g>
		<line class="st11" x1="631.8" y1="388.2" x2="632.7" y2="387.9"/>
	</g>
	<line class="st11" x1="524.8" y1="325.2" x2="523.9" y2="387.9"/>
	<path d="M523.9,383.6c2.4,0,4.3,1.9,4.3,4.3c0,2.4-1.9,4.3-4.3,4.3c-2.4,0-4.3-1.9-4.3-4.3C519.6,385.5,521.5,383.6,523.9,383.6z"
		/>
	<line class="st11" x1="523.9" y1="323.1" x2="524.8" y2="325.2"/>
	<line class="st11" x1="523.5" y1="458" x2="523.9" y2="387.9"/>
	<path d="M523.9,383.6c2.4,0,4.3,1.9,4.3,4.3c0,2.4-1.9,4.3-4.3,4.3c-2.4,0-4.3-1.9-4.3-4.3C519.6,385.5,521.5,383.6,523.9,383.6z"
		/>
	<line class="st11" x1="523.9" y1="458.7" x2="523.5" y2="458"/>
	<line class="st11" x1="458.9" y1="387.9" x2="458.9" y2="323.1"/>
	<circle cx="458.9" cy="387.9" r="4.3"/>
	<line class="st11" x1="396.9" y1="388.5" x2="458.9" y2="387.9"/>
	<circle cx="458.9" cy="387.9" r="4.3"/>
	<line class="st11" x1="458.9" y1="387.9" x2="458.9" y2="458.7"/>
	<circle cx="458.9" cy="387.9" r="4.3"/>
</g>
<g id="plaintext">
	<text transform="matrix(1 0 0 1 363.35 185.0645)" class="st2 st3 st12">IN</text>
	<g transform="rotate(270)">
		<g>
			<text transform="matrix(1 0 0 1 -219.9765 402.4711)" class="st2 st3 st12">GND</text>
		</g>
	</g>
	<text transform="matrix(1 0 0 1 415.1488 185.0645)" class="st2 st3 st12">OUT</text>
	<g id="partLabel">
		<g transform="translate(0.4,0)">
			<g id="schematicLabel">
				<text transform="matrix(1 0 0 1 109.6001 122.2513)" class="st3 st13">PP1</text>
			</g>
		</g>
	</g>
	<g id="partLabel_2_">
		<g transform="translate(0.4,0)">
			<g id="schematicLabel_2_">
				<text transform="matrix(1 0 0 1 43.886 24.0789)" class="st3 st13">3 LEDs in parallel</text>
			</g>
		</g>
	</g>
	<g id="partLabel_1_">
		<g transform="translate(92.2888,5.7376)">
			<g id="schematicLabel_1_">
				<text transform="matrix(1 0 0 1 294.2439 101.6839)" class="st3 st13">IC1</text>
			</g>
		</g>
	</g>
	<g>
		<text transform="matrix(1 0 0 1 709.6468 314.9863)" class="st3 st13">R1</text>
		<text transform="matrix(1 0 0 1 709.6468 330.0331)" class="st3 st13">220Ω</text>
	</g>
	<text transform="matrix(1 0 0 1 471.9593 487.3769)" class="st3 st13">LED1</text>
	<text transform="matrix(1 0 0 1 472.4056 419.7929)" class="st3 st13">LED2</text>
	<g id="partLabel_5_">
		<g transform="translate(183.412,19.3896)">
			<g id="schematicLabel_5_">
				<text transform="matrix(1 0 0 1 477.3491 171.6124)" class="st3 st13">S1</text>
			</g>
		</g>
	</g>
	<text transform="matrix(1 0 0 1 471.1888 350.121)" class="st3 st13">LED3</text>
	<text transform="matrix(1 0 0 1 627.5145 516.3179)" class="st14 st15">Key:</text>
	<text transform="matrix(1 0 0 1 627.5145 533.1179)" class="st14 st15">PP1 - DC power plug</text>
	<text transform="matrix(1 0 0 1 627.5145 549.9179)" class="st14 st15">IC1- 7805 5-volt regulator</text>
	<text transform="matrix(1 0 0 1 627.5145 566.7179)" class="st16"><tspan x="0" y="0" class="st14 st15">R1 - 220-ohm resistor</tspan><tspan x="0" y="14.4" class="st14 st15">LED1,2,3 - 5mm red LEDs</tspan></text>
</g>
<g id="braille">
	<text transform="matrix(1 0 0 1 40.1189 79.0478)" class="st17 st18">⠼⠉ ⠠⠇⠠⠑⠠⠙⠎ ⠊⠝ ⠏⠁⠗⠁⠇⠇⠑⠇</text>
	<text transform="matrix(1 0 0 1 103.2938 157.1949)" class="st17 st18">⠠⠏⠠⠏⠁</text>
	<text transform="matrix(1 0 0 1 352.0301 156.1949)" class="st17 st18">⠠⠊⠠⠉⠁</text>
	<text transform="matrix(1 0 0 1 276.6647 208.6586)" class="st17 st18">⠠⠊⠠⠝</text>
	<text transform="matrix(1 0 0 1 449.1409 209.6587)" class="st17 st18">⠕⠥⠞</text>
	<text transform="matrix(1 0 0 1 403.3779 264.7666)" class="st17 st18">⠠⠛⠠⠝⠠⠙</text>
	<text transform="matrix(1 0 0 1 635.1509 229.284)" class="st17 st18">⠠⠎⠁</text>
	<text transform="matrix(1 0 0 1 638.77 334.893)" class="st17 st18">⠠⠗⠁</text>
	<text transform="matrix(1 0 0 1 638.77 369.693)" class="st17 st18">⠼⠃⠃⠚ ⠕⠓⠍</text>
	<text transform="matrix(1 0 0 1 533.2568 423.5584)" class="st16"><tspan x="0" y="0" class="st17 st18">⠠⠇⠠⠑⠠⠙⠁</tspan><tspan x="0" y="34.8" class="st17 st18">⠠⠇⠠⠑⠠⠙⠃</tspan><tspan x="0" y="69.6" class="st17 st18">⠠⠇⠠⠑⠠⠙⠉</tspan></text>
	<text transform="matrix(1 0 0 1 7.261 463.5175)" class="st16"><tspan x="0" y="0" class="st17 st18">⠠⠅⠑⠽</tspan><tspan x="79.3" y="0" class="st19 st18">:</tspan><tspan x="0" y="34.8" class="st17 st18">⠠⠏⠠⠏⠁ ⠤ ⠠⠙⠠⠉ ⠏⠕⠺⠑⠗ ⠏⠇⠥⠛</tspan><tspan x="0" y="69.6" class="st17 st18">⠠⠊⠠⠉⠁⠤ ⠼⠛⠓⠚⠑ ⠑⠤⠧⠕⠇⠞ ⠗⠑⠛⠥⠇⠁⠞⠕⠗</tspan><tspan x="0" y="104.4" class="st17 st18">⠠⠗⠁ ⠤ ⠃⠃⠚⠤⠕⠓⠍ ⠗⠑⠎⠊⠎⠞⠕⠗</tspan><tspan x="0" y="139.2" class="st17 st18">⠠⠇⠠⠑⠠⠙⠁⠂⠃⠂⠉ ⠤ ⠑⠍⠍ ⠗⠑⠙ ⠠⠇⠠⠑⠠⠙⠎</tspan></text>
</g>
</svg>
