<?xml version="1.0" encoding="utf-8"?>
<!-- Generator: Adobe Illustrator 21.1.0, SVG Export Plug-In . SVG Version: 6.00 Build 0)  -->
<svg version="1.1" id="Layer_1" xmlns="http://www.w3.org/2000/svg" xmlns:xlink="http://www.w3.org/1999/xlink" x="0px" y="0px"
	 viewBox="0 0 792 612" style="enable-background:new 0 0 792 612;" xml:space="preserve">
<style type="text/css">
	.st0{fill:none;stroke:#000000;stroke-width:2;stroke-linecap:round;stroke-miterlimit:10;}
	.st1{fill:none;stroke:#000000;stroke-width:2;stroke-linecap:round;}
	.st2{fill:#020202;stroke:#000000;stroke-miterlimit:10;}
	.st3{fill:#FFFFFF;stroke:#000000;stroke-miterlimit:10;}
	.st4{fill:#7A7A7A;stroke:#000000;stroke-miterlimit:10;}
	.st5{fill:none;stroke:#000000;stroke-miterlimit:10;}
	.st6{fill:#010101;stroke:#000000;stroke-miterlimit:10;}
	.st7{fill:none;stroke:#000000;stroke-width:4;stroke-miterlimit:10;}
	.st8{fill:#020202;}
	.st9{font-family:'ArialMT';}
	.st10{font-size:18px;}
	.st11{fill:none;stroke:#DDDDDD;}
	.st12{font-family:'MyriadPro-Regular';}
	.st13{font-family:'AppleBraille';}
	.st14{font-size:30px;}
	.st15{fill:#010101;}
	.st16{enable-background:new    ;}
</style>
<line id="connector0pin_10_" class="st0" x1="518.2" y1="153.8" x2="518.2" y2="167.3"/>
<line id="connector0pin_3_" class="st0" x1="518.3" y1="223.5" x2="518.3" y2="237"/>
<path class="st1" d="M505.6,153.4h25.2"/>
<path class="st2" d="M527.4,205.1h-9.2c-0.5,0-0.9-0.4-0.9-0.9s0.4-0.9,0.9-0.9h9.2c0.5,0,0.9,0.4,0.9,0.9S527.9,205.1,527.4,205.1z
	"/>
<path class="st2" d="M518.1,205.1h-9.2c-0.5,0-0.9-0.4-0.9-0.9s0.4-0.9,0.9-0.9h9.2c0.5,0,0.9,0.4,0.9,0.9S518.6,205.1,518.1,205.1z
	"/>
<polygon class="st3" points="518.1,204.2 508.9,185.7 518.1,185.7 527.4,185.7 "/>
<path class="st2" d="M518.1,206.2l-10.7-21.4h21.4L518.1,206.2z M510.4,186.6l7.8,15.6l7.8-15.6
	C525.9,186.6,510.4,186.6,510.4,186.6z"/>
<path class="st2" d="M518.1,204.7c-0.3,0-0.6-0.3-0.6-0.6v-18.4c0-0.3,0.3-0.6,0.6-0.6s0.6,0.3,0.6,0.6v18.4
	C518.7,204.5,518.5,204.7,518.1,204.7z"/>
<path class="st2" d="M497.4,197.8c-0.1,0-0.3-0.1-0.4-0.2c-0.2-0.2-0.2-0.6,0-0.8l6-6c0.2-0.2,0.6-0.2,0.8,0c0.2,0.2,0.2,0.6,0,0.8
	l-6,6C497.7,197.8,497.5,197.8,497.4,197.8z"/>
<path class="st2" d="M498.3,206.1c-0.1,0-0.3-0.1-0.4-0.2c-0.2-0.2-0.2-0.6,0-0.8l6-6c0.2-0.2,0.6-0.2,0.8,0c0.2,0.2,0.2,0.6,0,0.8
	l-6,6C498.6,206.1,498.5,206.1,498.3,206.1z"/>
<path class="st4" d="M518.1,223.5c-0.5,0-0.9-0.4-0.9-0.9v-18.5c0-0.5,0.4-0.9,0.9-0.9s0.9,0.4,0.9,0.9v18.4
	C519,223.1,518.6,223.5,518.1,223.5z"/>
<polygon class="st5" points="518.1,222.6 518.1,222.6 518.1,222.6 "/>
<path class="st4" d="M518.1,186.6c-0.5,0-0.9-0.4-0.9-0.9v-18.4c0-0.5,0.4-0.9,0.9-0.9s0.9,0.4,0.9,0.9v18.5
	C519,186.2,518.6,186.6,518.1,186.6z"/>
<path class="st5" d="M518.1,167.3L518.1,167.3L518.1,167.3z"/>
<path class="st2" d="M493.2,201.4l2.8-6.5l3.7,3.7L493.2,201.4z"/>
<path class="st2" d="M494.2,209.7l2.8-6.5l3.7,3.7L494.2,209.7z"/>
<polyline class="st1" points="503.6,237.7 500.9,237.7 496.8,243.1 490.1,231 483.4,243.1 476.6,231 469.9,243.1 463.2,231 
	456.4,243.1 452.4,237.7 449.7,237.7 "/>
<line id="connector1pin_1_" class="st1" x1="517" y1="237.7" x2="503.6" y2="237.7"/>
<line id="connector0pin_2_" class="st1" x1="436.3" y1="237.7" x2="449.7" y2="237.7"/>
<path id="connector0pin_1_" class="st1" d="M518.3,326v-13.5"/>
<path id="path4098_1_" class="st1" d="M505.8,326.3h25.1"/>
<path id="path4100_1_" class="st1" d="M510,331.4h16.7"/>
<path id="path4102_1_" class="st1" d="M522.5,336.5h-8.3"/>
<line class="st1" x1="518.3" y1="264.3" x2="518.3" y2="269.6"/>
<line class="st1" x1="518.3" y1="285.9" x2="518.3" y2="280.6"/>
<rect x="497" y="277.9" class="st6" width="42.6" height="2.7"/>
<rect x="497" y="269.6" class="st6" width="42.6" height="2.7"/>
<line id="connector1pin_7_" class="st1" x1="518.3" y1="237.7" x2="518.3" y2="264.3"/>
<line id="connector0pin_7_" class="st1" x1="518.3" y1="312.6" x2="518.3" y2="285.9"/>
<circle class="st2" cx="517.6" cy="237" r="3.8"/>
<line class="st7" x1="22.7" y1="0" x2="0.5" y2="22.2"/>
<line class="st7" x1="30.6" y1="0" x2="0" y2="30.6"/>
<text transform="matrix(1 0 0 1 506.5744 103.8733)" class="st8 st9 st10">+V</text>
<text id="label_9_" transform="matrix(1 0 0 1 506.5744 103.8733)" class="st11 st9 st10">+V</text>
<text transform="matrix(1 0 0 1 117.3835 165.9416)" class="st12 st10">PWM output</text>
<text transform="matrix(1 0 0 1 117.3835 165.9416)" class="st11 st12 st10">PWM output</text>
<text transform="matrix(1 0 0 1 56.3835 187.5416)" class="st12 st10">from microcontroller</text>
<text transform="matrix(1 0 0 1 56.3835 187.5416)" class="st11 st12 st10">from microcontroller</text>
<text transform="matrix(1 0 0 1 359.3503 340.9416)" class="st12 st10">Key:</text>
<text transform="matrix(1 0 0 1 359.3503 340.9416)" class="st11 st12 st10">Key:</text>
<text transform="matrix(1 0 0 1 359.3503 362.5416)" class="st12 st10">R1 - 1.5kΩ</text>
<text transform="matrix(1 0 0 1 359.3503 362.5416)" class="st11 st12 st10">R1 - 1.5kΩ</text>
<text transform="matrix(1 0 0 1 359.3503 384.1416)" class="st12 st10">C10.1uF</text>
<text transform="matrix(1 0 0 1 359.3503 384.1416)" class="st11 st12 st10">C10.1uF</text>
<text transform="matrix(1 0 0 1 359.3503 405.7416)" class="st12 st10">These values will cut off frequencies above 1061 HZ</text>
<text transform="matrix(1 0 0 1 359.3503 405.7416)" class="st11 st12 st10">These values will cut off frequencies above 1061 HZ</text>
<text transform="matrix(1 0 0 1 359.3503 427.3416)" class="st12 st10">Change values of R1 and C1 for other frequencies</text>
<text transform="matrix(1 0 0 1 359.3503 427.3416)" class="st11 st12 st10">Change values of R1 and C1 for other frequencies</text>
<text transform="matrix(1 0 0 1 435.5744 171.8733)" class="st8 st9 st10">R1</text>
<text id="label_8_" transform="matrix(1 0 0 1 435.5744 171.8733)" class="st11 st9 st10">R1</text>
<text transform="matrix(1 0 0 1 570.595 231.1884)" class="st8 st9 st10">LED1</text>
<text id="label_7_" transform="matrix(1 0 0 1 570.595 231.1884)" class="st11 st9 st10">LED1</text>
<text transform="matrix(1 0 0 1 131.595 78.1885)" class="st8 st9 st10">Low-pass filter</text>
<text id="label_6_" transform="matrix(1 0 0 1 131.595 78.1885)" class="st11 st9 st10">Low-pass filter</text>
<text transform="matrix(1 0 0 1 585.595 312.933)" class="st8 st9 st10">C1</text>
<text id="label_5_" transform="matrix(1 0 0 1 585.595 312.933)" class="st11 st9 st10">C1</text>
<text id="label" transform="matrix(1 0 0 1 475.5744 146.8733)" class="st8 st13 st14">⠐⠖⠠⠧</text>
<text transform="matrix(1 0 0 1 155.2566 208.9416)" class="st15 st13 st14">⠠⠠⠏⠺⠍⠀⠕⠥⠞⠏⠥⠞</text>
<text transform="matrix(1 0 0 1 319.3566 244.9416)" class="st15 st13 st14">⠋⠗⠕⠍</text>
<text transform="matrix(1 0 0 1 73.2566 280.9416)" class="st15 st13 st14">⠀⠍⠊⠉⠗⠕⠉⠕⠝⠞⠗⠕⠇⠇⠑⠗</text>
<text transform="matrix(1 0 0 1 58.3503 353.9416)" class="st15 st13 st14">⠠⠅⠑⠽⠒</text>
<text transform="matrix(1 0 0 1 58.3503 389.9416)" class="st15 st13 st14">⠠⠗⠼⠁⠀⠤⠀⠼⠁⠲⠑⠅⠨⠺</text>
<text transform="matrix(1 0 0 1 58.3503 425.9416)" class="st15 st13 st14">⠠⠉⠼⠁⠚⠲⠁⠥⠠⠋</text>
<text id="label_1_" transform="matrix(1 0 0 1 408.5744 214.8733)" class="st8 st13 st14">⠠⠗⠼⠁</text>
<text id="label_2_" transform="matrix(1 0 0 1 549.595 204.1884)" class="st8 st13 st14">⠠⠠⠇⠑⠙⠠⠄⠼⠁</text>
<text id="label_4_" transform="matrix(1 0 0 1 90.595 41.1885)" class="st8 st13 st14">⠠⠇⠕⠺⠤⠏⠁⠎⠎⠀⠋⠊⠇⠞⠑⠗</text>
<text id="label_10_" transform="matrix(1 0 0 1 70.5998 474.1885)" class="st16"><tspan x="0" y="0" class="st8 st13 st14">⠠⠘⠮⠀⠧⠁⠇⠥⠑⠎⠀⠺⠀⠉⠥⠞⠀⠷⠋⠀⠋⠗⠑⠟⠥⠢⠉⠊⠑⠎⠀</tspan><tspan x="0" y="36" class="st8 st13 st14">⠁⠃⠧⠀⠼⠁⠚⠋⠁⠀⠠⠠⠓⠵</tspan><tspan x="0" y="72" class="st8 st13 st14">⠠⠡⠁⠝⠛⠑⠀⠧⠁⠇⠥⠑⠎⠀⠷⠀⠠⠗⠼⠁⠀⠯⠀⠠⠉⠼⠁⠀</tspan><tspan x="0" y="108" class="st8 st13 st14">⠿⠀⠕⠮⠗⠀⠋⠗⠑⠟⠥⠑⠝⠉⠊⠑⠎</tspan></text>
<text id="label_3_" transform="matrix(1 0 0 1 564.595 285.933)" class="st8 st13 st14">⠠⠉⠼⠁</text>
</svg>
