<?xml version="1.0" encoding="utf-8"?>
<!-- Generator: Adobe Illustrator 21.1.0, SVG Export Plug-In . SVG Version: 6.00 Build 0)  -->
<svg version="1.1" xmlns="http://www.w3.org/2000/svg" xmlns:xlink="http://www.w3.org/1999/xlink" x="0px" y="0px"
	 viewBox="0 0 792 612" style="enable-background:new 0 0 792 612;" xml:space="preserve">
<style type="text/css">
	.st0{fill:none;stroke:#000000;stroke-width:2;stroke-linecap:round;stroke-linejoin:round;}
	.st1{fill:none;stroke:#787878;stroke-width:2;stroke-linecap:round;stroke-linejoin:round;}
	.st2{fill:#787878;}
	.st3{font-family:'ArialMT';}
	.st4{font-size:13.5424px;}
	.st5{fill:#FFFFFF;}
	.st6{fill:none;stroke:#000000;stroke-width:2;stroke-linecap:round;}
	.st7{fill:none;stroke:#787878;stroke-width:2;stroke-linecap:round;}
	.st8{fill:none;stroke:#000000;stroke-width:2;}
	.st9{fill:none;stroke:#555555;stroke-width:2;stroke-linecap:round;}
	.st10{fill:none;}
	.st11{fill:none;stroke:#404040;stroke-width:2;stroke-linecap:round;}
	.st12{font-size:10.533px;}
	.st13{font-size:15.0471px;}
	.st14{font-family:'Helvetica';}
	.st15{font-size:12px;}
	.st16{enable-background:new    ;}
	.st17{font-family:'AppleBraille';}
	.st18{font-size:29px;}
	.st19{font-family:'MyriadPro-Regular';}
</style>
<g id="Layer_1" xmlns:svg="http://www.w3.org/2000/svg">
	<polyline class="st0" points="159.1,169.7 148,169.7 139.8,177.9 129.5,177.9 115.8,168.6 	"/>
	<polyline class="st0" points="159.1,191.1 145.3,191.1 120.7,191.1 	"/>
	<polyline id="box_1_" class="st0" points="115.8,215.3 159.1,215.3 159.1,150.3 115.8,150.3 	"/>
	<polygon points="150.6,173.3 155.1,179.4 152,180 155.9,187.5 148.4,178.5 151.6,177.7 	"/>
	<line id="connector2pin" class="st1" x1="159.1" y1="191.1" x2="180.8" y2="191.1"/>
	<line id="connector0pin" class="st1" x1="159.1" y1="169.9" x2="180.8" y2="169.9"/>
	<line id="connector1pin" class="st1" x1="159.1" y1="191.1" x2="180.8" y2="191.1"/>
	<text transform="matrix(-1 0 0 1 123.5173 205.6664)" class="st2 st3 st4">-</text>
	<text transform="matrix(-1 0 0 1 126.029 165.2523)" class="st2 st3 st4">+</text>
	<rect x="343.4" y="147.3" class="st5" width="86.7" height="65"/>
	<line class="st6" x1="343.4" y1="212.3" x2="430.1" y2="212.3"/>
	<line class="st6" x1="430.1" y1="212.3" x2="430.1" y2="147.3"/>
	<line class="st6" x1="430.1" y1="147.3" x2="343.4" y2="147.3"/>
	<line class="st6" x1="343.4" y1="147.3" x2="343.4" y2="212.3"/>
	<line id="connector1pin_1_" class="st7" x1="321.7" y1="169" x2="343.4" y2="169"/>
	<line id="connector0pin_1_" class="st7" x1="386.8" y1="234" x2="386.8" y2="212.3"/>
	<line id="connector2pin_1_" class="st7" x1="451.8" y1="169" x2="430.1" y2="169"/>
	<line class="st6" x1="598.5" y1="227.1" x2="598.5" y2="232.5"/>
	<line class="st6" x1="598.5" y1="189.2" x2="609.3" y2="227.1"/>
	<circle class="st8" cx="598.5" cy="189.2" r="1.1"/>
	<circle class="st8" cx="598.5" cy="232.5" r="1.1"/>
	<line class="st6" x1="620.1" y1="232.5" x2="576.8" y2="232.5"/>
	<line class="st6" x1="620.1" y1="189.2" x2="576.8" y2="189.2"/>
	<line id="connector3pin" class="st9" x1="576.8" y1="168.5" x2="576.8" y2="189.2"/>
	<line id="connector2pin_2_" class="st9" x1="620.1" y1="168.5" x2="620.1" y2="189.2"/>
	<line id="connector1pin_2_" class="st9" x1="576.8" y1="253.1" x2="576.8" y2="232.5"/>
	<line id="connector0pin_2_" class="st9" x1="620.1" y1="253.1" x2="620.1" y2="232.5"/>
	<line class="st6" x1="620.2" y1="352.6" x2="611.6" y2="349.3"/>
	<line class="st6" x1="611.6" y1="349.3" x2="628.9" y2="343.9"/>
	<line class="st6" x1="628.9" y1="343.9" x2="611.6" y2="338.5"/>
	<line class="st6" x1="611.6" y1="338.5" x2="628.9" y2="333.1"/>
	<line class="st6" x1="628.9" y1="333.1" x2="611.6" y2="327.7"/>
	<line class="st6" x1="611.6" y1="327.7" x2="628.9" y2="322.3"/>
	<line class="st6" x1="628.9" y1="322.3" x2="611.6" y2="316.8"/>
	<line class="st6" x1="611.6" y1="316.8" x2="628.9" y2="311.4"/>
	<line class="st6" x1="628.9" y1="311.4" x2="620.2" y2="309.3"/>
	<line id="connector1pin_3_" class="st7" x1="620.2" y1="287.6" x2="620.2" y2="309.3"/>
	<line id="connector0pin_3_" class="st7" x1="620.2" y1="374.3" x2="620.2" y2="352.6"/>
	<path d="M467.9,455.6v-10.8c0-0.6,0.5-1.1,1.1-1.1c0.6,0,1.1,0.5,1.1,1.1v10.8c0,0.6-0.5,1.1-1.1,1.1
		C468.4,456.6,467.9,456.2,467.9,455.6z"/>
	<path d="M467.9,444.7v-10.8c0-0.6,0.5-1.1,1.1-1.1c0.6,0,1.1,0.5,1.1,1.1v10.8c0,0.6-0.5,1.1-1.1,1.1
		C468.4,445.8,467.9,445.3,467.9,444.7z"/>
	<polygon class="st5" points="469,444.7 490.6,433.9 490.6,444.7 490.6,455.6 	"/>
	<path d="M466.6,444.7l25.1-12.5v25.1L466.6,444.7z M489.6,435.6l-18.3,9.1l18.3,9.1V435.6z"/>
	<path d="M468.3,444.7c0-0.4,0.3-0.7,0.7-0.7h21.7c0.4,0,0.7,0.3,0.7,0.7c0,0.4-0.3,0.7-0.7,0.7H469
		C468.6,445.4,468.3,445.1,468.3,444.7z"/>
	<path d="M476.4,420.4c0-0.2,0.1-0.3,0.2-0.5c0.3-0.3,0.7-0.3,1,0l7,7c0.3,0.3,0.3,0.7,0,1c-0.3,0.3-0.7,0.3-1,0l-7-7
		C476.5,420.7,476.4,420.5,476.4,420.4z"/>
	<path d="M466.7,421.4c0-0.2,0.1-0.3,0.2-0.5c0.3-0.3,0.7-0.3,1,0l7,7c0.3,0.3,0.3,0.7,0,1c-0.3,0.3-0.7,0.3-1,0l-7-7
		C466.7,421.8,466.7,421.6,466.7,421.4z"/>
	<path class="st2" d="M446.3,444.7c0-0.6,0.5-1.1,1.1-1.1H469c0.6,0,1.1,0.5,1.1,1.1c0,0.6-0.5,1.1-1.1,1.1h-21.7
		C446.7,445.8,446.3,445.3,446.3,444.7z"/>
	<rect x="447.3" y="444.7" class="st10" width="0" height="0"/>
	<path class="st2" d="M489.6,444.7c0-0.6,0.5-1.1,1.1-1.1h21.7c0.6,0,1.1,0.5,1.1,1.1c0,0.6-0.5,1.1-1.1,1.1h-21.7
		C490.1,445.8,489.6,445.3,489.6,444.7z"/>
	<polygon class="st10" points="512.3,444.7 512.3,444.7 512.3,444.7 	"/>
	<path d="M472.2,415.5l7.6,3.2l-4.3,4.3L472.2,415.5z"/>
	<path d="M462.5,416.6l7.6,3.3l-4.3,4.3L462.5,416.6z"/>
	<path d="M467.9,384.8v-10.8c0-0.6,0.5-1.1,1.1-1.1c0.6,0,1.1,0.5,1.1,1.1v10.8c0,0.6-0.5,1.1-1.1,1.1
		C468.4,385.8,467.9,385.4,467.9,384.8z"/>
	<path d="M467.9,373.9v-10.8c0-0.6,0.5-1.1,1.1-1.1c0.6,0,1.1,0.5,1.1,1.1v10.8c0,0.6-0.5,1.1-1.1,1.1
		C468.4,375,467.9,374.5,467.9,373.9z"/>
	<polygon class="st5" points="469,373.9 490.6,363.1 490.6,373.9 490.6,384.8 	"/>
	<path d="M466.6,373.9l25.1-12.5v25.1L466.6,373.9z M489.6,364.8l-18.3,9.1l18.3,9.1V364.8z"/>
	<path d="M468.3,373.9c0-0.4,0.3-0.7,0.7-0.7h21.7c0.4,0,0.7,0.3,0.7,0.7c0,0.4-0.3,0.7-0.7,0.7H469
		C468.6,374.6,468.3,374.3,468.3,373.9z"/>
	<path d="M476.4,349.6c0-0.2,0.1-0.3,0.2-0.5c0.3-0.3,0.7-0.3,1,0l7,7c0.3,0.3,0.3,0.7,0,1c-0.3,0.3-0.7,0.3-1,0l-7-7
		C476.5,349.9,476.4,349.7,476.4,349.6z"/>
	<path d="M466.7,350.6c0-0.2,0.1-0.3,0.2-0.5c0.3-0.3,0.7-0.3,1,0l7,7c0.3,0.3,0.3,0.7,0,1c-0.3,0.3-0.7,0.3-1,0l-7-7
		C466.7,351,466.7,350.8,466.7,350.6z"/>
	<path class="st2" d="M446.3,373.9c0-0.6,0.5-1.1,1.1-1.1H469c0.6,0,1.1,0.5,1.1,1.1s-0.5,1.1-1.1,1.1h-21.7
		C446.7,375,446.3,374.5,446.3,373.9z"/>
	<rect x="447.3" y="373.9" class="st10" width="0" height="0"/>
	<path class="st2" d="M489.6,373.9c0-0.6,0.5-1.1,1.1-1.1h21.7c0.6,0,1.1,0.5,1.1,1.1s-0.5,1.1-1.1,1.1h-21.7
		C490.1,375,489.6,374.5,489.6,373.9z"/>
	<polygon class="st10" points="512.3,373.9 512.3,373.9 512.3,373.9 	"/>
	<path d="M472.2,344.7l7.6,3.2l-4.3,4.3L472.2,344.7z"/>
	<path d="M462.5,345.8l7.6,3.3l-4.3,4.3L462.5,345.8z"/>
	<path id="connector0pin_6_" class="st7" d="M384.9,434.8v-21.7"/>
	<path id="path4098" class="st6" d="M364.7,435.2h40.3"/>
	<path id="path4100" class="st6" d="M371.4,443.4h26.9"/>
	<path id="path4102" class="st6" d="M391.6,451.6h-13.4"/>
	<path d="M467.9,319.9v-10.8c0-0.6,0.5-1.1,1.1-1.1c0.6,0,1.1,0.5,1.1,1.1v10.8c0,0.6-0.5,1.1-1.1,1.1
		C468.4,321,467.9,320.5,467.9,319.9z"/>
	<path d="M467.9,309.1v-10.8c0-0.6,0.5-1.1,1.1-1.1c0.6,0,1.1,0.5,1.1,1.1v10.8c0,0.6-0.5,1.1-1.1,1.1
		C468.4,310.1,467.9,309.7,467.9,309.1z"/>
	<polygon class="st5" points="469,309.1 490.6,298.3 490.6,309.1 490.6,319.9 	"/>
	<path d="M466.6,309.1l25.1-12.5v25.1L466.6,309.1z M489.6,300l-18.3,9.1l18.3,9.1V300z"/>
	<path d="M468.3,309.1c0-0.4,0.3-0.7,0.7-0.7h21.7c0.4,0,0.7,0.3,0.7,0.7c0,0.4-0.3,0.7-0.7,0.7H469
		C468.6,309.8,468.3,309.5,468.3,309.1z"/>
	<path d="M476.4,284.7c0-0.2,0.1-0.3,0.2-0.5c0.3-0.3,0.7-0.3,1,0l7,7c0.3,0.3,0.3,0.7,0,1c-0.3,0.3-0.7,0.3-1,0l-7-7
		C476.5,285.1,476.4,284.9,476.4,284.7z"/>
	<path d="M466.7,285.8c0-0.2,0.1-0.3,0.2-0.5c0.3-0.3,0.7-0.3,1,0l7,7c0.3,0.3,0.3,0.7,0,1c-0.3,0.3-0.7,0.3-1,0l-7-7
		C466.7,286.2,466.7,286,466.7,285.8z"/>
	<path class="st2" d="M446.3,309.1c0-0.6,0.5-1.1,1.1-1.1H469c0.6,0,1.1,0.5,1.1,1.1s-0.5,1.1-1.1,1.1h-21.7
		C446.7,310.1,446.3,309.7,446.3,309.1z"/>
	<rect x="447.3" y="309.1" class="st10" width="0" height="0"/>
	<path class="st2" d="M489.6,309.1c0-0.6,0.5-1.1,1.1-1.1h21.7c0.6,0,1.1,0.5,1.1,1.1s-0.5,1.1-1.1,1.1h-21.7
		C490.1,310.1,489.6,309.7,489.6,309.1z"/>
	<polygon class="st10" points="512.3,309.1 512.3,309.1 512.3,309.1 	"/>
	<path d="M472.2,279.8l7.6,3.2l-4.3,4.3L472.2,279.8z"/>
	<path d="M462.5,280.9l7.6,3.3l-4.3,4.3L462.5,280.9z"/>
	<line class="st11" x1="321.7" y1="169" x2="179.9" y2="169.9"/>
	<line class="st11" x1="451.8" y1="169" x2="576.7" y2="168.8"/>
	<line class="st11" x1="620.1" y1="252.5" x2="620.2" y2="287.6"/>
	<line class="st11" x1="179.9" y1="234" x2="386.8" y2="234"/>
	<circle cx="386.8" cy="234" r="4.3"/>
	<line class="st11" x1="179.9" y1="191.1" x2="179.9" y2="234"/>
	<line class="st11" x1="384.9" y1="413.4" x2="385.3" y2="374.5"/>
	<line class="st11" x1="385.9" y1="231.8" x2="385.3" y2="374.5"/>
	<path d="M385.3,370.2c2.4,0,4.3,1.9,4.3,4.3c0,2.4-1.9,4.3-4.3,4.3c-2.4,0-4.3-1.9-4.3-4.3C381,372.2,382.9,370.2,385.3,370.2z"/>
	<line class="st11" x1="386.8" y1="234" x2="385.9" y2="231.8"/>
	<circle cx="386.8" cy="234" r="4.3"/>
	<line class="st11" x1="621.1" y1="373.9" x2="512.3" y2="373.9"/>
	<path d="M512.3,369.6c2.4,0,4.3,1.9,4.3,4.3c0,2.4-1.9,4.3-4.3,4.3c-2.4,0-4.3-1.9-4.3-4.3C508,371.6,509.9,369.6,512.3,369.6z"/>
	<line class="st11" x1="620.2" y1="374.3" x2="621.1" y2="373.9"/>
	<line class="st11" x1="513.1" y1="311.2" x2="512.3" y2="373.9"/>
	<path d="M512.3,369.6c2.4,0,4.3,1.9,4.3,4.3c0,2.4-1.9,4.3-4.3,4.3c-2.4,0-4.3-1.9-4.3-4.3C508,371.6,509.9,369.6,512.3,369.6z"/>
	<line class="st11" x1="512.3" y1="309.1" x2="513.1" y2="311.2"/>
	<polyline class="st11" points="546.7,415.5 512.1,415.9 512.3,373.9 	"/>
	<path d="M512.3,369.6c2.4,0,4.3,1.9,4.3,4.3c0,2.4-1.9,4.3-4.3,4.3c-2.4,0-4.3-1.9-4.3-4.3C508,371.6,509.9,369.6,512.3,369.6z"/>
	<line class="st11" x1="447.3" y1="373.9" x2="447.3" y2="309.1"/>
	<circle cx="447.3" cy="373.9" r="4.3"/>
	<line class="st11" x1="385.3" y1="374.5" x2="447.3" y2="373.9"/>
	<circle cx="447.3" cy="373.9" r="4.3"/>
	<line class="st11" x1="447.3" y1="373.9" x2="447.3" y2="444.7"/>
	<circle cx="447.3" cy="373.9" r="4.3"/>
	<rect x="546.7" y="398" class="st6" width="147.9" height="107.2"/>
	<line class="st6" x1="562.7" y1="476.6" x2="678.7" y2="476.6"/>
	<path class="st6" d="M562.7,476.6c0-32.9,26.6-59.4,59.4-59.4"/>
	<path class="st6" d="M678.7,476.6c0-32.9-26.6-59.4-59.4-59.4"/>
	<line class="st6" x1="620.7" y1="476.6" x2="598.6" y2="439.5"/>
	<line class="st11" x1="512.3" y1="444.7" x2="546.7" y2="444.7"/>
</g>
<g id="plaintext">
	<text transform="matrix(1 0 0 1 350.7335 172.1039)" class="st2 st3 st12">IN</text>
	<g transform="rotate(270)">
		<g>
			<text transform="matrix(1 0 0 1 -207.016 389.8546)" class="st2 st3 st12">GND</text>
		</g>
	</g>
	<text transform="matrix(1 0 0 1 402.5323 172.1039)" class="st2 st3 st12">OUT</text>
	<text transform="matrix(1 0 0 1 714.4093 456.7259)" class="st3 st13">Amps</text>
	<g transform="translate(0.4,0)">
		<g id="schematicLabel">
			<text transform="matrix(1 0 0 1 97.6003 123.6503)" class="st3 st13">PP1</text>
		</g>
	</g>
	<g transform="translate(0.4,0)">
		<g id="schematicLabel_2_">
			<text transform="matrix(1 0 0 1 21.886 95.0789)" class="st3 st13">3 LEDs in parallel - measuring amperage</text>
		</g>
	</g>
	<g transform="translate(92.2888,5.7376)">
		<g id="schematicLabel_1_">
			<text transform="matrix(1 0 0 1 282.2435 95.1803)" class="st3 st13">IC1</text>
		</g>
	</g>
	<text transform="matrix(1 0 0 1 697.6469 305.9863)" class="st3 st13">R1</text>
	<text transform="matrix(1 0 0 1 697.6469 321.0331)" class="st3 st13">220Ω</text>
	<text transform="matrix(1 0 0 1 459.9593 478.3769)" class="st3 st13">LED1</text>
	<text transform="matrix(1 0 0 1 460.4056 410.7929)" class="st3 st13">LED2</text>
	<g transform="translate(183.412,19.3896)">
		<g id="schematicLabel_5_">
			<text transform="matrix(1 0 0 1 465.3491 162.6124)" class="st3 st13">S1</text>
		</g>
	</g>
	<text transform="matrix(1 0 0 1 459.1888 341.121)" class="st3 st13">LED3</text>
	<text transform="matrix(1 0 0 1 615.5145 520.3179)" class="st14 st15">Key:</text>
	<text transform="matrix(1 0 0 1 615.5145 537.1179)" class="st14 st15">PP1 - DC power plug</text>
	<text transform="matrix(1 0 0 1 615.5145 553.9179)" class="st14 st15">IC1- 7805 5-volt regulator</text>
	<text transform="matrix(1 0 0 1 615.5145 570.7179)" class="st16"><tspan x="0" y="0" class="st14 st15">R1 - 220-ohm resistor</tspan><tspan x="0" y="14.4" class="st14 st15">LED1,2,3 - 5mm red LEDs</tspan></text>
</g>
<g id="braille">
	<text transform="matrix(1 0 0 1 12.1189 34.0478)" class="st16"><tspan x="0" y="0" class="st17 st18">⠼⠉ ⠠⠇⠠⠑⠠⠙⠎ ⠊⠝ ⠏⠁⠗⠁⠇⠇⠑⠇ ⠤ </tspan><tspan x="0" y="34.8" class="st17 st18">⠍⠑⠁⠎⠥⠗⠊⠝⠛ ⠁⠍⠏⠑⠗⠁⠛⠑</tspan></text>
	<text transform="matrix(1 0 0 1 105.2938 142.1949)" class="st17 st18">⠠⠏⠠⠏⠁</text>
	<text transform="matrix(1 0 0 1 338.2835 135.5634)" class="st17 st18">⠠⠊⠠⠉⠁</text>
	<text transform="matrix(1 0 0 1 258.6646 193.6586)" class="st17 st18">⠠⠊⠠⠝</text>
	<text transform="matrix(1 0 0 1 431.1408 194.6587)" class="st17 st18">⠕⠥⠞</text>
	<text transform="matrix(1 0 0 1 385.3779 249.7666)" class="st17 st18">⠠⠛⠠⠝⠠⠙</text>
	<text transform="matrix(1 0 0 1 617.1509 214.284)" class="st17 st18">⠠⠎⠁</text>
	<text transform="matrix(1 0 0 1 630.77 319.893)" class="st17 st18">⠠⠗⠁</text>
	<text transform="matrix(1 0 0 1 630.77 354.693)" class="st17 st18">⠼⠃⠃⠚ ⠕⠓⠍</text>
	<text transform="matrix(1 0 0 1 225.2568 348.5584)" class="st16"><tspan x="0" y="0" class="st17 st18">⠠⠇⠠⠑⠠⠙⠁</tspan><tspan x="0" y="34.8" class="st17 st18">⠠⠇⠠⠑⠠⠙⠃</tspan><tspan x="0" y="69.6" class="st17 st18">⠠⠇⠠⠑⠠⠙⠉</tspan></text>
	<text transform="matrix(1 0 0 1 -0.739 458.5175)" class="st16"><tspan x="0" y="0" class="st17 st18">⠠⠅⠑⠽</tspan><tspan x="79.3" y="0" class="st19 st18">:</tspan><tspan x="0" y="34.8" class="st17 st18">⠠⠏⠠⠏⠁ ⠤ ⠠⠙⠠⠉ ⠏⠕⠺⠑⠗ ⠏⠇⠥⠛</tspan><tspan x="0" y="69.6" class="st17 st18">⠠⠊⠠⠉⠁⠤ ⠼⠛⠓⠚⠑ ⠑⠤⠧⠕⠇⠞ ⠗⠑⠛⠥⠇⠁⠞⠕⠗</tspan><tspan x="0" y="104.4" class="st17 st18">⠠⠗⠁ ⠤ ⠃⠃⠚⠤⠕⠓⠍ ⠗⠑⠎⠊⠎⠞⠕⠗</tspan><tspan x="0" y="139.2" class="st17 st18">⠠⠇⠠⠑⠠⠙⠁⠂⠃⠂⠉ ⠤ ⠑⠍⠍ ⠗⠑⠙ ⠠⠇⠠⠑⠠⠙⠎</tspan></text>
	<text transform="matrix(1 0 0 1 707.2339 485.9326)" class="st17 st18">⠁⠍⠏⠎</text>
</g>
</svg>
