<?xml version="1.0" encoding="utf-8"?>
<!-- Generator: Adobe Illustrator 16.0.0, SVG Export Plug-In . SVG Version: 6.00 Build 0)  -->
<!DOCTYPE svg PUBLIC "-//W3C//DTD SVG 1.1//EN" "http://www.w3.org/Graphics/SVG/1.1/DTD/svg11.dtd">
<svg version="1.1" id="Layer_1" xmlns="http://www.w3.org/2000/svg" xmlns:xlink="http://www.w3.org/1999/xlink" x="0px" y="0px"
	 width="612px" height="792px" viewBox="0 0 612 792" enable-background="new 0 0 612 792" xml:space="preserve">
<g id="Layer_1_2_">
	<g id="Layer_1_1_" xmlns:svg="http://www.w3.org/2000/svg">
		<polyline fill="none" stroke="#000000" stroke-width="2" stroke-linecap="round" stroke-linejoin="round" points="82.703,263.177 
			74.125,263.177 67.789,269.515 59.83,269.515 49.244,262.328 		"/>
		<polyline fill="none" stroke="#000000" stroke-width="2" stroke-linecap="round" stroke-linejoin="round" points="82.703,279.714 
			72.039,279.714 53.03,279.714 		"/>
		<polyline id="box_1_" fill="none" stroke="#000000" stroke-width="2" stroke-linecap="round" stroke-linejoin="round" points="
			49.244,298.415 82.703,298.415 82.703,248.188 49.244,248.188 		"/>
		<polygon points="76.135,265.959 79.612,270.673 77.217,271.136 80.229,276.933 74.435,269.979 76.908,269.359 		"/>
		
			<line id="connector2pin" fill="none" stroke="#787878" stroke-width="2" stroke-linecap="round" stroke-linejoin="round" x1="82.703" y1="279.714" x2="99.471" y2="279.714"/>
		
			<line id="connector0pin" fill="none" stroke="#787878" stroke-width="2" stroke-linecap="round" stroke-linejoin="round" x1="82.703" y1="263.333" x2="99.471" y2="263.333"/>
		
			<line id="connector1pin" fill="none" stroke="#787878" stroke-width="2" stroke-linecap="round" stroke-linejoin="round" x1="82.703" y1="279.714" x2="99.471" y2="279.714"/>
		<text transform="matrix(-1 0 0 1 55.207 290.9702)" fill="#787878" font-family="'ArialMT'" font-size="10.4646">-</text>
		<text transform="matrix(-1 0 0 1 57.1484 259.7407)" fill="#787878" font-family="'ArialMT'" font-size="10.4646">+</text>
		<rect x="225.116" y="245.869" fill="#FFFFFF" width="66.996" height="50.228"/>
		
			<line fill="none" stroke="#000000" stroke-width="2" stroke-linecap="round" x1="225.116" y1="296.097" x2="292.111" y2="296.097"/>
		
			<line fill="none" stroke="#000000" stroke-width="2" stroke-linecap="round" x1="292.111" y1="296.097" x2="292.111" y2="245.869"/>
		
			<line fill="none" stroke="#000000" stroke-width="2" stroke-linecap="round" x1="292.111" y1="245.869" x2="225.116" y2="245.869"/>
		
			<line fill="none" stroke="#000000" stroke-width="2" stroke-linecap="round" x1="225.116" y1="245.869" x2="225.116" y2="296.097"/>
		
			<line id="connector1pin_1_" fill="none" stroke="#787878" stroke-width="2" stroke-linecap="round" x1="208.348" y1="262.636" x2="225.116" y2="262.636"/>
		
			<line id="connector0pin_1_" fill="none" stroke="#787878" stroke-width="2" stroke-linecap="round" x1="258.653" y1="312.865" x2="258.653" y2="296.097"/>
		
			<line id="connector2pin_1_" fill="none" stroke="#787878" stroke-width="2" stroke-linecap="round" x1="308.881" y1="262.636" x2="292.111" y2="262.636"/>
		<line fill="none" stroke="#000000" stroke-width="2" stroke-linecap="round" x1="422.24" y1="307.533" x2="422.24" y2="311.706"/>
		
			<line fill="none" stroke="#000000" stroke-width="2" stroke-linecap="round" x1="422.24" y1="278.247" x2="430.584" y2="307.533"/>
		<circle fill="none" stroke="#000000" stroke-width="2" cx="422.24" cy="278.247" r="0.85"/>
		<circle fill="none" stroke="#000000" stroke-width="2" cx="422.24" cy="311.706" r="0.85"/>
		
			<line fill="none" stroke="#000000" stroke-width="2" stroke-linecap="round" x1="438.93" y1="311.706" x2="405.471" y2="311.706"/>
		
			<line fill="none" stroke="#000000" stroke-width="2" stroke-linecap="round" x1="438.93" y1="278.247" x2="405.471" y2="278.247"/>
		
			<line id="connector3pin" fill="none" stroke="#555555" stroke-width="2" stroke-linecap="round" x1="405.471" y1="262.25" x2="405.471" y2="278.247"/>
		
			<line id="connector2pin_2_" fill="none" stroke="#555555" stroke-width="2" stroke-linecap="round" x1="438.93" y1="262.25" x2="438.93" y2="278.247"/>
		
			<line id="connector1pin_2_" fill="none" stroke="#555555" stroke-width="2" stroke-linecap="round" x1="405.471" y1="327.624" x2="405.471" y2="311.706"/>
		
			<line id="connector0pin_2_" fill="none" stroke="#555555" stroke-width="2" stroke-linecap="round" x1="438.93" y1="327.624" x2="438.93" y2="311.706"/>
		
			<line fill="none" stroke="#000000" stroke-width="2" stroke-linecap="round" x1="439.008" y1="404.51" x2="432.361" y2="401.959"/>
		
			<line fill="none" stroke="#000000" stroke-width="2" stroke-linecap="round" x1="432.361" y1="401.959" x2="445.73" y2="397.787"/>
		
			<line fill="none" stroke="#000000" stroke-width="2" stroke-linecap="round" x1="445.73" y1="397.787" x2="432.361" y2="393.613"/>
		
			<line fill="none" stroke="#000000" stroke-width="2" stroke-linecap="round" x1="432.361" y1="393.613" x2="445.73" y2="389.441"/>
		<line fill="none" stroke="#000000" stroke-width="2" stroke-linecap="round" x1="445.73" y1="389.441" x2="432.361" y2="385.27"/>
		<line fill="none" stroke="#000000" stroke-width="2" stroke-linecap="round" x1="432.361" y1="385.27" x2="445.73" y2="381.096"/>
		
			<line fill="none" stroke="#000000" stroke-width="2" stroke-linecap="round" x1="445.73" y1="381.096" x2="432.361" y2="376.846"/>
		
			<line fill="none" stroke="#000000" stroke-width="2" stroke-linecap="round" x1="432.361" y1="376.846" x2="445.73" y2="372.673"/>
		<line fill="none" stroke="#000000" stroke-width="2" stroke-linecap="round" x1="445.73" y1="372.673" x2="439.008" y2="371.05"/>
		
			<line id="connector1pin_3_" fill="none" stroke="#787878" stroke-width="2" stroke-linecap="round" x1="439.008" y1="354.283" x2="439.008" y2="371.05"/>
		
			<line id="connector0pin_3_" fill="none" stroke="#787878" stroke-width="2" stroke-linecap="round" x1="439.008" y1="421.277" x2="439.008" y2="404.51"/>
		<path d="M321.32,484.1v-8.344c0-0.465,0.389-0.852,0.854-0.852c0.463,0,0.85,0.387,0.85,0.852v8.344
			c0,0.467-0.387,0.854-0.85,0.854C321.707,484.873,321.32,484.562,321.32,484.1z"/>
		<path d="M321.32,475.678v-8.346c0-0.463,0.389-0.85,0.854-0.85c0.463,0,0.85,0.387,0.85,0.85v8.346
			c0,0.463-0.387,0.852-0.85,0.852C321.709,476.529,321.32,476.141,321.32,475.678z"/>
		<polygon fill="#FFFFFF" points="322.172,475.678 338.861,467.332 338.861,475.678 338.861,484.1 		"/>
		<path d="M320.316,475.678l19.396-9.658v19.396L320.316,475.678z M338.09,468.646l-14.143,7.031l14.143,7.031V468.646z"/>
		<path d="M321.631,475.678c0-0.309,0.229-0.541,0.541-0.541h16.768c0.311,0,0.541,0.232,0.541,0.541
			c0,0.311-0.23,0.541-0.541,0.541h-16.768C321.861,476.219,321.631,475.986,321.631,475.678z"/>
		<path d="M327.889,456.9c0-0.154,0.078-0.232,0.156-0.389c0.229-0.229,0.539-0.229,0.77,0l5.41,5.41c0.23,0.23,0.23,0.541,0,0.771
			s-0.541,0.23-0.771,0l-5.408-5.408C327.967,457.133,327.889,456.979,327.889,456.9z"/>
		<path d="M320.395,457.674c0-0.154,0.076-0.23,0.154-0.387c0.23-0.232,0.541-0.232,0.771,0l5.408,5.408
			c0.232,0.23,0.232,0.541,0,0.771c-0.23,0.232-0.541,0.232-0.771,0l-5.408-5.41C320.395,457.982,320.395,457.828,320.395,457.674z"
			/>
		<path fill="#787878" d="M304.631,475.678c0-0.463,0.387-0.85,0.85-0.85h16.691c0.463,0,0.85,0.387,0.85,0.85
			s-0.387,0.852-0.85,0.852H305.4C304.939,476.527,304.631,476.141,304.631,475.678z"/>
		<path fill="none" d="M305.402,475.678L305.402,475.678L305.402,475.678z"/>
		<path fill="#787878" d="M338.09,475.678c0-0.463,0.387-0.85,0.85-0.85h16.77c0.465,0,0.852,0.387,0.852,0.85
			s-0.387,0.852-0.852,0.852h-16.77C338.477,476.527,338.09,476.141,338.09,475.678z"/>
		<path fill="none" d="M355.631,475.678L355.631,475.678L355.631,475.678z"/>
		<path d="M324.645,453.113l5.873,2.473l-3.324,3.324L324.645,453.113z"/>
		<path d="M317.148,453.965l5.873,2.549l-3.322,3.322L317.148,453.965z"/>
		<path d="M321.32,429.391v-8.344c0-0.465,0.389-0.852,0.854-0.852c0.463,0,0.85,0.387,0.85,0.852v8.344
			c0,0.467-0.387,0.854-0.85,0.854C321.707,430.164,321.32,429.854,321.32,429.391z"/>
		<path d="M321.32,420.969v-8.346c0-0.463,0.389-0.852,0.854-0.852c0.463,0,0.85,0.389,0.85,0.852v8.346
			c0,0.463-0.387,0.852-0.85,0.852C321.709,421.82,321.32,421.432,321.32,420.969z"/>
		<polygon fill="#FFFFFF" points="322.172,420.969 338.861,412.623 338.861,420.969 338.861,429.391 		"/>
		<path d="M320.316,420.969l19.396-9.66v19.396L320.316,420.969z M338.09,413.938l-14.143,7.031L338.09,428V413.938z"/>
		<path d="M321.631,420.969c0-0.309,0.229-0.541,0.541-0.541h16.768c0.311,0,0.541,0.232,0.541,0.541
			c0,0.311-0.23,0.541-0.541,0.541h-16.768C321.861,421.51,321.631,421.277,321.631,420.969z"/>
		<path d="M327.889,402.191c0-0.154,0.078-0.232,0.156-0.389c0.229-0.23,0.539-0.23,0.77,0l5.41,5.41c0.23,0.23,0.23,0.541,0,0.771
			s-0.541,0.23-0.771,0l-5.408-5.408C327.967,402.424,327.889,402.27,327.889,402.191z"/>
		<path d="M320.395,402.965c0-0.156,0.076-0.23,0.154-0.387c0.23-0.232,0.541-0.232,0.771,0l5.408,5.408
			c0.232,0.23,0.232,0.541,0,0.771c-0.23,0.232-0.541,0.232-0.771,0l-5.408-5.41C320.395,403.273,320.395,403.119,320.395,402.965z"
			/>
		<path fill="#787878" d="M304.631,420.969c0-0.463,0.387-0.85,0.85-0.85h16.691c0.463,0,0.85,0.387,0.85,0.85
			s-0.387,0.852-0.85,0.852H305.4C304.939,421.818,304.631,421.432,304.631,420.969z"/>
		<path fill="none" d="M305.402,420.969L305.402,420.969L305.402,420.969z"/>
		<path fill="#787878" d="M338.09,420.969c0-0.463,0.387-0.85,0.85-0.85h16.77c0.465,0,0.852,0.387,0.852,0.85
			s-0.387,0.852-0.852,0.852h-16.77C338.477,421.818,338.09,421.432,338.09,420.969z"/>
		<path fill="none" d="M355.631,420.969L355.631,420.969L355.631,420.969z"/>
		<path d="M324.645,398.404l5.873,2.473l-3.324,3.324L324.645,398.404z"/>
		<path d="M317.148,399.256l5.873,2.549l-3.322,3.322L317.148,399.256z"/>
		<path id="connector0pin_6_" fill="none" stroke="#787878" stroke-width="2" stroke-linecap="round" d="M257.185,468.027v-16.77"/>
		<path id="path4098" fill="none" stroke="#000000" stroke-width="2" stroke-linecap="round" d="M241.575,468.336h31.141"/>
		<path id="path4100" fill="none" stroke="#000000" stroke-width="2" stroke-linecap="round" d="M246.753,474.674h20.787"/>
		<path id="path4102" fill="none" stroke="#000000" stroke-width="2" stroke-linecap="round" d="M262.362,481.01h-10.354"/>
		<path d="M321.32,379.242v-8.348c0-0.464,0.389-0.85,0.854-0.85c0.463,0,0.85,0.386,0.85,0.85v8.348c0,0.463-0.387,0.85-0.85,0.85
			C321.709,380.091,321.32,379.705,321.32,379.242z"/>
		<path d="M321.32,370.897v-8.348c0-0.463,0.389-0.85,0.854-0.85c0.463,0,0.85,0.386,0.85,0.85v8.348c0,0.464-0.387,0.85-0.85,0.85
			C321.707,371.668,321.32,371.36,321.32,370.897z"/>
		<polygon fill="#FFFFFF" points="322.172,370.897 338.861,362.55 338.861,370.897 338.861,379.242 		"/>
		<path d="M320.316,370.897l19.396-9.661v19.396L320.316,370.897z M338.09,363.865l-14.143,7.032l14.143,7.03V363.865z"/>
		<path d="M321.631,370.897c0-0.312,0.229-0.541,0.541-0.541h16.768c0.311,0,0.541,0.229,0.541,0.541
			c0,0.309-0.23,0.539-0.541,0.539h-16.768C321.861,371.438,321.631,371.205,321.631,370.897z"/>
		<path d="M327.889,352.042c0-0.155,0.078-0.232,0.156-0.386c0.229-0.232,0.539-0.232,0.77,0l5.41,5.409
			c0.23,0.232,0.23,0.541,0,0.773s-0.541,0.232-0.771,0l-5.408-5.409C327.967,352.351,327.889,352.195,327.889,352.042z"/>
		<path d="M320.395,352.892c0-0.155,0.076-0.232,0.154-0.387c0.23-0.231,0.541-0.231,0.771,0l5.408,5.409
			c0.232,0.232,0.232,0.541,0,0.773c-0.23,0.231-0.541,0.231-0.771,0l-5.408-5.409C320.395,353.201,320.395,353.045,320.395,352.892
			z"/>
		<path fill="#787878" d="M304.631,370.897c0-0.466,0.387-0.852,0.85-0.852h16.691c0.463,0,0.85,0.386,0.85,0.852
			c0,0.464-0.387,0.85-0.85,0.85H305.4C304.939,371.668,304.631,371.36,304.631,370.897z"/>
		<path fill="none" d="M305.402,370.897L305.402,370.897L305.402,370.897z"/>
		<path fill="#787878" d="M338.09,370.897c0-0.466,0.387-0.852,0.85-0.852h16.77c0.465,0,0.852,0.386,0.852,0.852
			c0,0.464-0.387,0.85-0.852,0.85h-16.77C338.477,371.668,338.09,371.36,338.09,370.897z"/>
		<path fill="none" d="M355.631,370.897L355.631,370.897L355.631,370.897z"/>
		<path d="M324.645,348.254l5.873,2.473l-3.324,3.322L324.645,348.254z"/>
		<path d="M317.148,349.104l5.873,2.55l-3.322,3.323L317.148,349.104z"/>
		
			<line fill="none" stroke="#404040" stroke-width="2" stroke-linecap="round" x1="208.348" y1="262.636" x2="98.776" y2="263.333"/>
		
			<line fill="none" stroke="#404040" stroke-width="2" stroke-linecap="round" x1="308.881" y1="262.636" x2="405.395" y2="262.482"/>
		<line fill="none" stroke="#404040" stroke-width="2" stroke-linecap="round" x1="438.93" y1="327.16" x2="439.008" y2="354.283"/>
		
			<line fill="none" stroke="#404040" stroke-width="2" stroke-linecap="round" x1="98.776" y1="312.865" x2="258.653" y2="312.865"/>
		<circle cx="258.653" cy="312.865" r="3.323"/>
		<line fill="none" stroke="#404040" stroke-width="2" stroke-linecap="round" x1="98.776" y1="279.714" x2="98.776" y2="312.865"/>
		
			<line fill="none" stroke="#404040" stroke-width="2" stroke-linecap="round" x1="257.185" y1="451.492" x2="257.494" y2="421.432"/>
		
			<line fill="none" stroke="#404040" stroke-width="2" stroke-linecap="round" x1="257.957" y1="311.165" x2="257.494" y2="421.432"/>
		<path d="M257.494,418.109c1.854,0,3.323,1.469,3.323,3.32c0,1.855-1.468,3.324-3.323,3.324s-3.323-1.469-3.323-3.324
			C254.171,419.654,255.639,418.109,257.494,418.109z"/>
		
			<line fill="none" stroke="#404040" stroke-width="2" stroke-linecap="round" x1="258.653" y1="312.865" x2="257.957" y2="311.165"/>
		<circle cx="258.653" cy="312.865" r="3.323"/>
		
			<line fill="none" stroke="#404040" stroke-width="2" stroke-linecap="round" x1="439.703" y1="420.969" x2="355.631" y2="420.969"/>
		<path d="M355.631,417.646c1.854,0,3.322,1.469,3.322,3.32c0,1.855-1.471,3.324-3.322,3.324c-1.855,0-3.322-1.469-3.322-3.324
			C352.309,419.191,353.775,417.646,355.631,417.646z"/>
		
			<line fill="none" stroke="#404040" stroke-width="2" stroke-linecap="round" x1="439.008" y1="421.277" x2="439.703" y2="420.969"/>
		
			<line fill="none" stroke="#404040" stroke-width="2" stroke-linecap="round" x1="356.248" y1="372.519" x2="355.631" y2="420.969"/>
		<path d="M355.631,417.646c1.854,0,3.322,1.469,3.322,3.32c0,1.855-1.471,3.324-3.322,3.324c-1.855,0-3.322-1.469-3.322-3.324
			C352.309,419.191,353.775,417.646,355.631,417.646z"/>
		
			<line fill="none" stroke="#404040" stroke-width="2" stroke-linecap="round" x1="355.631" y1="370.897" x2="356.248" y2="372.519"/>
		<polyline fill="none" stroke="#404040" stroke-width="2" stroke-linecap="round" points="382.213,453.113 355.477,453.424 
			355.631,420.969 		"/>
		<path d="M355.631,417.646c1.854,0,3.322,1.469,3.322,3.32c0,1.855-1.471,3.324-3.322,3.324c-1.855,0-3.322-1.469-3.322-3.324
			C352.309,419.191,353.775,417.646,355.631,417.646z"/>
		
			<line fill="none" stroke="#404040" stroke-width="2" stroke-linecap="round" x1="305.402" y1="420.969" x2="305.402" y2="370.897"/>
		<circle cx="305.402" cy="420.968" r="3.323"/>
		
			<line fill="none" stroke="#404040" stroke-width="2" stroke-linecap="round" x1="257.494" y1="421.432" x2="305.402" y2="420.969"/>
		<circle cx="305.402" cy="420.968" r="3.323"/>
		
			<line fill="none" stroke="#404040" stroke-width="2" stroke-linecap="round" x1="305.402" y1="420.969" x2="305.402" y2="475.678"/>
		<circle cx="305.402" cy="420.968" r="3.323"/>
		
			<rect x="382.213" y="439.592" fill="none" stroke="#000000" stroke-width="2" stroke-linecap="round" width="114.285" height="82.836"/>
		
			<line fill="none" stroke="#000000" stroke-width="2" stroke-linecap="round" x1="394.574" y1="500.328" x2="484.213" y2="500.328"/>
		<path fill="none" stroke="#000000" stroke-width="2" stroke-linecap="round" d="M394.574,500.328c0-25.424,20.557-45.9,45.9-45.9"
			/>
		<path fill="none" stroke="#000000" stroke-width="2" stroke-linecap="round" d="M484.213,500.328c0-25.424-20.557-45.9-45.9-45.9"
			/>
		
			<line fill="none" stroke="#000000" stroke-width="2" stroke-linecap="round" x1="439.395" y1="500.328" x2="422.316" y2="471.66"/>
		
			<line fill="none" stroke="#404040" stroke-width="2" stroke-linecap="round" x1="355.631" y1="475.678" x2="382.213" y2="475.678"/>
	</g>
	<g id="plaintext">
		<text transform="matrix(1 0 0 1 511.8047 523.9707)" fill="#939597" font-family="'ArialMT'" font-size="14">Amps</text>
	</g>
	<g id="braille">
		<text transform="matrix(1 0 0 1 159.6392 281.6909)" font-family="'AppleBraille'" font-size="22.4091">⠠⠊⠠⠝</text>
		<text transform="matrix(1 0 0 1 296.0068 282.4644)" font-family="'AppleBraille'" font-size="22.4091">⠕⠥⠞</text>
		<text transform="matrix(1 0 0 1 257.5537 325.0474)" font-family="'AppleBraille'" font-size="22.4091">⠠⠛⠠⠝⠠⠙</text>
		<text transform="matrix(1 0 0 1 158.8218 526.8809)" font-family="'AppleBraille'" font-size="30">⠠⠇⠠⠑⠠⠙⠼⠁⠤⠉</text>
		<text transform="matrix(1 0 0 1 506.2607 507.5391)" font-family="'AppleBraille'" font-size="30">⠁⠍⠏⠎</text>
	</g>
</g>
<line fill="none" stroke="#000000" stroke-width="4" stroke-miterlimit="10" x1="22.719" y1="0" x2="0.5" y2="22.219"/>
<line fill="none" stroke="#000000" stroke-width="4" stroke-miterlimit="10" x1="37.125" y1="-3.5" x2="-4.5" y2="38.125"/>
<text transform="matrix(1 0 0 1 43.001 103.8555)" enable-background="new    "><tspan x="0" y="0" font-family="'AppleBraille'" font-size="30">⠼⠉ ⠠⠇⠠⠑⠠⠙⠎ ⠊⠝ ⠏⠁⠗⠁⠇⠇⠑⠇</tspan><tspan x="0" y="36" font-family="'AppleBraille'" font-size="30">⠤ ⠍⠑⠁⠎⠥⠗⠊⠝⠛ ⠁⠍⠏⠑⠗⠁⠛⠑</tspan></text>
<g>
	<text transform="matrix(1 0 0 1 48.9526 169.813)" fill="#939597" font-family="'ArialMT'" font-size="21">3 LEDs in parallel - measuring amperage</text>
</g>
<g id="plaintext_1_">
	<text transform="matrix(1 0 0 1 232.0298 263.0483)" fill="#939597" font-family="'Arial-Black'" font-size="8.1391">IN</text>
	<g transform="rotate(270)">
		<g>
			<text transform="matrix(1 0 0 1 -290.0254 262.2593)" fill="#939597" font-family="'Arial-Black'" font-size="8.1391">GND</text>
		</g>
	</g>
	<text transform="matrix(1 0 0 1 268.0562 263.0483)" fill="#939597" font-family="'Arial-Black'" font-size="8.1391">OUT</text>
</g>
<g id="partLabel">
	<g transform="translate(0.4,0)">
		<g id="schematicLabel">
			<text transform="matrix(1 0 0 1 54.2802 204.0093)" fill="#939597" font-family="'ArialMT'" font-size="14">PP1</text>
		</g>
	</g>
</g>
<g id="partLabel_1_">
	<g transform="translate(92.289,5.73757)">
		<g id="schematicLabel_1_">
			<text transform="matrix(1 0 0 1 138.4908 195.3293)" fill="#939597" font-family="'ArialMT'" font-size="14">IC1</text>
		</g>
	</g>
</g>
<text transform="matrix(1 0 0 1 24.0469 235.1021)" font-family="'AppleBraille'" font-size="30">⠠⠏⠠⠏⠼⠁</text>
<text transform="matrix(1 0 0 1 204.0845 231.9771)" font-family="'AppleBraille'" font-size="30">⠠⠊⠠⠉⠼⠁</text>
<text transform="matrix(1 0 0 1 8.6372 710.5371)" fill="#939597" font-family="'ArialMT'" font-size="14">Key:</text>
<text transform="matrix(1 0 0 1 8.6372 727.5195)" fill="#939597" font-family="'ArialMT'" font-size="14">PP1 - DC power plug</text>
<text transform="matrix(1 0 0 1 8.6372 744.5)" fill="#939597" font-family="'ArialMT'" font-size="14">IC1- 7805 5-volt regulator</text>
<text transform="matrix(1 0 0 1 8.6372 761.4824)" fill="#939597" font-family="'ArialMT'" font-size="14">R1 - 220-ohm resistor</text>
<text transform="matrix(1 0 0 1 8.6372 777.6104)" fill="#939597" font-family="'ArialMT'" font-size="14">LED1 - 5mm red LED</text>
<text transform="matrix(1 0 0 1 0 557.4004)" font-family="'AppleBraille'" font-size="30">⠠⠅⠑⠽</text>
<text transform="matrix(1 0 0 1 0 590.291)" font-family="'AppleBraille'" font-size="30">⠠⠏⠠⠏⠼⠁ ⠤ ⠠⠙⠠⠉ ⠏⠕⠺⠑⠗ ⠏⠇⠥⠛</text>
<text transform="matrix(1 0 0 1 0 623.1816)" font-family="'AppleBraille'" font-size="30">⠠⠊⠠⠉⠼⠁⠤ ⠼⠛⠓⠚⠑ ⠼⠑⠤⠧⠕⠇⠞ ⠗⠑⠛⠥⠇⠁⠞⠕⠗</text>
<text transform="matrix(1 0 0 1 0 656.0732)" font-family="'AppleBraille'" font-size="30">⠠⠗⠼⠁ ⠤ ⠼⠃⠃⠚ ⠨⠺ ⠗⠑⠎⠊⠎⠞⠕⠗ </text>
<text transform="matrix(1 0 0 1 0 688.9629)" font-family="'AppleBraille'" font-size="30">⠠⠇⠠⠑⠠⠙⠼⠁ ⠤ ⠼⠑⠍⠍ ⠗⠑⠙ ⠠⠇⠠⠑⠠⠙</text>
<g id="partLabel_2_">
	<g transform="translate(181.012,31.6566)">
		<g id="schematicLabel_2_">
			<text transform="matrix(1 0 0 1 278.7497 277.0392)" fill="#939597" font-family="'ArialMT'" font-size="14">S1</text>
		</g>
	</g>
</g>
<text transform="matrix(1 0 0 1 448.0742 290.3071)" font-family="'AppleBraille'" font-size="30">⠠⠎⠼⠁</text>
<g id="partLabel_3_">
	<g transform="translate(179.719,67.2344)">
		<g id="schematicLabel_3_">
			<text transform="matrix(1 0 0 1 367.1736 289.1997)" fill="#939597" font-family="'ArialMT'" font-size="14">R1</text>
			<text transform="matrix(1 0 0 1 367.1736 305.3618)" fill="#939597" font-family="'ArialMT'" font-size="14">220Ω</text>
		</g>
	</g>
</g>
<text transform="matrix(1 0 0 1 457.7344 375.231)" font-family="'AppleBraille'" font-size="30">⠠⠗⠼⠁</text>
<text transform="matrix(1 0 0 1 457.7344 406.1211)" font-family="'AppleBraille'" font-size="30">⠼⠃⠃⠚ ⠨⠺</text>
<g id="partLabel_6_">
	<g transform="translate(141.845,94.5703)">
		<g id="schematicLabel_6_">
			<text transform="matrix(1 0 0 1 160.3049 406.6846)" fill="#939597" font-family="'ArialMT'" font-size="14">LED1-3</text>
		</g>
	</g>
</g>
</svg>
