<?xml version="1.0" encoding="utf-8"?>
<!-- Generator: Adobe Illustrator 16.0.0, SVG Export Plug-In . SVG Version: 6.00 Build 0)  -->
<!DOCTYPE svg PUBLIC "-//W3C//DTD SVG 1.1//EN" "http://www.w3.org/Graphics/SVG/1.1/DTD/svg11.dtd">
<svg version="1.1" id="Layer_1" xmlns="http://www.w3.org/2000/svg" xmlns:xlink="http://www.w3.org/1999/xlink" x="0px" y="0px"
	 width="612px" height="792px" viewBox="0 0 612 792" enable-background="new 0 0 612 792" xml:space="preserve">
<g id="Layer_1_3_">
	<g id="Layer_1_2_">
		<g id="Layer_1_1_">
			<path fill="#FFFFFF" stroke="#000000" stroke-width="2" stroke-linecap="round" stroke-miterlimit="10" d="M240.236,494.482
				c-19.722-16.266-32.372-40.938-32.372-68.592c0-49.108,39.757-88.866,88.864-88.866s88.864,39.757,88.864,88.866
				c0,27.5-12.493,52.092-32.136,68.434l0,0l-20.114-22.863l0,0c13.278-10.686,21.843-27.186,21.843-45.57
				c0-32.293-26.164-58.458-58.457-58.458c-32.293,0-58.457,26.165-58.457,58.458c0,18.385,9.743,32.764,21.843,45.57L240,494.324"
				/>
			<path fill="#FFFFFF" stroke="#000000" stroke-width="2" stroke-linecap="round" stroke-miterlimit="10" d="M301.364,494.719
				c0,3.771-2.514,6.756-5.579,6.756l0,0c-3.064,0-5.579-3.062-5.579-6.756V349.675c0-3.771,2.515-6.757,5.579-6.757l0,0
				c3.064,0,5.579,3.064,5.579,6.757V494.719z"/>
			<g>
				
					<line fill="none" stroke="#020202" stroke-width="2" stroke-linecap="round" x1="295.786" y1="553.254" x2="295.786" y2="531.096"/>
				<polygon fill="#020202" points="300.107,550.504 295.786,565.668 291.936,550.346 				"/>
			</g>
			<polyline fill="none" stroke="#020202" stroke-width="2" stroke-linecap="round" points="333.265,577.375 329.571,577.375 
				323.914,584.84 314.564,567.947 305.136,584.84 295.786,567.947 286.436,584.84 277.007,567.947 267.657,584.84 262.079,577.375 
				258.307,577.375 			"/>
			
				<line id="connector2pin_2_" fill="none" stroke="#7A7A7A" stroke-width="2" stroke-linecap="round" x1="333.186" y1="577.375" x2="353.536" y2="577.375"/>
			
				<line id="connector2pin_1_" fill="none" stroke="#7A7A7A" stroke-width="2" stroke-linecap="round" x1="240.236" y1="577.375" x2="258.307" y2="577.375"/>
			
				<line fill="none" stroke="#000000" stroke-width="2" stroke-linecap="round" stroke-miterlimit="10" x1="240.236" y1="494.482" x2="240.236" y2="524.34"/>
			
				<line fill="none" stroke="#000000" stroke-width="2" stroke-linecap="round" stroke-miterlimit="10" x1="353.536" y1="494.324" x2="353.536" y2="524.34"/>
			
				<line fill="none" stroke="#000000" stroke-width="2" stroke-linecap="round" stroke-miterlimit="10" x1="295.786" y1="501.475" x2="295.786" y2="524.34"/>
			
				<circle fill="#FFFFFF" stroke="#000000" stroke-width="2" stroke-linecap="round" stroke-miterlimit="10" cx="240.236" cy="524.34" r="5.734"/>
			
				<circle fill="#FFFFFF" stroke="#000000" stroke-width="2" stroke-linecap="round" stroke-miterlimit="10" cx="295.786" cy="524.34" r="5.734"/>
			
				<circle fill="#FFFFFF" stroke="#000000" stroke-width="2" stroke-linecap="round" stroke-miterlimit="10" cx="353.536" cy="524.34" r="5.734"/>
			
				<line fill="none" stroke="#000000" stroke-width="2" stroke-linecap="round" stroke-miterlimit="10" x1="240.236" y1="530.074" x2="240.236" y2="577.375"/>
			
				<line fill="none" stroke="#000000" stroke-width="2" stroke-linecap="round" stroke-miterlimit="10" x1="353.536" y1="530.074" x2="353.536" y2="577.375"/>
		</g>
		<g id="Braille">
		</g>
	</g>
	<g id="plaintext_1_" display="none">
		<text transform="matrix(1 0 0 1 360.5234 283.9648)" display="inline" font-family="'HelveticaNeue'" font-size="14.1429">Carbon</text>
		<text transform="matrix(1 0 0 1 360.5234 300.9355)" display="inline" font-family="'HelveticaNeue'" font-size="14.1429">resistor</text>
		<text transform="matrix(1 0 0 1 251.6172 546.3926)" display="inline" font-family="'HelveticaNeue'" font-size="14.1429">Variable resistance</text>
		<text transform="matrix(1 0 0 1 250.6377 228.3418)" display="inline" font-family="'HelveticaNeue'" font-size="14.1429">Wiper</text>
		<text transform="matrix(1 0 0 1 86.4233 161.5566)" display="inline" font-family="'HelveticaNeue'" font-size="14.1429">Inside a Potentiometer</text>
	</g>
	<g id="Braille_1_">
		<text transform="matrix(1 0 0 1 377.165 332.5293)" font-family="'AppleBraille'" font-size="30">⠠⠉⠁⠗⠃⠕⠝ </text>
		<text transform="matrix(1 0 0 1 377.165 361.1582)" font-family="'AppleBraille'" font-size="30">⠗⠑⠎⠊⠎⠞⠕⠗</text>
		<text transform="matrix(1 0 0 1 108.2988 626.9609)" font-family="'AppleBraille'" font-size="30">⠠⠧⠁⠗⠊⠁⠃⠇⠑ ⠗⠑⠎⠊⠎⠞⠁⠝⠉⠑</text>
	</g>
</g>
<line fill="none" stroke="#000000" stroke-width="4" stroke-miterlimit="10" x1="22.719" y1="0" x2="0.5" y2="22.219"/>
<line fill="none" stroke="#000000" stroke-width="4" stroke-miterlimit="10" x1="37.125" y1="-3.5" x2="-4.5" y2="38.125"/>
<text transform="matrix(1 0 0 1 229.5776 650.4062)" fill="#939597" font-family="'ArialMT'" font-size="14">Variable resistance</text>
<text transform="matrix(1 0 0 1 43.001 139.8555)" font-family="'AppleBraille'" font-size="30">⠠⠊⠝⠎⠊⠙⠑ ⠁ ⠠⠏⠕⠞⠑⠝⠞⠊⠕⠍⠑⠞⠑⠗</text>
<g>
	<text transform="matrix(1 0 0 1 48.9526 169.8125)" fill="#939597" font-family="'ArialMT'" font-size="21">Inside a Potentiometer</text>
</g>
<g id="partLabel_1_">
	<g transform="translate(92.289,5.73757)">
		<g id="schematicLabel_1_">
			<text transform="matrix(1 0 0 1 190.9918 297.8445)" fill="#939597" font-family="'ArialMT'" font-size="14">Wiper</text>
		</g>
	</g>
</g>
<g id="partLabel_2_">
	<g transform="translate(92.289,5.73757)">
		<g id="schematicLabel_2_">
			<text transform="matrix(1 0 0 1 310.4727 379.6628)" enable-background="new    "><tspan x="0" y="0" fill="#939597" font-family="'ArialMT'" font-size="14">Carbon</tspan><tspan x="0" y="16.8" fill="#939597" font-family="'ArialMT'" font-size="14">resistor</tspan></text>
		</g>
	</g>
</g>
<text transform="matrix(1 0 0 1 270.0845 283.4956)" font-family="'AppleBraille'" font-size="30">⠠⠺⠊⠏⠑⠗</text>
</svg>
