<?xml version="1.0" encoding="utf-8"?>
<!-- Generator: Adobe Illustrator 21.1.0, SVG Export Plug-In . SVG Version: 6.00 Build 0)  -->
<svg version="1.1" id="Layer_1" xmlns="http://www.w3.org/2000/svg" xmlns:xlink="http://www.w3.org/1999/xlink" x="0px" y="0px"
	 viewBox="0 0 612 792" style="enable-background:new 0 0 612 792;" xml:space="preserve">
<style type="text/css">
	.st0{fill:#FFFFFF;stroke:#000000;stroke-width:2;stroke-linecap:round;}
	.st1{fill:none;stroke:#787878;stroke-width:2;stroke-linecap:round;}
	.st2{fill:none;}
	.st3{fill:none;stroke:#000000;stroke-width:2;stroke-linecap:round;}
	.st4{fill:#FFFFFF;}
	.st5{fill:#787878;}
	.st6{fill:none;stroke:#404040;stroke-width:2;stroke-linecap:round;}
	.st7{display:none;}
	.st8{display:inline;fill:#8C8C8C;}
	.st9{font-family:'ArialMT';}
	.st10{font-size:18.5455px;}
	.st11{font-family:'AppleBraille';}
	.st12{display:inline;}
	.st13{fill:#8C8C8C;}
	.st14{font-size:30px;}
	.st15{fill:none;stroke:#000000;stroke-width:4;stroke-miterlimit:10;}
	.st16{fill:#939597;}
	.st17{font-size:21px;}
	.st18{font-size:14px;}
	.st19{font-size:13.0465px;}
</style>
<g id="Layer_1_2_">
	<g id="Layer_1_1_">
		<rect x="210.9" y="255.4" class="st0" width="171.6" height="297.8"/>
		<line id="connector61pin" class="st1" x1="382.7" y1="286" x2="414.2" y2="286"/>
		<line id="connector62pin" class="st1" x1="382.7" y1="301.8" x2="414.2" y2="301.8"/>
		<line id="connector63pin" class="st1" x1="382.7" y1="317.6" x2="414.2" y2="317.6"/>
		<line id="connector64pin" class="st1" x1="382.7" y1="333.3" x2="414.2" y2="333.3"/>
		<line id="connector65pin" class="st1" x1="382.7" y1="349.2" x2="414.2" y2="349.2"/>
		<line id="connector66pin" class="st1" x1="382.7" y1="364.9" x2="414.2" y2="364.9"/>
		<line id="connector67pin" class="st1" x1="382.7" y1="380.7" x2="414.2" y2="380.7"/>
		<line id="connector68pin" class="st1" x1="382.7" y1="396.5" x2="414.2" y2="396.5"/>
		<line id="connector51pin" class="st1" x1="382.7" y1="412.2" x2="414.2" y2="412.2"/>
		<line id="connector52pin" class="st1" x1="382.7" y1="428" x2="414.2" y2="428"/>
		<line id="connector53pin" class="st1" x1="382.7" y1="443.8" x2="414.2" y2="443.8"/>
		<line id="connector54pin" class="st1" x1="382.7" y1="459.6" x2="414.2" y2="459.6"/>
		<line id="connector55pin" class="st1" x1="382.7" y1="475.4" x2="414.2" y2="475.4"/>
		<line id="connector41pin" class="st2" x1="382.7" y1="491.1" x2="414.2" y2="491.1"/>
		<rect id="connector41terminal" x="414.2" y="490.4" class="st2" width="1.5" height="1.5"/>
		<line id="connector56pin" class="st1" x1="382.7" y1="491.1" x2="414.2" y2="491.1"/>
		<line id="connector43pin" class="st2" x1="179.1" y1="286" x2="210.7" y2="286"/>
		<rect id="connector43terminal" x="177.6" y="285.3" class="st2" width="1.5" height="1.5"/>
		<line id="connector85pin" class="st1" x1="179.1" y1="286" x2="210.7" y2="286"/>
		<line id="connector49pin" class="st1" x1="179.1" y1="301.8" x2="210.7" y2="301.8"/>
		<rect id="connector49terminal" x="177.6" y="301" class="st2" width="1.5" height="1.5"/>
		<line id="connector58pin" class="st1" x1="179.1" y1="317.6" x2="210.7" y2="317.6"/>
		<line id="connector84pin" class="st1" x1="179.1" y1="333.3" x2="210.7" y2="333.3"/>
		<line id="connector0pin" class="st1" x1="179.1" y1="364.9" x2="210.7" y2="364.9"/>
		<line id="connector1pin" class="st1" x1="179.1" y1="380.7" x2="210.7" y2="380.7"/>
		<line id="connector2pin" class="st1" x1="179.1" y1="396.5" x2="210.7" y2="396.5"/>
		<line id="connector3pin" class="st1" x1="179.1" y1="412.2" x2="210.7" y2="412.2"/>
		<line id="connector48pin" class="st2" x1="179.1" y1="428" x2="210.7" y2="428"/>
		<rect id="connector48terminal" x="177.6" y="427.3" class="st2" width="1.5" height="1.5"/>
		<line id="connector45pin" class="st2" x1="179.1" y1="428" x2="210.7" y2="428"/>
		<rect id="connector45terminal" x="177.6" y="427.3" class="st2" width="1.5" height="1.5"/>
		<line id="connector4pin" class="st2" x1="179.1" y1="428" x2="210.7" y2="428"/>
		<line id="connector39pin" class="st2" x1="179.1" y1="428" x2="210.7" y2="428"/>
		<rect id="connector39terminal" x="177.6" y="427.3" class="st2" width="1.5" height="1.5"/>
		<line id="connector47pin" class="st2" x1="179.1" y1="428" x2="210.7" y2="428"/>
		<rect id="connector47terminal" x="177.6" y="427.3" class="st2" width="1.5" height="1.5"/>
		<line id="connector42pin" class="st2" x1="179.1" y1="428" x2="210.7" y2="428"/>
		<rect id="connector42terminal" x="177.6" y="427.3" class="st2" width="1.5" height="1.5"/>
		<line id="connector59pin" class="st1" x1="179.1" y1="428" x2="210.7" y2="428"/>
		<line id="connector5pin" class="st2" x1="179.1" y1="443.8" x2="210.7" y2="443.8"/>
		<line id="connector60pin" class="st1" x1="179.1" y1="443.8" x2="210.7" y2="443.8"/>
		<line id="connector91pin" class="st1" x1="179.1" y1="522.7" x2="210.7" y2="522.7"/>
		<rect id="connector44terminal" x="303.8" y="585" class="st2" width="1.5" height="1.5"/>
		<rect id="connector50terminal" x="303.8" y="585" class="st2" width="1.5" height="1.5"/>
		<line id="connector89pin" class="st1" x1="304.5" y1="553.5" x2="304.5" y2="585"/>
		<line id="connector86pin" class="st1" x1="257.2" y1="223.7" x2="257.2" y2="255.2"/>
		<line id="connector40pin" class="st2" x1="288.9" y1="223.7" x2="288.9" y2="255.2"/>
		<rect id="connector40terminal" x="288.1" y="222.1" class="st2" width="1.5" height="1.5"/>
		<line id="connector46pin" class="st2" x1="288.9" y1="223.7" x2="288.9" y2="255.2"/>
		<rect id="connector46terminal" x="288.1" y="222.1" class="st2" width="1.5" height="1.5"/>
		<line id="connector87pin" class="st1" x1="288.9" y1="223.7" x2="288.9" y2="255.2"/>
		<line id="connector90pin" class="st1" x1="320.3" y1="223.7" x2="320.3" y2="255.2"/>
		<line class="st3" x1="119.2" y1="396.9" x2="119.2" y2="393.8"/>
		<line class="st3" x1="119.2" y1="393.8" x2="113" y2="389"/>
		<line class="st3" x1="113" y1="389" x2="127.1" y2="381.2"/>
		<line class="st3" x1="127.1" y1="381.2" x2="113" y2="373.3"/>
		<line class="st3" x1="113" y1="373.3" x2="127.1" y2="365.4"/>
		<line class="st3" x1="127.1" y1="365.4" x2="113" y2="357.5"/>
		<line class="st3" x1="113" y1="357.5" x2="127.1" y2="349.6"/>
		<line class="st3" x1="127.1" y1="349.6" x2="113" y2="341.7"/>
		<line class="st3" x1="113" y1="341.7" x2="119.2" y2="337"/>
		<line class="st3" x1="119.2" y1="337" x2="119.2" y2="333.8"/>
		<line class="st3" x1="127.1" y1="365.4" x2="135.1" y2="357.5"/>
		<line class="st3" x1="135.1" y1="373.3" x2="127.1" y2="365.4"/>
		<line class="st3" x1="135.1" y1="357.5" x2="135.1" y2="373.3"/>
		<line id="connector2pin_1_" class="st1" x1="119.2" y1="412.7" x2="119.2" y2="396.9"/>
		<line id="connector0pin_1_" class="st1" x1="119.2" y1="318" x2="119.2" y2="333.8"/>
		<line id="connector1pin_1_" class="st1" x1="150.8" y1="365.4" x2="135.1" y2="365.4"/>
		<path d="M459.7,561.8h-7.9c-0.4,0-0.8-0.3-0.8-0.8c0-0.4,0.3-0.8,0.8-0.8h7.9c0.4,0,0.8,0.3,0.8,0.8
			C460.5,561.4,460.2,561.8,459.7,561.8z"/>
		<path d="M451.8,561.8h-7.9c-0.4,0-0.8-0.3-0.8-0.8c0-0.4,0.3-0.8,0.8-0.8h7.9c0.4,0,0.8,0.3,0.8,0.8
			C452.6,561.4,452.3,561.8,451.8,561.8z"/>
		<polygon class="st4" points="451.8,561 443.9,545.1 451.8,545.1 459.7,545.1 		"/>
		<path d="M451.8,562.7l-9.1-18.2h18.2L451.8,562.7z M445.2,545.9l6.6,13.3l6.6-13.3H445.2z"/>
		<path d="M451.8,561.4c-0.2,0-0.5-0.2-0.5-0.5v-15.8c0-0.3,0.2-0.5,0.5-0.5c0.3,0,0.5,0.2,0.5,0.5V561
			C452.4,561.2,452.1,561.4,451.8,561.4z"/>
		<path d="M434.1,555.5c-0.2,0-0.2-0.1-0.4-0.2c-0.2-0.2-0.2-0.5,0-0.7l5.1-5.1c0.2-0.2,0.5-0.2,0.7,0c0.2,0.2,0.2,0.5,0,0.7
			l-5.1,5.1C434.4,555.5,434.2,555.5,434.1,555.5z"/>
		<path d="M434.9,562.6c-0.2,0-0.2-0.1-0.3-0.2c-0.2-0.2-0.2-0.5,0-0.7l5.1-5.1c0.2-0.2,0.5-0.2,0.7,0c0.2,0.2,0.2,0.5,0,0.7
			l-5.1,5.1C435.1,562.6,435.1,562.6,434.9,562.6z"/>
		<path class="st5" d="M451.8,577.5c-0.4,0-0.8-0.3-0.8-0.8V561c0-0.4,0.3-0.8,0.8-0.8c0.5,0,0.8,0.3,0.8,0.8v15.8
			C452.6,577.1,452.3,577.5,451.8,577.5z"/>
		<path class="st2" d="M451.8,576.7L451.8,576.7L451.8,576.7z"/>
		<path class="st5" d="M451.8,545.9c-0.4,0-0.8-0.3-0.8-0.8v-15.8c0-0.4,0.3-0.8,0.8-0.8c0.5,0,0.8,0.3,0.8,0.8v15.8
			C452.6,545.6,452.3,545.9,451.8,545.9z"/>
		<path class="st2" d="M451.8,529.4L451.8,529.4L451.8,529.4z"/>
		<path d="M430.6,558.6l2.4-5.5l3.2,3.2L430.6,558.6z"/>
		<path d="M431.3,565.7l2.4-5.5l3.2,3.2L431.3,565.7z"/>
		<line class="st3" x1="451.8" y1="444.5" x2="458.1" y2="446.8"/>
		<line class="st3" x1="458.1" y1="446.8" x2="445.5" y2="450.8"/>
		<line class="st3" x1="445.5" y1="450.8" x2="458.1" y2="454.7"/>
		<line class="st3" x1="458.1" y1="454.7" x2="445.5" y2="458.7"/>
		<line class="st3" x1="445.5" y1="458.7" x2="458.1" y2="462.6"/>
		<line class="st3" x1="458.1" y1="462.6" x2="445.5" y2="466.5"/>
		<line class="st3" x1="445.5" y1="466.5" x2="458.1" y2="470.5"/>
		<line class="st3" x1="458.1" y1="470.5" x2="445.5" y2="474.4"/>
		<line class="st3" x1="445.5" y1="474.4" x2="451.8" y2="476"/>
		<line id="connector1pin_3_" class="st1" x1="451.8" y1="491.8" x2="451.8" y2="476"/>
		<g id="connector1terminal_3_">
		</g>
		<line id="connector0pin_3_" class="st1" x1="451.8" y1="428.7" x2="451.8" y2="444.5"/>
		<g id="connector0terminal_3_">
		</g>
		<g>
			<g transform="translate(179.013,181.678)">
				<g id="schematic_4_">
					<path id="connector0pin_4_" class="st1" d="M273,419v-15.8"/>
					<g id="connector0terminal_4_">
					</g>
					<path id="path4098" class="st3" d="M258.3,419.3h29.4"/>
					<path id="path4100" class="st3" d="M263.1,425.3h19.5"/>
					<path id="path4102" class="st3" d="M277.8,431.3h-9.8"/>
				</g>
			</g>
		</g>
		<g>
			<g transform="translate(111.613,181.678)">
				<g id="schematic_5_">
					<path id="connector0pin_5_" class="st1" d="M192.6,419v-15.8"/>
					<g id="connector0terminal_5_">
					</g>
					<path id="path4098_1_" class="st3" d="M177.9,419.3h29.4"/>
					<path id="path4100_1_" class="st3" d="M182.8,425.3h19.6"/>
					<path id="path4102_1_" class="st3" d="M197.5,431.3h-9.8"/>
				</g>
			</g>
		</g>
		<g>
			<g transform="translate(0,103.143)">
				<g id="schematic_6_">
					<path id="connector0pin_6_" class="st1" d="M119.4,333.1v-15.8"/>
					<g id="connector0terminal_6_">
					</g>
					<path id="path4098_2_" class="st3" d="M104.6,333.5H134"/>
					<path id="path4100_2_" class="st3" d="M109.6,339.5h19.5"/>
					<path id="path4102_2_" class="st3" d="M124.3,345.4h-9.8"/>
				</g>
			</g>
		</g>
		<g>
			<line class="st6" x1="451.8" y1="428.7" x2="415" y2="428"/>
		</g>
		<g>
			<line class="st6" x1="451.9" y1="529.4" x2="451.8" y2="491.7"/>
		</g>
		<g>
			<line class="st6" x1="451.9" y1="592.9" x2="451.9" y2="576.7"/>
		</g>
		<g>
			<line class="st6" x1="304.3" y1="592.9" x2="304.5" y2="585.8"/>
		</g>
		<g>
			<line class="st6" x1="119.3" y1="412.7" x2="119.4" y2="420.7"/>
		</g>
		<g>
			<line class="st6" x1="150.8" y1="365.2" x2="177.8" y2="365.1"/>
		</g>
		<g>
			<line class="st6" x1="289.6" y1="196" x2="120" y2="196"/>
		</g>
		<g>
			<line class="st6" x1="288.9" y1="222.9" x2="289.6" y2="196"/>
		</g>
		<g>
			<line class="st6" x1="120" y1="196" x2="119.3" y2="318"/>
		</g>
		<line id="connector57pin" class="st2" x1="305.3" y1="552.7" x2="305.3" y2="584.2"/>
		<line id="connector44pin" class="st2" x1="305.3" y1="552.7" x2="305.3" y2="584.2"/>
		<line id="connector50pin" class="st2" x1="305.3" y1="552.7" x2="305.3" y2="584.2"/>
		<g id="Braille">
		</g>
	</g>
	<g id="plaintext_1_" class="st7">
		<text transform="matrix(1 0 0 1 364.3906 446.5615)" class="st8 st9 st10">D9</text>
		<text transform="matrix(1 0 0 1 388.1133 446.5615)" class="st8 st11 st10"> </text>
		<text transform="matrix(1 0 0 1 394.4492 446.5615)" class="st8 st9 st10">PWM</text>
		<text transform="matrix(1 0 0 1 229.1807 383.4473)" class="st8 st9 st10">A0</text>
		<g transform="rotate(270)" class="st12">
			<g>
				<text transform="matrix(1 0 0 1 -567.4177 321.5469)" class="st13 st9 st10">GND</text>
			</g>
		</g>
		<g transform="rotate(270)" class="st12">
			<g>
				<text transform="matrix(1 0 0 1 -287.0017 305.7705)" class="st13 st9 st10">5V</text>
			</g>
		</g>
		<g id="partLabel_7_" class="st12">
			<g transform="translate(74.1555,7.33852)">
				<g id="schematicLabel_7_">
					<text transform="matrix(1 0 0 1 153.865 240.0052)" class="st9 st10">U1</text>
				</g>
			</g>
		</g>
		<g id="partLabel_1_" class="st12">
			<g transform="translate(74.1555,7.33852)">
				<g id="schematicLabel_1_">
					<text transform="matrix(1 0 0 1 -51.4597 187.7543)" class="st9 st10">Analog</text>
					<text transform="matrix(1 0 0 1 6.263 187.7543)" class="st11 st10"> </text>
					<text transform="matrix(1 0 0 1 12.5994 187.7543)" class="st9 st10">Input,</text>
					<text transform="matrix(1 0 0 1 59.0403 187.7543)" class="st11 st10"> </text>
					<text transform="matrix(1 0 0 1 65.3767 187.7543)" class="st9 st10">PWM</text>
					<text transform="matrix(1 0 0 1 110.6585 187.7543)" class="st11 st10"> </text>
					<text transform="matrix(1 0 0 1 116.9949 187.7543)" class="st9 st10">Output</text>
				</g>
			</g>
		</g>
		<g id="partLabel_6_" class="st12">
			<g transform="translate(191.098,159.343)">
				<g id="schematicLabel_6_">
					<text transform="matrix(1 0 0 1 293.193 413.3796)" class="st9 st10">LED1</text>
				</g>
			</g>
		</g>
		<g id="partLabel_5_" class="st12">
			<g transform="translate(190.085,118.129)">
				<g id="schematicLabel_5_">
					<text transform="matrix(1 0 0 1 291.9872 364.2753)" class="st9 st10">R1</text>
					<text transform="matrix(1 0 0 1 291.9872 375.2333)" class="st9 st10">220Ω</text>
				</g>
			</g>
		</g>
		<g id="partLabel_4_" class="st12">
			<g transform="translate(190.085,118.129)">
				<g id="schematicLabel_4_">
					<text transform="matrix(1 0 0 1 -99.6006 259.7968)" class="st9 st10">R2</text>
					<text transform="matrix(1 0 0 1 -156.9371 282.0507)" class="st9 st10">10kΩ</text>
					<text transform="matrix(1 0 0 1 -113.1236 282.0507)" class="st11 st10"> </text>
					<text transform="matrix(1 0 0 1 -106.7872 282.0507)" class="st9 st10">var.</text>
				</g>
			</g>
		</g>
	</g>
	<g id="Braille_1_">
		<text transform="matrix(1 0 0 1 269.124 435.1982)" class="st11 st14">⠠⠙⠼⠊ </text>
		<text transform="matrix(1 0 0 1 269.124 471.1982)" class="st11 st14">⠠⠠⠏⠺⠍</text>
		<text transform="matrix(1 0 0 1 213.7324 371.8564)" class="st11 st10">⠠⠁⠚</text>
		<g transform="rotate(270)">
			<g>
				<text transform="matrix(0 1 -1 0 -533.5713 243.3311)" class="st11 st14">⠠⠠⠛⠝⠙</text>
			</g>
		</g>
		<g transform="rotate(270)">
			<g>
				<text transform="matrix(0 1 -1 0 -276.7676 254.6055)" class="st9 st10">+</text>
				<text transform="matrix(0 1 -1 0 -286.7676 273.4229)" class="st11 st14">⠼⠑⠠⠠⠧</text>
			</g>
		</g>
		<g id="partLabel_10_">
			<g transform="translate(74.1555,7.33852)">
				<g id="schematicLabel_10_">
					<text transform="matrix(1 0 0 1 99.9622 219.9594)" class="st11 st14">⠠⠥⠼⠁</text>
				</g>
			</g>
		</g>
		<g id="partLabel_9_">
			<g transform="translate(74.1555,7.33852)">
				<g id="schematicLabel_9_">
				</g>
			</g>
		</g>
		<g id="partLabel_2_">
			<g transform="translate(190.085,118.129)">
				<g id="schematicLabel_2_">
					<text transform="matrix(1 0 0 1 -188.085 242.0233)" class="st11 st14">⠠⠗⠼⠃</text>
					<text transform="matrix(1 0 0 1 -188.085 278.0233)" class="st11 st14">⠼⠁⠚⠨⠺</text>
					<text transform="matrix(1 0 0 1 -188.085 314.0233)" class="st11 st14"> ⠧⠁⠗⠲</text>
					<text transform="matrix(1 0 0 1 -188.085 350.0233)" class="st11 st14">  </text>
				</g>
			</g>
		</g>
	</g>
</g>
<line class="st15" x1="22.7" y1="0" x2="0.5" y2="22.2"/>
<line class="st15" x1="37.1" y1="-3.5" x2="-4.5" y2="38.1"/>
<text transform="matrix(1 0 0 1 43.001 103.8555)" class="st11 st14">⠠⠁⠝⠁⠇⠕⠛ ⠠⠊⠝⠏⠥⠞⠂ ⠠⠠⠏⠺⠍ </text>
<text transform="matrix(1 0 0 1 43.001 139.8555)" class="st11 st14">⠠⠕⠥⠞⠏⠥⠞</text>
<g>
	<text transform="matrix(1 0 0 1 48.9526 169.8125)" class="st16 st9 st17">Analog Input, PWM Output</text>
</g>
<g id="partLabel_11_">
	<g transform="translate(92.289,5.73757)">
		<g id="schematicLabel_11_">
			<text transform="matrix(1 0 0 1 -77.4565 444.8445)" class="st16 st9 st18">R2</text>
			<text transform="matrix(1 0 0 1 -77.4565 461.6445)" class="st16 st9 st18">10Ω var.</text>
		</g>
	</g>
</g>
<g id="partLabel_12_">
	<g transform="translate(92.289,5.73757)">
		<g id="schematicLabel_12_">
			<text transform="matrix(1 0 0 1 92.5435 236.8445)" class="st16 st9 st18">U1</text>
		</g>
	</g>
</g>
<g id="partLabel_15_">
	<g transform="translate(92.289,5.73757)">
		<g id="schematicLabel_15_">
			<text transform="matrix(1 0 0 1 184.5435 300.8445)" class="st16 st9 st18">5V</text>
		</g>
	</g>
</g>
<g id="partLabel_13_">
	<g transform="translate(92.289,5.73757)">
		<g id="schematicLabel_13_">
			<text transform="matrix(1 0 0 1 186.5435 485.8445)" class="st16 st9 st18">D9 PWM</text>
		</g>
	</g>
</g>
<g id="partLabel_14_">
	<g transform="translate(92.289,5.73757)">
		<g id="schematicLabel_14_">
			<text transform="matrix(1 0 0 1 186.5435 539.8445)" class="st16 st9 st18">GND</text>
		</g>
	</g>
</g>
<g id="partLabel_3_">
	<g transform="translate(179.719,67.2344)">
		<g id="schematicLabel_3_">
			<text transform="matrix(1 0 0 1 369.7253 377.1992)" class="st16 st9 st18">R1</text>
			<text transform="matrix(1 0 0 1 369.7253 393.3613)" class="st16 st9 st18">220Ω</text>
		</g>
	</g>
</g>
<text transform="matrix(1 0 0 1 460.2861 463.2314)" class="st11 st14">⠠⠗⠼⠁</text>
<text transform="matrix(1 0 0 1 460.2861 494.1211)" class="st11 st14">⠼⠃⠃⠚ ⠨⠺</text>
<g id="partLabel_16_">
	<g transform="translate(169.878,112.904)">
		<g id="schematicLabel_16_">
			<text transform="matrix(1 0 0 1 285.8984 448.428)" class="st11 st14">⠠⠇⠠⠑⠠⠙⠼⠁</text>
		</g>
	</g>
</g>
<g id="partLabel_8_">
	<g transform="translate(169.878,112.904)">
		<g id="schematicLabel_8_">
			<text transform="matrix(1 0 0 1 300.6425 469.3646)" class="st16 st9 st19">LED1</text>
		</g>
	</g>
</g>
</svg>
