<?xml version="1.0" encoding="utf-8"?>
<!-- Generator: Adobe Illustrator 16.0.0, SVG Export Plug-In . SVG Version: 6.00 Build 0)  -->
<!DOCTYPE svg PUBLIC "-//W3C//DTD SVG 1.1//EN" "http://www.w3.org/Graphics/SVG/1.1/DTD/svg11.dtd">
<svg version="1.1" id="Layer_1" xmlns="http://www.w3.org/2000/svg" xmlns:xlink="http://www.w3.org/1999/xlink" x="0px" y="0px"
	 width="612px" height="792px" viewBox="0 0 612 792" enable-background="new 0 0 612 792" xml:space="preserve">
<g id="Layer_1_2_">
	<g id="Layer_1_1_">
		<g>
			<g transform="translate(46.5692,160.233)">
				<g id="schematic_8_">
					<path id="connector0pin_8_" fill="none" stroke="#7A7A7A" stroke-width="2" stroke-linecap="round" d="M62.856,419.747v-35.875
						"/>
					<g id="connector0terminal_8_">
					</g>
					<path id="path4098" fill="none" stroke="#020202" stroke-width="2" stroke-linecap="round" d="M29.639,420.279H96.34"/>
					<path id="path4100" fill="none" stroke="#020202" stroke-width="2" stroke-linecap="round" d="M40.534,434.097h44.379"/>
					<path id="path4102" fill="none" stroke="#020202" stroke-width="2" stroke-linecap="round" d="M74.017,447.384H51.695"/>
				</g>
			</g>
		</g>
		
			<line id="connector0pin_10_" fill="none" stroke="#7A7A7A" stroke-width="2" stroke-linecap="round" stroke-miterlimit="10" x1="109.507" y1="287.844" x2="109.507" y2="325.313"/>
		<path fill="none" stroke="#020202" stroke-width="2" stroke-linecap="round" d="M75.758,286.781h67.232"/>
		<g>
			
				<line fill="none" stroke="#010101" stroke-width="2" stroke-linecap="round" x1="167.075" y1="434.798" x2="270.714" y2="434.798"/>
			<polygon fill="#010101" points="172.655,443.302 142.626,434.798 172.655,427.092 			"/>
		</g>
		<polyline fill="none" stroke="#010101" stroke-width="2" stroke-linecap="round" points="109.507,508.939 109.507,501.499 
			94.625,490.338 127.843,471.736 94.625,453.134 127.843,434.798 94.625,416.196 127.843,397.595 94.625,378.993 109.507,367.832 
			109.507,360.391 		"/>
		<g id="connector1terminal_6_">
		</g>
		
			<line id="connector0pin_6_" fill="none" stroke="#797979" stroke-width="2" stroke-linecap="round" x1="109.507" y1="544.018" x2="109.507" y2="508.939"/>
		<g id="connector0terminal_6_">
		</g>
		
			<line id="connector2pin_2_" fill="none" stroke="#797979" stroke-width="2" stroke-linecap="round" x1="109.507" y1="325.313" x2="109.507" y2="362.251"/>
		<g id="connector2terminal_2_">
		</g>
	</g>
	<g id="plaintext">
		<g>
			<text transform="matrix(1 0 0 1 288.459 477.8672)" fill="#939597" font-family="'Helvetica'" font-size="13.9091">Input to microcontroller </text>
		</g>
	</g>
	<g id="Braille">
	</g>
</g>
<line fill="none" stroke="#000000" stroke-width="4" stroke-miterlimit="10" x1="22.719" y1="0" x2="0.5" y2="22.219"/>
<line fill="none" stroke="#000000" stroke-width="4" stroke-miterlimit="10" x1="37.125" y1="-3.5" x2="-4.5" y2="38.125"/>
<text transform="matrix(1 0 0 1 43.001 139.8555)" font-family="'AppleBraille'" font-size="30">⠠⠏⠕⠞⠑⠝⠞⠊⠕⠍⠑⠞⠑⠗</text>
<g>
	<text transform="matrix(1 0 0 1 48.9526 169.8125)" fill="#939597" font-family="'ArialMT'" font-size="21">Potentiometer</text>
</g>
<text transform="matrix(1 0 0 1 140.7559 258.7432)" fill="#939597" font-family="'Helvetica'" font-size="13.9091">+V</text>
<text transform="matrix(1 0 0 1 61.2495 264.1523)" font-family="'MyriadPro-Regular'" font-size="22.4091">+</text>
<text transform="matrix(1 0 0 1 74.6177 264.1523)" font-family="'AppleBraille'" font-size="30">⠠⠠⠧</text>
<text transform="matrix(1 0 0 1 285.8623 422.8506)" enable-background="new    "><tspan x="0" y="0" font-family="'AppleBraille'" font-size="30">⠠⠊⠝⠏⠥⠞ ⠞⠕ </tspan><tspan x="0" y="36" font-family="'AppleBraille'" font-size="30">⠍⠊⠉⠗⠕⠉⠕⠝⠞⠗⠕⠇⠇⠑⠗</tspan></text>
</svg>
