<?xml version="1.0" encoding="utf-8"?>
<!-- Generator: Adobe Illustrator 16.0.0, SVG Export Plug-In . SVG Version: 6.00 Build 0)  -->
<!DOCTYPE svg PUBLIC "-//W3C//DTD SVG 1.1//EN" "http://www.w3.org/Graphics/SVG/1.1/DTD/svg11.dtd">
<svg version="1.1" id="Layer_1" xmlns="http://www.w3.org/2000/svg" xmlns:xlink="http://www.w3.org/1999/xlink" x="0px" y="0px"
	 width="792px" height="612px" viewBox="0 0 792 612" enable-background="new 0 0 792 612" xml:space="preserve">
<g id="plaintext" display="none">
	<text transform="matrix(1 0 0 1 262.8433 340.8613)" display="inline" font-family="'MyriadPro-Regular'" font-size="17.7326">Output</text>
	<text transform="matrix(1 0 0 1 162.7798 362.1406)" display="inline" font-family="'MyriadPro-Regular'" font-size="17.7326">from microcontroller</text>
	<text transform="matrix(1 0 0 1 29.8711 236.959)" display="inline" font-family="'MyriadPro-Regular'" font-size="17.7326">Digital Output</text>
	<text transform="matrix(1 0 0 1 404.5684 400.3926)" display="inline" font-family="'MyriadPro-Regular'" font-size="17.7326">220Ω</text>
	<text transform="matrix(1 0 0 1 413.8398 467.625)" display="inline" font-family="'MyriadPro-Regular'" font-size="17.7326">LED</text>
</g>
<g id="Braille_1_">
	<text transform="matrix(1 0 0 1 42.626 94.5957)" font-family="'AppleBraille'" font-size="30">⠔⠎⠊⠙⠑⠀⠁⠀⠏⠕⠞⠢⠞⠊⠕⠍⠑⠞⠻</text>
</g>
<line fill="none" stroke="#000000" stroke-width="4" stroke-miterlimit="10" x1="23.22" y1="-3.5" x2="1" y2="18.719"/>
<line fill="none" stroke="#000000" stroke-width="4" stroke-miterlimit="10" x1="37.625" y1="-7" x2="-4" y2="34.625"/>
<text transform="matrix(1 0 0 1 450.9814 87.5312)" fill="#BBBDC0" font-family="'ArialMT'" font-size="21">Inside a Potentiometer</text>
<g>
	<circle fill="#D1D2D4" stroke="#FFFFFF" stroke-miterlimit="10" cx="89.503" cy="41.393" r="9.212"/>
	<circle fill="#D1D2D4" stroke="#FFFFFF" stroke-miterlimit="10" cx="702.496" cy="39.893" r="9.212"/>
	<circle fill="#D1D2D4" stroke="#FFFFFF" stroke-miterlimit="10" cx="395.646" cy="38.393" r="9.213"/>
</g>
<g id="Layer_1_3_">
	<g id="Layer_1_1_">
		<g id="Layer_1_4_">
			<path fill="#FFFFFF" stroke="#000000" stroke-width="2" stroke-linecap="round" stroke-miterlimit="10" d="M289.007,400.188
				c-29.697-24.496-48.746-61.647-48.746-103.289c0-73.947,59.867-133.816,133.813-133.816c73.945,0,133.812,59.868,133.812,133.816
				c0,41.409-18.812,78.442-48.391,103.051l0,0l-30.287-34.428l0,0c19.994-16.091,32.889-40.937,32.889-68.621
				c0-48.628-39.395-88.026-88.023-88.026c-48.628,0-88.026,39.398-88.026,88.026c0,27.685,14.671,49.336,32.891,68.621
				l-30.288,34.428"/>
			<path fill="#FFFFFF" stroke="#000000" stroke-width="2" stroke-linecap="round" stroke-miterlimit="10" d="M381.056,400.543
				c0,5.679-3.786,10.174-8.401,10.174l0,0c-4.614,0-8.401-4.611-8.401-10.174v-218.41c0-5.677,3.787-10.175,8.401-10.175l0,0
				c4.613,0,8.401,4.615,8.401,10.175V400.543z"/>
			<g>
				
					<line fill="none" stroke="#020202" stroke-width="2" stroke-linecap="round" x1="372.656" y1="488.688" x2="372.656" y2="455.32"/>
				<polygon fill="#020202" points="379.163,484.546 372.656,507.38 366.858,484.308 				"/>
			</g>
			<polyline fill="none" stroke="#020202" stroke-width="2" stroke-linecap="round" points="429.092,525.009 423.529,525.009 
				415.012,536.25 400.933,510.812 386.736,536.25 372.656,510.812 358.577,536.25 344.377,510.812 330.298,536.25 321.899,525.009 
				316.219,525.009 			"/>
			
				<line id="connector2pin_2_" fill="none" stroke="#7A7A7A" stroke-width="2" stroke-linecap="round" x1="428.973" y1="525.009" x2="459.617" y2="525.009"/>
			
				<line id="connector2pin_1_" fill="none" stroke="#7A7A7A" stroke-width="2" stroke-linecap="round" x1="289.007" y1="525.009" x2="316.219" y2="525.009"/>
			
				<line fill="none" stroke="#000000" stroke-width="2" stroke-linecap="round" stroke-miterlimit="10" x1="289.007" y1="400.188" x2="289.007" y2="445.147"/>
			
				<line fill="none" stroke="#000000" stroke-width="2" stroke-linecap="round" stroke-miterlimit="10" x1="459.617" y1="399.949" x2="459.617" y2="445.147"/>
			
				<line fill="none" stroke="#000000" stroke-width="2" stroke-linecap="round" stroke-miterlimit="10" x1="372.656" y1="410.717" x2="372.656" y2="445.147"/>
			
				<circle fill="#FFFFFF" stroke="#000000" stroke-width="2" stroke-linecap="round" stroke-miterlimit="10" cx="289.007" cy="445.147" r="8.635"/>
			
				<circle fill="#FFFFFF" stroke="#000000" stroke-width="2" stroke-linecap="round" stroke-miterlimit="10" cx="372.656" cy="445.147" r="8.635"/>
			
				<circle fill="#FFFFFF" stroke="#000000" stroke-width="2" stroke-linecap="round" stroke-miterlimit="10" cx="459.617" cy="445.147" r="8.635"/>
			
				<line fill="none" stroke="#000000" stroke-width="2" stroke-linecap="round" stroke-miterlimit="10" x1="289.007" y1="453.782" x2="289.007" y2="525.009"/>
			
				<line fill="none" stroke="#000000" stroke-width="2" stroke-linecap="round" stroke-miterlimit="10" x1="459.617" y1="453.782" x2="459.617" y2="525.009"/>
		</g>
		<g id="Braille_3_">
		</g>
	</g>
	<g id="plaintext_2_" display="none">
		<text transform="matrix(1 0 0 1 463.4541 157.0527)" display="inline" font-family="'HelveticaNeue'" font-size="15.9894">Carbon</text>
		<text transform="matrix(1 0 0 1 463.4541 176.2393)" display="inline" font-family="'HelveticaNeue'" font-size="15.9894">resistor</text>
		<text transform="matrix(1 0 0 1 340.3291 453.7432)" display="inline" font-family="'HelveticaNeue'" font-size="15.9894">Variable resistance</text>
		<text transform="matrix(1 0 0 1 339.2217 94.1675)" display="inline" font-family="'HelveticaNeue'" font-size="15.9894">Wiper</text>
		<text transform="matrix(1 0 0 1 153.5679 18.6631)" display="inline" font-family="'HelveticaNeue'" font-size="15.9894">Inside a Potentiometer</text>
	</g>
	<g id="Braille_2_">
		<text transform="matrix(1 0 0 1 521.2109 281.6348)" enable-background="new    "><tspan x="0" y="0" font-family="'AppleBraille'" font-size="30">⠉⠜⠃⠕⠝⠀</tspan><tspan x="0" y="36" font-family="'AppleBraille'" font-size="30">⠗⠑⠎⠊⠌⠕⠗ </tspan></text>
		<text transform="matrix(1 0 0 1 227.2617 568.8291)" font-family="'AppleBraille'" font-size="30">⠧⠜⠊⠁⠃⠇⠑⠀⠗⠑⠎⠊⠌⠨⠑</text>
	</g>
</g>
<text transform="matrix(1 0 0 1 307.2925 592.335)" fill="#BBBDC0" font-family="'ArialMT'" font-size="13.9091">Variable resistance</text>
<g id="partLabel_1_">
	<g transform="translate(92.289,5.73757)">
		<g id="schematicLabel_1_">
			<text transform="matrix(1 0 0 1 336.6817 142.1375)" fill="#BBBDC0" font-family="'ArialMT'" font-size="13.9091">Wiper</text>
		</g>
	</g>
</g>
<g id="partLabel_2_">
	<g transform="translate(92.289,5.73757)">
		<g id="schematicLabel_2_">
			<text transform="matrix(1 0 0 1 431.9161 335.6707)" fill="#BBBDC0" font-family="'ArialMT'" font-size="13.9091">Carbon resistor</text>
		</g>
	</g>
</g>
<text transform="matrix(1 0 0 1 331.6304 147.8745)" font-family="'AppleBraille'" font-size="30">⠺⠊⠏⠻</text>
</svg>
