<?xml version="1.0" encoding="utf-8"?>
<!-- Generator: Adobe Illustrator 16.0.0, SVG Export Plug-In . SVG Version: 6.00 Build 0)  -->
<!DOCTYPE svg PUBLIC "-//W3C//DTD SVG 1.1//EN" "http://www.w3.org/Graphics/SVG/1.1/DTD/svg11.dtd">
<svg version="1.1" id="Layer_1" xmlns="http://www.w3.org/2000/svg" xmlns:xlink="http://www.w3.org/1999/xlink" x="0px" y="0px"
	 width="792px" height="612px" viewBox="0 0 792 612" enable-background="new 0 0 792 612" xml:space="preserve">
<g id="plaintext" display="none">
	<text transform="matrix(1 0 0 1 262.8433 340.8613)" display="inline" font-family="'MyriadPro-Regular'" font-size="17.7326">Output</text>
	<text transform="matrix(1 0 0 1 162.7798 362.1406)" display="inline" font-family="'MyriadPro-Regular'" font-size="17.7326">from microcontroller</text>
	<text transform="matrix(1 0 0 1 29.8711 236.959)" display="inline" font-family="'MyriadPro-Regular'" font-size="17.7326">Digital Output</text>
	<text transform="matrix(1 0 0 1 404.5684 400.3926)" display="inline" font-family="'MyriadPro-Regular'" font-size="17.7326">220Ω</text>
	<text transform="matrix(1 0 0 1 413.8398 467.625)" display="inline" font-family="'MyriadPro-Regular'" font-size="17.7326">LED</text>
</g>
<g id="Braille_1_">
	<text transform="matrix(1 0 0 1 42.626 94.5957)" font-family="'AppleBraille'" font-size="30">⠏⠕⠞⠢⠞⠊⠕⠍⠑⠞⠻</text>
</g>
<line fill="none" stroke="#000000" stroke-width="4" stroke-miterlimit="10" x1="23.22" y1="-3.5" x2="1" y2="18.719"/>
<line fill="none" stroke="#000000" stroke-width="4" stroke-miterlimit="10" x1="37.625" y1="-7" x2="-4" y2="34.625"/>
<text transform="matrix(1 0 0 1 285.5 87.5312)" fill="#BBBDC0" font-family="'ArialMT'" font-size="21">Potentiometer</text>
<g>
	<circle fill="#D1D2D4" stroke="#FFFFFF" stroke-miterlimit="10" cx="89.503" cy="41.393" r="9.212"/>
	<circle fill="#D1D2D4" stroke="#FFFFFF" stroke-miterlimit="10" cx="702.496" cy="39.893" r="9.212"/>
	<circle fill="#D1D2D4" stroke="#FFFFFF" stroke-miterlimit="10" cx="395.646" cy="38.393" r="9.213"/>
</g>
<g id="Layer_1_2_">
	<g id="Layer_1_1_">
		<g>
			<g transform="translate(46.5692,160.233)">
				<g id="schematic_8_">
					<path id="connector0pin_5_" fill="none" stroke="#7A7A7A" stroke-width="2" stroke-linecap="round" d="M115.452,347.522"/>
					<path id="connector0pin_4_" fill="none" stroke="#7A7A7A" stroke-width="2" stroke-linecap="round" d="M115.452,392.255"/>
					<g id="connector0terminal_8_">
					</g>
					<path id="path4098" fill="none" stroke="#020202" stroke-width="2" stroke-linecap="round" d="M74.032,392.918h83.171"/>
					<path id="path4100" fill="none" stroke="#020202" stroke-width="2" stroke-linecap="round" d="M87.618,410.149h55.338"/>
					<path id="path4102" fill="none" stroke="#020202" stroke-width="2" stroke-linecap="round" d="M129.369,426.716h-27.834"/>
				</g>
			</g>
		</g>
		<path id="connector0pin_3_" fill="none" stroke="#7A7A7A" stroke-width="2" stroke-linecap="round" stroke-miterlimit="10" d="
			M162.123,234.938"/>
		<path id="connector0pin_1_" fill="none" stroke="#7A7A7A" stroke-width="2" stroke-linecap="round" stroke-miterlimit="10" d="
			M162.123,188.216"/>
		<path fill="none" stroke="#020202" stroke-width="2" stroke-linecap="round" d="M120.041,186.892h83.834"/>
		<g>
			
				<line fill="none" stroke="#010101" stroke-width="2" stroke-linecap="round" x1="211.906" y1="371.457" x2="363.136" y2="371.457"/>
			<polygon fill="#010101" points="218.864,382.061 181.42,371.457 218.864,361.848 			"/>
		</g>
		<path fill="none" stroke="#010101" stroke-width="2" stroke-linecap="round" d="M162.123,463.906"/>
		<g id="connector1terminal_6_">
		</g>
		<path id="connector0pin_8_" fill="none" stroke="#797979" stroke-width="2" stroke-linecap="round" d="M162.123,463.906"/>
		<path id="connector0pin_7_" fill="none" stroke="#797979" stroke-width="2" stroke-linecap="round" d="M162.123,507.646"/>
		<g id="connector0terminal_6_">
		</g>
		<path id="connector2pin_1_" fill="none" stroke="#797979" stroke-width="2" stroke-linecap="round" d="M162.123,234.938"/>
		<g id="connector2terminal_2_">
		</g>
	</g>
	<g id="plaintext_1_">
		<g>
			<text transform="matrix(1 0 0 1 385.2627 411.6611)" fill="#BBBDC0" font-family="'ArialMT'" font-size="13.9091">Input to microcontroller </text>
		</g>
	</g>
	<g id="Braille">
	</g>
</g>
<text transform="matrix(1 0 0 1 203.4199 169.127)" fill="#BBBDC0" font-family="'ArialMT'" font-size="13.9091">+V</text>
<text transform="matrix(1 0 0 1 120.0405 174.3726)" font-family="'AppleBraille'" font-size="37.4077">⠐⠖⠧</text>
<text transform="matrix(1 0 0 1 382.0244 356.5596)" enable-background="new    "><tspan x="0" y="0" font-family="'AppleBraille'" font-size="30">⠠⠊⠝⠏⠥⠞ ⠞⠕ </tspan><tspan x="0" y="36" font-family="'AppleBraille'" font-size="30">⠍⠊⠉⠗⠕⠉⠕⠝⠞⠗⠕⠇⠇⠑⠗ </tspan></text>
<g>
	<path fill="none" stroke="#414141" stroke-width="2" stroke-linecap="round" d="M162.837,409.172"/>
</g>
<path id="connector1pin_2_" fill="none" stroke="#797979" stroke-width="2" stroke-linecap="round" d="M163.123,338.029"/>
<line fill="none" stroke="#414141" stroke-width="2" stroke-linecap="round" x1="162.999" y1="188.216" x2="163.123" y2="338.029"/>
<path id="connector0pin_2_" fill="none" stroke="#7B7B7B" stroke-width="2" stroke-linecap="round" d="M163.545,334.811"/>
<polyline fill="none" stroke="#030303" stroke-width="2" stroke-linecap="round" points="162.959,553.151 162.959,407.631 
	155.897,401.893 173.103,392.334 155.897,382.775 173.103,373.133 155.897,363.572 173.103,354.014 155.897,344.369 
	163.123,338.721 163.123,334.896 "/>
</svg>
