<?xml version="1.0" encoding="utf-8"?>
<!-- Generator: Adobe Illustrator 21.1.0, SVG Export Plug-In . SVG Version: 6.00 Build 0)  -->
<svg version="1.1" xmlns="http://www.w3.org/2000/svg" xmlns:xlink="http://www.w3.org/1999/xlink" x="0px" y="0px"
	 viewBox="0 0 612 1008" style="enable-background:new 0 0 612 1008;" xml:space="preserve">
<style type="text/css">
	.st0{fill:#FFFFFF;stroke:#000000;stroke-width:2;stroke-linecap:round;stroke-miterlimit:10;}
	.st1{fill:none;stroke:#020202;stroke-width:2;stroke-linecap:round;}
	.st2{fill:#020202;}
	.st3{fill:none;stroke:#7A7A7A;stroke-width:2;stroke-linecap:round;}
	.st4{fill:none;stroke:#000000;stroke-width:2;stroke-linecap:round;stroke-miterlimit:10;}
	.st5{display:none;}
	.st6{display:inline;}
	.st7{font-family:'HelveticaNeue';}
	.st8{font-size:18px;}
	.st9{enable-background:new    ;}
	.st10{font-family:'AppleBraille';}
	.st11{font-size:24px;}
</style>
<g id="Layer_1">
	<g id="Layer_1_1_">
		<path class="st0" d="M222.3,535.8c-25.1-20.7-41.2-52.1-41.2-87.3c0-62.5,50.6-113.1,113.1-113.1S407.3,386,407.3,448.5
			c0,35-15.9,66.3-40.9,87.1l0,0l-25.6-29.1l0,0c16.9-13.6,27.8-34.6,27.8-58c0-41.1-33.3-74.4-74.4-74.4s-74.4,33.3-74.4,74.4
			c0,23.4,12.4,41.7,27.8,58L222,535.6"/>
		<path class="st0" d="M300.1,536.1c0,4.8-3.2,8.6-7.1,8.6l0,0c-3.9,0-7.1-3.9-7.1-8.6V351.5c0-4.8,3.2-8.6,7.1-8.6l0,0
			c3.9,0,7.1,3.9,7.1,8.6V536.1z"/>
		<g>
			<line class="st1" x1="293" y1="610.6" x2="293" y2="582.4"/>
			<polygon class="st2" points="298.5,607.1 293,626.4 288.1,606.9 			"/>
		</g>
		<polyline class="st1" points="340.7,641.3 336,641.3 328.8,650.8 316.9,629.3 304.9,650.8 293,629.3 281.1,650.8 269.1,629.3 
			257.2,650.8 250.1,641.3 245.3,641.3 		"/>
		<line id="connector2pin_2_" class="st3" x1="340.6" y1="641.3" x2="366.5" y2="641.3"/>
		<line id="connector2pin_1_" class="st3" x1="222.3" y1="641.3" x2="245.3" y2="641.3"/>
		<line class="st4" x1="222.3" y1="535.8" x2="222.3" y2="573.8"/>
		<line class="st4" x1="366.5" y1="535.6" x2="366.5" y2="573.8"/>
		<line class="st4" x1="293" y1="544.7" x2="293" y2="573.8"/>
		<circle class="st0" cx="222.3" cy="573.8" r="7.3"/>
		<circle class="st0" cx="293" cy="573.8" r="7.3"/>
		<circle class="st0" cx="366.5" cy="573.8" r="7.3"/>
		<line class="st4" x1="222.3" y1="581.1" x2="222.3" y2="641.3"/>
		<line class="st4" x1="366.5" y1="581.1" x2="366.5" y2="641.3"/>
	</g>
	<g id="Braille">
	</g>
</g>
<g id="plaintext_1_" class="st5">
	<text transform="matrix(1 0 0 1 375.3926 361.4092)" class="st6 st7 st8">Carbon</text>
	<text transform="matrix(1 0 0 1 375.3926 383.0092)" class="st6 st7 st8">resistor</text>
	<text transform="matrix(1 0 0 1 236.7852 695.4092)" class="st6 st7 st8">Variable resistance</text>
	<text transform="matrix(1 0 0 1 235.5386 290.6172)" class="st6 st7 st8">Wiper</text>
	<text transform="matrix(1 0 0 1 26.5386 205.6172)" class="st6 st7 st8">Inside a Potentiometer</text>
</g>
<g id="Braille_1_">
	<text transform="matrix(1 0 0 1 378.3926 334.0092)" class="st9"><tspan x="0" y="0" class="st10 st11">⠠⠉⠁⠗⠃⠕⠝ </tspan><tspan x="0" y="28.8" class="st10 st11">⠗⠑⠎⠊⠎⠞⠕⠗</tspan></text>
	<text transform="matrix(1 0 0 1 119.7852 676.4092)" class="st10 st11">⠠⠧⠁⠗⠊⠁⠃⠇⠑ ⠗⠑⠎⠊⠎⠞⠁⠝⠉⠑</text>
	<text transform="matrix(1 0 0 1 198.5386 321.6172)" class="st10 st11">⠠⠺⠊⠏⠑⠗</text>
	<text transform="matrix(1 0 0 1 16.5386 201.6172)" class="st10 st11">⠠⠊⠝⠎⠊⠙⠑ ⠁ ⠠⠏⠕⠞⠑⠝⠞⠊⠕⠍⠑⠞⠑⠗</text>
</g>
</svg>
