<?xml version="1.0" encoding="utf-8"?>
<!-- Generator: Adobe Illustrator 16.0.0, SVG Export Plug-In . SVG Version: 6.00 Build 0)  -->
<!DOCTYPE svg PUBLIC "-//W3C//DTD SVG 1.1//EN" "http://www.w3.org/Graphics/SVG/1.1/DTD/svg11.dtd">
<svg version="1.1" id="Layer_1" xmlns="http://www.w3.org/2000/svg" xmlns:xlink="http://www.w3.org/1999/xlink" x="0px" y="0px"
	 width="792px" height="612px" viewBox="0 0 792 612" enable-background="new 0 0 792 612" xml:space="preserve">
<g id="plaintext" display="none">
	<text transform="matrix(1 0 0 1 262.8433 340.8613)" display="inline" font-family="'MyriadPro-Regular'" font-size="17.7326">Output</text>
	<text transform="matrix(1 0 0 1 162.7798 362.1406)" display="inline" font-family="'MyriadPro-Regular'" font-size="17.7326">from microcontroller</text>
	<text transform="matrix(1 0 0 1 29.8711 236.959)" display="inline" font-family="'MyriadPro-Regular'" font-size="17.7326">Digital Output</text>
	<text transform="matrix(1 0 0 1 404.5684 400.3926)" display="inline" font-family="'MyriadPro-Regular'" font-size="17.7326">220Ω</text>
	<text transform="matrix(1 0 0 1 413.8398 467.625)" display="inline" font-family="'MyriadPro-Regular'" font-size="17.7326">LED</text>
</g>
<g id="Braille_1_">
	<text transform="matrix(1 0 0 1 42.626 78.0645)" font-family="'AppleBraille'" font-size="26">⠏⠕⠞⠑⠝⠞⠊⠕⠍⠑⠞⠑⠗⠂⠀⠇⠑⠙⠂⠀⠏⠺⠍</text>
</g>
<text transform="matrix(1 0 0 1 472.791 75)" fill="#532E85" font-family="'ArialMT'" font-size="21">Potentiometer, LED, PWM</text>
<g>
	<g transform="translate(126.231,26.6186)">
		<g id="schematic">
			
				<rect x="41.717" y="137.719" fill="#FFFFFF" stroke="#010201" stroke-width="8" stroke-linecap="round" width="192.747" height="282.479"/>
			
				<line id="connector63pin" fill="none" stroke="#000000" stroke-width="2" stroke-miterlimit="10" x1="234.68" y1="157.455" x2="276.183" y2="157.455"/>
			<path id="connector56pin_1_" fill="none" stroke="#000000" stroke-width="2" stroke-miterlimit="10" d="M234.68,352.463"/>
			
				<line id="connector86pin" fill="none" stroke="#000000" stroke-width="2" stroke-miterlimit="10" x1="93.805" y1="109.988" x2="93.805" y2="139.504"/>
			<line id="connector40pin" fill="none" x1="129.212" y1="103.988" x2="129.212" y2="139.504"/>
			<rect id="connector40terminal" x="128.351" y="102.269" fill="none" width="1.723" height="1.719"/>
			<line id="connector46pin" fill="none" x1="129.212" y1="103.988" x2="129.212" y2="139.504"/>
			<rect id="connector46terminal" x="128.351" y="102.269" fill="none" width="1.723" height="1.719"/>
			
				<line id="connector87pin" fill="none" stroke="#000000" stroke-width="2" stroke-miterlimit="10" x1="129.212" y1="95.109" x2="129.212" y2="139.504"/>
			
				<line id="connector90pin" fill="none" stroke="#000000" stroke-width="2" stroke-miterlimit="10" x1="164.619" y1="108.988" x2="164.619" y2="139.504"/>
		</g>
	</g>
</g>
<g>
	<g transform="translate(0,64.2787)">
		<g id="schematic_2_">
			<text transform="matrix(1 0 0 1 70.6269 87.1256)" fill="#532E85" font-family="'ArialMT'" font-size="12">3.3V</text>
			<text transform="matrix(1 0 0 1 296.2349 326.1549)" fill="#532E85" font-family="'ArialMT'" font-size="12">D5</text>
			<text transform="matrix(1 0 0 1 388.2539 103.5729)" fill="#532E85" font-family="'ArialMT'" font-size="12">VIN</text>
			<text transform="matrix(1 0 0 1 209.9902 274.4567)" fill="#532E85" font-family="'ArialMT'" font-size="12">Arduino Uno</text>
			<text transform="matrix(1 0 0 1 223.6753 288.8571)" fill="#532E85" font-family="'ArialMT'" font-size="12">(Rev 3)</text>
			<text transform="matrix(1 0 0 1 247.8081 150.1881)" fill="#532E85" font-family="'ArialMT'" font-size="12">5V</text>
		</g>
	</g>
</g>
<text transform="matrix(1 0 0 1 305.8501 490.29)" font-family="'AppleBraille'" font-size="26">⠛⠝⠙</text>
<text transform="matrix(1 0 0 1 296.2349 378.707)" font-family="'AppleBraille'" font-size="26">⠙⠼⠑</text>
<text transform="matrix(1 0 0 1 229.6753 201.4336)" font-family="'AppleBraille'" font-size="26">⠼⠑⠧</text>
<text transform="matrix(1 0 0 1 398.2539 153.8926)" font-family="'AppleBraille'" font-size="26">⠧⠊⠝</text>
<text transform="matrix(1 0 0 1 76.625 136.4453)" font-family="'AppleBraille'" font-size="26">⠼⠉⠲⠉⠧</text>
<text transform="matrix(1 0 0 1 194.0361 253.6709)" font-family="'AppleBraille'" font-size="26">⠁⠗⠙⠥⠊⠝⠕</text>
<text transform="matrix(1 0 0 1 194.0361 282.4707)" font-family="'AppleBraille'" font-size="26">⠥⠝⠕</text>
<text transform="matrix(1 0 0 1 194.0361 311.2705)" font-family="'AppleBraille'" font-size="26">⠗⠑⠧⠀⠼⠉</text>
<text transform="matrix(1 0 0 1 369.3979 483.6182)" fill="#532E85" font-family="'ArialMT'" font-size="13.9091">GND</text>
<g>
	<path fill="none" stroke="#414141" stroke-width="2" stroke-linecap="round" d="M235.412,110.509"/>
	<path fill="none" stroke="#414141" stroke-width="2" stroke-linecap="round" d="M254.335,114.062"/>
</g>
<g>
	<path fill="none" stroke="#414141" stroke-width="2" stroke-linecap="round" d="M269.232,114.062"/>
</g>
<g>
	<path fill="none" stroke="#000000" stroke-width="2" stroke-miterlimit="10" d="M393.254,408.785"/>
</g>
<g>
	<path fill="none" stroke="#414141" stroke-width="2" stroke-linecap="round" d="M264.29,448.816"/>
</g>
<path fill="none" stroke="#030303" stroke-width="2" stroke-linecap="round" d="M264.735,448.816"/>
<g>
	<g>
		<path fill="none" stroke="#000000" stroke-width="2" stroke-linecap="round" d="M264.252,448.816"/>
		<path fill="none" stroke="#000000" stroke-width="2" stroke-linecap="round" d="M264.538,455.558"/>
	</g>
</g>
<g>
	<g>
		<path fill="none" stroke="#000000" stroke-width="2" stroke-linecap="round" stroke-miterlimit="10" d="M338.926,119.908"/>
		
			<line fill="none" stroke="#000000" stroke-width="2" stroke-linecap="round" stroke-miterlimit="10" stroke-dasharray="0.1027,5.1335" x1="393.254" y1="138.086" x2="295.235" y2="132.389"/>
	</g>
</g>
<g>
	<g>
		
			<line fill="none" stroke="#000000" stroke-linecap="round" stroke-miterlimit="10" x1="220.036" y1="126.79" x2="219.987" y2="126.781"/>
		
			<line fill="none" stroke="#000000" stroke-linecap="round" stroke-miterlimit="10" x1="167.997" y1="116.799" x2="167.948" y2="116.79"/>
	</g>
</g>
<g>
	<line fill="none" stroke="#000000" stroke-width="4" stroke-miterlimit="10" x1="755.229" y1="0.772" x2="791.227" y2="36.771"/>
	<line fill="none" stroke="#000000" stroke-width="4" stroke-miterlimit="10" x1="738" y1="0" x2="792" y2="54"/>
	<line fill="none" stroke="#000000" stroke-width="4" stroke-miterlimit="10" x1="772.457" y1="1.543" x2="790.457" y2="19.543"/>
</g>
<line fill="none" stroke="#010101" stroke-width="2" stroke-miterlimit="10" x1="167.948" y1="242.592" x2="125.95" y2="242.592"/>
<line fill="none" stroke="#010101" stroke-width="2" stroke-miterlimit="10" x1="167.948" y1="256.703" x2="125.95" y2="256.703"/>
<line fill="none" stroke="#010101" stroke-width="2" stroke-miterlimit="10" x1="167.948" y1="270.57" x2="125.95" y2="270.57"/>
<line fill="none" stroke="#010101" stroke-width="2" stroke-miterlimit="10" x1="167.948" y1="284.313" x2="125.95" y2="284.313"/>
<line fill="none" stroke="#010101" stroke-width="2" stroke-miterlimit="10" x1="167.948" y1="298.058" x2="125.95" y2="298.058"/>
<line fill="none" stroke="#010101" stroke-width="2" stroke-miterlimit="10" x1="167.948" y1="311.926" x2="125.95" y2="311.926"/>
<line fill="none" stroke="#010101" stroke-width="2" stroke-miterlimit="10" x1="167.948" y1="325.672" x2="125.95" y2="325.672"/>
<line fill="none" stroke="#010101" stroke-width="2" stroke-miterlimit="10" x1="167.948" y1="339.414" x2="125.95" y2="339.414"/>
<line fill="none" stroke="#010101" stroke-width="5" stroke-miterlimit="10" x1="167.948" y1="366.411" x2="125.95" y2="366.411"/>
<line fill="none" stroke="#010101" stroke-width="2" stroke-miterlimit="10" x1="167.948" y1="380.338" x2="125.95" y2="380.338"/>
<line fill="none" stroke="#010101" stroke-width="2" stroke-miterlimit="10" x1="167.948" y1="394.021" x2="125.95" y2="394.021"/>
<line fill="none" stroke="#010101" stroke-width="2" stroke-miterlimit="10" x1="167.948" y1="408.502" x2="125.95" y2="408.502"/>
<line fill="none" stroke="#010101" stroke-width="2" stroke-miterlimit="10" x1="167.948" y1="422.369" x2="125.95" y2="422.369"/>
<line fill="none" stroke="#010101" stroke-width="5" stroke-miterlimit="10" x1="167.948" y1="435.377" x2="125.95" y2="435.377"/>
<polyline fill="none" stroke="#000000" stroke-width="2" stroke-linecap="round" points="589.517,401.345 589.517,397.521 
	597.165,391.787 579.96,382.143 597.165,372.582 579.96,363.023 597.165,353.379 579.96,343.82 597.165,334.262 589.517,328.521 
	589.517,305.599 495.087,305.592 495.087,366.411 402.414,366.411 360.416,366.411 "/>
<line fill="none" stroke="#010101" stroke-width="2" stroke-miterlimit="10" x1="402.414" y1="352.666" x2="360.416" y2="352.666"/>
<line fill="none" stroke="#010101" stroke-width="2" stroke-miterlimit="10" x1="402.414" y1="338.924" x2="360.416" y2="338.924"/>
<line fill="none" stroke="#010101" stroke-width="2" stroke-miterlimit="10" x1="402.414" y1="317.447" x2="360.416" y2="317.447"/>
<line fill="none" stroke="#010101" stroke-width="2" stroke-miterlimit="10" x1="402.414" y1="303.826" x2="360.416" y2="303.826"/>
<line fill="none" stroke="#010101" stroke-width="2" stroke-miterlimit="10" x1="402.414" y1="290.081" x2="360.416" y2="290.081"/>
<line fill="none" stroke="#010101" stroke-width="2" stroke-miterlimit="10" x1="402.414" y1="262.592" x2="360.416" y2="262.592"/>
<line fill="none" stroke="#010101" stroke-width="2" stroke-miterlimit="10" x1="402.414" y1="276.338" x2="360.416" y2="276.338"/>
<line fill="none" stroke="#010101" stroke-width="5" stroke-miterlimit="10" x1="402.414" y1="248.971" x2="360.416" y2="248.971"/>
<line fill="none" stroke="#010101" stroke-width="2" stroke-miterlimit="10" x1="402.414" y1="235.227" x2="360.416" y2="235.227"/>
<line fill="none" stroke="#010101" stroke-width="2" stroke-miterlimit="10" x1="402.414" y1="207.738" x2="360.416" y2="207.738"/>
<line fill="none" stroke="#010101" stroke-width="2" stroke-miterlimit="10" x1="402.414" y1="220.074" x2="360.416" y2="220.074"/>
<line fill="none" stroke="#010101" stroke-width="2" stroke-miterlimit="10" x1="402.414" y1="193.996" x2="360.416" y2="193.996"/>
<line fill="none" stroke="#010101" stroke-width="2" stroke-miterlimit="10" x1="402.414" y1="380.338" x2="360.416" y2="380.338"/>
<line fill="none" stroke="#010101" stroke-width="2" stroke-miterlimit="10" x1="402.414" y1="394.021" x2="360.416" y2="394.021"/>
<line fill="none" stroke="#010101" stroke-width="2" stroke-miterlimit="10" x1="402.414" y1="408.502" x2="360.416" y2="408.502"/>
<line fill="none" stroke="#010101" stroke-width="2" stroke-miterlimit="10" x1="402.414" y1="422.369" x2="360.416" y2="422.369"/>
<line fill="none" stroke="#010101" stroke-width="5" stroke-miterlimit="10" x1="402.414" y1="435.377" x2="360.416" y2="435.377"/>
<line fill="none" stroke="#000000" stroke-width="2" stroke-linecap="round" stroke-miterlimit="10" stroke-dasharray="0.1027,5.1335" x1="218.987" y1="129.781" x2="173.5" y2="121.73"/>
<g>
	<g>
		<g transform="translate(191.548,91.3167)">
			<g id="schematic_6_">
				<path id="connector0pin_6_" fill="none" stroke="#000000" stroke-width="2" stroke-linecap="round" d="M71.532,404.207v-49.645"
					/>
				<g id="connector0terminal_2_">
				</g>
			</g>
		</g>
	</g>
</g>
<polygon fill="none" stroke="#000000" stroke-width="2" stroke-linecap="round" points="287.545,495.521 263.08,537.896 
	238.615,495.521 "/>
<text transform="matrix(1 0 0 1 615.3662 356.8799)" fill="#010201" font-family="'AppleBraille'" font-size="26">⠗⠼⠁</text>
<text transform="matrix(1 0 0 1 613.0273 386.1855)" fill="#010201" font-family="'AppleBraille'" font-size="26">⠼⠃⠃⠚⠨⠺</text>
<g id="partLabel_4_">
	<g transform="translate(260.005,35.4048)">
		<g id="schematicLabel_2_">
			<text transform="matrix(1 0 0 1 363.1141 371.9077)" fill="#532E85" font-family="'ArialMT'" font-size="12.9143">R1</text>
			<text transform="matrix(1 0 0 1 363.1141 390.4048)" fill="#532E85" font-family="'ArialMT'" font-size="12.9143">220Ω</text>
		</g>
	</g>
</g>
<path id="connector0pin_12_" fill="none" stroke="#000000" stroke-width="2" stroke-linecap="round" d="M588.562,531.013V506.11"/>
<g>
	<g>
		<g transform="translate(191.548,91.3167)">
			<g id="schematic_5_">
				<g id="connector0terminal_4_">
				</g>
			</g>
		</g>
	</g>
	<g>
		<path fill="none" stroke="#000000" stroke-width="2" stroke-linecap="round" d="M582.35,522.98"/>
	</g>
</g>
<polygon fill="none" stroke="#000000" stroke-width="2" stroke-linecap="round" points="613.027,532.638 588.562,575.013 
	564.098,532.638 "/>
<line fill="none" stroke="#000000" stroke-width="2" stroke-miterlimit="10" x1="588.562" y1="428.005" x2="589.163" y2="399.345"/>
<path id="connector0pin_3_" fill="none" stroke="#7B7B7B" stroke-width="2" stroke-linecap="round" d="M589.517,399.345"/>
<g id="connector0pin_11_">
	<path d="M589.244,505.756"/>
</g>
<g id="connector1terminal_7_">
	<path fill="none" d="M589.244,426.093L589.244,426.093L589.244,426.093z"/>
</g>
<path fill="none" d="M589.898,506.389L589.898,506.389L589.898,506.389z"/>
<path fill="none" stroke="#000000" stroke-width="2" stroke-miterlimit="10" d="M588.725,444.434"/>
<g id="connector0pin_10_">
	<path d="M590.143,511.066c-0.136,0.773-0.647,1.304-1.312,1.304s-1.31-0.521-1.31-1.304"/>
</g>
<g id="connector1terminal_1_">
	<path fill="none" d="M588.834,432.707L588.834,432.707L588.834,432.707z"/>
</g>
<g>
	<path d="M604.293,485.116h-15.209c-0.768,0-1.521-0.604-1.521-1.521c0-0.771,0.604-1.521,1.521-1.521h15.209
		c0.763,0,1.521,0.604,1.521,1.521C605.66,484.508,605.055,485.116,604.293,485.116z"/>
</g>
<g>
	<path d="M589.084,485.116h-15.213c-0.762,0-1.521-0.604-1.521-1.521c0-0.771,0.604-1.521,1.521-1.521h15.213
		c0.762,0,1.521,0.604,1.521,1.521C590.451,484.508,589.846,485.116,589.084,485.116z"/>
</g>
<g>
	<polygon fill="#FFFFFF" points="589.084,483.743 573.871,453.325 589.084,453.325 604.293,453.325 	"/>
	<path d="M589.084,486.943L571.438,451.8h35.144L589.084,486.943z M576.154,454.695l12.771,25.712l12.777-25.712H576.154z"/>
</g>
<g>
	<path d="M546.508,470.057c-0.354,0-0.545-0.187-0.727-0.355c-0.367-0.361-0.367-1.104,0-1.645l10.666-10.662
		c0.358-0.354,1.09-0.354,1.637,0c0.371,0.361,0.371,1.103,0,1.646l-10.656,10.655C547.057,469.879,546.693,470.057,546.508,470.057
		z"/>
</g>
<g>
	<path d="M548.246,500.961c-0.367,0-0.549-0.178-0.729-0.354c-0.354-0.369-0.354-1.104,0-1.646l10.748-10.725
		c0.366-0.366,1.104-0.366,1.646,0c0.369,0.354,0.369,1.098,0,1.636l-10.752,10.729
		C548.793,500.775,548.426,500.961,548.246,500.961z"/>
</g>
<g id="connector0pin_14_">
	<path d="M589.084,515.534c-0.768,0-1.521-0.604-1.521-1.521V483.59c0-0.771,0.604-1.521,1.521-1.521
		c0.762,0,1.521,0.604,1.521,1.521v30.424C590.451,514.926,589.846,515.534,589.084,515.534z"/>
</g>
<g id="connector0terminal_7_">
	<path fill="none" d="M589.084,460.93L589.084,460.93L589.084,460.93z"/>
</g>
<g id="connector1pin_3_">
	<path d="M589.084,454.695c-0.768,0-1.521-0.604-1.521-1.521v-30.423c0-0.771,0.604-1.521,1.521-1.521
		c0.762,0,1.521,0.605,1.521,1.521v30.423C590.451,454.088,589.846,454.695,589.084,454.695z"/>
</g>
<g id="connector1terminal_8_">
	<path fill="none" d="M589.084,422.902L589.084,422.902L589.084,422.902z"/>
</g>
<g>
	<path fill="none" stroke="#000000" stroke-width="2" stroke-miterlimit="10" d="M537.09,478.385l5.48-12.771l7.301,7.309
		L537.09,478.385z"/>
</g>
<g>
	<path fill="none" stroke="#000000" stroke-width="2" stroke-miterlimit="10" d="M538.916,509.213l5.476-12.771l7.312,7.302
		L538.916,509.213z"/>
</g>
<g id="partLabel_6_">
	<g>
		<g>
			<g transform="translate(141.845,94.5703)">
				<g id="schematicLabel_21_">
					<text transform="matrix(1 0 0 1 482.5495 401.0303)" fill="#532E85" font-family="'ArialMT'" font-size="13">LED1</text>
				</g>
			</g>
		</g>
	</g>
</g>
<g>
	<g>
		<text transform="matrix(1 0 0 1 621.8447 471.8857)" font-family="'AppleBraille'" font-size="26">⠇⠑⠙⠼⠁</text>
	</g>
</g>
</svg>
