<?xml version="1.0" encoding="UTF-8"?>
<svg width="754px" height="593px" viewBox="0 0 754 593" version="1.1" xmlns="http://www.w3.org/2000/svg" xmlns:xlink="http://www.w3.org/1999/xlink">
    <!-- Generator: Sketch 48.2 (47327) - http://www.bohemiancoding.com/sketch -->
    <title>projection-elevation</title>
    <desc>Created with Sketch.</desc>
    <defs></defs>
    <g id="Page-1" stroke="none" stroke-width="1" fill="none" fill-rule="evenodd">
        <g id="projection-elevation" transform="translate(1.000000, 1.000000)">
            <g id="Layer_1" stroke="#000000" stroke-width="4">
                <path d="M27.9,4 L5.7,26.2" id="Shape"></path>
                <path d="M42.3,0.5 L0.7,42.1" id="Shape"></path>
            </g>
            <g id="braille" transform="translate(29.000000, 23.000000)" fill="#000000" font-family="AppleBraille, Apple Braille" font-size="30" font-weight="normal">
                <text id="⠠⠏⠗⠕⠚⠑⠉⠰⠝⠀⠑⠇⠑⠧⠁⠰⠝">
                    <tspan x="6.2185" y="23.3516">⠠⠏⠗⠕⠚⠑⠉⠰⠝⠀⠑⠇⠑⠧⠁⠰⠝</tspan>
                </text>
                <g id="Group" transform="translate(7.218500, 84.351600)">
                    <text id="⠠⠱⠊⠞⠑⠀⠃⠁⠉⠅⠙⠗⠕⠏⠀">
                        <tspan x="0" y="23">⠠⠱⠊⠞⠑⠀⠃⠁⠉⠅⠙⠗⠕⠏⠀</tspan>
                    </text>
                    <text id="⠆⠓⠀⠧⠊⠑⠺⠻">
                        <tspan x="0" y="59">⠆⠓⠀⠧⠊⠑⠺⠻</tspan>
                    </text>
                </g>
                <g id="Group" transform="translate(310.218500, 89.351600)">
                    <text id="⠠⠁⠝⠛⠇⠑⠀⠷⠀⠉⠁⠍⠻⠁⠀⠧⠊⠑⠺⠂⠀">
                        <tspan x="0" y="23">⠠⠁⠝⠛⠇⠑⠀⠷⠀⠉⠁⠍⠻⠁⠀⠧⠊⠑⠺⠂⠀</tspan>
                    </text>
                    <text id="⠉⠀⠆-⠁⠙⠚⠥⠌⠫⠀⠎⠇⠊⠣⠞⠇⠽⠀⠁⠞⠀">
                        <tspan x="0" y="59">⠉⠀⠆</tspan>
                        <tspan x="61.5234375" y="59" font-family="Helvetica"> </tspan>
                        <tspan x="69.8583984" y="59">⠁⠙⠚⠥⠌⠫⠀⠎⠇⠊⠣⠞⠇⠽⠀⠁⠞⠀</tspan>
                    </text>
                    <text id="⠐⠞⠀⠷⠀⠔⠌⠁⠇⠇⠁⠰⠝">
                        <tspan x="0" y="95">⠐⠞⠀⠷⠀⠔⠌⠁⠇⠇⠁⠰⠝</tspan>
                    </text>
                </g>
                <text id="⠼⠁⠁⠀⠋⠞⠲">
                    <tspan x="228.9114" y="569.5352">⠼⠁⠁⠀⠋⠞⠲</tspan>
                </text>
                <text id="⠼⠓⠑⠀⠔⠲">
                    <tspan x="0.9114" y="372.5352">⠼⠓⠑⠀⠔⠲</tspan>
                </text>
                <text id="⠼⠁⠊⠘⠚">
                    <tspan x="421.2448" y="283.5352">⠼⠁⠊⠘⠚</tspan>
                </text>
            </g>
            <g id="plaintext" transform="translate(36.000000, 61.000000)">
                <text id="11-feet" fill="#939597" font-family="Helvetica" font-size="14" font-weight="normal">
                    <tspan x="386.3186" y="528.3799">11 feet</tspan>
                </text>
                <text id="85-in." fill="#939597" font-family="Helvetica" font-size="14" font-weight="normal">
                    <tspan x="18.3186" y="392.3799">85 in.</tspan>
                </text>
                <text id="19°" fill="#939597" font-family="Helvetica" font-size="21.3465" font-weight="normal">
                    <tspan x="471.667" y="303.9021">19°</tspan>
                </text>
                <text id="Projection-elevation" fill="#939597" font-family="Helvetica" font-size="21" font-weight="normal">
                    <tspan x="0.17" y="20.3086">Projection elevation</tspan>
                </text>
                <text id="White-backdrop-behind-viewer" fill="#939597" font-family="Helvetica" font-size="14" font-weight="normal">
                    <tspan x="1.17" y="144.3086">White backdrop behind viewer</tspan>
                </text>
                <g id="Group" transform="translate(350.170000, 16.308600)" fill="#939597" font-family="Helvetica" font-size="14" font-weight="normal">
                    <text id="Angle-of-camera-view,-can-be">
                        <tspan x="0" y="14">Angle of camera view, can be</tspan>
                    </text>
                    <text id="adjusted-slightly-at-time-of-installation">
                        <tspan x="0" y="30.8">adjusted slightly at time of installation</tspan>
                    </text>
                </g>
                <rect id="Rectangle-path" stroke="#000000" x="124" y="217.3" width="10.7" height="280.6"></rect>
                <rect id="Rectangle-path" stroke="#000000" x="610.4" y="196" width="36.6" height="308"></rect>
                <path d="M134.7,497.9 L608.9,497.9" id="Shape" stroke="#000000"></path>
                <path d="M355.2,391.2 C355.2,392.1 355.2,393 355.2,393.9 C356.1,409.5 353.3,424.9 352.9,440.4 C352.6,452.6 352.8,464.8 352.8,477 C352.8,478.7 352.8,480.5 352.7,482.2 C352.7,482.8 352.8,483.7 352.5,484 C348.5,486.8 351.7,490.3 351.8,493.3 C352,497.6 352.1,497.9 347.8,497.9 C344.7,497.9 341.5,497.9 338.4,497.9 C336.5,497.9 335.6,497.4 336.1,495.2 C336.4,493.8 336.9,492.5 337.3,491.1 C337.9,489.1 339.4,486.9 335.9,485.8 C334.8,485.5 335,484.1 335,483.1 C334.8,471 331.9,459.2 331.5,447.1 C331.3,441.2 330.3,435.4 331.1,429.5 C331.9,423.2 331.3,416.9 329.6,410.8 C326.6,399.9 327.6,388.8 327.9,377.8 C328.1,371.8 329.1,365.9 330.1,360 C330.5,357.7 330.7,355.4 331.6,353.2 C333.1,349.8 331.4,346.2 331.8,342.7 C332.3,338.4 332.3,334 332.5,329.6 C333.1,319.7 331.6,310 329.9,300.2 C329.7,299 329.3,298 328.4,297.3 C324.8,294.4 323.1,290.4 322.2,286.1 C321.8,284.3 321.1,282.7 319.9,281.3 C317.8,278.9 316.4,276.1 315.9,272.9 C315.5,270.4 314.5,268 313.3,265.8 C310.3,259.9 309,253.7 308.5,247.1 C307.9,239.3 308.2,231.5 307,223.7 C306.6,221.4 307.3,219.3 308.4,217.3 C310,214.5 313.9,213.6 316.7,215.3 C317.6,215.9 317.4,216.7 317.4,217.5 C317.4,219.6 317.1,221.7 317.6,223.9 C319,224.1 319,221.3 320.5,222.6 C321.6,223.6 321.1,225.1 320.5,226.3 C319.6,228.4 318.6,230.3 316.9,231.9 C314.5,234.1 313.9,236.4 315.7,239.2 C320.2,246.3 323.3,254 325.1,262.2 C325.9,266 329,267.8 331.7,269.8 C333.4,271.1 334.9,272.3 335.4,274.4 C335.8,276.3 337,276.8 338.7,276.8 C342.5,276.8 346.2,276.8 350,276.7 C353.6,276.6 354.9,275.4 355.4,271.8 C355.6,270 355.5,268.2 354.9,266.4 C353.6,262.7 352.4,258.9 351.3,255.1 C349.2,247.9 352.1,242.8 359.4,241.2 C364,240.2 368.3,241 372.3,243.4 C375.5,245.3 376.9,248.5 376.2,252.3 C375.3,256.6 374.2,260.8 372.5,264.8 C369.7,271.4 372,276.9 375.9,282 C379.9,287.3 386,289.7 391.7,292.5 C396,294.6 396.8,297.9 397,301.9 C397,302.2 397.1,302.6 396.9,302.8 C393.2,306.9 396.1,311.3 396.3,315.5 C396.5,319.7 396.8,323.8 396.2,327.9 C395.7,330.9 395.9,333.9 396.8,336.9 C399.5,345.4 400.9,354.1 401.5,362.9 C401.7,365.3 402.2,367.5 403,369.7 C405.4,376.2 402.6,381.7 399.5,387.2 C399.2,387.7 398.6,388.2 398,387.9 C397.4,387.7 397.6,387 397.6,386.6 C397.8,384.2 397.4,382.1 396.1,380 C395.2,378.4 395.7,376.2 396,374.3 C396.4,372 395.9,370 395.1,367.7 C391.5,358.1 386.3,348.9 385.9,338.2 C385.6,331.6 381.8,326 380.4,319.5 C378.3,324.4 377.9,329.6 378.3,334.8 C379.1,344.4 378.7,354.1 380.8,363.5 C382.9,373.1 383,382.8 383.2,392.5 C383.4,400.8 381.6,408.8 380,416.9 C379.5,419.6 379.4,422.4 379.5,425.1 C380,441.9 378.7,458.6 376.1,475.1 C375.7,477.8 375.9,480.6 375.8,483.3 C375.8,484.8 375.7,486.2 373.8,486.5 C372.5,486.7 372.7,487.7 372.7,488.6 C372.8,490.5 373.7,492.1 374.3,493.8 C375.3,497.1 374.8,498 371.5,498 C368,498.1 364.6,498 361.1,498 C359.6,498 359,497.4 358.9,495.9 C358.8,494.4 359.2,493.1 359.2,491.7 C359.1,489.3 361.8,486.5 358.3,484.5 C357.9,484.3 358,483 358,482.2 C357.6,467.5 357.1,452.8 357.4,438.1 C357.5,432.4 357.2,426.7 356.3,421.1 C354.9,412.7 355.8,404.3 355.5,395.9 C355.5,394.5 355.5,393.1 355.5,391.7 C355.4,391.2 355.3,391.2 355.2,391.2 Z" id="Shape" stroke="#000000" stroke-width="2"></path>
                <path d="M134.7,217.3 L610.4,217.3" id="Shape" stroke="#000000"></path>
                <path d="M133.1,382 L610.4,217.3" id="Shape" stroke="#000000"></path>
                <path d="M403,217.3 C403,254.4 409.1,284.4 416.7,284.4" id="Shape" stroke="#000000"></path>
            </g>
        </g>
    </g>
</svg>