<?xml version="1.0" encoding="utf-8"?>
<!-- Generator: Adobe Illustrator 21.1.0, SVG Export Plug-In . SVG Version: 6.00 Build 0)  -->
<svg version="1.1" xmlns="http://www.w3.org/2000/svg" xmlns:xlink="http://www.w3.org/1999/xlink" x="0px" y="0px"
	 viewBox="0 0 792 612" style="enable-background:new 0 0 792 612;" xml:space="preserve">
<style type="text/css">
	.st0{fill:none;stroke:#000000;stroke-width:4;stroke-miterlimit:10;}
	.st1{font-family:'AppleBraille';}
	.st2{font-size:30px;}
	.st3{enable-background:new    ;}
	.st4{fill:#939597;}
	.st5{font-family:'Helvetica';}
	.st6{font-size:14px;}
	.st7{font-size:21.3465px;}
	.st8{font-family:'ArialMT';}
	.st9{font-size:21px;}
	.st10{fill:none;stroke:#000000;stroke-miterlimit:10;}
	.st11{fill:none;stroke:#000000;stroke-width:2;stroke-miterlimit:10;}
</style>
<g id="Layer_1">
	<g transform="translate(214.282,28.9157)">
	</g>
	<line class="st0" x1="29.9" y1="5" x2="7.7" y2="27.2"/>
	<line class="st0" x1="44.3" y1="1.5" x2="2.7" y2="43.1"/>
</g>
<g id="braille">
	<text transform="matrix(1 0 0 1 37.2185 53.3516)" class="st1 st2">⠠⠏⠗⠕⠚⠑⠉⠰⠝⠀⠑⠇⠑⠧⠁⠰⠝</text>
	<text transform="matrix(1 0 0 1 38.2185 137.3516)" class="st3"><tspan x="0" y="0" class="st1 st2">⠠⠱⠊⠞⠑⠀⠃⠁⠉⠅⠙⠗⠕⠏⠀</tspan><tspan x="0" y="36" class="st1 st2">⠆⠓⠀⠧⠊⠑⠺⠻</tspan></text>
	<text transform="matrix(1 0 0 1 341.2185 142.3516)" class="st3"><tspan x="0" y="0" class="st1 st2">⠠⠁⠝⠛⠇⠑⠀⠷⠀⠉⠁⠍⠻⠁⠀⠧⠊⠑⠺⠂⠀</tspan><tspan x="0" y="36" class="st1 st2">⠉⠀⠆ ⠁⠙⠚⠥⠌⠫⠀⠎⠇⠊⠣⠞⠇⠽⠀⠁⠞⠀</tspan><tspan x="0" y="72" class="st1 st2">⠐⠞⠀⠷⠀⠔⠌⠁⠇⠇⠁⠰⠝</tspan></text>
	<text transform="matrix(1 0 0 1 259.9114 599.5352)" class="st1 st2">⠼⠁⠁⠀⠋⠞⠲</text>
	<text transform="matrix(1 0 0 1 31.9114 402.5352)" class="st1 st2">⠼⠓⠑⠀⠔⠲</text>
	<text transform="matrix(1 0 0 1 452.2448 313.5352)" class="st1 st2">⠼⠁⠊⠘⠚</text>
</g>
<g id="plaintext">
	<text transform="matrix(1 0 0 1 424.3186 590.3799)" class="st4 st5 st6">11 feet</text>
	<text transform="matrix(1 0 0 1 56.3186 454.3799)" class="st4 st5 st6">85 in.</text>
	<text transform="matrix(1 0 0 1 509.667 365.9021)" class="st4 st5 st7">19°</text>
	<g>
		<text transform="matrix(1 0 0 1 38.17 82.3086)" class="st4 st8 st9">Projection elevation</text>
	</g>
	<g>
		<text transform="matrix(1 0 0 1 39.17 206.3086)" class="st4 st8 st6">White backdrop behind viewer</text>
	</g>
	<g>
		<text transform="matrix(1 0 0 1 388.17 92.3086)" class="st3"><tspan x="0" y="0" class="st4 st8 st6">Angle of camera view, can be</tspan><tspan x="0" y="16.8" class="st4 st8 st6">adjusted slightly at time of installation</tspan></text>
	</g>
	<rect x="162" y="279.3" class="st10" width="10.7" height="280.6"/>
	<rect x="648.4" y="258" class="st10" width="36.6" height="308"/>
	<line class="st10" x1="172.7" y1="559.9" x2="646.9" y2="559.9"/>
	<path class="st11" d="M393.2,453.2c0,0.9,0,1.8,0,2.7c0.9,15.6-1.9,31-2.3,46.5c-0.3,12.2-0.1,24.4-0.1,36.6c0,1.7,0,3.5-0.1,5.2
		c0,0.6,0.1,1.5-0.2,1.8c-4,2.8-0.8,6.3-0.7,9.3c0.2,4.3,0.3,4.6-4,4.6c-3.1,0-6.3,0-9.4,0c-1.9,0-2.8-0.5-2.3-2.7
		c0.3-1.4,0.8-2.7,1.2-4.1c0.6-2,2.1-4.2-1.4-5.3c-1.1-0.3-0.9-1.7-0.9-2.7c-0.2-12.1-3.1-23.9-3.5-36c-0.2-5.9-1.2-11.7-0.4-17.6
		c0.8-6.3,0.2-12.6-1.5-18.7c-3-10.9-2-22-1.7-33c0.2-6,1.2-11.9,2.2-17.8c0.4-2.3,0.6-4.6,1.5-6.8c1.5-3.4-0.2-7,0.2-10.5
		c0.5-4.3,0.5-8.7,0.7-13.1c0.6-9.9-0.9-19.6-2.6-29.4c-0.2-1.2-0.6-2.2-1.5-2.9c-3.6-2.9-5.3-6.9-6.2-11.2
		c-0.4-1.8-1.1-3.4-2.3-4.8c-2.1-2.4-3.5-5.2-4-8.4c-0.4-2.5-1.4-4.9-2.6-7.1c-3-5.9-4.3-12.1-4.8-18.7c-0.6-7.8-0.3-15.6-1.5-23.4
		c-0.4-2.3,0.3-4.4,1.4-6.4c1.6-2.8,5.5-3.7,8.3-2c0.9,0.6,0.7,1.4,0.7,2.2c0,2.1-0.3,4.2,0.2,6.4c1.4,0.2,1.4-2.6,2.9-1.3
		c1.1,1,0.6,2.5,0,3.7c-0.9,2.1-1.9,4-3.6,5.6c-2.4,2.2-3,4.5-1.2,7.3c4.5,7.1,7.6,14.8,9.4,23c0.8,3.8,3.9,5.6,6.6,7.6
		c1.7,1.3,3.2,2.5,3.7,4.6c0.4,1.9,1.6,2.4,3.3,2.4c3.8,0,7.5,0,11.3-0.1c3.6-0.1,4.9-1.3,5.4-4.9c0.2-1.8,0.1-3.6-0.5-5.4
		c-1.3-3.7-2.5-7.5-3.6-11.3c-2.1-7.2,0.8-12.3,8.1-13.9c4.6-1,8.9-0.2,12.9,2.2c3.2,1.9,4.6,5.1,3.9,8.9c-0.9,4.3-2,8.5-3.7,12.5
		c-2.8,6.6-0.5,12.1,3.4,17.2c4,5.3,10.1,7.7,15.8,10.5c4.3,2.1,5.1,5.4,5.3,9.4c0,0.3,0.1,0.7-0.1,0.9c-3.7,4.1-0.8,8.5-0.6,12.7
		c0.2,4.2,0.5,8.3-0.1,12.4c-0.5,3-0.3,6,0.6,9c2.7,8.5,4.1,17.2,4.7,26c0.2,2.4,0.7,4.6,1.5,6.8c2.4,6.5-0.4,12-3.5,17.5
		c-0.3,0.5-0.9,1-1.5,0.7c-0.6-0.2-0.4-0.9-0.4-1.3c0.2-2.4-0.2-4.5-1.5-6.6c-0.9-1.6-0.4-3.8-0.1-5.7c0.4-2.3-0.1-4.3-0.9-6.6
		c-3.6-9.6-8.8-18.8-9.2-29.5c-0.3-6.6-4.1-12.2-5.5-18.7c-2.1,4.9-2.5,10.1-2.1,15.3c0.8,9.6,0.4,19.3,2.5,28.7
		c2.1,9.6,2.2,19.3,2.4,29c0.2,8.3-1.6,16.3-3.2,24.4c-0.5,2.7-0.6,5.5-0.5,8.2c0.5,16.8-0.8,33.5-3.4,50c-0.4,2.7-0.2,5.5-0.3,8.2
		c0,1.5-0.1,2.9-2,3.2c-1.3,0.2-1.1,1.2-1.1,2.1c0.1,1.9,1,3.5,1.6,5.2c1,3.3,0.5,4.2-2.8,4.2c-3.5,0.1-6.9,0-10.4,0
		c-1.5,0-2.1-0.6-2.2-2.1c-0.1-1.5,0.3-2.8,0.3-4.2c-0.1-2.4,2.6-5.2-0.9-7.2c-0.4-0.2-0.3-1.5-0.3-2.3c-0.4-14.7-0.9-29.4-0.6-44.1
		c0.1-5.7-0.2-11.4-1.1-17c-1.4-8.4-0.5-16.8-0.8-25.2c0-1.4,0-2.8,0-4.2C393.4,453.2,393.3,453.2,393.2,453.2z"/>
	<line class="st10" x1="172.7" y1="279.3" x2="648.4" y2="279.3"/>
	<line class="st10" x1="171.1" y1="444" x2="648.4" y2="279.3"/>
	<path class="st10" d="M441,279.3c0,37.1,6.1,67.1,13.7,67.1"/>
</g>
</svg>
