<?xml version="1.0" encoding="utf-8"?>
<!-- Generator: Adobe Illustrator 21.1.0, SVG Export Plug-In . SVG Version: 6.00 Build 0)  -->
<svg version="1.1" id="Layer_2" xmlns="http://www.w3.org/2000/svg" xmlns:xlink="http://www.w3.org/1999/xlink" x="0px" y="0px"
	 viewBox="0 0 792 612" style="enable-background:new 0 0 792 612;" xml:space="preserve">
<style type="text/css">
	.st0{fill:none;stroke:#000000;stroke-width:2;stroke-linecap:round;}
	.st1{fill:none;stroke:#000000;stroke-width:2;}
	.st2{fill:none;stroke:#555555;stroke-width:2;stroke-linecap:round;}
	.st3{fill:#FFFFFF;}
	.st4{enable-background:new    ;}
	.st5{font-family:'ArialMT';}
	.st6{font-size:13.0465px;}
	.st7{font-family:'AppleBraille';}
	.st8{font-size:29px;}
</style>
<g id="connector1terminal_4_">
</g>
<g id="connector0terminal_4_">
</g>
<g>
	<line class="st0" x1="590" y1="146.7" x2="590" y2="142"/>
	<line class="st0" x1="590" y1="179.6" x2="580.7" y2="146.7"/>
	<circle class="st1" cx="590" cy="179.6" r="0.9"/>
	<circle class="st1" cx="590" cy="142" r="0.9"/>
	<line id="connector2pin_1_" class="st2" x1="590.3" y1="197.5" x2="590.3" y2="179.6"/>
	<line id="connector0pin_13_" class="st2" x1="590.3" y1="124.1" x2="590.3" y2="142"/>
</g>
<g id="partLabel_7_">
	<g transform="translate(214.282,28.9157)">
	</g>
</g>
<g>
	<path d="M450.8,580.1h-9.4c-0.5,0-0.9-0.4-0.9-0.9s0.4-0.9,0.9-0.9h9.4c0.5,0,0.9,0.4,0.9,0.9S451.3,580.1,450.8,580.1z"/>
	<path d="M441.4,580.1H432c-0.5,0-0.9-0.4-0.9-0.9s0.4-0.9,0.9-0.9h9.4c0.5,0,0.9,0.4,0.9,0.9S441.9,580.1,441.4,580.1z"/>
	<polygon class="st3" points="441.4,579.2 432,560.4 441.4,560.4 450.8,560.4 	"/>
	<path d="M441.4,581.3l-10.9-21.7h21.8L441.4,581.3z M433.5,561.4l7.9,15.8l7.9-15.8H433.5z"/>
	<path d="M420.3,572.8c-0.2,0-0.3-0.1-0.4-0.2c-0.2-0.2-0.2-0.6,0-0.8l6.1-6.1c0.2-0.2,0.6-0.2,0.8,0s0.2,0.6,0,0.8l-6.1,6.1
		C420.6,572.7,420.4,572.8,420.3,572.8z"/>
	<path d="M421.2,581.2c-0.2,0-0.3-0.1-0.4-0.2c-0.2-0.2-0.2-0.6,0-0.8l6.1-6.1c0.2-0.2,0.6-0.2,0.8,0s0.2,0.6,0,0.8l-6.1,6.1
		C421.5,581.2,421.4,581.2,421.2,581.2z"/>
	<path d="M441.4,598.9c-0.5,0-0.9-0.4-0.9-0.9v-18.8c0-0.5,0.4-0.9,0.9-0.9s0.9,0.4,0.9,0.9V598
		C442.3,598.5,441.9,598.9,441.4,598.9z"/>
	<path d="M441.4,561.4c-0.5,0-0.9-0.4-0.9-0.9v-18.8c0-0.5,0.4-0.9,0.9-0.9s0.9,0.4,0.9,0.9v18.8
		C442.3,560.9,441.9,561.4,441.4,561.4z"/>
	<path d="M416.1,576.4l2.8-6.6l3.8,3.8L416.1,576.4z"/>
	<path d="M417,584.9l2.8-6.6l3.8,3.8L417,584.9z"/>
</g>
<g>
	<path d="M168.5,578.9h-9.4c-0.5,0-0.9-0.4-0.9-0.9s0.4-0.9,0.9-0.9h9.4c0.5,0,0.9,0.4,0.9,0.9S169,578.9,168.5,578.9z"/>
	<path d="M159.1,578.9h-9.4c-0.5,0-0.9-0.4-0.9-0.9s0.4-0.9,0.9-0.9h9.4c0.5,0,0.9,0.4,0.9,0.9S159.6,578.9,159.1,578.9z"/>
	<polygon class="st3" points="159.1,578 149.7,559.2 159.1,559.2 168.5,559.2 	"/>
	<path d="M159.1,580.1l-10.9-21.7H170L159.1,580.1z M151.2,560.2l7.9,15.8l7.9-15.8H151.2z"/>
	<path d="M159.1,597.7c-0.5,0-0.9-0.4-0.9-0.9V578c0-0.5,0.4-0.9,0.9-0.9s0.9,0.4,0.9,0.9v18.8C160,597.3,159.6,597.7,159.1,597.7z"
		/>
	<path d="M159.1,560.2c-0.5,0-0.9-0.4-0.9-0.9v-18.8c0-0.5,0.4-0.9,0.9-0.9s0.9,0.4,0.9,0.9v18.8C160,559.7,159.6,560.2,159.1,560.2
		z"/>
</g>
<g>
	<line class="st0" x1="356.2" y1="157.9" x2="399.9" y2="157.9"/>
	<line class="st0" x1="378" y1="166.6" x2="378" y2="179.7"/>
	<path class="st0" d="M378,166.5c7.8,0,15.3,2.6,21.4,7.3"/>
	<path class="st0" d="M356.8,173.8c6.1-4.7,13.5-7.2,21.2-7.2"/>
	<rect x="361.6" y="147" class="st0" width="7.6" height="1.1"/>
	<rect x="364.9" y="143.8" class="st0" width="1.1" height="7.6"/>
	<line id="connector1pin_2_" class="st0" x1="378" y1="136" x2="378" y2="157.9"/>
	<line id="connector0pin_2_" class="st0" x1="378" y1="201.6" x2="378" y2="179.7"/>
</g>
<g>
	<line class="st0" x1="86.2" y1="138" x2="129.9" y2="138"/>
	<line class="st0" x1="86.2" y1="146.2" x2="129.9" y2="146.2"/>
	<line class="st0" x1="108" y1="146.7" x2="108" y2="159.8"/>
	<line id="connector1pin_1_" class="st0" x1="108" y1="116.1" x2="108" y2="138"/>
	<line id="connector0pin_1_" class="st0" x1="108" y1="181.7" x2="108" y2="159.8"/>
</g>
<g>
	<line class="st0" x1="371.7" y1="340.5" x2="352.3" y2="349.8"/>
	<line class="st0" x1="365.9" y1="371.4" x2="371.7" y2="379.1"/>
	<line class="st0" x1="371.7" y1="379.1" x2="362" y2="379.1"/>
	<line class="st0" x1="362" y1="379.1" x2="365.9" y2="371.4"/>
	<line class="st0" x1="364.1" y1="375.3" x2="352.3" y2="368.6"/>
	<line class="st0" x1="363.9" y1="378.2" x2="369.7" y2="378.2"/>
	<line class="st0" x1="369.7" y1="378.2" x2="365.9" y2="373.3"/>
	<line class="st0" x1="365.9" y1="373.3" x2="363.9" y2="377.2"/>
	<line class="st0" x1="363.9" y1="377.2" x2="366.8" y2="377.2"/>
	<line class="st0" x1="366.8" y1="377.2" x2="365.9" y2="375.3"/>
	<line id="connector0pin_5_" class="st0" x1="333" y1="361.1" x2="352.3" y2="361.1"/>
	<line id="connector2pin_2_" class="st0" x1="371.7" y1="398.4" x2="371.7" y2="379.1"/>
	<line id="connector1pin_5_" class="st0" x1="371.7" y1="321.1" x2="371.7" y2="340.5"/>
	<line class="st0" x1="352.3" y1="340.5" x2="352.3" y2="379.1"/>
</g>
<g>
	<line class="st0" x1="133.7" y1="340.9" x2="110.8" y2="351.9"/>
	<line class="st0" x1="110.2" y1="368.3" x2="133.7" y2="380.6"/>
	<line class="st0" x1="116.8" y1="343.9" x2="120.8" y2="351.9"/>
	<line class="st0" x1="120.8" y1="351.9" x2="110.8" y2="351.9"/>
	<line class="st0" x1="110.8" y1="351.9" x2="116.8" y2="343.9"/>
	<line class="st0" x1="116.4" y1="345.7" x2="119.2" y2="351.1"/>
	<line class="st0" x1="115.8" y1="346.9" x2="117.8" y2="351.1"/>
	<line class="st0" x1="114.8" y1="347.9" x2="116.4" y2="351.1"/>
	<line class="st0" x1="114.2" y1="349.1" x2="115" y2="350.9"/>
	<line class="st0" x1="113.2" y1="349.9" x2="113.8" y2="351.1"/>
	<line id="connector0pin_4_" class="st0" x1="94" y1="362.1" x2="110.2" y2="362.1"/>
	<line id="connector1pin_6_" class="st0" x1="133.7" y1="400.5" x2="133.7" y2="380.6"/>
	<line id="connector2pin" class="st0" x1="133.7" y1="321.1" x2="133.7" y2="340.9"/>
	<line class="st0" x1="110.2" y1="341.9" x2="110.2" y2="380.6"/>
</g>
<text transform="matrix(1 0 0 1 -45.3078 552.7351)" class="st5 st6">R1</text>
<g id="partLabel_21_">
</g>
<text transform="matrix(1 0 0 1 344.0703 42.4901)" class="st5 st6">Polarized</text>
<text transform="matrix(1 0 0 1 343.3703 58.1901)" class="st5 st6">Capacitor</text>
<text transform="matrix(1 0 0 1 80.6279 42.5901)" class="st5 st6">Capacitor</text>
<text transform="matrix(1 0 0 1 399.079 443.641)" class="st5 st6">Light-emitting</text>
<text transform="matrix(1 0 0 1 421.1791 459.3409)" class="st5 st6">Diode</text>
<text transform="matrix(1 0 0 1 584.2871 34.491)" class="st5 st6">Switch</text>
<text transform="matrix(1 0 0 1 152.8369 442.4411)" class="st5 st6">Diode</text>
<text transform="matrix(1 0 0 1 102.7246 231.501)" class="st5 st6">Transistor</text>
<text transform="matrix(1 0 0 1 113.9246 247.201)" class="st5 st6">(PNP)</text>
<text transform="matrix(1 0 0 1 338.8816 231.5011)" class="st5 st6">Transistor</text>
<text transform="matrix(1 0 0 1 349.7816 247.2011)" class="st5 st6">(NPN)</text>
<text transform="matrix(1 0 0 1 541.5073 84.058)" class="st7 st8">⠠⠎⠺⠊⠞⠉⠓</text>
<text transform="matrix(1 0 0 1 3.9659 80.3999)" class="st7 st8">⠠⠉⠁⠏⠁⠉⠊⠞⠕⠗</text>
<text transform="matrix(1 0 0 1 257.5229 89.208)" class="st4"><tspan x="0" y="0" class="st7 st8">⠠⠏⠕⠇⠁⠗⠊⠵⠑⠙ </tspan><tspan x="5" y="34.8" class="st7 st8">⠠⠉⠁⠏⠁⠉⠊⠞⠕⠗</tspan></text>
<text transform="matrix(1 0 0 1 93.3643 486.2083)" class="st7 st8">⠠⠙⠊⠕⠙⠑</text>
<text transform="matrix(1 0 0 1 268.7548 492.1083)" class="st4"><tspan x="0" y="0" class="st7 st8">⠠⠇⠊⠛⠓⠞⠤⠠⠑⠍⠊⠞⠞⠊⠝⠛ </tspan><tspan x="104.1" y="34.8" class="st7 st8">⠠⠙⠊⠕⠙⠑</tspan></text>
<text transform="matrix(1 0 0 1 19.5291 281.0682)" class="st4"><tspan x="0" y="0" class="st7 st8">⠠⠞⠗⠁⠝⠎⠊⠎⠞⠕⠗ </tspan><tspan x="44.6" y="34.8" class="st7 st8">⠦⠠⠠⠏⠝⠏⠴</tspan></text>
<text transform="matrix(1 0 0 1 264.011 281.0679)" class="st4"><tspan x="0" y="0" class="st7 st8">⠠⠞⠗⠁⠝⠎⠊⠎⠞⠕⠗ </tspan><tspan x="44.6" y="34.8" class="st7 st8">⠦⠠⠠⠝⠏⠝⠴</tspan></text>
</svg>
