<?xml version="1.0" encoding="utf-8"?>
<!-- Generator: Adobe Illustrator 16.0.0, SVG Export Plug-In . SVG Version: 6.00 Build 0)  -->
<!DOCTYPE svg PUBLIC "-//W3C//DTD SVG 1.1//EN" "http://www.w3.org/Graphics/SVG/1.1/DTD/svg11.dtd">
<svg version="1.1" id="Layer_1" xmlns="http://www.w3.org/2000/svg" xmlns:xlink="http://www.w3.org/1999/xlink" x="0px" y="0px"
	 width="612px" height="792px" viewBox="0 0 612 792" enable-background="new 0 0 612 792" xml:space="preserve">
<g id="Layer_2">
	<g id="connector1terminal_4_">
	</g>
	<g id="connector0terminal_4_">
	</g>
	<g id="partLabel_7_">
		<g transform="translate(214.282,28.9157)">
		</g>
	</g>
	<g id="partLabel_21_">
	</g>
	<text transform="matrix(1 0 0 1 42.6436 489.6729)" font-family="'AppleBraille'" font-size="30">⠠⠞⠗⠁⠝⠎⠊⠎⠞⠕⠗ </text>
	<text transform="matrix(1 0 0 1 42.6436 520.5635)" font-family="'AppleBraille'" font-size="30">⠦⠠⠠⠝⠏⠝⠴</text>
	<text transform="matrix(1 0 0 1 350.8252 489.6719)" font-family="'AppleBraille'" font-size="30">⠠⠞⠗⠁⠝⠎⠊⠎⠞⠕⠗ </text>
	<text transform="matrix(1 0 0 1 350.8252 520.5625)" font-family="'AppleBraille'" font-size="30">⠦⠠⠠⠏⠝⠏⠴</text>
	<text transform="matrix(1 0 0 1 228.2793 648.6719)" font-family="'AppleBraille'" font-size="30">⠠⠗⠑⠇⠁⠽</text>
	<text transform="matrix(1 0 0 1 82.8721 212.6699)" font-family="'AppleBraille'" font-size="30">⠠⠎⠏⠑⠅⠑⠗</text>
	<text transform="matrix(1 0 0 1 296.1445 214.6699)" font-family="'AppleBraille'" font-size="30">⠠⠍⠊⠉⠗⠕⠏⠓⠕⠝⠑</text>
	<g>
		
			<line fill="none" stroke="#000000" stroke-width="2" stroke-linecap="round" x1="103.345" y1="552.041" x2="88.432" y2="559.229"/>
		
			<line fill="none" stroke="#000000" stroke-width="2" stroke-linecap="round" x1="98.864" y1="575.918" x2="103.345" y2="581.945"/>
		<line fill="none" stroke="#000000" stroke-width="2" stroke-linecap="round" x1="103.345" y1="581.945" x2="95.85" y2="581.945"/>
		<line fill="none" stroke="#000000" stroke-width="2" stroke-linecap="round" x1="95.85" y1="581.945" x2="98.864" y2="575.918"/>
		<line fill="none" stroke="#000000" stroke-width="2" stroke-linecap="round" x1="97.473" y1="579.009" x2="88.432" y2="573.755"/>
		<line fill="none" stroke="#000000" stroke-width="2" stroke-linecap="round" x1="97.318" y1="581.173" x2="101.8" y2="581.173"/>
		<line fill="none" stroke="#000000" stroke-width="2" stroke-linecap="round" x1="101.8" y1="581.173" x2="98.864" y2="577.464"/>
		<line fill="none" stroke="#000000" stroke-width="2" stroke-linecap="round" x1="98.864" y1="577.464" x2="97.318" y2="580.4"/>
		<line fill="none" stroke="#000000" stroke-width="2" stroke-linecap="round" x1="97.318" y1="580.4" x2="99.559" y2="580.4"/>
		<line fill="none" stroke="#000000" stroke-width="2" stroke-linecap="round" x1="99.559" y1="580.4" x2="98.864" y2="578.932"/>
		
			<line id="connector0pin_5_" fill="none" stroke="#000000" stroke-width="2" stroke-linecap="round" x1="73.441" y1="568.036" x2="88.432" y2="568.036"/>
		
			<line id="connector2pin_2_" fill="none" stroke="#000000" stroke-width="2" stroke-linecap="round" x1="103.345" y1="596.859" x2="103.345" y2="581.945"/>
		
			<line id="connector1pin_5_" fill="none" stroke="#000000" stroke-width="2" stroke-linecap="round" x1="103.345" y1="537.127" x2="103.345" y2="552.041"/>
		<line fill="none" stroke="#000000" stroke-width="2" stroke-linecap="round" x1="88.432" y1="552.041" x2="88.432" y2="581.945"/>
	</g>
	<g>
		
			<line fill="none" stroke="#000000" stroke-width="2" stroke-linecap="round" x1="431.018" y1="553.236" x2="413.323" y2="561.659"/>
		
			<line fill="none" stroke="#000000" stroke-width="2" stroke-linecap="round" x1="412.859" y1="574.332" x2="431.018" y2="583.914"/>
		
			<line fill="none" stroke="#000000" stroke-width="2" stroke-linecap="round" x1="417.959" y1="555.555" x2="420.973" y2="561.659"/>
		
			<line fill="none" stroke="#000000" stroke-width="2" stroke-linecap="round" x1="420.973" y1="561.659" x2="413.323" y2="561.659"/>
		
			<line fill="none" stroke="#000000" stroke-width="2" stroke-linecap="round" x1="413.323" y1="561.659" x2="417.959" y2="555.555"/>
		
			<line fill="none" stroke="#000000" stroke-width="2" stroke-linecap="round" x1="417.65" y1="556.945" x2="419.736" y2="561.041"/>
		
			<line fill="none" stroke="#000000" stroke-width="2" stroke-linecap="round" x1="417.188" y1="557.796" x2="418.732" y2="561.041"/>
		
			<line fill="none" stroke="#000000" stroke-width="2" stroke-linecap="round" x1="416.414" y1="558.568" x2="417.65" y2="561.041"/>
		
			<line fill="none" stroke="#000000" stroke-width="2" stroke-linecap="round" x1="415.95" y1="559.495" x2="416.568" y2="560.887"/>
		
			<line fill="none" stroke="#000000" stroke-width="2" stroke-linecap="round" x1="415.177" y1="560.113" x2="415.641" y2="561.041"/>
		
			<line id="connector0pin_4_" fill="none" stroke="#000000" stroke-width="2" stroke-linecap="round" x1="400.341" y1="569.541" x2="412.859" y2="569.541"/>
		
			<line id="connector1pin_6_" fill="none" stroke="#000000" stroke-width="2" stroke-linecap="round" x1="431.018" y1="599.214" x2="431.018" y2="583.914"/>
		
			<line id="connector2pin" fill="none" stroke="#000000" stroke-width="2" stroke-linecap="round" x1="431.018" y1="537.859" x2="431.018" y2="553.236"/>
		
			<line fill="none" stroke="#000000" stroke-width="2" stroke-linecap="round" x1="412.859" y1="553.932" x2="412.859" y2="583.836"/>
	</g>
	<text transform="matrix(1 0 0 1 119.085 178.5322)" fill="#939597" font-family="'Helvetica'" font-size="13.9091">Speaker</text>
	<text transform="matrix(1 0 0 1 327.0537 180.5332)" fill="#939597" font-family="'Helvetica'" font-size="13.9091">Microphone</text>
	<g>
		
			<rect id="rect5" x="242.618" y="676.027" fill="none" stroke="#000000" stroke-width="2" stroke-linecap="round" width="60.041" height="73.718"/>
		<path id="path3892" fill="none" stroke="#000000" stroke-width="2" stroke-linecap="round" d="M242.464,737.613h20.94v-8.27h0.152
			c1.855,0,3.4-1.546,3.4-3.398c0-1.854-1.545-3.4-3.4-3.4c1.855,0,3.4-1.545,3.4-3.398c0-1.854-1.545-3.399-3.4-3.399
			c1.855,0,3.4-1.545,3.4-3.399c0-1.854-1.545-3.398-3.4-3.398c1.855,0,3.4-1.547,3.4-3.4c0-1.853-1.545-3.398-3.4-3.398
			c1.855,0,3.4-1.547,3.4-3.399c0-1.854-1.545-3.399-3.4-3.399h-0.152v-5.872h-20.94"/>
		<path id="path3934" fill="none" stroke="#000000" stroke-width="2" stroke-linecap="round" stroke-dasharray="6,6" d="
			M270.359,695.269v34.388"/>
		<path id="path3934_1_" fill="none" stroke="#000000" stroke-width="2" stroke-linecap="round" stroke-dasharray="6,6" d="
			M275.923,689.859v39.021"/>
		<path id="path3936" fill="none" stroke="#000000" stroke-width="2" stroke-linecap="round" d="M302.659,737.69h-32.3v-8.036"/>
		
			<line fill="none" stroke="#000000" stroke-width="2" stroke-linecap="round" x1="302.659" y1="737.613" x2="314.173" y2="737.613"/>
		
			<line fill="none" stroke="#000000" stroke-width="2" stroke-linecap="round" x1="275.923" y1="689.859" x2="314.173" y2="689.859"/>
		
			<line fill="none" stroke="#000000" stroke-width="2" stroke-linecap="round" x1="231.104" y1="737.613" x2="242.618" y2="737.613"/>
		
			<line fill="none" stroke="#000000" stroke-width="2" stroke-linecap="round" x1="231.104" y1="689.859" x2="242.618" y2="689.859"/>
	</g>
	<g>
		
			<line fill="none" stroke="#000000" stroke-width="0.9" stroke-linecap="round" x1="134.063" y1="339.668" x2="134.063" y2="284.264"/>
		<line fill="none" stroke="#000000" stroke-width="2" stroke-linecap="round" x1="161.805" y1="256.6" x2="134.063" y2="284.264"/>
		
			<line fill="none" stroke="#000000" stroke-width="2" stroke-linecap="round" x1="134.063" y1="339.668" x2="134.063" y2="284.264"/>
		
			<line fill="none" stroke="#000000" stroke-width="2" stroke-linecap="round" x1="161.805" y1="367.409" x2="134.063" y2="339.668"/>
		<line fill="none" stroke="#000000" stroke-width="2" stroke-linecap="round" x1="161.805" y1="256.6" x2="161.805" y2="367.409"/>
		
			<line fill="none" stroke="#000000" stroke-width="2" stroke-linecap="round" x1="134.063" y1="339.668" x2="121.623" y2="339.668"/>
		
			<line fill="none" stroke="#000000" stroke-width="2" stroke-linecap="round" x1="134.063" y1="284.264" x2="121.623" y2="285.036"/>
		
			<line fill="none" stroke="#000000" stroke-width="2" stroke-linecap="round" x1="121.623" y1="339.668" x2="121.623" y2="285.036"/>
		<line fill="none" stroke="#000000" stroke-width="2" stroke-linecap="round" x1="108.1" y1="301.032" x2="121.623" y2="301.032"/>
		<line fill="none" stroke="#000000" stroke-width="2" stroke-linecap="round" x1="108.1" y1="323.673" x2="121.623" y2="323.364"/>
	</g>
	<g>
		<circle fill="none" stroke="#000000" stroke-width="2" stroke-linecap="round" cx="361.091" cy="285.036" r="11.05"/>
		
			<line fill="none" stroke="#000000" stroke-width="2" stroke-linecap="round" x1="350.041" y1="297.632" x2="350.041" y2="272.518"/>
		
			<line fill="none" stroke="#000000" stroke-width="2" stroke-linecap="round" x1="361.091" y1="273.986" x2="361.091" y2="257.914"/>
		
			<line fill="none" stroke="#000000" stroke-width="2" stroke-linecap="round" x1="361.091" y1="296.086" x2="361.091" y2="310.305"/>
	</g>
	<text transform="matrix(1 0 0 1 263.1123 603.8965)" fill="#939597" font-family="'Helvetica'" font-size="13.9091">Relay</text>
	<text transform="matrix(1 0 0 1 361.6016 441.8965)" fill="#939597" font-family="'Helvetica'" font-size="13.9091">Transistor</text>
	<text transform="matrix(1 0 0 1 370.2559 457.0273)" fill="#939597" font-family="'Helvetica'" font-size="13.9091">(PNP)</text>
	<text transform="matrix(1 0 0 1 78.6787 441.8965)" fill="#939597" font-family="'Helvetica'" font-size="13.9091">Transistor</text>
	<text transform="matrix(1 0 0 1 87.1016 457.0273)" fill="#939597" font-family="'Helvetica'" font-size="13.9091">(NPN)</text>
</g>
<line fill="none" stroke="#000000" stroke-width="4" stroke-miterlimit="10" x1="22.719" y1="0" x2="0.5" y2="22.219"/>
<line fill="none" stroke="#000000" stroke-width="4" stroke-miterlimit="10" x1="37.125" y1="-3.5" x2="-4.5" y2="38.125"/>
<text transform="matrix(1 0 0 1 43.001 80.8555)" font-family="'AppleBraille'" font-size="30">⠠⠎⠉⠓⠑⠍⠁⠞⠊⠉ ⠎⠽⠍⠃⠕⠇⠎</text>
<g>
	<text transform="matrix(1 0 0 1 48.9526 110.8125)" fill="#939597" font-family="'ArialMT'" font-size="21">Schematic symbols</text>
</g>
</svg>
