<?xml version="1.0" encoding="utf-8"?>
<!-- Generator: Adobe Illustrator 16.0.0, SVG Export Plug-In . SVG Version: 6.00 Build 0)  -->
<!DOCTYPE svg PUBLIC "-//W3C//DTD SVG 1.1//EN" "http://www.w3.org/Graphics/SVG/1.1/DTD/svg11.dtd">
<svg version="1.1" id="Layer_1" xmlns="http://www.w3.org/2000/svg" xmlns:xlink="http://www.w3.org/1999/xlink" x="0px" y="0px"
	 width="792px" height="612px" viewBox="0 0 792 612" enable-background="new 0 0 792 612" xml:space="preserve">
<g id="plaintext" display="none">
	<text transform="matrix(1 0 0 1 262.8433 340.8613)" display="inline" font-family="'MyriadPro-Regular'" font-size="17.7326">Output</text>
	<text transform="matrix(1 0 0 1 162.7798 362.1406)" display="inline" font-family="'MyriadPro-Regular'" font-size="17.7326">from microcontroller</text>
	<text transform="matrix(1 0 0 1 29.8711 236.959)" display="inline" font-family="'MyriadPro-Regular'" font-size="17.7326">Digital Output</text>
	<text transform="matrix(1 0 0 1 404.5684 400.3926)" display="inline" font-family="'MyriadPro-Regular'" font-size="17.7326">220Ω</text>
	<text transform="matrix(1 0 0 1 413.8398 467.625)" display="inline" font-family="'MyriadPro-Regular'" font-size="17.7326">LED</text>
</g>
<g id="Braille_1_">
	<text transform="matrix(1 0 0 1 42.626 94.5957)" font-family="'AppleBraille'" font-size="30">⠎⠡⠑⠍⠁⠞⠊⠉⠀⠎⠽⠍⠃⠕⠇⠎⠀⠼⠉</text>
</g>
<line fill="none" stroke="#000000" stroke-width="4" stroke-miterlimit="10" x1="23.22" y1="-3.5" x2="1" y2="18.719"/>
<line fill="none" stroke="#000000" stroke-width="4" stroke-miterlimit="10" x1="37.625" y1="-7" x2="-4" y2="34.625"/>
<text transform="matrix(1 0 0 1 433.8594 87.5312)" fill="#BBBDC0" font-family="'ArialMT'" font-size="21">Schematic Symbols 3</text>
<g>
	<circle fill="#D1D2D4" stroke="#FFFFFF" stroke-miterlimit="10" cx="89.503" cy="41.393" r="9.212"/>
	<circle fill="#D1D2D4" stroke="#FFFFFF" stroke-miterlimit="10" cx="702.496" cy="39.893" r="9.212"/>
	<circle fill="#D1D2D4" stroke="#FFFFFF" stroke-miterlimit="10" cx="395.646" cy="38.393" r="9.213"/>
</g>
<g>
	<text transform="matrix(1 0 0 1 69.5146 442.876)" font-family="'AppleBraille'" font-size="24">⠙⠊⠕⠙⠑</text>
</g>
<g>
	<text transform="matrix(1 0 0 1 224.146 442.5967)" font-family="'AppleBraille'" font-size="24">⠇⠊⠣⠞⠤⠑⠍⠊⠞⠞⠬⠀⠙⠊⠕⠙⠑</text>
</g>
<g>
	<text transform="matrix(1 0 0 1 53.6948 195.8076)" font-family="'AppleBraille'" font-size="24">⠉⠁⠏⠁⠉⠊⠞⠕⠗</text>
</g>
<text transform="matrix(1 0 0 1 271.5 195.8076)" font-family="'AppleBraille'" font-size="24">⠏⠕⠇⠜⠊⠵⠫ ⠉⠁⠏⠁⠉⠊⠞⠕⠗⠀</text>
<g>
	<text transform="matrix(1 0 0 1 637.1396 195.8076)" font-family="'AppleBraille'" font-size="24">⠎⠺⠊⠞⠡</text>
</g>
<g id="plaintext_9_">
	<g>
		<g>
			<text transform="matrix(1 0 0 1 89.5029 165.2773)" fill="#BBBDC0" font-family="'ArialMT'" font-size="13.9091">Capacitor</text>
		</g>
	</g>
</g>
<g id="plaintext_6_">
	<g>
		<g>
			<text transform="matrix(1 0 0 1 86.7705 415.0703)" fill="#BBBDC0" font-family="'ArialMT'" font-size="13.9091">Diode</text>
		</g>
	</g>
</g>
<g id="plaintext_7_">
	<g>
		<g>
			<text transform="matrix(1 0 0 1 293.8706 414.791)" fill="#BBBDC0" font-family="'ArialMT'" font-size="13.9091">Light-emitting Diode </text>
		</g>
	</g>
</g>
<g id="plaintext_1_">
	<g>
		<g>
			<text transform="matrix(1 0 0 1 342.6445 165.2773)" fill="#BBBDC0" font-family="'ArialMT'" font-size="13.9091">Polarized Capacitor</text>
		</g>
	</g>
</g>
<g id="plaintext_2_">
	<g>
		<g>
			<text transform="matrix(1 0 0 1 678.8896 165.2773)" fill="#BBBDC0" font-family="'ArialMT'" font-size="13.9091">Switch</text>
		</g>
	</g>
</g>
<path id="connector1pin_5_" fill="none" stroke="#797979" stroke-width="2" stroke-linecap="round" d="M166.488,501.781"/>
<path fill="none" stroke="#414141" stroke-width="2" stroke-linecap="round" d="M166.488,501.781"/>
<g>
	<path d="M123.906,544.935h-20.198c-1.106,0-1.937-0.829-1.937-1.937c0-1.104,0.831-1.936,1.937-1.936h20.198
		c1.108,0,1.938,0.831,1.938,1.936C125.844,544.105,125.014,544.935,123.906,544.935z"/>
	<path d="M103.708,544.935H83.509c-1.107,0-1.937-0.829-1.937-1.937c0-1.104,0.83-1.936,1.937-1.936h20.199
		c1.107,0,1.937,0.831,1.937,1.936C105.645,544.105,104.815,544.935,103.708,544.935z"/>
	<polygon fill="#FFFFFF" points="103.708,542.998 83.785,502.878 103.708,502.878 123.906,502.878 	"/>
	<path d="M103.708,547.426l-23.242-46.484h46.483L103.708,547.426z M86.829,504.815l16.878,33.756l16.878-33.756H86.829z"/>
	<path d="M103.708,585.057c-1.106,0-1.937-0.829-1.937-1.938v-40.121c0-1.104,0.831-1.936,1.937-1.936
		c1.107,0,1.937,0.831,1.937,1.936v40.121C105.645,584.228,104.815,585.057,103.708,585.057z"/>
	<path d="M103.708,504.815c-1.106,0-1.937-0.83-1.937-1.938v-40.12c0-1.106,0.831-1.937,1.937-1.937c1.107,0,1.937,0.83,1.937,1.937
		v40.12C105.645,503.709,104.815,504.815,103.708,504.815z"/>
</g>
<g>
	<path d="M382.866,543.249h-20.248c-1.11,0-1.943-0.834-1.943-1.944c0-1.107,0.833-1.939,1.943-1.939h20.248
		c1.11,0,1.942,0.832,1.942,1.939C384.808,542.415,383.976,543.249,382.866,543.249z"/>
	<path d="M362.894,543.249h-20.249c-1.11,0-1.941-0.834-1.941-1.944c0-1.107,0.832-1.939,1.941-1.939h20.249
		c1.11,0,1.942,0.832,1.942,1.939C364.836,542.415,364.004,543.249,362.894,543.249z"/>
	<polygon fill="#FFFFFF" points="362.894,541.305 342.645,501.083 362.894,501.083 382.866,501.083 	"/>
	<path d="M362.894,545.744l-23.301-46.602h46.603L362.894,545.744z M345.973,503.303l16.921,33.843l16.92-33.843H345.973z"/>
	<path d="M317.679,527.714c-0.554,0-0.554-0.278-0.832-0.556c-0.554-0.555-0.554-1.387,0-1.665l13.037-13.036
		c0.556-0.554,1.388-0.554,1.666,0c0.554,0.556,0.554,1.388,0,1.664l-13.039,13.037
		C318.235,527.436,317.957,527.714,317.679,527.714z"/>
	<path d="M319.621,545.744c-0.555,0-0.555-0.277-0.832-0.556c-0.554-0.554-0.554-1.386,0-1.664l13.037-13.037
		c0.556-0.554,1.388-0.554,1.664,0c0.556,0.555,0.556,1.387,0,1.665l-13.037,13.036
		C320.176,545.744,319.899,545.744,319.621,545.744z"/>
	<path d="M362.894,583.47c-1.11,0-1.942-0.832-1.942-1.941v-40.224c0-1.107,0.832-1.939,1.942-1.939s1.942,0.832,1.942,1.939v40.224
		C364.836,582.638,364.004,583.47,362.894,583.47z"/>
	<path d="M362.894,503.303c-1.11,0-1.942-0.831-1.942-1.94v-40.224c0-1.108,0.832-1.94,1.942-1.94s1.942,0.832,1.942,1.94v40.224
		C364.836,502.193,364.004,503.303,362.894,503.303z"/>
	<path d="M308.526,535.204l6.102-14.148l8.045,8.046L308.526,535.204z"/>
	<path d="M310.467,553.512l6.102-14.146l8.045,8.043L310.467,553.512z"/>
</g>
<g>
	
		<line fill="none" stroke="#000000" stroke-width="2" stroke-linecap="round" x1="689.325" y1="259.356" x2="689.325" y2="249.999"/>
	
		<line fill="none" stroke="#000000" stroke-width="2" stroke-linecap="round" x1="689.325" y1="325.372" x2="670.612" y2="259.356"/>
	<circle fill="none" stroke="#000000" stroke-width="2" cx="689.325" cy="325.373" r="1.82"/>
	
		<line id="connector2pin_1_" fill="none" stroke="#555555" stroke-width="2" stroke-linecap="round" x1="689.847" y1="361.5" x2="689.847" y2="325.372"/>
	
		<line id="connector0pin_13_" fill="none" stroke="#555555" stroke-width="2" stroke-linecap="round" x1="689.847" y1="213.872" x2="689.847" y2="249.999"/>
	<path d="M689.325,246.04c2.188,0,3.959,1.775,3.959,3.959c0,2.188-1.771,3.959-3.959,3.959c-2.185,0-3.959-1.771-3.959-3.959
		C685.366,247.815,687.141,246.04,689.325,246.04z"/>
</g>
<g>
	
		<line fill="none" stroke="#000000" stroke-width="2" stroke-linecap="round" x1="368.405" y1="247.229" x2="440.505" y2="247.229"/>
	
		<line fill="none" stroke="#000000" stroke-width="2" stroke-linecap="round" x1="404.349" y1="261.564" x2="404.349" y2="283.173"/>
	<path fill="none" stroke="#000000" stroke-width="2" stroke-linecap="round" d="M404.349,261.351
		c12.836,0,25.245,4.279,35.301,11.98"/>
	<path fill="none" stroke="#000000" stroke-width="2" stroke-linecap="round" d="M369.261,273.331
		c10.055-7.701,22.25-11.98,35.087-11.98"/>
	
		<line id="connector1pin_2_" fill="none" stroke="#000000" stroke-width="2" stroke-linecap="round" x1="404.349" y1="210.859" x2="404.349" y2="247.229"/>
	
		<line id="connector0pin_2_" fill="none" stroke="#000000" stroke-width="2" stroke-linecap="round" x1="404.349" y1="319.329" x2="404.349" y2="283.173"/>
</g>
<g>
	<line fill="none" stroke="#000000" stroke-width="2" stroke-linecap="round" x1="78.874" y1="250.615" x2="156.556" y2="250.615"/>
	<line fill="none" stroke="#000000" stroke-width="2" stroke-linecap="round" x1="78.874" y1="265.094" x2="156.556" y2="265.094"/>
	
		<line fill="none" stroke="#000000" stroke-width="2" stroke-linecap="round" x1="117.715" y1="266.013" x2="117.715" y2="289.226"/>
	
		<line id="connector1pin_1_" fill="none" stroke="#000000" stroke-width="2" stroke-linecap="round" x1="117.715" y1="211.773" x2="117.715" y2="250.615"/>
	
		<line id="connector0pin_1_" fill="none" stroke="#000000" stroke-width="2" stroke-linecap="round" x1="117.715" y1="328.297" x2="117.715" y2="289.226"/>
</g>
<rect x="350.787" y="235.88" fill="#BBBDC0" width="10.198" height="1.477"/>
<rect x="355.215" y="231.45" fill="#BBBDC0" width="1.478" height="10.202"/>
<g>
	<text transform="matrix(1 0 0 1 361.8911 238.6196)" font-family="'AppleBraille'" font-size="24">⠐⠖</text>
</g>
<path d="M689.325,321.413c2.188,0,3.959,1.775,3.959,3.959c0,2.188-1.771,3.96-3.959,3.96c-2.185,0-3.959-1.771-3.959-3.96
	C685.366,323.188,687.141,321.413,689.325,321.413z"/>
</svg>
