<?xml version="1.0" encoding="utf-8"?>
<!-- Generator: Adobe Illustrator 16.0.0, SVG Export Plug-In . SVG Version: 6.00 Build 0)  -->
<!DOCTYPE svg PUBLIC "-//W3C//DTD SVG 1.1//EN" "http://www.w3.org/Graphics/SVG/1.1/DTD/svg11.dtd">
<svg version="1.1" id="Layer_1" xmlns="http://www.w3.org/2000/svg" xmlns:xlink="http://www.w3.org/1999/xlink" x="0px" y="0px"
	 width="828px" height="792px" viewBox="0 0 828 792" enable-background="new 0 0 828 792" xml:space="preserve">
<g id="Layer_2">
	<g id="connector1terminal_4_">
	</g>
	<g id="connector0terminal_4_">
	</g>
	<g id="partLabel_7_">
		<g transform="translate(214.282,28.9157)">
		</g>
	</g>
	<g id="partLabel_21_">
	</g>
	<g>
		
			<line fill="none" stroke="#000000" stroke-width="0.9" stroke-linecap="round" x1="751.071" y1="159.011" x2="751.071" y2="103.606"/>
		
			<line fill="none" stroke="#000000" stroke-width="2" stroke-linecap="round" x1="778.734" y1="75.943" x2="751.071" y2="103.606"/>
		
			<line fill="none" stroke="#000000" stroke-width="2" stroke-linecap="round" x1="751.071" y1="159.011" x2="751.071" y2="103.606"/>
		
			<line fill="none" stroke="#000000" stroke-width="2" stroke-linecap="round" x1="778.734" y1="186.751" x2="751.071" y2="159.011"/>
		
			<line fill="none" stroke="#000000" stroke-width="2" stroke-linecap="round" x1="778.734" y1="75.943" x2="778.734" y2="186.751"/>
		
			<line fill="none" stroke="#000000" stroke-width="2" stroke-linecap="round" x1="751.071" y1="159.011" x2="738.554" y2="159.011"/>
		
			<line fill="none" stroke="#000000" stroke-width="2" stroke-linecap="round" x1="751.071" y1="103.606" x2="738.554" y2="104.379"/>
		
			<line fill="none" stroke="#000000" stroke-width="2" stroke-linecap="round" x1="738.554" y1="159.011" x2="738.554" y2="104.379"/>
		
			<line fill="none" stroke="#000000" stroke-width="2" stroke-linecap="round" x1="725.03" y1="120.375" x2="738.554" y2="120.375"/>
		
			<line fill="none" stroke="#000000" stroke-width="2" stroke-linecap="round" x1="725.03" y1="143.015" x2="738.554" y2="142.707"/>
	</g>
	<g>
		<circle fill="none" stroke="#000000" stroke-width="2" stroke-linecap="round" cx="82.301" cy="356.336" r="11.05"/>
		<line fill="none" stroke="#000000" stroke-width="2" stroke-linecap="round" x1="71.25" y1="368.931" x2="71.25" y2="343.817"/>
		<line fill="none" stroke="#000000" stroke-width="2" stroke-linecap="round" x1="82.301" y1="345.286" x2="82.301" y2="329.212"/>
		<line fill="none" stroke="#000000" stroke-width="2" stroke-linecap="round" x1="82.301" y1="367.462" x2="82.301" y2="381.603"/>
	</g>
</g>
<line fill="none" stroke="#000000" stroke-width="4" stroke-miterlimit="10" x1="22.719" y1="0" x2="0.5" y2="22.219"/>
<line fill="none" stroke="#000000" stroke-width="4" stroke-miterlimit="10" x1="37.125" y1="-3.5" x2="-4.5" y2="38.125"/>
<text transform="matrix(1 0 0 1 43.001 40.8555)" font-family="'AppleBraille'" font-size="30">⠠⠎⠉⠓⠑⠍⠁⠞⠊⠉ ⠎⠽⠍⠃⠕⠇⠎</text>
<g>
	<text transform="matrix(1 0 0 1 48.9526 70.8125)" fill="#939597" font-family="'ArialMT'" font-size="21">Schematic symbols </text>
</g>
<text transform="matrix(1 0 0 1 43.916 193.4546)" fill="#939597" font-family="'Helvetica'" font-size="10">+5V</text>
<g>
	
		<line id="connector0pin_6_" fill="none" stroke="#000000" stroke-width="2" stroke-linecap="round" x1="53.919" y1="200.563" x2="53.919" y2="214.164"/>
	<path fill="none" stroke="#000000" stroke-width="2" stroke-linecap="round" d="M41.169,200.101h25.5"/>
</g>
<text transform="matrix(1 0 0 1 5.1221 140.4067)" font-family="'AppleBraille'" font-size="30">⠠⠧⠕⠇⠞⠁⠛⠑ </text>
<text transform="matrix(1 0 0 1 5.1221 170.2983)" font-family="'AppleBraille'" font-size="30">⠠⠎⠕⠥⠗⠉⠑</text>
<g id="plaintext">
	<g>
		<text transform="matrix(1 0 0 1 16.9819 106.8765)" fill="#939597" font-family="'Helvetica'" font-size="13.9091">Voltage Source</text>
	</g>
</g>
<g>
	<polyline fill="none" stroke="#000000" stroke-width="2" stroke-linecap="round" points="217.876,194.611 224.289,194.611 
		229.08,199.324 234.876,199.324 242.758,194.07 	"/>
	<polyline fill="none" stroke="#000000" stroke-width="2" stroke-linecap="round" points="217.876,206.897 225.835,206.897 
		240.054,206.897 	"/>
	<polyline id="box_2_" fill="none" stroke="#000000" stroke-width="2" stroke-linecap="round" points="242.758,220.807 
		217.876,220.807 217.876,183.562 242.758,183.562 	"/>
	
		<line id="connector2pin_4_" fill="none" stroke="#000000" stroke-width="2" stroke-linecap="round" x1="217.876" y1="206.897" x2="205.513" y2="206.897"/>
	
		<line id="connector0pin_8_" fill="none" stroke="#000000" stroke-width="2" stroke-linecap="round" x1="217.876" y1="194.766" x2="205.513" y2="194.766"/>
	
		<line id="connector1pin_8_" fill="none" stroke="#000000" stroke-width="2" stroke-linecap="round" x1="217.876" y1="206.897" x2="205.513" y2="206.897"/>
	
		<text transform="matrix(1.9959 0 0 1 235.25 215.2695)" fill="none" stroke="#000000" stroke-width="2" stroke-linecap="round" font-family="'ArialMT'" font-size="7.7678">-</text>
	
		<text transform="matrix(1 0 0 1 236.9102 192.0889)" fill="none" stroke="#000000" stroke-width="2" stroke-linecap="round" font-family="'ArialMT'" font-size="7.7678">+</text>
</g>
<text transform="matrix(1 0 0 1 189.8389 137.4092)" font-family="'AppleBraille'" font-size="30">⠠⠏⠕⠺⠑⠗ </text>
<text transform="matrix(1 0 0 1 189.8389 168.3008)" font-family="'AppleBraille'" font-size="30">⠏⠇⠥⠛</text>
<g id="plaintext_1_">
	<g>
		<text transform="matrix(1 0 0 1 194.2441 106.8789)" fill="#939597" font-family="'Helvetica'" font-size="13.9091">Power Plug</text>
	</g>
</g>
<g>
	
		<rect x="375.027" y="168.169" fill="none" stroke="#000000" stroke-width="2" stroke-linecap="round" width="26.428" height="26.427"/>
	
		<line fill="none" stroke="#000000" stroke-width="2" stroke-linecap="round" x1="374.021" y1="182.078" x2="346.281" y2="182.078"/>
	
		<line fill="none" stroke="#000000" stroke-width="2" stroke-linecap="round" x1="431.204" y1="182.078" x2="403.387" y2="182.078"/>
	<line fill="none" stroke="#000000" stroke-width="2" stroke-linecap="round" x1="388.241" y1="195.91" x2="388.241" y2="224.113"/>
</g>
<text transform="matrix(1 0 0 1 327.1582 125.0439)" font-family="'AppleBraille'" font-size="30">⠠⠧⠕⠇⠞⠁⠛⠑ </text>
<text transform="matrix(1 0 0 1 327.1582 151.9355)" font-family="'AppleBraille'" font-size="30">⠠⠗⠑⠛⠥⠇⠁⠞⠕⠗</text>
<g id="plaintext_3_">
	<g>
		<text transform="matrix(1 0 0 1 346.7451 91.377)" fill="#939597" font-family="'Helvetica'" font-size="13.9091">Voltage Regulator</text>
	</g>
</g>
<g>
	<g>
		<g transform="translate(79.2002,172.9)">
			<g id="schematic_21_">
				
					<line fill="none" stroke="#000000" stroke-width="2" stroke-linecap="round" x1="541.046" y1="61.366" x2="508.978" y2="61.366"/>
				
					<line fill="none" stroke="#000000" stroke-width="2" stroke-linecap="round" x1="530.382" y1="66.698" x2="519.641" y2="66.698"/>
				
					<line fill="none" stroke="#000000" stroke-width="2" stroke-linecap="round" x1="541.046" y1="72.107" x2="508.978" y2="72.107"/>
				
					<line fill="none" stroke="#000000" stroke-width="2" stroke-linecap="round" x1="530.382" y1="77.439" x2="519.641" y2="77.439"/>
				<line fill="none" stroke="#000000" stroke-width="2" stroke-linecap="round" x1="525.05" y1="56.034" x2="525.05" y2="60.361"/>
				
					<line id="connector0pin_20_" fill="none" stroke="#000000" stroke-width="2" stroke-linecap="round" x1="525.05" y1="88.104" x2="525.05" y2="77.439"/>
				<g id="connector0terminal_21_">
				</g>
				
					<line id="connector1pin_20_" fill="none" stroke="#000000" stroke-width="2" stroke-linecap="round" x1="525.05" y1="45.372" x2="525.05" y2="56.034"/>
				<g id="connector1terminal_21_">
				</g>
			</g>
		</g>
	</g>
	
		<rect x="594.128" y="226.153" fill="none" stroke="#000000" stroke-width="2" stroke-linecap="round" width="5.872" height="0.85"/>
	
		<rect x="594.128" y="256.213" fill="none" stroke="#000000" stroke-width="2" stroke-linecap="round" width="5.872" height="0.85"/>
	
		<rect x="596.678" y="223.604" fill="none" stroke="#000000" stroke-width="2" stroke-linecap="round" width="0.85" height="5.873"/>
</g>
<text transform="matrix(1 0 0 1 528.4785 197.3965)" font-family="'AppleBraille'" font-size="30">⠠⠃⠁⠞⠞⠑⠗⠽</text>
<g id="plaintext_2_">
	<g>
		<text transform="matrix(1 0 0 1 570.2285 159.8662)" fill="#939597" font-family="'Helvetica'" font-size="13.9091">Battery</text>
	</g>
</g>
<g>
	
		<line fill="none" stroke="#000000" stroke-width="2" stroke-linecap="round" x1="331.321" y1="304.554" x2="337.117" y2="306.718"/>
	
		<line fill="none" stroke="#000000" stroke-width="2" stroke-linecap="round" x1="337.117" y1="306.718" x2="325.526" y2="310.351"/>
	
		<line fill="none" stroke="#000000" stroke-width="2" stroke-linecap="round" x1="325.526" y1="310.351" x2="337.117" y2="313.982"/>
	
		<line fill="none" stroke="#000000" stroke-width="2" stroke-linecap="round" x1="337.117" y1="313.982" x2="325.526" y2="317.613"/>
	
		<line fill="none" stroke="#000000" stroke-width="2" stroke-linecap="round" x1="325.526" y1="317.613" x2="337.117" y2="321.246"/>
	
		<line fill="none" stroke="#000000" stroke-width="2" stroke-linecap="round" x1="337.117" y1="321.246" x2="325.526" y2="324.877"/>
	
		<line fill="none" stroke="#000000" stroke-width="2" stroke-linecap="round" x1="325.526" y1="324.877" x2="337.117" y2="328.509"/>
	
		<line fill="none" stroke="#000000" stroke-width="2" stroke-linecap="round" x1="337.117" y1="328.509" x2="325.526" y2="332.142"/>
	
		<line fill="none" stroke="#000000" stroke-width="2" stroke-linecap="round" x1="325.526" y1="332.142" x2="331.321" y2="333.607"/>
	
		<line id="connector1pin_7_" fill="none" stroke="#000000" stroke-width="2" stroke-linecap="round" x1="331.321" y1="348.136" x2="331.321" y2="333.607"/>
	
		<line id="connector0pin_10_" fill="none" stroke="#000000" stroke-width="2" stroke-linecap="round" x1="331.321" y1="290.025" x2="331.321" y2="304.554"/>
</g>
<text transform="matrix(1 0 0 1 244.4468 281.1763)" font-family="'AppleBraille'" font-size="30">⠠⠗⠑⠎⠊⠎⠞⠕⠗</text>
<g id="plaintext_6_">
	<g>
		<text transform="matrix(1 0 0 1 282.2622 253.3706)" fill="#939597" font-family="'Helvetica'" font-size="13.9091">Resistor</text>
	</g>
</g>
<g>
	<g>
		<g transform="translate(191.548,91.3167)">
			<g id="schematic_9_">
				<path id="connector0pin_9_" fill="none" stroke="#000000" stroke-width="2" stroke-linecap="round" d="M-4.564,340.441v-14.527"
					/>
				<g id="connector0terminal_9_">
				</g>
				<path id="path4098_2_" fill="none" stroke="#000000" stroke-width="2" stroke-linecap="round" d="M-18.087,340.674H8.959"/>
				<path id="path4100_2_" fill="none" stroke="#000000" stroke-width="2" stroke-linecap="round" d="M-13.527,346.236H4.477"/>
				<path id="path4102_2_" fill="none" stroke="#000000" stroke-width="2" stroke-linecap="round" d="M-0.082,351.722h-8.964"/>
			</g>
		</g>
	</g>
	<g>
		
			<line fill="none" stroke="#000000" stroke-width="2" stroke-linecap="round" x1="187.102" y1="423.09" x2="186.947" y2="404.699"/>
	</g>
</g>
<text transform="matrix(1 0 0 1 124.2456 396.5332)" font-family="'AppleBraille'" font-size="30">⠠⠛⠗⠕⠥⠝⠙</text>
<g id="plaintext_5_">
	<g>
		<text transform="matrix(1 0 0 1 155.2681 370.8657)" fill="#939597" font-family="'Helvetica'" font-size="13.9091">Ground</text>
	</g>
</g>
<g>
	<polyline fill="none" stroke="#000000" stroke-width="2" stroke-linecap="round" points="462.325,401.695 486.202,415.295 
		486.202,429.359 	"/>
	<polygon fill="none" stroke="#000000" stroke-width="2" stroke-linecap="round" points="462.479,404.398 456.685,398.527 
		464.644,400.689 	"/>
	<polyline fill="none" stroke="#000000" stroke-width="2" stroke-linecap="round" points="476.388,426.964 476.388,424.953 
		472.446,422.018 481.334,417.072 472.446,412.203 481.334,407.259 472.446,402.312 481.334,397.445 472.446,392.5 476.388,389.562 
		476.388,387.555 	"/>
	
		<line id="connector1pin_3_" fill="none" stroke="#000000" stroke-width="2" stroke-linecap="round" x1="486.278" y1="436.312" x2="486.278" y2="426.964"/>
	
		<line id="connector0pin_7_" fill="none" stroke="#000000" stroke-width="2" stroke-linecap="round" x1="476.388" y1="436.312" x2="476.388" y2="426.964"/>
	
		<line id="connector2pin_3_" fill="none" stroke="#000000" stroke-width="2" stroke-linecap="round" x1="476.388" y1="378.203" x2="476.388" y2="388.018"/>
</g>
<text transform="matrix(1 0 0 1 414.5273 339.6729)" font-family="'AppleBraille'" font-size="30">⠠⠧⠁⠗⠊⠁⠃⠇⠑ </text>
<text transform="matrix(1 0 0 1 414.5273 366.5635)" font-family="'AppleBraille'" font-size="30">⠠⠗⠑⠎⠊⠎⠞⠕⠗</text>
<g id="plaintext_7_">
	<g>
		<text transform="matrix(1 0 0 1 442.252 311.8672)" fill="#939597" font-family="'Helvetica'" font-size="13.9091">Variable Resistor</text>
	</g>
</g>
<g>
	<line fill="none" stroke="#000000" stroke-width="2" stroke-linecap="round" x1="703.7" y1="355.052" x2="709.496" y2="357.216"/>
	
		<line fill="none" stroke="#000000" stroke-width="2" stroke-linecap="round" x1="709.496" y1="357.216" x2="697.905" y2="360.849"/>
	<line fill="none" stroke="#000000" stroke-width="2" stroke-linecap="round" x1="697.905" y1="360.849" x2="709.496" y2="364.48"/>
	<line fill="none" stroke="#000000" stroke-width="2" stroke-linecap="round" x1="709.496" y1="364.48" x2="697.905" y2="368.111"/>
	
		<line fill="none" stroke="#000000" stroke-width="2" stroke-linecap="round" x1="697.905" y1="368.111" x2="709.496" y2="371.744"/>
	
		<line fill="none" stroke="#000000" stroke-width="2" stroke-linecap="round" x1="709.496" y1="371.744" x2="697.905" y2="375.375"/>
	
		<line fill="none" stroke="#000000" stroke-width="2" stroke-linecap="round" x1="697.905" y1="375.375" x2="709.496" y2="379.007"/>
	<line fill="none" stroke="#000000" stroke-width="2" stroke-linecap="round" x1="709.496" y1="379.007" x2="697.905" y2="382.64"/>
	<line fill="none" stroke="#000000" stroke-width="2" stroke-linecap="round" x1="697.905" y1="382.64" x2="703.7" y2="384.105"/>
	
		<line id="connector1pin_4_" fill="none" stroke="#000000" stroke-width="2" stroke-linecap="round" x1="703.7" y1="398.634" x2="703.7" y2="384.105"/>
	
		<line id="connector0pin_3_" fill="none" stroke="#000000" stroke-width="2" stroke-linecap="round" x1="703.7" y1="340.523" x2="703.7" y2="355.052"/>
	<path d="M691.027,365.407l-4.714-4.713c-0.154-0.155-0.154-0.467,0-0.618c0.151-0.155,0.464-0.155,0.618,0l4.713,4.713
		c0.152,0.155,0.152,0.464,0,0.618c-0.077,0.077-0.153,0.152-0.312,0.152C691.26,365.562,691.104,365.483,691.027,365.407z"/>
	<path d="M690.332,371.898l-4.714-4.717c-0.154-0.151-0.154-0.464,0-0.615c0.154-0.154,0.464-0.154,0.618,0l4.714,4.714
		c0.153,0.151,0.153,0.464,0,0.616c-0.077,0.076-0.154,0.153-0.31,0.153C690.486,372.052,690.409,372.052,690.332,371.898z"/>
	<path d="M689.481,366.181l2.938-2.937l2.163,5.1L689.481,366.181z"/>
	<path d="M688.787,372.748l2.938-2.938l2.164,5.103L688.787,372.748z"/>
</g>
<text transform="matrix(1 0 0 1 626.1533 332.1733)" font-family="'AppleBraille'" font-size="30">⠠⠏⠓⠕⠞⠕⠉⠑⠇⠇</text>
<g id="plaintext_8_">
	<g>
		<text transform="matrix(1 0 0 1 626.2412 304.3687)" fill="#939597" font-family="'Helvetica'" font-size="13.9091">Light-Dependent Resistor</text>
	</g>
</g>
<g>
	<line fill="none" stroke="#000000" stroke-width="2" stroke-linecap="round" x1="88.466" y1="592.551" x2="122.234" y2="592.551"/>
	
		<line fill="none" stroke="#000000" stroke-width="2" stroke-linecap="round" x1="105.311" y1="599.274" x2="105.311" y2="609.396"/>
	<path fill="none" stroke="#000000" stroke-width="2" stroke-linecap="round" d="M105.311,599.197
		c6.027,0,11.823,2.009,16.536,5.641"/>
	<path fill="none" stroke="#000000" stroke-width="2" stroke-linecap="round" d="M88.929,604.838
		c4.714-3.632,10.433-5.562,16.382-5.562"/>
	
		<rect x="92.638" y="584.128" fill="none" stroke="#000000" stroke-width="2" stroke-linecap="round" width="5.873" height="0.851"/>
	<rect x="95.188" y="581.656" fill="none" stroke="#000000" stroke-width="2" stroke-linecap="round" width="0.85" height="5.873"/>
	
		<line id="connector1pin_2_" fill="none" stroke="#000000" stroke-width="2" stroke-linecap="round" x1="105.311" y1="575.628" x2="105.311" y2="592.551"/>
	
		<line id="connector0pin_2_" fill="none" stroke="#000000" stroke-width="2" stroke-linecap="round" x1="105.311" y1="626.319" x2="105.311" y2="609.396"/>
</g>
<text transform="matrix(1 0 0 1 10.8057 523.4707)" font-family="'AppleBraille'" font-size="30">⠠⠏⠕⠇⠁⠗⠊⠵⠑⠙ </text>
<text transform="matrix(1 0 0 1 14.6689 553.3623)" font-family="'AppleBraille'" font-size="30">⠠⠉⠁⠏⠁⠉⠊⠞⠕⠗</text>
<g id="plaintext_4_">
	<g>
		<text transform="matrix(1 0 0 1 44.2695 485.8594)" fill="#939597" font-family="'Helvetica'" font-size="13.9091">Polarized Capacitor</text>
	</g>
</g>
<g>
	<line fill="none" stroke="#000000" stroke-width="2" stroke-linecap="round" x1="554.2" y1="557.217" x2="554.2" y2="553.586"/>
	<line fill="none" stroke="#000000" stroke-width="2" stroke-linecap="round" x1="554.2" y1="582.64" x2="547.014" y2="557.217"/>
	<circle fill="none" stroke="#000000" stroke-width="2" cx="554.2" cy="582.639" r="0.696"/>
	<circle fill="none" stroke="#000000" stroke-width="2" cx="554.2" cy="553.585" r="0.696"/>
	
		<line id="connector2pin_1_" fill="none" stroke="#555555" stroke-width="2" stroke-linecap="round" x1="554.432" y1="596.472" x2="554.432" y2="582.64"/>
	
		<line id="connector0pin_13_" fill="none" stroke="#555555" stroke-width="2" stroke-linecap="round" x1="554.432" y1="539.753" x2="554.432" y2="553.586"/>
</g>
<text transform="matrix(1 0 0 1 518.7852 483.1934)" fill="#939597" font-family="'Helvetica'" font-size="13.9091">Switch</text>
<text transform="matrix(1 0 0 1 485.7285 521.4951)" font-family="'AppleBraille'" font-size="30">⠠⠎⠺⠊⠞⠉⠓</text>
<g>
	
		<line fill="none" stroke="#000000" stroke-width="2" stroke-linecap="round" x1="309.407" y1="553.084" x2="343.176" y2="553.084"/>
	<line fill="none" stroke="#000000" stroke-width="2" stroke-linecap="round" x1="309.407" y1="559.42" x2="343.176" y2="559.42"/>
	
		<line fill="none" stroke="#000000" stroke-width="2" stroke-linecap="round" x1="326.254" y1="559.806" x2="326.254" y2="569.931"/>
	
		<line id="connector1pin_9_" fill="none" stroke="#000000" stroke-width="2" stroke-linecap="round" x1="326.254" y1="536.161" x2="326.254" y2="553.084"/>
	
		<line id="connector0pin_11_" fill="none" stroke="#000000" stroke-width="2" stroke-linecap="round" x1="326.254" y1="586.853" x2="326.254" y2="569.931"/>
</g>
<text transform="matrix(1 0 0 1 245.8633 521.665)" font-family="'AppleBraille'" font-size="30">⠠⠉⠁⠏⠁⠉⠊⠞⠕⠗</text>
<g id="plaintext_9_">
	<g>
		<text transform="matrix(1 0 0 1 291.2578 484.8594)" fill="#939597" font-family="'Helvetica'" font-size="13.9091">Capacitor</text>
	</g>
</g>
<g>
	<path d="M742.125,585.797h-7.264c-0.388,0-0.695-0.31-0.695-0.691c0-0.391,0.312-0.694,0.695-0.694h7.264
		c0.389,0,0.695,0.309,0.695,0.694C742.82,585.488,742.511,585.797,742.125,585.797z"/>
	<path d="M734.861,585.797h-7.265c-0.39,0-0.694-0.31-0.694-0.691c0-0.391,0.309-0.694,0.694-0.694h7.265
		c0.385,0,0.694,0.309,0.694,0.694C735.556,585.488,735.246,585.797,734.861,585.797z"/>
	<polygon fill="#FFFFFF" points="734.861,585.102 727.597,570.574 734.861,570.574 742.125,570.574 	"/>
	<path d="M734.861,586.725l-8.424-16.771h16.846L734.861,586.725z M728.757,571.346l6.104,12.209l6.104-12.209H728.757z"/>
	<path d="M718.556,580.156c-0.153,0-0.231-0.078-0.312-0.154c-0.153-0.154-0.153-0.463,0-0.619l4.713-4.713
		c0.154-0.152,0.465-0.152,0.619,0c0.154,0.154,0.154,0.463,0,0.619l-4.715,4.713C718.787,580.078,718.633,580.156,718.556,580.156z
		"/>
	<path d="M719.252,586.646c-0.151,0-0.229-0.076-0.309-0.153c-0.156-0.154-0.156-0.464,0-0.617l4.713-4.715
		c0.154-0.154,0.463-0.154,0.617,0c0.155,0.155,0.155,0.465,0,0.618l-4.713,4.714C719.482,586.646,719.406,586.646,719.252,586.646z
		"/>
	<path d="M734.861,606.98c-0.388,0-0.695-0.312-0.695-0.695v-21.182c0-0.391,0.312-0.694,0.695-0.694
		c0.383,0,0.694,0.309,0.694,0.694v21.18C735.556,606.67,735.246,606.98,734.861,606.98z"/>
	<path d="M734.861,571.346c-0.388,0-0.695-0.309-0.695-0.691v-14.526c0-0.387,0.312-0.693,0.695-0.693
		c0.383,0,0.694,0.31,0.694,0.693v14.526C735.556,570.961,735.246,571.346,734.861,571.346z"/>
	<path d="M715.311,582.938l2.163-5.102l2.937,2.938L715.311,582.938z"/>
	<path d="M716.007,589.506l2.163-5.1l2.938,2.936L716.007,589.506z"/>
</g>
<text transform="matrix(1 0 0 1 667.1592 429.8535)" fill="#939597" font-family="'Helvetica'" font-size="13.9091">Light-emitting Diode</text>
<text transform="matrix(1 0 0 1 655.4512 466.3047)" font-family="'AppleBraille'" font-size="30">⠠⠇⠊⠛⠓⠞⠤⠠</text>
<text transform="matrix(1 0 0 1 655.4512 502.3047)" font-family="'AppleBraille'" font-size="30">⠑⠍⠊⠞⠞⠊⠝⠛</text>
<text transform="matrix(1 0 0 1 655.4512 538.3047)" font-family="'AppleBraille'" font-size="30">⠠⠙⠊⠕⠙⠑ </text>
<g>
	<path d="M79.517,767.515h-7.265c-0.385,0-0.694-0.31-0.694-0.695c0-0.385,0.31-0.691,0.694-0.691h7.265
		c0.386,0,0.694,0.31,0.694,0.691C80.212,767.206,79.903,767.515,79.517,767.515z"/>
	<path d="M72.253,767.515h-7.264c-0.386,0-0.695-0.31-0.695-0.695c0-0.385,0.31-0.691,0.695-0.691h7.264
		c0.387,0,0.695,0.31,0.695,0.691C72.948,767.206,72.639,767.515,72.253,767.515z"/>
	<polygon fill="#FFFFFF" points="72.253,766.819 64.989,752.292 72.253,752.292 79.517,752.292 	"/>
	<path d="M72.253,768.442l-8.422-16.768h16.846L72.253,768.442z M66.148,753.065l6.104,12.209l6.104-12.209H66.148z"/>
	<path d="M72.253,782.042c-0.385,0-0.694-0.311-0.694-0.694V766.82c0-0.385,0.31-0.691,0.694-0.691c0.387,0,0.695,0.31,0.695,0.691
		v14.527C72.948,781.733,72.639,782.042,72.253,782.042z"/>
	<path d="M72.253,753.065c-0.385,0-0.694-0.31-0.694-0.693v-14.526c0-0.386,0.31-0.695,0.694-0.695c0.387,0,0.695,0.312,0.695,0.695
		v14.526C72.948,752.679,72.639,753.065,72.253,753.065z"/>
</g>
<text transform="matrix(1 0 0 1 56.4131 686.0693)" fill="#939597" font-family="'Helvetica'" font-size="13.9091">Diode</text>
<text transform="matrix(1 0 0 1 21.457 720.8896)" font-family="'AppleBraille'" font-size="30">⠠⠙⠊⠕⠙⠑</text>
<text transform="matrix(1 0 0 1 177.6274 674.8115)" font-family="'AppleBraille'" font-size="30">⠠⠞⠗⠁⠝⠎⠊⠎⠞⠕⠗ </text>
<text transform="matrix(1 0 0 1 177.6274 705.7021)" font-family="'AppleBraille'" font-size="30">⠦⠠⠠⠏⠝⠏⠴</text>
<g>
	<line fill="none" stroke="#000000" stroke-width="2" stroke-linecap="round" x1="257.82" y1="738.376" x2="240.125" y2="746.8"/>
	<line fill="none" stroke="#000000" stroke-width="2" stroke-linecap="round" x1="239.662" y1="759.472" x2="257.82" y2="769.054"/>
	<line fill="none" stroke="#000000" stroke-width="2" stroke-linecap="round" x1="244.761" y1="740.694" x2="247.775" y2="746.8"/>
	<line fill="none" stroke="#000000" stroke-width="2" stroke-linecap="round" x1="247.775" y1="746.8" x2="240.125" y2="746.8"/>
	<line fill="none" stroke="#000000" stroke-width="2" stroke-linecap="round" x1="240.125" y1="746.8" x2="244.761" y2="740.694"/>
	
		<line fill="none" stroke="#000000" stroke-width="2" stroke-linecap="round" x1="244.453" y1="742.085" x2="246.539" y2="746.181"/>
	
		<line fill="none" stroke="#000000" stroke-width="2" stroke-linecap="round" x1="243.989" y1="742.937" x2="245.535" y2="746.181"/>
	
		<line fill="none" stroke="#000000" stroke-width="2" stroke-linecap="round" x1="243.216" y1="743.708" x2="244.453" y2="746.181"/>
	
		<line fill="none" stroke="#000000" stroke-width="2" stroke-linecap="round" x1="242.752" y1="744.636" x2="243.371" y2="746.026"/>
	
		<line fill="none" stroke="#000000" stroke-width="2" stroke-linecap="round" x1="241.979" y1="745.253" x2="242.443" y2="746.181"/>
	
		<line id="connector0pin_1_" fill="none" stroke="#000000" stroke-width="2" stroke-linecap="round" x1="227.143" y1="754.681" x2="239.662" y2="754.681"/>
	
		<line id="connector1pin_1_" fill="none" stroke="#000000" stroke-width="2" stroke-linecap="round" x1="257.82" y1="784.354" x2="257.82" y2="769.054"/>
	
		<line id="connector2pin_5_" fill="none" stroke="#000000" stroke-width="2" stroke-linecap="round" x1="257.82" y1="722.999" x2="257.82" y2="738.376"/>
	
		<line fill="none" stroke="#000000" stroke-width="2" stroke-linecap="round" x1="239.662" y1="739.071" x2="239.662" y2="768.976"/>
</g>
<text transform="matrix(1 0 0 1 188.4038 627.0361)" fill="#939597" font-family="'Helvetica'" font-size="13.9091">Transistor</text>
<text transform="matrix(1 0 0 1 197.0581 642.167)" fill="#939597" font-family="'Helvetica'" font-size="13.9091">(PNP)</text>
<text transform="matrix(1 0 0 1 431.9336 677.8135)" font-family="'AppleBraille'" font-size="30">⠠⠞⠗⠁⠝⠎⠊⠎⠞⠕⠗ </text>
<text transform="matrix(1 0 0 1 431.9336 708.7041)" font-family="'AppleBraille'" font-size="30">⠦⠠⠠⠝⠏⠝⠴</text>
<g>
	
		<line fill="none" stroke="#000000" stroke-width="2" stroke-linecap="round" x1="492.635" y1="740.182" x2="477.723" y2="747.369"/>
	
		<line fill="none" stroke="#000000" stroke-width="2" stroke-linecap="round" x1="488.154" y1="764.059" x2="492.635" y2="770.086"/>
	
		<line fill="none" stroke="#000000" stroke-width="2" stroke-linecap="round" x1="492.635" y1="770.086" x2="485.141" y2="770.086"/>
	
		<line fill="none" stroke="#000000" stroke-width="2" stroke-linecap="round" x1="485.141" y1="770.086" x2="488.154" y2="764.059"/>
	
		<line fill="none" stroke="#000000" stroke-width="2" stroke-linecap="round" x1="486.764" y1="767.149" x2="477.723" y2="761.896"/>
	<line fill="none" stroke="#000000" stroke-width="2" stroke-linecap="round" x1="486.607" y1="769.313" x2="491.09" y2="769.313"/>
	<line fill="none" stroke="#000000" stroke-width="2" stroke-linecap="round" x1="491.09" y1="769.313" x2="488.154" y2="765.604"/>
	
		<line fill="none" stroke="#000000" stroke-width="2" stroke-linecap="round" x1="488.154" y1="765.604" x2="486.607" y2="768.541"/>
	<line fill="none" stroke="#000000" stroke-width="2" stroke-linecap="round" x1="486.607" y1="768.541" x2="488.85" y2="768.541"/>
	<line fill="none" stroke="#000000" stroke-width="2" stroke-linecap="round" x1="488.85" y1="768.541" x2="488.154" y2="767.072"/>
	
		<line id="connector0pin_5_" fill="none" stroke="#000000" stroke-width="2" stroke-linecap="round" x1="462.73" y1="756.178" x2="477.723" y2="756.178"/>
	
		<line id="connector2pin_2_" fill="none" stroke="#000000" stroke-width="2" stroke-linecap="round" x1="492.635" y1="785" x2="492.635" y2="770.086"/>
	
		<line id="connector1pin_5_" fill="none" stroke="#000000" stroke-width="2" stroke-linecap="round" x1="492.635" y1="725.268" x2="492.635" y2="740.182"/>
	
		<line fill="none" stroke="#000000" stroke-width="2" stroke-linecap="round" x1="477.723" y1="740.182" x2="477.723" y2="770.086"/>
</g>
<text transform="matrix(1 0 0 1 467.9688 630.0371)" fill="#939597" font-family="'Helvetica'" font-size="13.9091">Transistor</text>
<text transform="matrix(1 0 0 1 476.3916 645.168)" fill="#939597" font-family="'Helvetica'" font-size="13.9091">(NPN)</text>
<text transform="matrix(1 0 0 1 686.5635 680.3125)" font-family="'AppleBraille'" font-size="30">⠠⠗⠑⠇⠁⠽</text>
<g>
	
		<rect id="rect5" x="700.902" y="707.668" fill="none" stroke="#000000" stroke-width="2" stroke-linecap="round" width="60.041" height="73.719"/>
	<path id="path3892" fill="none" stroke="#000000" stroke-width="2" stroke-linecap="round" d="M700.748,769.254h20.938v-8.271
		h0.152c1.854,0,3.4-1.546,3.4-3.397c0-1.854-1.545-3.399-3.4-3.399c1.854,0,3.4-1.545,3.4-3.398c0-1.853-1.545-3.397-3.4-3.397
		c1.854,0,3.4-1.545,3.4-3.399c0-1.854-1.545-3.396-3.4-3.396c1.854,0,3.4-1.548,3.4-3.4c0-1.854-1.545-3.397-3.4-3.397
		c1.854,0,3.4-1.548,3.4-3.398c0-1.854-1.545-3.399-3.4-3.399h-0.152v-5.872h-20.938"/>
	<path id="path3934" fill="none" stroke="#000000" stroke-width="2" stroke-linecap="round" stroke-dasharray="6,6" d="
		M728.643,726.909v34.389"/>
	<path id="path3934_1_" fill="none" stroke="#000000" stroke-width="2" stroke-linecap="round" stroke-dasharray="6,6" d="
		M734.207,721.5v39.021"/>
	<path id="path3936" fill="none" stroke="#000000" stroke-width="2" stroke-linecap="round" d="M760.943,769.331h-32.301v-8.036"/>
	
		<line fill="none" stroke="#000000" stroke-width="2" stroke-linecap="round" x1="760.943" y1="769.254" x2="772.457" y2="769.254"/>
	<line fill="none" stroke="#000000" stroke-width="2" stroke-linecap="round" x1="734.207" y1="721.5" x2="772.457" y2="721.5"/>
	
		<line fill="none" stroke="#000000" stroke-width="2" stroke-linecap="round" x1="689.389" y1="769.254" x2="700.902" y2="769.254"/>
	<line fill="none" stroke="#000000" stroke-width="2" stroke-linecap="round" x1="689.389" y1="721.5" x2="700.902" y2="721.5"/>
</g>
<text transform="matrix(1 0 0 1 721.3965 635.5371)" fill="#939597" font-family="'Helvetica'" font-size="13.9091">Relay</text>
<text transform="matrix(1 0 0 1 683.6387 59.1885)" font-family="'AppleBraille'" font-size="30">⠠⠎⠏⠑⠅⠑⠗</text>
<text transform="matrix(1 0 0 1 719.8516 24.0498)" fill="#939597" font-family="'Helvetica'" font-size="13.9091">Speaker</text>
<text transform="matrix(1 0 0 1 10.4995 318.1729)" font-family="'AppleBraille'" font-size="30">⠠⠍⠊⠉⠗⠕⠏⠓⠕⠝⠑</text>
<text transform="matrix(1 0 0 1 41.4087 284.0361)" fill="#939597" font-family="'Helvetica'" font-size="13.9091">Microphone</text>
</svg>
