<?xml version="1.0" encoding="utf-8"?>
<!-- Generator: Adobe Illustrator 16.0.0, SVG Export Plug-In . SVG Version: 6.00 Build 0)  -->
<!DOCTYPE svg PUBLIC "-//W3C//DTD SVG 1.1//EN" "http://www.w3.org/Graphics/SVG/1.1/DTD/svg11.dtd">
<svg version="1.1" id="Layer_1" xmlns="http://www.w3.org/2000/svg" xmlns:xlink="http://www.w3.org/1999/xlink" x="0px" y="0px"
	 width="792px" height="612px" viewBox="-79.42 90 792 612" enable-background="new -79.42 90 792 612" xml:space="preserve">
<g id="partLabel_6_">
	<g transform="translate(0.4,0)">
		<g id="schematicLabel_6_">
			<text transform="matrix(1 0 0 1 -24.8473 176.3086)" fill="#B1B3B5" font-family="'ArialMT'" font-size="21">Serial Bit</text>
		</g>
	</g>
</g>
<text transform="matrix(1 0 0 1 -24.4951 144.1992)" font-family="'AppleBraille'" font-size="30">⠠⠎⠑⠗⠊⠁⠇ ⠠⠃⠊⠞</text>
<text transform="matrix(1.192488e-08 -1 1 1.192488e-08 -13.1401 458.7988)" font-family="'AppleBraille'" font-size="30">⠠⠧⠕⠇⠞⠁⠛⠑</text>
<text transform="matrix(1 0 0 1 35.002 257.0957)" font-family="'AppleBraille'" font-size="30">⠼⠚</text>
<text transform="matrix(1 0 0 1 20.0005 581.5908)" enable-background="new    "><tspan x="0" y="0" font-family="'AppleBraille'" font-size="24">⠼⠁⠌</tspan><tspan x="0" y="28.8" font-family="'AppleBraille'" font-size="24">⠊⠋⠚⠚</tspan></text>
<text transform="matrix(1 0 0 1 95.4966 581.5908)" enable-background="new    "><tspan x="0" y="0" font-family="'AppleBraille'" font-size="24">⠼⠃⠌</tspan><tspan x="0" y="28.8" font-family="'AppleBraille'" font-size="24">⠊⠋⠚⠚</tspan></text>
<text transform="matrix(1 0 0 1 169.9932 581.5908)" enable-background="new    "><tspan x="0" y="0" font-family="'AppleBraille'" font-size="24">⠼⠉⠌</tspan><tspan x="0" y="28.8" font-family="'AppleBraille'" font-size="24">⠊⠋⠚⠚</tspan></text>
<text transform="matrix(1 0 0 1 243.4893 581.5908)" enable-background="new    "><tspan x="0" y="0" font-family="'AppleBraille'" font-size="24">⠼⠙⠌</tspan><tspan x="0" y="28.8" font-family="'AppleBraille'" font-size="24">⠊⠋⠚⠚</tspan></text>
<text transform="matrix(1 0 0 1 317.4854 581.5908)" enable-background="new    "><tspan x="0" y="0" font-family="'AppleBraille'" font-size="24">⠼⠑⠌</tspan><tspan x="0" y="28.8" font-family="'AppleBraille'" font-size="24">⠊⠋⠚⠚</tspan></text>
<text transform="matrix(1 0 0 1 394.4814 581.5908)" enable-background="new    "><tspan x="0" y="0" font-family="'AppleBraille'" font-size="24">⠼⠋⠌</tspan><tspan x="0" y="28.8" font-family="'AppleBraille'" font-size="24">⠊⠋⠚⠚</tspan></text>
<text transform="matrix(1 0 0 1 468.9775 581.5908)" enable-background="new    "><tspan x="0" y="0" font-family="'AppleBraille'" font-size="24">⠼⠛⠌</tspan><tspan x="0" y="28.8" font-family="'AppleBraille'" font-size="24">⠊⠋⠚⠚</tspan></text>
<text transform="matrix(1 0 0 1 545.4746 581.5908)" enable-background="new    "><tspan x="0" y="0" font-family="'AppleBraille'" font-size="24">⠼⠓⠌</tspan><tspan x="0" y="28.8" font-family="'AppleBraille'" font-size="24">⠊⠋⠚⠚</tspan></text>
<text transform="matrix(1 0 0 1 169 256.5957)" font-family="'AppleBraille'" font-size="30">⠼⠚</text>
<text transform="matrix(1 0 0 1 386.9971 256.0957)" font-family="'AppleBraille'" font-size="30">⠼⠚</text>
<text transform="matrix(1 0 0 1 523.4961 256.5957)" font-family="'AppleBraille'" font-size="30">⠼⠚</text>
<text transform="matrix(1 0 0 1 469.4961 256.0957)" font-family="'AppleBraille'" font-size="30">⠼⠁</text>
<text transform="matrix(1 0 0 1 319.998 255.0957)" font-family="'AppleBraille'" font-size="30">⠼⠁</text>
<text transform="matrix(1 0.0075 -0.0075 1 169.0654 668.4727)" font-family="'AppleBraille'" font-size="30">⠠⠞⠊⠍⠑ ⠦⠎⠑⠉⠕⠝⠙⠎⠴</text>
<text transform="matrix(1 0 0 1 248.9995 256.5952)" font-family="'AppleBraille'" font-size="30">⠼⠁</text>
<text transform="matrix(1 0 0 1 101.501 257.0957)" font-family="'AppleBraille'" font-size="30">⠼⠁</text>
<line fill="none" stroke="#000000" stroke-width="4" stroke-miterlimit="10" x1="-55.277" y1="86.602" x2="-77.496" y2="108.82"/>
<line fill="none" stroke="#000000" stroke-width="4" stroke-miterlimit="10" x1="-40.871" y1="83.102" x2="-82.496" y2="124.727"/>
<line fill="none" stroke="#000000" stroke-width="2" stroke-miterlimit="10" x1="10.171" y1="515.963" x2="669.512" y2="515.963"/>
<line fill="none" stroke="#000000" stroke-width="2" stroke-miterlimit="10" x1="50.293" y1="530.674" x2="50.293" y2="505.709"/>
<line fill="none" stroke="#000000" stroke-width="2" stroke-miterlimit="10" x1="122.068" y1="530.674" x2="122.068" y2="505.709"/>
<line fill="none" stroke="#000000" stroke-width="2" stroke-miterlimit="10" x1="552.711" y1="530.674" x2="552.711" y2="505.709"/>
<line fill="none" stroke="#000000" stroke-width="2" stroke-miterlimit="10" x1="480.938" y1="530.674" x2="480.938" y2="505.709"/>
<line fill="none" stroke="#000000" stroke-width="2" stroke-miterlimit="10" x1="409.162" y1="530.674" x2="409.162" y2="505.709"/>
<line fill="none" stroke="#000000" stroke-width="2" stroke-miterlimit="10" x1="337.39" y1="530.674" x2="337.39" y2="505.709"/>
<line fill="none" stroke="#000000" stroke-width="2" stroke-miterlimit="10" x1="265.616" y1="530.674" x2="265.616" y2="505.709"/>
<line fill="none" stroke="#000000" stroke-width="2" stroke-miterlimit="10" x1="193.841" y1="530.674" x2="193.841" y2="505.709"/>
<line fill="none" stroke="#000000" stroke-width="2" stroke-miterlimit="10" x1="10.171" y1="476.287" x2="81.946" y2="476.287"/>
<line fill="none" stroke="#000000" stroke-width="2" stroke-miterlimit="10" x1="81.946" y1="476.287" x2="81.946" y2="325.604"/>
<line fill="none" stroke="#000000" stroke-width="2" stroke-miterlimit="10" x1="81.946" y1="325.604" x2="153.719" y2="325.604"/>
<line fill="none" stroke="#000000" stroke-width="2" stroke-miterlimit="10" x1="153.719" y1="325.604" x2="153.719" y2="476.287"/>
<line fill="none" stroke="#000000" stroke-width="2" stroke-miterlimit="10" x1="153.719" y1="476.287" x2="225.493" y2="476.287"/>
<line fill="none" stroke="#000000" stroke-width="2" stroke-miterlimit="10" x1="225.493" y1="476.287" x2="225.493" y2="325.604"/>
<line fill="none" stroke="#000000" stroke-width="2" stroke-miterlimit="10" x1="225.493" y1="325.604" x2="297.268" y2="325.604"/>
<line fill="none" stroke="#000000" stroke-width="2" stroke-miterlimit="10" x1="297.268" y1="325.604" x2="369.04" y2="325.604"/>
<line fill="none" stroke="#000000" stroke-width="2" stroke-miterlimit="10" x1="369.04" y1="325.604" x2="369.04" y2="476.287"/>
<line fill="none" stroke="#000000" stroke-width="2" stroke-miterlimit="10" x1="369.04" y1="476.287" x2="440.815" y2="476.287"/>
<line fill="none" stroke="#000000" stroke-width="2" stroke-miterlimit="10" x1="440.815" y1="476.287" x2="440.815" y2="325.604"/>
<line fill="none" stroke="#000000" stroke-width="2" stroke-miterlimit="10" x1="440.815" y1="325.604" x2="512.589" y2="325.604"/>
<line fill="none" stroke="#000000" stroke-width="2" stroke-miterlimit="10" x1="512.589" y1="325.604" x2="512.589" y2="476.287"/>
<line fill="none" stroke="#000000" stroke-width="2" stroke-miterlimit="10" x1="512.589" y1="476.287" x2="584.362" y2="476.287"/>
<line fill="none" stroke="#000000" stroke-width="2" stroke-miterlimit="10" x1="10.171" y1="515.963" x2="10.171" y2="198.105"/>
<g>
	<g>
		<polygon fill="#010101" points="10.172,190.426 4.412,205.785 15.932,205.785 		"/>
		<polygon fill="none" stroke="#010101" stroke-miterlimit="10" points="10.172,190.426 4.412,205.785 15.932,205.785 		"/>
	</g>
</g>
<g>
	<g>
		<polygon fill="#010101" points="682.233,516.464 666.874,510.704 666.874,522.224 		"/>
		<polygon fill="none" stroke="#010101" stroke-miterlimit="10" points="682.233,516.464 666.874,510.704 666.874,522.224 		"/>
	</g>
</g>
<text transform="matrix(1 0 0 1 27.5576 552.0742)" fill="#B1B3B5" font-family="'ArialMT'" font-size="16.0489">1/9600</text>
<text transform="matrix(1 0 0 1 273.2744 691.1816)" fill="#B1B3B5" font-family="'ArialMT'" font-size="16.0489">Time (seconds)</text>
<text transform="matrix(4.489659e-11 -1 1 4.489659e-11 0.8096 406.7441)" fill="#B1B3B5" font-family="'ArialMT'" font-size="16.0489">Voltage</text>
<text transform="matrix(1 0 0 1 99.3315 552.0742)" fill="#B1B3B5" font-family="'ArialMT'" font-size="16.0489">2/9600</text>
<text transform="matrix(1 0 0 1 171.1055 552.0742)" fill="#B1B3B5" font-family="'ArialMT'" font-size="16.0489">3/9600</text>
<g>
	<text transform="matrix(1 0 0 1 242.8799 552.0742)" fill="#B1B3B5" font-family="'ArialMT'" font-size="16.0489">4/9600</text>
</g>
<text transform="matrix(1 0 0 1 314.6533 552.0742)" fill="#B1B3B5" font-family="'ArialMT'" font-size="16.0489">5/9600</text>
<text transform="matrix(1 0 0 1 386.4268 552.0742)" fill="#B1B3B5" font-family="'ArialMT'" font-size="16.0489">6/9600</text>
<text transform="matrix(1 0 0 1 458.2021 552.0742)" fill="#B1B3B5" font-family="'ArialMT'" font-size="16.0489">7/9600</text>
<text transform="matrix(1 0 0 1 529.9756 552.0742)" fill="#B1B3B5" font-family="'ArialMT'" font-size="16.0489">8/9600</text>
<text transform="matrix(1 0 0 1 40.9316 289.9429)" fill="#B1B3B5" font-family="'ArialMT'" font-size="16.0489">0</text>
<text transform="matrix(1 0 0 1 112.7056 289.9429)" fill="#B1B3B5" font-family="'ArialMT'" font-size="16.0489">1</text>
<text transform="matrix(1 0 0 1 184.4795 289.9429)" fill="#B1B3B5" font-family="'ArialMT'" font-size="16.0489">0</text>
<text transform="matrix(1 0 0 1 256.2534 289.9429)" fill="#B1B3B5" font-family="'ArialMT'" font-size="16.0489">1</text>
<text transform="matrix(1 0 0 1 328.0273 289.9429)" fill="#B1B3B5" font-family="'ArialMT'" font-size="16.0489">1</text>
<text transform="matrix(1 0 0 1 399.8008 289.9429)" fill="#B1B3B5" font-family="'ArialMT'" font-size="16.0489">0</text>
<text transform="matrix(1 0 0 1 471.5762 289.9429)" fill="#B1B3B5" font-family="'ArialMT'" font-size="16.0489">1</text>
<text transform="matrix(1 0 0 1 543.3496 289.9429)" fill="#B1B3B5" font-family="'ArialMT'" font-size="16.0489">0</text>
</svg>
