<?xml version="1.0" encoding="utf-8"?>
<!-- Generator: Adobe Illustrator 16.0.0, SVG Export Plug-In . SVG Version: 6.00 Build 0)  -->
<!DOCTYPE svg PUBLIC "-//W3C//DTD SVG 1.1//EN" "http://www.w3.org/Graphics/SVG/1.1/DTD/svg11.dtd">
<svg version="1.1" id="Layer_1" xmlns="http://www.w3.org/2000/svg" xmlns:xlink="http://www.w3.org/1999/xlink" x="0px" y="0px"
	 width="828px" height="792px" viewBox="0.532 0 828 792" enable-background="new 0.532 0 828 792" xml:space="preserve">
<g id="Layer_1_2_">
	<g id="Layer_1_1_">
		<g>
			<g transform="translate(91.6785,50.587)">
				<g id="schematic_5_">
					<polyline fill="none" stroke="#020202" stroke-width="2" stroke-linecap="round" points="134.088,221.148 134.088,219.062 
						129.916,215.971 139.266,210.717 129.916,205.539 139.266,200.362 129.916,195.107 139.266,189.93 129.916,184.753 
						134.088,181.585 134.088,179.576 					"/>
					
						<line id="connector1pin_5_" fill="none" stroke="#7A7A7A" stroke-width="2" stroke-linecap="round" x1="134.088" y1="231.581" x2="134.088" y2="221.148"/>
					<g id="connector1terminal_5_">
					</g>
					
						<line id="connector0pin_5_" fill="none" stroke="#7A7A7A" stroke-width="2" stroke-linecap="round" x1="134.088" y1="169.144" x2="134.088" y2="179.576"/>
					<g id="connector0terminal_5_">
					</g>
				</g>
			</g>
		</g>
		<g>
			<g transform="translate(46.5692,160.233)">
				<g id="schematic_8_">
					<path id="connector0pin_8_" fill="none" stroke="#7A7A7A" stroke-width="2" stroke-linecap="round" d="M179.268,179.306
						v-13.213"/>
					<g id="connector0terminal_8_">
					</g>
					<path id="path4098_1_" fill="none" stroke="#020202" stroke-width="2" stroke-linecap="round" d="M169.609,179.461h19.396"/>
					<path id="path4100_1_" fill="none" stroke="#020202" stroke-width="2" stroke-linecap="round" d="M172.854,184.561h12.904"/>
					<path id="path4102_1_" fill="none" stroke="#020202" stroke-width="2" stroke-linecap="round" d="M182.514,189.583H176.1"/>
				</g>
			</g>
		</g>
		
			<line id="connector0pin_10_" fill="none" stroke="#7A7A7A" stroke-width="2" stroke-linecap="round" stroke-miterlimit="10" x1="225.784" y1="208.923" x2="225.784" y2="219.741"/>
		<path fill="none" stroke="#020202" stroke-width="2" stroke-linecap="round" d="M216.047,208.536h19.473"/>
		<g>
			<path d="M233.125,311.85h-7.264c-0.386,0-0.695-0.309-0.695-0.695c0-0.387,0.309-0.696,0.695-0.696h7.264
				c0.386,0,0.695,0.309,0.695,0.696C233.82,311.541,233.511,311.85,233.125,311.85z"/>
			<path d="M225.861,311.85h-7.264c-0.386,0-0.695-0.309-0.695-0.695c0-0.387,0.309-0.696,0.695-0.696h7.264
				c0.386,0,0.695,0.309,0.695,0.696C226.556,311.541,226.247,311.85,225.861,311.85z"/>
			<polygon fill="#FFFFFF" points="225.861,311.155 218.597,296.627 225.861,296.627 233.125,296.627 			"/>
			<path d="M225.861,312.777l-8.423-16.768h16.846L225.861,312.777z M219.757,297.4l6.104,12.209l6.104-12.209H219.757
				L219.757,297.4z"/>
			<path d="M209.556,306.209c-0.154,0-0.232-0.077-0.309-0.154c-0.154-0.155-0.154-0.464,0-0.618l4.714-4.714
				c0.154-0.154,0.463-0.154,0.618,0c0.154,0.155,0.154,0.464,0,0.618l-4.714,4.714
				C209.788,306.132,209.634,306.209,209.556,306.209z"/>
			<path d="M210.252,312.7c-0.154,0-0.231-0.078-0.309-0.155c-0.154-0.154-0.154-0.463,0-0.618l4.714-4.713
				c0.154-0.155,0.463-0.155,0.618,0c0.154,0.154,0.154,0.463,0,0.618l-4.714,4.713C210.484,312.7,210.407,312.7,210.252,312.7z"/>
			<path d="M225.861,326.377c-0.386,0-0.695-0.309-0.695-0.696v-14.527c0-0.387,0.309-0.696,0.695-0.696
				c0.386,0,0.695,0.309,0.695,0.696v14.527C226.556,326.068,226.247,326.377,225.861,326.377z"/>
			<path d="M225.861,297.4c-0.386,0-0.695-0.309-0.695-0.695v-14.527c0-0.386,0.309-0.695,0.695-0.695
				c0.386,0,0.695,0.309,0.695,0.695v14.527C226.556,297.014,226.247,297.4,225.861,297.4z"/>
			<path d="M206.311,308.991l2.164-5.1l2.936,2.936L206.311,308.991z"/>
			<path d="M207.007,315.559l2.164-5.1l2.936,2.937L207.007,315.559z"/>
		</g>
		<g>
			<g transform="translate(91.6785,50.587)">
				<g id="schematic_2_">
					<polyline fill="none" stroke="#020202" stroke-width="2" stroke-linecap="round" points="293.155,229.648 293.155,227.562 
						288.984,224.471 298.333,219.217 288.984,214.039 298.333,208.862 288.984,203.607 298.333,198.43 288.984,193.253 
						293.155,190.085 293.155,188.076 					"/>
					
						<line id="connector1pin_1_" fill="none" stroke="#7A7A7A" stroke-width="2" stroke-linecap="round" x1="293.155" y1="240.081" x2="293.155" y2="229.648"/>
					<g id="connector1terminal_1_">
					</g>
					
						<line id="connector0pin_3_" fill="none" stroke="#7A7A7A" stroke-width="2" stroke-linecap="round" x1="293.155" y1="177.644" x2="293.155" y2="188.076"/>
					<g id="connector0terminal_2_">
					</g>
				</g>
			</g>
		</g>
		
			<line id="connector0pin_1_" fill="none" stroke="#7A7A7A" stroke-width="2" stroke-linecap="round" stroke-miterlimit="10" x1="484.146" y1="206.373" x2="484.146" y2="217.191"/>
		<path fill="none" stroke="#020202" stroke-width="2" stroke-linecap="round" d="M474.41,205.986h19.473"/>
		<g>
			<path d="M392.115,320.35h-7.264c-0.387,0-0.695-0.309-0.695-0.695c0-0.387,0.309-0.696,0.695-0.696h7.264
				c0.387,0,0.695,0.309,0.695,0.696C392.811,320.041,392.501,320.35,392.115,320.35z"/>
			<path d="M384.852,320.35h-7.264c-0.387,0-0.695-0.309-0.695-0.695c0-0.387,0.309-0.696,0.695-0.696h7.264
				c0.387,0,0.695,0.309,0.695,0.696C385.547,320.041,385.238,320.35,384.852,320.35z"/>
			<polygon fill="#FFFFFF" points="384.852,319.655 377.588,305.127 384.852,305.127 392.115,305.127 			"/>
			<path d="M384.852,321.277l-8.422-16.768h16.845L384.852,321.277z M378.746,305.9l6.104,12.209l6.104-12.209H378.746
				L378.746,305.9z"/>
			<path d="M368.547,314.709c-0.154,0-0.231-0.077-0.309-0.154c-0.155-0.155-0.155-0.464,0-0.618l4.713-4.714
				c0.154-0.154,0.464-0.154,0.618,0c0.155,0.155,0.155,0.464,0,0.618l-4.714,4.714
				C368.778,314.632,368.624,314.709,368.547,314.709z"/>
			<path d="M369.242,321.2c-0.154,0-0.232-0.078-0.309-0.155c-0.155-0.154-0.155-0.463,0-0.618l4.713-4.713
				c0.154-0.155,0.464-0.155,0.619,0c0.153,0.154,0.153,0.463,0,0.618l-4.715,4.713C369.475,321.2,369.396,321.2,369.242,321.2z"/>
			<path d="M384.852,334.877c-0.387,0-0.695-0.309-0.695-0.696v-14.527c0-0.387,0.309-0.696,0.695-0.696s0.695,0.309,0.695,0.696
				v14.527C385.547,334.568,385.238,334.877,384.852,334.877z"/>
			<path d="M384.852,305.9c-0.387,0-0.695-0.309-0.695-0.695v-14.527c0-0.386,0.309-0.695,0.695-0.695s0.695,0.309,0.695,0.695
				v14.527C385.547,305.514,385.238,305.9,384.852,305.9z"/>
			<path d="M365.301,317.491l2.164-5.1l2.938,2.936L365.301,317.491z"/>
			<path d="M365.996,324.059l2.164-5.1l2.938,2.937L365.996,324.059z"/>
		</g>
		<g>
			<g transform="translate(91.6785,50.587)">
				<g id="schematic_4_">
					<polyline fill="none" stroke="#020202" stroke-width="2" stroke-linecap="round" points="392.22,229.648 392.22,227.562 
						388.047,224.471 397.398,219.217 388.047,214.039 397.398,208.862 388.047,203.607 397.398,198.43 388.047,193.253 
						392.22,190.085 392.22,188.076 					"/>
					
						<line id="connector1pin_2_" fill="none" stroke="#7A7A7A" stroke-width="2" stroke-linecap="round" x1="392.22" y1="240.081" x2="392.22" y2="229.648"/>
					<g id="connector1terminal_2_">
					</g>
					
						<line id="connector0pin_7_" fill="none" stroke="#7A7A7A" stroke-width="2" stroke-linecap="round" x1="392.22" y1="177.644" x2="392.22" y2="188.076"/>
					<g id="connector0terminal_4_">
					</g>
				</g>
			</g>
		</g>
		<g>
			<g transform="translate(46.5692,160.233)">
				<g id="schematic_3_">
					<path id="connector0pin_6_" fill="none" stroke="#7A7A7A" stroke-width="2" stroke-linecap="round" d="M437.4,187.806v-13.213"
						/>
					<g id="connector0terminal_3_">
					</g>
					<path id="path4098_3_" fill="none" stroke="#020202" stroke-width="2" stroke-linecap="round" d="M427.74,187.961h19.396"/>
					<path id="path4100_3_" fill="none" stroke="#020202" stroke-width="2" stroke-linecap="round" d="M430.985,193.061h12.902"/>
					<path id="path4102_3_" fill="none" stroke="#020202" stroke-width="2" stroke-linecap="round" d="M440.644,198.083h-6.413"/>
				</g>
			</g>
		</g>
		
			<line id="connector0pin_4_" fill="none" stroke="#7A7A7A" stroke-width="2" stroke-linecap="round" stroke-miterlimit="10" x1="483.915" y1="217.423" x2="483.915" y2="228.241"/>
		<path fill="none" stroke="#020202" stroke-width="2" stroke-linecap="round" d="M384.774,217.036h206.241"/>
		<path fill="none" stroke="#020202" stroke-width="2" stroke-linecap="round" d="M384.852,334.877h206.937"/>
		<g>
			<path d="M491.256,320.35h-7.264c-0.387,0-0.695-0.309-0.695-0.695c0-0.387,0.311-0.696,0.695-0.696h7.264
				c0.389,0,0.695,0.309,0.695,0.696C491.951,320.041,491.643,320.35,491.256,320.35z"/>
			<path d="M483.992,320.35h-7.264c-0.389,0-0.695-0.309-0.695-0.695c0-0.387,0.309-0.696,0.695-0.696h7.264
				c0.387,0,0.695,0.309,0.695,0.696C484.688,320.041,484.379,320.35,483.992,320.35z"/>
			<polygon fill="#FFFFFF" points="483.992,319.655 476.729,305.127 483.992,305.127 491.256,305.127 			"/>
			<path d="M483.992,321.277l-8.423-16.768h16.846L483.992,321.277z M477.889,305.9l6.104,12.209l6.104-12.209H477.889
				L477.889,305.9z"/>
			<path d="M467.688,314.709c-0.154,0-0.231-0.077-0.311-0.154c-0.153-0.155-0.153-0.464,0-0.618l4.713-4.714
				c0.155-0.154,0.466-0.154,0.618,0c0.155,0.155,0.155,0.464,0,0.618l-4.713,4.714C467.92,314.632,467.765,314.709,467.688,314.709
				z"/>
			<path d="M468.383,321.2c-0.152,0-0.229-0.078-0.309-0.155c-0.154-0.154-0.154-0.463,0-0.618l4.714-4.713
				c0.154-0.155,0.463-0.155,0.618,0c0.154,0.154,0.154,0.463,0,0.618l-4.714,4.713C468.615,321.2,468.538,321.2,468.383,321.2z"/>
			<path d="M483.992,334.182c-0.387,0-0.695-0.309-0.695-0.695v-13.909c0-0.386,0.311-0.695,0.695-0.695s0.695,0.309,0.695,0.695
				v13.909C484.688,333.873,484.379,334.182,483.992,334.182z"/>
			<path d="M483.992,305.9c-0.387,0-0.695-0.309-0.695-0.695v-14.527c0-0.386,0.311-0.695,0.695-0.695s0.695,0.309,0.695,0.695
				v14.527C484.688,305.514,484.379,305.9,483.992,305.9z"/>
			<path d="M464.442,317.491l2.163-5.1l2.937,2.936L464.442,317.491z"/>
			<path d="M465.139,324.059l2.161-5.1l2.938,2.937L465.139,324.059z"/>
		</g>
		<g>
			<g transform="translate(91.6785,50.587)">
				<g id="schematic_7_">
					<polyline fill="none" stroke="#020202" stroke-width="2" stroke-linecap="round" points="499.32,229.648 499.32,227.562 
						495.148,224.471 504.497,219.217 495.148,214.039 504.497,208.862 495.148,203.607 504.497,198.43 495.148,193.253 
						499.32,190.085 499.32,188.076 					"/>
					
						<line id="connector1pin_3_" fill="none" stroke="#7A7A7A" stroke-width="2" stroke-linecap="round" x1="499.32" y1="240.081" x2="499.32" y2="229.648"/>
					<g id="connector1terminal_3_">
					</g>
					
						<line id="connector0pin_12_" fill="none" stroke="#7A7A7A" stroke-width="2" stroke-linecap="round" x1="499.32" y1="177.644" x2="499.32" y2="188.076"/>
					<g id="connector0terminal_7_">
					</g>
				</g>
			</g>
		</g>
		
			<line id="connector0pin_9_" fill="none" stroke="#7A7A7A" stroke-width="2" stroke-linecap="round" stroke-miterlimit="10" x1="591.015" y1="217.423" x2="591.015" y2="228.241"/>
		<g>
			<path d="M598.355,320.35h-7.264c-0.386,0-0.693-0.309-0.693-0.695c0-0.387,0.31-0.696,0.693-0.696h7.266
				c0.387,0,0.693,0.309,0.693,0.696C599.051,320.041,598.742,320.35,598.355,320.35z"/>
			<path d="M591.092,320.35h-7.264c-0.386,0-0.695-0.309-0.695-0.695c0-0.387,0.312-0.696,0.695-0.696h7.264
				c0.389,0,0.696,0.309,0.696,0.696C591.788,320.041,591.479,320.35,591.092,320.35z"/>
			<polygon fill="#FFFFFF" points="591.092,319.655 583.828,305.127 591.092,305.127 598.355,305.127 			"/>
			<path d="M591.092,321.277l-8.423-16.768h16.848L591.092,321.277z M584.987,305.9l6.104,12.209l6.105-12.209H584.987
				L584.987,305.9z"/>
			<path d="M574.788,314.709c-0.155,0-0.23-0.077-0.31-0.154c-0.154-0.155-0.154-0.464,0-0.618l4.714-4.714
				c0.152-0.154,0.464-0.154,0.618,0c0.152,0.155,0.152,0.464,0,0.618l-4.716,4.714C575.02,314.632,574.865,314.709,574.788,314.709
				z"/>
			<path d="M575.483,321.2c-0.155,0-0.232-0.078-0.312-0.155c-0.152-0.154-0.152-0.463,0-0.618l4.714-4.713
				c0.154-0.155,0.466-0.155,0.618,0c0.154,0.154,0.154,0.463,0,0.618l-4.714,4.713C575.715,321.2,575.639,321.2,575.483,321.2z"/>
			<path d="M591.092,334.877c-0.386,0-0.693-0.309-0.693-0.696v-14.527c0-0.387,0.31-0.696,0.693-0.696
				c0.389,0,0.696,0.309,0.696,0.696v14.527C591.788,334.568,591.479,334.877,591.092,334.877z"/>
			<path d="M591.092,305.9c-0.386,0-0.693-0.309-0.693-0.695v-14.527c0-0.386,0.31-0.695,0.693-0.695
				c0.389,0,0.696,0.309,0.696,0.695v14.527C591.788,305.514,591.479,305.9,591.092,305.9z"/>
			<path d="M571.542,317.491l2.164-5.1l2.938,2.936L571.542,317.491z"/>
			<path d="M572.237,324.059l2.164-5.1l2.937,2.937L572.237,324.059z"/>
		</g>
		
			<line fill="none" stroke="#7A7A7A" stroke-width="2" stroke-linecap="round" stroke-miterlimit="10" x1="384.774" y1="228.241" x2="384.774" y2="217.036"/>
		<circle fill="#020202" cx="483.838" cy="335.032" r="2.936"/>
		<ellipse fill="#020202" cx="484.286" cy="217.109" rx="2.936" ry="2.936"/>
	</g>
	<g id="Braille">
		<text transform="matrix(1 0 0 1 51.1802 295.582)" font-family="'AppleBraille'" font-size="30">⠠⠎⠑⠗⠊⠑⠎</text>
		<text transform="matrix(1 0 0 1 616.9111 297.9023)" font-family="'AppleBraille'" font-size="30">⠏⠁⠗⠁⠇⠇⠑⠇</text>
		<text transform="matrix(1 0 0 1 196.4053 204.8037)" font-family="'MyriadPro-Regular'" font-size="22.4091">+</text>
		<text transform="matrix(1 0 0 1 209.7729 204.8037)" font-family="'AppleBraille'" font-size="30">⠠⠠⠧</text>
		<text transform="matrix(1 0 0 1 34.2153 484.1621)" font-family="'AppleBraille'" font-size="30">⠠⠎⠑⠗⠊⠑⠎ ⠉⠊⠗⠉⠥⠊⠞⠎</text>
		<text transform="matrix(1 0 0 1 246.1758 395.667)" font-family="'MyriadPro-Regular'" font-size="22.4091">:</text>
		<text transform="matrix(1 0 0 1 34.2153 516.0527)" font-family="'AppleBraille'" font-size="30">⠤ ⠧⠕⠇⠞⠁⠛⠑ ⠙⠗⠕⠏⠎ ⠁⠉⠗⠕⠎⠎ ⠼⠑⠁⠉⠓ ⠉⠕⠍⠏⠕⠝⠑⠝⠞</text>
		<text transform="matrix(1 0 0 1 34.2153 547.9453)" font-family="'AppleBraille'" font-size="30">⠤ ⠉⠥⠗⠗⠑⠝⠞ ⠞⠓⠗⠕⠥⠛⠓ ⠁⠇⠇ </text>
		<text transform="matrix(1 0 0 1 34.2153 579.8359)" font-family="'AppleBraille'" font-size="30">   ⠉⠕⠍⠏⠕⠝⠑⠝⠞⠎ ⠊⠎ ⠞⠓⠑ ⠎⠁⠍⠑</text>
		<text transform="matrix(1 0 0 1 8.7168 503.2305)" font-family="'AppleBraille'" font-size="22.4091"> </text>
		<text transform="matrix(1 0 0 1 34.2153 633.6172)" font-family="'AppleBraille'" font-size="30">⠠⠏⠁⠗⠁⠇⠇⠑⠇ ⠉⠊⠗⠉⠥⠊⠞⠎</text>
		<text transform="matrix(1 0 0 1 276.7759 530.1211)" font-family="'MyriadPro-Regular'" font-size="22.4091">:</text>
		<text transform="matrix(1 0 0 1 34.2153 665.5078)" font-family="'AppleBraille'" font-size="30">⠤ ⠧⠕⠇⠞⠁⠛⠑ ⠁⠉⠗⠕⠎⠎ ⠉⠕⠍⠏⠕⠝⠑⠝⠞⠎ </text>
		<text transform="matrix(1 0 0 1 34.2153 697.3984)" font-family="'AppleBraille'" font-size="30">   ⠊⠝ ⠏⠁⠗⠁⠇⠇⠑⠇ ⠊⠎ ⠞⠓⠑ ⠎⠁⠍⠑</text>
		<text transform="matrix(1 0 0 1 34.2153 729.291)" font-family="'AppleBraille'" font-size="30">⠤ ⠉⠥⠗⠗⠑⠝⠞ ⠊⠎ ⠙⠊⠧⠊⠙⠑⠙ </text>
		<text transform="matrix(1 0 0 1 34.2153 761.1816)" font-family="'AppleBraille'" font-size="30">   ⠃⠑⠞⠺⠑⠑⠝ ⠉⠕⠍⠏⠕⠝⠑⠝⠞⠎ ⠊⠝ ⠏⠁⠗⠁⠇⠇⠑⠇</text>
		<text transform="matrix(1 0 0 1 447.1367 200.9395)" font-family="'MyriadPro-Regular'" font-size="22.4091">+</text>
		<text transform="matrix(1 0 0 1 460.5049 200.9395)" font-family="'AppleBraille'" font-size="30">⠠⠠⠧</text>
	</g>
	<g id="plaintext" display="none">
		<text transform="matrix(1 0 0 1 387.3389 456.1738)" display="inline" font-family="'Helvetica'" font-size="9.2727">Series circuits:</text>
		<text transform="matrix(1 0 0 1 387.3389 467.3008)" display="inline" font-family="'Helvetica'" font-size="9.2727">* voltage drops across each component</text>
		<text transform="matrix(1 0 0 1 387.3389 478.4277)" display="inline" font-family="'Helvetica'" font-size="9.2727">* current through all components is the same.</text>
		<text transform="matrix(1 0 0 1 387.3389 500.6826)" display="inline" font-family="'Helvetica'" font-size="9.2727">Parallel circuits:</text>
		<text transform="matrix(1 0 0 1 387.3389 511.8096)" display="inline" font-family="'Helvetica'" font-size="9.2727">* voltage across components in parallel is the same</text>
		<text transform="matrix(1 0 0 1 387.3389 522.9365)" display="inline" font-family="'Helvetica'" font-size="9.2727">* current is divided between components in parallel</text>
		<g id="partLabel_6_" display="inline">
			<g transform="translate(0.4,0)">
				<g id="schematicLabel_6_">
					<text transform="matrix(1 0 0 1 17.1034 172.9805)" font-family="'ArialMT'" font-size="9.1618">Series vs parallel circuits</text>
				</g>
			</g>
		</g>
		<g id="partLabel_1_" display="inline">
			<g transform="translate(0.4,0)">
				<g id="schematicLabel_1_">
					<text transform="matrix(1 0 0 1 30.2396 268.0254)" font-family="'ArialMT'" font-size="9.1618">Series </text>
				</g>
			</g>
		</g>
		<g id="partLabel_2_" display="inline">
			<g transform="translate(0.4,0)">
				<g id="schematicLabel_2_">
					<text transform="matrix(1 0 0 1 528.6488 271.7197)" font-family="'ArialMT'" font-size="9.1618">parallel</text>
				</g>
			</g>
		</g>
		
			<text id="label_4_" transform="matrix(0.9585 0 0 1 169.5195 205.5762)" display="inline" fill="#020202" font-family="'ArialMT'" font-size="11.287">+V</text>
		
			<text id="label_1_" transform="matrix(0.9585 0 0 1 381.041 191.667)" display="inline" fill="#020202" font-family="'ArialMT'" font-size="11.287">+V</text>
	</g>
</g>
<line fill="none" stroke="#000000" stroke-width="4" stroke-miterlimit="10" x1="22.719" y1="0" x2="0.5" y2="22.219"/>
<line fill="none" stroke="#000000" stroke-width="4" stroke-miterlimit="10" x1="37.125" y1="-3.5" x2="-4.5" y2="38.125"/>
<text transform="matrix(1 0 0 1 52.0005 114.3516)" font-family="'AppleBraille'" font-size="30">⠠⠎⠑⠗⠊⠑⠎ ⠧⠎ ⠏⠁⠗⠁⠇⠇⠑⠇ ⠉⠊⠗⠉⠥⠊⠞⠎</text>
<g>
	<text transform="matrix(1 0 0 1 57.9521 144.3086)" fill="#939597" font-family="'ArialMT'" font-size="21">Schematic symbols </text>
</g>
<text transform="matrix(1 0 0 1 62.1519 315.8848)" fill="#939597" font-family="'Helvetica'" font-size="13.9091">Series</text>
<text transform="matrix(1 0 0 1 573.627 549.873)" enable-background="new    "><tspan x="0" y="0" fill="#939597" font-family="'Helvetica'" font-size="13.9091">Series circuits</tspan><tspan x="0" y="16.691" fill="#939597" font-family="'Helvetica'" font-size="13.9091">- voltage drops across 5138 component</tspan><tspan x="0" y="33.381" fill="#939597" font-family="'Helvetica'" font-size="13.9091">- current through all</tspan><tspan x="0" y="50.072" fill="#939597" font-family="'Helvetica'" font-size="13.9091">components is the same</tspan><tspan x="0" y="83.455" fill="#939597" font-family="'Helvetica'" font-size="13.9091">Parallel circuits</tspan><tspan x="0" y="100.145" fill="#939597" font-family="'Helvetica'" font-size="13.9091">- voltage across components</tspan><tspan x="0" y="116.836" fill="#939597" font-family="'Helvetica'" font-size="13.9091">in parallel is the same</tspan><tspan x="0" y="133.527" fill="#939597" font-family="'Helvetica'" font-size="13.9091">- current is divided</tspan><tspan x="0" y="150.219" fill="#939597" font-family="'Helvetica'" font-size="13.9091">between components in parallel</tspan></text>
<text transform="matrix(1 0 0 1 621.623 315.8848)" fill="#939597" font-family="'Helvetica'" font-size="13.9091">parallel</text>
<text transform="matrix(1 0 0 1 533.1289 192.8906)" fill="#939597" font-family="'Helvetica'" font-size="13.9091">+V</text>
<text transform="matrix(1 0 0 1 285.6406 192.8906)" fill="#939597" font-family="'Helvetica'" font-size="13.9091">+V</text>
</svg>
