<?xml version="1.0" encoding="utf-8"?>
<!-- Generator: Adobe Illustrator 16.0.0, SVG Export Plug-In . SVG Version: 6.00 Build 0)  -->
<!DOCTYPE svg PUBLIC "-//W3C//DTD SVG 1.1//EN" "http://www.w3.org/Graphics/SVG/1.1/DTD/svg11.dtd">
<svg version="1.1" id="Layer_1" xmlns="http://www.w3.org/2000/svg" xmlns:xlink="http://www.w3.org/1999/xlink" x="0px" y="0px"
	 width="792px" height="612px" viewBox="0 0 792 612" enable-background="new 0 0 792 612" xml:space="preserve">
<text transform="matrix(1 0 0 1 41.625 159)" fill="#010101" font-family="'AppleBraille'" font-size="26">⠅⠑⠽</text>
<text transform="matrix(1 0 0 1 41.625 216.5996)" fill="#010101" font-family="'AppleBraille'" font-size="26">⠏⠏⠼⠁⠀⠤⠀⠼⠁⠃⠧⠀⠏⠕⠺⠑⠗⠀⠎⠥⠏⠏⠇⠽⠀⠺⠊⠞⠓⠀</text>
<text transform="matrix(1 0 0 1 41.625 245.3994)" fill="#010101" font-family="'AppleBraille'" font-size="26">⠼⠁⠲⠃⠍⠍⠀⠃⠁⠗⠗⠑⠇⠀⠚⠁⠉⠅</text>
<text transform="matrix(1 0 0 1 41.625 274.1992)" fill="#010101" font-family="'AppleBraille'" font-size="26">⠓⠃⠼⠁⠀⠤⠀⠓⠤⠃⠗⠊⠙⠛⠑⠀⠇⠼⠃⠊⠉⠰⠙</text>
<text transform="matrix(1 0 0 1 41.625 305.3994)" fill="#532E85" font-family="'AppleBraille'" font-size="26">⠀</text>
<text transform="matrix(1 0 0 1 41.625 306.8994)" fill="#532E85" font-family="'ArialMT'" font-size="19.0417">Key</text>
<text transform="matrix(1 0 0 1 74.4355 306.8994)" fill="#532E85" font-family="'ArialMT'" font-size="19.0417">:</text>
<text transform="matrix(1 0 0 1 41.625 329.7471)" fill="#532E85" font-family="'ArialMT'" font-size="19.0417">MC1 - Arduino Uno (Rev 3)</text>
<text transform="matrix(1 0 0 1 41.625 352.5986)" fill="#532E85" font-family="'ArialMT'" font-size="19.0417">PP1 - 12V Power Supply with 1.2mm Barrel Jack</text>
<text transform="matrix(1 0 0 1 41.625 375.4482)" fill="#532E85" font-family="'ArialMT'" font-size="19.0417">HB1 - H-Bridge L293D</text>
<rect x="41.625" y="522.5" fill="none" width="505" height="20"/>
<g>
	<line fill="none" stroke="#000000" stroke-width="4" stroke-miterlimit="10" x1="755.229" y1="0.772" x2="791.227" y2="36.771"/>
	<line fill="none" stroke="#000000" stroke-width="4" stroke-miterlimit="10" x1="738" y1="0" x2="792" y2="54"/>
	<line fill="none" stroke="#000000" stroke-width="4" stroke-miterlimit="10" x1="772.457" y1="1.543" x2="790.457" y2="19.543"/>
</g>
<text transform="matrix(1 0 0 1 41.625 187.7998)" fill="#010101" font-family="'AppleBraille'" font-size="26">⠍⠉⠼⠁⠀⠤⠀⠁⠗⠙⠥⠊⠝⠕⠀⠥⠝⠕⠀⠐⠣⠗⠑⠧⠼⠉⠐⠜</text>
<g id="Braille_1_">
	<text transform="matrix(1 0 0 1 42.626 78.0645)" font-family="'AppleBraille'" font-size="26">⠎⠞⠑⠏⠏⠑⠗⠀⠼⠃</text>
</g>
<text transform="matrix(1 0 0 1 236.5303 75.002)" fill="#532E85" font-family="'ArialMT'" font-size="21">Stepper 2</text>
</svg>
