<?xml version="1.0" encoding="utf-8"?>
<!-- Generator: Adobe Illustrator 21.1.0, SVG Export Plug-In . SVG Version: 6.00 Build 0)  -->
<svg version="1.1" xmlns="http://www.w3.org/2000/svg" xmlns:xlink="http://www.w3.org/1999/xlink" x="0px" y="0px"
	 viewBox="0 0 792 612" style="enable-background:new 0 0 792 612;" xml:space="preserve">
<style type="text/css">
	.st0{fill:none;stroke:#000000;stroke-linecap:round;stroke-miterlimit:10;}
	.st1{fill:none;stroke:#000000;stroke-miterlimit:10;}
	.st2{fill:#888888;}
	.st3{font-family:'MyriadPro-Regular';}
	.st4{font-size:12px;}
	.st5{font-family:'MyriadPro-It';}
	.st6{fill:none;stroke:#000000;stroke-width:4;stroke-miterlimit:10;}
	.st7{font-family:'AppleBraille';}
	.st8{font-size:30px;}
</style>
<g id="Layer_1">
	<rect x="439.4" y="346.2" class="st0" width="317.1" height="246.3"/>
	<rect x="221.4" y="400.2" class="st0" width="79" height="100"/>
	<g>
		<rect x="668.4" y="66.2" class="st0" width="21" height="42"/>
		<line class="st0" x1="689.4" y1="66.2" x2="713.4" y2="42.2"/>
		<line class="st0" x1="689.4" y1="108.2" x2="712.4" y2="131.2"/>
		<line class="st0" x1="713.4" y1="42.2" x2="713.4" y2="131.2"/>
	</g>
	<g>
		<rect x="667.4" y="170.2" class="st0" width="21" height="42"/>
		<line class="st0" x1="688.4" y1="170.2" x2="712.4" y2="146.2"/>
		<line class="st0" x1="688.4" y1="212.2" x2="711.4" y2="235.2"/>
		<line class="st0" x1="712.4" y1="146.2" x2="712.4" y2="235.2"/>
	</g>
	<rect x="452.1" y="384.5" class="st0" width="293.4" height="78"/>
	<rect x="448.5" y="499.5" class="st0" width="224" height="77"/>
	<rect x="35" y="372.3" class="st0" width="21" height="21"/>
	<rect x="35" y="406.9" class="st0" width="21" height="21"/>
	<circle class="st0" cx="45.5" cy="452" r="12"/>
	<circle class="st0" cx="45.5" cy="486.6" r="12"/>
	<rect x="191.4" y="552.2" class="st0" width="128" height="38"/>
	<line class="st0" x1="56.5" y1="383.5" x2="221.4" y2="440.2"/>
	<line class="st0" x1="55.5" y1="417.5" x2="221.4" y2="447.2"/>
	<line class="st0" x1="57.5" y1="451.5" x2="221.4" y2="455.2"/>
	<line class="st0" x1="57.5" y1="486.5" x2="221.4" y2="464.2"/>
	<line class="st1" x1="235.9" y1="499.7" x2="235.9" y2="551.7"/>
	<line class="st1" x1="244.8" y1="499.7" x2="244.8" y2="551.7"/>
	<line class="st1" x1="253.7" y1="499.7" x2="253.7" y2="551.7"/>
	<line class="st1" x1="262.6" y1="499.7" x2="262.6" y2="551.7"/>
	<line class="st1" x1="271.5" y1="499.7" x2="271.5" y2="551.7"/>
	<line class="st1" x1="280.4" y1="499.7" x2="280.4" y2="551.7"/>
	<line class="st1" x1="666.9" y1="191.7" x2="631.5" y2="191.7"/>
	<line class="st1" x1="667.9" y1="86.7" x2="631.9" y2="86.7"/>
	<line class="st1" x1="533.4" y1="97.2" x2="533.4" y2="137.5"/>
	<rect x="162.9" y="73.7" class="st1" width="218.6" height="103"/>
	<line class="st1" x1="499.5" y1="211.7" x2="226.9" y2="211.7"/>
	<line class="st1" x1="225.9" y1="176.7" x2="226.9" y2="211.7"/>
	<line class="st1" x1="381.5" y1="97.2" x2="533.4" y2="97.2"/>
	<rect x="169" y="81.7" class="st1" width="196.9" height="84"/>
	<line class="st1" x1="195.9" y1="176.7" x2="195.9" y2="257.7"/>
	<line class="st1" x1="561.5" y1="499.5" x2="561.5" y2="463"/>
	<line class="st1" x1="195.4" y1="257.2" x2="406.5" y2="257.2"/>
	<line class="st1" x1="631.5" y1="86.5" x2="631.5" y2="191.5"/>
	<line class="st0" x1="300.5" y1="494.5" x2="384.5" y2="494.5"/>
	<line class="st0" x1="448.5" y1="538.5" x2="384.5" y2="538.5"/>
	<line class="st0" x1="384.5" y1="494.5" x2="384.5" y2="538.5"/>
	<line class="st1" x1="499.5" y1="345.5" x2="499.5" y2="211.5"/>
	<line class="st1" x1="448.5" y1="517.5" x2="406.5" y2="517.5"/>
	<line class="st1" x1="406.5" y1="257.5" x2="406.5" y2="517.5"/>
	<line class="st1" x1="631.5" y1="137.5" x2="533.5" y2="137.5"/>
</g>
<g id="plaintext">
	<text transform="matrix(1 0 0 1 691.5665 290.7965)"><tspan x="0" y="0" class="st2 st3 st4">Media</tspan><tspan x="0" y="14.4" class="st2 st3 st4">computer</tspan></text>
	<text transform="matrix(1 0 0 1 206.005 356.6471)" class="st2 st3 st4">Arduino</text>
	<text transform="matrix(1 0 0 1 77.005 380.6471)" class="st2 st3 st4">Sensors</text>
	<text transform="matrix(1 0 0 1 255.005 604.6471)" class="st2 st3 st4">LCD</text>
	<text transform="matrix(1 0 0 1 388.6437 21.0489)" class="st2 st3 st4">iPad or iPhone</text>
	<text transform="matrix(1 0 0 1 569.9943 25.2965)" class="st2 st3 st4">Speakers</text>
	<text transform="matrix(1 0 0 1 568.194 524.6779)" class="st2 st3 st4">p5.serialControl</text>
	<text transform="matrix(1 0 0 1 644.194 364.3444)"><tspan x="0" y="0" class="st2 st3 st4">web server serving </tspan><tspan x="0" y="14.4" class="st2 st3 st4">p5.js sketch</tspan></text>
	<text transform="matrix(1 0 0 1 61.194 136.3444)"><tspan x="0" y="0" class="st2 st3 st4">browser running</tspan><tspan x="0" y="14.4" class="st2 st3 st4">p5.js sketch</tspan></text>
	<text transform="matrix(1 0 0 1 39.194 72.3444)"><tspan x="0" y="0" class="st2 st3 st4">System</tspan><tspan x="0" y="14.4" class="st2 st3 st4">diagram 2</tspan></text>
	<text transform="matrix(1 0 0 1 428.527 60.6779)" class="st2 st5 st4">analog audio</text>
	<text transform="matrix(1 0 0 1 484.527 193.6779)" class="st2 st5 st4">HTTP</text>
	<text transform="matrix(1 0 0 1 141.3414 547.6779)"><tspan x="0" y="0" class="st2 st5 st4">GPIO</tspan><tspan x="-11.1" y="14.4" class="st2 st5 st4">or analog</tspan></text>
	<text transform="matrix(1 0 0 1 200.527 304.6779)" class="st2 st5 st4">webSocket</text>
	<text transform="matrix(1 0 0 1 317.527 533.6779)" class="st2 st5 st4">UART</text>
</g>
<g id="Braille">
	<line class="st6" x1="25.7" y1="2" x2="3.5" y2="24.2"/>
	<line class="st6" x1="40.1" y1="-1.5" x2="-1.5" y2="40.1"/>
	<text transform="matrix(1 0 0 1 599.5665 302.7965)"><tspan x="0" y="0" class="st7 st8">⠍⠫⠊⠁</tspan><tspan x="0" y="36" class="st7 st8">⠉⠕⠍⠏⠥⠞⠻</tspan></text>
	<text transform="matrix(1 0 0 1 203.005 395.6471)" class="st7 st8">⠠⠜⠙⠥⠔⠕</text>
	<text transform="matrix(1 0 0 1 11.005 359.6471)" class="st7 st8">⠠⠎⠢⠎⠕⠗⠎</text>
	<text transform="matrix(1 0 0 1 201.005 583.6471)" class="st7 st8">⠠⠠⠇⠉⠙</text>
	<text transform="matrix(1 0 0 1 237.6437 33.0489)"><tspan x="0" y="0" class="st7 st8">⠞⠁⠃⠇⠑⠞</tspan><tspan x="0" y="36" class="st7 st8">⠉⠕⠍⠏⠥⠞⠻</tspan></text>
	<text transform="matrix(1 0 0 1 22.6437 28.0489)"><tspan x="0" y="0" class="st7 st8">⠠⠎⠽⠌⠑⠍</tspan><tspan x="0" y="36" class="st7 st8">⠙⠊⠁⠛⠗⠁⠍ ⠼⠃</tspan></text>
	<text transform="matrix(1 0 0 1 624.9943 34.2965)" class="st7 st8">⠠⠎⠏⠂⠅⠻⠎</text>
	<text transform="matrix(1 0 0 1 451.194 528.6779)"><tspan x="0" y="0" class="st7 st8">⠏⠼⠑⠲</tspan><tspan x="0" y="36" class="st7 st8">⠎⠻⠊⠁⠇⠒⠞⠗⠕⠇</tspan></text>
	<text transform="matrix(1 0 0 1 465.194 416.3444)"><tspan x="0" y="0" class="st7 st8">⠺⠑⠃⠀⠎⠻⠧⠻⠀⠎⠻⠧⠬⠀</tspan><tspan x="0" y="36" class="st7 st8">⠏⠼⠑⠲⠰⠚⠎⠀⠎⠅⠑⠞⠡</tspan></text>
	<text transform="matrix(1 0 0 1 173.194 114.3444)"><tspan x="0" y="0" class="st7 st8">⠏⠼⠑⠀⠎⠅⠑⠞⠡</tspan><tspan x="0" y="36" class="st7 st8">⠔⠀⠃⠗⠪⠎⠻</tspan></text>
	<text transform="matrix(1 0 0 1 417.527 92.6778)"><tspan x="0" y="0" class="st7 st8">⠁⠝⠁⠇⠕⠛⠀</tspan><tspan x="0" y="36" class="st7 st8">⠁⠥⠙⠊⠕</tspan></text>
	<text transform="matrix(1 0 0 1 342.527 204.6779)" class="st7 st8">⠠⠠⠓⠞⠞⠏</text>
	<text transform="matrix(1 0 0 1 50.0035 524.6779)"><tspan x="0" y="0" class="st7 st8">⠠⠠⠛⠏⠊⠕</tspan><tspan x="30.8" y="36" class="st7 st8">⠕⠗⠀</tspan><tspan x="0" y="72" class="st7 st8">⠁⠝⠁⠇⠕⠛</tspan></text>
	<text transform="matrix(1 0 0 1 185.527 288.6779)" class="st7 st8">⠺⠑⠃⠠⠎⠕⠉⠅⠑⠞</text>
	<text transform="matrix(1 0 0 1 279.527 520.6779)" class="st7 st8">⠠⠠⠥⠜⠞</text>
</g>
</svg>
