<?xml version="1.0" encoding="utf-8"?>
<!-- Generator: Adobe Illustrator 21.1.0, SVG Export Plug-In . SVG Version: 6.00 Build 0)  -->
<svg version="1.1" xmlns="http://www.w3.org/2000/svg" xmlns:xlink="http://www.w3.org/1999/xlink" x="0px" y="0px"
	 viewBox="0 0 792 612" style="enable-background:new 0 0 792 612;" xml:space="preserve">
<style type="text/css">
	.st0{fill:none;stroke:#000000;stroke-linecap:round;stroke-miterlimit:10;}
	.st1{fill:none;stroke:#000000;stroke-miterlimit:10;}
	.st2{fill:#888888;}
	.st3{font-family:'MyriadPro-Regular';}
	.st4{font-size:12px;}
	.st5{font-family:'MyriadPro-It';}
	.st6{fill:none;stroke:#000000;stroke-width:4;stroke-miterlimit:10;}
	.st7{font-family:'AppleBraille';}
	.st8{font-size:30px;}
</style>
<g id="Layer_1">
	<rect x="440.4" y="311.5" class="st0" width="317.1" height="282"/>
	<rect x="222.4" y="401.2" class="st0" width="79" height="100"/>
	<g>
		<rect x="669.4" y="67.2" class="st0" width="21" height="42"/>
		<line class="st0" x1="690.4" y1="67.2" x2="714.4" y2="43.2"/>
		<line class="st0" x1="690.4" y1="109.2" x2="713.4" y2="132.2"/>
		<line class="st0" x1="714.4" y1="43.2" x2="714.4" y2="132.2"/>
	</g>
	<g>
		<rect x="668.4" y="171.2" class="st0" width="21" height="42"/>
		<line class="st0" x1="689.4" y1="171.2" x2="713.4" y2="147.2"/>
		<line class="st0" x1="689.4" y1="213.2" x2="712.4" y2="236.2"/>
		<line class="st0" x1="713.4" y1="147.2" x2="713.4" y2="236.2"/>
	</g>
	<rect x="453.1" y="345.5" class="st0" width="293.4" height="78"/>
	<rect x="449.5" y="500.5" class="st0" width="224" height="77"/>
	<rect x="56" y="373.3" class="st0" width="21" height="21"/>
	<rect x="56" y="407.9" class="st0" width="21" height="21"/>
	<circle class="st0" cx="66.5" cy="453" r="12"/>
	<circle class="st0" cx="66.5" cy="487.6" r="12"/>
	<rect x="192.4" y="553.2" class="st0" width="128" height="38"/>
	<line class="st0" x1="77.5" y1="384.5" x2="222.5" y2="434.5"/>
	<line class="st0" x1="76.5" y1="418.5" x2="221.5" y2="444.5"/>
	<line class="st0" x1="78.5" y1="452.5" x2="222.5" y2="455.5"/>
	<line class="st0" x1="78.5" y1="487.5" x2="222.5" y2="468.5"/>
	<line class="st1" x1="236.9" y1="500.7" x2="236.9" y2="552.7"/>
	<line class="st1" x1="245.8" y1="500.7" x2="245.8" y2="552.7"/>
	<line class="st1" x1="254.7" y1="500.7" x2="254.7" y2="552.7"/>
	<line class="st1" x1="263.6" y1="500.7" x2="263.6" y2="552.7"/>
	<line class="st1" x1="272.5" y1="500.7" x2="272.5" y2="552.7"/>
	<line class="st1" x1="281.4" y1="500.7" x2="281.4" y2="552.7"/>
	<line class="st1" x1="667.9" y1="192.7" x2="632.5" y2="192.7"/>
	<line class="st1" x1="668.9" y1="87.7" x2="632.9" y2="87.7"/>
	<line class="st1" x1="534.4" y1="344.5" x2="534.4" y2="138.5"/>
	<rect x="173.9" y="57.5" class="st1" width="218.6" height="120.2"/>
	<line class="st1" x1="196.9" y1="177.7" x2="196.9" y2="258.7"/>
	<line class="st1" x1="522.5" y1="500.5" x2="522.5" y2="424.5"/>
	<line class="st1" x1="196.4" y1="258.2" x2="466.5" y2="258.2"/>
	<line class="st1" x1="632.5" y1="87.5" x2="632.5" y2="192.5"/>
	<line class="st0" x1="301.5" y1="495.5" x2="385.5" y2="495.5"/>
	<line class="st0" x1="449.5" y1="539.5" x2="385.5" y2="539.5"/>
	<line class="st0" x1="385.5" y1="495.5" x2="385.5" y2="539.5"/>
	<line class="st1" x1="632.5" y1="138.5" x2="534.5" y2="138.5"/>
	<text transform="matrix(1 0 0 1 692.5665 261.7965)"><tspan x="0" y="0" class="st2 st3 st4">Media</tspan><tspan x="0" y="14.4" class="st2 st3 st4">computer</tspan></text>
	<text transform="matrix(1 0 0 1 207.005 357.6471)" class="st2 st3 st4">Arduino</text>
	<text transform="matrix(1 0 0 1 78.005 381.6471)" class="st2 st3 st4">Sensors</text>
	<text transform="matrix(1 0 0 1 256.005 605.6471)" class="st2 st3 st4">LCD</text>
	<text transform="matrix(1 0 0 1 115.6437 132.049)"><tspan x="0" y="0" class="st2 st3 st4">VGA or </tspan><tspan x="0" y="14.4" class="st2 st3 st4">HDMI</tspan><tspan x="0" y="28.8" class="st2 st3 st4">display</tspan></text>
	<text transform="matrix(1 0 0 1 570.9943 26.2965)" class="st2 st3 st4">Speakers</text>
	<text transform="matrix(1 0 0 1 569.194 525.6779)" class="st2 st3 st4">p5.serialControl</text>
	<text transform="matrix(1 0 0 1 645.194 325.3444)"><tspan x="0" y="0" class="st2 st3 st4">Browser running </tspan><tspan x="0" y="14.4" class="st2 st3 st4">p5.js sketch</tspan></text>
	<text transform="matrix(1 0 0 1 232.194 271.3444)" class="st2 st3 st4">VGA or HDMI</text>
	<text transform="matrix(1 0 0 1 40.194 73.3444)"><tspan x="0" y="0" class="st2 st3 st4">System</tspan><tspan x="0" y="14.4" class="st2 st3 st4">diagram</tspan></text>
	<text transform="matrix(1 0 0 1 458.527 161.6779)" class="st2 st5 st4">analog audio</text>
	<text transform="matrix(1 0 0 1 142.3414 548.6779)"><tspan x="0" y="0" class="st2 st5 st4">GPIO</tspan><tspan x="-11.1" y="14.4" class="st2 st5 st4">or analog</tspan></text>
	<text transform="matrix(1 0 0 1 595.527 491.6779)" class="st2 st5 st4">webSocket</text>
	<text transform="matrix(1 0 0 1 318.527 534.6779)" class="st2 st5 st4">UART</text>
	<line class="st6" x1="26.7" y1="3" x2="4.5" y2="25.2"/>
	<line class="st6" x1="41.1" y1="-0.5" x2="-0.5" y2="41.1"/>
	<text transform="matrix(1 0 0 1 599.5665 269.7965)"><tspan x="0" y="0" class="st7 st8">⠍⠫⠊⠁</tspan><tspan x="0" y="36" class="st7 st8">⠉⠕⠍⠏⠥⠞⠻</tspan></text>
	<text transform="matrix(1 0 0 1 204.005 396.6471)" class="st7 st8">⠠⠜⠙⠥⠔⠕</text>
	<text transform="matrix(1 0 0 1 32.005 360.6471)" class="st7 st8">⠠⠎⠢⠎⠕⠗⠎</text>
	<text transform="matrix(1 0 0 1 202.005 584.6471)" class="st7 st8">⠠⠠⠇⠉⠙</text>
	<text transform="matrix(1 0 0 1 183.6437 99.049)"><tspan x="0" y="0" class="st7 st8">⠠⠠⠧⠛⠁⠀⠕⠗⠀</tspan><tspan x="0" y="36" class="st7 st8">⠠⠠⠓⠙⠍⠊</tspan><tspan x="0" y="72" class="st7 st8">⠙⠊⠎⠏⠇⠁⠽</tspan></text>
	<text transform="matrix(1 0 0 1 33.6437 29.049)"><tspan x="0" y="0" class="st7 st8">⠠⠎⠽⠌⠑⠍</tspan><tspan x="0" y="36" class="st7 st8">⠙⠊⠁⠛⠗⠁⠍</tspan></text>
	<text transform="matrix(1 0 0 1 625.9943 35.2965)" class="st7 st8">⠠⠎⠏⠂⠅⠻⠎</text>
	<text transform="matrix(1 0 0 1 452.194 529.6779)"><tspan x="0" y="0" class="st7 st8">⠏⠼⠑⠲</tspan><tspan x="0" y="36" class="st7 st8">⠎⠻⠊⠁⠇⠒⠞⠗⠕⠇</tspan></text>
	<text transform="matrix(1 0 0 1 466.194 377.3444)"><tspan x="0" y="0" class="st7 st8">⠠⠃⠗⠪⠎⠻⠀⠗⠥⠝⠝⠬⠀</tspan><tspan x="0" y="36" class="st7 st8">⠏⠼⠑⠲⠰⠚⠎⠀⠎⠅⠑⠞⠡</tspan></text>
	<text transform="matrix(1 0 0 1 200.194 253.3444)" class="st7 st8">⠠⠠⠧⠛⠁⠀⠕⠗⠀⠠⠠⠓⠙⠍⠊</text>
	<text transform="matrix(1 0 0 1 500.527 95.6779)"><tspan x="0" y="0" class="st7 st8">⠁⠝⠁⠇⠕⠛⠀</tspan><tspan x="0" y="36" class="st7 st8">⠁⠥⠙⠊⠕</tspan></text>
	<text transform="matrix(1 0 0 1 51.0035 525.6779)"><tspan x="0" y="0" class="st7 st8">⠠⠠⠛⠏⠊⠕</tspan><tspan x="30.8" y="36" class="st7 st8">⠕⠗⠀</tspan><tspan x="0" y="72" class="st7 st8">⠁⠝⠁⠇⠕⠛</tspan></text>
	<text transform="matrix(1 0 0 1 545.527 472.6779)" class="st7 st8">⠺⠑⠃⠠⠎⠕⠉⠅⠑⠞</text>
	<text transform="matrix(1 0 0 1 280.527 521.6779)" class="st7 st8">⠠⠠⠥⠜⠞</text>
	<line class="st1" x1="466.5" y1="258.5" x2="466.5" y2="310.5"/>
</g>
<g id="Layer_2">
</g>
<g id="Layer_3">
</g>
</svg>
