<?xml version="1.0" encoding="utf-8"?>
<!-- Generator: Adobe Illustrator 16.0.0, SVG Export Plug-In . SVG Version: 6.00 Build 0)  -->
<!DOCTYPE svg PUBLIC "-//W3C//DTD SVG 1.1//EN" "http://www.w3.org/Graphics/SVG/1.1/DTD/svg11.dtd">
<svg version="1.1" id="Layer_1" xmlns="http://www.w3.org/2000/svg" xmlns:xlink="http://www.w3.org/1999/xlink" x="0px" y="0px"
	 width="792px" height="612px" viewBox="0 0 792 612" enable-background="new 0 0 792 612" xml:space="preserve">
<g id="plaintext" display="none">
	<text transform="matrix(1 0 0 1 262.8433 340.8613)" display="inline" font-family="'MyriadPro-Regular'" font-size="17.7326">Output</text>
	<text transform="matrix(1 0 0 1 162.7798 362.1406)" display="inline" font-family="'MyriadPro-Regular'" font-size="17.7326">from microcontroller</text>
	<text transform="matrix(1 0 0 1 29.8711 236.959)" display="inline" font-family="'MyriadPro-Regular'" font-size="17.7326">Digital Output</text>
	<text transform="matrix(1 0 0 1 404.5684 400.3926)" display="inline" font-family="'MyriadPro-Regular'" font-size="17.7326">220Ω</text>
	<text transform="matrix(1 0 0 1 413.8398 467.625)" display="inline" font-family="'MyriadPro-Regular'" font-size="17.7326">LED</text>
</g>
<g id="Braille_1_">
	<text transform="matrix(1 0 0 1 42.626 94.5957)" font-family="'AppleBraille'" font-size="30">⠞⠗⠁⠝⠎⠊⠌⠕⠗⠀⠯⠀⠍⠕⠞⠕⠗</text>
</g>
<line fill="none" stroke="#000000" stroke-width="4" stroke-miterlimit="10" x1="23.22" y1="-3.5" x2="1" y2="18.719"/>
<line fill="none" stroke="#000000" stroke-width="4" stroke-miterlimit="10" x1="37.625" y1="-7" x2="-4" y2="34.625"/>
<text transform="matrix(1 0 0 1 404.8594 87.5312)" fill="#BBBDC0" font-family="'ArialMT'" font-size="21">Transistor and Motor</text>
<g>
	<circle fill="#D1D2D4" stroke="#FFFFFF" stroke-miterlimit="10" cx="89.503" cy="41.393" r="9.212"/>
	<circle fill="#D1D2D4" stroke="#FFFFFF" stroke-miterlimit="10" cx="702.496" cy="39.893" r="9.212"/>
	<circle fill="#D1D2D4" stroke="#FFFFFF" stroke-miterlimit="10" cx="395.646" cy="38.393" r="9.213"/>
</g>
<g>
	<path id="connector0pin_1_" fill="none" stroke="#797979" stroke-width="2" stroke-linecap="round" d="M278.097,468.33"/>
	<path fill="none" stroke="#010101" stroke-width="2" stroke-linecap="round" d="M359.227,423.688"/>
	<path fill="none" stroke="#010101" stroke-width="2" stroke-linecap="round" d="M366.275,504.844"/>
	
		<line id="connector2pin_5_" fill="none" stroke="#797979" stroke-width="2" stroke-linecap="round" x1="358.227" y1="555.459" x2="358.227" y2="532.818"/>
	
		<line id="connector1pin_13_" fill="none" stroke="#797979" stroke-width="2" stroke-linecap="round" x1="359.227" y1="387.047" x2="359.227" y2="423.688"/>
</g>
<g>
	<path fill="#FFFFFF" stroke="#010101" stroke-width="2" d="M402.321,279.386c0-16.257-8.896-30.366-22.238-37.728h6.136v-42.942
		h-26.84h-26.992v42.942h6.136c-13.344,7.362-22.238,21.471-22.238,37.728c0,16.256,8.895,30.366,22.238,37.728h-6.136v42.941
		h26.992h26.84v-42.941h-6.136C393.426,309.752,402.321,295.642,402.321,279.386z"/>
	
		<line fill="none" stroke="#010101" stroke-width="2" stroke-linecap="round" x1="332.387" y1="198.716" x2="332.387" y2="241.658"/>
	
		<line fill="none" stroke="#010101" stroke-width="2" stroke-linecap="round" x1="332.387" y1="198.716" x2="359.227" y2="198.716"/>
	
		<line fill="none" stroke="#010101" stroke-width="2" stroke-linecap="round" x1="359.227" y1="198.716" x2="386.219" y2="198.716"/>
	
		<line fill="none" stroke="#010101" stroke-width="2" stroke-linecap="round" x1="386.219" y1="198.716" x2="386.219" y2="241.658"/>
	
		<line fill="none" stroke="#010101" stroke-width="2" stroke-linecap="round" x1="386.219" y1="360.209" x2="386.219" y2="317.113"/>
	
		<line fill="none" stroke="#010101" stroke-width="2" stroke-linecap="round" x1="386.219" y1="360.209" x2="359.227" y2="360.209"/>
	
		<line fill="none" stroke="#010101" stroke-width="2" stroke-linecap="round" x1="359.227" y1="360.209" x2="332.387" y2="360.209"/>
	
		<line fill="none" stroke="#010101" stroke-width="2" stroke-linecap="round" x1="332.387" y1="360.209" x2="332.387" y2="317.113"/>
	
		<line id="connector0pin_4_" fill="none" stroke="#8C8C8C" stroke-width="2" stroke-linecap="round" stroke-miterlimit="10" x1="359.227" y1="171.724" x2="359.227" y2="198.716"/>
	
		<line id="connector1pin_4_" fill="none" stroke="#8C8C8C" stroke-width="2" stroke-linecap="round" stroke-miterlimit="10" x1="359.227" y1="387.047" x2="359.227" y2="360.209"/>
	<circle fill="none" stroke="#010101" stroke-width="2" cx="359.227" cy="279.386" r="42.942"/>
	<g transform="matrix(1, 0, 0, 1, 2.40594, 0.864304)">
		<g>
			<g transform="rotate(270)">
				<g>
					<g transform="matrix(0, 1, -1, 0, -6.5263, 2.7464)">
						<text transform="matrix(1 0 0 1 348.0166 205.9845)" fill="#B1B3B5" font-family="'HelveticaNeue'" font-size="20.3404">+</text>
					</g>
				</g>
			</g>
		</g>
	</g>
	<g transform="matrix(1, 0, 0, 1, 2.40594, 11.0243)">
		<g>
			<g transform="rotate(270)">
				<g>
					<g transform="matrix(0, 1, -1, 0, -13.1007, 3.0257)">
						<text transform="matrix(1 0 0 1 349.7363 314.5361)" fill="#B1B3B5" font-family="'HelveticaNeue'" font-size="20.3404">-</text>
					</g>
				</g>
			</g>
		</g>
	</g>
</g>
<g>
	<g transform="translate(46.5692,160.233)">
		<g id="schematic_1_">
			<path id="connector0pin_2_" fill="none" stroke="#797979" stroke-width="2" stroke-linecap="round" d="M311.609,420.429v-25.152"
				/>
			<g id="connector0terminal_1_">
			</g>
			<path id="path4098_1_" fill="none" stroke="#010101" stroke-width="2" stroke-linecap="round" d="M288.299,421.042h47.082"/>
			<path id="path4100_1_" fill="none" stroke="#010101" stroke-width="2" stroke-linecap="round" d="M296.119,430.551h31.44"/>
			<path id="path4102_1_" fill="none" stroke="#010101" stroke-width="2" stroke-linecap="round" d="M319.585,440.213h-15.644"/>
		</g>
	</g>
</g>
<g>
	<g transform="translate(46.5692,160.233)">
		<g id="schematic_3_">
			<path id="connector0pin_6_" fill="none" stroke="#797979" stroke-width="2" stroke-linecap="round" d="M108.175,417.803v-25.305"
				/>
			<g id="connector0terminal_3_">
			</g>
			<path id="path4098_2_" fill="none" stroke="#010101" stroke-width="2" stroke-linecap="round" d="M84.711,418.264h47.083"/>
			<path id="path4100_2_" fill="none" stroke="#010101" stroke-width="2" stroke-linecap="round" d="M92.532,427.925h31.439"/>
			<path id="path4102_2_" fill="none" stroke="#010101" stroke-width="2" stroke-linecap="round" d="M115.997,437.587h-15.644"/>
		</g>
	</g>
</g>
<g>
	<g transform="translate(46.5882,125.476)">
		<g id="schematic_10_">
			
				<line id="connector0pin_10_" fill="none" stroke="#797979" stroke-width="2" stroke-linecap="round" stroke-miterlimit="10" x1="312.62" y1="21.059" x2="312.62" y2="46.211"/>
			<g id="connector0terminal_10_">
			</g>
			<path fill="none" stroke="#010101" stroke-width="2" stroke-linecap="round" d="M289.002,20.293h47.39"/>
			<g transform="matrix(1, 0, 0, 1, 1.4985, 4.9878)">
				<g>
					<text id="label_9_" transform="matrix(1 0 0 1 268.51 6.9913)" fill="#BBBDC0" font-family="'ArialMT'" font-size="13.9091">+V</text>
				</g>
			</g>
		</g>
	</g>
</g>
<g>
	
		<line id="connector0pin_12_" fill="none" stroke="#797979" stroke-width="2" stroke-linecap="round" x1="433.033" y1="421.4" x2="433.033" y2="454.374"/>
	
		<line id="connector1pin_10_" fill="none" stroke="#797979" stroke-width="2" stroke-linecap="round" x1="433.033" y1="520.321" x2="433.033" y2="487.194"/>
	
		<line fill="none" stroke="#010101" stroke-width="2" stroke-linecap="round" x1="416.623" y1="454.374" x2="433.033" y2="454.374"/>
	
		<line fill="none" stroke="#010101" stroke-width="2" stroke-linecap="round" x1="433.033" y1="454.374" x2="449.597" y2="454.374"/>
	<polygon stroke="#010101" stroke-width="2" stroke-linecap="round" points="433.033,454.374 449.597,487.194 433.033,487.194 
		416.623,487.194 	"/>
	
		<line fill="none" stroke="#010101" stroke-width="2" stroke-linecap="round" x1="433.033" y1="487.194" x2="433.033" y2="454.374"/>
</g>
<line fill="none" stroke="#797979" stroke-width="2" stroke-linecap="round" x1="433.033" y1="398.55" x2="359.227" y2="398.55"/>
<line fill="none" stroke="#797979" stroke-width="2" stroke-linecap="round" x1="433.033" y1="536.136" x2="358.227" y2="536.136"/>
<circle cx="359.227" cy="399.624" r="7.668"/>
<circle cx="358.227" cy="536.136" r="7.668"/>
<line fill="none" stroke="#797979" stroke-width="2" stroke-linecap="round" x1="433.033" y1="421.4" x2="433.033" y2="398.55"/>
<line fill="none" stroke="#797979" stroke-width="2" stroke-linecap="round" x1="433.033" y1="530.136" x2="433.033" y2="520.321"/>
<polygon fill="none" stroke="#020202" stroke-width="6" stroke-linecap="round" points="278.097,529.523 218.284,529.523 
	196.506,552.527 118.291,552.527 98.354,529.523 78.417,529.523 78.417,282.146 278.097,282.146 "/>
<g transform="matrix(1, 0, 0, 1, 22.6406, 75.9354)">
	<g>
		<text transform="matrix(1 0 0 1 82.2276 305.5636)" enable-background="new    "><tspan x="0" y="0" font-family="'AppleBraille'" font-size="30">⠍⠊⠉⠗⠕</tspan><tspan x="0" y="36" font-family="'AppleBraille'" font-size="30">⠒⠞⠗⠕⠇⠇⠻</tspan></text>
	</g>
</g>
<g transform="matrix(1, 0, 0, 1, 22.6406, 75.9354)">
	<text transform="matrix(1 0 0 1 440.3555 387.1163)" enable-background="new    "><tspan x="0" y="0" font-family="'AppleBraille'" font-size="30">⠊⠗⠋⠼⠑⠃⠚⠀</tspan><tspan x="0" y="36" font-family="'AppleBraille'" font-size="30">⠍⠕⠎⠋⠑⠞</tspan></text>
</g>
<g transform="matrix(1, 0, 0, 1, 22.6406, 75.9354)">
	<g>
		<text transform="matrix(1 0 0 1 385.5342 209.2545)" font-family="'AppleBraille'" font-size="30">⠠⠍⠕⠞⠕⠗</text>
	</g>
</g>
<g transform="matrix(1, 0, 0, 1, 22.6406, 75.9354)">
	<g>
		<text transform="matrix(1 0 0 1 309.8682 61.5197)" font-family="'AppleBraille'" font-size="30">⠐⠖⠧</text>
	</g>
</g>
<g transform="matrix(1, 0, 0, 1, 22.6406, 75.9354)">
	<g>
		<text transform="matrix(1 0 0 1 312.9492 156.0621)" font-family="'AppleBraille'" font-size="30">⠐⠖</text>
	</g>
</g>
<g transform="matrix(1, 0, 0, 1, 22.6406, 75.9354)">
	<g>
		<text transform="matrix(1 0 0 1 326.4629 273.5314)" font-family="'AppleBraille'" font-size="30">⠤</text>
	</g>
</g>
<g transform="matrix(1, 0, 0, 1, 22.6406, 75.9354)">
	<g>
		<text transform="matrix(1 0 0 1 82.2276 357.3019)" fill="#BBBDC0" font-family="'ArialMT'" font-size="13.9091">Microcontroller</text>
	</g>
</g>
<g transform="matrix(1, 0, 0, 1, 22.6406, 75.9354)">
	<g>
		<text transform="matrix(1 0 0 1 440.3555 356.1368)" fill="#BBBDC0" font-family="'ArialMT'" font-size="13.9091">IRF520 MOSFET</text>
	</g>
</g>
<g transform="matrix(1, 0, 0, 1, 22.6406, 75.9354)">
	<g>
		<text transform="matrix(1 0 0 1 392.709 225.8405)" fill="#BBBDC0" font-family="'ArialMT'" font-size="13.9091">Motor</text>
	</g>
</g>
<polygon stroke="#010101" stroke-width="2" stroke-linecap="round" points="326.029,477.396 346.729,466.453 346.932,477.002 
	347.129,487.451 "/>
<rect x="312.457" y="501.97" fill="#010101" width="12.738" height="21.176"/>
<rect x="312.457" y="430.758" fill="#010101" width="12.738" height="21.177"/>
<rect x="312.457" y="462.145" fill="#010101" width="12.738" height="29.456"/>
<line fill="none" stroke="#010101" stroke-width="2" stroke-linecap="round" x1="297.967" y1="436.987" x2="297.967" y2="519.146"/>
<line fill="none" stroke="#010101" stroke-width="2" stroke-linecap="round" x1="358.791" y1="441.267" x2="325.513" y2="441.267"/>
<line fill="none" stroke="#010101" stroke-width="2" stroke-linecap="round" x1="358.791" y1="476.952" x2="358.791" y2="512.479"/>
<line fill="none" stroke="#010101" stroke-width="2" stroke-linecap="round" x1="325.035" y1="512.479" x2="358.791" y2="512.479"/>
<line fill="none" stroke="#010101" stroke-width="2" stroke-linecap="round" x1="358.791" y1="430.758" x2="358.791" y2="441.267"/>
<line fill="none" stroke="#010101" stroke-width="2" stroke-linecap="round" x1="358.791" y1="512.479" x2="358.791" y2="540.325"/>
<line fill="none" stroke="#010101" stroke-width="2" stroke-linecap="round" x1="295.579" y1="476.952" x2="278.097" y2="476.952"/>
<line fill="none" stroke="#010101" stroke-width="2" stroke-linecap="round" x1="325.035" y1="476.952" x2="346.052" y2="485.391"/>
<line fill="none" stroke="#010101" stroke-width="2" stroke-linecap="round" x1="346.052" y1="485.391" x2="346.052" y2="468.514"/>
<line fill="none" stroke="#010101" stroke-width="2" stroke-linecap="round" x1="346.052" y1="468.514" x2="325.035" y2="476.952"/>
<line fill="none" stroke="#010101" stroke-width="2" stroke-linecap="round" x1="343.983" y1="476.952" x2="358.791" y2="476.952"/>
<line fill="none" stroke="#010101" stroke-width="2" stroke-linecap="round" x1="343.983" y1="472.653" x2="329.175" y2="476.952"/>
<line fill="none" stroke="#010101" stroke-width="2" stroke-linecap="round" x1="329.175" y1="476.952" x2="343.983" y2="481.092"/>
<line fill="none" stroke="#010101" stroke-width="2" stroke-linecap="round" x1="343.983" y1="481.092" x2="343.983" y2="476.952"/>
<line fill="none" stroke="#010101" stroke-width="2" stroke-linecap="round" x1="343.983" y1="476.952" x2="339.844" y2="476.952"/>
<line id="connector1pin_3_" fill="none" stroke="#797979" stroke-width="2" stroke-linecap="round" x1="358.791" y1="412.413" x2="358.791" y2="430.758"/>
</svg>
