<?xml version="1.0" encoding="utf-8"?>
<!-- Generator: Adobe Illustrator 21.1.0, SVG Export Plug-In . SVG Version: 6.00 Build 0)  -->
<svg version="1.1" id="Layer_1" xmlns="http://www.w3.org/2000/svg" xmlns:xlink="http://www.w3.org/1999/xlink" x="0px" y="0px"
	 viewBox="0 0 234.6 464.1" style="enable-background:new 0 0 234.6 464.1;" xml:space="preserve">
<style type="text/css">
	.st0{fill:none;stroke:#000000;stroke-width:2;stroke-linecap:round;stroke-miterlimit:10;}
	.st1{font-family:'HelveticaNeue';}
	.st2{font-size:24px;}
</style>
<g>
	<line class="st0" x1="32.5" y1="84.5" x2="32.5" y2="135.1"/>
	<line class="st0" x1="32.5" y1="186.5" x2="32.5" y2="237.1"/>
	<line class="st0" x1="32.5" y1="135.1" x2="62.9" y2="186.5"/>
</g>
<g>
	<line class="st0" x1="174.9" y1="84.5" x2="174.9" y2="135.1"/>
	<line class="st0" x1="174.9" y1="186.5" x2="174.9" y2="237.1"/>
	<line class="st0" x1="174.9" y1="135.1" x2="205.2" y2="186.5"/>
</g>
<g>
	<line class="st0" x1="174.9" y1="237.1" x2="174.9" y2="287.8"/>
	<line class="st0" x1="174.9" y1="339.1" x2="174.9" y2="389.8"/>
	<line class="st0" x1="174.9" y1="287.8" x2="205.2" y2="339.1"/>
</g>
<g>
	<line class="st0" x1="32.5" y1="237.1" x2="32.5" y2="287.8"/>
	<line class="st0" x1="32.5" y1="339.1" x2="32.5" y2="389.8"/>
	<line class="st0" x1="32.5" y1="287.8" x2="62.9" y2="339.1"/>
</g>
<circle class="st0" cx="103.5" cy="237.1" r="30"/>
<line class="st0" x1="32.5" y1="237.1" x2="73.5" y2="237.1"/>
<line class="st0" x1="133.5" y1="237.1" x2="174.9" y2="237.1"/>
<line class="st0" x1="32.5" y1="84.5" x2="174.9" y2="84.5"/>
<line class="st0" x1="32.5" y1="389.8" x2="174.9" y2="389.8"/>
<line class="st0" x1="103.7" y1="389.8" x2="103.7" y2="419.8"/>
<line class="st0" x1="103.7" y1="84.5" x2="103.7" y2="57.1"/>
<line class="st0" x1="90.2" y1="420.1" x2="116.9" y2="420.1"/>
<line class="st0" x1="96.5" y1="428.8" x2="110.9" y2="428.8"/>
<line class="st0" x1="99.5" y1="438.8" x2="107.5" y2="438.8"/>
<circle cx="32.5" cy="237.1" r="4.2"/>
<circle cx="103.7" cy="389.8" r="4.2"/>
<circle cx="174.9" cy="237.1" r="4.2"/>
<circle cx="103.5" cy="84.5" r="4.2"/>
<text transform="matrix(1 0 0 1 93.2324 245.6284)" class="st1 st2">M</text>
<text transform="matrix(1 0 0 1 13.0054 172.961)" class="st1 st2">1</text>
<text transform="matrix(1 0 0 1 207.6719 172.961)" class="st1 st2">3</text>
<text transform="matrix(1 0 0 1 207.6719 318.2939)" class="st1 st2">4</text>
<text transform="matrix(1 0 0 1 13.0054 318.2939)" class="st1 st2">2</text>
<text transform="matrix(1 0 0 1 89.1523 40.6284)" class="st1 st2">+V</text>
</svg>
