<?xml version="1.0" encoding="utf-8"?>
<!-- Generator: Adobe Illustrator 21.1.0, SVG Export Plug-In . SVG Version: 6.00 Build 0)  -->
<svg version="1.1" id="Layer_1" xmlns:svg="http://www.w3.org/2000/svg"
	 xmlns="http://www.w3.org/2000/svg" xmlns:xlink="http://www.w3.org/1999/xlink" x="0px" y="0px" viewBox="0 0 641.3 576.4"
	 style="enable-background:new 0 0 641.3 576.4;" xml:space="preserve">
<style type="text/css">
	.st0{fill:none;stroke:#404040;stroke-width:2;stroke-linecap:round;}
	.st1{fill:none;stroke:#000000;stroke-width:2;}
	.st2{fill:none;stroke:#000000;stroke-width:2;stroke-linecap:round;}
	.st3{fill:none;stroke:#787878;stroke-width:2;stroke-linecap:round;}
	.st4{fill:#FFFFFF;stroke:#000000;stroke-width:2;}
	.st5{font-family:'HelveticaNeue';}
	.st6{font-size:19.3757px;}
	.st7{fill:none;stroke:#8C8C8C;stroke-width:2;stroke-linecap:round;stroke-miterlimit:10;}
	.st8{fill:#787878;}
	.st9{font-family:'ArialMT';}
	.st10{font-size:15.9565px;}
	.st11{fill:none;stroke:#787878;stroke-width:2;stroke-linecap:round;stroke-miterlimit:10;}
	.st12{font-size:20.5114px;}
	.st13{font-size:22.795px;}
</style>
<line class="st0" x1="102.3" y1="288.3" x2="63.7" y2="288.3"/>
<line class="st0" x1="568.3" y1="288.3" x2="529.7" y2="288.3"/>
<path class="st1" d="M200.8,442.6c0.9,0,1.6,0.7,1.6,1.6s-0.7,1.6-1.6,1.6c-0.9,0-1.6-0.7-1.6-1.6S199.9,442.6,200.8,442.6z"/>
<path class="st1" d="M200.8,393.4c0.9,0,1.6,0.7,1.6,1.6s-0.7,1.6-1.6,1.6c-0.9,0-1.6-0.7-1.6-1.6
	C199.2,394.1,199.9,393.4,200.8,393.4z"/>
<rect x="164.7" y="436" width="9.8" height="16.4"/>
<rect x="164.7" y="386.8" width="9.8" height="16.4"/>
<rect x="164.7" y="408.1" width="9.8" height="23"/>
<line class="st2" x1="153.5" y1="388.4" x2="153.5" y2="452.5"/>
<line class="st2" x1="200.8" y1="395" x2="174.9" y2="395"/>
<line class="st2" x1="200.8" y1="419.6" x2="200.8" y2="444.3"/>
<line class="st2" x1="174.5" y1="444.3" x2="200.8" y2="444.3"/>
<line class="st2" x1="200.8" y1="386.8" x2="200.8" y2="395"/>
<line class="st2" x1="200.8" y1="395" x2="233.6" y2="395"/>
<line class="st2" x1="233.6" y1="444.3" x2="200.8" y2="444.3"/>
<line class="st2" x1="200.8" y1="444.3" x2="200.8" y2="452.5"/>
<line class="st2" x1="151.6" y1="419.6" x2="135.2" y2="419.6"/>
<line class="st2" x1="174.5" y1="419.6" x2="191" y2="426.2"/>
<line class="st2" x1="191" y1="426.2" x2="191" y2="413.1"/>
<line class="st2" x1="191" y1="413.1" x2="174.5" y2="419.6"/>
<line class="st2" x1="189.3" y1="419.6" x2="200.8" y2="419.6"/>
<line class="st2" x1="189.3" y1="416.4" x2="177.8" y2="419.6"/>
<line class="st2" x1="177.8" y1="419.6" x2="189.3" y2="422.9"/>
<line class="st2" x1="189.3" y1="422.9" x2="189.3" y2="419.6"/>
<line class="st2" x1="189.3" y1="419.6" x2="186" y2="419.6"/>
<line class="st2" x1="233.6" y1="395" x2="233.6" y2="409.8"/>
<line class="st2" x1="233.6" y1="409.8" x2="233.6" y2="444.3"/>
<line class="st2" x1="233.6" y1="409.8" x2="225.4" y2="427.8"/>
<line class="st2" x1="225.4" y1="427.8" x2="241.8" y2="427.8"/>
<line class="st2" x1="241.8" y1="427.8" x2="233.6" y2="409.8"/>
<line class="st2" x1="225.4" y1="409.8" x2="233.6" y2="409.8"/>
<line class="st2" x1="233.6" y1="409.8" x2="241.8" y2="409.8"/>
<line class="st2" x1="241.8" y1="409.8" x2="245.1" y2="406.5"/>
<line class="st2" x1="225.4" y1="409.8" x2="222.1" y2="413.1"/>
<line id="connector1pin" class="st3" x1="200.8" y1="354" x2="200.8" y2="386.8"/>
<line id="connector0pin" class="st3" x1="102.3" y1="419.6" x2="135.2" y2="419.6"/>
<line id="connector2pin" class="st3" x1="200.8" y1="485.3" x2="200.8" y2="452.5"/>
<path class="st1" d="M430.6,442.6c-0.9,0-1.6,0.7-1.6,1.6s0.7,1.6,1.6,1.6c0.9,0,1.6-0.7,1.6-1.6S431.5,442.6,430.6,442.6z"/>
<path class="st1" d="M430.6,393.4c-0.9,0-1.6,0.7-1.6,1.6s0.7,1.6,1.6,1.6c0.9,0,1.6-0.7,1.6-1.6
	C432.2,394.1,431.5,393.4,430.6,393.4z"/>
<rect x="456.8" y="436" width="9.8" height="16.4"/>
<rect x="456.8" y="386.8" width="9.8" height="16.4"/>
<rect x="456.8" y="408.1" width="9.8" height="23"/>
<line class="st2" x1="477.8" y1="388.4" x2="477.8" y2="452.5"/>
<line class="st2" x1="430.6" y1="395" x2="456.5" y2="395"/>
<line class="st2" x1="430.6" y1="419.6" x2="430.6" y2="444.3"/>
<line class="st2" x1="456.8" y1="444.3" x2="430.6" y2="444.3"/>
<line class="st2" x1="430.6" y1="386.8" x2="430.6" y2="395"/>
<line class="st2" x1="430.6" y1="395" x2="397.8" y2="395"/>
<line class="st2" x1="397.8" y1="444.3" x2="430.6" y2="444.3"/>
<line class="st2" x1="430.6" y1="444.3" x2="430.6" y2="452.5"/>
<line class="st2" x1="479.8" y1="419.6" x2="496.2" y2="419.6"/>
<line class="st2" x1="456.8" y1="419.6" x2="440.4" y2="426.2"/>
<line class="st2" x1="440.4" y1="426.2" x2="440.4" y2="413.1"/>
<line class="st2" x1="440.4" y1="413.1" x2="456.8" y2="419.6"/>
<line class="st2" x1="442.1" y1="419.6" x2="430.6" y2="419.6"/>
<line class="st2" x1="442.1" y1="416.4" x2="453.6" y2="419.6"/>
<line class="st2" x1="453.6" y1="419.6" x2="442.1" y2="422.9"/>
<line class="st2" x1="442.1" y1="422.9" x2="442.1" y2="419.6"/>
<line class="st2" x1="442.1" y1="419.6" x2="445.3" y2="419.6"/>
<line class="st2" x1="397.8" y1="395" x2="397.8" y2="409.8"/>
<line class="st2" x1="397.8" y1="409.8" x2="397.8" y2="444.3"/>
<line class="st2" x1="397.8" y1="409.8" x2="406" y2="427.8"/>
<line class="st2" x1="406" y1="427.8" x2="389.6" y2="427.8"/>
<line class="st2" x1="389.6" y1="427.8" x2="397.8" y2="409.8"/>
<line class="st2" x1="406" y1="409.8" x2="397.8" y2="409.8"/>
<line class="st2" x1="397.8" y1="409.8" x2="389.6" y2="409.8"/>
<line class="st2" x1="389.6" y1="409.8" x2="386.3" y2="406.5"/>
<line class="st2" x1="406" y1="409.8" x2="409.2" y2="413.1"/>
<line id="connector1pin_1_" class="st3" x1="430.6" y1="354" x2="430.6" y2="386.8"/>
<line id="connector0pin_1_" class="st3" x1="529.1" y1="419.6" x2="496.2" y2="419.6"/>
<line id="connector2pin_1_" class="st3" x1="430.6" y1="485.3" x2="430.6" y2="452.5"/>
<line class="st2" x1="153.5" y1="125.9" x2="153.5" y2="189.9"/>
<line class="st2" x1="200.8" y1="132.4" x2="174.9" y2="132.4"/>
<line class="st2" x1="200.8" y1="157" x2="200.8" y2="181.7"/>
<line class="st2" x1="174.5" y1="181.7" x2="200.8" y2="181.7"/>
<line class="st2" x1="200.8" y1="124.2" x2="200.8" y2="132.4"/>
<line class="st2" x1="200.8" y1="132.4" x2="233.6" y2="132.4"/>
<line class="st2" x1="233.6" y1="181.7" x2="200.8" y2="181.7"/>
<line class="st2" x1="200.8" y1="181.7" x2="200.8" y2="189.9"/>
<line class="st2" x1="233.6" y1="181.7" x2="233.6" y2="166.9"/>
<line class="st2" x1="233.6" y1="166.9" x2="233.6" y2="132.4"/>
<line class="st2" x1="233.6" y1="166.9" x2="241.8" y2="148.8"/>
<line class="st2" x1="241.8" y1="148.8" x2="225.4" y2="148.8"/>
<line class="st2" x1="225.4" y1="148.8" x2="233.6" y2="166.9"/>
<line class="st2" x1="241.8" y1="166.9" x2="233.6" y2="166.9"/>
<line class="st2" x1="233.6" y1="166.9" x2="225.4" y2="166.9"/>
<line class="st2" x1="225.4" y1="166.9" x2="222.1" y2="170.2"/>
<line class="st2" x1="241.8" y1="166.9" x2="245.1" y2="163.6"/>
<line class="st2" x1="200.8" y1="157" x2="184.4" y2="150.5"/>
<line class="st2" x1="184.4" y1="150.5" x2="184.4" y2="163.6"/>
<line class="st2" x1="184.4" y1="163.6" x2="200.8" y2="157"/>
<line class="st2" x1="186" y1="157" x2="174.5" y2="157"/>
<line class="st2" x1="186" y1="160.3" x2="197.5" y2="157"/>
<line class="st2" x1="197.5" y1="157" x2="186" y2="153.8"/>
<line class="st2" x1="186" y1="153.8" x2="186" y2="157"/>
<line class="st2" x1="186" y1="157" x2="189.3" y2="157"/>
<line class="st2" x1="151.6" y1="157" x2="135.2" y2="157"/>
<circle class="st1" cx="200.8" cy="181.7" r="1.6"/>
<circle class="st1" cx="200.8" cy="132.4" r="1.6"/>
<rect x="164.7" y="173.4" width="9.8" height="16.4"/>
<rect x="164.7" y="124.2" width="9.8" height="16.4"/>
<rect x="164.7" y="145.5" width="9.8" height="23"/>
<line id="connector0pin_2_" class="st3" x1="102.3" y1="157" x2="135.2" y2="157"/>
<line id="connector1pin_2_" class="st3" x1="200.8" y1="91.4" x2="200.8" y2="124.2"/>
<line id="connector2pin_2_" class="st3" x1="200.8" y1="222.7" x2="200.8" y2="189.9"/>
<line class="st2" x1="477.8" y1="125.9" x2="477.8" y2="189.9"/>
<line class="st2" x1="430.6" y1="132.4" x2="456.5" y2="132.4"/>
<line class="st2" x1="430.6" y1="157" x2="430.6" y2="181.7"/>
<line class="st2" x1="456.8" y1="181.7" x2="430.6" y2="181.7"/>
<line class="st2" x1="430.6" y1="124.2" x2="430.6" y2="132.4"/>
<line class="st2" x1="430.6" y1="132.4" x2="397.8" y2="132.4"/>
<line class="st2" x1="397.8" y1="181.7" x2="430.6" y2="181.7"/>
<line class="st2" x1="430.6" y1="181.7" x2="430.6" y2="189.9"/>
<line class="st2" x1="397.8" y1="181.7" x2="397.8" y2="166.9"/>
<line class="st2" x1="397.8" y1="166.9" x2="397.8" y2="132.4"/>
<line class="st2" x1="397.8" y1="166.9" x2="389.6" y2="148.8"/>
<line class="st2" x1="389.6" y1="148.8" x2="406" y2="148.8"/>
<line class="st2" x1="406" y1="148.8" x2="397.8" y2="166.9"/>
<line class="st2" x1="389.6" y1="166.9" x2="397.8" y2="166.9"/>
<line class="st2" x1="397.8" y1="166.9" x2="406" y2="166.9"/>
<line class="st2" x1="406" y1="166.9" x2="409.2" y2="170.2"/>
<line class="st2" x1="389.6" y1="166.9" x2="386.3" y2="163.6"/>
<line class="st2" x1="430.6" y1="157" x2="447" y2="150.5"/>
<line class="st2" x1="447" y1="150.5" x2="447" y2="163.6"/>
<line class="st2" x1="447" y1="163.6" x2="430.6" y2="157"/>
<line class="st2" x1="445.3" y1="157" x2="456.8" y2="157"/>
<line class="st2" x1="445.3" y1="160.3" x2="433.9" y2="157"/>
<line class="st2" x1="433.9" y1="157" x2="445.3" y2="153.8"/>
<line class="st2" x1="445.3" y1="153.8" x2="445.3" y2="157"/>
<line class="st2" x1="445.3" y1="157" x2="442.1" y2="157"/>
<line class="st2" x1="479.8" y1="157" x2="496.2" y2="157"/>
<path class="st1" d="M430.6,180c-0.9,0-1.6,0.7-1.6,1.6s0.7,1.6,1.6,1.6c0.9,0,1.6-0.7,1.6-1.6S431.5,180,430.6,180z"/>
<path class="st1" d="M430.6,130.8c-0.9,0-1.6,0.7-1.6,1.6s0.7,1.6,1.6,1.6c0.9,0,1.6-0.7,1.6-1.6S431.5,130.8,430.6,130.8z"/>
<rect x="456.8" y="173.4" width="9.8" height="16.4"/>
<rect x="456.8" y="124.2" width="9.8" height="16.4"/>
<rect x="456.8" y="145.5" width="9.8" height="23"/>
<line id="connector0pin_3_" class="st3" x1="529.1" y1="157" x2="496.2" y2="157"/>
<line id="connector1pin_3_" class="st3" x1="430.6" y1="91.4" x2="430.6" y2="124.2"/>
<line id="connector2pin_3_" class="st3" x1="430.6" y1="222.7" x2="430.6" y2="189.9"/>
<path class="st4" d="M313.9,262c-9.9,0-18.5,5.5-23,13.6v-3.7h-26.3v16.4v16.4h26.3V301c4.5,8.1,13.1,13.6,23,13.6
	c9.9,0,18.5-5.5,23-13.6v3.7h26.3v-16.4v-16.4h-26.3v3.7C332.4,267.5,323.8,262,313.9,262z"/>
<text id="label" transform="matrix(1 0 0 1 306.8386 295.4731)" class="st5 st6">M</text>
<line class="st2" x1="264.6" y1="304.7" x2="290.9" y2="304.7"/>
<line class="st2" x1="264.6" y1="304.7" x2="264.6" y2="288.3"/>
<line class="st2" x1="264.6" y1="288.3" x2="264.6" y2="271.9"/>
<line class="st2" x1="264.6" y1="271.9" x2="290.9" y2="271.9"/>
<line class="st2" x1="363.1" y1="271.9" x2="336.9" y2="271.9"/>
<line class="st2" x1="363.1" y1="271.9" x2="363.1" y2="288.3"/>
<line class="st2" x1="363.1" y1="288.3" x2="363.1" y2="304.7"/>
<line class="st2" x1="363.1" y1="304.7" x2="336.9" y2="304.7"/>
<line id="connector0pin_4_" class="st7" x1="248.2" y1="288.3" x2="264.6" y2="288.3"/>
<line id="connector1pin_4_" class="st7" x1="379.5" y1="288.3" x2="363.1" y2="288.3"/>
<circle class="st1" cx="313.9" cy="288.3" r="26.3"/>
<g>
	<g transform="rotate(270)">
		<g>
			<g transform="matrix(0, 1, -1, 0, -6.5263, 2.7464)">
				<text transform="matrix(0 -1 1 0 277.5863 286.1541)" class="st8 st9 st10">+</text>
			</g>
		</g>
	</g>
</g>
<g>
	<g transform="rotate(270)">
		<g>
			<g transform="matrix(0, 1, -1, 0, -13.1007, 3.0257)">
				<text transform="matrix(0 -1 1 0 353.6 278.3063)" class="st8 st9 st10">-</text>
			</g>
		</g>
	</g>
</g>
<line id="connector0pin_5_" class="st11" x1="315.2" y1="25.8" x2="315.2" y2="58.6"/>
<path class="st2" d="M284.4,24.8h61.5"/>
<text id="label_1_" transform="matrix(1 0 0 1 299.1784 17.602)" class="st5 st12">+V</text>
<g>
	<g transform="translate(40.7828,114.296)">
		<g id="schematic_6_">
			<path id="connector0pin_6_" class="st3" d="M275.5,436.2v-32.8"/>
			<g id="connector0terminal_6_">
			</g>
			<path id="path4098" class="st2" d="M245,436.8h61.1"/>
			<path id="path4100" class="st2" d="M255.1,449.3h40.7"/>
			<path id="path4102" class="st2" d="M285.7,461.7h-20.3"/>
		</g>
	</g>
</g>
<g>
	<line class="st0" x1="200.8" y1="354" x2="200.8" y2="288.3"/>
</g>
<g>
	<line class="st0" x1="200.8" y1="288.3" x2="200.8" y2="222.7"/>
</g>
<circle cx="200.8" cy="288.3" r="6.6"/>
<g>
	<line class="st0" x1="430.6" y1="354" x2="430.6" y2="288.3"/>
</g>
<g>
	<line class="st0" x1="430.6" y1="288.3" x2="430.6" y2="222.7"/>
</g>
<path d="M430.6,281.8c3.6,0,6.6,2.9,6.6,6.6c0,3.6-2.9,6.6-6.6,6.6c-3.6,0-6.6-2.9-6.6-6.6C424,284.7,427,281.8,430.6,281.8z"/>
<g>
	<line class="st0" x1="200.8" y1="288.3" x2="249.1" y2="288.3"/>
</g>
<g>
	<line class="st0" x1="430.6" y1="288.3" x2="378.9" y2="288.3"/>
</g>
<g>
	<line class="st0" x1="315.1" y1="91.4" x2="200.8" y2="91.4"/>
</g>
<circle cx="315.1" cy="91.4" r="6.6"/>
<g>
	<line class="st0" x1="430.6" y1="91.4" x2="315.1" y2="91.4"/>
</g>
<g>
	<line class="st0" x1="430.6" y1="485.3" x2="316.3" y2="485.3"/>
</g>
<g>
	<line class="st0" x1="316.3" y1="485.3" x2="200.8" y2="485.3"/>
</g>
<path d="M316.3,478.7c3.6,0,6.6,2.9,6.6,6.6s-2.9,6.6-6.6,6.6c-3.6,0-6.6-2.9-6.6-6.6S312.7,478.7,316.3,478.7z"/>
<g>
	<line class="st0" x1="316.3" y1="485.3" x2="316.3" y2="518.1"/>
</g>
<g>
	<line class="st0" x1="315.1" y1="91.4" x2="315.1" y2="58.6"/>
</g>
<g>
	<line class="st0" x1="529.1" y1="288.3" x2="529.1" y2="157"/>
</g>
<g>
	<line class="st0" x1="529.1" y1="419.6" x2="529.1" y2="288.3"/>
</g>
<g>
	<line class="st0" x1="102.3" y1="419.6" x2="102.3" y2="288.3"/>
</g>
<g>
	<line class="st0" x1="102.3" y1="288.3" x2="102.3" y2="157"/>
</g>
<g id="partLabel">
	<g transform="translate(3.62458,80.704)">
		<g id="schematicLabel">
			<text transform="matrix(1 0 0 1 110.4484 299.1832)" class="st5 st13">Q2</text>
		</g>
	</g>
</g>
<g id="partLabel_1_">
	<g transform="translate(85.069,81.4548)">
		<g id="schematicLabel_1_">
			<text transform="matrix(1 0 0 1 400.3067 301.8561)" class="st5 st13">Q4</text>
		</g>
	</g>
</g>
<g id="partLabel_2_">
	<g transform="translate(4.20542,24.0721)">
		<g id="schematicLabel_2_">
			<text transform="matrix(1 0 0 1 112.516 97.6314)" class="st5 st13">Q1</text>
		</g>
	</g>
</g>
<g id="partLabel_3_">
	<g transform="translate(85.069,22.6931)">
		<g id="schematicLabel_3_">
			<text transform="matrix(1 0 0 1 400.3067 92.7233)" class="st5 st13">Q3</text>
		</g>
	</g>
</g>
<g id="partLabel_4_">
	<g transform="translate(43.503,51.8375)">
		<g id="schematicLabel_4_">
			<text transform="matrix(1 0 0 1 252.3747 196.4462)" class="st5 st13">M1</text>
		</g>
	</g>
</g>
<circle cx="102.3" cy="288.3" r="6.6"/>
<path d="M529.1,281.8c3.6,0,6.6,2.9,6.6,6.6c0,3.6-2.9,6.6-6.6,6.6c-3.6,0-6.6-2.9-6.6-6.6C522.5,284.7,525.5,281.8,529.1,281.8z"/>
</svg>
