<?xml version="1.0" encoding="utf-8"?>
<!-- Generator: Adobe Illustrator 21.1.0, SVG Export Plug-In . SVG Version: 6.00 Build 0)  -->
<svg version="1.1" id="Layer_1" xmlns="http://www.w3.org/2000/svg" xmlns:xlink="http://www.w3.org/1999/xlink" x="0px" y="0px"
	 viewBox="0 0 606 276" style="enable-background:new 0 0 606 276;" xml:space="preserve">
<style type="text/css">
	.st0{fill:none;stroke:#000000;stroke-width:2;stroke-linecap:round;stroke-miterlimit:10;}
	.st1{font-family:'HelveticaNeue';}
	.st2{font-size:18.2638px;}
</style>
<line class="st0" x1="14.2" y1="69.7" x2="452.6" y2="240.2"/>
<path class="st0" d="M275,161.1c3.8-14.3-4.7-25.9-18.9-25.9c-14.3,0-29,11.6-32.8,25.9c-3.8,14.3,4.7,25.9,18.9,25.9
	C256.5,186.9,271.2,175.3,275,161.1z"/>
<path class="st0" d="M294.9,161.1c6.8-25.3-8.2-45.8-33.5-45.8c-25.3,0-51.3,20.5-58,45.8c-6.8,25.3,8.2,45.8,33.5,45.8
	C262.1,206.8,288.1,186.3,294.9,161.1z"/>
<path class="st0" d="M314.8,161.1c9.7-36.3-11.8-65.7-48.1-65.7s-73.6,29.4-83.3,65.7c-9.7,36.3,11.8,65.7,48.1,65.7
	S305.1,197.3,314.8,161.1z"/>
<path class="st0" d="M334.7,161.1c12.7-47.3-15.4-85.6-62.6-85.6c-47.3,0-95.8,38.3-108.5,85.6c-12.7,47.3,15.4,85.6,62.6,85.6
	C273.4,246.6,322,208.3,334.7,161.1z"/>
<path class="st0" d="M350.6,161.1c15-56.1-18.2-101.5-74.3-101.5S162.6,105,147.6,161.1c-15,56.1,18.2,101.5,74.3,101.5
	S335.6,217.1,350.6,161.1z"/>
<line class="st0" x1="406.1" y1="222.1" x2="372.9" y2="221.9"/>
<line class="st0" x1="406.1" y1="222.1" x2="384.1" y2="201.6"/>
<text transform="matrix(1 0 0 1 395.0762 186.9326)" class="st1 st2">Direction of current flow</text>
<text transform="matrix(1 0 0 1 195.188 33.7188)" class="st1 st2">Direction of magnetic field</text>
<line class="st0" x1="280.5" y1="59.6" x2="271" y2="54"/>
<line class="st0" x1="280.5" y1="59.6" x2="271" y2="64"/>
</svg>
