<?xml version="1.0" encoding="utf-8"?>
<!-- Generator: Adobe Illustrator 21.1.0, SVG Export Plug-In . SVG Version: 6.00 Build 0)  -->
<svg version="1.1" id="Layer_1" xmlns="http://www.w3.org/2000/svg" xmlns:xlink="http://www.w3.org/1999/xlink" x="0px" y="0px"
	 viewBox="0 0 562.8 351.3" style="enable-background:new 0 0 562.8 351.3;" xml:space="preserve">
<style type="text/css">
	.st0{fill:none;stroke:#000000;stroke-width:2;stroke-miterlimit:10;}
	.st1{fill:#010101;}
	.st2{fill:none;stroke:#010101;stroke-miterlimit:10;}
	.st3{font-family:'MyriadPro-Regular';}
	.st4{font-size:12px;}
</style>
<line class="st0" x1="29.5" y1="279" x2="522.5" y2="279"/>
<line class="st0" x1="59.5" y1="290" x2="59.5" y2="271.4"/>
<line class="st0" x1="113.1" y1="290" x2="113.1" y2="271.4"/>
<line class="st0" x1="435.1" y1="290" x2="435.1" y2="271.4"/>
<line class="st0" x1="381.5" y1="290" x2="381.5" y2="271.4"/>
<line class="st0" x1="327.8" y1="290" x2="327.8" y2="271.4"/>
<line class="st0" x1="274.1" y1="290" x2="274.1" y2="271.4"/>
<line class="st0" x1="220.5" y1="290" x2="220.5" y2="271.4"/>
<line class="st0" x1="166.8" y1="290" x2="166.8" y2="271.4"/>
<line class="st0" x1="29.5" y1="249.4" x2="83.1" y2="249.4"/>
<line class="st0" x1="83.1" y1="249.4" x2="83.1" y2="136.7"/>
<line class="st0" x1="83.1" y1="136.7" x2="136.8" y2="136.7"/>
<line class="st0" x1="136.8" y1="136.7" x2="136.8" y2="249.4"/>
<line class="st0" x1="136.8" y1="249.4" x2="190.5" y2="249.4"/>
<line class="st0" x1="190.5" y1="249.4" x2="190.5" y2="136.7"/>
<line class="st0" x1="190.5" y1="136.7" x2="244.1" y2="136.7"/>
<line class="st0" x1="244.1" y1="136.7" x2="297.8" y2="136.7"/>
<line class="st0" x1="297.8" y1="136.7" x2="297.8" y2="249.4"/>
<line class="st0" x1="297.8" y1="249.4" x2="351.5" y2="249.4"/>
<line class="st0" x1="351.5" y1="249.4" x2="351.5" y2="136.7"/>
<line class="st0" x1="351.5" y1="136.7" x2="405.1" y2="136.7"/>
<line class="st0" x1="405.1" y1="136.7" x2="405.1" y2="249.4"/>
<line class="st0" x1="405.1" y1="249.4" x2="458.8" y2="249.4"/>
<line class="st0" x1="29.5" y1="279" x2="29.5" y2="41.4"/>
<g>
	<g>
		<polygon class="st1" points="29.5,35.6 25.2,47.1 33.8,47.1 		"/>
		<polygon class="st2" points="29.5,35.6 25.2,47.1 33.8,47.1 		"/>
	</g>
</g>
<g>
	<g>
		<polygon class="st1" points="530.9,279 519.4,274.7 519.4,283.3 		"/>
		<polygon class="st2" points="530.9,279 519.4,274.7 519.4,283.3 		"/>
	</g>
</g>
<text transform="matrix(1 0 0 1 42.4614 306.0259)" class="st3 st4">1/9600</text>
<text transform="matrix(1 0 0 1 249.7949 330.6929)" class="st3 st4">Time (sec)</text>
<text transform="matrix(4.489659e-11 -1 1 4.489659e-11 22.4619 197.3611)" class="st3 st4">Voltage</text>
<text transform="matrix(1 0 0 1 96.1279 306.0259)" class="st3 st4">2/9600</text>
<text transform="matrix(1 0 0 1 149.7944 306.0259)" class="st3 st4">3/9600</text>
<text transform="matrix(1 0 0 1 203.4609 306.0259)" class="st3 st4">4/9600</text>
<text transform="matrix(1 0 0 1 257.1274 306.0259)" class="st3 st4">5/9600</text>
<text transform="matrix(1 0 0 1 310.7935 306.0259)" class="st3 st4">6/9600</text>
<text transform="matrix(1 0 0 1 364.4614 306.0259)" class="st3 st4">7/9600</text>
<text transform="matrix(1 0 0 1 418.1274 306.0259)" class="st3 st4">8/9600</text>
<text transform="matrix(1 0 0 1 52.4614 110.0264)" class="st3 st4">0</text>
<text transform="matrix(1 0 0 1 106.1279 110.0264)" class="st3 st4">1</text>
<text transform="matrix(1 0 0 1 159.7944 110.0264)" class="st3 st4">0</text>
<text transform="matrix(1 0 0 1 213.4609 110.0264)" class="st3 st4">1</text>
<text transform="matrix(1 0 0 1 267.1274 110.0264)" class="st3 st4">1</text>
<text transform="matrix(1 0 0 1 320.7935 110.0264)" class="st3 st4">0</text>
<text transform="matrix(1 0 0 1 374.4614 110.0264)" class="st3 st4">1</text>
<text transform="matrix(1 0 0 1 428.1274 110.0264)" class="st3 st4">0</text>
</svg>
