<?xml version="1.0" encoding="UTF-8" standalone="no"?>
<!DOCTYPE svg PUBLIC "-//W3C//DTD SVG 1.1//EN" "http://www.w3.org/Graphics/SVG/1.1/DTD/svg11.dtd">
<svg width="100%" height="100%" viewBox="0 0 225 191" version="1.1" xmlns="http://www.w3.org/2000/svg" xmlns:xlink="http://www.w3.org/1999/xlink" xml:space="preserve" xmlns:serif="http://www.serif.com/" style="fill-rule:evenodd;clip-rule:evenodd;">
    <g id="Artboard1" transform="matrix(0.812017,0,0,1.06318,17.8242,3.77647)">
        <rect x="-21.951" y="-3.552" width="276.975" height="179.473" style="fill:none;"/>
        <g transform="matrix(1.2315,0,0,0.940577,5.14244,5.47747)">
            <g>
                <g id="schematic">
                    <rect x="14.85" y="14.85" width="56.7" height="128.7" style="fill:white;stroke:black;stroke-width:0.9px;"/>
                    <path id="connector45pin" d="M71.65,28.8L86.05,28.8" style="fill:none;fill-rule:nonzero;"/>
                    <path id="connector57pin" d="M71.65,28.8L86.05,28.8" style="fill:none;fill-rule:nonzero;stroke:rgb(120,120,120);stroke-width:0.7px;"/>
                    <g transform="matrix(1,0,0,1,54.7749,29.4999)">
                        <text x="0px" y="0px" style="font-family:'LucidaGrande', 'Lucida Grande', sans-serif;font-weight:500;font-size:3.5px;fill:rgb(140,140,140);">D13/SCK</text>
                    </g>
                    <rect id="connector57terminal" x="86.05" y="28.45" width="0.7" height="0.7" style="fill:none;"/>
                    <path id="connector30pin" d="M71.65,36L86.05,36" style="fill:none;fill-rule:nonzero;"/>
                    <path id="connector55pin" d="M71.65,36L86.05,36" style="fill:none;fill-rule:nonzero;stroke:rgb(120,120,120);stroke-width:0.7px;"/>
                    <g transform="matrix(1,0,0,1,55.8519,36.6999)">
                        <text x="0px" y="0px" style="font-family:'LucidaGrande', 'Lucida Grande', sans-serif;font-weight:500;font-size:3.5px;fill:rgb(140,140,140);">D12/SDI</text>
                    </g>
                    <rect id="connector55terminal" x="86.05" y="35.65" width="0.7" height="0.7" style="fill:none;"/>
                    <path id="connector29pin" d="M71.65,43.2L86.05,43.2" style="fill:none;fill-rule:nonzero;"/>
                    <path id="connector58pin" d="M71.65,43.2L86.05,43.2" style="fill:none;fill-rule:nonzero;stroke:rgb(120,120,120);stroke-width:0.7px;"/>
                    <g transform="matrix(1,0,0,1,54.1409,43.8999)">
                        <text x="0px" y="0px" style="font-family:'LucidaGrande', 'Lucida Grande', sans-serif;font-weight:500;font-size:3.5px;fill:rgb(140,140,140);">D11/SDO</text>
                    </g>
                    <rect id="connector58terminal" x="86.05" y="42.85" width="0.7" height="0.7" style="fill:none;"/>
                    <path id="connector28pin" d="M71.65,50.4L86.05,50.4" style="fill:none;fill-rule:nonzero;stroke:rgb(120,120,120);stroke-width:0.7px;"/>
                    <g transform="matrix(1,0,0,1,63.2019,51.0999)">
                        <text x="0px" y="0px" style="font-family:'LucidaGrande', 'Lucida Grande', sans-serif;font-weight:500;font-size:3.5px;fill:rgb(140,140,140);">D10</text>
                    </g>
                    <path id="connector27pin" d="M71.65,57.6L86.05,57.6" style="fill:none;fill-rule:nonzero;stroke:rgb(120,120,120);stroke-width:0.7px;"/>
                    <g transform="matrix(1,0,0,1,65.4149,58.2999)">
                        <text x="0px" y="0px" style="font-family:'LucidaGrande', 'Lucida Grande', sans-serif;font-weight:500;font-size:3.5px;fill:rgb(140,140,140);">D9</text>
                    </g>
                    <path id="connector26pin" d="M71.65,64.8L86.05,64.8" style="fill:none;fill-rule:nonzero;stroke:rgb(120,120,120);stroke-width:0.7px;"/>
                    <g transform="matrix(1,0,0,1,65.4149,65.4999)">
                        <text x="0px" y="0px" style="font-family:'LucidaGrande', 'Lucida Grande', sans-serif;font-weight:500;font-size:3.5px;fill:rgb(140,140,140);">D8</text>
                    </g>
                    <path id="connector25pin" d="M71.65,72L86.05,72" style="fill:none;fill-rule:nonzero;stroke:rgb(120,120,120);stroke-width:0.7px;"/>
                    <g transform="matrix(1,0,0,1,65.4149,72.6999)">
                        <text x="0px" y="0px" style="font-family:'LucidaGrande', 'Lucida Grande', sans-serif;font-weight:500;font-size:3.5px;fill:rgb(140,140,140);">D7</text>
                    </g>
                    <path id="connector24pin" d="M71.65,79.2L86.05,79.2" style="fill:none;fill-rule:nonzero;stroke:rgb(120,120,120);stroke-width:0.7px;"/>
                    <g transform="matrix(1,0,0,1,65.4149,79.8999)">
                        <text x="0px" y="0px" style="font-family:'LucidaGrande', 'Lucida Grande', sans-serif;font-weight:500;font-size:3.5px;fill:rgb(140,140,140);">D6</text>
                    </g>
                    <path id="connector23pin" d="M71.65,86.4L86.05,86.4" style="fill:none;fill-rule:nonzero;stroke:rgb(120,120,120);stroke-width:0.7px;"/>
                    <g transform="matrix(1,0,0,1,65.4149,87.0999)">
                        <text x="0px" y="0px" style="font-family:'LucidaGrande', 'Lucida Grande', sans-serif;font-weight:500;font-size:3.5px;fill:rgb(140,140,140);">D5</text>
                    </g>
                    <path id="connector22pin" d="M71.65,93.6L86.05,93.6" style="fill:none;fill-rule:nonzero;stroke:rgb(120,120,120);stroke-width:0.7px;"/>
                    <g transform="matrix(1,0,0,1,65.4149,94.2999)">
                        <text x="0px" y="0px" style="font-family:'LucidaGrande', 'Lucida Grande', sans-serif;font-weight:500;font-size:3.5px;fill:rgb(140,140,140);">D4</text>
                    </g>
                    <path id="connector21pin" d="M71.65,100.8L86.05,100.8" style="fill:none;fill-rule:nonzero;stroke:rgb(120,120,120);stroke-width:0.7px;"/>
                    <g transform="matrix(1,0,0,1,65.4149,101.5)">
                        <text x="0px" y="0px" style="font-family:'LucidaGrande', 'Lucida Grande', sans-serif;font-weight:500;font-size:3.5px;fill:rgb(140,140,140);">D3</text>
                    </g>
                    <path id="connector20pin" d="M71.65,108L86.05,108" style="fill:none;fill-rule:nonzero;stroke:rgb(120,120,120);stroke-width:0.7px;"/>
                    <g transform="matrix(1,0,0,1,65.4149,108.7)">
                        <text x="0px" y="0px" style="font-family:'LucidaGrande', 'Lucida Grande', sans-serif;font-weight:500;font-size:3.5px;fill:rgb(140,140,140);">D2</text>
                    </g>
                    <path id="connector16pin" d="M71.65,122.4L86.05,122.4" style="fill:none;fill-rule:nonzero;stroke:rgb(120,120,120);stroke-width:0.7px;"/>
                    <g transform="matrix(1,0,0,1,59.1759,123.1)">
                        <text x="0px" y="0px" style="font-family:'LucidaGrande', 'Lucida Grande', sans-serif;font-weight:500;font-size:3.5px;fill:rgb(140,140,140);">D1/TX</text>
                    </g>
                    <path id="connector17pin" d="M71.65,129.6L86.05,129.6" style="fill:none;fill-rule:nonzero;stroke:rgb(120,120,120);stroke-width:0.7px;"/>
                    <g transform="matrix(1,0,0,1,59.1759,130.3)">
                        <text x="0px" y="0px" style="font-family:'LucidaGrande', 'Lucida Grande', sans-serif;font-weight:500;font-size:3.5px;fill:rgb(140,140,140);">D0/RX</text>
                    </g>
                    <path id="connector33pin" d="M0.35,28.8L14.75,28.8" style="fill:none;fill-rule:nonzero;"/>
                    <path id="connector18pin" d="M0.35,28.8L14.75,28.8" style="fill:none;fill-rule:nonzero;"/>
                    <path id="connector59pin" d="M0.35,28.8L14.75,28.8" style="fill:none;fill-rule:nonzero;stroke:rgb(120,120,120);stroke-width:0.7px;"/>
                    <g transform="matrix(1,0,0,1,16.15,29.4999)">
                        <text x="0px" y="0px" style="font-family:'LucidaGrande', 'Lucida Grande', sans-serif;font-weight:500;font-size:3.5px;fill:rgb(140,140,140);">RESET</text>
                    </g>
                    <rect id="connector59terminal" x="-0.35" y="28.45" width="0.7" height="0.7" style="fill:none;"/>
                    <path id="connector43pin" d="M0.35,36L14.75,36" style="fill:none;fill-rule:nonzero;stroke:rgb(120,120,120);stroke-width:0.7px;"/>
                    <g transform="matrix(1,0,0,1,16.15,36.6999)">
                        <text x="0px" y="0px" style="font-family:'LucidaGrande', 'Lucida Grande', sans-serif;font-weight:500;font-size:3.5px;fill:rgb(140,140,140);">AREF</text>
                    </g>
                    <path id="connector42pin" d="M0.35,50.4L14.75,50.4" style="fill:none;fill-rule:nonzero;stroke:rgb(120,120,120);stroke-width:0.7px;"/>
                    <g transform="matrix(1,0,0,1,16.15,51.0999)">
                        <text x="0px" y="0px" style="font-family:'LucidaGrande', 'Lucida Grande', sans-serif;font-weight:500;font-size:3.5px;fill:rgb(140,140,140);">A0</text>
                    </g>
                    <path id="connector41pin" d="M0.35,57.6L14.75,57.6" style="fill:none;fill-rule:nonzero;stroke:rgb(120,120,120);stroke-width:0.7px;"/>
                    <g transform="matrix(1,0,0,1,16.15,58.2999)">
                        <text x="0px" y="0px" style="font-family:'LucidaGrande', 'Lucida Grande', sans-serif;font-weight:500;font-size:3.5px;fill:rgb(140,140,140);">A1</text>
                    </g>
                    <path id="connector40pin" d="M0.35,64.8L14.75,64.8" style="fill:none;fill-rule:nonzero;stroke:rgb(120,120,120);stroke-width:0.7px;"/>
                    <g transform="matrix(1,0,0,1,16.15,65.4999)">
                        <text x="0px" y="0px" style="font-family:'LucidaGrande', 'Lucida Grande', sans-serif;font-weight:500;font-size:3.5px;fill:rgb(140,140,140);">A2</text>
                    </g>
                    <path id="connector39pin" d="M0.35,72L14.75,72" style="fill:none;fill-rule:nonzero;stroke:rgb(120,120,120);stroke-width:0.7px;"/>
                    <g transform="matrix(1,0,0,1,16.15,72.6999)">
                        <text x="0px" y="0px" style="font-family:'LucidaGrande', 'Lucida Grande', sans-serif;font-weight:500;font-size:3.5px;fill:rgb(140,140,140);">A3</text>
                    </g>
                    <path id="connector38pin" d="M0.35,79.2L14.75,79.2" style="fill:none;fill-rule:nonzero;stroke:rgb(120,120,120);stroke-width:0.7px;"/>
                    <g transform="matrix(1,0,0,1,16.15,79.8999)">
                        <text x="0px" y="0px" style="font-family:'LucidaGrande', 'Lucida Grande', sans-serif;font-weight:500;font-size:3.5px;fill:rgb(140,140,140);">A4/SDA</text>
                    </g>
                    <path id="connector37pin" d="M0.35,86.4L14.75,86.4" style="fill:none;fill-rule:nonzero;stroke:rgb(120,120,120);stroke-width:0.7px;"/>
                    <g transform="matrix(1,0,0,1,16.15,87.0999)">
                        <text x="0px" y="0px" style="font-family:'LucidaGrande', 'Lucida Grande', sans-serif;font-weight:500;font-size:3.5px;fill:rgb(140,140,140);">A5/SCL</text>
                    </g>
                    <path id="connector36pin" d="M0.35,93.6L14.75,93.6" style="fill:none;fill-rule:nonzero;stroke:rgb(120,120,120);stroke-width:0.7px;"/>
                    <g transform="matrix(1,0,0,1,16.15,94.2999)">
                        <text x="0px" y="0px" style="font-family:'LucidaGrande', 'Lucida Grande', sans-serif;font-weight:500;font-size:3.5px;fill:rgb(140,140,140);">A6</text>
                    </g>
                    <path id="connector35pin" d="M0.35,100.8L14.75,100.8" style="fill:none;fill-rule:nonzero;stroke:rgb(120,120,120);stroke-width:0.7px;"/>
                    <g transform="matrix(1,0,0,1,16.15,101.5)">
                        <text x="0px" y="0px" style="font-family:'LucidaGrande', 'Lucida Grande', sans-serif;font-weight:500;font-size:3.5px;fill:rgb(140,140,140);">A7</text>
                    </g>
                    <path id="connector19pin" d="M43.2,143.65L43.2,158.05" style="fill:none;fill-rule:nonzero;"/>
                    <path id="connector32pin" d="M43.2,143.65L43.2,158.05" style="fill:none;fill-rule:nonzero;"/>
                    <path id="connector60pin" d="M43.2,143.65L43.2,158.05" style="fill:none;fill-rule:nonzero;stroke:rgb(120,120,120);stroke-width:0.7px;"/>
                    <g transform="matrix(7.04481e-16,-1,1,7.04481e-16,43.8999,142.25)">
                        <g>
                            <g>
                                <g>
                                    <g>
                                        <g>
                                            <g>
                                                <g>
                                                    <text x="0px" y="0px" style="font-family:'LucidaGrande', 'Lucida Grande', sans-serif;font-weight:500;font-size:3.5px;fill:rgb(140,140,140);">GND</text>
                                                </g>
                                            </g>
                                        </g>
                                    </g>
                                </g>
                            </g>
                        </g>
                    </g>
                    <rect id="connector60terminal" x="42.85" y="158.05" width="0.7" height="0.7" style="fill:none;"/>
                    <path id="connector31pin" d="M28.8,0.35L28.8,14.75" style="fill:none;fill-rule:nonzero;stroke:rgb(120,120,120);stroke-width:0.7px;"/>
                    <g transform="matrix(7.04481e-16,-1,1,7.04481e-16,29.4999,22.032)">
                        <g>
                            <g>
                                <g>
                                    <g>
                                        <g>
                                            <g>
                                                <g>
                                                    <text x="0px" y="0px" style="font-family:'LucidaGrande', 'Lucida Grande', sans-serif;font-weight:500;font-size:3.5px;fill:rgb(140,140,140);">VIN</text>
                                                </g>
                                            </g>
                                        </g>
                                    </g>
                                </g>
                            </g>
                        </g>
                    </g>
                    <path id="connector34pin" d="M43.2,0.35L43.2,14.75" style="fill:none;fill-rule:nonzero;"/>
                    <path id="connector56pin" d="M43.2,0.35L43.2,14.75" style="fill:none;fill-rule:nonzero;stroke:rgb(120,120,120);stroke-width:0.7px;"/>
                    <g transform="matrix(7.04481e-16,-1,1,7.04481e-16,43.8999,24.597)">
                        <g>
                            <g>
                                <g>
                                    <g>
                                        <g>
                                            <g>
                                                <g>
                                                    <text x="0px" y="0px" style="font-family:'LucidaGrande', 'Lucida Grande', sans-serif;font-weight:500;font-size:3.5px;fill:rgb(140,140,140);">Vusb</text>
                                                </g>
                                            </g>
                                        </g>
                                    </g>
                                </g>
                            </g>
                        </g>
                    </g>
                    <rect id="connector56terminal" x="42.85" y="-0.35" width="0.7" height="0.7" style="fill:none;"/>
                    <path id="connector44pin" d="M57.6,0.35L57.6,14.75" style="fill:none;fill-rule:nonzero;stroke:rgb(120,120,120);stroke-width:0.7px;"/>
                    <g transform="matrix(7.04481e-16,-1,1,7.04481e-16,58.2999,22.865)">
                        <g>
                            <g>
                                <g>
                                    <g>
                                        <g>
                                            <g>
                                                <g>
                                                    <text x="0px" y="0px" style="font-family:'LucidaGrande', 'Lucida Grande', sans-serif;font-weight:500;font-size:3.5px;fill:rgb(140,140,140);">3V3</text>
                                                </g>
                                            </g>
                                        </g>
                                    </g>
                                </g>
                            </g>
                        </g>
                    </g>
                    <g transform="matrix(1,0,0,1,35.4199,72.8498)">
                        <g id="label">
                            <text x="0px" y="0px" style="font-family:'LucidaGrande', 'Lucida Grande', sans-serif;font-weight:500;font-size:4.25px;">Arduino</text>
                        </g>
                    </g>
                    <g transform="matrix(1,0,0,1,38.2819,77.3833)">
                        <g id="label1" serif:id="label">
                            <text x="0px" y="0px" style="font-family:'LucidaGrande', 'Lucida Grande', sans-serif;font-weight:500;font-size:4.25px;">Nano</text>
                        </g>
                    </g>
                    <g transform="matrix(1,0,0,1,37.0289,81.9167)">
                        <g id="label2" serif:id="label">
                            <text x="0px" y="0px" style="font-family:'LucidaGrande', 'Lucida Grande', sans-serif;font-weight:500;font-size:4.25px;">33 IoT</text>
                        </g>
                    </g>
                </g>
            </g>
            <g transform="matrix(1,0,0,0.897323,-22,-8.57837)">
                <path d="M50.8,2.737L50.8,9.95" style="fill:none;stroke:rgb(120,120,120);stroke-width:0.74px;stroke-linecap:round;stroke-linejoin:round;stroke-miterlimit:1.5;"/>
            </g>
        </g>
        <g transform="matrix(1.2315,0,0,0.940577,137.399,32.5802)">
            <g id="schematic1" serif:id="schematic">
                <rect id="part_symbol" x="7.504" y="7.2" width="42.723" height="28.8" style="fill:white;stroke:black;stroke-width:0.86px;stroke-linecap:round;"/>
                <path id="connector1pin" d="M0.365,28.822L6.835,28.822" style="fill:none;fill-rule:nonzero;stroke:rgb(85,85,85);stroke-width:0.72px;stroke-linecap:round;stroke-linejoin:round;"/>
                <path id="connector0pin" d="M0.355,14.41L6.845,14.41" style="fill:none;fill-rule:nonzero;stroke:rgb(85,85,85);stroke-width:0.7px;stroke-linecap:round;stroke-linejoin:round;"/>
                <path id="connector2pin" d="M50.755,28.82L57.245,28.82" style="fill:none;fill-rule:nonzero;stroke:rgb(85,85,85);stroke-width:0.7px;stroke-linecap:round;stroke-linejoin:round;"/>
                <path id="connector3pin" d="M50.786,14.406L57.277,14.41" style="fill:none;fill-rule:nonzero;stroke:rgb(85,85,85);stroke-width:0.7px;stroke-linecap:round;stroke-linejoin:round;"/>
                <g transform="matrix(0.997782,0,0,1.00222,9.3259,29.8458)">
                    <text id="text1057" x="0px" y="0px" style="font-family:'DroidSans', 'Droid Sans', sans-serif;font-size:3.5px;fill:rgb(85,85,85);">TRIG</text>
                </g>
                <g transform="matrix(0.997782,0,0,1.00222,39.2606,15.4458)">
                    <text id="text1067" x="0px" y="0px" style="font-family:'DroidSans', 'Droid Sans', sans-serif;font-size:3.5px;fill:rgb(85,85,85);">ECHO</text>
                </g>
                <g transform="matrix(0.997782,0,0,1.00222,40.8989,29.8458)">
                    <text id="text1077" x="0px" y="0px" style="font-family:'DroidSans', 'Droid Sans', sans-serif;font-size:3.5px;fill:rgb(85,85,85);">GND</text>
                </g>
                <g transform="matrix(0.997782,0,0,1.00222,19.4145,22.3047)">
                    <text id="tspan1129" x="0px" y="0px" style="font-family:'DroidSans', 'Droid Sans', sans-serif;font-size:4.25px;">HC - SR04</text>
                </g>
                <g transform="matrix(0.997782,0,0,1.00222,9.36,15.4458)">
                    <g id="text1915">
                        <text x="0px" y="0px" style="font-family:'DroidSans', 'Droid Sans', sans-serif;font-size:3.5px;fill:rgb(85,85,85);">VC</text>
                        <g transform="matrix(1,0,0,1,3.958,0)">
                            <text x="0px" y="0px" style="font-family:'DroidSans', 'Droid Sans', sans-serif;font-size:3.5px;fill:rgb(85,85,85);">C</text>
                        </g>
                    </g>
                </g>
            </g>
        </g>
        <g transform="matrix(1.2315,0,0,0.940577,-21.9506,-3.55206)">
            <path d="M108.05,67.2L129.75,67.2" style="fill:none;stroke:rgb(120,120,120);stroke-width:0.7px;stroke-linecap:round;stroke-linejoin:round;stroke-miterlimit:1.5;"/>
        </g>
        <g transform="matrix(1.2315,0,0,0.940577,-21.9506,-3.55206)">
            <g id="schematicLabel">
                <path d="M50.8,3.22L129.75,2.737L129.75,52.669" style="fill:none;stroke:rgb(120,120,120);stroke-width:0.7px;stroke-linecap:round;stroke-linejoin:round;stroke-miterlimit:1.5;"/>
            </g>
        </g>
        <g transform="matrix(1.2315,0,0,0.940577,-21.9506,-3.55206)">
            <path d="M65.2,167.65L186.672,167.65L186.672,67.235" style="fill:none;stroke:rgb(120,120,120);stroke-width:0.7px;stroke-linecap:round;stroke-linejoin:round;stroke-miterlimit:1.5;"/>
        </g>
        <g transform="matrix(1.2315,0,0,0.940577,-21.9506,-3.55206)">
            <path d="M186.672,52.669L186.64,31.623L119.918,31.623L119.918,60L108.05,60" style="fill:none;stroke:rgb(120,120,120);stroke-width:0.7px;stroke-linecap:round;stroke-linejoin:round;stroke-miterlimit:1.5;"/>
        </g>
    </g>
    <g transform="matrix(1,0,0,1,57.9999,168.129)">
        <g id="schematic2" serif:id="schematic">
            <path id="connector0pin1" serif:id="connector0pin" d="M7.201,7.575L7.201,0.375" style="fill:none;fill-rule:nonzero;stroke:rgb(120,120,120);stroke-width:0.75px;stroke-linecap:round;"/>
            <path id="path4098" d="M0.5,7.711L13.9,7.711" style="fill:none;fill-rule:nonzero;stroke:black;stroke-width:0.9px;stroke-linecap:round;"/>
            <path id="path4100" d="M2.732,10.456L11.667,10.456" style="fill:none;fill-rule:nonzero;stroke:black;stroke-width:0.9px;stroke-linecap:round;"/>
            <path id="path4102" d="M9.431,13.175L4.967,13.175" style="fill:none;fill-rule:nonzero;stroke:black;stroke-width:0.9px;stroke-linecap:round;"/>
        </g>
    </g>
    <g transform="matrix(1,0,0,1,10.8832,-8.17494)">
        <circle cx="54.317" cy="176.124" r="1.254" style="fill:rgb(120,120,120);stroke:rgb(120,120,120);stroke-width:0.7px;stroke-linecap:round;stroke-linejoin:round;stroke-miterlimit:1.5;"/>
    </g>
</svg>
