<?xml version="1.0" encoding="utf-8"?>
<!-- Generator: Adobe Illustrator 16.0.0, SVG Export Plug-In . SVG Version: 6.00 Build 0)  -->
<!DOCTYPE svg PUBLIC "-//W3C//DTD SVG 1.1//EN" "http://www.w3.org/Graphics/SVG/1.1/DTD/svg11.dtd">
<svg version="1.1" id="Layer_1" xmlns:svg="http://www.w3.org/2000/svg"
	 xmlns="http://www.w3.org/2000/svg" xmlns:xlink="http://www.w3.org/1999/xlink" x="0px" y="0px" width="576.7px"
	 height="439.84px" viewBox="0.003 0.107 576.7 439.84" enable-background="new 0.003 0.107 576.7 439.84" xml:space="preserve">
<g>
	<g transform="translate(126.231,26.6186)">
		<g id="schematic">
			
				<rect x="161.645" y="57.993" fill="#FFFFFF" stroke="#000000" stroke-width="2" stroke-linecap="round" width="159.971" height="277.653"/>
			
				<line id="connector61pin" fill="none" stroke="#787878" stroke-width="2" stroke-linecap="round" x1="321.821" y1="86.494" x2="351.24" y2="86.494"/>
			<text transform="matrix(1 0 0 1 297.8974 87.9249)" fill="#8C8C8C" font-family="'ArialMT'" font-size="7.1507">D0/RX</text>
			<g id="connector61terminal">
			</g>
			
				<line id="connector62pin" fill="none" stroke="#787878" stroke-width="2" stroke-linecap="round" x1="321.821" y1="101.204" x2="351.24" y2="101.204"/>
			<text transform="matrix(1 0 0 1 298.6943 102.6339)" fill="#8C8C8C" font-family="'ArialMT'" font-size="7.1507">D1/TX</text>
			<g id="connector62terminal">
			</g>
			
				<line id="connector63pin" fill="none" stroke="#787878" stroke-width="2" stroke-linecap="round" x1="321.821" y1="115.915" x2="351.24" y2="115.915"/>
			<text transform="matrix(1 0 0 1 309.8173 117.3438)" fill="#8C8C8C" font-family="'ArialMT'" font-size="7.1507">D2</text>
			<g id="connector63terminal">
			</g>
			
				<line id="connector64pin" fill="none" stroke="#787878" stroke-width="2" stroke-linecap="round" x1="321.821" y1="130.624" x2="351.24" y2="130.624"/>
			<text transform="matrix(1 0 0 1 290.3564 132.0547)" fill="#8C8C8C" font-family="'ArialMT'" font-size="7.1507">D3 PWM</text>
			<g id="connector64terminal">
			</g>
			
				<line id="connector65pin" fill="none" stroke="#787878" stroke-width="2" stroke-linecap="round" x1="321.821" y1="145.335" x2="351.24" y2="145.335"/>
			<text transform="matrix(1 0 0 1 309.8173 146.7647)" fill="#8C8C8C" font-family="'ArialMT'" font-size="7.1507">D4</text>
			<g id="connector65terminal">
			</g>
			
				<line id="connector66pin" fill="none" stroke="#787878" stroke-width="2" stroke-linecap="round" x1="321.821" y1="160.045" x2="351.24" y2="160.045"/>
			<text transform="matrix(1 0 0 1 290.3564 161.4756)" fill="#8C8C8C" font-family="'ArialMT'" font-size="7.1507">D5 PWM</text>
			<g id="connector66terminal">
			</g>
			
				<line id="connector67pin" fill="none" stroke="#787878" stroke-width="2" stroke-linecap="round" x1="321.821" y1="174.755" x2="351.24" y2="174.755"/>
			<text transform="matrix(1 0 0 1 290.3564 176.1837)" fill="#8C8C8C" font-family="'ArialMT'" font-size="7.1507">D6 PWM</text>
			<g id="connector67terminal">
			</g>
			
				<line id="connector68pin" fill="none" stroke="#787878" stroke-width="2" stroke-linecap="round" x1="321.821" y1="189.465" x2="351.24" y2="189.465"/>
			<text transform="matrix(1 0 0 1 309.8173 190.8946)" fill="#8C8C8C" font-family="'ArialMT'" font-size="7.1507">D7</text>
			<g id="connector68terminal">
			</g>
			
				<line id="connector51pin" fill="none" stroke="#787878" stroke-width="2" stroke-linecap="round" x1="321.821" y1="204.174" x2="351.24" y2="204.174"/>
			<text transform="matrix(1 0 0 1 309.8173 205.6055)" fill="#8C8C8C" font-family="'ArialMT'" font-size="7.1507">D8</text>
			<g id="connector51terminal">
			</g>
			
				<line id="connector52pin" fill="none" stroke="#787878" stroke-width="2" stroke-linecap="round" x1="321.821" y1="218.886" x2="351.24" y2="218.886"/>
			<text transform="matrix(1 0 0 1 290.3564 220.3155)" fill="#8C8C8C" font-family="'ArialMT'" font-size="7.1507">D9 PWM</text>
			<g id="connector52terminal">
			</g>
			
				<line id="connector53pin" fill="none" stroke="#787878" stroke-width="2" stroke-linecap="round" x1="321.821" y1="233.595" x2="351.24" y2="233.595"/>
			<text transform="matrix(1 0 0 1 274.8525 235.0264)" fill="#8C8C8C" font-family="'ArialMT'" font-size="7.1507">D10 PWM/SS</text>
			<g id="connector53terminal">
			</g>
			
				<line id="connector54pin" fill="none" stroke="#787878" stroke-width="2" stroke-linecap="round" x1="321.821" y1="248.305" x2="351.24" y2="248.305"/>
			<text transform="matrix(1 0 0 1 266.6474 249.7344)" fill="#8C8C8C" font-family="'ArialMT'" font-size="7.1507">D11 PWM/MOSI</text>
			<g id="connector54terminal">
			</g>
			
				<line id="connector55pin" fill="none" stroke="#787878" stroke-width="2" stroke-linecap="round" x1="321.821" y1="263.016" x2="351.24" y2="263.016"/>
			<text transform="matrix(1 0 0 1 285.579 264.4454)" fill="#8C8C8C" font-family="'ArialMT'" font-size="7.1507">D12/MISO</text>
			<g id="connector55terminal">
			</g>
			<line id="connector41pin" fill="none" x1="321.821" y1="277.724" x2="351.24" y2="277.724"/>
			<rect id="connector41terminal" x="351.24" y="277.01" fill="none" width="1.433" height="1.431"/>
			
				<line id="connector56pin" fill="none" stroke="#787878" stroke-width="2" stroke-linecap="round" x1="321.821" y1="277.724" x2="351.24" y2="277.724"/>
			<text transform="matrix(1 0 0 1 289.1513 279.1553)" fill="#8C8C8C" font-family="'ArialMT'" font-size="7.1507">D13/SCK</text>
			<g id="connector56terminal">
			</g>
			<line id="connector43pin" fill="none" x1="132.02" y1="86.494" x2="161.44" y2="86.494"/>
			<rect id="connector43terminal" x="130.59" y="85.779" fill="none" width="1.431" height="1.43"/>
			
				<line id="connector85pin" fill="none" stroke="#787878" stroke-width="2" stroke-linecap="round" x1="132.02" y1="86.494" x2="161.44" y2="86.494"/>
			<text transform="matrix(1 0 0 1 164.2978 87.9249)" fill="#8C8C8C" font-family="'ArialMT'" font-size="7.1507">RESET</text>
			<g id="connector85terminal">
			</g>
			
				<line id="connector49pin" fill="none" stroke="#787878" stroke-width="2" stroke-linecap="round" x1="132.02" y1="101.204" x2="161.44" y2="101.204"/>
			<text transform="matrix(1 0 0 1 164.2978 102.6339)" fill="#8C8C8C" font-family="'ArialMT'" font-size="7.1507">RESET2</text>
			<rect id="connector49terminal" x="130.59" y="100.489" fill="none" width="1.431" height="1.43"/>
			
				<line id="connector58pin" fill="none" stroke="#787878" stroke-width="2" stroke-linecap="round" x1="132.02" y1="115.915" x2="161.44" y2="115.915"/>
			<text transform="matrix(1 0 0 1 164.2978 117.3438)" fill="#8C8C8C" font-family="'ArialMT'" font-size="7.1507">AREF</text>
			<g id="connector58terminal">
			</g>
			
				<line id="connector84pin" fill="none" stroke="#787878" stroke-width="2" stroke-linecap="round" x1="132.02" y1="130.624" x2="161.44" y2="130.624"/>
			<text transform="matrix(1 0 0 1 164.2978 132.0547)" fill="#8C8C8C" font-family="'ArialMT'" font-size="7.1507">ioref</text>
			<g id="connector84terminal">
			</g>
			
				<line id="connector0pin" fill="none" stroke="#787878" stroke-width="2" stroke-linecap="round" x1="132.02" y1="160.045" x2="161.44" y2="160.045"/>
			<text transform="matrix(1 0 0 1 164.2978 161.4756)" fill="#8C8C8C" font-family="'ArialMT'" font-size="7.1507">A0</text>
			<g id="connector0terminal">
			</g>
			
				<line id="connector1pin" fill="none" stroke="#787878" stroke-width="2" stroke-linecap="round" x1="132.02" y1="174.755" x2="161.44" y2="174.755"/>
			<text transform="matrix(1 0 0 1 164.2978 176.1837)" fill="#8C8C8C" font-family="'ArialMT'" font-size="7.1507">A1</text>
			<g id="connector1terminal">
			</g>
			
				<line id="connector2pin" fill="none" stroke="#787878" stroke-width="2" stroke-linecap="round" x1="132.02" y1="189.465" x2="161.44" y2="189.465"/>
			<text transform="matrix(1 0 0 1 164.2978 190.8946)" fill="#8C8C8C" font-family="'ArialMT'" font-size="7.1507">A2</text>
			<g id="connector2terminal">
			</g>
			
				<line id="connector3pin" fill="none" stroke="#787878" stroke-width="2" stroke-linecap="round" x1="132.02" y1="204.174" x2="161.44" y2="204.174"/>
			<text transform="matrix(1 0 0 1 164.2978 205.6055)" fill="#8C8C8C" font-family="'ArialMT'" font-size="7.1507">A3</text>
			<g id="connector3terminal">
			</g>
			<line id="connector48pin" fill="none" x1="132.02" y1="218.886" x2="161.44" y2="218.886"/>
			<rect id="connector48terminal" x="130.59" y="218.17" fill="none" width="1.431" height="1.431"/>
			<line id="connector45pin" fill="none" x1="132.02" y1="218.886" x2="161.44" y2="218.886"/>
			<rect id="connector45terminal" x="130.59" y="218.17" fill="none" width="1.431" height="1.431"/>
			<line id="connector4pin" fill="none" x1="132.02" y1="218.886" x2="161.44" y2="218.886"/>
			<g id="connector4terminal">
			</g>
			<line id="connector39pin" fill="none" x1="132.02" y1="218.886" x2="161.44" y2="218.886"/>
			<rect id="connector39terminal" x="130.59" y="218.17" fill="none" width="1.431" height="1.431"/>
			<line id="connector47pin" fill="none" x1="132.02" y1="218.886" x2="161.44" y2="218.886"/>
			<rect id="connector47terminal" x="130.59" y="218.17" fill="none" width="1.431" height="1.431"/>
			<line id="connector42pin" fill="none" x1="132.02" y1="218.886" x2="161.44" y2="218.886"/>
			<rect id="connector42terminal" x="130.59" y="218.17" fill="none" width="1.431" height="1.431"/>
			
				<line id="connector59pin" fill="none" stroke="#787878" stroke-width="2" stroke-linecap="round" x1="132.02" y1="218.886" x2="161.44" y2="218.886"/>
			<text transform="matrix(1 0 0 1 164.2978 220.3155)" fill="#8C8C8C" font-family="'ArialMT'" font-size="7.1507">A4/SDA</text>
			<g id="connector59terminal">
			</g>
			<line id="connector5pin" fill="none" x1="132.02" y1="233.595" x2="161.44" y2="233.595"/>
			<g id="connector5terminal">
			</g>
			
				<line id="connector60pin" fill="none" stroke="#787878" stroke-width="2" stroke-linecap="round" x1="132.02" y1="233.595" x2="161.44" y2="233.595"/>
			<text transform="matrix(1 0 0 1 164.2978 235.0264)" fill="#8C8C8C" font-family="'ArialMT'" font-size="7.1507">A5/SCL</text>
			<g id="connector60terminal">
			</g>
			
				<line id="connector91pin" fill="none" stroke="#787878" stroke-width="2" stroke-linecap="round" x1="132.02" y1="307.146" x2="161.44" y2="307.146"/>
			<text transform="matrix(1 0 0 1 164.2978 308.5762)" fill="#8C8C8C" font-family="'ArialMT'" font-size="7.1507">N/C</text>
			<g id="connector91terminal">
			</g>
			<line id="connector88pin" fill="none" x1="248.987" y1="335.852" x2="248.987" y2="365.271"/>
			<g id="connector88terminal">
			</g>
			<line id="connector57pin" fill="none" x1="248.987" y1="335.852" x2="248.987" y2="365.271"/>
			<g id="connector57terminal">
			</g>
			<line id="connector44pin" fill="none" x1="248.987" y1="335.852" x2="248.987" y2="365.271"/>
			<rect id="connector44terminal" x="248.271" y="365.271" fill="none" width="1.431" height="1.431"/>
			<line id="connector50pin" fill="none" x1="248.987" y1="335.852" x2="248.987" y2="365.271"/>
			<rect id="connector50terminal" x="248.271" y="365.271" fill="none" width="1.431" height="1.431"/>
			
				<line id="connector89pin" fill="none" stroke="#787878" stroke-width="2" stroke-linecap="round" x1="248.987" y1="335.852" x2="248.987" y2="365.271"/>
			<g transform="matrix(1, 0, 0, 1, 58.2999, 149.45)">
				<g>
					<g transform="rotate(270)">
						<g>
							<text transform="matrix(1 0 0 1 -183.5413 192.1141)" fill="#8C8C8C" font-family="'ArialMT'" font-size="7.1507">GND</text>
						</g>
					</g>
				</g>
			</g>
			<g id="connector89terminal">
			</g>
			
				<line id="connector86pin" fill="none" stroke="#787878" stroke-width="2" stroke-linecap="round" x1="204.855" y1="28.369" x2="204.855" y2="57.789"/>
			<g transform="matrix(1, 0, 0, 1, 36.6999, 16.15)">
				<g>
					<g transform="rotate(270)">
						<g>
							<text transform="matrix(1 0 0 1 -57.2241 169.5823)" fill="#8C8C8C" font-family="'ArialMT'" font-size="7.1507">3V3</text>
						</g>
					</g>
				</g>
			</g>
			<g id="connector86terminal">
			</g>
			<line id="connector40pin" fill="none" x1="234.275" y1="28.369" x2="234.275" y2="57.789"/>
			<rect id="connector40terminal" x="233.56" y="26.939" fill="none" width="1.431" height="1.43"/>
			<line id="connector46pin" fill="none" x1="234.275" y1="28.369" x2="234.275" y2="57.789"/>
			<rect id="connector46terminal" x="233.56" y="26.939" fill="none" width="1.431" height="1.43"/>
			
				<line id="connector87pin" fill="none" stroke="#787878" stroke-width="2" stroke-linecap="round" x1="234.275" y1="28.369" x2="234.275" y2="57.789"/>
			<g transform="matrix(1, 0, 0, 1, 51.0999, 16.15)">
				<g>
					<g transform="rotate(270)">
						<g>
							<text transform="matrix(1 0 0 1 -53.2475 184.6031)" fill="#8C8C8C" font-family="'ArialMT'" font-size="7.1507">5V</text>
						</g>
					</g>
				</g>
			</g>
			<g id="connector87terminal">
			</g>
			
				<line id="connector90pin" fill="none" stroke="#787878" stroke-width="2" stroke-linecap="round" x1="263.696" y1="28.369" x2="263.696" y2="57.789"/>
			<g transform="matrix(1, 0, 0, 1, 65.4999, 16.15)">
				<g>
					<g transform="rotate(270)">
						<g>
							<text transform="matrix(1 0 0 1 -56.4214 199.6221)" fill="#8C8C8C" font-family="'ArialMT'" font-size="7.1507">VIN</text>
						</g>
					</g>
				</g>
			</g>
			<g id="connector90terminal">
			</g>
			<text id="label" transform="matrix(1 0 0 1 227.5829 183.8458)" font-family="'ArialMT'" font-size="8.6831">Arduino</text>
			<text id="label_1_" transform="matrix(1 0 0 1 234.5829 193.1075)" font-family="'ArialMT'" font-size="8.6831">Uno</text>
			<text id="label_2_" transform="matrix(1 0 0 1 229.5214 202.3712)" font-family="'ArialMT'" font-size="8.6831">(Rev3)</text>
		</g>
	</g>
</g>
<g>
	<g transform="translate(283.421,55.4048)">
		<g transform="matrix(-1,0,0,-1,0,0)">
			<g id="schematic_1_">
				
					<line fill="none" stroke="#000000" stroke-width="2" stroke-linecap="round" x1="-285.579" y1="-38.611" x2="-285.579" y2="-42.288"/>
				
					<line fill="none" stroke="#000000" stroke-width="2" stroke-linecap="round" x1="-285.579" y1="-12.867" x2="-292.932" y2="-38.611"/>
				<circle fill="none" stroke="#000000" stroke-width="2" cx="-285.579" cy="-12.867" r="0.736"/>
				<circle fill="none" stroke="#000000" stroke-width="2" cx="-285.579" cy="-42.287" r="0.736"/>
				
					<line id="connector0pin_1_" fill="none" stroke="#555555" stroke-width="2" stroke-linecap="round" x1="-285.579" y1="1.845" x2="-285.579" y2="-12.867"/>
				<g id="connector0terminal_1_">
				</g>
				
					<line id="connector1pin_1_" fill="none" stroke="#555555" stroke-width="2" stroke-linecap="round" x1="-285.579" y1="-56.999" x2="-285.579" y2="-42.288"/>
				<g id="connector1terminal_1_">
				</g>
			</g>
		</g>
	</g>
</g>
<g>
	<g transform="translate(0,64.2787)">
		<g id="schematic_2_">
			
				<rect x="29.978" y="97.276" fill="#FFFFFF" stroke="#000000" stroke-width="2" stroke-linecap="round" width="115.841" height="86.421"/>
			
				<line id="connector11pin" fill="none" stroke="#787878" stroke-width="2" stroke-linecap="round" x1="146.024" y1="125.776" x2="175.444" y2="125.776"/>
			<text transform="matrix(1 0 0 1 123.2964 127.2052)" fill="#8C8C8C" font-family="'ArialMT'" font-size="7.1507">XOUT</text>
			<g id="connector11terminal">
			</g>
			
				<line id="connector10pin" fill="none" stroke="#787878" stroke-width="2" stroke-linecap="round" x1="146.024" y1="140.486" x2="175.444" y2="140.486"/>
			<text transform="matrix(1 0 0 1 123.2964 141.9161)" fill="#8C8C8C" font-family="'ArialMT'" font-size="7.1507">YOUT</text>
			<g id="connector10terminal">
			</g>
			
				<line id="connector9pin" fill="none" stroke="#787878" stroke-width="2" stroke-linecap="round" x1="146.024" y1="155.196" x2="175.444" y2="155.196"/>
			<text transform="matrix(1 0 0 1 123.6987 156.6261)" fill="#8C8C8C" font-family="'ArialMT'" font-size="7.1507">ZOUT</text>
			<g id="connector9terminal">
			</g>
			
				<line id="connector8pin" fill="none" stroke="#787878" stroke-width="2" stroke-linecap="round" x1="0.353" y1="125.776" x2="29.773" y2="125.776"/>
			<text transform="matrix(1 0 0 1 32.6303 127.2052)" fill="#8C8C8C" font-family="'ArialMT'" font-size="7.1507">ST</text>
			<g id="connector8terminal">
			</g>
			
				<line id="connector12pin" fill="none" stroke="#787878" stroke-width="2" stroke-linecap="round" x1="87.899" y1="183.901" x2="87.899" y2="213.32"/>
			<g transform="matrix(1, 0, 0, 1, 43.8999, 55.8499)">
				<g>
					<g transform="rotate(270)">
						<g>
							<text transform="matrix(1 0 0 1 -125.1922 45.4238)" fill="#8C8C8C" font-family="'ArialMT'" font-size="7.1507">GND</text>
						</g>
					</g>
				</g>
			</g>
			<g id="connector12terminal">
			</g>
			
				<line id="connector13pin" fill="none" stroke="#787878" stroke-width="2" stroke-linecap="round" x1="87.899" y1="67.651" x2="87.899" y2="97.071"/>
			<g transform="matrix(1, 0, 0, 1, 43.8999, 16.15)">
				<g>
					<g transform="rotate(270)">
						<g>
							<text transform="matrix(1 0 0 1 -98.8804 45.4238)" fill="#8C8C8C" font-family="'ArialMT'" font-size="7.1507">VCC</text>
						</g>
					</g>
				</g>
			</g>
			<g id="connector13terminal">
			</g>
			<text id="label_3_" transform="matrix(1 0 0 1 68.9516 124.1085)" font-family="'ArialMT'" font-size="8.6831">Triple Axis</text>
			<text id="label_4_" transform="matrix(1 0 0 1 60.8261 133.3702)" font-family="'ArialMT'" font-size="8.6831">Accelerometer</text>
			<text id="label_5_" transform="matrix(1 0 0 1 71.438 142.632)" font-family="'ArialMT'" font-size="8.6831">Breakout</text>
			<text id="label_6_" transform="matrix(1 0 0 1 70.2295 151.8956)" font-family="'ArialMT'" font-size="8.6831">ADXL335</text>
		</g>
	</g>
</g>
<g>
	<g transform="translate(275.697,117.988)">
		<g transform="matrix(0,-1,1,0,0,0)">
			<g id="schematic_3_">
				
					<line fill="none" stroke="#000000" stroke-width="2" stroke-linecap="round" x1="-107.533" y1="293.533" x2="-105.326" y2="287.651"/>
				
					<line fill="none" stroke="#000000" stroke-width="2" stroke-linecap="round" x1="-105.326" y1="287.651" x2="-101.649" y2="299.419"/>
				
					<line fill="none" stroke="#000000" stroke-width="2" stroke-linecap="round" x1="-101.649" y1="299.419" x2="-97.972" y2="287.651"/>
				
					<line fill="none" stroke="#000000" stroke-width="2" stroke-linecap="round" x1="-97.972" y1="287.651" x2="-94.294" y2="299.419"/>
				
					<line fill="none" stroke="#000000" stroke-width="2" stroke-linecap="round" x1="-94.294" y1="299.419" x2="-90.617" y2="287.651"/>
				
					<line fill="none" stroke="#000000" stroke-width="2" stroke-linecap="round" x1="-90.617" y1="287.651" x2="-86.938" y2="299.419"/>
				
					<line fill="none" stroke="#000000" stroke-width="2" stroke-linecap="round" x1="-86.938" y1="299.419" x2="-83.262" y2="287.651"/>
				
					<line fill="none" stroke="#000000" stroke-width="2" stroke-linecap="round" x1="-83.262" y1="287.651" x2="-79.584" y2="299.419"/>
				
					<line fill="none" stroke="#000000" stroke-width="2" stroke-linecap="round" x1="-79.584" y1="299.419" x2="-78.113" y2="293.533"/>
				
					<line id="connector1pin_2_" fill="none" stroke="#787878" stroke-width="2" stroke-linecap="round" x1="-63.402" y1="293.533" x2="-78.113" y2="293.533"/>
				<g id="connector1terminal_2_">
				</g>
				<text transform="matrix(1 0 0 1 -72.1765 291.3865)" fill="#8C8C8C" font-family="'ArialMT'" font-size="5.1077">2</text>
				
					<line id="connector0pin_2_" fill="none" stroke="#787878" stroke-width="2" stroke-linecap="round" x1="-122.244" y1="293.533" x2="-107.533" y2="293.533"/>
				<g id="connector0terminal_2_">
				</g>
				<text transform="matrix(1 0 0 1 -116.3094 291.3865)" fill="#8C8C8C" font-family="'ArialMT'" font-size="5.1077">1</text>
			</g>
		</g>
	</g>
</g>
<g>
	<g transform="translate(176.73,201.995)">
		<g id="schematic_4_">
			<path id="connector0pin_3_" fill="none" stroke="#787878" stroke-width="2" stroke-linecap="round" d="M198.692,226.061v-14.713"
				/>
			<g id="connector0terminal_3_">
			</g>
			<path id="path4098" fill="none" stroke="#000000" stroke-width="2" stroke-linecap="round" d="M185.001,226.337h27.378"/>
			<path id="path4100" fill="none" stroke="#000000" stroke-width="2" stroke-linecap="round" d="M189.561,231.947h18.255"/>
			<path id="path4102" fill="none" stroke="#000000" stroke-width="2" stroke-linecap="round" d="M203.249,237.502h-9.122"/>
		</g>
	</g>
</g>
<g>
	<line fill="none" stroke="#A37911" stroke-width="2" stroke-linecap="round" x1="569.23" y1="181.391" x2="569" y2="112.403"/>
</g>
<g>
	<line fill="none" stroke="#404040" stroke-width="2" stroke-linecap="round" x1="87.898" y1="131.214" x2="87.898" y2="3.148"/>
</g>
<g>
	<line fill="none" stroke="#404040" stroke-width="2" stroke-linecap="round" x1="359.594" y1="3.049" x2="360.506" y2="54.272"/>
</g>
<circle cx="359.594" cy="3.049" r="2.942"/>
<g>
	<line fill="none" stroke="#404040" stroke-width="2" stroke-linecap="round" x1="87.898" y1="3.148" x2="359.594" y2="3.049"/>
</g>
<g>
	<line fill="none" stroke="#404040" stroke-width="2" stroke-linecap="round" x1="569" y1="53.561" x2="570.088" y2="2.058"/>
</g>
<g>
	<line fill="none" stroke="#404040" stroke-width="2" stroke-linecap="round" x1="570.088" y1="2.058" x2="359.594" y2="3.049"/>
</g>
<g>
	
		<line fill="none" stroke="#404040" stroke-width="2" stroke-linecap="round" x1="569.103" y1="142.534" x2="478.188" y2="142.534"/>
</g>
<g>
	
		<line fill="none" stroke="#404040" stroke-width="2" stroke-linecap="round" x1="569.103" y1="181.848" x2="569.103" y2="142.534"/>
</g>
<g>
	<line fill="none" stroke="#404040" stroke-width="2" stroke-linecap="round" x1="569.23" y1="181.391" x2="569.103" y2="181.848"/>
</g>
<g>
	<line fill="none" stroke="#404040" stroke-width="2" stroke-linecap="round" x1="569.23" y1="392.604" x2="375.218" y2="392.604"/>
</g>
<circle cx="375.218" cy="392.604" r="2.943"/>
<g>
	<line fill="none" stroke="#404040" stroke-width="2" stroke-linecap="round" x1="569.23" y1="240.232" x2="569.23" y2="392.604"/>
</g>
<g>
	<line fill="none" stroke="#404040" stroke-width="2" stroke-linecap="round" x1="89.662" y1="392.604" x2="375.218" y2="392.604"/>
</g>
<circle cx="375.218" cy="392.604" r="2.943"/>
<g>
	<line fill="none" stroke="#404040" stroke-width="2" stroke-linecap="round" x1="87.898" y1="278.318" x2="89.662" y2="392.604"/>
</g>
<g>
	<path fill="none" stroke="#404040" stroke-width="2" stroke-linecap="round" d="M257.537,186.664"/>
</g>
<g>
	<path fill="none" stroke="#404040" stroke-width="2" stroke-linecap="round" d="M176.159,204.766
		c46.32-1.7,51.137-19.053,81.378-18.103"/>
</g>
<g>
	<path fill="none" stroke="#404040" stroke-width="2" stroke-linecap="round" d="M176.159,190.054
		c40.408-0.184,42.146,14.687,81.378,11.319"/>
</g>
<g>
	<line fill="none" stroke="#404040" stroke-width="2" stroke-linecap="round" x1="569" y1="112.403" x2="569.103" y2="143.167"/>
</g>
<g>
	
		<line fill="none" stroke="#404040" stroke-width="2" stroke-linecap="round" x1="375.218" y1="392.604" x2="375.419" y2="413.553"/>
</g>
<circle cx="375.218" cy="392.604" r="2.943"/>
<g id="partLabel">
	<g transform="translate(139.031,20.6186)">
		<g id="schematicLabel">
			<text transform="matrix(1 0 0 1 144.654 29.0577)" font-family="'ArialMT'" font-size="10.2153">Arduino1</text>
		</g>
	</g>
</g>
<g id="partLabel_1_">
	<g transform="translate(260.005,35.4048)">
		<g id="schematicLabel_1_">
			<text transform="matrix(1 0 0 1 270.8382 44.4805)" font-family="'ArialMT'" font-size="10.2153">S1</text>
		</g>
	</g>
</g>
<g id="partLabel_2_">
	<g transform="translate(86.4,58.6787)">
		<g id="schematicLabel_2_">
			<text transform="matrix(1 0 0 1 89.7557 68.7554)" font-family="'ArialMT'" font-size="10.2153">Part1</text>
		</g>
	</g>
</g>
<g id="partLabel_3_">
	<g transform="translate(254.734,98.3344)">
		<g id="schematicLabel_3_">
			<text transform="matrix(1 0 0 1 265.3397 110.1212)" font-family="'ArialMT'" font-size="10.2153">R1</text>
			<text transform="matrix(1 0 0 1 265.3397 120.336)" font-family="'ArialMT'" font-size="10.2153">10kΩ</text>
		</g>
	</g>
</g>
</svg>
