<?xml version="1.0" encoding="utf-8"?>
<!-- Generator: Adobe Illustrator 16.0.4, SVG Export Plug-In . SVG Version: 6.00 Build 0)  -->
<!DOCTYPE svg PUBLIC "-//W3C//DTD SVG 1.1//EN" "http://www.w3.org/Graphics/SVG/1.1/DTD/svg11.dtd">
<svg version="1.1" id="Layer_1" xmlns:svg="http://www.w3.org/2000/svg"
	 xmlns="http://www.w3.org/2000/svg" xmlns:xlink="http://www.w3.org/1999/xlink" x="0px" y="0px" width="316.629px"
	 height="174.633px" viewBox="0 0 316.629 174.633" enable-background="new 0 0 316.629 174.633" xml:space="preserve">
<g>
	<g transform="translate(3.68986,11.2)">
		<g id="schematic">
			<line fill="none" stroke="#000000" stroke-width="0.72" stroke-linecap="round" x1="0.36" y1="7.55" x2="14.76" y2="7.55"/>
			<line fill="none" stroke="#000000" stroke-width="0.432" stroke-linecap="round" x1="7.56" y1="10.43" x2="7.56" y2="14.75"/>
			<path fill="none" stroke="#000000" stroke-width="0.72" d="M7.56,10.385c2.556,0,5.039,0.852,7.056,2.421"/>
			<path fill="none" stroke="#000000" stroke-width="0.72" d="M0.567,12.795c2.009-1.534,4.466-2.365,6.993-2.365"/>
			<rect x="1.173" y="5.296" width="2.52" height="0.36"/>
			<rect x="2.253" y="4.216" width="0.36" height="2.521"/>
			
				<line id="connector1pin" fill="none" stroke="#787878" stroke-width="0.7" stroke-linecap="round" x1="7.56" y1="0.35" x2="7.56" y2="7.55"/>
			<g id="connector1terminal">
			</g>
			<g transform="matrix(1, 0, 0, 1, 6.50999, 3.94999)">
				<g>
					<g transform="rotate(270)">
						<g>
							<text transform="matrix(1 0 0 1 -0.696 3.356934e-04)" fill="#8C8C8C" font-family="'ArialMT'" font-size="2.5">2</text>
						</g>
					</g>
				</g>
			</g>
			
				<line id="connector0pin" fill="none" stroke="#787878" stroke-width="0.7" stroke-linecap="round" x1="7.56" y1="21.951" x2="7.56" y2="14.75"/>
			<g id="connector0terminal">
			</g>
			<g transform="matrix(1, 0, 0, 1, 6.50999, 18.35)">
				<g>
					<g transform="rotate(270)">
						<g>
							<text transform="matrix(1 0 0 1 -0.6953 3.356934e-04)" fill="#8C8C8C" font-family="'ArialMT'" font-size="2.5">1</text>
						</g>
					</g>
				</g>
			</g>
		</g>
	</g>
</g>
<g>
	<g transform="translate(14.3461,54.0599)">
		<g transform="matrix(0,1,-1,0,0,0)">
			<g id="schematic_1_">
				<line fill="none" stroke="#000000" stroke-width="0.432" stroke-linecap="round" x1="7.551" y1="3.096" x2="8.63" y2="0.216"/>
				<line fill="none" stroke="#000000" stroke-width="0.432" stroke-linecap="round" x1="8.63" y1="0.216" x2="10.431" y2="5.976"/>
				
					<line fill="none" stroke="#000000" stroke-width="0.432" stroke-linecap="round" x1="10.431" y1="5.976" x2="12.23" y2="0.216"/>
				<line fill="none" stroke="#000000" stroke-width="0.432" stroke-linecap="round" x1="12.23" y1="0.216" x2="14.03" y2="5.976"/>
				<line fill="none" stroke="#000000" stroke-width="0.432" stroke-linecap="round" x1="14.03" y1="5.976" x2="15.83" y2="0.216"/>
				
					<line fill="none" stroke="#000000" stroke-width="0.432" stroke-linecap="round" x1="15.83" y1="0.216" x2="17.631" y2="5.976"/>
				
					<line fill="none" stroke="#000000" stroke-width="0.432" stroke-linecap="round" x1="17.631" y1="5.976" x2="19.431" y2="0.216"/>
				
					<line fill="none" stroke="#000000" stroke-width="0.432" stroke-linecap="round" x1="19.431" y1="0.216" x2="21.23" y2="5.976"/>
				<line fill="none" stroke="#000000" stroke-width="0.432" stroke-linecap="round" x1="21.23" y1="5.976" x2="21.95" y2="3.096"/>
				
					<line id="connector1pin_1_" fill="none" stroke="#787878" stroke-width="0.7" stroke-linecap="round" x1="29.15" y1="3.096" x2="21.95" y2="3.096"/>
				<g id="connector1terminal_1_">
				</g>
				<text transform="matrix(1 0 0 1 24.8554 2.0453)" fill="#8C8C8C" font-family="'ArialMT'" font-size="2.5">2</text>
				
					<line id="connector0pin_1_" fill="none" stroke="#787878" stroke-width="0.7" stroke-linecap="round" x1="0.35" y1="3.096" x2="7.551" y2="3.096"/>
				<g id="connector0terminal_1_">
				</g>
				<text transform="matrix(1 0 0 1 3.2548 2.0453)" fill="#8C8C8C" font-family="'ArialMT'" font-size="2.5">1</text>
			</g>
		</g>
	</g>
</g>
<g>
	<g transform="translate(155.328,46.5354)">
		<g id="schematic_4_">
			<line fill="none" stroke="#000000" stroke-width="0.7" stroke-linecap="round" x1="4.74" y1="9.333" x2="4.74" y2="7.534"/>
			<line fill="none" stroke="#000000" stroke-width="0.7" stroke-linecap="round" x1="4.74" y1="21.935" x2="1.142" y2="9.333"/>
			<circle fill="none" stroke="#000000" stroke-width="0.7" cx="4.74" cy="21.934" r="0.36"/>
			<circle fill="none" stroke="#000000" stroke-width="0.7" cx="4.74" cy="7.534" r="0.36"/>
			
				<line id="connector0pin_4_" fill="none" stroke="#555555" stroke-width="0.7" stroke-linecap="round" x1="4.74" y1="29.135" x2="4.74" y2="21.935"/>
			<g id="connector0terminal_4_">
			</g>
			
				<line id="connector1pin_4_" fill="none" stroke="#555555" stroke-width="0.7" stroke-linecap="round" x1="4.74" y1="0.333" x2="4.74" y2="7.534"/>
			<g id="connector1terminal_4_">
			</g>
		</g>
	</g>
</g>
<g>
	<g transform="translate(91.6785,50.587)">
		<g id="schematic_5_">
			<polyline fill="none" stroke="#000000" stroke-width="0.7" stroke-linecap="round" points="4.611,36.225 4.611,34.781 
				1.73,32.624 8.21,29.022 1.73,25.422 8.21,21.823 1.73,18.223 8.21,14.623 1.73,11.024 4.611,8.863 4.611,7.423 			"/>
			
				<line id="connector1pin_5_" fill="none" stroke="#787878" stroke-width="0.7" stroke-linecap="round" x1="4.611" y1="43.422" x2="4.611" y2="36.225"/>
			<g id="connector1terminal_5_">
			</g>
			<g transform="matrix(1, 0, 0, 1, 0.9906, 14.0462)">
				<g>
					<g transform="rotate(270)">
						<g>
							<g transform="matrix(1, 0, 0, 1, -26.6159, 2.1058)">
								<text transform="matrix(1 0 0 1 -1.525879e-04 -4.882812e-04)" fill="#787878" font-family="'ArialMT'" font-size="2">1</text>
							</g>
						</g>
					</g>
				</g>
			</g>
			
				<line id="connector0pin_5_" fill="none" stroke="#787878" stroke-width="0.7" stroke-linecap="round" x1="4.611" y1="0.223" x2="4.611" y2="7.423"/>
			<g id="connector0terminal_5_">
			</g>
			<g transform="matrix(1, 0, 0, 1, 0.9906, 1.3462)">
				<g>
					<g transform="rotate(270)">
						<g>
							<g transform="matrix(1, 0, 0, 1, -3.3179, 2.1058)">
								<text transform="matrix(1 0 0 1 -1.220703e-04 -4.882812e-04)" fill="#787878" font-family="'ArialMT'" font-size="2">2</text>
							</g>
						</g>
					</g>
				</g>
			</g>
		</g>
	</g>
</g>
<g>
	<g transform="translate(39.3712,54.2417)">
		<g id="schematic_6_">
			<polyline fill="none" stroke="#000000" stroke-width="0.7" stroke-linecap="round" points="4.125,17.557 21.6,27.474 
				21.6,37.743 			"/>
			<polygon points="4.23,19.506 -0.022,15.188 5.819,16.801 			"/>
			<polyline fill="none" stroke="#000000" stroke-width="0.7" stroke-linecap="round" points="14.401,36 14.401,34.559 11.521,32.4 
				18.001,28.8 11.521,25.2 18.001,21.6 11.521,18 18.001,14.4 11.521,10.801 14.401,8.64 14.401,7.2 			"/>
			<g id="connector1terminal_6_">
			</g>
			
				<line id="connector1pin_6_" fill="none" stroke="#787878" stroke-width="0.7" stroke-linecap="round" x1="21.621" y1="42.85" x2="21.621" y2="36"/>
			
				<line id="connector0pin_6_" fill="none" stroke="#787878" stroke-width="0.7" stroke-linecap="round" x1="14.4" y1="42.85" x2="14.4" y2="36"/>
			<g id="connector0terminal_6_">
			</g>
			<g transform="matrix(1, 0, 0, 1, 11.521, 40.0005)">
				<text transform="matrix(1 0 0 1 -1.068115e-04 2.441406e-04)" fill="#787878" font-family="'ArialMT'" font-size="2">1</text>
			</g>
			<g transform="matrix(1, 0, 0, 1, 19.1245, 40.0005)">
				<text transform="matrix(1 0 0 1 -9.155273e-05 2.441406e-04)" fill="#787878" font-family="'ArialMT'" font-size="2">3</text>
			</g>
			
				<line id="connector2pin_2_" fill="none" stroke="#787878" stroke-width="0.7" stroke-linecap="round" x1="14.4" y1="0.35" x2="14.4" y2="7.551"/>
			<g id="connector2terminal_2_">
			</g>
			<g transform="matrix(1, 0, 0, 1, 11.521, 4.9751)">
				<text transform="matrix(1 0 0 1 -1.068115e-04 2.441406e-04)" fill="#787878" font-family="'ArialMT'" font-size="2">2</text>
			</g>
		</g>
	</g>
</g>
<g>
	<g transform="translate(48.0096,11.2)">
		<g id="schematic_7_">
			<line fill="none" stroke="#000000" stroke-width="0.432" stroke-linecap="round" x1="5.76" y1="7.55" x2="5.76" y2="8.991"/>
			<line fill="none" stroke="#000000" stroke-width="0.432" stroke-linecap="round" x1="5.76" y1="14.75" x2="5.76" y2="13.31"/>
			<rect x="0" y="11.871" width="11.52" height="1.439"/>
			<rect x="0" y="8.991" width="11.52" height="1.439"/>
			
				<line id="connector1pin_7_" fill="none" stroke="#787878" stroke-width="0.7" stroke-linecap="round" x1="5.76" y1="0.35" x2="5.76" y2="7.55"/>
			<g id="connector1terminal_7_">
			</g>
			<g transform="matrix(1, 0, 0, 1, 4.70999, 3.94999)">
				<g>
					<g transform="rotate(270)">
						<g>
							<text transform="matrix(1 0 0 1 -0.696 1.373291e-04)" fill="#8C8C8C" font-family="'ArialMT'" font-size="2.5">1</text>
						</g>
					</g>
				</g>
			</g>
			
				<line id="connector0pin_7_" fill="none" stroke="#787878" stroke-width="0.7" stroke-linecap="round" x1="5.76" y1="21.951" x2="5.76" y2="14.75"/>
			<g id="connector0terminal_7_">
			</g>
			<g transform="matrix(1, 0, 0, 1, 4.70999, 18.35)">
				<g>
					<g transform="rotate(270)">
						<g>
							<text transform="matrix(1 0 0 1 -0.6953 1.373291e-04)" fill="#8C8C8C" font-family="'ArialMT'" font-size="2.5">2</text>
						</g>
					</g>
				</g>
			</g>
		</g>
	</g>
</g>
<g>
	<g transform="translate(46.5692,160.233)">
		<g id="schematic_8_">
			<path id="connector0pin_8_" fill="none" stroke="#787878" stroke-width="0.75" stroke-linecap="round" d="M7.201,7.575V0.376"/>
			<g id="connector0terminal_8_">
			</g>
			<path id="path4098" fill="none" stroke="#000000" stroke-width="0.9" stroke-linecap="round" d="M0.5,7.712h13.4"/>
			<path id="path4100" fill="none" stroke="#000000" stroke-width="0.9" stroke-linecap="round" d="M2.732,10.456h8.935"/>
			<path id="path4102" fill="none" stroke="#000000" stroke-width="0.9" stroke-linecap="round" d="M9.431,13.175H4.967"/>
		</g>
	</g>
</g>
<g>
	<g transform="translate(0,135.461)">
		<g id="schematic_9_">
			<line fill="none" stroke="#000000" stroke-width="0.9" stroke-linecap="round" x1="22.05" y1="11.189" x2="0.45" y2="11.189"/>
			<line fill="none" stroke="#000000" stroke-width="0.9" stroke-linecap="round" x1="14.851" y1="14.788" x2="7.65" y2="14.788"/>
			<line fill="none" stroke="#000000" stroke-width="0.9" stroke-linecap="round" x1="22.05" y1="18.388" x2="0.45" y2="18.388"/>
			<line fill="none" stroke="#000000" stroke-width="0.9" stroke-linecap="round" x1="14.851" y1="21.988" x2="7.65" y2="21.988"/>
			<line fill="none" stroke="#000000" stroke-width="0.75" stroke-linecap="round" x1="11.25" y1="7.588" x2="11.25" y2="11.189"/>
			
				<line id="connector1pin_8_" fill="none" stroke="#787878" stroke-width="0.75" stroke-linecap="round" x1="11.25" y1="29.189" x2="11.25" y2="21.988"/>
			<g id="connector1terminal_8_">
			</g>
			<g transform="matrix(1, 0, 0, 1, 12.3809, 26.3574)">
				<text transform="matrix(1 0 0 1 -4.577637e-05 2.136230e-04)" fill="#8C8C8C" font-family="'ArialMT'" font-size="2.5">1</text>
			</g>
			
				<line id="connector0pin_9_" fill="none" stroke="#787878" stroke-width="0.75" stroke-linecap="round" x1="11.25" y1="0.388" x2="11.25" y2="7.588"/>
			<g id="connector0terminal_9_">
			</g>
			<g transform="matrix(1, 0, 0, 1, 12.3809, 4.7578)">
				<text transform="matrix(1 0 0 1 -4.577637e-05 1.831055e-04)" fill="#8C8C8C" font-family="'ArialMT'" font-size="2.5">2</text>
			</g>
			<g transform="matrix(1, 0, 0, 1, 7.8984, 4.7578)">
				<text transform="matrix(1 0 0 1 3.051758e-05 1.831055e-04)" fill="#F8141F" font-family="'ArialMT'" font-size="2.5">+</text>
			</g>
			<g transform="matrix(1, 0, 0, 1, 8.792, 26.0723)">
				<text transform="matrix(1 0 0 1 0 1.525879e-04)" font-family="'ArialMT'" font-size="2.5">-</text>
			</g>
		</g>
	</g>
</g>
<g>
	<g transform="translate(46.5882,125.476)">
		<g id="schematic_10_">
			
				<line id="connector0pin_10_" fill="none" stroke="#787878" stroke-width="0.75" stroke-linecap="round" stroke-miterlimit="10" x1="7.2" y1="6.78" x2="7.2" y2="13.98"/>
			<g id="connector0terminal_10_">
			</g>
			<path fill="none" stroke="#000000" stroke-width="0.9" stroke-linecap="round" d="M0.45,6.564h13.5"/>
			<g transform="matrix(1, 0, 0, 1, 1.4985, 4.9878)">
				<text id="label" transform="matrix(1 0 0 1 2.136230e-04 3.051758e-04)" font-family="'ArialMT'" font-size="4.4991">5V</text>
			</g>
		</g>
	</g>
</g>
<g>
	<g transform="translate(213.948,11.3336)">
		<g id="schematic_11_">
			<g>
				<path d="M13.5,14.966H9.9c-0.193,0-0.35-0.156-0.35-0.351c0-0.193,0.156-0.35,0.35-0.35H13.5c0.192,0,0.35,0.156,0.35,0.35
					C13.85,14.81,13.695,14.966,13.5,14.966z"/>
			</g>
			<g>
				<path d="M9.9,14.966H6.3c-0.193,0-0.35-0.156-0.35-0.351c0-0.193,0.156-0.35,0.35-0.35h3.6c0.193,0,0.351,0.156,0.351,0.35
					C10.25,14.81,10.093,14.966,9.9,14.966z"/>
			</g>
			<g>
				<polygon fill="#FFFFFF" points="9.9,14.616 6.3,7.417 9.9,7.417 13.5,7.417 				"/>
				<path d="M9.9,15.398L5.734,7.066h8.334L9.9,15.398z M6.866,7.766L9.9,13.835l3.034-6.068H6.866z"/>
			</g>
			<g>
				<path d="M9.9,14.841c-0.123,0-0.225-0.102-0.225-0.226V7.417c0-0.124,0.102-0.226,0.225-0.226c0.125,0,0.226,0.102,0.226,0.226
					v7.199C10.124,14.74,10.025,14.841,9.9,14.841z"/>
			</g>
			<g>
				<path d="M1.8,12.141c-0.059,0-0.115-0.021-0.159-0.065c-0.088-0.088-0.088-0.229,0-0.317l2.341-2.341
					c0.088-0.089,0.229-0.089,0.317,0c0.088,0.088,0.088,0.229,0,0.317l-2.34,2.341C1.915,12.12,1.859,12.141,1.8,12.141z"/>
			</g>
			<g>
				<path d="M2.159,15.382c-0.058,0-0.114-0.021-0.158-0.065c-0.088-0.088-0.088-0.229,0-0.317l2.34-2.341
					c0.088-0.088,0.23-0.088,0.318,0s0.088,0.23,0,0.318l-2.34,2.34C2.277,15.359,2.218,15.382,2.159,15.382z"/>
			</g>
			<g id="connector0pin_11_">
				<path fill="#787878" d="M9.9,22.167c-0.193,0-0.35-0.156-0.35-0.351v-7.2c0-0.192,0.156-0.35,0.35-0.35
					c0.194,0,0.351,0.156,0.351,0.35v7.2C10.249,22.01,10.093,22.167,9.9,22.167z"/>
			</g>
			<g id="connector0terminal_11_">
				<rect x="9.9" y="21.816" fill="none" width="0.002" height="0.001"/>
			</g>
			<g transform="matrix(1, 0, 0, 1, 3.429, 6.4262)">
				<g>
					<g transform="rotate(270)">
						<g>
							<g enable-background="new    ">
								<path fill="#787878" d="M-11.648,5.54h-0.891V5.389l0.342-0.373c0.049-0.053,0.093-0.101,0.131-0.145s0.071-0.086,0.1-0.128
									c0.025-0.042,0.047-0.084,0.062-0.125c0.016-0.043,0.021-0.088,0.021-0.138c0-0.039-0.005-0.072-0.018-0.103
									c-0.012-0.03-0.026-0.054-0.047-0.075c-0.021-0.02-0.045-0.035-0.073-0.046c-0.027-0.011-0.06-0.016-0.094-0.016
									c-0.062,0-0.118,0.013-0.167,0.038c-0.051,0.023-0.098,0.057-0.143,0.096l-0.101-0.115c0.025-0.023,0.056-0.047,0.084-0.066
									c0.029-0.021,0.063-0.038,0.098-0.053c0.034-0.016,0.07-0.026,0.108-0.037c0.038-0.008,0.079-0.013,0.121-0.013
									c0.063,0,0.119,0.009,0.169,0.026c0.052,0.018,0.095,0.043,0.129,0.076c0.035,0.031,0.063,0.072,0.082,0.119
									c0.02,0.047,0.028,0.101,0.028,0.16c0,0.055-0.009,0.107-0.026,0.157c-0.017,0.05-0.041,0.101-0.069,0.147
									c-0.031,0.049-0.066,0.098-0.109,0.146c-0.041,0.049-0.087,0.1-0.136,0.152l-0.274,0.294v0.008h0.673V5.54z"/>
							</g>
						</g>
					</g>
				</g>
			</g>
			<g id="connector1pin_9_">
				<path fill="#787878" d="M9.9,7.766c-0.193,0-0.35-0.157-0.35-0.35v-7.2c0-0.193,0.156-0.351,0.35-0.351
					c0.194,0,0.351,0.157,0.351,0.351v7.2C10.249,7.609,10.093,7.766,9.9,7.766z"/>
			</g>
			<g id="connector1terminal_9_">
				<polygon fill="none" points="9.9,0.216 9.902,0.216 9.902,0.216 				"/>
			</g>
			<g transform="matrix(1, 0, 0, 1, 3.429, 1.3462)">
				<g>
					<g transform="rotate(270)">
						<g>
							<g enable-background="new    ">
								<path fill="#787878" d="M-2.616,5.54h-0.172V4.648c0-0.028,0-0.059,0-0.09c0-0.033,0.001-0.063,0.002-0.096
									C-2.785,4.432-2.784,4.4-2.783,4.371c0.001-0.027,0.002-0.055,0.002-0.076c-0.011,0.012-0.021,0.021-0.029,0.03
									C-2.819,4.334-2.827,4.342-2.836,4.35c-0.009,0.006-0.019,0.016-0.028,0.024c-0.01,0.008-0.021,0.019-0.035,0.03
									l-0.145,0.117l-0.094-0.119l0.374-0.293h0.146V5.54H-2.616z"/>
							</g>
						</g>
					</g>
				</g>
			</g>
			<g>
				<path d="M0.18,13.536l1.08-2.521l1.44,1.438L0.18,13.536z"/>
			</g>
			<g>
				<path d="M0.54,16.776l1.08-2.521l1.438,1.438L0.54,16.776z"/>
			</g>
		</g>
	</g>
</g>
<g>
	<g transform="translate(283.44,11.2736)">
		<g id="schematic_12_">
			<line fill="none" stroke="#000000" stroke-width="0.7" stroke-linecap="round" x1="7.787" y1="14.677" x2="4.188" y2="14.677"/>
			<line fill="none" stroke="#000000" stroke-width="0.7" stroke-linecap="round" x1="4.188" y1="14.677" x2="0.587" y2="14.677"/>
			<polygon fill="#FFFFFF" stroke="#000000" stroke-width="0.7" stroke-linecap="round" points="4.188,14.677 0.587,7.478 
				4.188,7.478 7.787,7.478 			"/>
			<line fill="none" stroke="#000000" stroke-width="0.45" stroke-linecap="round" x1="4.188" y1="7.478" x2="4.188" y2="14.677"/>
			
				<line id="connector0pin_12_" fill="none" stroke="#787878" stroke-width="0.7" stroke-linecap="round" x1="4.188" y1="21.876" x2="4.188" y2="14.677"/>
			<g id="connector0terminal_12_">
			</g>
			<g transform="matrix(1, 0, 0, 1, 3.429, 6.4262)">
				<g>
					<g transform="rotate(270)">
						<g>
							<g transform="matrix(1, 0, 0, 1, -12.6912, -0.1726)">
								<text transform="matrix(1 0 0 1 1.220703e-04 -9.155273e-05)" fill="#787878" font-family="'ArialMT'" font-size="2">2</text>
							</g>
						</g>
					</g>
				</g>
			</g>
			
				<line id="connector1pin_10_" fill="none" stroke="#787878" stroke-width="0.7" stroke-linecap="round" x1="4.188" y1="0.276" x2="4.188" y2="7.478"/>
			<g id="connector1terminal_10_">
			</g>
			<g transform="matrix(1, 0, 0, 1, 3.429, 1.3462)">
				<g>
					<g transform="rotate(270)">
						<g>
							<g transform="matrix(1, 0, 0, 1, -3.3708, -0.1726)">
								<text transform="matrix(1 0 0 1 9.155273e-05 -9.155273e-05)" fill="#787878" font-family="'ArialMT'" font-size="2">1</text>
							</g>
						</g>
					</g>
				</g>
			</g>
		</g>
	</g>
</g>
<g>
	<g transform="translate(258.329,74.9697)">
		<g id="schematic_13_">
			
				<rect x="7.55" y="0.361" fill="#FFFFFF" stroke="#000000" stroke-width="0.9" stroke-linecap="round" width="36" height="43.199"/>
			<path fill="none" stroke="#000000" stroke-width="0.5" d="M14.75,16.92c2.585-0.199,4.519-2.456,4.317-5.04
				c-0.176-2.308-2.012-4.142-4.317-4.32"/>
			<path fill="none" stroke="#000000" stroke-width="0.5" d="M14.75,12.6c-1.192-0.348-2.442,0.337-2.79,1.53
				c-0.35,1.193,0.337,2.442,1.527,2.79c0.412,0.12,0.851,0.12,1.263,0"/>
			<path fill="none" stroke="#000000" stroke-width="0.5" d="M14.75,24.12c3.181-0.896,5.034-4.199,4.14-7.38
				c-0.562-2.007-2.133-3.575-4.14-4.141"/>
			<path fill="none" stroke="#000000" stroke-width="0.5" d="M14.75,19.8c-1.192-0.348-2.442,0.337-2.79,1.53
				c-0.35,1.191,0.337,2.441,1.527,2.791c0.412,0.12,0.851,0.12,1.263,0"/>
			<path fill="none" stroke="#000000" stroke-width="0.5" d="M14.75,31.32c3.181-0.929,5.008-4.259,4.08-7.439
				c-0.574-1.967-2.112-3.506-4.08-4.08"/>
			<path fill="none" stroke="#000000" stroke-width="0.5" d="M14.75,27c-1.192-0.349-2.442,0.337-2.79,1.53
				c-0.35,1.19,0.337,2.44,1.527,2.789c0.412,0.121,0.851,0.121,1.263,0"/>
			<path fill="none" stroke="#000000" stroke-width="0.5" d="M14.75,36.361c2.585-0.199,4.519-2.455,4.317-5.041
				c-0.176-2.31-2.012-4.144-4.317-4.319"/>
			<line fill="none" stroke="#000000" stroke-width="0.5" stroke-linecap="round" x1="43.55" y1="7.56" x2="29.15" y2="7.56"/>
			<line fill="none" stroke="#000000" stroke-width="0.5" stroke-linecap="round" x1="29.15" y1="7.56" x2="29.15" y2="14.76"/>
			<line fill="none" stroke="#000000" stroke-width="0.5" stroke-linecap="round" x1="43.55" y1="36.361" x2="29.15" y2="36.361"/>
			<line fill="none" stroke="#000000" stroke-width="0.5" stroke-linecap="round" x1="29.15" y1="36.361" x2="29.15" y2="29.16"/>
			<line fill="none" stroke="#000000" stroke-width="0.5" stroke-linecap="round" x1="43.55" y1="21.96" x2="36.351" y2="21.96"/>
			<line fill="none" stroke="#000000" stroke-width="0.5" stroke-linecap="round" x1="36.351" y1="21.96" x2="31.31" y2="16.92"/>
			<line fill="none" stroke="#000000" stroke-width="0.5" stroke-linecap="round" x1="29.15" y1="14.76" x2="31.31" y2="12.6"/>
			<line fill="none" stroke="#000000" stroke-width="0.5" stroke-linecap="round" x1="29.15" y1="14.76" x2="26.989" y2="12.6"/>
			<line fill="none" stroke="#000000" stroke-width="0.5" stroke-linecap="round" x1="29.15" y1="29.16" x2="31.31" y2="31.32"/>
			<line fill="none" stroke="#000000" stroke-width="0.5" stroke-linecap="round" x1="29.15" y1="29.16" x2="26.989" y2="31.32"/>
			<line fill="none" stroke="#000000" stroke-width="0.5" stroke-linecap="round" x1="7.55" y1="7.56" x2="14.75" y2="7.56"/>
			<line fill="none" stroke="#000000" stroke-width="0.5" stroke-linecap="round" x1="7.55" y1="36.361" x2="14.75" y2="36.361"/>
			
				<line id="connector0pin_13_" fill="none" stroke="#787878" stroke-width="0.75" stroke-linecap="round" x1="0.351" y1="36.361" x2="7.55" y2="36.361"/>
			<g id="connector0terminal_13_">
			</g>
			<g transform="matrix(1, 0, 0, 1, 3.2625, 35.3096)">
				<text transform="matrix(1 0 0 1 2.746582e-04 2.441406e-04)" fill="#8C8C8C" font-family="'ArialMT'" font-size="2.5">1</text>
			</g>
			
				<line id="connector1pin_11_" fill="none" stroke="#787878" stroke-width="0.75" stroke-linecap="round" x1="50.75" y1="21.96" x2="43.55" y2="21.96"/>
			<g id="connector1terminal_11_">
			</g>
			<g transform="matrix(1, 0, 0, 1, 46.4622, 20.9102)">
				<text transform="matrix(1 0 0 1 -1.831055e-04 2.441406e-04)" fill="#8C8C8C" font-family="'ArialMT'" font-size="2.5">2</text>
			</g>
			
				<line id="connector2pin_3_" fill="none" stroke="#787878" stroke-width="0.75" stroke-linecap="round" x1="50.75" y1="36.361" x2="43.55" y2="36.361"/>
			<g id="connector2terminal_3_">
			</g>
			<g transform="matrix(1, 0, 0, 1, 46.4622, 35.3096)">
				<text transform="matrix(1 0 0 1 -1.831055e-04 2.441406e-04)" fill="#8C8C8C" font-family="'ArialMT'" font-size="2.5">3</text>
			</g>
			
				<line id="connector3pin" fill="none" stroke="#787878" stroke-width="0.75" stroke-linecap="round" x1="50.75" y1="7.56" x2="43.55" y2="7.56"/>
			<g id="connector3terminal">
			</g>
			<g transform="matrix(1, 0, 0, 1, 46.4622, 6.5098)">
				<text transform="matrix(1 0 0 1 -1.831055e-04 2.441406e-04)" fill="#8C8C8C" font-family="'ArialMT'" font-size="2.5">4</text>
			</g>
			
				<line id="connector4pin" fill="none" stroke="#787878" stroke-width="0.75" stroke-linecap="round" x1="0.351" y1="7.56" x2="7.55" y2="7.56"/>
			<g id="connector4terminal">
			</g>
			<g transform="matrix(1, 0, 0, 1, 3.2625, 6.5098)">
				<text transform="matrix(1 0 0 1 2.746582e-04 2.441406e-04)" fill="#8C8C8C" font-family="'ArialMT'" font-size="2.5">5</text>
			</g>
		</g>
	</g>
</g>
<g id="partLabel">
	<g transform="translate(26.0001,54.5139)">
		<g id="schematicLabel">
			<text transform="matrix(1 0 0 1 -9.155273e-05 3.75)" font-family="'ArialMT'" font-size="5">R1</text>
			<text transform="matrix(1 0 0 1 -9.155273e-05 8.75)" font-family="'ArialMT'" font-size="5">220Ω</text>
		</g>
	</g>
</g>
<g id="partLabel_1_">
	<g transform="translate(18.8099,0)">
		<g id="schematicLabel_1_">
			<text transform="matrix(1 0 0 1 1.525879e-04 3.7502)" font-family="'ArialMT'" font-size="5">C1</text>
			<text transform="matrix(1 0 0 1 1.525879e-04 8.7502)" font-family="'ArialMT'" font-size="5">1μF</text>
		</g>
	</g>
</g>
<g id="partLabel_4_">
	<g transform="translate(161.944,40.9354)">
		<g id="schematicLabel_4_">
			<text transform="matrix(1 0 0 1 -6.408691e-04 3.7504)" font-family="'ArialMT'" font-size="5">S1</text>
		</g>
	</g>
</g>
<g id="partLabel_5_">
	<g transform="translate(109.992,44.987)">
		<g id="schematicLabel_5_">
			<text transform="matrix(1 0 0 1 1.831055e-04 3.7505)" font-family="'ArialMT'" font-size="5">R2</text>
		</g>
	</g>
</g>
<g id="partLabel_6_">
	<g transform="translate(68.1712,43.0417)">
		<g id="schematicLabel_6_">
			<text transform="matrix(1 0 0 1 1.831055e-04 3.7505)" font-family="'ArialMT'" font-size="5">R3</text>
			<text transform="matrix(1 0 0 1 1.831055e-04 8.7505)" font-family="'ArialMT'" font-size="5">100kΩ</text>
		</g>
	</g>
</g>
<g id="partLabel_7_">
	<g transform="translate(59.5296,1.13687e-14)">
		<g id="schematicLabel_7_">
			<text transform="matrix(1 0 0 1 1.831055e-04 3.7502)" font-family="'ArialMT'" font-size="5">C3</text>
			<text transform="matrix(1 0 0 1 1.831055e-04 8.7502)" font-family="'ArialMT'" font-size="5">100nF</text>
		</g>
	</g>
</g>
<g id="partLabel_8_">
	<g transform="translate(22.5,124.261)">
		<g id="schematicLabel_8_">
			<text transform="matrix(1 0 0 1 0 3.75)" font-family="'ArialMT'" font-size="5">V1</text>
			<text transform="matrix(1 0 0 1 0 8.75)" font-family="'ArialMT'" font-size="5">5</text>
		</g>
	</g>
</g>
<g id="partLabel_9_">
	<g transform="translate(227.628,0.13364)">
		<g id="schematicLabel_9_">
			<text transform="matrix(1 0 0 1 -6.103516e-05 3.7504)" font-family="'ArialMT'" font-size="5">LED1</text>
			<text transform="matrix(1 0 0 1 -6.103516e-05 8.7504)" font-family="'ArialMT'" font-size="5">Red (633nm)</text>
		</g>
	</g>
</g>
<g id="partLabel_10_">
	<g transform="translate(291.815,0.0736003)">
		<g id="schematicLabel_10_">
			<text transform="matrix(1 0 0 1 -5.493164e-04 3.7509)" font-family="'ArialMT'" font-size="5">D1</text>
			<text transform="matrix(1 0 0 1 -5.493164e-04 8.7509)" font-family="'ArialMT'" font-size="5">1N4001</text>
		</g>
	</g>
</g>
<g id="partLabel_11_">
	<g transform="translate(309.429,69.3697)">
		<g id="schematicLabel_11_">
			<text transform="matrix(1 0 0 1 7.019043e-04 3.7507)" font-family="'ArialMT'" font-size="5">U1</text>
		</g>
	</g>
</g>
<g>
	<g>
		<rect x="199.439" y="143.77" width="2.16" height="3.601"/>
		<rect x="199.439" y="132.97" width="2.16" height="3.6"/>
		<rect x="199.439" y="137.65" width="2.16" height="5.04"/>
		
			<line fill="none" stroke="#000000" stroke-width="0.72" stroke-linecap="round" x1="196.991" y1="133.33" x2="196.991" y2="147.37"/>
		
			<line fill="none" stroke="#000000" stroke-width="0.432" stroke-linecap="round" x1="207.359" y1="134.77" x2="201.671" y2="134.77"/>
		
			<line fill="none" stroke="#000000" stroke-width="0.432" stroke-linecap="round" x1="207.359" y1="140.17" x2="207.359" y2="145.571"/>
		
			<line fill="none" stroke="#000000" stroke-width="0.432" stroke-linecap="round" x1="201.6" y1="145.571" x2="207.359" y2="145.571"/>
		
			<line fill="none" stroke="#000000" stroke-width="0.432" stroke-linecap="round" x1="207.359" y1="132.97" x2="207.359" y2="134.77"/>
		
			<line fill="none" stroke="#000000" stroke-width="0.432" stroke-linecap="round" x1="207.359" y1="145.571" x2="207.359" y2="147.37"/>
		
			<line fill="none" stroke="#000000" stroke-width="0.432" stroke-linecap="round" x1="196.56" y1="140.17" x2="192.959" y2="140.17"/>
		
			<line fill="none" stroke="#000000" stroke-width="0.432" stroke-linecap="round" x1="201.6" y1="140.17" x2="205.199" y2="141.611"/>
		
			<line fill="none" stroke="#000000" stroke-width="0.432" stroke-linecap="round" x1="205.199" y1="141.611" x2="205.199" y2="138.73"/>
		
			<line fill="none" stroke="#000000" stroke-width="0.432" stroke-linecap="round" x1="205.199" y1="138.73" x2="201.6" y2="140.17"/>
		
			<line fill="none" stroke="#000000" stroke-width="0.432" stroke-linecap="round" x1="204.839" y1="140.17" x2="207.359" y2="140.17"/>
		
			<line fill="none" stroke="#000000" stroke-width="0.864" stroke-linecap="round" x1="204.839" y1="139.45" x2="202.319" y2="140.17"/>
		
			<line fill="none" stroke="#000000" stroke-width="0.864" stroke-linecap="round" x1="202.319" y1="140.17" x2="204.839" y2="140.89"/>
		
			<line fill="none" stroke="#000000" stroke-width="0.864" stroke-linecap="round" x1="204.839" y1="140.89" x2="204.839" y2="140.17"/>
		
			<line fill="none" stroke="#000000" stroke-width="0.864" stroke-linecap="round" x1="204.839" y1="140.17" x2="204.119" y2="140.17"/>
		
			<line id="connector1pin_15_" fill="none" stroke="#787878" stroke-width="0.7" stroke-linecap="round" x1="207.359" y1="125.77" x2="207.359" y2="132.97"/>
		
			<line id="connector0pin_17_" fill="none" stroke="#787878" stroke-width="0.7" stroke-linecap="round" x1="185.759" y1="140.17" x2="192.959" y2="140.17"/>
		
			<line id="connector2pin_7_" fill="none" stroke="#787878" stroke-width="0.7" stroke-linecap="round" x1="207.359" y1="154.571" x2="207.359" y2="147.37"/>
	</g>
	<text transform="matrix(1 0 0 1 189.3594 118.9446)" font-family="'ArialMT'" font-size="5">n-Channel</text>
</g>
<g id="connector0terminal_16_">
</g>
<g id="connector1terminal_14_">
</g>
<g id="connector2terminal_6_">
</g>
<g>
	<g>
		<line fill="none" stroke="#000000" stroke-width="0.72" stroke-linecap="round" x1="205.56" y1="85.69" x2="205.56" y2="99.73"/>
		
			<line fill="none" stroke="#000000" stroke-width="0.432" stroke-linecap="round" x1="215.928" y1="87.129" x2="210.239" y2="87.129"/>
		
			<line fill="none" stroke="#000000" stroke-width="0.432" stroke-linecap="round" x1="215.928" y1="92.53" x2="215.928" y2="97.93"/>
		
			<line fill="none" stroke="#000000" stroke-width="0.432" stroke-linecap="round" x1="210.168" y1="97.93" x2="215.928" y2="97.93"/>
		
			<line fill="none" stroke="#000000" stroke-width="0.432" stroke-linecap="round" x1="215.928" y1="85.329" x2="215.928" y2="87.129"/>
		
			<line fill="none" stroke="#000000" stroke-width="0.432" stroke-linecap="round" x1="215.928" y1="97.93" x2="215.928" y2="99.73"/>
		
			<line fill="none" stroke="#000000" stroke-width="0.432" stroke-linecap="round" x1="215.928" y1="92.53" x2="212.328" y2="91.089"/>
		
			<line fill="none" stroke="#000000" stroke-width="0.432" stroke-linecap="round" x1="212.328" y1="91.089" x2="212.328" y2="93.97"/>
		
			<line fill="none" stroke="#000000" stroke-width="0.432" stroke-linecap="round" x1="212.328" y1="93.97" x2="215.928" y2="92.53"/>
		
			<line fill="none" stroke="#000000" stroke-width="0.432" stroke-linecap="round" x1="212.688" y1="92.53" x2="210.168" y2="92.53"/>
		
			<line fill="none" stroke="#000000" stroke-width="0.864" stroke-linecap="round" x1="212.688" y1="93.249" x2="215.208" y2="92.53"/>
		
			<line fill="none" stroke="#000000" stroke-width="0.864" stroke-linecap="round" x1="215.208" y1="92.53" x2="212.688" y2="91.81"/>
		
			<line fill="none" stroke="#000000" stroke-width="0.864" stroke-linecap="round" x1="212.688" y1="91.81" x2="212.688" y2="92.53"/>
		
			<line fill="none" stroke="#000000" stroke-width="0.864" stroke-linecap="round" x1="212.688" y1="92.53" x2="213.407" y2="92.53"/>
		
			<line fill="none" stroke="#000000" stroke-width="0.432" stroke-linecap="round" x1="205.128" y1="92.53" x2="201.527" y2="92.53"/>
		<rect x="208.008" y="96.129" width="2.16" height="3.601"/>
		<rect x="208.008" y="85.329" width="2.16" height="3.6"/>
		<rect x="208.008" y="90.009" width="2.16" height="5.04"/>
		
			<line id="connector0pin_16_" fill="none" stroke="#787878" stroke-width="0.7" stroke-linecap="round" x1="194.328" y1="92.53" x2="201.527" y2="92.53"/>
		
			<line id="connector1pin_14_" fill="none" stroke="#787878" stroke-width="0.7" stroke-linecap="round" x1="215.928" y1="78.129" x2="215.928" y2="85.329"/>
		
			<line id="connector2pin_6_" fill="none" stroke="#787878" stroke-width="0.7" stroke-linecap="round" x1="215.928" y1="106.93" x2="215.928" y2="99.73"/>
	</g>
	<g transform="translate(31.886,5.54999)">
		<g id="schematicLabel_14_">
			<text transform="matrix(1 0 0 1 169.6413 68.1973)" font-family="'ArialMT'" font-size="5">P-channel</text>
		</g>
	</g>
</g>
<g>
	<g>
		<g transform="translate(104.45,60.4)">
			<g id="schematic_15_">
				
					<line fill="none" stroke="#000000" stroke-width="0.432" stroke-linecap="round" x1="57.493" y1="70.08" x2="51.734" y2="72.96"/>
				
					<line fill="none" stroke="#000000" stroke-width="0.432" stroke-linecap="round" x1="55.333" y1="81.6" x2="57.493" y2="84.48"/>
				
					<line fill="none" stroke="#000000" stroke-width="0.432" stroke-linecap="round" x1="57.493" y1="84.48" x2="53.894" y2="84.48"/>
				
					<line fill="none" stroke="#000000" stroke-width="0.432" stroke-linecap="round" x1="53.894" y1="84.48" x2="55.333" y2="81.6"/>
				
					<line fill="none" stroke="#000000" stroke-width="0.432" stroke-linecap="round" x1="54.659" y1="83.062" x2="51.167" y2="81.316"/>
				
					<line fill="none" stroke="#000000" stroke-width="0.72" stroke-linecap="round" x1="54.614" y1="84.12" x2="56.775" y2="84.12"/>
				
					<line fill="none" stroke="#000000" stroke-width="0.72" stroke-linecap="round" x1="56.775" y1="84.12" x2="55.333" y2="82.32"/>
				
					<line fill="none" stroke="#000000" stroke-width="0.72" stroke-linecap="round" x1="55.333" y1="82.32" x2="54.614" y2="83.759"/>
				
					<line fill="none" stroke="#000000" stroke-width="0.72" stroke-linecap="round" x1="54.614" y1="83.759" x2="55.695" y2="83.759"/>
				
					<line fill="none" stroke="#000000" stroke-width="0.72" stroke-linecap="round" x1="55.695" y1="83.759" x2="55.333" y2="83.04"/>
				<rect x="49.573" y="70.08" width="2.16" height="14.4"/>
				
					<line id="connector0pin_15_" fill="none" stroke="#787878" stroke-width="0.7" stroke-linecap="round" x1="43.093" y1="77.28" x2="50.294" y2="77.28"/>
				<g id="connector0terminal_15_">
				</g>
				<text transform="matrix(1 0 0 1 45.9982 76.2292)" fill="#8C8C8C" font-family="'ArialMT'" font-size="2.5">1</text>
				
					<line id="connector2pin_5_" fill="none" stroke="#787878" stroke-width="0.7" stroke-linecap="round" x1="57.493" y1="91.68" x2="57.493" y2="84.48"/>
				<g id="connector2terminal_5_">
				</g>
				<g transform="matrix(1, 0, 0, 1, 13.7, 25.5501)">
					<g>
						<g transform="rotate(270)">
							<g>
								<text transform="matrix(1 0 0 1 -63.2249 42.7445)" fill="#8C8C8C" font-family="'ArialMT'" font-size="2.5">2</text>
							</g>
						</g>
					</g>
				</g>
				
					<line id="connector1pin_13_" fill="none" stroke="#787878" stroke-width="0.7" stroke-linecap="round" x1="57.493" y1="62.88" x2="57.493" y2="70.08"/>
				<g id="connector1terminal_13_">
				</g>
				<g transform="matrix(1, 0, 0, 1, 13.7, 3.95001)">
					<g>
						<g transform="rotate(270)">
							<g>
								<text transform="matrix(1 0 0 1 -63.2245 42.7445)" fill="#8C8C8C" font-family="'ArialMT'" font-size="2.5">3</text>
							</g>
						</g>
					</g>
				</g>
			</g>
		</g>
	</g>
	<g id="partLabel_13_">
		<g transform="translate(119.55,54.8)">
			<g id="schematicLabel_13_">
				<text transform="matrix(1 0 0 1 42.743 66.2794)" font-family="'ArialMT'" font-size="5">NPN</text>
			</g>
		</g>
	</g>
</g>
<g>
	<g>
		<g transform="translate(118.85,5.6)">
			<g id="schematic_14_">
				
					<line fill="none" stroke="#000000" stroke-width="0.432" stroke-linecap="round" x1="57.494" y1="70.08" x2="51.734" y2="72.96"/>
				
					<line fill="none" stroke="#000000" stroke-width="0.432" stroke-linecap="round" x1="51.734" y1="81.599" x2="57.494" y2="84.479"/>
				
					<line fill="none" stroke="#000000" stroke-width="0.432" stroke-linecap="round" x1="53.894" y1="70.08" x2="55.334" y2="72.96"/>
				
					<line fill="none" stroke="#000000" stroke-width="0.432" stroke-linecap="round" x1="55.334" y1="72.96" x2="51.734" y2="72.96"/>
				
					<line fill="none" stroke="#000000" stroke-width="0.432" stroke-linecap="round" x1="51.734" y1="72.96" x2="53.894" y2="70.08"/>
				
					<line fill="none" stroke="#000000" stroke-width="0.576" stroke-linecap="round" x1="53.75" y1="70.727" x2="54.757" y2="72.672"/>
				
					<line fill="none" stroke="#000000" stroke-width="0.576" stroke-linecap="round" x1="53.535" y1="71.16" x2="54.254" y2="72.672"/>
				
					<line fill="none" stroke="#000000" stroke-width="0.576" stroke-linecap="round" x1="53.173" y1="71.519" x2="53.75" y2="72.672"/>
				
					<line fill="none" stroke="#000000" stroke-width="0.576" stroke-linecap="round" x1="52.959" y1="71.952" x2="53.246" y2="72.599"/>
				
					<line fill="none" stroke="#000000" stroke-width="0.576" stroke-linecap="round" x1="52.597" y1="72.24" x2="52.814" y2="72.672"/>
				<rect x="49.574" y="70.08" width="2.16" height="14.4"/>
				
					<line id="connector0pin_14_" fill="none" stroke="#787878" stroke-width="0.7" stroke-linecap="round" x1="43.093" y1="77.28" x2="50.295" y2="77.28"/>
				<g id="connector0terminal_14_">
				</g>
				<text transform="matrix(1 0 0 1 45.9987 76.2293)" fill="#8C8C8C" font-family="'ArialMT'" font-size="2.5">1</text>
				
					<line id="connector1pin_12_" fill="none" stroke="#787878" stroke-width="0.7" stroke-linecap="round" x1="57.494" y1="91.68" x2="57.494" y2="84.479"/>
				<g id="connector1terminal_12_">
				</g>
				<g transform="matrix(1, 0, 0, 1, 13.7, 25.5501)">
					<g>
						<g transform="rotate(270)">
							<g>
								<text transform="matrix(1 0 0 1 -63.2251 42.743)" fill="#8C8C8C" font-family="'ArialMT'" font-size="2.5">3</text>
							</g>
						</g>
					</g>
				</g>
				
					<line id="connector2pin_4_" fill="none" stroke="#787878" stroke-width="0.7" stroke-linecap="round" x1="57.494" y1="62.88" x2="57.494" y2="70.08"/>
				<g id="connector2terminal_4_">
				</g>
				<g transform="matrix(1, 0, 0, 1, 13.7, 3.95001)">
					<g>
						<g transform="rotate(270 )">
							<g>
								<text transform="matrix(1 0 0 1 -63.2246 42.743)" fill="#8C8C8C" font-family="'ArialMT'" font-size="2.5">2</text>
							</g>
						</g>
					</g>
				</g>
			</g>
		</g>
	</g>
	<g id="partLabel_12_">
		<g transform="translate(133.95,0)">
			<g id="schematicLabel_12_">
				<text transform="matrix(1 0 0 1 46.7805 70.1995)" font-family="'ArialMT'" font-size="5">PNP</text>
			</g>
		</g>
	</g>
</g>
</svg>
