<?xml version="1.0" encoding="UTF-8" standalone="no"?>
<!DOCTYPE svg PUBLIC "-//W3C//DTD SVG 1.1//EN" "http://www.w3.org/Graphics/SVG/1.1/DTD/svg11.dtd">
<svg width="100%" height="100%" viewBox="0 0 744 1514" version="1.1" xmlns="http://www.w3.org/2000/svg" xmlns:xlink="http://www.w3.org/1999/xlink" xml:space="preserve" xmlns:serif="http://www.serif.com/" style="fill-rule:evenodd;clip-rule:evenodd;stroke-linecap:round;">
    <g id="Layer-1" serif:id="Layer 1" transform="matrix(4.16667,0,0,4.16667,0,0)">
        <g transform="matrix(1,0,0,1,84.4851,98.8107)">
            <path d="M0,159.788C0,156.524 2.556,154.002 5.864,154.002C9.173,154.002 11.729,156.524 11.729,159.788C11.729,163.052 9.173,165.574 5.864,165.574C2.707,165.574 0,163.052 0,159.788M0,-84.123C0,-87.387 2.556,-89.909 5.864,-89.909C9.173,-89.909 11.729,-87.387 11.729,-84.123C11.729,-80.859 9.173,-78.337 5.864,-78.337C2.707,-78.337 0,-80.859 0,-84.123M20.751,245.987L20.751,-86.2C20.751,-93.173 18.089,-98.811 14.796,-98.811L-84.485,-98.811L-84.485,258.599L14.796,258.599C18.089,258.599 20.751,252.961 20.751,245.987" style="fill:rgb(15,116,59);fill-rule:nonzero;"/>
        </g>
        <g transform="matrix(1,0,0,1,82.3799,336.787)">
            <path d="M0,24.183C0,24.628 -0.451,24.925 -1.053,24.925L-6.617,24.925C-7.068,24.925 -7.519,24.628 -7.669,24.183L-11.128,0C-11.128,-0.445 -10.827,-0.742 -10.376,-0.742L-9.624,-0.742C-9.173,-0.742 -8.722,-0.445 -8.571,0L-5.865,21.364C-5.865,21.809 -5.413,22.106 -4.812,22.106L-2.707,22.106C-2.256,22.106 -1.804,21.809 -1.654,21.364L0.902,0C0.902,-0.445 1.353,-0.742 1.955,-0.742L2.707,-0.742C3.158,-0.742 3.609,-0.445 3.458,0L0,24.183ZM-23.308,24.183C-23.308,24.628 -23.759,24.925 -24.361,24.925L-29.924,24.925C-30.375,24.925 -30.826,24.628 -30.977,24.183L-34.285,0C-34.285,-0.445 -33.984,-0.742 -33.533,-0.742L-32.781,-0.742C-32.33,-0.742 -31.879,-0.445 -31.729,0L-29.022,21.364C-29.022,21.809 -28.571,22.106 -27.969,22.106L-25.864,22.106C-25.413,22.106 -24.962,21.809 -24.812,21.364L-22.406,0C-22.406,-0.445 -21.954,-0.742 -21.353,-0.742L-20.601,-0.742C-20.15,-0.742 -19.699,-0.445 -19.849,0L-23.308,24.183Z" style="fill:rgb(123,123,124);fill-rule:nonzero;"/>
        </g>
        <g transform="matrix(-1,0,0,1,133.932,319.725)">
            <rect x="46.891" y="2.077" width="40.15" height="39.465" style="fill:rgb(51,51,51);"/>
        </g>
        <g transform="matrix(1,0,0,1,88.5452,363.344)">
            <path d="M0,-3.857L1.203,-3.857C1.203,-3.264 1.353,-2.819 1.504,-2.67C1.654,-2.67 2.256,-2.522 2.707,-2.522L2.707,0C1.955,0 1.053,-0.148 0.752,-0.296C-0.15,-0.89 -0.15,-1.928 -0.15,-2.373L-0.15,-3.264C0,-3.56 0,-3.709 0,-3.857" style="fill:rgb(176,176,177);fill-rule:nonzero;"/>
        </g>
        <g transform="matrix(1,0,0,1,90.0489,362.306)">
            <path d="M0,-1.781C-0.15,-1.929 -0.15,-2.374 -0.15,-2.819L-1.353,-2.819L-1.353,-1.484C-1.353,-1.187 -1.353,-0.149 -0.752,0.444C-0.602,0.593 -0.451,0.89 0.301,1.038C0,0.741 0,-1.781 0,-1.781" style="fill:rgb(144,144,144);fill-rule:nonzero;"/>
        </g>
        <g transform="matrix(-1,0,0,1,110.927,261.862)">
            <rect x="53.659" y="49.554" width="3.609" height="2.374" style="fill:rgb(78,78,78);"/>
        </g>
        <g transform="matrix(-1,0,0,1,126.865,261.862)">
            <rect x="61.628" y="49.554" width="3.609" height="2.374" style="fill:rgb(78,78,78);"/>
        </g>
        <g transform="matrix(-1,0,0,1,141.001,261.862)">
            <rect x="68.696" y="49.554" width="3.609" height="2.374" style="fill:rgb(78,78,78);"/>
        </g>
        <g transform="matrix(-1,0,0,1,156.941,261.862)">
            <rect x="76.666" y="49.554" width="3.609" height="2.374" style="fill:rgb(78,78,78);"/>
        </g>
        <g transform="matrix(1,0,0,1,45.3881,363.344)">
            <path d="M0,-3.857L-1.203,-3.857C-1.203,-3.264 -1.353,-2.819 -1.504,-2.67C-1.654,-2.67 -2.256,-2.522 -2.707,-2.522L-2.707,0C-1.955,0 -1.053,-0.148 -0.752,-0.296C0.15,-0.89 0.15,-1.928 0.15,-2.373L0.15,-3.264C0,-3.56 0,-3.709 0,-3.857" style="fill:rgb(176,176,177);fill-rule:nonzero;"/>
        </g>
        <g transform="matrix(1,0,0,1,43.8844,359.487)">
            <path d="M0,3.857C0.752,3.709 0.902,3.412 1.053,3.263C1.504,2.67 1.654,1.632 1.654,1.335L1.654,0L0.451,0C0.451,0.445 0.451,0.89 0.301,1.038C0,1.038 0,3.56 0,3.857" style="fill:rgb(144,144,144);fill-rule:nonzero;"/>
        </g>
        <g transform="matrix(1,0,0,1,82.3799,317.203)">
            <path d="M0,39.761C0,40.206 -0.451,40.503 -1.053,40.503L-6.617,40.503C-7.068,40.503 -7.519,40.206 -7.669,39.761L-11.128,14.242C-11.128,13.797 -10.827,13.501 -10.376,13.501L-9.624,13.501C-9.173,13.501 -8.722,13.797 -8.571,14.242L-5.865,35.607C-5.865,36.052 -5.413,36.349 -4.812,36.349L-2.707,36.349C-2.256,36.349 -1.804,36.052 -1.654,35.607L0.902,14.242C0.902,13.797 1.353,13.501 1.955,13.501L2.707,13.501C3.158,13.501 3.609,13.797 3.458,14.242L0,39.761ZM-23.308,39.761C-23.308,40.206 -23.759,40.503 -24.361,40.503L-29.924,40.503C-30.375,40.503 -30.826,40.206 -30.977,39.761L-34.436,14.242C-34.436,13.797 -34.135,13.501 -33.684,13.501L-32.932,13.501C-32.481,13.501 -32.029,13.797 -31.879,14.242L-29.172,35.607C-29.172,36.052 -28.721,36.349 -28.12,36.349L-26.015,36.349C-25.563,36.349 -25.112,36.052 -24.962,35.607L-22.406,14.242C-22.406,13.797 -21.954,13.501 -21.353,13.501L-20.601,13.501C-20.15,13.501 -19.699,13.797 -19.849,14.242L-23.308,39.761ZM-38.796,-4.748L-38.796,42.877L-36.841,42.877L-36.841,44.509L6.015,44.509L6.015,42.877L7.97,42.877L7.97,-4.748L-38.796,-4.748Z" style="fill:rgb(180,179,180);fill-rule:nonzero;"/>
        </g>
        <g transform="matrix(-0.143422,0.989662,0.989662,0.143422,56.1028,354.82)">
            <path d="M-3.521,0.971L-1.422,0.971L-0.862,-2.898L-2.896,-3.345L-3.521,0.971Z" style="fill:rgb(149,148,148);fill-rule:nonzero;"/>
        </g>
        <g transform="matrix(0,-1,-1,0,55.7578,348.774)">
            <path d="M-2.701,-1.811L-1.81,-1.811L-1.81,2.701L-2.701,2.55L-2.701,-1.811Z" style="fill:rgb(103,103,103);fill-rule:nonzero;"/>
        </g>
        <g transform="matrix(-0.0720319,0.997402,0.997402,0.0720319,79.5044,354.688)">
            <path d="M-3.293,0.987L-1.211,0.987L-0.929,-2.913L-2.99,-3.213L-3.293,0.987Z" style="fill:rgb(149,148,148);fill-rule:nonzero;"/>
        </g>
        <g transform="matrix(0.166195,-0.986093,-0.986093,-0.166195,79.409,349.028)">
            <path d="M-2.194,-1.705L-1.292,-1.705L-2.042,2.743L-2.894,2.447L-2.194,-1.705Z" style="fill:rgb(103,103,103);fill-rule:nonzero;"/>
        </g>
        <g opacity="0.24">
            <g transform="matrix(0,1,1,0,67.035,336.49)">
                <path d="M-22.7,-22.7L22.7,-22.7" style="fill:none;fill-rule:nonzero;stroke:white;stroke-width:0.81px;"/>
            </g>
        </g>
        <g opacity="0.24">
            <g transform="matrix(0,1,1,0,112.372,336.564)">
                <path d="M-22.774,-22.774L22.774,-22.774" style="fill:none;fill-rule:nonzero;stroke:white;stroke-width:0.81px;"/>
            </g>
        </g>
        <g opacity="0.15">
            <g transform="matrix(-1,0,0,1,45.839,360.673)">
                <path d="M-42.255,0L0,0" style="fill:none;fill-rule:nonzero;stroke:rgb(3,4,5);stroke-width:0.4px;"/>
            </g>
        </g>
        <g transform="matrix(1,0,0,1,93.2067,325.214)">
            <path d="M0,-1.78L0,1.632L-2.857,1.632L-2.857,-2.522L-0.752,-2.522C-0.301,-2.522 0,-2.225 0,-1.78Z" style="fill:rgb(153,153,153);fill-rule:nonzero;"/>
        </g>
        <g transform="matrix(-1,0,0,1,90.3497,322.692)">
            <path d="M-2.857,0.742L0,0.742L0,0L-2.105,0C-2.556,0 -2.857,0.445 -2.857,0.742" style="fill:rgb(128,129,129);fill-rule:nonzero;"/>
        </g>
        <g transform="matrix(1,0,0,1,40.7265,325.214)">
            <path d="M0,-1.78L0,1.632L2.857,1.632L2.857,-2.522L0.752,-2.522C0.301,-2.522 0,-2.225 0,-1.78Z" style="fill:rgb(180,179,180);fill-rule:nonzero;"/>
        </g>
        <g transform="matrix(1,0,0,1,40.7265,322.692)">
            <path d="M0,0.742L2.857,0.742L2.857,0L0.602,0C0.301,0 0,0.445 0,0.742" style="fill:rgb(230,230,230);fill-rule:nonzero;"/>
        </g>
        <g transform="matrix(1,0,0,1,84.4851,14.6878)">
            <path d="M0,0C0,-3.264 2.556,-5.786 5.864,-5.786C9.173,-5.786 11.729,-3.264 11.729,0C11.729,3.264 9.173,5.786 5.864,5.786C2.707,5.786 0,3.264 0,0M19.097,0C19.097,-7.27 13.233,-13.056 5.864,-13.056C-1.504,-13.056 -7.368,-7.27 -7.368,0C-7.368,7.27 -1.504,13.056 5.864,13.056C13.233,13.056 19.097,7.27 19.097,0" style="fill:rgb(184,176,131);fill-rule:nonzero;"/>
        </g>
        <g transform="matrix(1,0,0,1,84.4851,258.599)">
            <path d="M0,0C0,-3.264 2.556,-5.786 5.864,-5.786C9.173,-5.786 11.729,-3.264 11.729,0C11.729,3.264 9.173,5.786 5.864,5.786C2.707,5.786 0,3.264 0,0M19.097,0C19.097,-7.27 13.233,-13.056 5.864,-13.056C-1.504,-13.056 -7.368,-7.27 -7.368,0C-7.368,7.27 -1.504,13.056 5.864,13.056C13.233,13.056 19.097,7.27 19.097,0" style="fill:rgb(184,176,131);fill-rule:nonzero;"/>
        </g>
        <g transform="matrix(0,-1,-1,0,86.7405,32.0041)">
            <ellipse cx="-3.158" cy="0" rx="3.116" ry="3.158" style="fill:none;stroke:rgb(254,191,15);stroke-width:1px;stroke-linecap:butt;"/>
        </g>
        <g transform="matrix(0,-1,-1,0,86.7405,42.6863)">
            <ellipse cx="-3.158" cy="0" rx="3.116" ry="3.158" style="fill:none;stroke:rgb(254,191,15);stroke-width:1px;stroke-linecap:butt;"/>
        </g>
        <g transform="matrix(0,-1,-1,0,86.7405,53.3685)">
            <ellipse cx="-3.158" cy="0" rx="3.116" ry="3.158" style="fill:none;stroke:rgb(254,191,15);stroke-width:1px;stroke-linecap:butt;"/>
        </g>
        <g transform="matrix(0,-1,-1,0,86.7405,64.0508)">
            <ellipse cx="-3.158" cy="0" rx="3.116" ry="3.158" style="fill:none;stroke:rgb(254,191,15);stroke-width:1px;stroke-linecap:butt;"/>
        </g>
        <g transform="matrix(0,-1,-1,0,86.7405,74.733)">
            <ellipse cx="-3.158" cy="0" rx="3.116" ry="3.158" style="fill:none;stroke:rgb(254,191,15);stroke-width:1px;stroke-linecap:butt;"/>
        </g>
        <g transform="matrix(0,-1,-1,0,86.7405,85.4152)">
            <ellipse cx="-3.158" cy="0" rx="3.116" ry="3.158" style="fill:none;stroke:rgb(254,191,15);stroke-width:1px;stroke-linecap:butt;"/>
        </g>
        <g transform="matrix(0,-1,-1,0,86.7405,96.0975)">
            <ellipse cx="-3.158" cy="0" rx="3.116" ry="3.158" style="fill:none;stroke:rgb(254,191,15);stroke-width:1px;stroke-linecap:butt;"/>
        </g>
        <g transform="matrix(0,-1,-1,0,86.7405,106.78)">
            <ellipse cx="-3.158" cy="0" rx="3.116" ry="3.158" style="fill:none;stroke:rgb(254,191,15);stroke-width:1px;stroke-linecap:butt;"/>
        </g>
        <g transform="matrix(0,-1,-1,0,86.7405,117.462)">
            <ellipse cx="-3.158" cy="0" rx="3.116" ry="3.158" style="fill:none;stroke:rgb(254,191,15);stroke-width:1px;stroke-linecap:butt;"/>
        </g>
        <g transform="matrix(0,-1,-1,0,86.7405,128.144)">
            <ellipse cx="-3.158" cy="0" rx="3.116" ry="3.158" style="fill:none;stroke:rgb(254,191,15);stroke-width:1px;stroke-linecap:butt;"/>
        </g>
        <g transform="matrix(0,-1,-1,0,86.7405,138.826)">
            <ellipse cx="-3.158" cy="0" rx="3.116" ry="3.158" style="fill:none;stroke:rgb(254,191,15);stroke-width:1px;stroke-linecap:butt;"/>
        </g>
        <g transform="matrix(0,-1,-1,0,86.7405,149.509)">
            <ellipse cx="-3.158" cy="0" rx="3.116" ry="3.158" style="fill:none;stroke:rgb(254,191,15);stroke-width:1px;stroke-linecap:butt;"/>
        </g>
        <g transform="matrix(0,-1,-1,0,86.7405,160.191)">
            <ellipse cx="-3.158" cy="0" rx="3.116" ry="3.158" style="fill:none;stroke:rgb(254,191,15);stroke-width:1px;stroke-linecap:butt;"/>
        </g>
        <g transform="matrix(0,-1,-1,0,86.7405,170.873)">
            <ellipse cx="-3.158" cy="0" rx="3.116" ry="3.158" style="fill:none;stroke:rgb(254,191,15);stroke-width:1px;stroke-linecap:butt;"/>
        </g>
        <g transform="matrix(0,-1,-1,0,86.7405,181.555)">
            <ellipse cx="-3.158" cy="0" rx="3.116" ry="3.158" style="fill:none;stroke:rgb(254,191,15);stroke-width:1px;stroke-linecap:butt;"/>
        </g>
        <g transform="matrix(0,-1,-1,0,86.7405,192.238)">
            <ellipse cx="-3.158" cy="0" rx="3.116" ry="3.158" style="fill:none;stroke:rgb(254,191,15);stroke-width:1px;stroke-linecap:butt;"/>
        </g>
        <g transform="matrix(0,-1,-1,0,86.7405,202.92)">
            <ellipse cx="-3.158" cy="0" rx="3.116" ry="3.158" style="fill:none;stroke:rgb(254,191,15);stroke-width:1px;stroke-linecap:butt;"/>
        </g>
        <g transform="matrix(0,-1,-1,0,86.7405,213.602)">
            <ellipse cx="-3.158" cy="0" rx="3.116" ry="3.158" style="fill:none;stroke:rgb(254,191,15);stroke-width:1px;stroke-linecap:butt;"/>
        </g>
        <g transform="matrix(0,-1,-1,0,86.7405,224.284)">
            <ellipse cx="-3.158" cy="0" rx="3.116" ry="3.158" style="fill:none;stroke:rgb(254,191,15);stroke-width:1px;stroke-linecap:butt;"/>
        </g>
        <g transform="matrix(0,-1,-1,0,86.7405,234.967)">
            <ellipse cx="-3.158" cy="0" rx="3.116" ry="3.158" style="fill:none;stroke:rgb(254,191,15);stroke-width:1px;stroke-linecap:butt;"/>
        </g>
        <g transform="matrix(0,-1,-1,0,97.5674,234.967)">
            <ellipse cx="-3.158" cy="0" rx="3.116" ry="3.158" style="fill:none;stroke:rgb(254,191,15);stroke-width:1px;stroke-linecap:butt;"/>
        </g>
        <g transform="matrix(0,-1,-1,0,97.5674,224.284)">
            <ellipse cx="-3.158" cy="0" rx="3.116" ry="3.158" style="fill:none;stroke:rgb(254,191,15);stroke-width:1px;stroke-linecap:butt;"/>
        </g>
        <g transform="matrix(0,-1,-1,0,97.5674,213.602)">
            <ellipse cx="-3.158" cy="0" rx="3.116" ry="3.158" style="fill:none;stroke:rgb(254,191,15);stroke-width:1px;stroke-linecap:butt;"/>
        </g>
        <g transform="matrix(0,-1,-1,0,97.5674,202.92)">
            <ellipse cx="-3.158" cy="0" rx="3.116" ry="3.158" style="fill:none;stroke:rgb(254,191,15);stroke-width:1px;stroke-linecap:butt;"/>
        </g>
        <g transform="matrix(0,-1,-1,0,97.5674,192.238)">
            <ellipse cx="-3.158" cy="0" rx="3.116" ry="3.158" style="fill:none;stroke:rgb(254,191,15);stroke-width:1px;stroke-linecap:butt;"/>
        </g>
        <g transform="matrix(0,-1,-1,0,97.5674,181.555)">
            <ellipse cx="-3.158" cy="0" rx="3.116" ry="3.158" style="fill:none;stroke:rgb(254,191,15);stroke-width:1px;stroke-linecap:butt;"/>
        </g>
        <g transform="matrix(0,-1,-1,0,97.5674,170.873)">
            <ellipse cx="-3.158" cy="0" rx="3.116" ry="3.158" style="fill:none;stroke:rgb(254,191,15);stroke-width:1px;stroke-linecap:butt;"/>
        </g>
        <g transform="matrix(0,-1,-1,0,97.5674,160.191)">
            <ellipse cx="-3.158" cy="0" rx="3.116" ry="3.158" style="fill:none;stroke:rgb(254,191,15);stroke-width:1px;stroke-linecap:butt;"/>
        </g>
        <g transform="matrix(0,-1,-1,0,97.5674,149.509)">
            <ellipse cx="-3.158" cy="0" rx="3.116" ry="3.158" style="fill:none;stroke:rgb(254,191,15);stroke-width:1px;stroke-linecap:butt;"/>
        </g>
        <g transform="matrix(0,-1,-1,0,97.5674,138.826)">
            <ellipse cx="-3.158" cy="0" rx="3.116" ry="3.158" style="fill:none;stroke:rgb(254,191,15);stroke-width:1px;stroke-linecap:butt;"/>
        </g>
        <g transform="matrix(0,-1,-1,0,97.5674,128.144)">
            <ellipse cx="-3.158" cy="0" rx="3.116" ry="3.158" style="fill:none;stroke:rgb(254,191,15);stroke-width:1px;stroke-linecap:butt;"/>
        </g>
        <g transform="matrix(0,-1,-1,0,97.5674,117.462)">
            <ellipse cx="-3.158" cy="0" rx="3.116" ry="3.158" style="fill:none;stroke:rgb(254,191,15);stroke-width:1px;stroke-linecap:butt;"/>
        </g>
        <g transform="matrix(0,-1,-1,0,97.5674,106.78)">
            <ellipse cx="-3.158" cy="0" rx="3.116" ry="3.158" style="fill:none;stroke:rgb(254,191,15);stroke-width:1px;stroke-linecap:butt;"/>
        </g>
        <g transform="matrix(0,-1,-1,0,97.5674,96.0975)">
            <ellipse cx="-3.158" cy="0" rx="3.116" ry="3.158" style="fill:none;stroke:rgb(254,191,15);stroke-width:1px;stroke-linecap:butt;"/>
        </g>
        <g transform="matrix(0,-1,-1,0,97.5674,85.4152)">
            <ellipse cx="-3.158" cy="0" rx="3.116" ry="3.158" style="fill:none;stroke:rgb(254,191,15);stroke-width:1px;stroke-linecap:butt;"/>
        </g>
        <g transform="matrix(0,-1,-1,0,97.5674,74.733)">
            <ellipse cx="-3.158" cy="0" rx="3.116" ry="3.158" style="fill:none;stroke:rgb(254,191,15);stroke-width:1px;stroke-linecap:butt;"/>
        </g>
        <g transform="matrix(0,-1,-1,0,97.5674,64.0508)">
            <ellipse cx="-3.158" cy="0" rx="3.116" ry="3.158" style="fill:none;stroke:rgb(254,191,15);stroke-width:1px;stroke-linecap:butt;"/>
        </g>
        <g transform="matrix(0,-1,-1,0,97.5674,53.3685)">
            <ellipse cx="-3.158" cy="0" rx="3.116" ry="3.158" style="fill:none;stroke:rgb(254,191,15);stroke-width:1px;stroke-linecap:butt;"/>
        </g>
        <g transform="matrix(0,-1,-1,0,97.5674,42.6863)">
            <ellipse cx="-3.158" cy="0" rx="3.116" ry="3.158" style="fill:none;stroke:rgb(254,191,15);stroke-width:1px;stroke-linecap:butt;"/>
        </g>
        <g transform="matrix(0,-1,-1,0,97.5674,32.0041)">
            <ellipse cx="-3.158" cy="0" rx="3.116" ry="3.158" style="fill:none;stroke:rgb(254,191,15);stroke-width:1px;stroke-linecap:butt;"/>
        </g>
        <g transform="matrix(1,0,0,1,94.7105,40.5029)">
            <path d="M5.865,-10.682L-10.977,-10.682L-13.233,-8.308L-13.233,-2.225L-10.977,0L5.865,0L8.12,-2.225L8.12,-8.308L5.865,-10.682Z" style="fill:rgb(65,65,65);fill-rule:nonzero;"/>
        </g>
        <g transform="matrix(1,0,0,1,94.7105,40.5029)">
            <path d="M5.865,-10.682L-10.977,-10.682L-13.233,-8.308L-13.233,-2.225L-10.977,0L5.865,0L8.12,-2.225L8.12,-8.308L5.865,-10.682Z" style="fill:rgb(65,65,65);fill-rule:nonzero;"/>
        </g>
        <g transform="matrix(-1,0,0,1,195.135,-293.02)">
            <rect x="96.665" y="327.292" width="1.805" height="1.78" style="fill:rgb(141,134,100);"/>
        </g>
        <g transform="matrix(1,0,0,1,96.6653,33.5299)">
            <path d="M0,0.742L1.805,0.742L2.707,0L-0.752,0L0,0.742Z" style="fill:rgb(184,176,131);fill-rule:nonzero;"/>
        </g>
        <g transform="matrix(0.772276,-0.635287,-0.635287,-0.772276,97.9598,34.7781)">
            <path d="M0.715,0.067L1.883,0.067L-0.285,-2.569L-0.415,-1.308L0.715,0.067Z" style="fill:rgb(129,122,92);fill-rule:nonzero;"/>
        </g>
        <g transform="matrix(0.711826,0.702356,0.702356,-0.711826,98.544,36.7614)">
            <path d="M-0.551,0.453L0.716,0.453L-1.745,-1.976L-1.836,-0.815L-0.551,0.453Z" style="fill:rgb(95,92,68);fill-rule:nonzero;"/>
        </g>
        <g transform="matrix(-0.645403,0.763842,0.763842,0.645403,95.4233,34.9969)">
            <path d="M0.005,1.63L1.17,1.63L-1.436,-0.572L-1.355,0.481L0.005,1.63Z" style="fill:rgb(154,145,108);fill-rule:nonzero;"/>
        </g>
        <g transform="matrix(-1,0,0,1,173.481,-293.02)">
            <rect x="85.838" y="327.292" width="1.805" height="1.78" style="fill:rgb(141,134,100);"/>
        </g>
        <g transform="matrix(1,0,0,1,85.8384,33.5299)">
            <path d="M0,0.742L1.805,0.742L2.707,0L-0.752,0L0,0.742Z" style="fill:rgb(184,176,131);fill-rule:nonzero;"/>
        </g>
        <g transform="matrix(0.772276,-0.635287,-0.635287,-0.772276,87.1329,34.7781)">
            <path d="M0.715,0.067L1.883,0.067L-0.285,-2.569L-0.415,-1.308L0.715,0.067Z" style="fill:rgb(129,122,92);fill-rule:nonzero;"/>
        </g>
        <g transform="matrix(0.711826,0.702356,0.702356,-0.711826,87.7171,36.7614)">
            <path d="M-0.551,0.453L0.716,0.453L-1.745,-1.976L-1.836,-0.815L-0.551,0.453Z" style="fill:rgb(95,92,68);fill-rule:nonzero;"/>
        </g>
        <g transform="matrix(0.711824,0.702358,0.702358,-0.711824,86.3932,33.7576)">
            <path d="M-1.09,-0.756L-0.033,-0.756L1.217,-2.023L1.307,-3.184L-1.09,-0.756Z" style="fill:rgb(154,145,108);fill-rule:nonzero;"/>
        </g>
        <g transform="matrix(1,0,0,1,94.7105,51.1852)">
            <path d="M5.865,-10.682L-10.977,-10.682L-13.233,-8.308L-13.233,-2.225L-10.977,0L5.865,0L8.12,-2.225L8.12,-8.308L5.865,-10.682Z" style="fill:rgb(65,65,65);fill-rule:nonzero;"/>
        </g>
        <g transform="matrix(1,0,0,1,94.7105,51.1852)">
            <path d="M5.865,-10.682L-10.977,-10.682L-13.233,-8.308L-13.233,-2.225L-10.977,0L5.865,0L8.12,-2.225L8.12,-8.308L5.865,-10.682Z" style="fill:rgb(65,65,65);fill-rule:nonzero;"/>
        </g>
        <g transform="matrix(-1,0,0,1,195.135,-271.654)">
            <rect x="96.665" y="316.609" width="1.805" height="1.78" style="fill:rgb(141,134,100);"/>
        </g>
        <g transform="matrix(1,0,0,1,96.6653,44.2121)">
            <path d="M0,0.742L1.805,0.742L2.707,0L-0.752,0L0,0.742Z" style="fill:rgb(184,176,131);fill-rule:nonzero;"/>
        </g>
        <g transform="matrix(0.772276,-0.635287,-0.635287,-0.772276,97.9598,45.4603)">
            <path d="M0.715,0.067L1.883,0.067L-0.285,-2.569L-0.415,-1.308L0.715,0.067Z" style="fill:rgb(129,122,92);fill-rule:nonzero;"/>
        </g>
        <g transform="matrix(0.711826,0.702356,0.702356,-0.711826,98.544,47.4436)">
            <path d="M-0.551,0.453L0.716,0.453L-1.745,-1.976L-1.836,-0.815L-0.551,0.453Z" style="fill:rgb(95,92,68);fill-rule:nonzero;"/>
        </g>
        <g transform="matrix(-0.645403,0.763842,0.763842,0.645403,95.4233,45.6791)">
            <path d="M0.005,1.63L1.17,1.63L-1.436,-0.572L-1.355,0.481L0.005,1.63Z" style="fill:rgb(154,145,108);fill-rule:nonzero;"/>
        </g>
        <g transform="matrix(-1,0,0,1,173.481,-271.654)">
            <rect x="85.838" y="316.609" width="1.805" height="1.78" style="fill:rgb(141,134,100);"/>
        </g>
        <g transform="matrix(1,0,0,1,85.8384,44.2121)">
            <path d="M0,0.742L1.805,0.742L2.707,0L-0.752,0L0,0.742Z" style="fill:rgb(184,176,131);fill-rule:nonzero;"/>
        </g>
        <g transform="matrix(0.772276,-0.635287,-0.635287,-0.772276,87.1329,45.4603)">
            <path d="M0.715,0.067L1.883,0.067L-0.285,-2.569L-0.415,-1.308L0.715,0.067Z" style="fill:rgb(129,122,92);fill-rule:nonzero;"/>
        </g>
        <g transform="matrix(0.711826,0.702356,0.702356,-0.711826,87.7171,47.4436)">
            <path d="M-0.551,0.453L0.716,0.453L-1.745,-1.976L-1.836,-0.815L-0.551,0.453Z" style="fill:rgb(95,92,68);fill-rule:nonzero;"/>
        </g>
        <g transform="matrix(0.711824,0.702358,0.702358,-0.711824,86.3932,44.4398)">
            <path d="M-1.09,-0.756L-0.033,-0.756L1.217,-2.023L1.307,-3.184L-1.09,-0.756Z" style="fill:rgb(154,145,108);fill-rule:nonzero;"/>
        </g>
        <g transform="matrix(1,0,0,1,94.7105,61.8674)">
            <path d="M5.865,-10.682L-10.977,-10.682L-13.233,-8.308L-13.233,-2.225L-10.977,0L5.865,0L8.12,-2.225L8.12,-8.308L5.865,-10.682Z" style="fill:rgb(65,65,65);fill-rule:nonzero;"/>
        </g>
        <g transform="matrix(1,0,0,1,94.7105,61.8674)">
            <path d="M5.865,-10.682L-10.977,-10.682L-13.233,-8.308L-13.233,-2.225L-10.977,0L5.865,0L8.12,-2.225L8.12,-8.308L5.865,-10.682Z" style="fill:rgb(65,65,65);fill-rule:nonzero;"/>
        </g>
        <g transform="matrix(-1,0,0,1,195.135,-250.29)">
            <rect x="96.665" y="305.927" width="1.805" height="1.78" style="fill:rgb(141,134,100);"/>
        </g>
        <g transform="matrix(1,0,0,1,96.6653,54.8943)">
            <path d="M0,0.742L1.805,0.742L2.707,0L-0.752,0L0,0.742Z" style="fill:rgb(184,176,131);fill-rule:nonzero;"/>
        </g>
        <g transform="matrix(0.772276,-0.635287,-0.635287,-0.772276,97.9598,56.1425)">
            <path d="M0.715,0.067L1.883,0.067L-0.285,-2.569L-0.415,-1.308L0.715,0.067Z" style="fill:rgb(129,122,92);fill-rule:nonzero;"/>
        </g>
        <g transform="matrix(0.711826,0.702356,0.702356,-0.711826,98.544,58.1258)">
            <path d="M-0.551,0.453L0.716,0.453L-1.745,-1.976L-1.836,-0.815L-0.551,0.453Z" style="fill:rgb(95,92,68);fill-rule:nonzero;"/>
        </g>
        <g transform="matrix(-0.645403,0.763842,0.763842,0.645403,95.4233,56.3613)">
            <path d="M0.005,1.63L1.17,1.63L-1.436,-0.572L-1.355,0.481L0.005,1.63Z" style="fill:rgb(154,145,108);fill-rule:nonzero;"/>
        </g>
        <g transform="matrix(-1,0,0,1,173.481,-250.29)">
            <rect x="85.838" y="305.927" width="1.805" height="1.78" style="fill:rgb(141,134,100);"/>
        </g>
        <g transform="matrix(1,0,0,1,85.8384,54.8943)">
            <path d="M0,0.742L1.805,0.742L2.707,0L-0.752,0L0,0.742Z" style="fill:rgb(184,176,131);fill-rule:nonzero;"/>
        </g>
        <g transform="matrix(0.772276,-0.635287,-0.635287,-0.772276,87.1329,56.1425)">
            <path d="M0.715,0.067L1.883,0.067L-0.285,-2.569L-0.415,-1.308L0.715,0.067Z" style="fill:rgb(129,122,92);fill-rule:nonzero;"/>
        </g>
        <g transform="matrix(0.711826,0.702356,0.702356,-0.711826,87.7171,58.1258)">
            <path d="M-0.551,0.453L0.716,0.453L-1.745,-1.976L-1.836,-0.815L-0.551,0.453Z" style="fill:rgb(95,92,68);fill-rule:nonzero;"/>
        </g>
        <g transform="matrix(0.711824,0.702358,0.702358,-0.711824,86.3932,55.122)">
            <path d="M-1.09,-0.756L-0.033,-0.756L1.217,-2.023L1.307,-3.184L-1.09,-0.756Z" style="fill:rgb(154,145,108);fill-rule:nonzero;"/>
        </g>
        <g transform="matrix(1,0,0,1,94.7105,72.5496)">
            <path d="M5.865,-10.682L-10.977,-10.682L-13.233,-8.308L-13.233,-2.225L-10.977,0L5.865,0L8.12,-2.225L8.12,-8.308L5.865,-10.682Z" style="fill:rgb(65,65,65);fill-rule:nonzero;"/>
        </g>
        <g transform="matrix(1,0,0,1,94.7105,72.5496)">
            <path d="M5.865,-10.682L-10.977,-10.682L-13.233,-8.308L-13.233,-2.225L-10.977,0L5.865,0L8.12,-2.225L8.12,-8.308L5.865,-10.682Z" style="fill:rgb(65,65,65);fill-rule:nonzero;"/>
        </g>
        <g transform="matrix(-1,0,0,1,195.135,-228.926)">
            <rect x="96.665" y="295.245" width="1.805" height="1.78" style="fill:rgb(141,134,100);"/>
        </g>
        <g transform="matrix(1,0,0,1,96.6653,65.5766)">
            <path d="M0,0.742L1.805,0.742L2.707,0L-0.752,0L0,0.742Z" style="fill:rgb(184,176,131);fill-rule:nonzero;"/>
        </g>
        <g transform="matrix(0.772276,-0.635287,-0.635287,-0.772276,97.9598,66.8248)">
            <path d="M0.715,0.067L1.883,0.067L-0.285,-2.569L-0.415,-1.308L0.715,0.067Z" style="fill:rgb(129,122,92);fill-rule:nonzero;"/>
        </g>
        <g transform="matrix(0.711826,0.702356,0.702356,-0.711826,98.544,68.808)">
            <path d="M-0.551,0.453L0.716,0.453L-1.745,-1.976L-1.836,-0.815L-0.551,0.453Z" style="fill:rgb(95,92,68);fill-rule:nonzero;"/>
        </g>
        <g transform="matrix(-0.645403,0.763842,0.763842,0.645403,95.4233,67.0435)">
            <path d="M0.005,1.63L1.17,1.63L-1.436,-0.572L-1.355,0.481L0.005,1.63Z" style="fill:rgb(154,145,108);fill-rule:nonzero;"/>
        </g>
        <g transform="matrix(-1,0,0,1,173.481,-228.926)">
            <rect x="85.838" y="295.245" width="1.805" height="1.78" style="fill:rgb(141,134,100);"/>
        </g>
        <g transform="matrix(1,0,0,1,85.8384,65.5766)">
            <path d="M0,0.742L1.805,0.742L2.707,0L-0.752,0L0,0.742Z" style="fill:rgb(184,176,131);fill-rule:nonzero;"/>
        </g>
        <g transform="matrix(0.772276,-0.635287,-0.635287,-0.772276,87.1329,66.8248)">
            <path d="M0.715,0.067L1.883,0.067L-0.285,-2.569L-0.415,-1.308L0.715,0.067Z" style="fill:rgb(129,122,92);fill-rule:nonzero;"/>
        </g>
        <g transform="matrix(0.711826,0.702356,0.702356,-0.711826,87.7171,68.808)">
            <path d="M-0.551,0.453L0.716,0.453L-1.745,-1.976L-1.836,-0.815L-0.551,0.453Z" style="fill:rgb(95,92,68);fill-rule:nonzero;"/>
        </g>
        <g transform="matrix(0.711824,0.702358,0.702358,-0.711824,86.3932,65.8043)">
            <path d="M-1.09,-0.756L-0.033,-0.756L1.217,-2.023L1.307,-3.184L-1.09,-0.756Z" style="fill:rgb(154,145,108);fill-rule:nonzero;"/>
        </g>
        <g transform="matrix(1,0,0,1,94.7105,83.2319)">
            <path d="M5.865,-10.682L-10.977,-10.682L-13.233,-8.308L-13.233,-2.225L-10.977,0L5.865,0L8.12,-2.225L8.12,-8.308L5.865,-10.682Z" style="fill:rgb(65,65,65);fill-rule:nonzero;"/>
        </g>
        <g transform="matrix(1,0,0,1,94.7105,83.2319)">
            <path d="M5.865,-10.682L-10.977,-10.682L-13.233,-8.308L-13.233,-2.225L-10.977,0L5.865,0L8.12,-2.225L8.12,-8.308L5.865,-10.682Z" style="fill:rgb(65,65,65);fill-rule:nonzero;"/>
        </g>
        <g transform="matrix(-1,0,0,1,195.135,-207.562)">
            <rect x="96.665" y="284.563" width="1.805" height="1.78" style="fill:rgb(141,134,100);"/>
        </g>
        <g transform="matrix(1,0,0,1,96.6653,76.2588)">
            <path d="M0,0.742L1.805,0.742L2.707,0L-0.752,0L0,0.742Z" style="fill:rgb(184,176,131);fill-rule:nonzero;"/>
        </g>
        <g transform="matrix(0.772276,-0.635287,-0.635287,-0.772276,97.9598,77.507)">
            <path d="M0.715,0.067L1.883,0.067L-0.285,-2.569L-0.415,-1.308L0.715,0.067Z" style="fill:rgb(129,122,92);fill-rule:nonzero;"/>
        </g>
        <g transform="matrix(0.711826,0.702356,0.702356,-0.711826,98.544,79.4903)">
            <path d="M-0.551,0.453L0.716,0.453L-1.745,-1.976L-1.836,-0.815L-0.551,0.453Z" style="fill:rgb(95,92,68);fill-rule:nonzero;"/>
        </g>
        <g transform="matrix(-0.645403,0.763842,0.763842,0.645403,95.4233,77.7258)">
            <path d="M0.005,1.63L1.17,1.63L-1.436,-0.572L-1.355,0.481L0.005,1.63Z" style="fill:rgb(154,145,108);fill-rule:nonzero;"/>
        </g>
        <g transform="matrix(-1,0,0,1,173.481,-207.562)">
            <rect x="85.838" y="284.563" width="1.805" height="1.78" style="fill:rgb(141,134,100);"/>
        </g>
        <g transform="matrix(1,0,0,1,85.8384,76.2588)">
            <path d="M0,0.742L1.805,0.742L2.707,0L-0.752,0L0,0.742Z" style="fill:rgb(184,176,131);fill-rule:nonzero;"/>
        </g>
        <g transform="matrix(0.772276,-0.635287,-0.635287,-0.772276,87.1329,77.507)">
            <path d="M0.715,0.067L1.883,0.067L-0.285,-2.569L-0.415,-1.308L0.715,0.067Z" style="fill:rgb(129,122,92);fill-rule:nonzero;"/>
        </g>
        <g transform="matrix(0.711826,0.702356,0.702356,-0.711826,87.7171,79.4903)">
            <path d="M-0.551,0.453L0.716,0.453L-1.745,-1.976L-1.836,-0.815L-0.551,0.453Z" style="fill:rgb(95,92,68);fill-rule:nonzero;"/>
        </g>
        <g transform="matrix(0.711824,0.702358,0.702358,-0.711824,86.3932,76.4865)">
            <path d="M-1.09,-0.756L-0.033,-0.756L1.217,-2.023L1.307,-3.184L-1.09,-0.756Z" style="fill:rgb(154,145,108);fill-rule:nonzero;"/>
        </g>
        <g transform="matrix(1,0,0,1,94.7105,93.9141)">
            <path d="M5.865,-10.682L-10.977,-10.682L-13.233,-8.308L-13.233,-2.225L-10.977,0L5.865,0L8.12,-2.225L8.12,-8.308L5.865,-10.682Z" style="fill:rgb(65,65,65);fill-rule:nonzero;"/>
        </g>
        <g transform="matrix(1,0,0,1,94.7105,93.9141)">
            <path d="M5.865,-10.682L-10.977,-10.682L-13.233,-8.308L-13.233,-2.225L-10.977,0L5.865,0L8.12,-2.225L8.12,-8.308L5.865,-10.682Z" style="fill:rgb(65,65,65);fill-rule:nonzero;"/>
        </g>
        <g transform="matrix(-1,0,0,1,195.135,-186.198)">
            <rect x="96.665" y="273.881" width="1.805" height="1.78" style="fill:rgb(141,134,100);"/>
        </g>
        <g transform="matrix(1,0,0,1,96.6653,86.941)">
            <path d="M0,0.742L1.805,0.742L2.707,0L-0.752,0L0,0.742Z" style="fill:rgb(184,176,131);fill-rule:nonzero;"/>
        </g>
        <g transform="matrix(0.772276,-0.635287,-0.635287,-0.772276,97.9598,88.1892)">
            <path d="M0.715,0.067L1.883,0.067L-0.285,-2.569L-0.415,-1.308L0.715,0.067Z" style="fill:rgb(129,122,92);fill-rule:nonzero;"/>
        </g>
        <g transform="matrix(0.711826,0.702356,0.702356,-0.711826,98.544,90.1725)">
            <path d="M-0.551,0.453L0.716,0.453L-1.745,-1.976L-1.836,-0.815L-0.551,0.453Z" style="fill:rgb(95,92,68);fill-rule:nonzero;"/>
        </g>
        <g transform="matrix(-0.645403,0.763842,0.763842,0.645403,95.4233,88.408)">
            <path d="M0.005,1.63L1.17,1.63L-1.436,-0.572L-1.355,0.481L0.005,1.63Z" style="fill:rgb(154,145,108);fill-rule:nonzero;"/>
        </g>
        <g transform="matrix(-1,0,0,1,173.481,-186.198)">
            <rect x="85.838" y="273.881" width="1.805" height="1.78" style="fill:rgb(141,134,100);"/>
        </g>
        <g transform="matrix(1,0,0,1,85.8384,86.941)">
            <path d="M0,0.742L1.805,0.742L2.707,0L-0.752,0L0,0.742Z" style="fill:rgb(184,176,131);fill-rule:nonzero;"/>
        </g>
        <g transform="matrix(0.772276,-0.635287,-0.635287,-0.772276,87.1329,88.1892)">
            <path d="M0.715,0.067L1.883,0.067L-0.285,-2.569L-0.415,-1.308L0.715,0.067Z" style="fill:rgb(129,122,92);fill-rule:nonzero;"/>
        </g>
        <g transform="matrix(0.711826,0.702356,0.702356,-0.711826,87.7171,90.1725)">
            <path d="M-0.551,0.453L0.716,0.453L-1.745,-1.976L-1.836,-0.815L-0.551,0.453Z" style="fill:rgb(95,92,68);fill-rule:nonzero;"/>
        </g>
        <g transform="matrix(0.711824,0.702358,0.702358,-0.711824,86.3932,87.1687)">
            <path d="M-1.09,-0.756L-0.033,-0.756L1.217,-2.023L1.307,-3.184L-1.09,-0.756Z" style="fill:rgb(154,145,108);fill-rule:nonzero;"/>
        </g>
        <g transform="matrix(1,0,0,1,94.7105,104.596)">
            <path d="M5.865,-10.682L-10.977,-10.682L-13.233,-8.308L-13.233,-2.225L-10.977,0L5.865,0L8.12,-2.225L8.12,-8.308L5.865,-10.682Z" style="fill:rgb(65,65,65);fill-rule:nonzero;"/>
        </g>
        <g transform="matrix(1,0,0,1,94.7105,104.596)">
            <path d="M5.865,-10.682L-10.977,-10.682L-13.233,-8.308L-13.233,-2.225L-10.977,0L5.865,0L8.12,-2.225L8.12,-8.308L5.865,-10.682Z" style="fill:rgb(65,65,65);fill-rule:nonzero;"/>
        </g>
        <g transform="matrix(-1,0,0,1,195.135,-164.832)">
            <rect x="96.665" y="263.198" width="1.805" height="1.78" style="fill:rgb(141,134,100);"/>
        </g>
        <g transform="matrix(1,0,0,1,96.6653,97.6233)">
            <path d="M0,0.742L1.805,0.742L2.707,0L-0.752,0L0,0.742Z" style="fill:rgb(184,176,131);fill-rule:nonzero;"/>
        </g>
        <g transform="matrix(0.772276,-0.635287,-0.635287,-0.772276,97.9598,98.8715)">
            <path d="M0.715,0.067L1.883,0.067L-0.285,-2.569L-0.415,-1.308L0.715,0.067Z" style="fill:rgb(129,122,92);fill-rule:nonzero;"/>
        </g>
        <g transform="matrix(0.711826,0.702356,0.702356,-0.711826,98.544,100.855)">
            <path d="M-0.551,0.453L0.716,0.453L-1.745,-1.976L-1.836,-0.815L-0.551,0.453Z" style="fill:rgb(95,92,68);fill-rule:nonzero;"/>
        </g>
        <g transform="matrix(-0.645403,0.763842,0.763842,0.645403,95.4233,99.0902)">
            <path d="M0.005,1.63L1.17,1.63L-1.436,-0.572L-1.355,0.481L0.005,1.63Z" style="fill:rgb(154,145,108);fill-rule:nonzero;"/>
        </g>
        <g transform="matrix(-1,0,0,1,173.481,-164.832)">
            <rect x="85.838" y="263.198" width="1.805" height="1.78" style="fill:rgb(141,134,100);"/>
        </g>
        <g transform="matrix(1,0,0,1,85.8384,97.6233)">
            <path d="M0,0.742L1.805,0.742L2.707,0L-0.752,0L0,0.742Z" style="fill:rgb(184,176,131);fill-rule:nonzero;"/>
        </g>
        <g transform="matrix(0.772276,-0.635287,-0.635287,-0.772276,87.1329,98.8715)">
            <path d="M0.715,0.067L1.883,0.067L-0.285,-2.569L-0.415,-1.308L0.715,0.067Z" style="fill:rgb(129,122,92);fill-rule:nonzero;"/>
        </g>
        <g transform="matrix(0.711826,0.702356,0.702356,-0.711826,87.7171,100.855)">
            <path d="M-0.551,0.453L0.716,0.453L-1.745,-1.976L-1.836,-0.815L-0.551,0.453Z" style="fill:rgb(95,92,68);fill-rule:nonzero;"/>
        </g>
        <g transform="matrix(0.711824,0.702358,0.702358,-0.711824,86.3932,97.8509)">
            <path d="M-1.09,-0.756L-0.033,-0.756L1.217,-2.023L1.307,-3.184L-1.09,-0.756Z" style="fill:rgb(154,145,108);fill-rule:nonzero;"/>
        </g>
        <g transform="matrix(1,0,0,1,94.7105,115.279)">
            <path d="M5.865,-10.682L-10.977,-10.682L-13.233,-8.308L-13.233,-2.225L-10.977,0L5.865,0L8.12,-2.225L8.12,-8.308L5.865,-10.682Z" style="fill:rgb(65,65,65);fill-rule:nonzero;"/>
        </g>
        <g transform="matrix(1,0,0,1,94.7105,115.279)">
            <path d="M5.865,-10.682L-10.977,-10.682L-13.233,-8.308L-13.233,-2.225L-10.977,0L5.865,0L8.12,-2.225L8.12,-8.308L5.865,-10.682Z" style="fill:rgb(65,65,65);fill-rule:nonzero;"/>
        </g>
        <g transform="matrix(-1,0,0,1,195.135,-143.468)">
            <rect x="96.665" y="252.516" width="1.805" height="1.78" style="fill:rgb(141,134,100);"/>
        </g>
        <g transform="matrix(1,0,0,1,96.6653,108.306)">
            <path d="M0,0.742L1.805,0.742L2.707,0L-0.752,0L0,0.742Z" style="fill:rgb(184,176,131);fill-rule:nonzero;"/>
        </g>
        <g transform="matrix(0.772276,-0.635287,-0.635287,-0.772276,97.9598,109.554)">
            <path d="M0.715,0.067L1.883,0.067L-0.285,-2.569L-0.415,-1.308L0.715,0.067Z" style="fill:rgb(129,122,92);fill-rule:nonzero;"/>
        </g>
        <g transform="matrix(0.711826,0.702356,0.702356,-0.711826,98.544,111.537)">
            <path d="M-0.551,0.453L0.716,0.453L-1.745,-1.976L-1.836,-0.815L-0.551,0.453Z" style="fill:rgb(95,92,68);fill-rule:nonzero;"/>
        </g>
        <g transform="matrix(-0.645403,0.763842,0.763842,0.645403,95.4233,109.772)">
            <path d="M0.005,1.63L1.17,1.63L-1.436,-0.572L-1.355,0.481L0.005,1.63Z" style="fill:rgb(154,145,108);fill-rule:nonzero;"/>
        </g>
        <g transform="matrix(-1,0,0,1,173.481,-143.468)">
            <rect x="85.838" y="252.516" width="1.805" height="1.78" style="fill:rgb(141,134,100);"/>
        </g>
        <g transform="matrix(1,0,0,1,85.8384,108.306)">
            <path d="M0,0.742L1.805,0.742L2.707,0L-0.752,0L0,0.742Z" style="fill:rgb(184,176,131);fill-rule:nonzero;"/>
        </g>
        <g transform="matrix(0.772276,-0.635287,-0.635287,-0.772276,87.1329,109.554)">
            <path d="M0.715,0.067L1.883,0.067L-0.285,-2.569L-0.415,-1.308L0.715,0.067Z" style="fill:rgb(129,122,92);fill-rule:nonzero;"/>
        </g>
        <g transform="matrix(0.711826,0.702356,0.702356,-0.711826,87.7171,111.537)">
            <path d="M-0.551,0.453L0.716,0.453L-1.745,-1.976L-1.836,-0.815L-0.551,0.453Z" style="fill:rgb(95,92,68);fill-rule:nonzero;"/>
        </g>
        <g transform="matrix(0.711824,0.702358,0.702358,-0.711824,86.3932,108.533)">
            <path d="M-1.09,-0.756L-0.033,-0.756L1.217,-2.023L1.307,-3.184L-1.09,-0.756Z" style="fill:rgb(154,145,108);fill-rule:nonzero;"/>
        </g>
        <g transform="matrix(1,0,0,1,94.7105,125.961)">
            <path d="M5.865,-10.682L-10.977,-10.682L-13.233,-8.308L-13.233,-2.225L-10.977,0L5.865,0L8.12,-2.225L8.12,-8.308L5.865,-10.682Z" style="fill:rgb(65,65,65);fill-rule:nonzero;"/>
        </g>
        <g transform="matrix(1,0,0,1,94.7105,125.961)">
            <path d="M5.865,-10.682L-10.977,-10.682L-13.233,-8.308L-13.233,-2.225L-10.977,0L5.865,0L8.12,-2.225L8.12,-8.308L5.865,-10.682Z" style="fill:rgb(65,65,65);fill-rule:nonzero;"/>
        </g>
        <g transform="matrix(-1,0,0,1,195.135,-122.104)">
            <rect x="96.665" y="241.834" width="1.805" height="1.78" style="fill:rgb(141,134,100);"/>
        </g>
        <g transform="matrix(1,0,0,1,96.6653,118.988)">
            <path d="M0,0.742L1.805,0.742L2.707,0L-0.752,0L0,0.742Z" style="fill:rgb(184,176,131);fill-rule:nonzero;"/>
        </g>
        <g transform="matrix(0.772276,-0.635287,-0.635287,-0.772276,97.9598,120.236)">
            <path d="M0.715,0.067L1.883,0.067L-0.285,-2.569L-0.415,-1.308L0.715,0.067Z" style="fill:rgb(129,122,92);fill-rule:nonzero;"/>
        </g>
        <g transform="matrix(0.711826,0.702356,0.702356,-0.711826,98.544,122.219)">
            <path d="M-0.551,0.453L0.716,0.453L-1.745,-1.976L-1.836,-0.815L-0.551,0.453Z" style="fill:rgb(95,92,68);fill-rule:nonzero;"/>
        </g>
        <g transform="matrix(-0.645403,0.763842,0.763842,0.645403,95.4233,120.455)">
            <path d="M0.005,1.63L1.17,1.63L-1.436,-0.572L-1.355,0.481L0.005,1.63Z" style="fill:rgb(154,145,108);fill-rule:nonzero;"/>
        </g>
        <g transform="matrix(-1,0,0,1,173.481,-122.104)">
            <rect x="85.838" y="241.834" width="1.805" height="1.78" style="fill:rgb(141,134,100);"/>
        </g>
        <g transform="matrix(1,0,0,1,85.8384,118.988)">
            <path d="M0,0.742L1.805,0.742L2.707,0L-0.752,0L0,0.742Z" style="fill:rgb(184,176,131);fill-rule:nonzero;"/>
        </g>
        <g transform="matrix(0.772276,-0.635287,-0.635287,-0.772276,87.1329,120.236)">
            <path d="M0.715,0.067L1.883,0.067L-0.285,-2.569L-0.415,-1.308L0.715,0.067Z" style="fill:rgb(129,122,92);fill-rule:nonzero;"/>
        </g>
        <g transform="matrix(0.711826,0.702356,0.702356,-0.711826,87.7171,122.219)">
            <path d="M-0.551,0.453L0.716,0.453L-1.745,-1.976L-1.836,-0.815L-0.551,0.453Z" style="fill:rgb(95,92,68);fill-rule:nonzero;"/>
        </g>
        <g transform="matrix(0.711824,0.702358,0.702358,-0.711824,86.3932,119.215)">
            <path d="M-1.09,-0.756L-0.033,-0.756L1.217,-2.023L1.307,-3.184L-1.09,-0.756Z" style="fill:rgb(154,145,108);fill-rule:nonzero;"/>
        </g>
        <g transform="matrix(1,0,0,1,94.7105,136.643)">
            <path d="M5.865,-10.682L-10.977,-10.682L-13.233,-8.308L-13.233,-2.225L-10.977,0L5.865,0L8.12,-2.225L8.12,-8.308L5.865,-10.682Z" style="fill:rgb(65,65,65);fill-rule:nonzero;"/>
        </g>
        <g transform="matrix(1,0,0,1,94.7105,136.643)">
            <path d="M5.865,-10.682L-10.977,-10.682L-13.233,-8.308L-13.233,-2.225L-10.977,0L5.865,0L8.12,-2.225L8.12,-8.308L5.865,-10.682Z" style="fill:rgb(65,65,65);fill-rule:nonzero;"/>
        </g>
        <g transform="matrix(-1,0,0,1,195.135,-100.74)">
            <rect x="96.665" y="231.152" width="1.805" height="1.78" style="fill:rgb(141,134,100);"/>
        </g>
        <g transform="matrix(1,0,0,1,96.6653,129.67)">
            <path d="M0,0.742L1.805,0.742L2.707,0L-0.752,0L0,0.742Z" style="fill:rgb(184,176,131);fill-rule:nonzero;"/>
        </g>
        <g transform="matrix(0.772276,-0.635287,-0.635287,-0.772276,97.9598,130.918)">
            <path d="M0.715,0.067L1.883,0.067L-0.285,-2.569L-0.415,-1.308L0.715,0.067Z" style="fill:rgb(129,122,92);fill-rule:nonzero;"/>
        </g>
        <g transform="matrix(0.711826,0.702356,0.702356,-0.711826,98.544,132.901)">
            <path d="M-0.551,0.453L0.716,0.453L-1.745,-1.976L-1.836,-0.815L-0.551,0.453Z" style="fill:rgb(95,92,68);fill-rule:nonzero;"/>
        </g>
        <g transform="matrix(-0.645403,0.763842,0.763842,0.645403,95.4233,131.137)">
            <path d="M0.005,1.63L1.17,1.63L-1.436,-0.572L-1.355,0.481L0.005,1.63Z" style="fill:rgb(154,145,108);fill-rule:nonzero;"/>
        </g>
        <g transform="matrix(-1,0,0,1,173.481,-100.74)">
            <rect x="85.838" y="231.152" width="1.805" height="1.78" style="fill:rgb(141,134,100);"/>
        </g>
        <g transform="matrix(1,0,0,1,85.8384,129.67)">
            <path d="M0,0.742L1.805,0.742L2.707,0L-0.752,0L0,0.742Z" style="fill:rgb(184,176,131);fill-rule:nonzero;"/>
        </g>
        <g transform="matrix(0.772276,-0.635287,-0.635287,-0.772276,87.1329,130.918)">
            <path d="M0.715,0.067L1.883,0.067L-0.285,-2.569L-0.415,-1.308L0.715,0.067Z" style="fill:rgb(129,122,92);fill-rule:nonzero;"/>
        </g>
        <g transform="matrix(0.711826,0.702356,0.702356,-0.711826,87.7171,132.901)">
            <path d="M-0.551,0.453L0.716,0.453L-1.745,-1.976L-1.836,-0.815L-0.551,0.453Z" style="fill:rgb(95,92,68);fill-rule:nonzero;"/>
        </g>
        <g transform="matrix(0.711824,0.702358,0.702358,-0.711824,86.3932,129.898)">
            <path d="M-1.09,-0.756L-0.033,-0.756L1.217,-2.023L1.307,-3.184L-1.09,-0.756Z" style="fill:rgb(154,145,108);fill-rule:nonzero;"/>
        </g>
        <g transform="matrix(1,0,0,1,94.7105,147.325)">
            <path d="M5.865,-10.682L-10.977,-10.682L-13.233,-8.308L-13.233,-2.225L-10.977,0L5.865,0L8.12,-2.225L8.12,-8.308L5.865,-10.682Z" style="fill:rgb(65,65,65);fill-rule:nonzero;"/>
        </g>
        <g transform="matrix(1,0,0,1,94.7105,147.325)">
            <path d="M5.865,-10.682L-10.977,-10.682L-13.233,-8.308L-13.233,-2.225L-10.977,0L5.865,0L8.12,-2.225L8.12,-8.308L5.865,-10.682Z" style="fill:rgb(65,65,65);fill-rule:nonzero;"/>
        </g>
        <g transform="matrix(-1,0,0,1,195.135,-79.374)">
            <rect x="96.665" y="220.469" width="1.805" height="1.78" style="fill:rgb(141,134,100);"/>
        </g>
        <g transform="matrix(1,0,0,1,96.6653,140.352)">
            <path d="M0,0.742L1.805,0.742L2.707,0L-0.752,0L0,0.742Z" style="fill:rgb(184,176,131);fill-rule:nonzero;"/>
        </g>
        <g transform="matrix(0.772276,-0.635287,-0.635287,-0.772276,97.9598,141.6)">
            <path d="M0.715,0.067L1.883,0.067L-0.285,-2.569L-0.415,-1.308L0.715,0.067Z" style="fill:rgb(129,122,92);fill-rule:nonzero;"/>
        </g>
        <g transform="matrix(0.711826,0.702356,0.702356,-0.711826,98.544,143.584)">
            <path d="M-0.551,0.453L0.716,0.453L-1.745,-1.976L-1.836,-0.815L-0.551,0.453Z" style="fill:rgb(95,92,68);fill-rule:nonzero;"/>
        </g>
        <g transform="matrix(-0.645403,0.763842,0.763842,0.645403,95.4233,141.819)">
            <path d="M0.005,1.63L1.17,1.63L-1.436,-0.572L-1.355,0.481L0.005,1.63Z" style="fill:rgb(154,145,108);fill-rule:nonzero;"/>
        </g>
        <g transform="matrix(-1,0,0,1,173.481,-79.374)">
            <rect x="85.838" y="220.469" width="1.805" height="1.78" style="fill:rgb(141,134,100);"/>
        </g>
        <g transform="matrix(1,0,0,1,85.8384,140.352)">
            <path d="M0,0.742L1.805,0.742L2.707,0L-0.752,0L0,0.742Z" style="fill:rgb(184,176,131);fill-rule:nonzero;"/>
        </g>
        <g transform="matrix(0.772276,-0.635287,-0.635287,-0.772276,87.1329,141.6)">
            <path d="M0.715,0.067L1.883,0.067L-0.285,-2.569L-0.415,-1.308L0.715,0.067Z" style="fill:rgb(129,122,92);fill-rule:nonzero;"/>
        </g>
        <g transform="matrix(0.711826,0.702356,0.702356,-0.711826,87.7171,143.584)">
            <path d="M-0.551,0.453L0.716,0.453L-1.745,-1.976L-1.836,-0.815L-0.551,0.453Z" style="fill:rgb(95,92,68);fill-rule:nonzero;"/>
        </g>
        <g transform="matrix(0.711824,0.702358,0.702358,-0.711824,86.3932,140.58)">
            <path d="M-1.09,-0.756L-0.033,-0.756L1.217,-2.023L1.307,-3.184L-1.09,-0.756Z" style="fill:rgb(154,145,108);fill-rule:nonzero;"/>
        </g>
        <g transform="matrix(1,0,0,1,94.7105,158.008)">
            <path d="M5.865,-10.682L-10.977,-10.682L-13.233,-8.308L-13.233,-2.225L-10.977,0L5.865,0L8.12,-2.225L8.12,-8.308L5.865,-10.682Z" style="fill:rgb(65,65,65);fill-rule:nonzero;"/>
        </g>
        <g transform="matrix(1,0,0,1,94.7105,158.008)">
            <path d="M5.865,-10.682L-10.977,-10.682L-13.233,-8.308L-13.233,-2.225L-10.977,0L5.865,0L8.12,-2.225L8.12,-8.308L5.865,-10.682Z" style="fill:rgb(65,65,65);fill-rule:nonzero;"/>
        </g>
        <g transform="matrix(-1,0,0,1,195.135,-58.01)">
            <rect x="96.665" y="209.787" width="1.805" height="1.78" style="fill:rgb(141,134,100);"/>
        </g>
        <g transform="matrix(1,0,0,1,96.6653,151.034)">
            <path d="M0,0.742L1.805,0.742L2.707,0L-0.752,0L0,0.742Z" style="fill:rgb(184,176,131);fill-rule:nonzero;"/>
        </g>
        <g transform="matrix(0.772276,-0.635287,-0.635287,-0.772276,97.9598,152.283)">
            <path d="M0.715,0.067L1.883,0.067L-0.285,-2.569L-0.415,-1.308L0.715,0.067Z" style="fill:rgb(129,122,92);fill-rule:nonzero;"/>
        </g>
        <g transform="matrix(0.711826,0.702356,0.702356,-0.711826,98.544,154.266)">
            <path d="M-0.551,0.453L0.716,0.453L-1.745,-1.976L-1.836,-0.815L-0.551,0.453Z" style="fill:rgb(95,92,68);fill-rule:nonzero;"/>
        </g>
        <g transform="matrix(-0.645403,0.763842,0.763842,0.645403,95.4233,152.501)">
            <path d="M0.005,1.63L1.17,1.63L-1.436,-0.572L-1.355,0.481L0.005,1.63Z" style="fill:rgb(154,145,108);fill-rule:nonzero;"/>
        </g>
        <g transform="matrix(-1,0,0,1,173.481,-58.01)">
            <rect x="85.838" y="209.787" width="1.805" height="1.78" style="fill:rgb(141,134,100);"/>
        </g>
        <g transform="matrix(1,0,0,1,85.8384,151.034)">
            <path d="M0,0.742L1.805,0.742L2.707,0L-0.752,0L0,0.742Z" style="fill:rgb(184,176,131);fill-rule:nonzero;"/>
        </g>
        <g transform="matrix(0.772276,-0.635287,-0.635287,-0.772276,87.1329,152.283)">
            <path d="M0.715,0.067L1.883,0.067L-0.285,-2.569L-0.415,-1.308L0.715,0.067Z" style="fill:rgb(129,122,92);fill-rule:nonzero;"/>
        </g>
        <g transform="matrix(0.711826,0.702356,0.702356,-0.711826,87.7171,154.266)">
            <path d="M-0.551,0.453L0.716,0.453L-1.745,-1.976L-1.836,-0.815L-0.551,0.453Z" style="fill:rgb(95,92,68);fill-rule:nonzero;"/>
        </g>
        <g transform="matrix(0.711824,0.702358,0.702358,-0.711824,86.3932,151.262)">
            <path d="M-1.09,-0.756L-0.033,-0.756L1.217,-2.023L1.307,-3.184L-1.09,-0.756Z" style="fill:rgb(154,145,108);fill-rule:nonzero;"/>
        </g>
        <g transform="matrix(1,0,0,1,94.7105,168.69)">
            <path d="M5.865,-10.682L-10.977,-10.682L-13.233,-8.308L-13.233,-2.225L-10.977,0L5.865,0L8.12,-2.225L8.12,-8.308L5.865,-10.682Z" style="fill:rgb(65,65,65);fill-rule:nonzero;"/>
        </g>
        <g transform="matrix(1,0,0,1,94.7105,168.69)">
            <path d="M5.865,-10.682L-10.977,-10.682L-13.233,-8.308L-13.233,-2.225L-10.977,0L5.865,0L8.12,-2.225L8.12,-8.308L5.865,-10.682Z" style="fill:rgb(65,65,65);fill-rule:nonzero;"/>
        </g>
        <g transform="matrix(-1,0,0,1,195.135,-36.646)">
            <rect x="96.665" y="199.105" width="1.805" height="1.78" style="fill:rgb(141,134,100);"/>
        </g>
        <g transform="matrix(1,0,0,1,96.6653,161.717)">
            <path d="M0,0.742L1.805,0.742L2.707,0L-0.752,0L0,0.742Z" style="fill:rgb(184,176,131);fill-rule:nonzero;"/>
        </g>
        <g transform="matrix(0.772276,-0.635287,-0.635287,-0.772276,97.9598,162.965)">
            <path d="M0.715,0.067L1.883,0.067L-0.285,-2.569L-0.415,-1.308L0.715,0.067Z" style="fill:rgb(129,122,92);fill-rule:nonzero;"/>
        </g>
        <g transform="matrix(0.711826,0.702356,0.702356,-0.711826,98.544,164.948)">
            <path d="M-0.551,0.453L0.716,0.453L-1.745,-1.976L-1.836,-0.815L-0.551,0.453Z" style="fill:rgb(95,92,68);fill-rule:nonzero;"/>
        </g>
        <g transform="matrix(-0.645403,0.763842,0.763842,0.645403,95.4233,163.184)">
            <path d="M0.005,1.63L1.17,1.63L-1.436,-0.572L-1.355,0.481L0.005,1.63Z" style="fill:rgb(154,145,108);fill-rule:nonzero;"/>
        </g>
        <g transform="matrix(-1,0,0,1,173.481,-36.646)">
            <rect x="85.838" y="199.105" width="1.805" height="1.78" style="fill:rgb(141,134,100);"/>
        </g>
        <g transform="matrix(1,0,0,1,85.8384,161.717)">
            <path d="M0,0.742L1.805,0.742L2.707,0L-0.752,0L0,0.742Z" style="fill:rgb(184,176,131);fill-rule:nonzero;"/>
        </g>
        <g transform="matrix(0.772276,-0.635287,-0.635287,-0.772276,87.1329,162.965)">
            <path d="M0.715,0.067L1.883,0.067L-0.285,-2.569L-0.415,-1.308L0.715,0.067Z" style="fill:rgb(129,122,92);fill-rule:nonzero;"/>
        </g>
        <g transform="matrix(0.711826,0.702356,0.702356,-0.711826,87.7171,164.948)">
            <path d="M-0.551,0.453L0.716,0.453L-1.745,-1.976L-1.836,-0.815L-0.551,0.453Z" style="fill:rgb(95,92,68);fill-rule:nonzero;"/>
        </g>
        <g transform="matrix(0.711824,0.702358,0.702358,-0.711824,86.3932,161.944)">
            <path d="M-1.09,-0.756L-0.033,-0.756L1.217,-2.023L1.307,-3.184L-1.09,-0.756Z" style="fill:rgb(154,145,108);fill-rule:nonzero;"/>
        </g>
        <g transform="matrix(1,0,0,1,94.7105,179.372)">
            <path d="M5.865,-10.682L-10.977,-10.682L-13.233,-8.308L-13.233,-2.225L-10.977,0L5.865,0L8.12,-2.225L8.12,-8.308L5.865,-10.682Z" style="fill:rgb(65,65,65);fill-rule:nonzero;"/>
        </g>
        <g transform="matrix(1,0,0,1,94.7105,179.372)">
            <path d="M5.865,-10.682L-10.977,-10.682L-13.233,-8.308L-13.233,-2.225L-10.977,0L5.865,0L8.12,-2.225L8.12,-8.308L5.865,-10.682Z" style="fill:rgb(65,65,65);fill-rule:nonzero;"/>
        </g>
        <g transform="matrix(-1,0,0,1,195.135,-15.282)">
            <rect x="96.665" y="188.423" width="1.805" height="1.78" style="fill:rgb(141,134,100);"/>
        </g>
        <g transform="matrix(1,0,0,1,96.6653,172.399)">
            <path d="M0,0.742L1.805,0.742L2.707,0L-0.752,0L0,0.742Z" style="fill:rgb(184,176,131);fill-rule:nonzero;"/>
        </g>
        <g transform="matrix(0.772276,-0.635287,-0.635287,-0.772276,97.9598,173.647)">
            <path d="M0.715,0.067L1.883,0.067L-0.285,-2.569L-0.415,-1.308L0.715,0.067Z" style="fill:rgb(129,122,92);fill-rule:nonzero;"/>
        </g>
        <g transform="matrix(0.711826,0.702356,0.702356,-0.711826,98.544,175.63)">
            <path d="M-0.551,0.453L0.716,0.453L-1.745,-1.976L-1.836,-0.815L-0.551,0.453Z" style="fill:rgb(95,92,68);fill-rule:nonzero;"/>
        </g>
        <g transform="matrix(-0.645403,0.763842,0.763842,0.645403,95.4233,173.866)">
            <path d="M0.005,1.63L1.17,1.63L-1.436,-0.572L-1.355,0.481L0.005,1.63Z" style="fill:rgb(154,145,108);fill-rule:nonzero;"/>
        </g>
        <g transform="matrix(-1,0,0,1,173.481,-15.282)">
            <rect x="85.838" y="188.423" width="1.805" height="1.78" style="fill:rgb(141,134,100);"/>
        </g>
        <g transform="matrix(1,0,0,1,85.8384,172.399)">
            <path d="M0,0.742L1.805,0.742L2.707,0L-0.752,0L0,0.742Z" style="fill:rgb(184,176,131);fill-rule:nonzero;"/>
        </g>
        <g transform="matrix(0.772276,-0.635287,-0.635287,-0.772276,87.1329,173.647)">
            <path d="M0.715,0.067L1.883,0.067L-0.285,-2.569L-0.415,-1.308L0.715,0.067Z" style="fill:rgb(129,122,92);fill-rule:nonzero;"/>
        </g>
        <g transform="matrix(0.711826,0.702356,0.702356,-0.711826,87.7171,175.63)">
            <path d="M-0.551,0.453L0.716,0.453L-1.745,-1.976L-1.836,-0.815L-0.551,0.453Z" style="fill:rgb(95,92,68);fill-rule:nonzero;"/>
        </g>
        <g transform="matrix(0.711824,0.702358,0.702358,-0.711824,86.3932,172.627)">
            <path d="M-1.09,-0.756L-0.033,-0.756L1.217,-2.023L1.307,-3.184L-1.09,-0.756Z" style="fill:rgb(154,145,108);fill-rule:nonzero;"/>
        </g>
        <g transform="matrix(1,0,0,1,94.7105,190.054)">
            <path d="M5.865,-10.682L-10.977,-10.682L-13.233,-8.308L-13.233,-2.225L-10.977,0L5.865,0L8.12,-2.225L8.12,-8.308L5.865,-10.682Z" style="fill:rgb(65,65,65);fill-rule:nonzero;"/>
        </g>
        <g transform="matrix(1,0,0,1,94.7105,190.054)">
            <path d="M5.865,-10.682L-10.977,-10.682L-13.233,-8.308L-13.233,-2.225L-10.977,0L5.865,0L8.12,-2.225L8.12,-8.308L5.865,-10.682Z" style="fill:rgb(65,65,65);fill-rule:nonzero;"/>
        </g>
        <g transform="matrix(-1,0,0,1,195.135,6.084)">
            <rect x="96.665" y="177.74" width="1.805" height="1.78" style="fill:rgb(141,134,100);"/>
        </g>
        <g transform="matrix(1,0,0,1,96.6653,183.081)">
            <path d="M0,0.742L1.805,0.742L2.707,0L-0.752,0L0,0.742Z" style="fill:rgb(184,176,131);fill-rule:nonzero;"/>
        </g>
        <g transform="matrix(0.772276,-0.635287,-0.635287,-0.772276,97.9598,184.329)">
            <path d="M0.715,0.067L1.883,0.067L-0.285,-2.569L-0.415,-1.308L0.715,0.067Z" style="fill:rgb(129,122,92);fill-rule:nonzero;"/>
        </g>
        <g transform="matrix(0.711826,0.702356,0.702356,-0.711826,98.544,186.313)">
            <path d="M-0.551,0.453L0.716,0.453L-1.745,-1.976L-1.836,-0.815L-0.551,0.453Z" style="fill:rgb(95,92,68);fill-rule:nonzero;"/>
        </g>
        <g transform="matrix(-0.645403,0.763842,0.763842,0.645403,95.4233,184.548)">
            <path d="M0.005,1.63L1.17,1.63L-1.436,-0.572L-1.355,0.481L0.005,1.63Z" style="fill:rgb(154,145,108);fill-rule:nonzero;"/>
        </g>
        <g transform="matrix(-1,0,0,1,173.481,6.084)">
            <rect x="85.838" y="177.74" width="1.805" height="1.78" style="fill:rgb(141,134,100);"/>
        </g>
        <g transform="matrix(1,0,0,1,85.8384,183.081)">
            <path d="M0,0.742L1.805,0.742L2.707,0L-0.752,0L0,0.742Z" style="fill:rgb(184,176,131);fill-rule:nonzero;"/>
        </g>
        <g transform="matrix(0.772276,-0.635287,-0.635287,-0.772276,87.1329,184.329)">
            <path d="M0.715,0.067L1.883,0.067L-0.285,-2.569L-0.415,-1.308L0.715,0.067Z" style="fill:rgb(129,122,92);fill-rule:nonzero;"/>
        </g>
        <g transform="matrix(0.711826,0.702356,0.702356,-0.711826,87.7171,186.313)">
            <path d="M-0.551,0.453L0.716,0.453L-1.745,-1.976L-1.836,-0.815L-0.551,0.453Z" style="fill:rgb(95,92,68);fill-rule:nonzero;"/>
        </g>
        <g transform="matrix(0.711824,0.702358,0.702358,-0.711824,86.3932,183.309)">
            <path d="M-1.09,-0.756L-0.033,-0.756L1.217,-2.023L1.307,-3.184L-1.09,-0.756Z" style="fill:rgb(154,145,108);fill-rule:nonzero;"/>
        </g>
        <g transform="matrix(1,0,0,1,94.7105,200.736)">
            <path d="M5.865,-10.682L-10.977,-10.682L-13.233,-8.308L-13.233,-2.225L-10.977,0L5.865,0L8.12,-2.225L8.12,-8.308L5.865,-10.682Z" style="fill:rgb(65,65,65);fill-rule:nonzero;"/>
        </g>
        <g transform="matrix(1,0,0,1,94.7105,200.736)">
            <path d="M5.865,-10.682L-10.977,-10.682L-13.233,-8.308L-13.233,-2.225L-10.977,0L5.865,0L8.12,-2.225L8.12,-8.308L5.865,-10.682Z" style="fill:rgb(65,65,65);fill-rule:nonzero;"/>
        </g>
        <g transform="matrix(-1,0,0,1,195.135,27.448)">
            <rect x="96.665" y="167.058" width="1.805" height="1.78" style="fill:rgb(141,134,100);"/>
        </g>
        <g transform="matrix(1,0,0,1,96.6653,193.763)">
            <path d="M0,0.742L1.805,0.742L2.707,0L-0.752,0L0,0.742Z" style="fill:rgb(184,176,131);fill-rule:nonzero;"/>
        </g>
        <g transform="matrix(0.772276,-0.635287,-0.635287,-0.772276,97.9601,195.011)">
            <path d="M0.715,0.067L1.883,0.067L-0.285,-2.568L-0.416,-1.308L0.715,0.067Z" style="fill:rgb(129,122,92);fill-rule:nonzero;"/>
        </g>
        <g transform="matrix(0.711826,0.702356,0.702356,-0.711826,98.544,196.995)">
            <path d="M-0.551,0.453L0.716,0.453L-1.745,-1.976L-1.836,-0.815L-0.551,0.453Z" style="fill:rgb(95,92,68);fill-rule:nonzero;"/>
        </g>
        <g transform="matrix(-0.645403,0.763842,0.763842,0.645403,95.4233,195.23)">
            <path d="M0.005,1.63L1.17,1.63L-1.436,-0.572L-1.355,0.481L0.005,1.63Z" style="fill:rgb(154,145,108);fill-rule:nonzero;"/>
        </g>
        <g transform="matrix(-1,0,0,1,173.481,27.448)">
            <rect x="85.838" y="167.058" width="1.805" height="1.78" style="fill:rgb(141,134,100);"/>
        </g>
        <g transform="matrix(1,0,0,1,85.8384,193.763)">
            <path d="M0,0.742L1.805,0.742L2.707,0L-0.752,0L0,0.742Z" style="fill:rgb(184,176,131);fill-rule:nonzero;"/>
        </g>
        <g transform="matrix(0.772276,-0.635287,-0.635287,-0.772276,87.1332,195.011)">
            <path d="M0.715,0.067L1.883,0.067L-0.285,-2.568L-0.416,-1.308L0.715,0.067Z" style="fill:rgb(129,122,92);fill-rule:nonzero;"/>
        </g>
        <g transform="matrix(0.711826,0.702356,0.702356,-0.711826,87.7171,196.995)">
            <path d="M-0.551,0.453L0.716,0.453L-1.745,-1.976L-1.836,-0.815L-0.551,0.453Z" style="fill:rgb(95,92,68);fill-rule:nonzero;"/>
        </g>
        <g transform="matrix(0.711824,0.702358,0.702358,-0.711824,86.3932,193.991)">
            <path d="M-1.09,-0.756L-0.033,-0.756L1.217,-2.023L1.307,-3.184L-1.09,-0.756Z" style="fill:rgb(154,145,108);fill-rule:nonzero;"/>
        </g>
        <g transform="matrix(1,0,0,1,94.7105,211.419)">
            <path d="M5.865,-10.682L-10.977,-10.682L-13.233,-8.308L-13.233,-2.225L-10.977,0L5.865,0L8.12,-2.225L8.12,-8.308L5.865,-10.682Z" style="fill:rgb(65,65,65);fill-rule:nonzero;"/>
        </g>
        <g transform="matrix(1,0,0,1,94.7105,211.419)">
            <path d="M5.865,-10.682L-10.977,-10.682L-13.233,-8.308L-13.233,-2.225L-10.977,0L5.865,0L8.12,-2.225L8.12,-8.308L5.865,-10.682Z" style="fill:rgb(65,65,65);fill-rule:nonzero;"/>
        </g>
        <g transform="matrix(-1,0,0,1,195.135,48.812)">
            <rect x="96.665" y="156.376" width="1.805" height="1.78" style="fill:rgb(141,134,100);"/>
        </g>
        <g transform="matrix(1,0,0,1,96.6653,204.446)">
            <path d="M0,0.742L1.805,0.742L2.707,0L-0.752,0L0,0.742Z" style="fill:rgb(184,176,131);fill-rule:nonzero;"/>
        </g>
        <g transform="matrix(0.772276,-0.635287,-0.635287,-0.772276,97.9598,205.694)">
            <path d="M0.715,0.067L1.883,0.067L-0.285,-2.569L-0.415,-1.308L0.715,0.067Z" style="fill:rgb(129,122,92);fill-rule:nonzero;"/>
        </g>
        <g transform="matrix(0.711826,0.702356,0.702356,-0.711826,98.544,207.677)">
            <path d="M-0.551,0.453L0.716,0.453L-1.745,-1.976L-1.836,-0.815L-0.551,0.453Z" style="fill:rgb(95,92,68);fill-rule:nonzero;"/>
        </g>
        <g transform="matrix(-0.645403,0.763842,0.763842,0.645403,95.4233,205.913)">
            <path d="M0.005,1.63L1.17,1.63L-1.436,-0.572L-1.355,0.481L0.005,1.63Z" style="fill:rgb(154,145,108);fill-rule:nonzero;"/>
        </g>
        <g transform="matrix(-1,0,0,1,173.481,48.812)">
            <rect x="85.838" y="156.376" width="1.805" height="1.78" style="fill:rgb(141,134,100);"/>
        </g>
        <g transform="matrix(1,0,0,1,85.8384,204.446)">
            <path d="M0,0.742L1.805,0.742L2.707,0L-0.752,0L0,0.742Z" style="fill:rgb(184,176,131);fill-rule:nonzero;"/>
        </g>
        <g transform="matrix(0.772276,-0.635287,-0.635287,-0.772276,87.1329,205.694)">
            <path d="M0.715,0.067L1.883,0.067L-0.285,-2.569L-0.415,-1.308L0.715,0.067Z" style="fill:rgb(129,122,92);fill-rule:nonzero;"/>
        </g>
        <g transform="matrix(0.711826,0.702356,0.702356,-0.711826,87.7171,207.677)">
            <path d="M-0.551,0.453L0.716,0.453L-1.745,-1.976L-1.836,-0.815L-0.551,0.453Z" style="fill:rgb(95,92,68);fill-rule:nonzero;"/>
        </g>
        <g transform="matrix(0.711824,0.702358,0.702358,-0.711824,86.3932,204.673)">
            <path d="M-1.09,-0.756L-0.033,-0.756L1.217,-2.023L1.307,-3.184L-1.09,-0.756Z" style="fill:rgb(154,145,108);fill-rule:nonzero;"/>
        </g>
        <g transform="matrix(1,0,0,1,94.7105,222.101)">
            <path d="M5.865,-10.682L-10.977,-10.682L-13.233,-8.308L-13.233,-2.225L-10.977,0L5.865,0L8.12,-2.225L8.12,-8.308L5.865,-10.682Z" style="fill:rgb(65,65,65);fill-rule:nonzero;"/>
        </g>
        <g transform="matrix(1,0,0,1,94.7105,222.101)">
            <path d="M5.865,-10.682L-10.977,-10.682L-13.233,-8.308L-13.233,-2.225L-10.977,0L5.865,0L8.12,-2.225L8.12,-8.308L5.865,-10.682Z" style="fill:rgb(65,65,65);fill-rule:nonzero;"/>
        </g>
        <g transform="matrix(-1,0,0,1,195.135,70.176)">
            <rect x="96.665" y="145.694" width="1.805" height="1.78" style="fill:rgb(141,134,100);"/>
        </g>
        <g transform="matrix(1,0,0,1,96.6653,215.128)">
            <path d="M0,0.742L1.805,0.742L2.707,0L-0.752,0L0,0.742Z" style="fill:rgb(184,176,131);fill-rule:nonzero;"/>
        </g>
        <g transform="matrix(0.772276,-0.635287,-0.635287,-0.772276,97.9598,216.376)">
            <path d="M0.715,0.067L1.883,0.067L-0.285,-2.569L-0.415,-1.308L0.715,0.067Z" style="fill:rgb(129,122,92);fill-rule:nonzero;"/>
        </g>
        <g transform="matrix(0.711826,0.702356,0.702356,-0.711826,98.544,218.359)">
            <path d="M-0.551,0.453L0.716,0.453L-1.745,-1.976L-1.836,-0.815L-0.551,0.453Z" style="fill:rgb(95,92,68);fill-rule:nonzero;"/>
        </g>
        <g transform="matrix(-0.645403,0.763842,0.763842,0.645403,95.4233,216.595)">
            <path d="M0.005,1.63L1.17,1.63L-1.436,-0.572L-1.355,0.481L0.005,1.63Z" style="fill:rgb(154,145,108);fill-rule:nonzero;"/>
        </g>
        <g transform="matrix(-1,0,0,1,173.481,70.176)">
            <rect x="85.838" y="145.694" width="1.805" height="1.78" style="fill:rgb(141,134,100);"/>
        </g>
        <g transform="matrix(1,0,0,1,85.8384,215.128)">
            <path d="M0,0.742L1.805,0.742L2.707,0L-0.752,0L0,0.742Z" style="fill:rgb(184,176,131);fill-rule:nonzero;"/>
        </g>
        <g transform="matrix(0.772276,-0.635287,-0.635287,-0.772276,87.1329,216.376)">
            <path d="M0.715,0.067L1.883,0.067L-0.285,-2.569L-0.415,-1.308L0.715,0.067Z" style="fill:rgb(129,122,92);fill-rule:nonzero;"/>
        </g>
        <g transform="matrix(0.711826,0.702356,0.702356,-0.711826,87.7171,218.359)">
            <path d="M-0.551,0.453L0.716,0.453L-1.745,-1.976L-1.836,-0.815L-0.551,0.453Z" style="fill:rgb(95,92,68);fill-rule:nonzero;"/>
        </g>
        <g transform="matrix(0.711824,0.702358,0.702358,-0.711824,86.3932,215.356)">
            <path d="M-1.09,-0.756L-0.033,-0.756L1.217,-2.023L1.307,-3.184L-1.09,-0.756Z" style="fill:rgb(154,145,108);fill-rule:nonzero;"/>
        </g>
        <g transform="matrix(1,0,0,1,94.7105,232.783)">
            <path d="M5.865,-10.682L-10.977,-10.682L-13.233,-8.308L-13.233,-2.225L-10.977,0L5.865,0L8.12,-2.225L8.12,-8.308L5.865,-10.682Z" style="fill:rgb(65,65,65);fill-rule:nonzero;"/>
        </g>
        <g transform="matrix(1,0,0,1,94.7105,232.783)">
            <path d="M5.865,-10.682L-10.977,-10.682L-13.233,-8.308L-13.233,-2.225L-10.977,0L5.865,0L8.12,-2.225L8.12,-8.308L5.865,-10.682Z" style="fill:rgb(65,65,65);fill-rule:nonzero;"/>
        </g>
        <g transform="matrix(-1,0,0,1,195.135,91.54)">
            <rect x="96.665" y="135.012" width="1.805" height="1.78" style="fill:rgb(141,134,100);"/>
        </g>
        <g transform="matrix(1,0,0,1,96.6653,225.81)">
            <path d="M0,0.742L1.805,0.742L2.707,0L-0.752,0L0,0.742Z" style="fill:rgb(184,176,131);fill-rule:nonzero;"/>
        </g>
        <g transform="matrix(0.772276,-0.635287,-0.635287,-0.772276,97.9598,227.058)">
            <path d="M0.715,0.067L1.883,0.067L-0.285,-2.569L-0.415,-1.308L0.715,0.067Z" style="fill:rgb(129,122,92);fill-rule:nonzero;"/>
        </g>
        <g transform="matrix(0.711826,0.702356,0.702356,-0.711826,98.544,229.041)">
            <path d="M-0.551,0.453L0.716,0.453L-1.745,-1.976L-1.836,-0.815L-0.551,0.453Z" style="fill:rgb(95,92,68);fill-rule:nonzero;"/>
        </g>
        <g transform="matrix(-0.645403,0.763842,0.763842,0.645403,95.4233,227.277)">
            <path d="M0.005,1.63L1.17,1.63L-1.436,-0.572L-1.355,0.481L0.005,1.63Z" style="fill:rgb(154,145,108);fill-rule:nonzero;"/>
        </g>
        <g transform="matrix(-1,0,0,1,173.481,91.54)">
            <rect x="85.838" y="135.012" width="1.805" height="1.78" style="fill:rgb(141,134,100);"/>
        </g>
        <g transform="matrix(1,0,0,1,85.8384,225.81)">
            <path d="M0,0.742L1.805,0.742L2.707,0L-0.752,0L0,0.742Z" style="fill:rgb(184,176,131);fill-rule:nonzero;"/>
        </g>
        <g transform="matrix(0.772276,-0.635287,-0.635287,-0.772276,87.1329,227.058)">
            <path d="M0.715,0.067L1.883,0.067L-0.285,-2.569L-0.415,-1.308L0.715,0.067Z" style="fill:rgb(129,122,92);fill-rule:nonzero;"/>
        </g>
        <g transform="matrix(0.711826,0.702356,0.702356,-0.711826,87.7171,229.041)">
            <path d="M-0.551,0.453L0.716,0.453L-1.745,-1.976L-1.836,-0.815L-0.551,0.453Z" style="fill:rgb(95,92,68);fill-rule:nonzero;"/>
        </g>
        <g transform="matrix(0.711824,0.702358,0.702358,-0.711824,86.3932,226.038)">
            <path d="M-1.09,-0.756L-0.033,-0.756L1.217,-2.023L1.307,-3.184L-1.09,-0.756Z" style="fill:rgb(154,145,108);fill-rule:nonzero;"/>
        </g>
        <g transform="matrix(1,0,0,1,94.7105,243.465)">
            <path d="M5.865,-10.682L-10.977,-10.682L-13.233,-8.308L-13.233,-2.225L-10.977,0L5.865,0L8.12,-2.225L8.12,-8.308L5.865,-10.682Z" style="fill:rgb(65,65,65);fill-rule:nonzero;"/>
        </g>
        <g transform="matrix(1,0,0,1,94.7105,243.465)">
            <path d="M5.865,-10.682L-10.977,-10.682L-13.233,-8.308L-13.233,-2.225L-10.977,0L5.865,0L8.12,-2.225L8.12,-8.308L5.865,-10.682Z" style="fill:rgb(65,65,65);fill-rule:nonzero;"/>
        </g>
        <g transform="matrix(-1,0,0,1,195.135,112.906)">
            <rect x="96.665" y="124.329" width="1.805" height="1.78" style="fill:rgb(141,134,100);"/>
        </g>
        <g transform="matrix(1,0,0,1,96.6653,236.492)">
            <path d="M0,0.742L1.805,0.742L2.707,0L-0.752,0L0,0.742Z" style="fill:rgb(184,176,131);fill-rule:nonzero;"/>
        </g>
        <g transform="matrix(0.772276,-0.635287,-0.635287,-0.772276,97.9598,237.74)">
            <path d="M0.715,0.067L1.883,0.067L-0.285,-2.569L-0.415,-1.308L0.715,0.067Z" style="fill:rgb(129,122,92);fill-rule:nonzero;"/>
        </g>
        <g transform="matrix(0.711826,0.702356,0.702356,-0.711826,98.544,239.724)">
            <path d="M-0.551,0.453L0.716,0.453L-1.745,-1.976L-1.836,-0.815L-0.551,0.453Z" style="fill:rgb(95,92,68);fill-rule:nonzero;"/>
        </g>
        <g transform="matrix(-0.645403,0.763842,0.763842,0.645403,95.4233,237.959)">
            <path d="M0.005,1.63L1.17,1.63L-1.436,-0.572L-1.355,0.481L0.005,1.63Z" style="fill:rgb(154,145,108);fill-rule:nonzero;"/>
        </g>
        <g transform="matrix(-1,0,0,1,173.481,112.906)">
            <rect x="85.838" y="124.329" width="1.805" height="1.78" style="fill:rgb(141,134,100);"/>
        </g>
        <g transform="matrix(1,0,0,1,85.8384,236.492)">
            <path d="M0,0.742L1.805,0.742L2.707,0L-0.752,0L0,0.742Z" style="fill:rgb(184,176,131);fill-rule:nonzero;"/>
        </g>
        <g transform="matrix(0.772276,-0.635287,-0.635287,-0.772276,87.1329,237.74)">
            <path d="M0.715,0.067L1.883,0.067L-0.285,-2.569L-0.415,-1.308L0.715,0.067Z" style="fill:rgb(129,122,92);fill-rule:nonzero;"/>
        </g>
        <g transform="matrix(0.711826,0.702356,0.702356,-0.711826,87.7171,239.724)">
            <path d="M-0.551,0.453L0.716,0.453L-1.745,-1.976L-1.836,-0.815L-0.551,0.453Z" style="fill:rgb(95,92,68);fill-rule:nonzero;"/>
        </g>
        <g transform="matrix(0.711824,0.702358,0.702358,-0.711824,86.3932,236.72)">
            <path d="M-1.09,-0.756L-0.033,-0.756L1.217,-2.023L1.307,-3.184L-1.09,-0.756Z" style="fill:rgb(154,145,108);fill-rule:nonzero;"/>
        </g>
        <g>
            <text x="30.457px" y="36.675px" style="font-family:'LucidaGrande', 'Lucida Grande', sans-serif;font-weight:500;font-size:9px;fill:white;">3<tspan x="35.864px 38.428px 43.835px " y="36.675px 36.675px 36.675px ">.3V</tspan></text>
            <text x="50.941px" y="36.675px" style="font-family:'LucidaGrande', 'Lucida Grande', sans-serif;font-weight:500;font-size:9px;fill:white;">P<tspan x="55.632px 60.876px 67.527px 72.258px " y="36.675px 36.675px 36.675px 36.675px ">ower</tspan></text>
            <text x="20.422px" y="47.475px" style="font-family:'LucidaGrande', 'Lucida Grande', sans-serif;font-weight:500;font-size:9px;fill:white;">GP<tspan x="32.078px " y="47.475px ">I</tspan>O</text>
            <text x="43.957px" y="47.475px" style="font-family:'LucidaGrande', 'Lucida Grande', sans-serif;font-weight:500;font-size:9px;fill:white;">2</text>
            <text x="51.274px" y="47.475px" style="font-family:'LucidaGrande', 'Lucida Grande', sans-serif;font-weight:500;font-size:9px;fill:white;">(S<tspan x="59.225px 66.055px 72.353px " y="47.475px 47.475px 47.475px ">DA)</tspan></text>
            <text x="21.358px" y="58.275px" style="font-family:'LucidaGrande', 'Lucida Grande', sans-serif;font-weight:500;font-size:9px;fill:white;">G<tspan x="28.06px 33.233px 36.025px " y="58.275px 58.275px 58.275px ">PIO</tspan></text>
            <text x="44.893px" y="58.275px" style="font-family:'LucidaGrande', 'Lucida Grande', sans-serif;font-weight:500;font-size:9px;fill:white;">3</text>
            <text x="52.246px" y="58.275px" style="font-family:'LucidaGrande', 'Lucida Grande', sans-serif;font-weight:500;font-size:9px;fill:white;">(<tspan x="55.371px 60.417px 66.842px 71.84px " y="58.275px 58.275px 58.275px 58.275px ">SCL)</tspan></text>
            <text x="2.791px" y="69.075px" style="font-family:'LucidaGrande', 'Lucida Grande', sans-serif;font-weight:500;font-size:9px;fill:white;">G<tspan x="9.475px 14.629px 17.401px " y="69.075px 69.075px 69.075px ">PIO</tspan></text>
            <text x="26.326px" y="69.075px" style="font-family:'LucidaGrande', 'Lucida Grande', sans-serif;font-weight:500;font-size:9px;fill:white;">4</text>
            <text x="33.814px" y="69.075px" style="font-family:'LucidaGrande', 'Lucida Grande', sans-serif;font-weight:500;font-size:9px;fill:white;">(<tspan x="36.92px 43.604px 48.758px 55.165px 60.143px 66.198px 72.069px " y="69.075px 69.075px 69.075px 69.075px 69.075px 69.075px 69.075px ">GPCLK0)</tspan></text>
            <text x="45.532px" y="79.875px" style="font-family:'LucidaGrande', 'Lucida Grande', sans-serif;font-weight:500;font-size:9px;fill:white;">G<tspan x="51.753px 55.152px 60.397px 65.699px 71.001px " y="79.875px 79.875px 79.875px 79.875px 79.875px ">round</tspan></text>
            <text x="44.155px" y="90.675px" style="font-family:'LucidaGrande', 'Lucida Grande', sans-serif;font-weight:500;font-size:9px;fill:white;">G<tspan x="50.35px 55.016px 57.299px " y="90.675px 90.675px 90.675px ">PIO</tspan></text>
            <text x="67.69px" y="90.675px" style="font-family:'LucidaGrande', 'Lucida Grande', sans-serif;font-weight:500;font-size:9px;fill:white;">1<tspan x="73.072px " y="90.675px ">7</tspan></text>
            <text x="42.733px" y="101.475px" style="font-family:'LucidaGrande', 'Lucida Grande', sans-serif;font-weight:500;font-size:9px;fill:white;">GPIO <tspan x="66.521px " y="101.475px ">2</tspan>7</text>
            <text x="42.238px" y="112.275px" style="font-family:'LucidaGrande', 'Lucida Grande', sans-serif;font-weight:500;font-size:9px;fill:white;">GPIO 22</text>
            <text x="30.457px" y="123.075px" style="font-family:'LucidaGrande', 'Lucida Grande', sans-serif;font-weight:500;font-size:9px;fill:white;">3<tspan x="35.864px 38.428px 43.835px " y="123.075px 123.075px 123.075px ">.3V</tspan></text>
            <text x="50.941px" y="123.075px" style="font-family:'LucidaGrande', 'Lucida Grande', sans-serif;font-weight:500;font-size:9px;fill:white;">P<tspan x="55.632px 60.876px 67.527px 72.258px " y="123.075px 123.075px 123.075px 123.075px ">ower</tspan></text>
            <text x="11.152px" y="133.875px" style="font-family:'LucidaGrande', 'Lucida Grande', sans-serif;font-weight:500;font-size:9px;fill:white;">GPIO 10</text>
            <text x="46.539px" y="133.875px" style="font-family:'LucidaGrande', 'Lucida Grande', sans-serif;font-weight:500;font-size:9px;fill:white;">(SDO)</text>
            <text x="15.508px" y="144.675px" style="font-family:'LucidaGrande', 'Lucida Grande', sans-serif;font-weight:500;font-size:9px;fill:white;">G<tspan x="22.144px 27.252px 29.977px " y="144.675px 144.675px 144.675px ">PIO</tspan></text>
            <text x="39.043px" y="144.675px" style="font-family:'LucidaGrande', 'Lucida Grande', sans-serif;font-weight:500;font-size:9px;fill:white;">9</text>
            <text x="46.576px" y="144.675px" style="font-family:'LucidaGrande', 'Lucida Grande', sans-serif;font-weight:500;font-size:9px;fill:white;">(<tspan x="49.635px 54.615px 61.489px 64.214px " y="144.675px 144.675px 144.675px 144.675px ">SDI)</tspan></text>
            <text x="12.709px" y="155.475px" style="font-family:'LucidaGrande', 'Lucida Grande', sans-serif;font-weight:500;font-size:9px;fill:white;">G<tspan x="19.11px 23.982px 26.472px 33.361px 36.106px 41.694px 47.282px 50.106px 54.85px 60.974px 65.67px 71.443px " y="155.475px 155.475px 155.475px 155.475px 155.475px 155.475px 155.475px 155.475px 155.475px 155.475px 155.475px 155.475px ">PIO 11(SCLK)</tspan></text>
            <text x="45.532px" y="166.275px" style="font-family:'LucidaGrande', 'Lucida Grande', sans-serif;font-weight:500;font-size:9px;fill:white;">G<tspan x="51.753px 55.152px 60.397px 65.699px 71.001px " y="166.275px 166.275px 166.275px 166.275px 166.275px ">round</tspan></text>
            <text x="12.295px" y="177.075px" style="font-family:'LucidaGrande', 'Lucida Grande', sans-serif;font-weight:500;font-size:9px;fill:white;">G<tspan x="18.917px 24.01px 26.721px " y="177.075px 177.075px 177.075px ">PIO</tspan></text>
            <text x="35.83px" y="177.075px" style="font-family:'LucidaGrande', 'Lucida Grande', sans-serif;font-weight:500;font-size:9px;fill:white;">0</text>
            <text x="43.741px" y="177.075px" style="font-family:'LucidaGrande', 'Lucida Grande', sans-serif;font-weight:500;font-size:9px;fill:white;">(<tspan x="46.786px 49.497px 56.356px 60.974px 65.939px 72.799px " y="177.075px 177.075px 177.075px 177.075px 177.075px 177.075px ">ID_SD)</tspan></text>
            <text x="47.566px" y="187.875px" style="font-family:'LucidaGrande', 'Lucida Grande', sans-serif;font-weight:500;font-size:9px;fill:white;">G<tspan x="54.179px 59.264px 61.966px " y="187.875px 187.875px 187.875px ">PIO</tspan></text>
            <text x="71.101px" y="187.875px" style="font-family:'LucidaGrande', 'Lucida Grande', sans-serif;font-weight:500;font-size:9px;fill:white;">5</text>
            <text x="47.305px" y="198.675px" style="font-family:'LucidaGrande', 'Lucida Grande', sans-serif;font-weight:500;font-size:9px;fill:white;">G<tspan x="53.918px 59.003px 61.705px " y="198.675px 198.675px 198.675px ">PIO</tspan></text>
            <text x="70.84px" y="198.675px" style="font-family:'LucidaGrande', 'Lucida Grande', sans-serif;font-weight:500;font-size:9px;fill:white;">6</text>
            <text x="8.749px" y="209.475px" style="font-family:'LucidaGrande', 'Lucida Grande', sans-serif;font-weight:500;font-size:9px;fill:white;">G<tspan x="15.113px 19.948px 22.401px 29.253px 31.96px 37.511px " y="209.475px 209.475px 209.475px 209.475px 209.475px 209.475px ">PIO 13</tspan></text>
            <text x="43.444px" y="209.475px" style="font-family:'LucidaGrande', 'Lucida Grande', sans-serif;font-weight:500;font-size:9px;fill:white;">(<tspan x="46.231px 51.066px 58.625px 66.237px 71.788px " y="209.475px 209.475px 209.475px 209.475px 209.475px ">PWM1)</tspan></text>
            <text x="11.62px" y="220.275px" style="font-family:'LucidaGrande', 'Lucida Grande', sans-serif;font-weight:500;font-size:9px;fill:white;">GPI<tspan x="25.561px " y="220.275px ">O</tspan> 1<tspan x="40.961px " y="220.275px ">9</tspan></text>
            <text x="46.708px" y="220.275px" style="font-family:'LucidaGrande', 'Lucida Grande', sans-serif;font-weight:500;font-size:9px;fill:white;">(SD<tspan x="61.093px " y="220.275px ">I</tspan>)</text>
            <text x="42.022px" y="231.075px" style="font-family:'LucidaGrande', 'Lucida Grande', sans-serif;font-weight:500;font-size:9px;fill:white;">GPIO 26</text>
            <text x="45.532px" y="241.875px" style="font-family:'LucidaGrande', 'Lucida Grande', sans-serif;font-weight:500;font-size:9px;fill:white;">G<tspan x="51.753px 55.152px 60.397px 65.699px 71.001px " y="241.875px 241.875px 241.875px 241.875px 241.875px ">round</tspan></text>
        </g>
        <g>
            <text x="108.658px" y="36.675px" style="font-family:'LucidaGrande', 'Lucida Grande', sans-serif;font-weight:500;font-size:9px;fill:rgb(35,31,32);">5<tspan x="114.135px " y="36.675px ">V</tspan></text>
            <text x="121.59px" y="36.675px" style="font-family:'LucidaGrande', 'Lucida Grande', sans-serif;font-weight:500;font-size:9px;fill:rgb(35,31,32);">P<tspan x="126.351px 131.665px 138.386px 143.186px " y="36.675px 36.675px 36.675px 36.675px ">ower</tspan></text>
            <text x="108.658px" y="47.475px" style="font-family:'LucidaGrande', 'Lucida Grande', sans-serif;font-weight:500;font-size:9px;fill:rgb(35,31,32);">5<tspan x="114.135px " y="47.475px ">V</tspan></text>
            <text x="121.59px" y="47.475px" style="font-family:'LucidaGrande', 'Lucida Grande', sans-serif;font-weight:500;font-size:9px;fill:rgb(35,31,32);">P<tspan x="126.351px 131.665px 138.386px 143.186px " y="47.475px 47.475px 47.475px 47.475px ">ower</tspan></text>
            <text x="108.658px" y="58.275px" style="font-family:'LucidaGrande', 'Lucida Grande', sans-serif;font-weight:500;font-size:9px;fill:rgb(35,31,32);">G<tspan x="114.879px 118.278px 123.523px 128.825px 134.127px " y="58.275px 58.275px 58.275px 58.275px 58.275px ">round</tspan></text>
            <text x="108.658px" y="69.075px" style="font-family:'LucidaGrande', 'Lucida Grande', sans-serif;font-weight:500;font-size:9px;fill:rgb(35,31,32);">G<tspan x="115.019px 119.85px 122.299px 129.147px 131.852px 137.399px " y="69.075px 69.075px 69.075px 69.075px 69.075px 69.075px ">PIO 14</tspan></text>
            <text x="143.183px" y="69.075px" style="font-family:'LucidaGrande', 'Lucida Grande', sans-serif;font-weight:500;font-size:9px;fill:rgb(35,31,32);">(<tspan x="145.966px 151.514px 157.004px " y="69.075px 69.075px 69.075px ">TX)</tspan></text>
            <text x="108.658px" y="79.875px" style="font-family:'LucidaGrande', 'Lucida Grande', sans-serif;font-weight:500;font-size:9px;fill:rgb(35,31,32);">GP<tspan x="119.976px 122.488px 129.399px 132.166px 137.777px " y="79.875px 79.875px 79.875px 79.875px 79.875px ">IO 15</tspan></text>
            <text x="143.487px" y="79.875px" style="font-family:'LucidaGrande', 'Lucida Grande', sans-serif;font-weight:500;font-size:9px;fill:rgb(35,31,32);">(R<tspan x="151.944px " y="79.875px ">X</tspan>)</text>
            <text x="108.659px" y="90.675px" style="font-family:'LucidaGrande', 'Lucida Grande', sans-serif;font-weight:500;font-size:9px;fill:rgb(35,31,32);">GP<tspan x="120.26px " y="90.675px ">I</tspan>O</text>
            <text x="132.194px" y="90.675px" style="font-family:'LucidaGrande', 'Lucida Grande', sans-serif;font-weight:500;font-size:9px;fill:rgb(35,31,32);">18</text>
            <text x="143.799px" y="90.675px" style="font-family:'LucidaGrande', 'Lucida Grande', sans-serif;font-weight:500;font-size:9px;fill:rgb(35,31,32);">(P<tspan x="151.823px 159.583px 167.397px " y="90.675px 90.675px 90.675px ">WM0</tspan>)</text>
            <text x="108.659px" y="101.475px" style="font-family:'LucidaGrande', 'Lucida Grande', sans-serif;font-weight:500;font-size:9px;fill:rgb(35,31,32);">G<tspan x="114.88px 118.279px 123.524px 128.826px 134.128px " y="101.475px 101.475px 101.475px 101.475px 101.475px ">round</tspan></text>
            <text x="108.659px" y="112.275px" style="font-family:'LucidaGrande', 'Lucida Grande', sans-serif;font-weight:500;font-size:9px;fill:rgb(35,31,32);">GPIO 23</text>
            <text x="108.659px" y="123.075px" style="font-family:'LucidaGrande', 'Lucida Grande', sans-serif;font-weight:500;font-size:9px;fill:rgb(35,31,32);">GPIO<tspan x="129.603px " y="123.075px "> </tspan>24</text>
            <text x="108.659px" y="133.875px" style="font-family:'LucidaGrande', 'Lucida Grande', sans-serif;font-weight:500;font-size:9px;fill:rgb(35,31,32);">G<tspan x="114.88px 118.279px 123.524px 128.826px 134.128px " y="133.875px 133.875px 133.875px 133.875px 133.875px ">round</tspan></text>
            <text x="108.659px" y="144.675px" style="font-family:'LucidaGrande', 'Lucida Grande', sans-serif;font-weight:500;font-size:9px;fill:rgb(35,31,32);">GPIO 25</text>
            <text x="108.659px" y="155.475px" style="font-family:'LucidaGrande', 'Lucida Grande', sans-serif;font-weight:500;font-size:9px;fill:rgb(35,31,32);">G<tspan x="115.328px 120.468px 123.225px " y="155.475px 155.475px 155.475px ">PIO</tspan></text>
            <text x="132.194px" y="155.475px" style="font-family:'LucidaGrande', 'Lucida Grande', sans-serif;font-weight:500;font-size:9px;fill:rgb(35,31,32);">8</text>
            <text x="139.691px" y="155.475px" style="font-family:'LucidaGrande', 'Lucida Grande', sans-serif;font-weight:500;font-size:9px;fill:rgb(35,31,32);">(<tspan x="142.783px 149.175px 154.218px 160.074px " y="155.475px 155.475px 155.475px 155.475px ">CE0)</tspan></text>
            <text x="108.659px" y="166.275px" style="font-family:'LucidaGrande', 'Lucida Grande', sans-serif;font-weight:500;font-size:9px;fill:rgb(35,31,32);">G<tspan x="115.049px 119.909px 122.388px 129.266px 131.999px " y="166.275px 166.275px 166.275px 166.275px 166.275px ">PIO 7</tspan></text>
            <text x="139.169px" y="166.275px" style="font-family:'LucidaGrande', 'Lucida Grande', sans-serif;font-weight:500;font-size:9px;fill:rgb(35,31,32);">(<tspan x="141.982px 148.095px 152.858px 158.435px " y="166.275px 166.275px 166.275px 166.275px ">CE1)</tspan></text>
            <text x="108.659px" y="177.075px" style="font-family:'LucidaGrande', 'Lucida Grande', sans-serif;font-weight:500;font-size:9px;fill:rgb(35,31,32);">GPIO <tspan x="132.449px " y="177.075px ">1</tspan>(ID_<tspan x="154.781px " y="177.075px ">S</tspan>C)</text>
            <text x="108.659px" y="187.875px" style="font-family:'LucidaGrande', 'Lucida Grande', sans-serif;font-weight:500;font-size:9px;fill:rgb(35,31,32);">G<tspan x="114.88px 118.279px 123.524px 128.826px 134.128px " y="187.875px 187.875px 187.875px 187.875px 187.875px ">round</tspan></text>
            <text x="108.659px" y="198.675px" style="font-family:'LucidaGrande', 'Lucida Grande', sans-serif;font-weight:500;font-size:9px;fill:rgb(35,31,32);">GPI<tspan x="122.865px " y="198.675px ">O</tspan></text>
            <text x="132.194px" y="198.675px" style="font-family:'LucidaGrande', 'Lucida Grande', sans-serif;font-weight:500;font-size:9px;fill:rgb(35,31,32);">12</text>
            <text x="143.766px" y="198.675px" style="font-family:'LucidaGrande', 'Lucida Grande', sans-serif;font-weight:500;font-size:9px;fill:rgb(35,31,32);">(PW<tspan x="159.501px " y="198.675px ">M</tspan>0)</text>
            <text x="108.659px" y="209.475px" style="font-family:'LucidaGrande', 'Lucida Grande', sans-serif;font-weight:500;font-size:9px;fill:rgb(35,31,32);">G<tspan x="114.88px 118.279px 123.524px 128.826px 134.128px " y="209.475px 209.475px 209.475px 209.475px 209.475px ">round</tspan></text>
            <text x="108.659px" y="220.275px" style="font-family:'LucidaGrande', 'Lucida Grande', sans-serif;font-weight:500;font-size:9px;fill:rgb(35,31,32);">G<tspan x="114.872px 119.556px 121.858px " y="220.275px 220.275px 220.275px ">PIO</tspan></text>
            <text x="132.194px" y="220.275px" style="font-family:'LucidaGrande', 'Lucida Grande', sans-serif;font-weight:500;font-size:9px;fill:rgb(35,31,32);">1<tspan x="137.594px " y="220.275px ">6</tspan></text>
            <text x="108.659px" y="231.075px" style="font-family:'LucidaGrande', 'Lucida Grande', sans-serif;font-weight:500;font-size:9px;fill:rgb(35,31,32);">G<tspan x="115.289px 120.39px 123.108px " y="231.075px 231.075px 231.075px ">PIO</tspan></text>
            <text x="132.194px" y="231.075px" style="font-family:'LucidaGrande', 'Lucida Grande', sans-serif;font-weight:500;font-size:9px;fill:rgb(35,31,32);">2<tspan x="138.011px " y="231.075px ">0</tspan></text>
            <text x="145.298px" y="231.075px" style="font-family:'LucidaGrande', 'Lucida Grande', sans-serif;font-weight:500;font-size:9px;fill:rgb(35,31,32);">(<tspan x="148.351px 153.324px 160.191px 167.309px " y="231.075px 231.075px 231.075px 231.075px ">SDO)</tspan></text>
            <text x="108.659px" y="241.875px" style="font-family:'LucidaGrande', 'Lucida Grande', sans-serif;font-weight:500;font-size:9px;fill:rgb(35,31,32);">GPIO <tspan x="132.69px " y="241.875px ">2</tspan>1(SC<tspan x="158.193px " y="241.875px ">L</tspan>K)</text>
        </g>
    </g>
</svg>
