<?xml version='1.0' encoding='UTF-8' standalone='no'?>
<!-- Created with Fritzing (http://www.fritzing.org/) -->
<svg xmlns:svg='http://www.w3.org/2000/svg' xmlns='http://www.w3.org/2000/svg' version='1.2' baseProfile='tiny' x='0in' y='0in' width='1.41346in' height='2.10933in' viewBox='0 0 101.769 151.872' >
<path stroke='#000000' stroke-width='3' stroke-linecap='round' stroke-linejoin='round' fill='none' d='M95.269,17.65L100.269,17.65' />
<path stroke='#ff0000' stroke-width='3' stroke-linecap='round' stroke-linejoin='round' fill='none' d='M95.269,10.47L100.269,10.47' />
<g partID='1250080'><g  id="breadboard">
 <rect  id="connector0pin" width="1.256" x="95" y="16.158" fill="none" height="2.998"/>
 <rect  id="connector1pin" width="1.256" x="95" y="8.95799" fill="none" height="3"/>
 <g  id="connector0leg" stroke-linecap="round" y1="17.65" y2="17.65" x1="95.269" stroke="#000000" x2="100.269" stroke-width="3" fill="none"/>
 <g  id="connector1leg" stroke-linecap="round" y1="10.47" y2="10.47" x1="95.269" stroke="#FF0000" x2="100.269" stroke-width="3" fill="none"/>
 <g >
  <g >
   <path  d="M9.572,13.877l14.457,0c0.312,0,0.566,-0.255,0.566,-0.566999L24.595,5.09099c0,-0.312,-0.255,-0.566999,-0.566,-0.566999l-7.229,0L9.572,4.52399c-0.312,0,-0.566,0.255,-0.566,0.566999l0,8.21899C9.006,13.623,9.261,13.877,9.572,13.877zM9.876,5.18799c0,-0.304,0.248,-0.551999,0.552,-0.551999l6.373,0l6.373,0c0.304,0,0.552,0.248,0.552,0.551999l0,8.02499c0,0.304,-0.248,0.551999,-0.552,0.551999L10.428,13.765c-0.304,0,-0.552,-0.248,-0.552,-0.551999L9.876,5.18799z" fill="#939393"/>
   <path  d="M10.428,13.765l6.373,0l6.373,0c0.304,0,0.552,-0.248,0.552,-0.551999L23.726,5.18799c0,-0.304,-0.248,-0.551999,-0.552,-0.551999l-6.373,0l-6.373,0c-0.304,0,-0.552,0.248,-0.552,0.551999l0,8.02499C9.876,13.517,10.124,13.765,10.428,13.765z" fill="#B2B2B2"/>
   <path  d="M11.673,13.676l5.128,0l5.128,0c0.28,0,0.51,-0.229,0.51,-0.509999l0,-7.61999c0,-0.281,-0.229,-0.509999,-0.51,-0.509999l-3.981,0c0.109,0.0939999,0.186,0.232,0.186,0.395999l0,6.86499c0,0.281,-0.21,0.509999,-0.466,0.509999l-0.866,0l-2.474,0c-0.256,0,-0.466,-0.229,-0.466,-0.509999L13.862,5.43299c0,-0.164,0.076,-0.303,0.186,-0.395999l-2.374,0c-0.28,0,-0.51,0.229,-0.51,0.509999l0,7.61999C11.163,13.448,11.393,13.676,11.673,13.676z" fill="#E6E6E6"/>
   <path  opacity="0.9" d="M19.241,5.75899c0,-0.299,-0.199,-0.541999,-0.442,-0.541999l2.173,0c0.244,0,0.443,0.243,0.443,0.541999l0,7.27699c0,0.299,-0.199,0.541999,-0.443,0.541999l-2.173,0c0.243,0,0.442,-0.243,0.442,-0.541999L19.241,5.75899z" fill="#FFFFFF"/>
  </g>
  <rect  opacity="0.1" width="15.547" x="9.017" y="4.56399" height="1.547"/>
 </g>
 <g >
  <path  d="M27.12,7.77799c-0.384,-0.017,-1.126,0.672999,-1.126,0.672999s-0.365,-0.742999,-1.012,-0.791999c-2.887,-0.216,-4.328,-0.119,-7.214,-0.119c-0.39,0,-0.813,-0.014,-0.996,0.490999C16.592,7.52599,16.17,7.53999,15.779,7.53999c-2.945,0,-4.413,-0.0859999,-7.36,0.137C7.704,7.72999,7.402,8.46699,7.402,8.46699S6.98,7.74899,6.55,7.76799c-0.519,0.00999998,-1.007,-0.029,-1.046,0.417999c-0.152,1.734,-0.295,2.528,-0.371,4.08299c-0.065,1.324,0.391,1.901,0.391,3.37799c0,1.017,0.904,2.17,1.673,2.17c2.716,0,4.074,-0.0619999,6.79,0.143c1.206,0.0909999,2.451,-0.142,2.786,-1.229c0.336,1.088,1.585,1.323,2.791,1.232c2.715,-0.204,4.072,-0.146,6.788,-0.146c0.768,0,1.538,-1.234,1.538,-2.171c0,0,0.683,-2.106,0.574,-3.67499S27.908,8.16999,27.908,8.16999C27.854,7.53099,27.305,7.78599,27.12,7.77799z" fill="#919191"/>
  <g >
   <path  d="M5.615,10.111c0.849,-0.252,1.446,-0.491999,1.446,-0.491999c-0.174,1.797,-0.276,2.646,0.001,4.16299c-0.52,-0.0919999,-1.006,-0.175,-1.477,-0.25C5.308,12.232,5.519,11.617,5.615,10.111z" fill="#F4F4F4"/>
   <path  d="M5.865,8.17699c0.747,0.0389999,1.273,0.641999,1.196,1.441c0,0,-0.598,0.24,-1.446,0.491999C5.665,9.33699,5.797,8.95099,5.865,8.17699z" fill="#B7B7B7"/>
   <path  d="M6.958,12.878c0.015,0.598999,0.095,0.821999,0.188,1.341c0.121,0.679999,-0.505,1.354,-1.258,1.407c0,-0.925999,-0.131,-1.295,-0.302,-2.095C6.145,13.532,6.971,13.42,6.958,12.878z" fill="#999999"/>
  </g>
  <g >
   <path  d="M7.822,9.56798c0.062,-0.834999,0.548,-1.543,1.064,-1.58c2.619,-0.189,3.907,-0.101,6.508,-0.101c0.515,0,0.932,0.674999,0.932,1.51c0,0,-0.187,1.416,-0.187,2.246s0.187,2.157,0.187,2.157c0,1.239,-0.417,2.104,-0.932,2.075c-2.601,-0.147,-3.902,-0.24,-6.503,-0.24c-0.513,0,-0.903,-0.706999,-1.001,-1.416C7.657,12.519,7.672,11.573,7.822,9.56798z" fill="#F4F4F4"/>
   <g >
    <path  d="M8.887,7.98799c2.619,-0.189,3.907,-0.101,6.508,-0.101c0.515,0,0.932,0.674999,0.932,1.51c0,0,-2.748,0.12,-4.409,0.12c-1.786,0,-4.095,0.0509999,-4.095,0.0509999C7.885,8.73299,8.37,8.02499,8.887,7.98799z" fill="#B7B7B7"/>
   </g>
   <g >
    <path  d="M8.892,15.635c2.601,0,3.902,0.0929999,6.503,0.24c0.515,0.029,0.932,-0.640999,0.932,-1.472c0,-0.245,0,-0.367999,0,-0.612999c-1.22,-0.395999,-2.746,-0.641999,-4.407,-0.642999c-1.797,-0.000999998,-3.009,0.598999,-4.171,-0.354999c-0.002,0.644999,0.067,0.878999,0.143,1.427C7.988,14.928,8.379,15.635,8.892,15.635z" fill="#999999"/>
   </g>
  </g>
  <g >
   <path  d="M27.931,10.108c-0.851,-0.254,-1.449,-0.493999,-1.449,-0.493999c0.171,1.797,0.272,2.65,0,4.16799c0.52,-0.0919999,1.004,-0.175,1.476,-0.25C28.232,12.232,28.028,11.614,27.931,10.108z" fill="#F4F4F4"/>
   <path  d="M27.683,8.17399c-0.747,0.0369999,-1.277,0.639999,-1.201,1.439c0,0,0.599,0.24,1.449,0.493999C27.881,9.33399,27.751,8.94799,27.683,8.17399z" fill="#B7B7B7"/>
   <path  d="M26.584,12.547c0.006,0.714999,-0.072,1.037,-0.184,1.672c-0.119,0.679999,0.506,1.354,1.259,1.407c0,-0.925999,0.129,-1.295,0.298,-2.095C27.535,13.532,26.589,13.198,26.584,12.547z" fill="#999999"/>
  </g>
  <g >
   <path  d="M25.722,9.56198c-0.062,-0.834999,-0.546,-1.541,-1.062,-1.578c-2.617,-0.187,-3.907,-0.0969998,-6.507,-0.0969998c-0.515,0,-0.928,0.674999,-0.928,1.51c0,0,0.169,1.522,0.169,2.435s-0.169,1.968,-0.169,1.968c0,0.831999,0.413,2.108,0.928,2.08c2.6,-0.144,3.901,-0.244,6.501,-0.244c0.513,0,0.904,-0.706999,0.999,-1.416C25.882,12.519,25.868,11.567,25.722,9.56198z" fill="#F4F4F4"/>
   <g >
    <path  d="M24.66,7.98399c-2.617,-0.187,-3.907,-0.0969998,-6.507,-0.0969998c-0.515,0,-0.928,0.674999,-0.928,1.51c0,0,2.744,0.12,4.405,0.12c1.786,0,4.091,0.0449999,4.091,0.0449999C25.66,8.72699,25.176,8.02099,24.66,7.98399z" fill="#B7B7B7"/>
   </g>
   <g >
    <path  d="M24.654,15.635c-2.6,0,-3.901,0.101,-6.501,0.244c-0.515,0.028,-0.928,-0.641999,-0.928,-1.474c0,-0.245,0,-0.367999,0,-0.613999c1.219,-0.394999,2.745,-0.641999,4.405,-0.643999c1.796,-0.002,3.2,0.333999,4.164,-0.566999c0.001,0.710999,-0.059,1.019,-0.142,1.639C25.559,14.928,25.167,15.635,24.654,15.635z" fill="#999999"/>
   </g>
  </g>
 </g>
 <g >
  <path  d="M60.123,7.34199L45.666,7.34199c-0.312,0,-0.566,0.255,-0.566,0.566999l0,8.21899c0,0.312,0.255,0.566999,0.566,0.566999l7.229,0l7.229,0c0.312,0,0.566,-0.255,0.566,-0.566999L60.69,7.90999C60.689,7.59699,60.435,7.34199,60.123,7.34199zM59.819,16.032c0,0.304,-0.248,0.551999,-0.552,0.551999l-6.373,0l-6.373,0c-0.304,0,-0.552,-0.248,-0.552,-0.551999L45.969,8.00599c0,-0.304,0.248,-0.551999,0.552,-0.551999l12.746,0c0.304,0,0.552,0.248,0.552,0.551999L59.819,16.032z" fill="#939393"/>
  <path  d="M59.268,7.45499l-6.373,0l-6.373,0c-0.304,0,-0.552,0.248,-0.552,0.551999l0,8.02499c0,0.304,0.248,0.551999,0.552,0.551999l6.373,0l6.373,0c0.304,0,0.552,-0.248,0.552,-0.551999L59.82,8.00599C59.819,7.70299,59.571,7.45499,59.268,7.45499z" fill="#B2B2B2"/>
  <path  d="M58.022,7.54299l-5.128,0l-5.128,0c-0.28,0,-0.51,0.229,-0.51,0.509999l0,7.61999c0,0.281,0.229,0.509999,0.51,0.509999l3.981,0c-0.109,-0.0939999,-0.186,-0.232,-0.186,-0.395999L51.561,8.92099c0,-0.281,0.21,-0.509999,0.466,-0.509999l0.866,0l2.474,0c0.256,0,0.466,0.229,0.466,0.509999l0,6.86499c0,0.164,-0.076,0.303,-0.186,0.395999l2.374,0c0.28,0,0.51,-0.229,0.51,-0.509999l0,-7.61999C58.532,7.77199,58.303,7.54299,58.022,7.54299z" fill="#E6E6E6"/>
  <path  opacity="0.9" d="M50.454,15.46c0,0.299,0.199,0.541999,0.442,0.541999l-2.173,0c-0.244,0,-0.443,-0.243,-0.443,-0.541999L48.28,8.18299c0,-0.299,0.199,-0.541999,0.443,-0.541999l2.173,0c-0.243,0,-0.442,0.243,-0.442,0.541999L50.454,15.46z" fill="#FFFFFF"/>
 </g>
 <rect  width="15.547" x="45.132" y="15.109" fill="none" height="1.547"/>
 <rect  opacity="0.1" width="22.592" x="5.382" y="15.109" height="1.547"/>
 <path  d="M5.67,151.871l0.06,0c-0.099,0,-0.195,-0.00699999,-0.293,-0.00999998C5.515,151.864,5.591,151.871,5.67,151.871z" fill="#353535"/>
 <path  d="M5.111,151.847c-0.021,-0.000999998,-0.041,-0.00399999,-0.062,-0.00599999C5.07,151.843,5.091,151.846,5.111,151.847z" fill="#353535"/>
 <path  opacity="0.35" d="M5.437,151.861c-0.108,-0.00399999,-0.219,-0.00499999,-0.325,-0.014C5.218,151.855,5.327,151.857,5.437,151.861z"/>
 <path  d="M70.727,148.251c-0.606,0.895999,-2.843,1.566,-5.498,1.566L5.729,149.817c-3.117,0,-5.666,-0.923999,-5.666,-2.052l0,0.124c0.36,2.076,2.42,3.72099,4.986,3.95099c0.021,0.002,0.041,0.00499999,0.062,0.00599999c0.106,0.00899999,0.217,0.00999998,0.325,0.014c0.098,0.003,0.194,0.00999998,0.293,0.00999998l59.469,0C67.893,151.871,70.159,150.315,70.727,148.251z" fill="#353535"/>
 <path  opacity="0.35" d="M70.727,148.251c-0.606,0.895999,-2.843,1.566,-5.498,1.566L5.729,149.817c-3.117,0,-5.666,-0.923999,-5.666,-2.052l0,0.124c0.36,2.076,2.42,3.72099,4.986,3.95099c0.021,0.002,0.041,0.00499999,0.062,0.00599999c0.106,0.00899999,0.217,0.00999998,0.325,0.014c0.098,0.003,0.194,0.00999998,0.293,0.00999998l59.469,0C67.893,151.871,70.159,150.315,70.727,148.251z"/>
 <g >
  <g >
   <path  d="M66.331,15.798c1.985,0,4.536,1.702,4.536,3.78299l0,127.662c0,2.545,-2.551,4.62699,-5.669,4.62699L5.67,151.87c-3.118,0,-5.669,-2.082,-5.669,-4.62699L0.001,19.582c0,-2.081,2.551,-3.78299,6.802,-3.78299L66.331,15.799z" fill="#353535"/>
   <path  d="M70.867,49.3939L0.001,49.3939L0.001,19.582c0,-2.08,2.551,-3.78299,6.802,-3.78299l59.528,0c1.985,0,4.536,1.703,4.536,3.78299L70.867,49.3939z" fill="#D18D52"/>
  </g>
  <path  opacity="0.15" d="M69.604,147.766c0,0.574999,-1.594,1.067,-3.783,1.237L65.821,17.89c2.189,0.139,3.783,0.540999,3.783,1.012L69.604,147.766z" fill="#FFFFFF"/>
  <path  opacity="0.15" d="M1.145,147.766c0,0.574999,1.594,1.067,3.783,1.237L4.928,17.89c-2.189,0.139,-3.783,0.540999,-3.783,1.012L1.145,147.766z" fill="#FFFFFF"/>
  <path  opacity="0.35" d="M1.145,18.89c0,-0.585999,2.464,-1.065,5.477,-1.065l57.507,0c3.013,0,5.477,0.478999,5.477,1.065l0,-0.218c0,-1.052,-2.464,-1.913,-5.477,-1.913L6.621,16.759c-3.013,0,-5.477,0.860999,-5.477,1.913L1.144,18.89z" fill="#FFFFFF"/>
  <g  opacity="0.2">
   <path  d="M69.604,18.521c0,0,0,128.894,0,130.529c0.628,-0.297,0.628,-0.297,1,-0.645999c0,-0.624999,0,-126.22,0,-126.681C70.604,20.658,69.897,19.162,69.604,18.521z"/>
  </g>
  <g  opacity="0.2">
   <path  d="M1.145,18.521c0,0,0,128.894,0,130.529c-0.628,-0.297,-0.628,-0.297,-1,-0.645999c0,-0.624999,0,-126.22,0,-126.681C0.145,20.658,0.852,19.162,1.145,18.521z"/>
  </g>
 </g>
 <path  stroke="#000000" d="M67.713,4.41499c14.469,0,13.856,13.249,27.556,13.249" stroke-width="3" fill="none"/>
 <path  stroke="#FF0000" d="M67.713,4.41699c17.259,0,16.104,6.03499,27.556,6.03499" stroke-width="3" fill="none"/>
 <g >
  <path  d="M42.569,14.396c0.384,0.017,1.126,-0.672999,1.126,-0.672999s0.365,0.742999,1.012,0.791999c2.887,0.216,4.328,0.119,7.214,0.119c0.39,0,0.813,0.014,0.996,-0.490999c0.181,0.504999,0.603,0.490999,0.993,0.490999c2.945,0,4.413,0.0859999,7.36,-0.137c0.715,-0.0539999,1.017,-0.790999,1.017,-0.790999s0.422,0.718999,0.853,0.698999c0.519,-0.00999998,1.007,0.029,1.046,-0.417999c0.152,-1.734,0.295,-2.528,0.371,-4.08299c0.065,-1.324,-0.391,-1.901,-0.391,-3.37799c0,-1.017,-0.904,-2.17,-1.673,-2.17c-2.716,0,-4.074,0.0619999,-6.79,-0.143c-1.206,-0.0909999,-2.451,0.142,-2.786,1.229c-0.336,-1.088,-1.585,-1.323,-2.791,-1.232c-2.715,0.204,-4.072,0.146,-6.788,0.146c-0.768,0,-1.538,1.234,-1.538,2.171c0,0,-0.683,2.106,-0.574,3.67499s0.556,3.80199,0.556,3.80199C41.836,14.643,42.385,14.388,42.569,14.396z" fill="#919191"/>
  <g >
   <path  d="M64.074,12.063c-0.849,0.252,-1.446,0.491999,-1.446,0.491999c0.174,-1.797,0.276,-2.646,-0.001,-4.16299c0.52,0.0919999,1.006,0.175,1.477,0.25C64.382,9.94198,64.171,10.557,64.074,12.063z" fill="#F4F4F4"/>
   <path  d="M63.824,13.997c-0.747,-0.0389999,-1.273,-0.641999,-1.196,-1.441c0,0,0.598,-0.24,1.446,-0.491999C64.024,12.836,63.893,13.223,63.824,13.997z" fill="#B7B7B7"/>
   <path  d="M62.731,9.29499c-0.015,-0.598999,-0.095,-0.821999,-0.188,-1.341c-0.121,-0.679999,0.505,-1.354,1.258,-1.407c0,0.925999,0.131,1.295,0.302,2.095C63.545,8.64199,62.719,8.75299,62.731,9.29499z" fill="#999999"/>
  </g>
  <g >
   <path  d="M61.867,12.606c-0.062,0.834999,-0.548,1.543,-1.064,1.58c-2.619,0.189,-3.907,0.101,-6.508,0.101c-0.515,0,-0.932,-0.674999,-0.932,-1.51c0,0,0.187,-1.416,0.187,-2.246s-0.187,-2.157,-0.187,-2.157c0,-1.239,0.417,-2.104,0.932,-2.075c2.601,0.147,3.902,0.24,6.503,0.24c0.513,0,0.903,0.706999,1.001,1.416C62.032,9.65498,62.018,10.601,61.867,12.606z" fill="#F4F4F4"/>
   <g >
    <path  d="M60.803,14.186c-2.619,0.189,-3.907,0.101,-6.508,0.101c-0.515,0,-0.932,-0.674999,-0.932,-1.51c0,0,2.748,-0.12,4.409,-0.12c1.786,0,4.095,-0.0509999,4.095,-0.0509999C61.805,13.441,61.319,14.149,60.803,14.186z" fill="#B7B7B7"/>
   </g>
   <g >
    <path  d="M60.798,6.53899c-2.601,0,-3.902,-0.0929999,-6.503,-0.24c-0.515,-0.029,-0.932,0.640999,-0.932,1.472c0,0.245,0,0.367999,0,0.612999c1.22,0.395999,2.746,0.641999,4.407,0.642999c1.797,0.000999998,3.009,-0.598999,4.171,0.354999c0.002,-0.644999,-0.067,-0.878999,-0.143,-1.427C61.701,7.24599,61.311,6.53899,60.798,6.53899z" fill="#999999"/>
   </g>
  </g>
  <g >
   <path  d="M41.759,12.066c0.851,0.254,1.449,0.493999,1.449,0.493999c-0.171,-1.797,-0.272,-2.65,0,-4.16799c-0.52,0.0919999,-1.004,0.175,-1.476,0.25C41.457,9.94198,41.661,10.56,41.759,12.066z" fill="#F4F4F4"/>
   <path  d="M42.007,14c0.747,-0.0369999,1.277,-0.639999,1.201,-1.439c0,0,-0.599,-0.24,-1.449,-0.493999C41.809,12.839,41.938,13.226,42.007,14z" fill="#B7B7B7"/>
   <path  d="M43.105,9.62598c-0.006,-0.714999,0.072,-1.037,0.184,-1.672c0.119,-0.679999,-0.506,-1.354,-1.259,-1.407c0,0.925999,-0.129,1.295,-0.298,2.095C42.154,8.64199,43.101,8.97599,43.105,9.62598z" fill="#999999"/>
  </g>
  <g >
   <path  d="M43.968,12.612c0.062,0.834999,0.546,1.541,1.062,1.578c2.617,0.187,3.907,0.0969998,6.507,0.0969998c0.515,0,0.928,-0.674999,0.928,-1.51c0,0,-0.169,-1.522,-0.169,-2.435s0.169,-1.968,0.169,-1.968c0,-0.831999,-0.413,-2.108,-0.928,-2.08c-2.6,0.144,-3.901,0.244,-6.501,0.244c-0.513,0,-0.904,0.706999,-0.999,1.416C43.808,9.65498,43.821,10.607,43.968,12.612z" fill="#F4F4F4"/>
   <g >
    <path  d="M45.029,14.19c2.617,0.187,3.907,0.0969998,6.507,0.0969998c0.515,0,0.928,-0.674999,0.928,-1.51c0,0,-2.744,-0.12,-4.405,-0.12c-1.786,0,-4.091,-0.0449999,-4.091,-0.0449999C44.029,13.447,44.514,14.153,45.029,14.19z" fill="#B7B7B7"/>
   </g>
   <g >
    <path  d="M45.035,6.53899c2.6,0,3.901,-0.101,6.501,-0.244c0.515,-0.028,0.928,0.641999,0.928,1.474c0,0.245,0,0.367999,0,0.613999c-1.219,0.394999,-2.745,0.641999,-4.405,0.643999c-1.796,0.002,-3.2,-0.333999,-4.164,0.566999c-0.001,-0.710999,0.059,-1.019,0.142,-1.639C44.131,7.24599,44.522,6.53899,45.035,6.53899z" fill="#999999"/>
   </g>
  </g>
 </g>
 <path  d="M67.753,6.91699c0,0,0,-3.56299,0,-4.47999C67.753,0.737999,66.587,0,61.496,0L9.354,0C4.263,0,3.097,0.737999,3.097,2.437c0,0.916999,0,4.47999,0,4.47999L67.753,6.91699z" fill="#262626"/>
 <path  opacity="0.35" d="M62.767,0.565999c3.609,0,4.257,0.860999,4.257,1.913l0,0.218c0,-0.585999,-1.447,-1.065,-4.257,-1.065L8.082,1.632c-2.81,0,-4.257,0.478999,-4.257,1.065L3.825,2.479c0,-1.052,0.647,-1.913,4.257,-1.913L62.767,0.565999z" fill="#FFFFFF"/>
 <path  opacity="0.15" d="M5.586,1.815c-1.152,0.188,-1.761,0.509999,-1.761,0.881999l0,3.81699l1.761,0L5.586,1.815z" fill="#FFFFFF"/>
 <path  opacity="0.15" d="M65.263,1.815c1.152,0.188,1.761,0.509999,1.761,0.881999l0,3.81699l-1.761,0L65.263,1.815z" fill="#FFFFFF"/>
 <g >
  <g transform="matrix(1, 0, 0, 1, 22.6406, 75.9354)">
   <text   font-size="22" fill="#FFFFFF">9</text>
  </g>
  <g transform="matrix(1, 0, 0, 1, 36.5776, 75.9359)">
   <text   font-size="22" fill="#FFFFFF">v</text>
  </g>
 </g>
</g>
</g></svg>