<?xml version="1.0" encoding="utf-8"?>
<!-- Generator: Adobe Illustrator 16.0.4, SVG Export Plug-In . SVG Version: 6.00 Build 0)  -->
<!DOCTYPE svg PUBLIC "-//W3C//DTD SVG 1.1//EN" "http://www.w3.org/Graphics/SVG/1.1/DTD/svg11.dtd">
<svg version="1.1" id="Layer_1" xmlns="http://www.w3.org/2000/svg" xmlns:xlink="http://www.w3.org/1999/xlink" x="0px" y="0px"
	 width="419.469px" height="274.336px" viewBox="0 0 419.469 274.336" enable-background="new 0 0 419.469 274.336"
	 xml:space="preserve">
<g>
	<path fill="#FFFFFF" stroke="#010101" stroke-width="2" stroke-miterlimit="10" d="M63.719,118.173
		c8.44,0,15.282,6.842,15.282,15.281c0,8.44-6.842,15.282-15.282,15.282"/>
	<path fill="#FFFFFF" stroke="#010101" stroke-width="2" stroke-miterlimit="10" d="M63.719,148.737
		c8.44,0,15.282,6.843,15.282,15.282S72.159,179.3,63.719,179.3"/>
	<path fill="#FFFFFF" stroke="#010101" stroke-width="2" stroke-miterlimit="10" d="M63.719,179.3
		c8.44,0,15.282,6.843,15.282,15.283c0,8.439-6.842,15.281-15.282,15.281"/>
	<path fill="#FFFFFF" stroke="#010101" stroke-width="2" stroke-miterlimit="10" d="M63.719,209.865
		c8.44,0,15.282,6.842,15.282,15.282s-6.842,15.282-15.282,15.282"/>
</g>
<line fill="none" stroke="#010101" stroke-width="2" stroke-miterlimit="10" x1="63.719" y1="118.173" x2="29.443" y2="118.173"/>
<line fill="none" stroke="#010101" stroke-width="2" stroke-miterlimit="10" x1="63.719" y1="240.429" x2="29.443" y2="240.429"/>
<g>
	<path fill="#FFFFFF" stroke="#010101" stroke-width="2" stroke-miterlimit="10" d="M123.558,118.173
		c-8.44,0-15.283,6.842-15.283,15.281c0,8.44,6.843,15.282,15.283,15.282"/>
	<path fill="#FFFFFF" stroke="#010101" stroke-width="2" stroke-miterlimit="10" d="M123.558,148.737
		c-8.44,0-15.283,6.843-15.283,15.282s6.843,15.281,15.283,15.281"/>
	<path fill="#FFFFFF" stroke="#010101" stroke-width="2" stroke-miterlimit="10" d="M123.558,179.3
		c-8.44,0-15.283,6.843-15.283,15.283c0,8.439,6.843,15.281,15.283,15.281"/>
	<path fill="#FFFFFF" stroke="#010101" stroke-width="2" stroke-miterlimit="10" d="M123.558,209.865
		c-8.44,0-15.283,6.842-15.283,15.282s6.843,15.282,15.283,15.282"/>
</g>
<line fill="none" stroke="#010101" stroke-width="2" stroke-miterlimit="10" x1="123.558" y1="118.173" x2="157.834" y2="118.173"/>
<line fill="none" stroke="#010101" stroke-width="2" stroke-miterlimit="10" x1="123.558" y1="240.429" x2="157.834" y2="240.429"/>
<g>
	<path fill="#FFFFFF" stroke="#010101" stroke-width="2" stroke-miterlimit="10" d="M287.164,118.173
		c8.438,0,15.281,6.842,15.281,15.281c0,8.44-6.843,15.282-15.281,15.282"/>
	<path fill="#FFFFFF" stroke="#010101" stroke-width="2" stroke-miterlimit="10" d="M287.164,148.737
		c8.438,0,15.281,6.843,15.281,15.282s-6.843,15.281-15.281,15.281"/>
	<path fill="#FFFFFF" stroke="#010101" stroke-width="2" stroke-miterlimit="10" d="M287.164,179.3
		c8.438,0,15.281,6.843,15.281,15.283c0,8.439-6.843,15.281-15.281,15.281"/>
	<path fill="#FFFFFF" stroke="#010101" stroke-width="2" stroke-miterlimit="10" d="M287.164,209.865
		c8.438,0,15.281,6.842,15.281,15.282s-6.843,15.282-15.281,15.282"/>
</g>
<line fill="none" stroke="#010101" stroke-width="2" stroke-miterlimit="10" x1="287.164" y1="118.173" x2="252.888" y2="118.173"/>
<line fill="none" stroke="#010101" stroke-width="2" stroke-miterlimit="10" x1="287.164" y1="240.429" x2="252.888" y2="240.429"/>
<g>
	<path fill="#FFFFFF" stroke="#010101" stroke-width="2" stroke-miterlimit="10" d="M347.003,118.173
		c-8.439,0-15.283,6.842-15.283,15.281c0,8.44,6.844,15.282,15.283,15.282"/>
	<path fill="#FFFFFF" stroke="#010101" stroke-width="2" stroke-miterlimit="10" d="M347.003,148.737
		c-8.439,0-15.283,6.843-15.283,15.282s6.844,15.281,15.283,15.281"/>
	<path fill="#FFFFFF" stroke="#010101" stroke-width="2" stroke-miterlimit="10" d="M347.003,179.3
		c-8.439,0-15.283,6.843-15.283,15.283c0,8.439,6.844,15.281,15.283,15.281"/>
	<path fill="#FFFFFF" stroke="#010101" stroke-width="2" stroke-miterlimit="10" d="M347.003,209.865
		c-8.439,0-15.283,6.842-15.283,15.282s6.844,15.282,15.283,15.282"/>
</g>
<line fill="none" stroke="#010101" stroke-width="2" stroke-miterlimit="10" x1="347.003" y1="118.173" x2="381.278" y2="118.173"/>
<line fill="none" stroke="#010101" stroke-width="2" stroke-miterlimit="10" x1="347.003" y1="240.429" x2="381.278" y2="240.429"/>
<line fill="none" stroke="#010101" stroke-width="2" stroke-miterlimit="10" x1="287.164" y1="179.3" x2="252.888" y2="179.3"/>
<line fill="none" stroke="#010101" stroke-width="2" stroke-miterlimit="10" x1="347.003" y1="179.3" x2="381.278" y2="179.3"/>
<text transform="matrix(1 0 0 1 129.9932 43.4292)" fill="#010101" font-family="'HelveticaNeue'" font-size="15.7187">Bipolar stepper motors</text>
<text transform="matrix(1 0 0 1 79.5898 84.0894)" fill="#010101" font-family="'HelveticaNeue'" font-size="15.7187">4-wire</text>
<text transform="matrix(1 0 0 1 290.4775 84.0894)" fill="#010101" font-family="'HelveticaNeue'" font-size="15.7187">6-wire</text>
<text transform="matrix(1 0 0 1 27.8057 108.2397)" fill="#010101" font-family="'HelveticaNeue'" font-size="15.7187">coil 1</text>
<text transform="matrix(1 0 0 1 118.9512 108.2397)" fill="#010101" font-family="'HelveticaNeue'" font-size="15.7187">coil 2</text>
<text transform="matrix(1 0 0 1 251.9209 108.2397)" fill="#010101" font-family="'HelveticaNeue'" font-size="15.7187">coil 1</text>
<text transform="matrix(1 0 0 1 345.3643 108.2397)" fill="#010101" font-family="'HelveticaNeue'" font-size="15.7187">coil 2</text>
</svg>
