<?xml version="1.0" encoding="utf-8"?>
<!-- Generator: Adobe Illustrator 16.0.4, SVG Export Plug-In . SVG Version: 6.00 Build 0)  -->
<!DOCTYPE svg PUBLIC "-//W3C//DTD SVG 1.1//EN" "http://www.w3.org/Graphics/SVG/1.1/DTD/svg11.dtd">
<svg version="1.1" id="Layer_1" xmlns="http://www.w3.org/2000/svg" xmlns:xlink="http://www.w3.org/1999/xlink" x="0px" y="0px"
	 width="234.615px" height="464.103px" viewBox="0 0 234.615 464.103" enable-background="new 0 0 234.615 464.103"
	 xml:space="preserve">
<g>
	
		<line fill="none" stroke="#000000" stroke-width="2" stroke-linecap="round" stroke-miterlimit="10" x1="32.517" y1="84.462" x2="32.517" y2="135.128"/>
	
		<line fill="none" stroke="#000000" stroke-width="2" stroke-linecap="round" stroke-miterlimit="10" x1="32.517" y1="186.462" x2="32.517" y2="237.128"/>
	
		<line fill="none" stroke="#000000" stroke-width="2" stroke-linecap="round" stroke-miterlimit="10" x1="32.517" y1="135.128" x2="62.852" y2="186.462"/>
</g>
<g>
	
		<line fill="none" stroke="#000000" stroke-width="2" stroke-linecap="round" stroke-miterlimit="10" x1="174.852" y1="84.462" x2="174.852" y2="135.128"/>
	
		<line fill="none" stroke="#000000" stroke-width="2" stroke-linecap="round" stroke-miterlimit="10" x1="174.852" y1="186.462" x2="174.852" y2="237.128"/>
	
		<line fill="none" stroke="#000000" stroke-width="2" stroke-linecap="round" stroke-miterlimit="10" x1="174.852" y1="135.128" x2="205.187" y2="186.462"/>
</g>
<g>
	
		<line fill="none" stroke="#000000" stroke-width="2" stroke-linecap="round" stroke-miterlimit="10" x1="174.851" y1="237.128" x2="174.851" y2="287.794"/>
	
		<line fill="none" stroke="#000000" stroke-width="2" stroke-linecap="round" stroke-miterlimit="10" x1="174.851" y1="339.128" x2="174.851" y2="389.794"/>
	
		<line fill="none" stroke="#000000" stroke-width="2" stroke-linecap="round" stroke-miterlimit="10" x1="174.851" y1="287.794" x2="205.187" y2="339.128"/>
</g>
<g>
	
		<line fill="none" stroke="#000000" stroke-width="2" stroke-linecap="round" stroke-miterlimit="10" x1="32.516" y1="237.128" x2="32.516" y2="287.794"/>
	
		<line fill="none" stroke="#000000" stroke-width="2" stroke-linecap="round" stroke-miterlimit="10" x1="32.516" y1="339.128" x2="32.516" y2="389.794"/>
	
		<line fill="none" stroke="#000000" stroke-width="2" stroke-linecap="round" stroke-miterlimit="10" x1="32.516" y1="287.794" x2="62.852" y2="339.128"/>
</g>
<circle fill="none" stroke="#000000" stroke-width="2" stroke-linecap="round" stroke-miterlimit="10" cx="103.519" cy="237.128" r="29.999"/>
<line fill="none" stroke="#000000" stroke-width="2" stroke-linecap="round" stroke-miterlimit="10" x1="32.517" y1="237.128" x2="73.52" y2="237.128"/>
<line fill="none" stroke="#000000" stroke-width="2" stroke-linecap="round" stroke-miterlimit="10" x1="133.517" y1="237.128" x2="174.852" y2="237.128"/>
<line fill="none" stroke="#000000" stroke-width="2" stroke-linecap="round" stroke-miterlimit="10" x1="32.517" y1="84.462" x2="174.852" y2="84.462"/>
<line fill="none" stroke="#000000" stroke-width="2" stroke-linecap="round" stroke-miterlimit="10" x1="32.516" y1="389.794" x2="174.851" y2="389.794"/>
<line fill="none" stroke="#000000" stroke-width="2" stroke-linecap="round" stroke-miterlimit="10" x1="103.684" y1="389.794" x2="103.684" y2="419.796"/>
<line fill="none" stroke="#000000" stroke-width="2" stroke-linecap="round" stroke-miterlimit="10" x1="103.684" y1="84.462" x2="103.684" y2="57.13"/>
<line fill="none" stroke="#000000" stroke-width="2" stroke-linecap="round" stroke-miterlimit="10" x1="90.185" y1="420.128" x2="116.853" y2="420.128"/>
<line fill="none" stroke="#000000" stroke-width="2" stroke-linecap="round" stroke-miterlimit="10" x1="96.516" y1="428.795" x2="110.853" y2="428.795"/>
<line fill="none" stroke="#000000" stroke-width="2" stroke-linecap="round" stroke-miterlimit="10" x1="99.518" y1="438.795" x2="107.519" y2="438.795"/>
<circle cx="32.517" cy="237.128" r="4.167"/>
<circle cx="103.684" cy="389.794" r="4.167"/>
<circle cx="174.852" cy="237.128" r="4.167"/>
<circle cx="103.519" cy="84.462" r="4.167"/>
<text transform="matrix(1 0 0 1 93.2324 245.6284)" font-family="'HelveticaNeue'" font-size="24">M</text>
<text transform="matrix(1 0 0 1 13.0054 172.9609)" font-family="'HelveticaNeue'" font-size="24">1</text>
<text transform="matrix(1 0 0 1 207.6719 172.9609)" font-family="'HelveticaNeue'" font-size="24">3</text>
<text transform="matrix(1 0 0 1 207.6719 318.2939)" font-family="'HelveticaNeue'" font-size="24">4</text>
<text transform="matrix(1 0 0 1 13.0054 318.2939)" font-family="'HelveticaNeue'" font-size="24">2</text>
<text transform="matrix(1 0 0 1 89.1523 40.6284)" font-family="'HelveticaNeue'" font-size="24">+V</text>
</svg>
