<?xml version="1.0" encoding="utf-8"?>
<!-- Generator: Adobe Illustrator 16.0.4, SVG Export Plug-In . SVG Version: 6.00 Build 0)  -->
<!DOCTYPE svg PUBLIC "-//W3C//DTD SVG 1.1//EN" "http://www.w3.org/Graphics/SVG/1.1/DTD/svg11.dtd">
<svg version="1.1" id="Layer_1" xmlns="http://www.w3.org/2000/svg" xmlns:xlink="http://www.w3.org/1999/xlink" x="0px" y="0px"
	 width="598.5px" height="225.5px" viewBox="0 0 598.5 225.5" enable-background="new 0 0 598.5 225.5" xml:space="preserve">
<path fill="none" stroke="#000000" stroke-width="2" stroke-miterlimit="10" d="M69.972,141.308
	c1.624,11.593,31.933,16.928,67.696,11.918c35.764-5.011,63.44-18.47,61.815-30.063l0.068,1.035
	c0-11.705-29.275-21.194-65.388-21.194s-65.388,9.489-65.388,21.194v-0.346c1.624,11.593,31.933,16.929,67.696,11.918
	c35.764-5.011,63.439-18.47,61.815-30.063l0.068,1.035c0-11.706-29.275-21.194-65.388-21.194c-36.113,0-65.388,9.489-65.388,21.194
	l-0.05,0.014c1.624,11.593,31.933,16.929,67.696,11.918c35.764-5.011,63.44-18.47,61.815-30.063l0.068,1.035
	c0-11.706-29.275-21.194-65.388-21.194s-65.388,9.489-65.388,21.194l-0.027-0.242c1.624,11.593,31.933,16.929,67.696,11.918
	c35.764-5.01,63.44-18.47,61.815-30.062l0.068,1.035c0-11.706-29.275-21.195-65.388-21.195S65.108,60.59,65.108,72.296v-0.548
	c1.624,11.593,31.933,16.928,67.696,11.918s63.439-18.47,61.815-30.063l0.068,1.035c0-11.705-29.275-21.194-65.388-21.194
	c-36.113,0-65.389,9.489-65.389,21.194l-0.002,0.014c1.624,11.593,31.933,16.928,67.696,11.918s63.439-18.47,61.815-30.063
	l0.068,1.035c0-11.705-29.275-21.194-65.388-21.194s-65.388,9.489-65.388,21.194"/>
<path fill="none" stroke="#000000" stroke-width="2" stroke-miterlimit="10" d="M518.364,141.308
	c-1.626,11.593-31.934,16.928-67.697,11.918c-35.764-5.011-63.44-18.47-61.815-30.063l-0.068,1.035
	c0-11.705,29.276-21.194,65.389-21.194s65.389,9.489,65.389,21.194v-0.346c-1.625,11.593-31.934,16.929-67.697,11.918
	c-35.763-5.011-63.439-18.47-61.814-30.063l-0.069,1.035c0-11.706,29.277-21.194,65.39-21.194s65.389,9.489,65.389,21.194
	l0.049,0.014c-1.624,11.593-31.934,16.929-67.697,11.918c-35.764-5.011-63.438-18.47-61.813-30.063l-0.069,1.035
	c0-11.706,29.275-21.194,65.39-21.194c36.112,0,65.388,9.489,65.388,21.194l0.027-0.242c-1.625,11.593-31.934,16.929-67.697,11.918
	c-35.764-5.01-63.44-18.47-61.814-30.062l-0.069,1.035c0-11.706,29.276-21.195,65.389-21.195s65.39,9.489,65.39,21.195v-0.548
	c-1.625,11.593-31.934,16.928-67.697,11.918s-63.44-18.47-61.815-30.063l-0.068,1.035c0-11.705,29.276-21.194,65.389-21.194
	s65.389,9.489,65.389,21.194l0.003,0.014c-1.625,11.593-31.934,16.928-67.697,11.918c-35.763-5.01-63.439-18.47-61.814-30.063
	l-0.069,1.035c0-11.705,29.277-21.194,65.39-21.194c36.111,0,65.389,9.489,65.389,21.194"/>
<g>
	<g>
		<path fill="none" stroke="#000000" stroke-width="2" stroke-miterlimit="10" d="M231.766,61.368
			c0-14.196,27.256-25.704,60.879-25.704c33.621,0,60.878,11.508,60.878,25.704"/>
		<path fill="none" stroke="#000000" stroke-width="2" stroke-miterlimit="10" d="M321.73,61.368c0-5.23-13.022-9.47-29.086-9.47
			c-16.064,0-29.087,4.239-29.087,9.47"/>
		<path fill="none" stroke="#000000" stroke-width="2" stroke-miterlimit="10" d="M321.73,73.543c0-5.23-13.022-9.47-29.086-9.47
			c-16.064,0-29.087,4.239-29.087,9.47"/>
		
			<rect x="231.766" y="61.368" fill="none" stroke="#000000" stroke-width="2" stroke-miterlimit="10" width="31.792" height="14.881"/>
		
			<rect x="321.73" y="61.368" fill="none" stroke="#000000" stroke-width="2" stroke-miterlimit="10" width="31.792" height="14.881"/>
	</g>
	<g>
		<path fill="none" stroke="#000000" stroke-width="2" stroke-miterlimit="10" d="M353.522,88.425
			c0,14.196-27.257,25.705-60.878,25.705c-33.623,0-60.879-11.509-60.879-25.705"/>
		<path fill="none" stroke="#000000" stroke-width="2" stroke-miterlimit="10" d="M353.522,110.088
			c0,14.196-27.257,25.704-60.878,25.704c-33.623,0-60.879-11.508-60.879-25.704"/>
		<path fill="none" stroke="#000000" stroke-width="2" stroke-miterlimit="10" d="M263.558,88.425c0,5.23,13.022,9.47,29.087,9.47
			c16.063,0,29.086-4.24,29.086-9.47"/>
		<line fill="none" stroke="#000000" stroke-width="2" stroke-miterlimit="10" x1="263.558" y1="88.425" x2="231.766" y2="88.425"/>
		<line fill="none" stroke="#000000" stroke-width="2" stroke-miterlimit="10" x1="321.73" y1="88.425" x2="353.522" y2="88.425"/>
		
			<line fill="none" stroke="#000000" stroke-width="2" stroke-miterlimit="10" x1="231.766" y1="88.425" x2="231.766" y2="110.088"/>
		
			<line fill="none" stroke="#000000" stroke-width="2" stroke-miterlimit="10" x1="353.522" y1="88.425" x2="353.522" y2="110.088"/>
	</g>
</g>
<text transform="matrix(1 0 0 1 289.2158 49.4551)" font-family="'HelveticaNeue'" font-size="16.2343">N</text>
<text transform="matrix(1 0 0 1 6.1167 26.6289)" font-family="'HelveticaNeue'" font-size="16.2343">+V</text>
<text transform="matrix(1 0 0 1 26.3418 114.1294)" font-family="'HelveticaNeue'" font-size="16.2343">Coil</text>
<text transform="matrix(1 0 0 1 269.5811 156.0605)"><tspan x="0" y="0" font-family="'HelveticaNeue'" font-size="16.2343">Magnets</tspan><tspan x="-34.879" y="19.481" font-family="'HelveticaNeue'" font-size="16.2343">(on spinning shaft)</tspan></text>
<text transform="matrix(1 0 0 1 533.3213 126.6289)" font-family="'HelveticaNeue'" font-size="16.2343">Coil</text>
<text transform="matrix(1 0 0 1 287.3848 131.4634)" font-family="'HelveticaNeue'" font-size="16.2343">S</text>
<path fill="none" stroke="#000000" stroke-width="2" stroke-miterlimit="10" d="M69.972,141.308
	c0,39.805,99.594,72.015,222.672,72.015"/>
<path fill="none" stroke="#000000" stroke-width="2" stroke-miterlimit="10" d="M518.364,141.308
	c0,39.805-100.957,72.015-225.72,72.015"/>
<line fill="none" stroke="#000000" stroke-width="2" stroke-miterlimit="10" x1="62.711" y1="37.542" x2="26.093" y2="37.542"/>
<line fill="none" stroke="#000000" stroke-width="2" stroke-miterlimit="10" x1="525.625" y1="37.542" x2="569.265" y2="37.542"/>
<g>
	<line fill="none" stroke="#000000" stroke-width="2" stroke-miterlimit="10" x1="569.265" y1="37.542" x2="569.265" y2="61.368"/>
	<line fill="none" stroke="#000000" stroke-width="2" stroke-miterlimit="10" x1="556.413" y1="61.368" x2="582.117" y2="61.368"/>
	<line fill="none" stroke="#000000" stroke-width="2" stroke-miterlimit="10" x1="560.472" y1="67.456" x2="578.059" y2="67.456"/>
	<line fill="none" stroke="#000000" stroke-width="2" stroke-miterlimit="10" x1="563.854" y1="73.543" x2="574.677" y2="73.543"/>
</g>
<g>
	<path fill="none" stroke="#000000" stroke-width="2" stroke-linecap="round" stroke-miterlimit="10" d="M352.802,30
		C346,14.75,336.114,2.328,295.076,2.328c-33.15,0-62.324,15.254-62.324,27.672"/>
	<g>
		
			<line fill="none" stroke="#000000" stroke-width="2" stroke-linecap="round" stroke-miterlimit="10" x1="353.522" y1="31" x2="346" y2="26.629"/>
		
			<line fill="none" stroke="#000000" stroke-width="2" stroke-linecap="round" stroke-miterlimit="10" x1="353.522" y1="31" x2="353.522" y2="22.5"/>
	</g>
</g>
</svg>
