<?xml version="1.0" encoding="utf-8"?>
<!-- Generator: Adobe Illustrator 21.1.0, SVG Export Plug-In . SVG Version: 6.00 Build 0)  -->
<svg version="1.1" id="Ebene_1" xmlns="http://www.w3.org/2000/svg" xmlns:xlink="http://www.w3.org/1999/xlink" x="0px" y="0px"
	 viewBox="0 0 50.4 127.6" style="enable-background:new 0 0 50.4 127.6;" xml:space="preserve">
<style type="text/css">
	.st0{fill:#0F7391;}
	.st1{fill:#FFFFFF;}
	.st2{font-family:'ArialMT';}
	.st3{font-size:2.6726px;}
	.st4{fill:#1A1A1A;}
	.st5{font-size:1.6704px;}
	.st6{fill:none;stroke:#9A916C;stroke-width:1.224;}
	.st7{fill:#CCCCCC;}
	.st8{opacity:0.2;enable-background:new    ;}
	.st9{fill:#333333;}
	.st10{opacity:0.2;fill:#FFFFFF;enable-background:new    ;}
	.st11{fill:none;}
	.st12{fill:#E6E6E6;}
	.st13{opacity:0.1;fill:#1A1A1A;enable-background:new    ;}
	.st14{opacity:0.1;enable-background:new    ;}
	.st15{fill:#F2F2F2;}
	.st16{fill:#83B8BD;}
	.st17{fill:#8E9090;}
	.st18{fill:#7EC632;}
	.st19{fill:#E08948;}
	.st20{fill:#C2C3C3;}
	.st21{fill:#C6C6C6;}
	.st22{fill:#8A9091;}
	.st23{fill:#8C7965;}
</style>
<desc>Fritzing breadboard generated by brd2svg</desc>
<path class="st0" d="M50.4,4.6H0V127h50.4V4.6 M49.1,8.2c0,1.3-1,2.3-2.3,2.3c-1.3,0-2.3-1-2.3-2.3c0,0,0,0,0,0c0-1.3,1-2.3,2.3-2.3
	C48.1,5.8,49.1,6.9,49.1,8.2L49.1,8.2z M5.9,8.2c0,1.3-1,2.3-2.3,2.3c-1.3,0-2.3-1-2.3-2.3l0,0c0-1.3,1-2.3,2.3-2.3
	C4.9,5.8,5.9,6.9,5.9,8.2z M5.9,123.4c0,1.3-1,2.3-2.3,2.3c-1.3,0-2.3-1-2.3-2.3c0-1.3,1-2.3,2.3-2.3C4.9,121,5.9,122.1,5.9,123.4z
	 M49.1,123.4c0,1.3-1,2.3-2.3,2.3c-1.3,0-2.3-1-2.3-2.3c0,0,0,0,0,0c0-1.3,1-2.3,2.3-2.3C48.1,121,49.1,122.1,49.1,123.4
	C49.1,123.4,49.1,123.4,49.1,123.4z M48.1,116.2c0,0.7-0.6,1.3-1.3,1.3c-0.7,0-1.3-0.6-1.3-1.3c0-0.7,0.6-1.3,1.3-1.3
	C47.5,114.9,48.1,115.5,48.1,116.2z M48.1,109c0,0.7-0.6,1.3-1.3,1.3c-0.7,0-1.3-0.6-1.3-1.3c0-0.7,0.6-1.3,1.3-1.3
	C47.5,107.7,48.1,108.3,48.1,109z M48.1,101.8c0,0.7-0.6,1.3-1.3,1.3c-0.7,0-1.3-0.6-1.3-1.3c0-0.7,0.6-1.3,1.3-1.3
	C47.5,100.5,48.1,101.1,48.1,101.8z M48.1,94.6c0,0.7-0.6,1.3-1.3,1.3c-0.7,0-1.3-0.6-1.3-1.3c0-0.7,0.6-1.3,1.3-1.3
	C47.5,93.3,48.1,93.9,48.1,94.6z M48.1,87.4c0,0.7-0.6,1.3-1.3,1.3c-0.7,0-1.3-0.6-1.3-1.3c0-0.7,0.6-1.3,1.3-1.3
	C47.5,86.1,48.1,86.7,48.1,87.4z M48.1,80.2c0,0.7-0.6,1.3-1.3,1.3c-0.7,0-1.3-0.6-1.3-1.3l0,0c0-0.7,0.6-1.3,1.3-1.3
	C47.5,78.9,48.1,79.5,48.1,80.2z M48.1,73c0,0.7-0.6,1.3-1.3,1.3c-0.7,0-1.3-0.6-1.3-1.3l0,0c0-0.7,0.6-1.3,1.3-1.3
	C47.5,71.7,48.1,72.3,48.1,73z M48.1,65.8c0,0.7-0.6,1.3-1.3,1.3c-0.7,0-1.3-0.6-1.3-1.3c0-0.7,0.6-1.3,1.3-1.3
	C47.5,64.5,48.1,65.1,48.1,65.8L48.1,65.8z M48.1,58.6c0,0.7-0.6,1.3-1.3,1.3c-0.7,0-1.3-0.6-1.3-1.3c0-0.7,0.6-1.3,1.3-1.3
	C47.5,57.3,48.1,57.9,48.1,58.6z M48.1,51.4c0,0.7-0.6,1.3-1.3,1.3c-0.7,0-1.3-0.6-1.3-1.3c0-0.7,0.6-1.3,1.3-1.3
	C47.5,50.1,48.1,50.7,48.1,51.4z M48.1,44.2c0,0.7-0.6,1.3-1.3,1.3c-0.7,0-1.3-0.6-1.3-1.3l0,0c0-0.7,0.6-1.3,1.3-1.3
	C47.5,42.9,48.1,43.5,48.1,44.2z M48.1,37c0,0.7-0.6,1.3-1.3,1.3c-0.7,0-1.3-0.6-1.3-1.3s0.6-1.3,1.3-1.3
	C47.5,35.7,48.1,36.3,48.1,37z M48.1,29.8c0,0.7-0.6,1.3-1.3,1.3c-0.7,0-1.3-0.6-1.3-1.3c0-0.7,0.6-1.3,1.3-1.3
	C47.5,28.5,48.1,29.1,48.1,29.8z M48.1,22.6c0,0.7-0.6,1.3-1.3,1.3c-0.7,0-1.3-0.6-1.3-1.3c0-0.7,0.6-1.3,1.3-1.3
	C47.5,21.3,48.1,21.9,48.1,22.6z M48.1,15.4c0,0.7-0.6,1.3-1.3,1.3c-0.7,0-1.3-0.6-1.3-1.3c0-0.7,0.6-1.3,1.3-1.3
	C47.5,14.1,48.1,14.7,48.1,15.4z M4.9,116.2c0,0.7-0.6,1.3-1.3,1.3c-0.7,0-1.3-0.6-1.3-1.3c0,0,0,0,0,0c0-0.7,0.6-1.3,1.3-1.3
	C4.3,114.9,4.9,115.5,4.9,116.2C4.9,116.2,4.9,116.2,4.9,116.2z M4.9,109c0,0.7-0.6,1.3-1.3,1.3c-0.7,0-1.3-0.6-1.3-1.3c0,0,0,0,0,0
	c0-0.7,0.6-1.3,1.3-1.3C4.3,107.7,4.9,108.3,4.9,109C4.9,109,4.9,109,4.9,109z M4.9,101.8c0,0.7-0.6,1.3-1.3,1.3
	c-0.7,0-1.3-0.6-1.3-1.3c0,0,0,0,0,0c0-0.7,0.6-1.3,1.3-1.3C4.3,100.5,4.9,101.1,4.9,101.8C4.9,101.8,4.9,101.8,4.9,101.8z
	 M4.9,94.6c0,0.7-0.6,1.3-1.3,1.3c-0.7,0-1.3-0.6-1.3-1.3c0,0,0,0,0,0c0-0.7,0.6-1.3,1.3-1.3C4.3,93.3,4.9,93.9,4.9,94.6
	C4.9,94.6,4.9,94.6,4.9,94.6z M4.9,87.4c0,0.7-0.6,1.3-1.3,1.3c-0.7,0-1.3-0.6-1.3-1.3c0,0,0,0,0,0c0-0.7,0.6-1.3,1.3-1.3
	C4.3,86.1,4.9,86.7,4.9,87.4C4.9,87.4,4.9,87.4,4.9,87.4z M4.9,80.2c0,0.7-0.6,1.3-1.3,1.3c-0.7,0-1.3-0.6-1.3-1.3c0,0,0,0,0,0
	c0-0.7,0.6-1.3,1.3-1.3C4.3,78.9,4.9,79.5,4.9,80.2C4.9,80.2,4.9,80.2,4.9,80.2z M4.9,73c0,0.7-0.6,1.3-1.3,1.3
	c-0.7,0-1.3-0.6-1.3-1.3c0,0,0,0,0,0c0-0.7,0.6-1.3,1.3-1.3C4.3,71.7,4.9,72.3,4.9,73C4.9,73,4.9,73,4.9,73z M4.9,65.8
	c0,0.7-0.6,1.3-1.3,1.3c-0.7,0-1.3-0.6-1.3-1.3c0,0,0,0,0,0c0-0.7,0.6-1.3,1.3-1.3C4.3,64.5,4.9,65.1,4.9,65.8
	C4.9,65.8,4.9,65.8,4.9,65.8z M4.9,58.6c0,0.7-0.6,1.3-1.3,1.3c-0.7,0-1.3-0.6-1.3-1.3v0c0-0.7,0.6-1.3,1.3-1.3
	C4.3,57.3,4.9,57.9,4.9,58.6C4.9,58.6,4.9,58.6,4.9,58.6z M4.9,51.4c0,0.7-0.6,1.3-1.3,1.3c-0.7,0-1.3-0.6-1.3-1.3c0,0,0,0,0,0
	c0-0.7,0.6-1.3,1.3-1.3C4.3,50.1,4.9,50.7,4.9,51.4C4.9,51.4,4.9,51.4,4.9,51.4z M4.9,44.2c0,0.7-0.6,1.3-1.3,1.3
	c-0.7,0-1.3-0.6-1.3-1.3v0c0-0.7,0.6-1.3,1.3-1.3C4.3,42.9,4.9,43.5,4.9,44.2C4.9,44.2,4.9,44.2,4.9,44.2z M4.9,37
	c0,0.7-0.6,1.3-1.3,1.3c-0.7,0-1.3-0.6-1.3-1.3c0,0,0,0,0,0c0-0.7,0.6-1.3,1.3-1.3C4.3,35.7,4.9,36.3,4.9,37C4.9,37,4.9,37,4.9,37z
	 M4.9,29.8c0,0.7-0.6,1.3-1.3,1.3c-0.7,0-1.3-0.6-1.3-1.3c0,0,0,0,0,0c0-0.7,0.6-1.3,1.3-1.3C4.3,28.5,4.9,29.1,4.9,29.8
	C4.9,29.8,4.9,29.8,4.9,29.8z M4.9,22.6c0,0.7-0.6,1.3-1.3,1.3c-0.7,0-1.3-0.6-1.3-1.3v0c0-0.7,0.6-1.3,1.3-1.3
	C4.3,21.3,4.9,21.9,4.9,22.6C4.9,22.6,4.9,22.6,4.9,22.6z M4.9,15.4c0,0.7-0.6,1.3-1.3,1.3c-0.7,0-1.3-0.6-1.3-1.3c0,0,0,0,0,0
	c0-0.7,0.6-1.3,1.3-1.3C4.3,14.1,4.9,14.7,4.9,15.4C4.9,15.4,4.9,15.4,4.9,15.4z"/>
<rect x="39.7" y="91.6" class="st1" width="10.7" height="6.1"/>
<text transform="matrix(3.061617e-16 1 -1 3.061617e-16 41.1836 113.3046)" class="st1 st2 st3">TX1</text>
<text transform="matrix(3.061617e-16 1 -1 3.061617e-16 41.1836 106.1054)" class="st1 st2 st3">RX0</text>
<text transform="matrix(3.061617e-16 1 -1 3.061617e-16 41.1836 98.9764)" class="st1 st2 st3">RST</text>
<text transform="matrix(3.061617e-16 1 -1 3.061617e-16 41.1836 91.7772)" class="st4 st2 st3">GND</text>
<text transform="matrix(3.061617e-16 1 -1 3.061617e-16 41.1836 85.4413)" class="st1 st2 st3">D2</text>
<text transform="matrix(3.061617e-16 1 -1 3.061617e-16 41.1836 78.3847)" class="st1 st2 st3">D3</text>
<text transform="matrix(3.061617e-16 1 -1 3.061617e-16 41.1836 71.1132)" class="st1 st2 st3">D4</text>
<text transform="matrix(3.061617e-16 1 -1 3.061617e-16 41.1836 64.0565)" class="st1 st2 st3">D5</text>
<text transform="matrix(3.061617e-16 1 -1 3.061617e-16 41.1836 56.7128)" class="st1 st2 st3">D6</text>
<text transform="matrix(3.061617e-16 1 -1 3.061617e-16 41.1836 49.4413)" class="st1 st2 st3">D7</text>
<text transform="matrix(3.061617e-16 1 -1 3.061617e-16 41.1836 42.3847)" class="st1 st2 st3">D8</text>
<text transform="matrix(3.061617e-16 1 -1 3.061617e-16 41.1836 35.1132)" class="st1 st2 st3">D9</text>
<text transform="matrix(3.061617e-16 1 -1 3.061617e-16 41.1836 26.7597)" class="st1 st2 st3">D10</text>
<text transform="matrix(3.061617e-16 1 -1 3.061617e-16 41.1836 19.6327)" class="st1 st2 st3">D11</text>
<text transform="matrix(3.061617e-16 1 -1 3.061617e-16 41.1836 13.4316)" class="st1 st2 st3">D12</text>
<text transform="matrix(3.061617e-16 1 -1 3.061617e-16 6.9121 13.4316)" class="st1 st2 st3">D13</text>
<text transform="matrix(3.061617e-16 1 -1 3.061617e-16 6.9121 19.705)" class="st1 st2 st3">3V3</text>
<text transform="matrix(3.061617e-16 1 -1 3.061617e-16 6.9121 26.8319)" class="st1 st2 st3">REF</text>
<text transform="matrix(3.061617e-16 1 -1 3.061617e-16 6.9121 35.0409)" class="st1 st2 st3">A0</text>
<text transform="matrix(3.061617e-16 1 -1 3.061617e-16 6.9121 42.3124)" class="st1 st2 st3">A1</text>
<text transform="matrix(3.061617e-16 1 -1 3.061617e-16 6.9121 49.4413)" class="st1 st2 st3">A2</text>
<text transform="matrix(3.061617e-16 1 -1 3.061617e-16 6.9121 56.6405)" class="st1 st2 st3">A3</text>
<text transform="matrix(3.061617e-16 1 -1 3.061617e-16 6.9121 63.7694)" class="st1 st2 st3">A4</text>
<text transform="matrix(3.061617e-16 1 -1 3.061617e-16 6.9121 71.0409)" class="st1 st2 st3">A5</text>
<text transform="matrix(3.061617e-16 1 -1 3.061617e-16 6.9121 78.2401)" class="st1 st2 st3">A6</text>
<text transform="matrix(3.061617e-16 1 -1 3.061617e-16 6.9121 85.369)" class="st1 st2 st3">A7</text>
<text transform="matrix(3.061617e-16 1 -1 3.061617e-16 6.9121 92.5682)" class="st1 st2 st3">Vusb</text>
<text transform="matrix(3.061617e-16 1 -1 3.061617e-16 6.9121 99.7694)" class="st1 st2 st3">RST</text>
<rect x="0" y="106.1" class="st1" width="10.7" height="6.1"/>
<text transform="matrix(3.061617e-16 1 -1 3.061617e-16 6.9121 106.1854)" class="st4 st2 st3">GND</text>
<text transform="matrix(3.061617e-16 1 -1 3.061617e-16 6.9121 114.3124)" class="st1 st2 st3">VIN</text>
<text transform="matrix(1 0 0 1 22.4161 43.7351)" class="st1 st2 st3">RST</text>
<text transform="matrix(3.061617e-16 1 -1 3.061617e-16 43.3438 34.3202)" class="st1 st2 st5">*</text>
<text transform="matrix(3.061617e-16 1 -1 3.061617e-16 43.3438 27.0487)" class="st1 st2 st5">*</text>
<text transform="matrix(3.061617e-16 1 -1 3.061617e-16 43.3438 19.9198)" class="st1 st2 st5">*</text>
<text transform="matrix(3.061617e-16 1 -1 3.061617e-16 43.3438 55.9198)" class="st1 st2 st5">*</text>
<text transform="matrix(3.061617e-16 1 -1 3.061617e-16 43.3438 63.1932)" class="st1 st2 st5">*</text>
<text transform="matrix(3.061617e-16 1 -1 3.061617e-16 43.3438 77.5214)" class="st1 st2 st5">*</text>
<circle id="connector16pin" class="st6" cx="46.8" cy="116.2" r="1.9"/>
<rect x="44.9" y="114.3" class="st6" width="3.8" height="3.8"/>
<circle id="connector17pin" class="st6" cx="46.8" cy="109" r="1.9"/>
<circle id="connector18pin" class="st6" cx="46.8" cy="101.8" r="1.9"/>
<circle id="connector19pin" class="st6" cx="46.8" cy="94.6" r="1.9"/>
<circle id="connector20pin" class="st6" cx="46.8" cy="87.4" r="1.9"/>
<circle id="connector21pin" class="st6" cx="46.8" cy="80.2" r="1.9"/>
<circle id="connector22pin" class="st6" cx="46.8" cy="73" r="1.9"/>
<circle id="connector23pin" class="st6" cx="46.8" cy="65.8" r="1.9"/>
<circle id="connector24pin" class="st6" cx="46.8" cy="58.6" r="1.9"/>
<circle id="connector25pin" class="st6" cx="46.8" cy="51.4" r="1.9"/>
<circle id="connector26pin" class="st6" cx="46.8" cy="44.2" r="1.9"/>
<circle id="connector27pin" class="st6" cx="46.8" cy="37" r="1.9"/>
<circle id="connector28pin" class="st6" cx="46.8" cy="29.8" r="1.9"/>
<circle id="connector29pin" class="st6" cx="46.8" cy="22.6" r="1.9"/>
<circle id="connector30pin" class="st6" cx="46.8" cy="15.4" r="1.9"/>
<circle id="connector31pin" class="st6" cx="3.6" cy="116.2" r="1.9"/>
<circle id="connector32pin" class="st6" cx="3.6" cy="109" r="1.9"/>
<circle id="connector33pin" class="st6" cx="3.6" cy="101.8" r="1.9"/>
<circle id="connector34pin" class="st6" cx="3.6" cy="94.6" r="1.9"/>
<circle id="connector35pin" class="st6" cx="3.6" cy="87.4" r="1.9"/>
<circle id="connector36pin" class="st6" cx="3.6" cy="80.2" r="1.9"/>
<circle id="connector37pin" class="st6" cx="3.6" cy="73" r="1.9"/>
<circle id="connector38pin" class="st6" cx="3.6" cy="65.8" r="1.9"/>
<circle id="connector39pin" class="st6" cx="3.6" cy="58.6" r="1.9"/>
<circle id="connector40pin" class="st6" cx="3.6" cy="51.4" r="1.9"/>
<circle id="connector41pin" class="st6" cx="3.6" cy="44.2" r="1.9"/>
<circle id="connector42pin" class="st6" cx="3.6" cy="37" r="1.9"/>
<circle id="connector43pin" class="st6" cx="3.6" cy="29.8" r="1.9"/>
<circle id="connector44pin" class="st6" cx="3.6" cy="22.6" r="1.9"/>
<circle id="connector45pin" class="st6" cx="3.6" cy="15.4" r="1.9"/>
<polygon class="st7" points="22.7,40.6 22.7,40.5 27.1,40.5 27.1,40.6 30.4,40.6 30.4,34.3 19.4,34.3 19.4,40.6 "/>
<polygon class="st7" points="27.1,33.3 27.1,33.5 22.7,33.5 22.7,33.3 19.4,33.3 19.4,39.6 30.4,39.6 30.4,33.3 "/>
<circle cx="24.9" cy="37" r="2.3"/>
<path class="st8" d="M27.2,36.9c0-1.3-1-2.3-2.3-2.3c-1.3,0-2.3,1-2.3,2.3V37c0-1.3,1-2.3,2.3-2.3c1.3,0,2.3,1,2.3,2.3V36.9z"/>
<circle class="st4" cx="24.9" cy="37" r="2.2"/>
<circle class="st9" cx="24.9" cy="37" r="2.2"/>
<path class="st8" d="M27.1,36.9c0-1.2-1-2.2-2.2-2.2c-1.2,0-2.2,1-2.2,2.2V37c0-1.2,1-2.2,2.2-2.2s2.2,1,2.2,2.2
	C27.1,37,27.1,36.9,27.1,36.9z"/>
<path class="st10" d="M22.7,36.9c0,1.2,1,2.2,2.2,2.2s2.2-1,2.2-2.2V37c0,1.2-1,2.2-2.2,2.2c-1.2,0-2.2-1-2.2-2.2V36.9z"/>
<rect x="19.4" y="40.5" class="st10" width="3.3" height="0.1"/>
<rect x="27.1" y="40.5" class="st10" width="3.3" height="0.1"/>
<rect x="22.7" y="40.3" class="st10" width="4.4" height="0.1"/>
<rect x="19.4" y="33.3" class="st8" width="3.3" height="0.1"/>
<rect x="27.1" y="33.3" class="st8" width="3.3" height="0.1"/>
<rect x="22.7" y="33.5" class="st8" width="4.4" height="0.1"/>
<line class="st11" x1="32.9" y1="93" x2="32.9" y2="85.7"/>
<line class="st11" x1="40.5" y1="93" x2="40.5" y2="85.7"/>
<rect x="15.6" y="56.1" class="st4" width="21.3" height="20.7"/>
<circle class="st12" cx="46.8" cy="15.4" r="1.9"/>
<path class="st10" d="M44.9,15c0,1,0.8,1.9,1.9,1.9c1,0,1.9-0.8,1.9-1.9v0.3c0,1-0.8,1.9-1.9,1.9c-1,0-1.9-0.8-1.9-1.9V15z"/>
<path class="st13" d="M48.7,15.7c0-1-0.8-1.9-1.9-1.9c-1,0-1.9,0.8-1.9,1.9v-0.3c0-1,0.8-1.9,1.9-1.9c1,0,1.9,0.8,1.9,1.9
	C48.7,15.4,48.7,15.7,48.7,15.7z"/>
<rect x="46" y="14.6" class="st7" width="1.6" height="1.6"/>
<rect x="46" y="16" class="st10" width="1.6" height="0.1"/>
<rect x="46" y="14.6" class="st14" width="1.6" height="0.1"/>
<circle class="st12" cx="46.8" cy="22.6" r="1.9"/>
<path class="st10" d="M44.9,22.2c0,1,0.8,1.9,1.9,1.9c1,0,1.9-0.8,1.9-1.9v0.3c0,1-0.8,1.9-1.9,1.9c-1,0-1.9-0.8-1.9-1.9V22.2z"/>
<path class="st13" d="M48.7,22.9c0-1-0.8-1.9-1.9-1.9c-1,0-1.9,0.8-1.9,1.9v-0.3c0-1,0.8-1.9,1.9-1.9c1,0,1.9,0.8,1.9,1.9
	C48.7,22.6,48.7,22.9,48.7,22.9z"/>
<rect x="46" y="21.8" class="st7" width="1.6" height="1.6"/>
<rect x="46" y="23.2" class="st10" width="1.6" height="0.1"/>
<rect x="46" y="21.8" class="st14" width="1.6" height="0.1"/>
<circle class="st12" cx="46.8" cy="29.8" r="1.9"/>
<path class="st10" d="M44.9,29.4c0,1,0.8,1.9,1.9,1.9c1,0,1.9-0.8,1.9-1.9v0.3c0,1-0.8,1.9-1.9,1.9c-1,0-1.9-0.8-1.9-1.9
	C44.9,29.8,44.9,29.4,44.9,29.4z"/>
<path class="st13" d="M48.7,30.1c0-1-0.8-1.9-1.9-1.9c-1,0-1.9,0.8-1.9,1.9v-0.3c0-1,0.8-1.9,1.9-1.9c1,0,1.9,0.8,1.9,1.9
	C48.7,29.8,48.7,30.1,48.7,30.1z"/>
<rect x="46" y="29" class="st7" width="1.6" height="1.6"/>
<rect x="46" y="30.4" class="st10" width="1.6" height="0.1"/>
<rect x="46" y="29" class="st14" width="1.6" height="0.1"/>
<circle class="st12" cx="46.8" cy="37" r="1.9"/>
<path class="st10" d="M44.9,36.6c0,1,0.8,1.9,1.9,1.9c1,0,1.9-0.8,1.9-1.9V37c0,1-0.8,1.9-1.9,1.9c-1,0-1.9-0.8-1.9-1.9V36.6z"/>
<path class="st13" d="M48.7,37.3c0-1-0.8-1.9-1.9-1.9c-1,0-1.9,0.8-1.9,1.9V37c0-1,0.8-1.9,1.9-1.9c1,0,1.9,0.8,1.9,1.9
	C48.7,37,48.7,37.3,48.7,37.3z"/>
<rect x="46" y="36.2" class="st7" width="1.6" height="1.6"/>
<rect x="46" y="37.6" class="st10" width="1.6" height="0.1"/>
<rect x="46" y="36.2" class="st14" width="1.6" height="0.1"/>
<circle class="st12" cx="46.8" cy="44.2" r="1.9"/>
<path class="st10" d="M44.9,43.8c0,1,0.8,1.9,1.9,1.9c1,0,1.9-0.8,1.9-1.9v0.3c0,1-0.8,1.9-1.9,1.9c-1,0-1.9-0.8-1.9-1.9V43.8z"/>
<path class="st13" d="M48.7,44.5c0-1-0.8-1.9-1.9-1.9c-1,0-1.9,0.8-1.9,1.9v-0.3c0-1,0.8-1.9,1.9-1.9c1,0,1.9,0.8,1.9,1.9
	C48.7,44.2,48.7,44.5,48.7,44.5z"/>
<rect x="46" y="43.4" class="st7" width="1.6" height="1.6"/>
<rect x="46" y="44.8" class="st10" width="1.6" height="0.1"/>
<rect x="46" y="43.4" class="st14" width="1.6" height="0.1"/>
<circle class="st12" cx="46.8" cy="51.4" r="1.9"/>
<path class="st10" d="M44.9,51c0,1,0.8,1.9,1.9,1.9c1,0,1.9-0.8,1.9-1.9v0.3c0,1-0.8,1.9-1.9,1.9c-1,0-1.9-0.8-1.9-1.9V51z"/>
<path class="st13" d="M48.7,51.7c0-1-0.8-1.9-1.9-1.9c-1,0-1.9,0.8-1.9,1.9v-0.3c0-1,0.8-1.9,1.9-1.9c1,0,1.9,0.8,1.9,1.9
	C48.7,51.4,48.7,51.7,48.7,51.7z"/>
<rect x="46" y="50.6" class="st7" width="1.6" height="1.6"/>
<rect x="46" y="52" class="st10" width="1.6" height="0.1"/>
<rect x="46" y="50.6" class="st14" width="1.6" height="0.1"/>
<circle class="st12" cx="46.8" cy="58.6" r="1.9"/>
<path class="st10" d="M44.9,58.2c0,1,0.8,1.9,1.9,1.9c1,0,1.9-0.8,1.9-1.9v0.3c0,1-0.8,1.9-1.9,1.9c-1,0-1.9-0.8-1.9-1.9V58.2z"/>
<path class="st13" d="M48.7,58.9c0-1-0.8-1.9-1.9-1.9c-1,0-1.9,0.8-1.9,1.9v-0.3c0-1,0.8-1.9,1.9-1.9c1,0,1.9,0.8,1.9,1.9
	C48.7,58.6,48.7,58.9,48.7,58.9z"/>
<rect x="46" y="57.8" class="st7" width="1.6" height="1.6"/>
<rect x="46" y="59.2" class="st10" width="1.6" height="0.1"/>
<rect x="46" y="57.8" class="st14" width="1.6" height="0.1"/>
<circle class="st12" cx="46.8" cy="65.8" r="1.9"/>
<path class="st10" d="M44.9,65.4c0,1,0.8,1.9,1.9,1.9c1,0,1.9-0.8,1.9-1.9v0.3c0,1-0.8,1.9-1.9,1.9c-1,0-1.9-0.8-1.9-1.9
	C44.9,65.8,44.9,65.4,44.9,65.4z"/>
<path class="st13" d="M48.7,66.1c0-1-0.8-1.9-1.9-1.9c-1,0-1.9,0.8-1.9,1.9v-0.3c0-1,0.8-1.9,1.9-1.9c1,0,1.9,0.8,1.9,1.9
	C48.7,65.8,48.7,66.1,48.7,66.1z"/>
<rect x="46" y="65" class="st7" width="1.6" height="1.6"/>
<rect x="46" y="66.4" class="st10" width="1.6" height="0.1"/>
<rect x="46" y="65" class="st14" width="1.6" height="0.1"/>
<circle class="st12" cx="46.8" cy="73" r="1.9"/>
<path class="st10" d="M44.9,72.6c0,1,0.8,1.9,1.9,1.9c1,0,1.9-0.8,1.9-1.9V73c0,1-0.8,1.9-1.9,1.9c-1,0-1.9-0.8-1.9-1.9V72.6z"/>
<path class="st13" d="M48.7,73.3c0-1-0.8-1.9-1.9-1.9c-1,0-1.9,0.8-1.9,1.9V73c0-1,0.8-1.9,1.9-1.9c1,0,1.9,0.8,1.9,1.9
	C48.7,73,48.7,73.3,48.7,73.3z"/>
<rect x="46" y="72.2" class="st7" width="1.6" height="1.6"/>
<rect x="46" y="73.6" class="st10" width="1.6" height="0.1"/>
<rect x="46" y="72.2" class="st14" width="1.6" height="0.1"/>
<circle class="st12" cx="46.8" cy="80.2" r="1.9"/>
<path class="st10" d="M44.9,79.8c0,1,0.8,1.9,1.9,1.9c1,0,1.9-0.8,1.9-1.9v0.3c0,1-0.8,1.9-1.9,1.9c-1,0-1.9-0.8-1.9-1.9
	C44.9,80.2,44.9,79.8,44.9,79.8z"/>
<path class="st13" d="M48.7,80.5c0-1-0.8-1.9-1.9-1.9c-1,0-1.9,0.8-1.9,1.9v-0.3c0-1,0.8-1.9,1.9-1.9c1,0,1.9,0.8,1.9,1.9
	C48.7,80.2,48.7,80.5,48.7,80.5z"/>
<rect x="46" y="79.4" class="st7" width="1.6" height="1.6"/>
<rect x="46" y="80.8" class="st10" width="1.6" height="0.1"/>
<rect x="46" y="79.4" class="st14" width="1.6" height="0.1"/>
<circle class="st12" cx="46.8" cy="87.4" r="1.9"/>
<path class="st10" d="M44.9,87c0,1,0.8,1.9,1.9,1.9c1,0,1.9-0.8,1.9-1.9v0.3c0,1-0.8,1.9-1.9,1.9c-1,0-1.9-0.8-1.9-1.9V87z"/>
<path class="st13" d="M48.7,87.7c0-1-0.8-1.9-1.9-1.9c-1,0-1.9,0.8-1.9,1.9v-0.3c0-1,0.8-1.9,1.9-1.9c1,0,1.9,0.8,1.9,1.9
	C48.7,87.4,48.7,87.7,48.7,87.7z"/>
<rect x="46" y="86.6" class="st7" width="1.6" height="1.6"/>
<rect x="46" y="88" class="st10" width="1.6" height="0.1"/>
<rect x="46" y="86.6" class="st14" width="1.6" height="0.1"/>
<circle class="st12" cx="46.8" cy="94.6" r="1.9"/>
<path class="st10" d="M44.9,94.2c0,1,0.8,1.9,1.9,1.9c1,0,1.9-0.8,1.9-1.9v0.3c0,1-0.8,1.9-1.9,1.9c-1,0-1.9-0.8-1.9-1.9
	C44.9,94.6,44.9,94.2,44.9,94.2z"/>
<path class="st13" d="M48.7,94.9c0-1-0.8-1.9-1.9-1.9c-1,0-1.9,0.8-1.9,1.9v-0.3c0-1,0.8-1.9,1.9-1.9c1,0,1.9,0.8,1.9,1.9
	C48.7,94.6,48.7,94.9,48.7,94.9z"/>
<rect x="46" y="93.8" class="st7" width="1.6" height="1.6"/>
<rect x="46" y="95.2" class="st10" width="1.6" height="0.1"/>
<rect x="46" y="93.8" class="st14" width="1.6" height="0.1"/>
<circle class="st12" cx="46.8" cy="101.8" r="1.9"/>
<path class="st10" d="M44.9,101.4c0,1,0.8,1.9,1.9,1.9c1,0,1.9-0.8,1.9-1.9v0.3c0,1-0.8,1.9-1.9,1.9c-1,0-1.9-0.8-1.9-1.9V101.4z"/>
<path class="st13" d="M48.7,102.1c0-1-0.8-1.9-1.9-1.9c-1,0-1.9,0.8-1.9,1.9v-0.3c0-1,0.8-1.9,1.9-1.9c1,0,1.9,0.8,1.9,1.9
	C48.7,101.8,48.7,102.1,48.7,102.1z"/>
<rect x="46" y="101" class="st7" width="1.6" height="1.6"/>
<rect x="46" y="102.4" class="st10" width="1.6" height="0.1"/>
<rect x="46" y="101" class="st14" width="1.6" height="0.1"/>
<circle class="st12" cx="46.8" cy="109" r="1.9"/>
<path class="st10" d="M44.9,108.6c0,1,0.8,1.9,1.9,1.9c1,0,1.9-0.8,1.9-1.9v0.3c0,1-0.8,1.9-1.9,1.9c-1,0-1.9-0.8-1.9-1.9V108.6z"/>
<path class="st13" d="M48.7,109.3c0-1-0.8-1.9-1.9-1.9c-1,0-1.9,0.8-1.9,1.9V109c0-1,0.8-1.9,1.9-1.9c1,0,1.9,0.8,1.9,1.9
	C48.7,109,48.7,109.3,48.7,109.3z"/>
<rect x="46" y="108.2" class="st7" width="1.6" height="1.6"/>
<rect x="46" y="109.6" class="st10" width="1.6" height="0.1"/>
<rect x="46" y="108.2" class="st14" width="1.6" height="0.1"/>
<circle class="st12" cx="46.8" cy="116.2" r="1.9"/>
<path class="st10" d="M44.9,115.8c0,1,0.8,1.9,1.9,1.9c1,0,1.9-0.8,1.9-1.9v0.3c0,1-0.8,1.9-1.9,1.9c-1,0-1.9-0.8-1.9-1.9V115.8z"/>
<path class="st13" d="M48.7,116.5c0-1-0.8-1.9-1.9-1.9c-1,0-1.9,0.8-1.9,1.9v-0.3c0-1,0.8-1.9,1.9-1.9c1,0,1.9,0.8,1.9,1.9
	C48.7,116.2,48.7,116.5,48.7,116.5z"/>
<rect x="46" y="115.4" class="st7" width="1.6" height="1.6"/>
<rect x="46" y="116.8" class="st10" width="1.6" height="0.1"/>
<rect x="46" y="115.4" class="st14" width="1.6" height="0.1"/>
<circle class="st12" cx="3.5" cy="15.4" r="1.9"/>
<path class="st10" d="M1.7,15.1c0,1,0.8,1.9,1.9,1.9s1.9-0.8,1.9-1.9v0.3c0,1-0.8,1.9-1.9,1.9s-1.9-0.8-1.9-1.9V15.1z"/>
<path class="st13" d="M5.4,15.7c0-1-0.8-1.9-1.9-1.9s-1.9,0.8-1.9,1.9v-0.3c0-1,0.8-1.9,1.9-1.9s1.9,0.8,1.9,1.9V15.7z"/>
<rect x="2.8" y="14.6" class="st7" width="1.6" height="1.6"/>
<rect x="2.8" y="16.1" class="st10" width="1.6" height="0.1"/>
<rect x="2.8" y="14.6" class="st14" width="1.6" height="0.1"/>
<circle class="st12" cx="3.5" cy="22.6" r="1.9"/>
<path class="st10" d="M1.7,22.3c0,1,0.8,1.9,1.9,1.9s1.9-0.8,1.9-1.9v0.3c0,1-0.8,1.9-1.9,1.9s-1.9-0.8-1.9-1.9V22.3z"/>
<path class="st13" d="M5.4,22.9c0-1-0.8-1.9-1.9-1.9s-1.9,0.8-1.9,1.9v-0.3c0-1,0.8-1.9,1.9-1.9s1.9,0.8,1.9,1.9V22.9z"/>
<rect x="2.8" y="21.8" class="st7" width="1.6" height="1.6"/>
<rect x="2.8" y="23.3" class="st10" width="1.6" height="0.1"/>
<rect x="2.8" y="21.8" class="st14" width="1.6" height="0.1"/>
<circle class="st12" cx="3.5" cy="29.8" r="1.9"/>
<path class="st10" d="M1.7,29.5c0,1,0.8,1.9,1.9,1.9s1.9-0.8,1.9-1.9v0.3c0,1-0.8,1.9-1.9,1.9s-1.9-0.8-1.9-1.9V29.5z"/>
<path class="st13" d="M5.4,30.1c0-1-0.8-1.9-1.9-1.9s-1.9,0.8-1.9,1.9v-0.3c0-1,0.8-1.9,1.9-1.9s1.9,0.8,1.9,1.9V30.1z"/>
<rect x="2.8" y="29" class="st7" width="1.6" height="1.6"/>
<rect x="2.8" y="30.5" class="st10" width="1.6" height="0.1"/>
<rect x="2.8" y="29" class="st14" width="1.6" height="0.1"/>
<circle class="st12" cx="3.5" cy="37" r="1.9"/>
<path class="st10" d="M1.7,36.7c0,1,0.8,1.9,1.9,1.9s1.9-0.8,1.9-1.9V37c0,1-0.8,1.9-1.9,1.9S1.7,38,1.7,37V36.7z"/>
<path class="st13" d="M5.4,37.3c0-1-0.8-1.9-1.9-1.9s-1.9,0.8-1.9,1.9V37c0-1,0.8-1.9,1.9-1.9S5.4,36,5.4,37V37.3z"/>
<rect x="2.8" y="36.2" class="st7" width="1.6" height="1.6"/>
<rect x="2.8" y="37.7" class="st10" width="1.6" height="0.1"/>
<rect x="2.8" y="36.2" class="st14" width="1.6" height="0.1"/>
<circle class="st12" cx="3.5" cy="44.2" r="1.9"/>
<path class="st10" d="M1.7,43.9c0,1,0.8,1.9,1.9,1.9s1.9-0.8,1.9-1.9v0.3c0,1-0.8,1.9-1.9,1.9s-1.9-0.8-1.9-1.9V43.9z"/>
<path class="st13" d="M5.4,44.5c0-1-0.8-1.9-1.9-1.9s-1.9,0.8-1.9,1.9v-0.3c0-1,0.8-1.9,1.9-1.9s1.9,0.8,1.9,1.9V44.5z"/>
<rect x="2.8" y="43.4" class="st7" width="1.6" height="1.6"/>
<rect x="2.8" y="44.9" class="st10" width="1.6" height="0.1"/>
<rect x="2.8" y="43.4" class="st14" width="1.6" height="0.1"/>
<circle class="st12" cx="3.5" cy="51.4" r="1.9"/>
<path class="st10" d="M1.7,51.1c0,1,0.8,1.9,1.9,1.9s1.9-0.8,1.9-1.9v0.3c0,1-0.8,1.9-1.9,1.9s-1.9-0.8-1.9-1.9V51.1z"/>
<path class="st13" d="M5.4,51.7c0-1-0.8-1.9-1.9-1.9s-1.9,0.8-1.9,1.9v-0.3c0-1,0.8-1.9,1.9-1.9s1.9,0.8,1.9,1.9V51.7z"/>
<rect x="2.8" y="50.6" class="st7" width="1.6" height="1.6"/>
<rect x="2.8" y="52.1" class="st10" width="1.6" height="0.1"/>
<rect x="2.8" y="50.6" class="st14" width="1.6" height="0.1"/>
<circle class="st12" cx="3.5" cy="58.6" r="1.9"/>
<path class="st10" d="M1.7,58.3c0,1,0.8,1.9,1.9,1.9s1.9-0.8,1.9-1.9v0.3c0,1-0.8,1.9-1.9,1.9s-1.9-0.8-1.9-1.9V58.3z"/>
<path class="st13" d="M5.4,58.9c0-1-0.8-1.9-1.9-1.9s-1.9,0.8-1.9,1.9v-0.3c0-1,0.8-1.9,1.9-1.9s1.9,0.8,1.9,1.9V58.9z"/>
<rect x="2.8" y="57.8" class="st7" width="1.6" height="1.6"/>
<rect x="2.8" y="59.3" class="st10" width="1.6" height="0.1"/>
<rect x="2.8" y="57.8" class="st14" width="1.6" height="0.1"/>
<circle class="st12" cx="3.5" cy="65.8" r="1.9"/>
<path class="st10" d="M1.7,65.5c0,1,0.8,1.9,1.9,1.9s1.9-0.8,1.9-1.9v0.3c0,1-0.8,1.9-1.9,1.9s-1.9-0.8-1.9-1.9V65.5z"/>
<path class="st13" d="M5.4,66.1c0-1-0.8-1.9-1.9-1.9s-1.9,0.8-1.9,1.9v-0.3c0-1,0.8-1.9,1.9-1.9s1.9,0.8,1.9,1.9V66.1z"/>
<rect x="2.8" y="65" class="st7" width="1.6" height="1.6"/>
<rect x="2.8" y="66.5" class="st10" width="1.6" height="0.1"/>
<rect x="2.8" y="65" class="st14" width="1.6" height="0.1"/>
<circle class="st12" cx="3.5" cy="73" r="1.9"/>
<path class="st10" d="M1.7,72.7c0,1,0.8,1.9,1.9,1.9s1.9-0.8,1.9-1.9V73c0,1-0.8,1.9-1.9,1.9S1.7,74,1.7,73V72.7z"/>
<path class="st13" d="M5.4,73.3c0-1-0.8-1.9-1.9-1.9s-1.9,0.8-1.9,1.9V73c0-1,0.8-1.9,1.9-1.9S5.4,72,5.4,73V73.3z"/>
<rect x="2.8" y="72.2" class="st7" width="1.6" height="1.6"/>
<rect x="2.8" y="73.7" class="st10" width="1.6" height="0.1"/>
<rect x="2.8" y="72.2" class="st14" width="1.6" height="0.1"/>
<circle class="st12" cx="3.5" cy="80.2" r="1.9"/>
<path class="st10" d="M1.7,79.9c0,1,0.8,1.9,1.9,1.9s1.9-0.8,1.9-1.9v0.3c0,1-0.8,1.9-1.9,1.9s-1.9-0.8-1.9-1.9V79.9z"/>
<path class="st13" d="M5.4,80.5c0-1-0.8-1.9-1.9-1.9s-1.9,0.8-1.9,1.9v-0.3c0-1,0.8-1.9,1.9-1.9s1.9,0.8,1.9,1.9V80.5z"/>
<rect x="2.8" y="79.4" class="st7" width="1.6" height="1.6"/>
<rect x="2.8" y="80.9" class="st10" width="1.6" height="0.1"/>
<rect x="2.8" y="79.4" class="st14" width="1.6" height="0.1"/>
<circle class="st12" cx="3.5" cy="87.4" r="1.9"/>
<path class="st10" d="M1.7,87.1c0,1,0.8,1.9,1.9,1.9s1.9-0.8,1.9-1.9v0.3c0,1-0.8,1.9-1.9,1.9s-1.9-0.8-1.9-1.9V87.1z"/>
<path class="st13" d="M5.4,87.7c0-1-0.8-1.9-1.9-1.9s-1.9,0.8-1.9,1.9v-0.3c0-1,0.8-1.9,1.9-1.9s1.9,0.8,1.9,1.9V87.7z"/>
<rect x="2.8" y="86.6" class="st7" width="1.6" height="1.6"/>
<rect x="2.8" y="88.1" class="st10" width="1.6" height="0.1"/>
<rect x="2.8" y="86.6" class="st14" width="1.6" height="0.1"/>
<circle class="st12" cx="3.5" cy="94.6" r="1.9"/>
<path class="st10" d="M1.7,94.3c0,1,0.8,1.9,1.9,1.9s1.9-0.8,1.9-1.9v0.3c0,1-0.8,1.9-1.9,1.9s-1.9-0.8-1.9-1.9V94.3z"/>
<path class="st13" d="M5.4,94.9c0-1-0.8-1.9-1.9-1.9s-1.9,0.8-1.9,1.9v-0.3c0-1,0.8-1.9,1.9-1.9s1.9,0.8,1.9,1.9V94.9z"/>
<rect x="2.8" y="93.8" class="st7" width="1.6" height="1.6"/>
<rect x="2.8" y="95.3" class="st10" width="1.6" height="0.1"/>
<rect x="2.8" y="93.8" class="st14" width="1.6" height="0.1"/>
<circle class="st12" cx="3.5" cy="101.8" r="1.9"/>
<path class="st10" d="M1.7,101.5c0,1,0.8,1.9,1.9,1.9s1.9-0.8,1.9-1.9v0.3c0,1-0.8,1.9-1.9,1.9s-1.9-0.8-1.9-1.9V101.5z"/>
<path class="st13" d="M5.4,102.1c0-1-0.8-1.9-1.9-1.9s-1.9,0.8-1.9,1.9v-0.3c0-1,0.8-1.9,1.9-1.9s1.9,0.8,1.9,1.9V102.1z"/>
<rect x="2.8" y="101" class="st7" width="1.6" height="1.6"/>
<rect x="2.8" y="102.5" class="st10" width="1.6" height="0.1"/>
<rect x="2.8" y="101" class="st14" width="1.6" height="0.1"/>
<circle class="st12" cx="3.5" cy="109" r="1.9"/>
<path class="st10" d="M1.7,108.7c0,1,0.8,1.9,1.9,1.9s1.9-0.8,1.9-1.9v0.3c0,1-0.8,1.9-1.9,1.9S1.7,110,1.7,109V108.7z"/>
<path class="st13" d="M5.4,109.3c0-1-0.8-1.9-1.9-1.9s-1.9,0.8-1.9,1.9V109c0-1,0.8-1.9,1.9-1.9s1.9,0.8,1.9,1.9V109.3z"/>
<rect x="2.8" y="108.2" class="st7" width="1.6" height="1.6"/>
<rect x="2.8" y="109.7" class="st10" width="1.6" height="0.1"/>
<rect x="2.8" y="108.2" class="st14" width="1.6" height="0.1"/>
<circle class="st12" cx="3.5" cy="116.2" r="1.9"/>
<path class="st10" d="M1.7,115.9c0,1,0.8,1.9,1.9,1.9s1.9-0.8,1.9-1.9v0.3c0,1-0.8,1.9-1.9,1.9s-1.9-0.8-1.9-1.9V115.9z"/>
<path class="st13" d="M5.4,116.5c0-1-0.8-1.9-1.9-1.9s-1.9,0.8-1.9,1.9v-0.3c0-1,0.8-1.9,1.9-1.9s1.9,0.8,1.9,1.9V116.5z"/>
<rect x="2.8" y="115.4" class="st7" width="1.6" height="1.6"/>
<rect x="2.8" y="116.9" class="st10" width="1.6" height="0.1"/>
<rect x="2.8" y="115.4" class="st14" width="1.6" height="0.1"/>
<path class="st1" d="M40.5,108.3C40.5,108.3,40.5,108.3,40.5,108.3v2c0,0.1-0.1,0.2-0.2,0.3c-0.1,0.1-0.2,0.1-0.3,0l-1.5-1
	c-0.2-0.1-0.2-0.4,0-0.6l1.4-0.9c0.1-0.1,0.2-0.1,0.3-0.1C40.4,108,40.5,108.1,40.5,108.3z"/>
<path class="st1" d="M38.4,117.1C38.4,117.1,38.4,117.1,38.4,117.1v-2c0-0.1,0.1-0.2,0.2-0.3c0.1-0.1,0.2-0.1,0.3,0l1.5,1
	c0.2,0.1,0.2,0.4,0,0.6l-1.4,0.9c-0.1,0.1-0.1,0.1-0.3,0.1C38.6,117.5,38.4,117.3,38.4,117.1z"/>
<polyline class="st15" points="14.4,0.4 14.4,0 36.1,0 36.1,0.4 "/>
<rect x="31.2" y="13.3" class="st16" width="6.1" height="4.6"/>
<rect x="13.5" y="13.3" class="st16" width="6.1" height="4.6"/>
<rect x="11.5" y="5.7" class="st16" width="5.2" height="5.4"/>
<rect x="34.2" y="5.7" class="st16" width="5.2" height="5.4"/>
<rect x="40.9" y="5.5" class="st16" width="2.7" height="2.6"/>
<rect x="40.8" y="10" class="st16" width="2.7" height="2.6"/>
<path class="st17" d="M43.5,6.7c0,0.8-0.6,1.4-1.4,1.4s-1.4-0.6-1.4-1.4s0.6-1.4,1.4-1.4S43.5,5.9,43.5,6.7"/>
<path class="st17" d="M43.5,11c0,0.8-0.6,1.4-1.4,1.4s-1.4-0.6-1.4-1.4s0.6-1.4,1.4-1.4S43.5,10.3,43.5,11"/>
<rect x="40.8" y="6.7" class="st17" width="2.7" height="1.4"/>
<rect x="40.8" y="9.8" class="st17" width="2.7" height="1.4"/>
<rect x="40.8" y="7.3" class="st18" width="2.7" height="3.4"/>
<path class="st1" d="M42.7,8.9c0,0.3-0.2,0.6-0.6,0.6s-0.6-0.2-0.6-0.6s0.2-0.6,0.6-0.6C42.4,8.4,42.7,8.6,42.7,8.9"/>
<rect x="7.6" y="10" class="st16" width="2.7" height="2.6"/>
<rect x="7.6" y="5.4" class="st16" width="2.7" height="2.6"/>
<path class="st17" d="M10.3,6.7c0,0.8-0.6,1.4-1.4,1.4S7.5,7.5,7.5,6.7s0.6-1.4,1.4-1.4S10.3,5.9,10.3,6.7"/>
<path class="st17" d="M10.3,11c0,0.8-0.6,1.4-1.4,1.4S7.5,11.8,7.5,11s0.6-1.4,1.4-1.4S10.3,10.3,10.3,11"/>
<rect x="7.6" y="6.7" class="st17" width="2.7" height="1.4"/>
<rect x="7.6" y="9.7" class="st17" width="2.7" height="1.4"/>
<rect x="7.5" y="7.2" class="st19" width="2.7" height="3.4"/>
<path class="st1" d="M9.5,8.9c0,0.3-0.2,0.6-0.6,0.6S8.3,9.3,8.3,8.9s0.2-0.6,0.6-0.6S9.5,8.6,9.5,8.9"/>
<path class="st20" d="M15.9,2.3l-1.7-1.7L15-0.2l1.7,1.7L15.9,2.3z"/>
<path class="st20" d="M34.8,1.5l1.7-1.7l0.8,0.8l-1.7,1.7L34.8,1.5z"/>
<path class="st21" d="M29.7,17.8v-3.6c0-0.1-0.1-0.2-0.2-0.2h-1c-0.1,0-0.2,0.1-0.2,0.2v3.6c0,0.1,0.1,0.2,0.2,0.2h1
	C29.7,17.9,29.7,17.9,29.7,17.8"/>
<path class="st21" d="M27.9,17.8v-3.6c0-0.1-0.1-0.2-0.2-0.2h-1c-0.1,0-0.2,0.1-0.2,0.2v3.6c0,0.1,0.1,0.2,0.2,0.2h1
	C27.8,17.9,27.9,17.9,27.9,17.8"/>
<path class="st21" d="M26.1,17.8v-3.6c0-0.1-0.1-0.2-0.2-0.2h-1c-0.1,0-0.2,0.1-0.2,0.2v3.6c0,0.1,0.1,0.2,0.2,0.2h0.9
	C26,17.9,26.1,17.9,26.1,17.8"/>
<path class="st21" d="M24.2,17.8v-3.6c0-0.1-0.1-0.2-0.2-0.2h-1c-0.1,0-0.2,0.1-0.2,0.2v3.6c0,0.1,0.1,0.2,0.2,0.2h1
	C24.2,17.9,24.2,17.9,24.2,17.8"/>
<path class="st21" d="M22.4,17.8v-3.6c0-0.1-0.1-0.2-0.2-0.2h-1c-0.1,0-0.2,0.1-0.2,0.2v3.6c0,0.1,0.1,0.2,0.2,0.2h0.9
	C22.2,17.9,22.4,17.9,22.4,17.8"/>
<path class="st17" d="M27.3,15v0.8H36V1h-1l-0.9-0.6H17.2L16.3,1h-1v14.7h8.1v-0.8c0-0.4,0.3-0.7,0.7-0.7h2.5
	C27,14.4,27.3,14.7,27.3,15"/>
<path class="st20" d="M31.1,8.6c-0.1,0-0.2-0.1-0.2-0.2V3.8c0-0.1,0.1-0.2,0.2-0.2h2.3c0.1,0,0.2,0.1,0.2,0.2v4.6
	c0,0.1-0.1,0.2-0.2,0.2H31.1z"/>
<path class="st20" d="M17.9,8.6c-0.1,0-0.2-0.1-0.2-0.2V3.8c0-0.1,0.1-0.2,0.2-0.2h2.3c0.1,0,0.2,0.1,0.2,0.2v4.6
	c0,0.1-0.1,0.2-0.2,0.2H17.9z"/>
<rect x="22.9" y="21.6" class="st16" width="2.8" height="2.8"/>
<rect x="22.8" y="27.1" class="st16" width="2.8" height="1.7"/>
<rect x="29.3" y="21.6" class="st16" width="2.8" height="1.7"/>
<rect x="29.4" y="27" class="st16" width="2.8" height="1.7"/>
<rect x="13.8" y="25.3" class="st16" width="1.8" height="1.8"/>
<rect x="13.8" y="22.8" class="st16" width="1.8" height="1.8"/>
<rect x="17.2" y="21" class="st16" width="4.1" height="2.7"/>
<rect x="17.1" y="26.6" class="st16" width="4.1" height="2.7"/>
<rect x="35.2" y="25.6" class="st16" width="2.8" height="2.3"/>
<path class="st17" d="M15.6,25.9V25v-0.1V24c0-0.5-0.4-0.9-0.9-0.9s-0.9,0.4-0.9,0.9v1.9c0,0.5,0.4,0.9,0.9,0.9
	C15.1,26.8,15.6,26.5,15.6,25.9"/>
<rect x="13.7" y="24.3" width="1.9" height="1.4"/>
<rect x="29.3" y="27.2" class="st22" width="1.4" height="1.4"/>
<rect x="29.2" y="21.7" class="st22" width="1.4" height="1.4"/>
<rect x="24.3" y="21.7" class="st22" width="1.4" height="2.5"/>
<rect x="24.2" y="27.2" class="st22" width="1.4" height="1.4"/>
<rect x="25.7" y="21" width="3.7" height="8.2"/>
<path class="st23" d="M35.6,26.6h0.8c0-0.2,0.2-0.3,0.3-0.3s0.3,0.2,0.3,0.3h1.1v-0.9v-3.2v-0.2v-0.6H37c0,0.2-0.2,0.3-0.3,0.3
	s-0.3-0.2-0.3-0.3h-1.1v4.9H35.6L35.6,26.6z"/>
<rect x="35.2" y="22.7" width="2.8" height="3.2"/>
<path class="st17" d="M17.1,27.8c0,0.6,0.4,1,1,1h2.1c0.6,0,1-0.4,1-1v-0.3H17L17.1,27.8z"/>
<path class="st17" d="M17.1,22.7c0-0.6,0.4-1,1-1h2.1c0.6,0,1,0.4,1,1V23H17L17.1,22.7z"/>
<rect x="17" y="23.1" class="st23" width="4.2" height="4.4"/>
<rect x="33.3" y="32.7" class="st16" width="4.1" height="2.7"/>
<rect x="33.3" y="38.2" class="st16" width="4.1" height="2.7"/>
<path class="st17" d="M33.2,39.4c0,0.6,0.4,1,1,1h2.1c0.6,0,1-0.4,1-1v-0.3h-4.2L33.2,39.4z"/>
<path class="st17" d="M33.2,34.3c0-0.6,0.4-1,1-1h2.1c0.6,0,1,0.4,1,1v0.3h-4.2L33.2,34.3z"/>
<rect x="33.1" y="34.8" class="st23" width="4.2" height="4.4"/>
<rect x="12.2" y="22.6" class="st16" width="1.1" height="1.7"/>
<rect x="9.9" y="22.6" class="st16" width="1.1" height="1.7"/>
<path class="st17" d="M10.6,22.6c-0.2,0-0.4,0.2-0.4,0.4v0.9c0,0.2,0.2,0.4,0.4,0.4h0.1v-1.7L10.6,22.6z"/>
<path class="st17" d="M12.6,22.6c0.2,0,0.4,0.2,0.4,0.4v0.9c0,0.2-0.2,0.4-0.4,0.4h-0.1v-1.7L12.6,22.6z"/>
<rect x="10.7" y="22.6" class="st23" width="1.8" height="1.7"/>
<rect x="12.2" y="25.4" class="st16" width="1.1" height="1.7"/>
<rect x="9.9" y="25.4" class="st16" width="1.1" height="1.7"/>
<path class="st17" d="M10.5,25.4c-0.2,0-0.4,0.2-0.4,0.4v0.9c0,0.2,0.2,0.4,0.4,0.4h0.1v-1.7L10.5,25.4z"/>
<path class="st17" d="M12.6,25.4c0.2,0,0.4,0.2,0.4,0.4v0.9c0,0.2-0.2,0.4-0.4,0.4h-0.1v-1.7L12.6,25.4z"/>
<rect x="10.6" y="25.3" class="st23" width="1.8" height="1.7"/>
<rect x="11.9" y="31.5" width="5.6" height="6"/>
<rect x="11.4" y="48.2" class="st16" width="4.3" height="2.8"/>
<rect x="17.7" y="48.2" class="st16" width="4.3" height="2.8"/>
<rect x="10.5" y="46.5" width="11.9" height="6"/>
<rect x="11.8" y="86.4" class="st17" width="24" height="24"/>
<path class="st7" d="M31.8,108.3H16.4c-1.3,0-2.4-1.1-2.4-2.4V90.6c0-1.3,1.1-2.4,2.4-2.4h15.4c1.3,0,2.4,1.1,2.4,2.4V106
	C34.2,107.3,33.1,108.3,31.8,108.3z"/>
<g>
	<rect x="11.6" y="111" class="st17" width="24.2" height="8.3"/>
	<rect x="13.7" y="113.3" class="st4" width="22" height="3.2"/>
</g>
</svg>
