<?xml version="1.0" encoding="utf-8"?>
<!-- Generator: Adobe Illustrator 16.0.4, SVG Export Plug-In . SVG Version: 6.00 Build 0)  -->
<!DOCTYPE svg PUBLIC "-//W3C//DTD SVG 1.1//EN" "http://www.w3.org/Graphics/SVG/1.1/DTD/svg11.dtd">
<svg version="1.1" id="Layer_1" xmlns="http://www.w3.org/2000/svg" xmlns:xlink="http://www.w3.org/1999/xlink" x="0px" y="0px"
	 width="500.975px" height="308.985px" viewBox="0 0 500.975 308.985" enable-background="new 0 0 500.975 308.985"
	 xml:space="preserve">
<path fill="none" stroke="#010101" stroke-width="2" stroke-linecap="round" d="M230.69,148.882"/>
<line fill="none" stroke="#000000" stroke-width="2" stroke-miterlimit="10" x1="39.899" y1="89.394" x2="39.899" y2="260.395"/>
<line fill="none" stroke="#000000" stroke-width="2" stroke-miterlimit="10" x1="39.899" y1="89.394" x2="80.232" y2="112.392"/>
<line fill="none" stroke="#000000" stroke-width="2" stroke-miterlimit="10" x1="39.899" y1="260.395" x2="80.232" y2="236.395"/>
<ellipse fill="#FFFFFF" stroke="#000000" stroke-width="2" stroke-miterlimit="10" cx="94.566" cy="141.394" rx="11.5" ry="23"/>
<ellipse fill="#FFFFFF" stroke="#000000" stroke-width="2" stroke-miterlimit="10" cx="94.566" cy="208.394" rx="11.5" ry="23"/>
<line fill="none" stroke="#000000" stroke-width="2" stroke-miterlimit="10" x1="94.566" y1="118.394" x2="60.066" y2="118.394"/>
<line fill="none" stroke="#000000" stroke-width="2" stroke-miterlimit="10" x1="94.566" y1="164.394" x2="60.066" y2="164.394"/>
<line fill="none" stroke="#000000" stroke-width="2" stroke-miterlimit="10" x1="94.566" y1="185.394" x2="60.066" y2="185.394"/>
<line fill="none" stroke="#000000" stroke-width="2" stroke-miterlimit="10" x1="94.566" y1="231.394" x2="60.066" y2="231.394"/>
<line fill="none" stroke="#000000" stroke-width="2" stroke-miterlimit="10" x1="80.232" y1="112.392" x2="80.232" y2="118.394"/>
<line fill="none" stroke="#000000" stroke-width="2" stroke-miterlimit="10" x1="80.232" y1="164.394" x2="80.232" y2="185.394"/>
<line fill="none" stroke="#000000" stroke-width="2" stroke-miterlimit="10" x1="80.232" y1="231.394" x2="80.232" y2="236.395"/>
<g>
	<g transform="matrix(25.88211,0,0,-25.88211,136.94227,53.13826)">
		<path fill="#FFFFFF" stroke="#010101" stroke-width="2" stroke-miterlimit="10" d="M10.302-1.541
			c0.397-0.03,0.744,0.267,0.776,0.661c0.03,0.399-0.265,0.744-0.662,0.778c-0.397,0.034-0.744-0.267-0.777-0.664
			C9.606-1.163,9.905-1.511,10.302-1.541"/>
	</g>
	<path fill="#FFFFFF" stroke="#010101" stroke-width="2" stroke-miterlimit="10" d="M434.686,143.497l-4.89,5.637
		c0,0-1.443,2.208-4.839,2.717c-4.96,0.744-11.535-12.578-11.535-12.578l-8.415,37.222l33.124,39.113
		c0.693,1.229,1.23,2.584,1.514,3.971l8.95,47.276c-0.062,1.071,0.126,1.67,0.063,2.616c-0.567,6.933-6.65,12.103-13.616,11.565
		c-5.735-0.44-10.022-4.758-11.377-9.99l-8.479-44.25l-26.853-29.5l-6.304,28.712c-0.188,1.355-1.954,4.161-2.521,5.358
		l-25.781,43.494c-2.584,4.002-6.902,6.523-11.818,6.176c-6.966-0.566-12.197-6.649-11.63-13.614
		c0.157-1.955,0.977-4.003,1.701-5.421l24.017-40.311l19.95-88.659L362.9,143.56l-6.902,31.644
		c-0.914,4.003-4.602,7.344-8.982,6.966c-4.633-0.378-8.132-4.381-7.754-9.045l0.189-1.104l8.257-36.875
		c0.41-1.607,1.324-3.026,2.586-4.065l37.474-30.352l0,0c3.688-2.584,8.194-4.318,13.048-3.939
		c6.461,0.567,11.756,4.506,14.907,9.36l10.775,20.737"/>
	<path fill="#FFFFFF" stroke="#010101" stroke-width="2" stroke-miterlimit="10" d="M426.462,126.509l19.686-23.254
		c1.88-1.997,4.771-3.036,7.604-2.529c4.638,0.814,7.648,5.203,6.806,9.807c-0.232,1.371-0.845,2.417-1.607,3.703l-24.264,29.262"/>
</g>
<path fill="none" stroke="#010101" stroke-width="2" stroke-linecap="round" d="M212.689,166.882"/>
<path fill="none" stroke="#010101" stroke-width="2" stroke-linecap="round" d="M230.69,148.882"/>
<path fill="none" stroke="#010101" stroke-width="2" stroke-linecap="round" d="M230.691,138.083"/>
<g>
	<path fill="none" stroke="#010101" stroke-width="2" stroke-linecap="round" d="M111.766,116.644"/>
	<path fill="none" stroke="#010101" stroke-width="2" stroke-linecap="round" d="M114.251,164.095
		c6.868-5.264,11.298-13.551,11.298-22.873c0-10.404-5.518-19.518-13.783-24.579"/>
	<path fill="none" stroke="#010101" stroke-width="2" stroke-linecap="round" d="M126.396,167.475
		c6.192-6.988,9.953-16.181,9.953-26.252c0-11.75-5.118-22.305-13.245-29.557"/>
	<path fill="none" stroke="#010101" stroke-width="2" stroke-linecap="round" d="M137.692,170.619
		c5.951-8.274,9.457-18.426,9.457-29.396c0-13.212-5.084-25.236-13.401-34.223"/>
	<path fill="none" stroke="#010101" stroke-width="2" stroke-linecap="round" d="M148.65,173.668c5.893-9.405,9.3-20.527,9.3-32.446
		c0-14.715-5.193-28.215-13.845-38.771"/>
	<path fill="none" stroke="#010101" stroke-width="2" stroke-linecap="round" d="M159.433,176.669
		c5.931-10.464,9.316-22.56,9.316-35.447c0-16.229-5.369-31.202-14.427-43.242"/>
</g>
<g>
	<path fill="none" stroke="#010101" stroke-width="2" stroke-linecap="round" d="M334.191,146.794"/>
	<path fill="none" stroke="#010101" stroke-width="2" stroke-linecap="round" d="M331.706,194.246
		c-6.868-5.264-11.298-13.551-11.298-22.873c0-10.404,5.518-19.518,13.783-24.579"/>
	<path fill="none" stroke="#010101" stroke-width="2" stroke-linecap="round" d="M319.561,197.625
		c-6.192-6.988-9.953-16.181-9.953-26.252c0-11.75,5.118-22.305,13.245-29.557"/>
	<path fill="none" stroke="#010101" stroke-width="2" stroke-linecap="round" d="M308.265,200.769
		c-5.951-8.274-9.457-18.426-9.457-29.396c0-13.212,5.084-25.236,13.401-34.223"/>
	<path fill="none" stroke="#010101" stroke-width="2" stroke-linecap="round" d="M297.307,203.819
		c-5.893-9.405-9.3-20.527-9.3-32.446c0-14.715,5.193-28.215,13.845-38.771"/>
	<path fill="none" stroke="#010101" stroke-width="2" stroke-linecap="round" d="M286.524,206.82
		c-5.931-10.464-9.316-22.56-9.316-35.447c0-16.229,5.369-31.202,14.427-43.242"/>
</g>
</svg>
