<?xml version="1.0" encoding="utf-8"?>
<!-- Generator: Adobe Illustrator 16.0.4, SVG Export Plug-In . SVG Version: 6.00 Build 0)  -->
<!DOCTYPE svg PUBLIC "-//W3C//DTD SVG 1.1//EN" "http://www.w3.org/Graphics/SVG/1.1/DTD/svg11.dtd">
<svg version="1.1" id="Layer_1" xmlns="http://www.w3.org/2000/svg" xmlns:xlink="http://www.w3.org/1999/xlink" x="0px" y="0px"
	 width="638px" height="405px" viewBox="0 0 638 405" enable-background="new 0 0 638 405" xml:space="preserve">
<path fill="none" stroke="#010101" stroke-width="2" d="M241.782,203.895c15.102-1.164,26.398-14.349,25.223-29.445
	c-1.027-13.481-11.753-24.196-25.223-25.24"/>
<path fill="none" stroke="#010101" stroke-width="2" d="M241.782,178.655c-6.966-2.031-14.269,1.968-16.3,8.94
	c-2.042,6.972,1.968,14.269,8.923,16.3c2.407,0.702,4.969,0.702,7.377,0"/>
<path fill="none" stroke="#010101" stroke-width="2" d="M241.782,245.96c18.582-5.231,29.41-24.532,24.185-43.115
	c-3.286-11.724-12.46-20.887-24.185-24.19"/>
<path fill="none" stroke="#010101" stroke-width="2" d="M241.782,220.72c-6.966-2.031-14.269,1.969-16.3,8.94
	c-2.042,6.96,1.968,14.263,8.923,16.306c2.407,0.702,4.969,0.702,7.377,0"/>
<path fill="none" stroke="#010101" stroke-width="2" d="M241.782,288.02c18.582-5.426,29.256-24.881,23.836-43.463
	c-3.355-11.49-12.34-20.482-23.836-23.837"/>
<path fill="none" stroke="#010101" stroke-width="2" d="M241.782,262.785c-6.966-2.037-14.269,1.968-16.3,8.94
	c-2.042,6.955,1.968,14.257,8.923,16.294c2.407,0.707,4.969,0.707,7.377,0"/>
<path fill="none" stroke="#010101" stroke-width="2" d="M241.782,317.47c15.102-1.164,26.398-14.343,25.223-29.45
	c-1.027-13.493-11.753-24.208-25.223-25.234"/>
<line fill="none" stroke="#010101" stroke-width="2" stroke-linecap="round" x1="428.305" y1="149.21" x2="305.906" y2="149.21"/>
<line fill="none" stroke="#010101" stroke-width="2" stroke-linecap="round" x1="305.906" y1="149.21" x2="305.906" y2="288.02"/>
<line fill="none" stroke="#010101" stroke-width="2" stroke-linecap="round" x1="380.036" y1="317.47" x2="295.906" y2="317.47"/>
<line fill="none" stroke="#010101" stroke-width="2" stroke-linecap="round" x1="295.906" y1="317.47" x2="295.906" y2="186.603"/>
<line fill="none" stroke="#010101" stroke-width="2" stroke-linecap="round" x1="170.959" y1="149.21" x2="241.782" y2="149.21"/>
<line fill="none" stroke="#010101" stroke-width="2" stroke-linecap="round" x1="170.959" y1="317.47" x2="241.782" y2="317.47"/>
<polygon fill="none" stroke="#010101" stroke-width="2" stroke-linecap="round" points="170.959,203.895 128.668,203.895 
	113.334,220.191 58.001,220.191 44.001,203.895 29.863,203.895 29.863,29.068 170.959,29.068 "/>
<g>
	<g transform="translate(46.5692,160.233)">
		<g id="schematic_8_">
			<path id="connector0pin_8_" fill="none" stroke="#797979" stroke-width="2" stroke-linecap="round" d="M44.392,179.027v-21.79"/>
			<g id="connector0terminal_8_">
			</g>
			<path id="path4098" fill="none" stroke="#010101" stroke-width="2" stroke-linecap="round" d="M22.322,179.44h44.134"/>
			<path id="path4100" fill="none" stroke="#010101" stroke-width="2" stroke-linecap="round" d="M29.673,187.746h29.429"/>
			<path id="path4102" fill="none" stroke="#010101" stroke-width="2" stroke-linecap="round" d="M51.736,195.978H37.034"/>
		</g>
	</g>
</g>
<line fill="none" stroke="#010101" stroke-width="2" stroke-linecap="round" x1="90.955" y1="220.191" x2="90.955" y2="317.47"/>
<line fill="none" stroke="#010101" stroke-width="2" stroke-linecap="round" x1="170.959" y1="317.47" x2="90.961" y2="317.47"/>
<g>
	<path fill="#C0BEBE" d="M434.559,144.212c0.892,0,1.615,1.531,1.615,3.422l0,0c0,1.893-0.724,3.424-1.615,3.424h-4.644
		c-0.887,0-1.61-1.531-1.61-3.424l0,0c0-1.891,0.724-3.422,1.61-3.422H434.559z"/>
	<path opacity="0.86" fill="#B9B9BB" enable-background="new    " d="M462.919,132.005c11.986,0,21.696,9.714,21.696,21.696
		c0,11.981-9.71,21.696-21.696,21.696c-11.981,0-21.695-9.714-21.695-21.696C441.224,141.719,450.938,132.005,462.919,132.005z"/>
	<path fill="#8E8D8D" d="M492.191,151.785c0,7.562-13.107,13.703-29.272,13.703l0,0c-16.165,0-29.268-6.142-29.268-13.703v-39.505
		c0-7.562,13.103-13.695,29.268-13.695l0,0c16.165,0,29.272,6.133,29.272,13.695V151.785z"/>
	<circle opacity="0.86" fill="#E8E7E7" enable-background="new    " cx="462.919" cy="68.174" r="54.311"/>
	<path fill="#C0BEBE" d="M494.994,146.112c0.892,0,1.615,1.529,1.615,3.422l0,0c0,1.893-0.724,3.426-1.615,3.426h-4.64
		c-0.891,0-1.61-1.531-1.61-3.426l0,0c0-1.893,0.72-3.422,1.61-3.422H494.994z"/>
	<path opacity="0.78" fill="#FFFFFF" enable-background="new    " d="M444.876,20.192c-1.523,0.19-4.313,1.131-6.271,2.184
		c-3.706,1.997-6.664,3.695-9.417,6.462c-2.033,2.05-7.02,7.942-7.79,9.313c-0.945,1.709-2.422,5.494-2.092,7.031
		c0.569,2.662,2.795,1.261,3.795-0.57c1.72-3.135,2.188-3.979,4.376-7.032c2.38-3.324,2.958-4.097,6.083-6.271
		c1.911-1.33,7.894-4.941,10.646-5.798c3.368-1.043,7.986-1.615,5.694-5.417C449.9,20.096,448.595,19.729,444.876,20.192z"/>
</g>
<g>
	<path fill="#939393" d="M592.554,198.354v-10.593c0-0.402-0.327-0.731-0.729-0.731h-9.316h-9.316c-0.401,0-0.73,0.329-0.73,0.731
		v10.593c0,0.403,0.327,0.731,0.73,0.731h18.633C592.225,199.085,592.554,198.758,592.554,198.354z M591.434,198.229
		c0,0.392-0.32,0.711-0.713,0.711h-16.428c-0.391,0-0.711-0.319-0.711-0.711v-10.343c0-0.392,0.32-0.711,0.711-0.711h8.214h8.214
		c0.393,0,0.713,0.32,0.713,0.711V198.229z"/>
	<path fill="#B3B3B3" d="M591.434,198.229v-10.343c0-0.392-0.32-0.711-0.713-0.711h-8.214h-8.214c-0.391,0-0.711,0.32-0.711,0.711
		v10.343c0,0.392,0.32,0.711,0.711,0.711h8.214h8.214C591.113,198.94,591.434,198.621,591.434,198.229z"/>
	<path fill="#E6E6E5" d="M589.773,198.17v-9.821c0-0.362-0.297-0.657-0.658-0.657h-3.06c0.142,0.12,0.24,0.298,0.24,0.51v8.847
		c0,0.362-0.271,0.657-0.601,0.657h-3.189h-1.115c-0.331,0-0.602-0.295-0.602-0.657V188.2c0-0.211,0.1-0.389,0.24-0.51h-5.131
		c-0.361,0-0.657,0.294-0.657,0.657v9.821c0,0.363,0.297,0.657,0.657,0.657h6.608h6.609
		C589.478,198.826,589.774,198.532,589.773,198.17z"/>
	<path opacity="0.9" fill="#FFFFFF" enable-background="new    " d="M579.363,198.001c0,0.385,0.257,0.699,0.568,0.699h-2.8
		c-0.315,0-0.57-0.313-0.57-0.699v-9.379c0-0.385,0.255-0.699,0.57-0.699h2.8c-0.312,0-0.568,0.313-0.568,0.699V198.001z"/>
</g>
<rect x="572.502" y="187.082" opacity="0.1" fill="#010101" enable-background="new    " width="20.038" height="1.994"/>
<path fill="#919191" d="M568.192,191.729c0,0-0.576,2.876-0.717,4.898c-0.14,2.023,0.74,4.736,0.74,4.736
	c0,1.208,0.993,2.798,1.981,2.798c3.501,0,5.25-0.074,8.749,0.189c1.555,0.117,3.164-0.187,3.598-1.588
	c0.432,1.401,2.036,1.702,3.591,1.584c3.5-0.264,5.251-0.185,8.751-0.185c0.99,0,2.156-1.485,2.156-2.796
	c0-1.903,0.588-2.647,0.503-4.354c-0.097-2.003-0.281-3.027-0.477-5.262c-0.051-0.575-0.68-0.526-1.35-0.539
	c-0.554-0.024-1.098,0.901-1.098,0.901s-0.389-0.95-1.31-1.018c-3.799-0.287-5.69-0.176-9.486-0.176
	c-0.504,0-1.049-0.019-1.28,0.633c-0.235-0.652-0.78-0.633-1.284-0.633c-3.719,0-5.576-0.126-9.297,0.154
	c-0.833,0.063-1.304,1.021-1.304,1.021s-0.957-0.89-1.451-0.868C568.97,191.235,568.262,190.906,568.192,191.729z"/>
<g>
	<path fill="#F4F4F4" d="M596.964,198.641c-0.608,0.096-1.233,0.203-1.904,0.322c0.357-1.956,0.226-3.05,0.001-5.366
		c0,0,0.77,0.309,1.864,0.633C597.048,196.172,597.32,196.964,596.964,198.641z"/>
	<path fill="#B7B7B8" d="M596.925,194.229c-1.094-0.325-1.864-0.633-1.864-0.633c-0.1-1.031,0.579-1.808,1.542-1.858
		C596.689,192.736,596.86,193.233,596.925,194.229z"/>
	<path fill="#989898" d="M596.963,198.639c-0.222,1.031-0.391,1.507-0.391,2.7c-0.971-0.068-1.777-0.938-1.621-1.813
		c0.12-0.668,0.223-0.957,0.243-1.728C595.177,198.496,596.241,198.641,596.963,198.639z"/>
</g>
<g>
	<path fill="#F4F4F4" d="M593.992,199.525c-0.126,0.914-0.628,1.825-1.29,1.825c-3.352,0-5.028,0.12-8.381,0.31
		c-0.664,0.037-1.201-1.078-1.201-2.675c0,0,0.24-1.71,0.24-2.78s-0.24-2.895-0.24-2.895c0-1.076,0.537-1.946,1.201-1.946
		c3.353,0,5.012-0.113,8.387,0.13c0.666,0.048,1.292,0.96,1.372,2.037C594.272,196.116,594.293,197.334,593.992,199.525z"/>
	<g>
		<path fill="#B7B7B8" d="M594.079,193.531c0,0-2.977-0.065-5.277-0.065c-2.142,0-5.683-0.155-5.683-0.155
			c0-1.076,0.537-1.946,1.2-1.946c3.354,0,5.012-0.113,8.388,0.13C593.374,191.542,593.998,192.455,594.079,193.531z"/>
	</g>
	<g>
		<path fill="#989898" d="M593.989,199.525c0.099-0.706,0.188-1.008,0.186-1.839c-1.498,1.229-3.06,0.456-5.376,0.457
			c-2.141,0.001-4.107,0.318-5.68,0.829c0,0.316,0,0.475,0,0.79c0,1.071,0.537,1.935,1.2,1.898c3.354-0.19,5.03-0.31,8.382-0.31
			C593.363,201.351,593.866,200.439,593.989,199.525z"/>
	</g>
</g>
<g>
	<path fill="#F4F4F4" d="M568.129,198.641c0.607,0.096,1.231,0.203,1.901,0.322c-0.35-1.958-0.22-3.056,0-5.372
		c0,0-0.771,0.309-1.868,0.636C568.038,196.168,567.775,196.964,568.129,198.641z"/>
	<path fill="#B7B7B8" d="M568.162,194.225c1.097-0.327,1.868-0.637,1.868-0.637c0.099-1.029-0.585-1.806-1.548-1.854
		C568.396,192.732,568.227,193.229,568.162,194.225z"/>
	<path fill="#989898" d="M568.13,198.639c0.218,1.031,0.384,1.507,0.384,2.7c0.971-0.068,1.776-0.938,1.622-1.813
		c-0.145-0.818-0.245-1.233-0.236-2.155C569.892,198.21,568.674,198.641,568.13,198.639z"/>
</g>
<g>
	<path fill="#F4F4F4" d="M571.099,199.527c0.122,0.914,0.627,1.825,1.288,1.825c3.351,0,5.028,0.128,8.379,0.315
		c0.663,0.036,1.195-1.609,1.195-2.681c0,0-0.218-1.359-0.218-2.536s0.218-3.139,0.218-3.139c0-1.076-0.532-1.946-1.195-1.946
		c-3.351,0-5.014-0.116-8.387,0.125c-0.666,0.047-1.289,0.958-1.369,2.034C570.822,196.107,570.803,197.334,571.099,199.527z"/>
	<g>
		<path fill="#B7B7B8" d="M571.011,193.523c0,0,2.972-0.058,5.272-0.058c2.141,0,5.678-0.155,5.678-0.155
			c0-1.076-0.532-1.946-1.195-1.946c-3.351,0-5.014-0.116-8.387,0.125C571.713,191.537,571.09,192.447,571.011,193.523z"/>
	</g>
	<g>
		<path fill="#989898" d="M571.101,199.525c-0.107-0.799-0.185-1.196-0.183-2.112c1.242,1.16,3.051,0.728,5.365,0.73
			c2.14,0.002,4.107,0.321,5.678,0.831c0,0.317,0,0.476,0,0.792c0,1.071-0.532,1.936-1.195,1.899
			c-3.351-0.185-5.028-0.314-8.379-0.314C571.726,201.351,571.22,200.439,571.101,199.525z"/>
	</g>
</g>
<path fill="#939393" d="M525.941,191.395v10.591c0,0.402,0.327,0.73,0.73,0.73h9.316h9.317c0.4,0,0.729-0.328,0.729-0.73v-10.592
	c0-0.403-0.327-0.731-0.729-0.731h-18.633C526.271,190.662,525.943,190.991,525.941,191.395z M527.064,191.518
	c0-0.392,0.319-0.711,0.711-0.711h16.428c0.392,0,0.711,0.32,0.711,0.711v10.345c0,0.391-0.319,0.711-0.711,0.711h-8.214h-8.214
	c-0.392,0-0.711-0.32-0.711-0.711V191.518z"/>
<path fill="#B3B3B3" d="M527.063,191.518v10.345c0,0.391,0.319,0.711,0.711,0.711h8.214h8.214c0.392,0,0.711-0.32,0.711-0.711
	v-10.344c0-0.391-0.319-0.711-0.711-0.711h-8.214h-8.214C527.384,190.808,527.064,191.128,527.063,191.518z"/>
<path fill="#E6E6E5" d="M528.725,191.577v9.821c0,0.362,0.296,0.657,0.657,0.657h3.06c-0.143-0.12-0.239-0.298-0.239-0.51v-8.848
	c0-0.362,0.271-0.657,0.601-0.657h3.188h1.117c0.329,0,0.6,0.294,0.6,0.657v8.85c0,0.211-0.099,0.389-0.238,0.51h5.13
	c0.362,0,0.657-0.294,0.657-0.657v-9.821c0-0.363-0.296-0.657-0.657-0.657h-6.609h-6.608
	C529.018,190.921,528.724,191.216,528.725,191.577z"/>
<path opacity="0.9" fill="#FFFFFF" enable-background="new    " d="M539.135,191.746c0-0.385-0.257-0.698-0.57-0.698h2.801
	c0.314,0,0.571,0.313,0.571,0.698v9.379c0,0.385-0.257,0.699-0.571,0.699h-2.801c0.313,0,0.57-0.313,0.57-0.699V191.746z"/>
<rect x="525.956" y="200.672" fill="none" width="20.037" height="1.995"/>
<rect x="568.107" y="200.672" opacity="0.1" fill="#010101" enable-background="new    " width="29.117" height="1.995"/>
<path fill="#353635" d="M597.078,332.64c-0.126,0.005-0.251,0.014-0.378,0.014h0.078
	C596.879,332.653,596.977,332.645,597.078,332.64z"/>
<path fill="#353635" d="M597.577,332.614c-0.026,0.003-0.053,0.007-0.079,0.008C597.523,332.621,597.551,332.617,597.577,332.614z"
	/>
<path opacity="0.35" fill="#010101" enable-background="new    " d="M597.497,332.622c-0.138,0.011-0.279,0.013-0.419,0.018
	C597.22,332.635,597.359,332.632,597.497,332.622z"/>
<path fill="#353635" d="M520.056,332.652h76.646c0.127,0,0.252-0.011,0.378-0.014c0.14-0.006,0.282-0.007,0.419-0.018
	c0.026-0.002,0.053-0.006,0.079-0.008c3.308-0.297,5.962-2.417,6.427-5.093v-0.16c0,1.454-3.285,2.645-7.303,2.645h-76.686
	c-3.422,0-6.305-0.863-7.086-2.018C513.662,330.647,516.582,332.653,520.056,332.652z"/>
<path opacity="0.35" fill="#010101" enable-background="new    " d="M520.056,332.652h76.646c0.127,0,0.252-0.011,0.378-0.014
	c0.14-0.006,0.282-0.007,0.419-0.018c0.026-0.002,0.053-0.006,0.079-0.008c3.308-0.297,5.962-2.417,6.427-5.093v-0.16
	c0,1.454-3.285,2.645-7.303,2.645h-76.686c-3.422,0-6.305-0.863-7.086-2.018C513.662,330.647,516.582,332.653,520.056,332.652z"/>
<g>
	<path fill="#353635" d="M518.672,201.562h76.721c5.479,0,8.768,2.194,8.768,4.876v164.535c0,3.279-3.288,5.963-7.306,5.963h-76.723
		c-4.019,0-7.307-2.684-7.307-5.963V206.437c0-2.682,3.288-4.876,5.847-4.876V201.562z"/>
	<path fill="#D18D52" d="M512.825,206.438c0-2.681,3.288-4.876,5.847-4.876h76.721c5.479,0,8.768,2.195,8.768,4.876v38.422h-91.335
		V206.438z"/>
</g>
<path opacity="0.15" fill="#FFFFFF" enable-background="new    " d="M602.686,205.561c0-0.607-2.054-1.125-4.876-1.304V373.24
	c2.822-0.219,4.876-0.854,4.876-1.594V205.561z"/>
<path opacity="0.35" fill="#FFFFFF" enable-background="new    " d="M602.687,205.545v-0.281c0-1.355-3.175-2.465-7.058-2.465
	H521.51c-3.884,0-7.06,1.11-7.06,2.465v0.281c0-0.755,3.176-1.372,7.06-1.372h74.117C599.51,204.173,602.686,204.79,602.687,205.545
	L602.687,205.545z"/>
<path fill="#919191" d="M550.312,199.249c0,0,0.576-2.878,0.716-4.9c0.142-2.022-0.74-4.737-0.74-4.737
	c0-1.207-0.991-2.798-1.982-2.798c-3.5,0-5.248,0.076-8.747-0.188c-1.555-0.117-3.164,0.185-3.597,1.587
	c-0.433-1.401-2.037-1.701-3.592-1.583c-3.5,0.264-5.251,0.184-8.751,0.184c-0.991,0-2.156,1.487-2.156,2.797
	c0,1.904-0.587,2.648-0.504,4.354c0.098,2.005,0.283,3.028,0.478,5.263c0.051,0.576,0.68,0.526,1.349,0.54
	c0.556,0.025,1.1-0.901,1.1-0.901s0.389,0.949,1.311,1.02c3.798,0.287,5.69,0.176,9.486,0.176c0.502,0,1.046,0.018,1.28-0.633
	c0.235,0.651,0.78,0.633,1.283,0.633c3.72,0,5.576,0.125,9.298-0.153c0.833-0.063,1.304-1.021,1.304-1.021s0.957,0.89,1.451,0.867
	C549.533,199.743,550.242,200.072,550.312,199.249z"/>
<g>
	<path fill="#F4F4F4" d="M524.512,191.453c0.127-0.914,0.63-1.825,1.29-1.825c3.354,0,5.03-0.121,8.383-0.31
		c0.663-0.038,1.2,1.078,1.2,2.675c0,0-0.241,1.71-0.241,2.78c0,1.068,0.241,2.894,0.241,2.894c0,1.076-0.537,1.947-1.2,1.947
		c-3.353,0-5.013,0.113-8.389-0.131c-0.665-0.048-1.292-0.96-1.371-2.036C524.23,194.862,524.213,193.643,524.512,191.453z"/>
	<g>
		<path fill="#B7B7B8" d="M524.425,197.446c0,0,2.976,0.066,5.277,0.066c2.142,0,5.683,0.154,5.683,0.154
			c0,1.076-0.537,1.947-1.2,1.947c-3.353,0-5.013,0.113-8.389-0.131C525.131,199.435,524.504,198.522,524.425,197.446z"/>
	</g>
	<g>
		<path fill="#989898" d="M524.514,191.453c-0.098,0.706-0.187,1.007-0.185,1.839c1.498-1.23,3.06-0.457,5.376-0.458
			c2.141-0.001,4.108-0.319,5.68-0.829c0-0.316,0-0.474,0-0.79c0-1.071-0.537-1.935-1.2-1.897c-3.353,0.189-5.029,0.31-8.383,0.31
			C525.142,189.627,524.639,190.539,524.514,191.453z"/>
	</g>
</g>
<g>
	<path fill="#F4F4F4" d="M550.376,192.337c-0.608-0.097-1.232-0.204-1.902-0.322c0.35,1.957,0.221,3.056,0,5.372
		c0,0,0.771-0.31,1.866-0.637C550.468,194.809,550.73,194.013,550.376,192.337z"/>
	<path fill="#B7B7B8" d="M550.34,196.751c-1.095,0.327-1.866,0.637-1.866,0.637c-0.098,1.03,0.585,1.808,1.547,1.855
		C550.11,198.246,550.276,197.747,550.34,196.751z"/>
	<path fill="#989898" d="M550.376,192.337c-0.218-1.031-0.384-1.507-0.384-2.7c-0.971,0.068-1.776,0.937-1.623,1.813
		c0.144,0.818,0.244,1.233,0.236,2.155C548.611,192.768,549.832,192.337,550.376,192.337z"/>
</g>
<g>
	<path fill="#F4F4F4" d="M547.405,191.451c-0.123-0.914-0.627-1.825-1.288-1.825c-3.352,0-5.027-0.13-8.378-0.315
		c-0.665-0.037-1.197,1.608-1.197,2.681c0,0,0.219,1.359,0.219,2.536s-0.219,3.138-0.219,3.138c0,1.076,0.532,1.947,1.197,1.947
		c3.351,0,5.013,0.116,8.386-0.125c0.665-0.048,1.289-0.957,1.368-2.034C547.684,194.87,547.699,193.643,547.405,191.451z"/>
	<g>
		<path fill="#B7B7B8" d="M547.493,197.454c0,0-2.97,0.059-5.272,0.059c-2.141,0-5.678,0.154-5.678,0.154
			c0,1.076,0.532,1.947,1.197,1.947c3.351,0,5.013,0.116,8.387-0.125C546.79,199.44,547.415,198.531,547.493,197.454z"/>
	</g>
	<g>
		<path fill="#989898" d="M547.405,191.453c0.106,0.799,0.184,1.196,0.183,2.112c-1.242-1.162-3.053-0.729-5.367-0.731
			c-2.14-0.003-4.105-0.321-5.678-0.83c0-0.317,0-0.476,0-0.792c0-1.072,0.532-1.936,1.197-1.899
			c3.351,0.184,5.027,0.314,8.379,0.314C546.779,189.627,547.283,190.539,547.405,191.453z"/>
	</g>
</g>
<g transform="matrix(1, 0, 0, 1, 22.6406, 75.9354)">
	<text transform="matrix(1 0 0 1 523.3779 203.1325)" fill="#FFFFFF" font-family="'HelveticaNeue'" font-size="28.3544">9</text>
</g>
<g transform="matrix(1, 0, 0, 1, 22.6406, 75.9354)">
	<text transform="matrix(1 0 0 1 18.3203 35.6491)" font-family="'HelveticaNeue'" font-size="18">Microcontroller</text>
</g>
<g transform="matrix(1, 0, 0, 1, 22.6406, 75.9354)">
	<text transform="matrix(1 0 0 1 119.3203 176.1007)" font-family="'HelveticaNeue'" font-size="18">Relay coil</text>
</g>
<g transform="matrix(1, 0, 0, 1, 22.6406, 75.9354)">
	<text transform="matrix(1 0 0 1 244.6407 56.0695)" font-family="'HelveticaNeue'" font-size="18">Relay switch</text>
</g>
<g transform="matrix(1, 0, 0, 1, 22.6406, 75.9354)">
	<text transform="matrix(1 0 0 1 418.583 -2.7616)" font-family="'HelveticaNeue'" font-size="18">Lamp</text>
</g>
<g transform="matrix(1, 0, 0, 1, 22.6406, 75.9354)">
	<text transform="matrix(1 0 0 1 512.7441 234.1896)" fill="#FFFFFF" font-family="'HelveticaNeue'" font-size="18">Battery</text>
</g>
<g transform="matrix(1, 0, 0, 1, 22.6406, 75.9354)">
	<text transform="matrix(1 0 0 1 507.2647 152.1325)" fill="#FFFFFF" font-family="'HelveticaNeue'" font-size="28.3544">-</text>
</g>
<g transform="matrix(1, 0, 0, 1, 22.6406, 75.9354)">
	<text transform="matrix(1 0 0 1 555.6064 152.1325)" fill="#FFFFFF" font-family="'HelveticaNeue'" font-size="28.3544">+</text>
</g>
<g transform="matrix(1, 0, 0, 1, 36.5776, 75.9359)">
	<text transform="matrix(1 0 0 1 527.4039 203.132)" fill="#FFFFFF" font-family="'HelveticaNeue'" font-size="28.3544">v</text>
</g>
<line fill="none" stroke="#010101" stroke-width="2" stroke-linecap="round" x1="496.609" y1="149.534" x2="583.119" y2="149.534"/>
<line fill="none" stroke="#010101" stroke-width="2" stroke-linecap="round" x1="583.119" y1="149.534" x2="583.119" y2="187.03"/>
<line fill="none" stroke="#010101" stroke-width="2" stroke-linecap="round" x1="380.036" y1="317.47" x2="380.036" y2="182.5"/>
<line fill="none" stroke="#010101" stroke-width="2" stroke-linecap="round" x1="380.036" y1="182.5" x2="535.996" y2="182.5"/>
<line fill="none" stroke="#010101" stroke-width="2" stroke-linecap="round" x1="535.996" y1="182.5" x2="535.996" y2="188.213"/>
<circle cx="90.961" cy="317.47" r="7.345"/>
</svg>
