<?xml version="1.0" encoding="UTF-8" standalone="no"?>
<!DOCTYPE svg PUBLIC "-//W3C//DTD SVG 1.1//EN" "http://www.w3.org/Graphics/SVG/1.1/DTD/svg11.dtd">
<svg width="100%" height="100%" viewBox="0 0 673 711" version="1.1" xmlns="http://www.w3.org/2000/svg" xmlns:xlink="http://www.w3.org/1999/xlink" xml:space="preserve" xmlns:serif="http://www.serif.com/" style="fill-rule:evenodd;clip-rule:evenodd;stroke-linecap:round;stroke-linejoin:round;stroke-miterlimit:1.5;">
    <g id="Artboard1" transform="matrix(1.13664,0,0,1.13948,-1417.44,-1593.75)">
        <rect x="1247.05" y="1398.67" width="591.914" height="623.249" style="fill:none;"/>
        <g transform="matrix(0.879784,0,0,0.537275,634.486,930.026)">
            <g transform="matrix(1,-0,-0,1.63342,696.261,872.258)">
                <path d="M473.447,173.967L487.36,146.142L501.273,173.967L473.447,173.967Z"/>
                <path d="M487.36,384.311L487.36,168.402" style="fill:none;stroke:black;stroke-width:4.17px;"/>
            </g>
        </g>
        <g transform="matrix(0.636848,0.0490955,0.0492179,0.635264,848.204,724.931)">
            <g transform="matrix(1.38977,-0.107406,-0.107406,1.38977,547.581,1018.24)">
                <path d="M325.145,566.202L295.632,576.04L305.47,546.526L325.145,566.202Z"/>
                <path d="M487.36,384.311C487.36,384.311 357.208,514.463 311.372,560.299" style="fill:none;stroke:black;stroke-width:4.17px;"/>
            </g>
        </g>
        <g transform="matrix(-0.616828,0,0,0.877597,2405.91,419.543)">
            <g transform="matrix(-1.4263,0,0,1,1878.75,1115.69)">
                <path d="M238.765,398.224L210.939,384.311L238.765,370.398L238.765,398.224Z"/>
                <path d="M487.36,384.311L233.2,384.311" style="fill:none;stroke:black;stroke-width:4.17px;"/>
            </g>
        </g>
        <g transform="matrix(0.879784,0,0,0.877597,638.753,441.769)">
            <path d="M1288.92,1537.07C1288.67,1531.92 1280.46,1525.44 1278.03,1520.58C1272.12,1508.75 1273,1494.44 1267.65,1482.88C1260.69,1467.84 1244.5,1447.1 1233.57,1434.74C1204,1401.31 1195.95,1401.23 1195.95,1356.78C1195.95,1354.83 1193.59,1322.67 1202.23,1322.67C1203.5,1322.67 1201.71,1315.36 1201.55,1314.09C1199.73,1299.71 1184.41,1302.84 1180.38,1304.85C1164.77,1312.63 1159.06,1344.56 1159.06,1360.52C1159.06,1381.79 1170.99,1438.99 1139.97,1452.83C1123.43,1460.2 1111.57,1458.71 1092.91,1457.28C1061.5,1454.88 1006.97,1458.95 967.679,1465.46C942.253,1469.67 931.142,1492.41 972.569,1500C986.253,1502.51 1043.71,1499.17 1055.7,1498.75C1072.46,1498.15 1089.05,1497.54 1105.83,1497.54C1115.53,1497.54 1119.1,1499.74 1117.97,1500C1102.4,1503.66 1077.93,1526.35 1062.37,1545.32C1053.01,1556.72 987.776,1623.22 1009.69,1631.07C1034.74,1640.05 1095.46,1566.43 1116.43,1540.05C1123.78,1530.81 1123.88,1532.53 1125,1530.03" style="fill:none;stroke:rgb(132,132,132);stroke-width:4.17px;"/>
            <path d="M1112.71,1545.59C1127.42,1539.89 1145.43,1536.48 1152.71,1548.05C1164.38,1566.62 1134.65,1574.35 1099.84,1592.42C1090.08,1597.48 1085.62,1593.52 1084.68,1592.73C1072.99,1582.92 1090.6,1575.3 1090.6,1570.79" style="fill:none;stroke:rgb(132,132,132);stroke-width:4.17px;"/>
            <path d="M1155.29,1564.45C1165.57,1564.45 1169.93,1571.04 1170.73,1573.8C1175.76,1591.3 1164.24,1596.63 1149.18,1601.71C1132.85,1607.23 1125.08,1611.93 1107.52,1616.08C1103.31,1617.07 1097.99,1620.69 1091.53,1615.79C1089.51,1614.26 1079.34,1603.29 1088.34,1594.79" style="fill:none;stroke:rgb(132,132,132);stroke-width:4.17px;"/>
            <g transform="matrix(1,0,0,1,-35.7486,-7.13179)">
                <path d="M1157.08,1620.11C1168.3,1625.13 1207.49,1617.27 1238.18,1614.07C1253.16,1612.5 1268.51,1616.31 1283.41,1614.63C1310.71,1611.54 1308.48,1596.69 1336.57,1603.84C1337.68,1604.13 1337.61,1603.74 1337.61,1604.33" style="fill:none;stroke:rgb(132,132,132);stroke-width:4.17px;"/>
            </g>
        </g>
        <g transform="matrix(0.879784,0,0,0.877597,191.47,200.81)">
            <text x="1584.11px" y="1442.82px" style="font-family:'ArialMT', 'Arial', sans-serif;font-size:50px;">Magnetic</text>
            <text x="1629.97px" y="1494.45px" style="font-family:'ArialMT', 'Arial', sans-serif;font-size:50px;">force</text>
        </g>
        <g transform="matrix(0.879784,0,0,0.877597,-146.631,485.431)">
            <text x="1602.19px" y="1442.82px" style="font-family:'ArialMT', 'Arial', sans-serif;font-size:50px;">Current</text>
        </g>
        <g transform="matrix(0.879784,0,0,0.877597,-10.2717,684.04)">
            <text x="1584.11px" y="1442.82px" style="font-family:'ArialMT', 'Arial', sans-serif;font-size:50px;">Magnetic</text>
            <text x="1593.82px" y="1494.45px" style="font-family:'ArialMT', 'Arial', sans-serif;font-size:50px;">ﬁeld line</text>
        </g>
    </g>
</svg>
