<?xml version="1.0" encoding="UTF-8" standalone="no"?>
<!DOCTYPE svg PUBLIC "-//W3C//DTD SVG 1.1//EN" "http://www.w3.org/Graphics/SVG/1.1/DTD/svg11.dtd">
<svg width="100%" height="100%" viewBox="0 0 1181 768" version="1.1" xmlns="http://www.w3.org/2000/svg" xmlns:xlink="http://www.w3.org/1999/xlink" xml:space="preserve" xmlns:serif="http://www.serif.com/" style="fill-rule:evenodd;clip-rule:evenodd;stroke-miterlimit:10;">
    <g id="Artboard1" transform="matrix(1,0,0,1,-478.918,-861.902)">
        <rect x="478.918" y="861.902" width="1180.71" height="767.115" style="fill:none;"/>
        <g transform="matrix(1,0,0,1,0.917687,0.902063)">
            <g transform="matrix(4.16667,0,0,4.16667,369.674,498.758)">
                <path d="M99.8,118C108.2,118 115.1,124.8 115.1,133.3C115.1,141.8 108.3,148.6 99.8,148.6" style="fill:none;fill-rule:nonzero;stroke:black;stroke-width:2px;"/>
            </g>
            <g transform="matrix(4.16667,0,0,4.16667,369.674,498.758)">
                <path d="M99.8,148.5C108.2,148.5 115.1,155.3 115.1,163.8C115.1,172.3 108.3,179.1 99.8,179.1" style="fill:none;fill-rule:nonzero;stroke:black;stroke-width:2px;"/>
            </g>
            <g transform="matrix(4.16667,0,0,4.16667,369.674,498.758)">
                <path d="M99.8,179.1C108.2,179.1 115.1,185.9 115.1,194.4C115.1,202.9 108.3,209.7 99.8,209.7" style="fill:none;fill-rule:nonzero;stroke:black;stroke-width:2px;"/>
            </g>
            <g transform="matrix(4.16667,0,0,4.16667,369.674,498.758)">
                <path d="M99.8,209.6C108.2,209.6 115.1,216.4 115.1,224.9C115.1,233.4 108.3,240.2 99.8,240.2" style="fill:none;fill-rule:nonzero;stroke:black;stroke-width:2px;"/>
            </g>
            <g transform="matrix(4.16667,0,0,4.16667,369.674,498.758)">
                <path d="M99.8,118L65.5,118" style="fill:none;fill-rule:nonzero;stroke:black;stroke-width:2px;"/>
            </g>
            <g transform="matrix(4.16667,0,0,4.16667,369.674,498.758)">
                <path d="M99.8,240.2L65.5,240.2" style="fill:none;fill-rule:nonzero;stroke:black;stroke-width:2px;"/>
            </g>
            <g transform="matrix(4.16667,0,0,4.16667,574.849,1029.14)">
                <text x="0px" y="0px" style="font-family:'HelveticaNeue', 'Helvetica Neue';font-size:15.719px;">1</text>
            </g>
            <g transform="matrix(4.16667,0,0,4.16667,574.849,1499.63)">
                <text x="0px" y="0px" style="font-family:'HelveticaNeue', 'Helvetica Neue';font-size:15.719px;">2</text>
            </g>
            <g transform="matrix(4.16667,0,0,4.16667,635.763,948.84)">
                <text x="0px" y="0px" style="font-family:'HelveticaNeue', 'Helvetica Neue';font-size:15.719px;">coil 1</text>
            </g>
        </g>
        <g transform="matrix(1,0,0,1,0.917687,0.902063)">
            <g transform="matrix(4.16667,0,0,4.16667,709.674,498.758)">
                <path d="M159.6,118C151.2,118 144.3,124.8 144.3,133.3C144.3,141.8 151.1,148.6 159.6,148.6" style="fill:none;fill-rule:nonzero;stroke:black;stroke-width:2px;"/>
            </g>
            <g transform="matrix(4.16667,0,0,4.16667,709.674,498.758)">
                <path d="M159.6,148.5C151.2,148.5 144.3,155.3 144.3,163.8C144.3,172.3 151.1,179.1 159.6,179.1" style="fill:none;fill-rule:nonzero;stroke:black;stroke-width:2px;"/>
            </g>
            <g transform="matrix(4.16667,0,0,4.16667,709.674,498.758)">
                <path d="M159.6,179.1C151.2,179.1 144.3,185.9 144.3,194.4C144.3,202.9 151.1,209.7 159.6,209.7" style="fill:none;fill-rule:nonzero;stroke:black;stroke-width:2px;"/>
            </g>
            <g transform="matrix(4.16667,0,0,4.16667,709.674,498.758)">
                <path d="M159.6,209.6C151.2,209.6 144.3,216.4 144.3,224.9C144.3,233.4 151.1,240.2 159.6,240.2" style="fill:none;fill-rule:nonzero;stroke:black;stroke-width:2px;"/>
            </g>
            <g transform="matrix(4.16667,0,0,4.16667,709.674,498.758)">
                <path d="M159.6,118L193.9,118" style="fill:none;fill-rule:nonzero;stroke:black;stroke-width:2px;"/>
            </g>
            <g transform="matrix(4.16667,0,0,4.16667,709.674,498.758)">
                <path d="M159.6,240.2L193.9,240.2" style="fill:none;fill-rule:nonzero;stroke:black;stroke-width:2px;"/>
            </g>
            <g transform="matrix(4.16667,0,0,4.16667,1539.85,1019.05)">
                <text x="0px" y="0px" style="font-family:'HelveticaNeue', 'Helvetica Neue';font-size:15.719px;">3</text>
            </g>
            <g transform="matrix(4.16667,0,0,4.16667,1539.85,1500)">
                <text x="0px" y="0px" style="font-family:'HelveticaNeue', 'Helvetica Neue';font-size:15.719px;">4</text>
            </g>
            <g transform="matrix(4.16667,0,0,4.16667,1355.54,948.84)">
                <text x="0px" y="0px" style="font-family:'HelveticaNeue', 'Helvetica Neue';font-size:15.719px;">coil 2</text>
            </g>
        </g>
        <g transform="matrix(2.04215,0,0,2.04215,-1220.07,-1392.47)">
            <path d="M1133.83,1195.07C1128.32,1194.52 1122.77,1194.52 1117.25,1195.07L1114.52,1208.83C1109.24,1209.67 1104.06,1211.11 1099.07,1213.12L1090.06,1202.61C1085.02,1204.99 1080.21,1207.86 1075.7,1211.19L1079.98,1224.52C1075.81,1227.98 1072.02,1231.91 1068.67,1236.23L1055.8,1231.79C1052.57,1236.46 1049.8,1241.44 1047.51,1246.65L1057.65,1255.98C1055.71,1261.14 1054.32,1266.5 1053.51,1271.97L1040.22,1274.8C1039.68,1280.5 1039.68,1286.25 1040.22,1291.95L1053.51,1294.78C1054.32,1300.25 1055.71,1305.61 1057.65,1310.77L1047.51,1320.1C1049.8,1325.31 1052.57,1330.29 1055.8,1334.96L1068.67,1330.52C1072.02,1334.84 1075.81,1338.77 1079.98,1342.23L1075.7,1355.56C1080.21,1358.89 1085.02,1361.76 1090.06,1364.13L1099.07,1353.63C1104.06,1355.64 1109.24,1357.08 1114.52,1357.92L1117.25,1371.67C1122.77,1372.23 1128.32,1372.23 1133.83,1371.67L1136.56,1357.92C1141.85,1357.08 1147.03,1355.64 1152.01,1353.63L1161.02,1364.13C1166.07,1361.76 1170.88,1358.89 1175.38,1355.56L1171.1,1342.23C1175.27,1338.77 1179.07,1334.84 1182.41,1330.52L1195.29,1334.96C1198.51,1330.29 1201.29,1325.31 1203.58,1320.1L1193.43,1310.77C1195.37,1305.61 1196.76,1300.25 1197.57,1294.78L1210.87,1291.95C1211.4,1286.25 1211.4,1280.5 1210.87,1274.8L1197.57,1271.97C1196.76,1266.5 1195.37,1261.14 1193.43,1255.98L1203.58,1246.65C1201.29,1241.44 1198.51,1236.46 1195.29,1231.79L1182.41,1236.23C1179.07,1231.91 1175.27,1227.98 1171.1,1224.52L1175.38,1211.19C1170.88,1207.86 1166.07,1204.99 1161.02,1202.61L1152.01,1213.12C1147.03,1211.11 1141.85,1209.67 1136.56,1208.83L1133.83,1195.07ZM1125.54,1265.63C1135.01,1265.63 1142.69,1273.58 1142.69,1283.38C1142.69,1293.17 1135.01,1301.12 1125.54,1301.12C1116.08,1301.12 1108.4,1293.17 1108.4,1283.38C1108.4,1273.58 1116.08,1265.63 1125.54,1265.63Z" style="fill:none;stroke:black;stroke-width:4.08px;stroke-linecap:round;stroke-linejoin:round;stroke-miterlimit:1.5;"/>
        </g>
    </g>
</svg>
