<?xml version="1.0" encoding="utf-8"?>
<!-- Generator: Adobe Illustrator 16.0.4, SVG Export Plug-In . SVG Version: 6.00 Build 0)  -->
<!DOCTYPE svg PUBLIC "-//W3C//DTD SVG 1.1//EN" "http://www.w3.org/Graphics/SVG/1.1/DTD/svg11.dtd">
<svg version="1.1" id="Layer_1" xmlns="http://www.w3.org/2000/svg" xmlns:xlink="http://www.w3.org/1999/xlink" x="0px" y="0px"
	 width="796px" height="374px" viewBox="0 0 796 374" enable-background="new 0 0 796 374" xml:space="preserve">
<g>
	<path fill="#FFFFFF" stroke="#000000" stroke-width="2" stroke-miterlimit="10" d="M73.56,143.943
		c8.44,0,15.282,6.842,15.282,15.282S82,174.507,73.56,174.507"/>
	<path fill="#FFFFFF" stroke="#000000" stroke-width="2" stroke-miterlimit="10" d="M73.56,174.507
		c8.44,0,15.282,6.842,15.282,15.282S82,205.071,73.56,205.071"/>
	<path fill="#FFFFFF" stroke="#000000" stroke-width="2" stroke-miterlimit="10" d="M73.56,205.071
		c8.44,0,15.282,6.842,15.282,15.282S82,235.635,73.56,235.635"/>
	<path fill="#FFFFFF" stroke="#000000" stroke-width="2" stroke-miterlimit="10" d="M73.56,235.635
		c8.44,0,15.282,6.842,15.282,15.282c0,8.44-6.842,15.282-15.282,15.282"/>
</g>
<line fill="none" stroke="#000000" stroke-width="2" stroke-miterlimit="10" x1="73.56" y1="143.943" x2="39.284" y2="143.943"/>
<line fill="none" stroke="#000000" stroke-width="2" stroke-miterlimit="10" x1="73.56" y1="266.199" x2="39.284" y2="266.199"/>
<g>
	<path fill="#FFFFFF" stroke="#000000" stroke-width="2" stroke-miterlimit="10" d="M618.025,48.731
		c8.439,0,15.281,6.842,15.281,15.283c0,8.44-6.842,15.282-15.281,15.282"/>
	<path fill="#FFFFFF" stroke="#000000" stroke-width="2" stroke-miterlimit="10" d="M618.025,79.295
		c8.439,0,15.281,6.842,15.281,15.282s-6.842,15.283-15.281,15.283"/>
	<path fill="#FFFFFF" stroke="#000000" stroke-width="2" stroke-miterlimit="10" d="M618.025,109.86
		c8.439,0,15.281,6.842,15.281,15.281c0,8.44-6.842,15.282-15.281,15.282"/>
	<path fill="#FFFFFF" stroke="#000000" stroke-width="2" stroke-miterlimit="10" d="M618.025,140.423
		c8.439,0,15.281,6.842,15.281,15.282c0,8.44-6.842,15.282-15.281,15.282"/>
</g>
<g>
	<path fill="#FFFFFF" stroke="#000000" stroke-width="2" stroke-miterlimit="10" d="M478.404,195.714
		c0-8.44,6.843-15.282,15.282-15.282c8.44,0,15.283,6.842,15.283,15.282"/>
	<path fill="#FFFFFF" stroke="#000000" stroke-width="2" stroke-miterlimit="10" d="M508.97,195.714
		c0-8.44,6.841-15.282,15.281-15.282c8.439,0,15.282,6.842,15.282,15.282"/>
	<path fill="#FFFFFF" stroke="#000000" stroke-width="2" stroke-miterlimit="10" d="M539.533,195.714
		c0-8.44,6.842-15.282,15.281-15.282c8.44,0,15.282,6.842,15.282,15.282"/>
	<path fill="#FFFFFF" stroke="#000000" stroke-width="2" stroke-miterlimit="10" d="M570.097,195.714
		c0-8.44,6.843-15.282,15.282-15.282c8.44,0,15.281,6.842,15.281,15.282"/>
</g>
<g>
	<path fill="#FFFFFF" stroke="#000000" stroke-width="2" stroke-miterlimit="10" d="M618.025,342.699
		c-8.439,0-15.282-6.842-15.282-15.282c0-8.44,6.843-15.282,15.282-15.282"/>
	<path fill="#FFFFFF" stroke="#000000" stroke-width="2" stroke-miterlimit="10" d="M618.025,312.135
		c-8.439,0-15.282-6.842-15.282-15.282c0-8.44,6.843-15.282,15.282-15.282"/>
	<path fill="#FFFFFF" stroke="#000000" stroke-width="2" stroke-miterlimit="10" d="M618.025,281.57
		c-8.439,0-15.282-6.842-15.282-15.281c0-8.44,6.843-15.283,15.282-15.283"/>
	<path fill="#FFFFFF" stroke="#000000" stroke-width="2" stroke-miterlimit="10" d="M618.025,251.006
		c-8.439,0-15.282-6.842-15.282-15.282c0-8.44,6.843-15.282,15.282-15.282"/>
</g>
<g>
	<path fill="#FFFFFF" stroke="#000000" stroke-width="2" stroke-miterlimit="10" d="M757.646,195.714
		c0,8.44-6.843,15.283-15.282,15.283c-8.44,0-15.281-6.842-15.281-15.283"/>
	<path fill="#FFFFFF" stroke="#000000" stroke-width="2" stroke-miterlimit="10" d="M727.082,195.714
		c0,8.44-6.843,15.283-15.283,15.283c-8.439,0-15.282-6.842-15.282-15.283"/>
	<path fill="#FFFFFF" stroke="#000000" stroke-width="2" stroke-miterlimit="10" d="M696.517,195.714
		c0,8.44-6.841,15.283-15.281,15.283c-8.439,0-15.282-6.842-15.282-15.283"/>
	<path fill="#FFFFFF" stroke="#000000" stroke-width="2" stroke-miterlimit="10" d="M665.953,195.714
		c0,8.44-6.843,15.283-15.281,15.283c-8.44,0-15.282-6.842-15.282-15.283"/>
</g>
<g>
	<path fill="#FFFFFF" stroke="#000000" stroke-width="2" stroke-miterlimit="10" d="M133.399,143.943
		c-8.44,0-15.283,6.842-15.283,15.282s6.843,15.282,15.283,15.282"/>
	<path fill="#FFFFFF" stroke="#000000" stroke-width="2" stroke-miterlimit="10" d="M133.399,174.507
		c-8.44,0-15.283,6.842-15.283,15.282s6.843,15.282,15.283,15.282"/>
	<path fill="#FFFFFF" stroke="#000000" stroke-width="2" stroke-miterlimit="10" d="M133.399,205.071
		c-8.44,0-15.283,6.842-15.283,15.282s6.843,15.282,15.283,15.282"/>
	<path fill="#FFFFFF" stroke="#000000" stroke-width="2" stroke-miterlimit="10" d="M133.399,235.635
		c-8.44,0-15.283,6.842-15.283,15.282c0,8.44,6.843,15.282,15.283,15.282"/>
</g>
<line fill="none" stroke="#000000" stroke-width="2" stroke-miterlimit="10" x1="133.399" y1="143.943" x2="167.675" y2="143.943"/>
<line fill="none" stroke="#000000" stroke-width="2" stroke-miterlimit="10" x1="133.399" y1="266.199" x2="167.675" y2="266.199"/>
<g>
	<path fill="#FFFFFF" stroke="#000000" stroke-width="2" stroke-miterlimit="10" d="M297.005,143.943
		c8.439,0,15.281,6.842,15.281,15.282s-6.842,15.282-15.281,15.282"/>
	<path fill="#FFFFFF" stroke="#000000" stroke-width="2" stroke-miterlimit="10" d="M297.005,174.507
		c8.439,0,15.281,6.842,15.281,15.282s-6.842,15.282-15.281,15.282"/>
	<path fill="#FFFFFF" stroke="#000000" stroke-width="2" stroke-miterlimit="10" d="M297.005,205.071
		c8.439,0,15.281,6.842,15.281,15.282s-6.842,15.282-15.281,15.282"/>
	<path fill="#FFFFFF" stroke="#000000" stroke-width="2" stroke-miterlimit="10" d="M297.005,235.635
		c8.439,0,15.281,6.842,15.281,15.282c0,8.44-6.842,15.282-15.281,15.282"/>
</g>
<line fill="none" stroke="#000000" stroke-width="2" stroke-miterlimit="10" x1="297.005" y1="143.943" x2="262.729" y2="143.943"/>
<line fill="none" stroke="#000000" stroke-width="2" stroke-miterlimit="10" x1="297.005" y1="266.199" x2="262.729" y2="266.199"/>
<g>
	<path fill="#FFFFFF" stroke="#000000" stroke-width="2" stroke-miterlimit="10" d="M356.844,143.943
		c-8.44,0-15.283,6.842-15.283,15.282s6.843,15.282,15.283,15.282"/>
	<path fill="#FFFFFF" stroke="#000000" stroke-width="2" stroke-miterlimit="10" d="M356.844,174.507
		c-8.44,0-15.283,6.842-15.283,15.282s6.843,15.282,15.283,15.282"/>
	<path fill="#FFFFFF" stroke="#000000" stroke-width="2" stroke-miterlimit="10" d="M356.844,205.071
		c-8.44,0-15.283,6.842-15.283,15.282s6.843,15.282,15.283,15.282"/>
	<path fill="#FFFFFF" stroke="#000000" stroke-width="2" stroke-miterlimit="10" d="M356.844,235.635
		c-8.44,0-15.283,6.842-15.283,15.282c0,8.44,6.843,15.282,15.283,15.282"/>
</g>
<line fill="none" stroke="#000000" stroke-width="2" stroke-miterlimit="10" x1="356.844" y1="143.943" x2="391.119" y2="143.943"/>
<line fill="none" stroke="#000000" stroke-width="2" stroke-miterlimit="10" x1="356.844" y1="266.199" x2="391.119" y2="266.199"/>
<line fill="none" stroke="#000000" stroke-width="2" stroke-miterlimit="10" x1="297.005" y1="205.071" x2="262.729" y2="205.071"/>
<line fill="none" stroke="#000000" stroke-width="2" stroke-miterlimit="10" x1="356.844" y1="205.071" x2="391.119" y2="205.071"/>
<line fill="none" stroke="#000000" stroke-width="2" stroke-miterlimit="10" x1="635.39" y1="195.714" x2="600.66" y2="195.714"/>
<line fill="none" stroke="#000000" stroke-width="2" stroke-miterlimit="10" x1="618.025" y1="170.987" x2="618.025" y2="220.443"/>
<line fill="none" stroke="#000000" stroke-width="2" stroke-miterlimit="10" x1="478.404" y1="195.714" x2="478.404" y2="214.859"/>
<line fill="none" stroke="#000000" stroke-width="2" stroke-miterlimit="10" x1="757.646" y1="176.57" x2="757.646" y2="195.714"/>
<line fill="none" stroke="#000000" stroke-width="2" stroke-miterlimit="10" x1="637.17" y1="342.699" x2="618.025" y2="342.699"/>
<line fill="none" stroke="#000000" stroke-width="2" stroke-miterlimit="10" x1="618.025" y1="48.731" x2="598.881" y2="48.731"/>
<line fill="none" stroke="#000000" stroke-width="2" stroke-miterlimit="10" x1="618.025" y1="195.714" x2="560.611" y2="127.971"/>
<circle stroke="#000000" stroke-width="2" stroke-miterlimit="10" cx="618.025" cy="195.714" r="3.559"/>
<text transform="matrix(1 0 0 1 159.3027 32.0312)" font-family="'HelveticaNeue'" font-size="15.7187">Bipolar stepper motors</text>
<text transform="matrix(1 0 0 1 89.4307 109.8594)" font-family="'HelveticaNeue'" font-size="15.7187">4-wire</text>
<text transform="matrix(1 0 0 1 300.3184 109.8594)" font-family="'HelveticaNeue'" font-size="15.7187">6-wire</text>
<text transform="matrix(1 0 0 1 37.6465 134.0098)" font-family="'HelveticaNeue'" font-size="15.7187">coil 1</text>
<text transform="matrix(1 0 0 1 647.1777 109.8594)" font-family="'HelveticaNeue'" font-size="15.7187">coil 1</text>
<text transform="matrix(1 0 0 1 128.792 134.0098)" font-family="'HelveticaNeue'" font-size="15.7187">coil 2</text>
<text transform="matrix(1 0 0 1 677.7412 226.6025)" font-family="'HelveticaNeue'" font-size="15.7187">coil 2</text>
<text transform="matrix(1 0 0 1 541.8369 288.4463)" font-family="'HelveticaNeue'" font-size="15.7187">coil 3</text>
<text transform="matrix(1 0 0 1 520.7578 166.8838)" font-family="'HelveticaNeue'" font-size="15.7187">coil 4</text>
<text transform="matrix(1 0 0 1 500.6855 125.1416)" font-family="'HelveticaNeue'" font-size="15.7187">center wire</text>
<text transform="matrix(1 0 0 1 261.7617 134.0098)" font-family="'HelveticaNeue'" font-size="15.7187">coil 1</text>
<text transform="matrix(1 0 0 1 355.2051 134.0098)" font-family="'HelveticaNeue'" font-size="15.7187">coil 2</text>
<text transform="matrix(1 0 0 1 526.9375 32.0312)" font-family="'HelveticaNeue'" font-size="15.7187">Unipolar stepper motor</text>
</svg>
