<?xml version="1.0" encoding="utf-8"?>
<!-- Generator: Adobe Illustrator 16.0.4, SVG Export Plug-In . SVG Version: 6.00 Build 0)  -->
<!DOCTYPE svg PUBLIC "-//W3C//DTD SVG 1.1//EN" "http://www.w3.org/Graphics/SVG/1.1/DTD/svg11.dtd">
<svg version="1.1" id="Layer_1" xmlns="http://www.w3.org/2000/svg" xmlns:xlink="http://www.w3.org/1999/xlink" x="0px" y="0px"
	 width="152.951px" height="143.44px" viewBox="0 0 152.951 143.44" enable-background="new 0 0 152.951 143.44"
	 xml:space="preserve">
<g>
	<g transform="translate(155.328,46.5354)">
		<g id="schematic_4_">
			
				<line fill="none" stroke="#010101" stroke-width="2" stroke-linecap="round" x1="-46.396" y1="-28.337" x2="-37.797" y2="-28.337"/>
			
				<line fill="none" stroke="#010101" stroke-width="2" stroke-linecap="round" x1="-106.634" y1="-28.337" x2="-46.396" y2="-45.535"/>
			<path fill="none" stroke="#010101" stroke-width="2" d="M-104.907-28.337c0,0.947-0.771,1.718-1.719,1.718
				c-0.951,0-1.727-0.771-1.727-1.718c0-0.952,0.775-1.723,1.727-1.723C-105.677-30.059-104.907-29.289-104.907-28.337z"/>
			<path fill="none" stroke="#010101" stroke-width="2" d="M-36.078-28.337c0,0.947-0.771,1.718-1.72,1.718
				c-0.951,0-1.721-0.771-1.721-1.718c0-0.952,0.77-1.723,1.721-1.723C-36.848-30.059-36.078-29.289-36.078-28.337z"/>
			
				<line id="connector0pin_4_" fill="none" stroke="#565656" stroke-width="2" stroke-linecap="round" x1="-141.045" y1="-28.337" x2="-106.634" y2="-28.337"/>
			<g id="connector0terminal_4_">
			</g>
			
				<line id="connector1pin_4_" fill="none" stroke="#565656" stroke-width="2" stroke-linecap="round" x1="-3.377" y1="-28.337" x2="-37.797" y2="-28.337"/>
			<g id="connector1terminal_4_">
			</g>
		</g>
	</g>
</g>
<g id="connector0terminal_1_">
</g>
<g>
	<line fill="none" stroke="#010101" stroke-width="2" stroke-linecap="round" x1="95.649" y1="89.723" x2="104.248" y2="89.723"/>
	<line fill="none" stroke="#010101" stroke-width="2" stroke-linecap="round" x1="35.411" y1="119.723" x2="95.649" y2="102.524"/>
	<path fill="none" stroke="#010101" stroke-width="2" d="M37.139,119.723c0,0.947-0.771,1.718-1.719,1.718
		c-0.951,0-1.727-0.771-1.727-1.718c0-0.952,0.775-1.723,1.727-1.723C36.368,118,37.139,118.771,37.139,119.723z"/>
	<path fill="none" stroke="#010101" stroke-width="2" d="M105.968,89.723c0,0.947-0.771,1.718-1.72,1.718
		c-0.951,0-1.721-0.771-1.721-1.718c0-0.952,0.77-1.723,1.721-1.723C105.197,88,105.968,88.771,105.968,89.723z"/>
	
		<line id="connector0pin_1_" fill="none" stroke="#565656" stroke-width="2" stroke-linecap="round" x1="1" y1="119.723" x2="35.411" y2="119.723"/>
	
		<line id="connector1pin_1_" fill="none" stroke="#565656" stroke-width="2" stroke-linecap="round" x1="138.667" y1="89.723" x2="104.248" y2="89.723"/>
	<line fill="none" stroke="#010101" stroke-width="2" stroke-linecap="round" x1="95.649" y1="140.723" x2="104.248" y2="140.723"/>
	<path fill="none" stroke="#010101" stroke-width="2" d="M105.968,140.723c0,0.947-0.771,1.718-1.72,1.718
		c-0.951,0-1.721-0.771-1.721-1.718c0-0.952,0.77-1.723,1.721-1.723C105.197,139,105.968,139.771,105.968,140.723z"/>
	
		<line id="connector1pin_2_" fill="none" stroke="#565656" stroke-width="2" stroke-linecap="round" x1="138.667" y1="140.723" x2="104.248" y2="140.723"/>
</g>
<g id="connector1terminal_1_">
</g>
</svg>
