<?xml version="1.0" encoding="utf-8"?>
<!-- Generator: Adobe Illustrator 16.0.4, SVG Export Plug-In . SVG Version: 6.00 Build 0)  -->
<!DOCTYPE svg PUBLIC "-//W3C//DTD SVG 1.1//EN" "http://www.w3.org/Graphics/SVG/1.1/DTD/svg11.dtd">
<svg version="1.1" id="Layer_1" xmlns="http://www.w3.org/2000/svg" xmlns:xlink="http://www.w3.org/1999/xlink" x="0px" y="0px"
	 width="642.77px" height="635.872px" viewBox="0 0 642.77 635.872" enable-background="new 0 0 642.77 635.872"
	 xml:space="preserve">
<ellipse fill="#FFFFFF" stroke="#000000" stroke-width="3" stroke-miterlimit="10" cx="283.667" cy="211.656" rx="55.741" ry="95.015"/>
<ellipse fill="#FFFFFF" stroke="#000000" stroke-width="3" stroke-miterlimit="10" cx="455.245" cy="211.656" rx="7.433" ry="12.668"/>
<path fill="#FFFFFF" stroke="#000000" stroke-width="3" stroke-miterlimit="10" d="M63.295,306.671
	c-30.785,0-55.742-42.54-55.742-95.015c0-52.476,24.957-95.015,55.742-95.015"/>
<line fill="none" stroke="#000000" stroke-width="3" stroke-miterlimit="10" x1="57.531" y1="116.641" x2="294.436" y2="116.641"/>
<line fill="none" stroke="#000000" stroke-width="3" stroke-miterlimit="10" x1="63.295" y1="306.671" x2="283.667" y2="306.671"/>
<path fill="#FFFFFF" stroke="#000000" stroke-width="3" stroke-miterlimit="10" d="M455.246,198.988H283.667
	c-4.105,0-7.433,5.672-7.433,12.668s3.327,12.668,7.433,12.668h171.579"/>
<path fill="#FFFFFF" stroke="#000000" stroke-width="3" stroke-miterlimit="10" d="M553.705,85.985
	c4.9-4.898,14.959-2.778,22.473,4.736l0,0c7.516,7.516,9.637,17.576,4.736,22.476l-224.127,224.13
	c-4.898,4.899-14.963,2.779-22.479-4.736l0,0c-7.514-7.515-9.629-17.576-4.732-22.473L553.705,85.985z"/>
<ellipse fill="#FFFFFF" stroke="#000000" stroke-width="3" stroke-miterlimit="10" cx="455.815" cy="211.656" rx="7.433" ry="12.668"/>
<line fill="none" stroke="#000000" stroke-width="3" stroke-linecap="round" stroke-linejoin="round" stroke-miterlimit="10" x1="350.178" y1="306.671" x2="350.178" y2="441.594"/>
<polygon fill="none" stroke="#000000" stroke-width="3" stroke-linecap="round" stroke-linejoin="round" stroke-miterlimit="10" points="
	265.296,460.596 383.748,460.596 435.057,409.287 316.605,409.287 "/>
<rect x="265.296" y="460.596" fill="none" stroke="#000000" stroke-width="3" stroke-linecap="round" stroke-linejoin="round" stroke-miterlimit="10" width="120.987" height="104.518"/>
<line fill="none" stroke="#000000" stroke-width="3" stroke-linecap="round" stroke-linejoin="round" stroke-miterlimit="10" x1="386.283" y1="565.113" x2="435.057" y2="516.34"/>
<line fill="none" stroke="#000000" stroke-width="3" stroke-linecap="round" stroke-linejoin="round" stroke-miterlimit="10" x1="435.057" y1="409.287" x2="435.057" y2="512.854"/>
<text transform="matrix(1 0 0 1 276.0654 601.2188)" font-family="'HelveticaNeue'" font-size="34.2055">1 gram</text>
<text transform="matrix(1 0 0 1 446.3809 339.9644)" font-family="'HelveticaNeue'" font-size="34.2055">1 cm.</text>
<line fill="none" stroke="#000000" stroke-width="3" stroke-linecap="round" stroke-linejoin="round" stroke-miterlimit="10" x1="502.201" y1="253.463" x2="390.559" y2="365.106"/>
<line fill="none" stroke="#000000" stroke-width="3" stroke-linecap="round" stroke-linejoin="round" stroke-miterlimit="10" x1="397.211" y1="371.757" x2="383.908" y2="358.455"/>
<line fill="none" stroke="#000000" stroke-width="3" stroke-linecap="round" stroke-linejoin="round" stroke-miterlimit="10" x1="508.854" y1="260.114" x2="495.551" y2="246.812"/>
<g>
	<path fill="none" stroke="#000000" stroke-width="2" stroke-linecap="round" stroke-miterlimit="10" d="M284.513,402.629
		c-52.325-46.967-85.239-115.125-85.239-190.973"/>
	
		<line fill="none" stroke="#000000" stroke-width="2" stroke-linecap="round" stroke-miterlimit="10" x1="199.274" y1="211.656" x2="189.602" y2="236.36"/>
	
		<line fill="none" stroke="#000000" stroke-width="2" stroke-linecap="round" stroke-miterlimit="10" x1="199.274" y1="211.656" x2="212.406" y2="236.36"/>
</g>
</svg>
