<?xml version="1.0" encoding="utf-8"?>
<!-- Generator: Adobe Illustrator 16.0.4, SVG Export Plug-In . SVG Version: 6.00 Build 0)  -->
<!DOCTYPE svg PUBLIC "-//W3C//DTD SVG 1.1//EN" "http://www.w3.org/Graphics/SVG/1.1/DTD/svg11.dtd">
<svg version="1.1" id="Layer_1" xmlns="http://www.w3.org/2000/svg" xmlns:xlink="http://www.w3.org/1999/xlink" x="0px" y="0px"
	 width="679px" height="401px" viewBox="-4.065 -37.413 679 401" enable-background="new -4.065 -37.413 679 401"
	 xml:space="preserve">
<g>
	<path fill="#FFFFFF" stroke="#010101" stroke-width="2" stroke-miterlimit="10" d="M156.373,39.992
		c8.438,0,15.28,6.842,15.28,15.283c0,8.44-6.842,15.282-15.28,15.282"/>
	<path fill="#FFFFFF" stroke="#010101" stroke-width="2" stroke-miterlimit="10" d="M156.373,70.556
		c8.438,0,15.28,6.842,15.28,15.282s-6.842,15.283-15.28,15.283"/>
	<path fill="#FFFFFF" stroke="#010101" stroke-width="2" stroke-miterlimit="10" d="M156.373,101.121
		c8.438,0,15.28,6.842,15.28,15.281c0,8.44-6.842,15.282-15.28,15.282"/>
	<path fill="#FFFFFF" stroke="#010101" stroke-width="2" stroke-miterlimit="10" d="M156.373,131.684
		c8.438,0,15.28,6.842,15.28,15.282c0,8.44-6.842,15.282-15.28,15.282"/>
</g>
<g>
	<path fill="#FFFFFF" stroke="#010101" stroke-width="2" stroke-miterlimit="10" d="M16.752,186.976
		c0-8.44,6.843-15.283,15.281-15.283c8.44,0,15.283,6.841,15.283,15.283"/>
	<path fill="#FFFFFF" stroke="#010101" stroke-width="2" stroke-miterlimit="10" d="M47.317,186.976
		c0-8.44,6.841-15.283,15.281-15.283c8.439,0,15.282,6.841,15.282,15.283"/>
	<path fill="#FFFFFF" stroke="#010101" stroke-width="2" stroke-miterlimit="10" d="M77.881,186.976
		c0-8.44,6.842-15.283,15.281-15.283s15.281,6.841,15.281,15.283"/>
	<path fill="#FFFFFF" stroke="#010101" stroke-width="2" stroke-miterlimit="10" d="M108.444,186.976
		c0-8.44,6.844-15.283,15.282-15.283c8.44,0,15.281,6.841,15.281,15.283"/>
</g>
<g>
	<path fill="#FFFFFF" stroke="#010101" stroke-width="2" stroke-miterlimit="10" d="M156.373,333.96
		c-8.439,0-15.282-6.842-15.282-15.282s6.843-15.282,15.282-15.282"/>
	<path fill="#FFFFFF" stroke="#010101" stroke-width="2" stroke-miterlimit="10" d="M156.373,303.396
		c-8.439,0-15.282-6.842-15.282-15.28c0-8.44,6.843-15.283,15.282-15.283"/>
	<path fill="#FFFFFF" stroke="#010101" stroke-width="2" stroke-miterlimit="10" d="M156.373,272.831
		c-8.439,0-15.282-6.842-15.282-15.281s6.843-15.283,15.282-15.283"/>
	<path fill="#FFFFFF" stroke="#010101" stroke-width="2" stroke-miterlimit="10" d="M156.373,242.267
		c-8.439,0-15.282-6.842-15.282-15.281s6.843-15.282,15.282-15.282"/>
</g>
<g>
	<path fill="#FFFFFF" stroke="#010101" stroke-width="2" stroke-miterlimit="10" d="M295.994,186.976
		c0,8.439-6.845,15.282-15.282,15.282c-8.439,0-15.281-6.842-15.281-15.282"/>
	<path fill="#FFFFFF" stroke="#010101" stroke-width="2" stroke-miterlimit="10" d="M265.431,186.976
		c0,8.439-6.844,15.282-15.283,15.282c-8.438,0-15.282-6.842-15.282-15.282"/>
	<path fill="#FFFFFF" stroke="#010101" stroke-width="2" stroke-miterlimit="10" d="M234.864,186.976
		c0,8.439-6.842,15.282-15.28,15.282s-15.282-6.842-15.282-15.282"/>
	<path fill="#FFFFFF" stroke="#010101" stroke-width="2" stroke-miterlimit="10" d="M204.301,186.976
		c0,8.439-6.843,15.282-15.28,15.282c-8.439,0-15.283-6.842-15.283-15.282"/>
</g>
<line fill="none" stroke="#010101" stroke-width="2" stroke-miterlimit="10" x1="173.737" y1="186.976" x2="139.008" y2="186.976"/>
<line fill="none" stroke="#010101" stroke-width="2" stroke-miterlimit="10" x1="156.373" y1="162.248" x2="156.373" y2="211.704"/>
<line fill="none" stroke="#010101" stroke-width="2" stroke-miterlimit="10" x1="16.752" y1="186.976" x2="16.752" y2="206.12"/>
<line fill="none" stroke="#010101" stroke-width="2" stroke-miterlimit="10" x1="175.519" y1="333.96" x2="156.373" y2="333.96"/>
<line fill="none" stroke="#010101" stroke-width="2" stroke-miterlimit="10" x1="156.373" y1="39.992" x2="137.229" y2="39.992"/>
<line fill="none" stroke="#010101" stroke-width="2" stroke-miterlimit="10" x1="156.373" y1="186.976" x2="98.959" y2="119.232"/>
<circle fill="#010101" stroke="#010101" stroke-width="2" stroke-miterlimit="10" cx="156.373" cy="186.975" r="3.559"/>
<text transform="matrix(1 0 0 1 185.5254 101.1201)" fill="#010101" font-family="'HelveticaNeue'" font-size="15.7187">coil 1</text>
<text transform="matrix(1 0 0 1 438.5254 47.1201)" fill="#010101" font-family="'HelveticaNeue'" font-size="15.7187">coil 1</text>
<text transform="matrix(1 0 0 1 216.0889 217.8633)" fill="#010101" font-family="'HelveticaNeue'" font-size="15.7187">coil 2</text>
<text transform="matrix(1 0 0 1 583.0889 47.8633)" fill="#010101" font-family="'HelveticaNeue'" font-size="15.7187">coil 2</text>
<text transform="matrix(1 0 0 1 80.1846 279.707)" fill="#010101" font-family="'HelveticaNeue'" font-size="15.7187">coil 3</text>
<text transform="matrix(1 0 0 1 59.1055 158.1445)" fill="#010101" font-family="'HelveticaNeue'" font-size="15.7187">coil 4</text>
<text transform="matrix(1 0 0 1 39.0332 116.4023)" fill="#010101" font-family="'HelveticaNeue'" font-size="15.7187">center wire</text>
<text transform="matrix(1 0 0 1 65.2852 23.292)" fill="#010101" font-family="'HelveticaNeue'" font-size="15.7187">5-wire Unipolar stepper motor</text>
<text transform="matrix(1 0 0 1 437.6182 -9.708)" enable-background="new    "><tspan x="0" y="0" fill="#010101" font-family="'HelveticaNeue'" font-size="15.7187">6-wire Unipolar stepper motor</tspan><tspan x="30.848" y="18.862" fill="#010101" font-family="'HelveticaNeue'" font-size="15.7187">converted to unipolar</tspan></text>
<g>
	<path fill="#FFFFFF" stroke="#000000" stroke-width="2" stroke-miterlimit="10" d="M481.58,55.912
		c12.885,0,23.332,10.447,23.332,23.333c0,12.887-10.447,23.333-23.332,23.333"/>
	<path fill="#FFFFFF" stroke="#000000" stroke-width="2" stroke-miterlimit="10" d="M481.58,102.579
		c12.885,0,23.332,10.446,23.332,23.333c0,12.887-10.447,23.333-23.332,23.333"/>
	<path fill="#FFFFFF" stroke="#000000" stroke-width="2" stroke-miterlimit="10" d="M481.58,149.245
		c12.885,0,23.332,10.447,23.332,23.334c0,12.887-10.447,23.333-23.332,23.333"/>
	<path fill="#FFFFFF" stroke="#000000" stroke-width="2" stroke-miterlimit="10" d="M481.58,195.912
		c12.885,0,23.332,10.445,23.332,23.333c0,12.887-10.447,23.334-23.332,23.334"/>
</g>
<line fill="none" stroke="#000000" stroke-width="2" stroke-miterlimit="10" x1="481.58" y1="55.912" x2="429.244" y2="55.912"/>
<line fill="none" stroke="#000000" stroke-width="2" stroke-miterlimit="10" x1="481.58" y1="242.912" x2="429.244" y2="242.912"/>
<line fill="none" stroke="#000000" stroke-width="2" stroke-miterlimit="10" x1="623.58" y1="242.912" x2="571.244" y2="242.912"/>
<g>
	<path fill="#FFFFFF" stroke="#000000" stroke-width="2" stroke-miterlimit="10" d="M572.944,55.912
		c-12.888,0-23.334,10.447-23.334,23.333c0,12.887,10.446,23.333,23.334,23.333"/>
	<path fill="#FFFFFF" stroke="#000000" stroke-width="2" stroke-miterlimit="10" d="M572.944,102.579
		c-12.888,0-23.334,10.446-23.334,23.333c0,12.887,10.446,23.333,23.334,23.333"/>
	<path fill="#FFFFFF" stroke="#000000" stroke-width="2" stroke-miterlimit="10" d="M572.944,149.245
		c-12.888,0-23.334,10.447-23.334,23.334c0,12.887,10.446,23.333,23.334,23.333"/>
	<path fill="#FFFFFF" stroke="#000000" stroke-width="2" stroke-miterlimit="10" d="M572.944,195.912
		c-12.888,0-23.334,10.445-23.334,23.333c0,12.887,10.446,23.334,23.334,23.334"/>
</g>
<line fill="none" stroke="#000000" stroke-width="2" stroke-miterlimit="10" x1="572.944" y1="55.912" x2="625.278" y2="55.912"/>
<line fill="none" stroke="#000000" stroke-width="2" stroke-miterlimit="10" x1="481.58" y1="149.245" x2="395.933" y2="149.245"/>
<line fill="none" stroke="#000000" stroke-width="2" stroke-miterlimit="10" x1="658.591" y1="149.246" x2="572.943" y2="149.246"/>
<line fill="none" stroke="#000000" stroke-width="2" stroke-miterlimit="10" x1="658.591" y1="149.246" x2="658.591" y2="281.247"/>
<line fill="none" stroke="#000000" stroke-width="2" stroke-miterlimit="10" x1="395.933" y1="149.245" x2="395.933" y2="281.247"/>
<line fill="none" stroke="#000000" stroke-width="2" stroke-miterlimit="10" x1="395.933" y1="281.247" x2="658.591" y2="281.247"/>
<line fill="none" stroke="#000000" stroke-width="2" stroke-miterlimit="10" x1="534.289" y1="281.247" x2="534.289" y2="348.37"/>
<circle stroke="#000000" stroke-width="2" stroke-miterlimit="10" cx="534.289" cy="281.247" r="6.851"/>
</svg>
