<?xml version="1.0" encoding="utf-8"?>
<!-- Generator: Adobe Illustrator 16.0.4, SVG Export Plug-In . SVG Version: 6.00 Build 0)  -->
<!DOCTYPE svg PUBLIC "-//W3C//DTD SVG 1.1//EN" "http://www.w3.org/Graphics/SVG/1.1/DTD/svg11.dtd">
<svg version="1.1" id="Layer_1" xmlns="http://www.w3.org/2000/svg" xmlns:xlink="http://www.w3.org/1999/xlink" x="0px" y="0px"
	 width="520px" height="312px" viewBox="0 0 520 312" enable-background="new 0 0 520 312" xml:space="preserve">
<g>
	<rect x="350.906" y="73.199" fill="#FFFFFF" stroke="#000000" stroke-linecap="round" width="111.277" height="133.53"/>
	<path fill="none" stroke="#000000" d="M373.162,124.385c7.991-0.616,13.967-7.592,13.346-15.579
		c-0.544-7.133-6.219-12.801-13.346-13.354"/>
	<path fill="none" stroke="#000000" d="M373.162,111.031c-3.685-1.075-7.549,1.042-8.623,4.729c-1.082,3.689,1.041,7.55,4.72,8.625
		c1.274,0.372,2.63,0.372,3.903,0"/>
	<path fill="none" stroke="#000000" d="M373.162,146.641c9.832-2.769,15.562-12.979,12.796-22.812
		c-1.738-6.203-6.592-11.051-12.796-12.798"/>
	<path fill="none" stroke="#000000" d="M373.162,133.287c-3.685-1.074-7.549,1.042-8.623,4.729c-1.082,3.683,1.041,7.547,4.72,8.627
		c1.274,0.372,2.63,0.372,3.903,0"/>
	<path fill="none" stroke="#000000" d="M373.162,168.894c9.832-2.871,15.479-13.164,12.612-22.996
		c-1.775-6.08-6.53-10.837-12.612-12.611"/>
	<path fill="none" stroke="#000000" d="M373.162,155.542c-3.685-1.078-7.549,1.042-8.623,4.73c-1.082,3.679,1.041,7.543,4.72,8.621
		c1.274,0.375,2.63,0.375,3.903,0"/>
	<path fill="none" stroke="#000000" d="M373.162,184.476c7.991-0.616,13.967-7.589,13.346-15.582
		c-0.544-7.139-6.219-12.808-13.346-13.351"/>
	<line fill="none" stroke="#000000" stroke-linecap="round" x1="462.183" y1="95.452" x2="417.671" y2="95.452"/>
	<line fill="none" stroke="#000000" stroke-linecap="round" x1="417.671" y1="95.452" x2="417.671" y2="117.708"/>
	<line fill="none" stroke="#000000" stroke-linecap="round" x1="462.183" y1="184.476" x2="417.671" y2="184.476"/>
	<line fill="none" stroke="#000000" stroke-linecap="round" x1="417.671" y1="184.476" x2="417.671" y2="162.22"/>
	<line fill="none" stroke="#000000" stroke-linecap="round" x1="462.183" y1="139.964" x2="439.93" y2="139.964"/>
	<line fill="none" stroke="#000000" stroke-linecap="round" x1="439.93" y1="139.964" x2="424.348" y2="124.385"/>
	<line fill="none" stroke="#000000" stroke-linecap="round" x1="417.671" y1="117.708" x2="424.348" y2="111.031"/>
	<line fill="none" stroke="#000000" stroke-linecap="round" x1="417.671" y1="117.708" x2="410.994" y2="111.031"/>
	<line fill="none" stroke="#000000" stroke-linecap="round" x1="417.671" y1="162.22" x2="424.348" y2="168.894"/>
	<line fill="none" stroke="#000000" stroke-linecap="round" x1="417.671" y1="162.22" x2="410.994" y2="168.894"/>
	<line fill="none" stroke="#000000" stroke-linecap="round" x1="350.906" y1="95.452" x2="373.162" y2="95.452"/>
	<line fill="none" stroke="#000000" stroke-linecap="round" x1="350.906" y1="184.476" x2="373.162" y2="184.476"/>
	
		<line id="connector0pin_13_" fill="none" stroke="#000000" stroke-linecap="round" x1="328.653" y1="184.476" x2="350.906" y2="184.476"/>
	
		<line id="connector1pin_11_" fill="none" stroke="#000000" stroke-linecap="round" x1="484.439" y1="139.964" x2="462.183" y2="139.964"/>
	
		<line id="connector2pin_3_" fill="none" stroke="#000000" stroke-linecap="round" x1="484.439" y1="184.476" x2="462.183" y2="184.476"/>
	
		<line id="connector3pin" fill="none" stroke="#000000" stroke-linecap="round" x1="484.439" y1="95.452" x2="462.183" y2="95.452"/>
	
		<line id="connector4pin" fill="none" stroke="#000000" stroke-linecap="round" x1="328.653" y1="95.452" x2="350.906" y2="95.452"/>
</g>
<text transform="matrix(1 0 0 1 41.6313 257.8906)" enable-background="new    "><tspan x="0" y="0" fill="#010101" font-family="'HelveticaNeue'" font-size="18">NPN</tspan><tspan x="-18.836" y="21.6" fill="#010101" font-family="'HelveticaNeue'" font-size="18">transistor</tspan></text>
<text transform="matrix(1 0 0 1 205.9502 257.8906)" enable-background="new    "><tspan x="0" y="0" fill="#010101" font-family="'HelveticaNeue'" font-size="18">PNP</tspan><tspan x="-19.502" y="21.6" fill="#010101" font-family="'HelveticaNeue'" font-size="18">transistor</tspan></text>
<text transform="matrix(1 0 0 1 387.3833 257.8906)" fill="#010101" font-family="'HelveticaNeue'" font-size="18">relay</text>
<g>
	<line fill="none" stroke="#000000" stroke-linecap="round" x1="242.311" y1="107.473" x2="215.84" y2="120.706"/>
	<line fill="none" stroke="#000000" stroke-linecap="round" x1="215.84" y1="160.41" x2="242.311" y2="173.644"/>
	<polygon stroke="#000000" stroke-linecap="round" points="232.384,120.706 225.766,107.473 215.84,120.706 	"/>
	
		<line id="connector0pin_2_" fill="none" stroke="#000000" stroke-linecap="round" x1="176.145" y1="140.688" x2="215.476" y2="140.688"/>
	
		<line id="connector1pin_2_" fill="none" stroke="#000000" stroke-linecap="round" x1="242.311" y1="206.729" x2="242.311" y2="173.644"/>
	
		<line id="connector2pin" fill="none" stroke="#000000" stroke-linecap="round" x1="242.311" y1="74.387" x2="242.311" y2="107.473"/>
	<line fill="none" stroke="#000000" stroke-linecap="round" x1="215.417" y1="107.473" x2="215.417" y2="173.645"/>
</g>
<g>
	<line fill="none" stroke="#000000" stroke-linecap="round" x1="86.929" y1="107.473" x2="60.46" y2="120.706"/>
	<polygon stroke="#000000" stroke-linecap="round" points="86.929,173.644 77.002,160.41 70.386,173.644 	"/>
	<line fill="none" stroke="#000000" stroke-linecap="round" x1="73.902" y1="167.132" x2="60.459" y2="160.41"/>
	
		<line id="connector0pin_3_" fill="none" stroke="#000000" stroke-linecap="round" x1="20.76" y1="140.558" x2="60.459" y2="140.558"/>
	
		<line id="connector2pin_1_" fill="none" stroke="#000000" stroke-linecap="round" x1="86.929" y1="206.729" x2="86.929" y2="173.644"/>
	
		<line id="connector1pin_3_" fill="none" stroke="#000000" stroke-linecap="round" x1="86.929" y1="74.392" x2="86.929" y2="107.473"/>
	<line fill="none" stroke="#000000" stroke-linecap="round" x1="60.46" y1="107.473" x2="60.46" y2="173.645"/>
</g>
</svg>
