<?xml version="1.0" encoding="utf-8"?>
<!-- Generator: Adobe Illustrator 15.0.0, SVG Export Plug-In . SVG Version: 6.00 Build 0)  -->
<!DOCTYPE svg PUBLIC "-//W3C//DTD SVG 1.1//EN" "http://www.w3.org/Graphics/SVG/1.1/DTD/svg11.dtd">
<svg version="1.1" id="Layer_1" xmlns:svg="http://www.w3.org/2000/svg"
	 xmlns="http://www.w3.org/2000/svg" xmlns:xlink="http://www.w3.org/1999/xlink" x="0px" y="0px" width="612px" height="792px"
	 viewBox="-193.722 -282.886 612 792" enable-background="new -193.722 -282.886 612 792" xml:space="preserve">
<g transform="translate(7.6572,0)">
	<g id="schematicLabel">
		<text transform="matrix(1 0 0 1 3.051758e-05 6.6758)" font-family="'DroidSans'" font-size="9">Voltage Regulator</text>
	</g>
</g>
<g transform="translate(0,10.4)">
	<g id="schematic">
		
			<line id="connector0pin" fill="none" stroke="#000000" stroke-width="1.6044" stroke-linecap="round" stroke-linejoin="round" x1="18.651" y1="21.992" x2="0.802" y2="21.992"/>
		<rect id="connector0terminal" y="21.057" fill="none" width="0.802" height="1.615"/>
		
			<line id="connector1pin" fill="none" stroke="#000000" stroke-width="1.6044" stroke-linecap="round" stroke-linejoin="round" x1="36.829" y1="57.66" x2="36.829" y2="39.085"/>
		<rect id="connector1terminal" x="36.026" y="57.342" fill="none" width="1.604" height="0.808"/>
		
			<line id="connector2pin" fill="none" stroke="#000000" stroke-width="1.6044" stroke-linecap="round" stroke-linejoin="round" x1="73.257" y1="21.992" x2="54.807" y2="21.992"/>
		<rect id="connector2terminal" x="73" y="21.057" fill="none" width="0.802" height="1.615"/>
		
			<rect id="rect17" x="19.308" y="7.13" fill="none" stroke="#000000" stroke-width="1.6044" stroke-linecap="round" stroke-linejoin="round" width="35.262" height="31.463"/>
		<path id="text3320" d="M21.312,19.522h0.633v4.71h-0.633V19.522 M23.205,19.522h0.853l2.074,3.94v-3.94h0.614v4.71h-0.853
			l-2.074-3.94v3.94h-0.614V19.522"/>
		<path id="text3324" d="M41.716,19.862c-0.459,0-0.825,0.172-1.097,0.517c-0.27,0.345-0.404,0.815-0.404,1.411
			c0,0.593,0.135,1.062,0.404,1.407c0.271,0.345,0.637,0.518,1.097,0.518s0.823-0.173,1.091-0.518
			c0.269-0.345,0.404-0.814,0.404-1.407c0-0.596-0.135-1.065-0.404-1.411C42.539,20.035,42.175,19.862,41.716,19.862 M41.716,19.345
			c0.656,0,1.18,0.222,1.573,0.666c0.393,0.442,0.589,1.035,0.589,1.78c0,0.742-0.196,1.335-0.589,1.779
			c-0.393,0.442-0.917,0.663-1.573,0.663c-0.658,0-1.185-0.221-1.579-0.663c-0.393-0.441-0.589-1.035-0.589-1.779
			c0-0.745,0.197-1.338,0.589-1.78C40.531,19.567,41.058,19.345,41.716,19.345 M44.796,19.43h0.636v2.861
			c0,0.505,0.091,0.869,0.273,1.092c0.182,0.221,0.476,0.331,0.883,0.331c0.405,0,0.699-0.11,0.881-0.331
			c0.182-0.223,0.272-0.587,0.272-1.092V19.43h0.636v2.94c0,0.614-0.151,1.078-0.455,1.392c-0.301,0.313-0.746,0.47-1.335,0.47
			c-0.591,0-1.038-0.157-1.341-0.47c-0.301-0.313-0.452-0.777-0.452-1.392V19.43 M48.92,19.43h3.958v0.536h-1.661v4.174h-0.636
			v-4.174H48.92V19.43"/>
		<path id="text3328" d="M33.21,36.317v-1.265h-1.034v-0.523h1.661v2.022c-0.245,0.175-0.514,0.307-0.809,0.397
			c-0.294,0.088-0.609,0.133-0.943,0.133c-0.731,0-1.303-0.215-1.717-0.644c-0.412-0.432-0.618-1.031-0.618-1.798
			c0-0.77,0.206-1.369,0.618-1.798c0.414-0.431,0.986-0.646,1.717-0.646c0.305,0,0.595,0.038,0.868,0.113
			c0.276,0.076,0.53,0.188,0.762,0.334v0.678c-0.234-0.2-0.483-0.35-0.746-0.451c-0.263-0.101-0.54-0.151-0.83-0.151
			c-0.573,0-1.003,0.161-1.292,0.483c-0.286,0.322-0.429,0.801-0.429,1.438c0,0.635,0.143,1.114,0.429,1.436
			c0.289,0.322,0.719,0.482,1.292,0.482c0.223,0,0.423-0.019,0.598-0.057C32.913,36.46,33.07,36.399,33.21,36.317 M34.996,32.279
			h0.853l2.074,3.94v-3.94h0.614v4.71h-0.852l-2.075-3.94v3.94h-0.614V32.279 M40.43,32.803v3.663h0.765
			c0.646,0,1.118-0.147,1.417-0.442c0.301-0.294,0.451-0.759,0.451-1.394c0-0.631-0.15-1.093-0.451-1.385
			c-0.299-0.294-0.771-0.441-1.417-0.441H40.43 M39.797,32.279h1.3c0.907,0,1.572,0.19,1.996,0.571
			c0.424,0.378,0.636,0.972,0.636,1.779c0,0.812-0.213,1.408-0.639,1.789s-1.09,0.571-1.993,0.571h-1.3V32.279"/>
		<path id="text3332" d="M19.938,0.526h3.008v0.271l-1.698,4.439h-0.661l1.598-4.174h-2.247V0.526 M25.538,2.999
			c-0.301,0-0.538,0.081-0.711,0.243c-0.171,0.162-0.257,0.385-0.257,0.669s0.086,0.507,0.257,0.669
			C25,4.742,25.237,4.823,25.538,4.823s0.538-0.081,0.711-0.243c0.173-0.164,0.26-0.387,0.26-0.669c0-0.284-0.087-0.507-0.26-0.669
			C26.078,3.08,25.841,2.999,25.538,2.999 M24.905,2.728c-0.271-0.067-0.484-0.194-0.636-0.382c-0.15-0.187-0.226-0.415-0.226-0.685
			c0-0.376,0.133-0.674,0.398-0.893c0.268-0.219,0.633-0.328,1.097-0.328c0.466,0,0.832,0.109,1.097,0.328
			c0.266,0.219,0.398,0.516,0.398,0.893c0,0.27-0.076,0.498-0.229,0.685c-0.15,0.188-0.36,0.314-0.63,0.382
			c0.305,0.071,0.542,0.211,0.711,0.419c0.171,0.208,0.257,0.463,0.257,0.764c0,0.457-0.139,0.807-0.417,1.05
			c-0.275,0.244-0.671,0.366-1.188,0.366s-0.913-0.122-1.19-0.366c-0.276-0.244-0.414-0.594-0.414-1.05
			c0-0.301,0.086-0.555,0.257-0.764C24.362,2.939,24.6,2.799,24.905,2.728 M24.673,1.722c0,0.244,0.075,0.434,0.226,0.571
			c0.152,0.137,0.366,0.205,0.639,0.205c0.271,0,0.484-0.068,0.636-0.205c0.155-0.137,0.232-0.327,0.232-0.571
			s-0.077-0.434-0.232-0.571c-0.152-0.137-0.365-0.205-0.636-0.205c-0.273,0-0.487,0.068-0.639,0.205
			C24.749,1.288,24.673,1.477,24.673,1.722 M29.625,0.946c-0.326,0-0.571,0.162-0.736,0.486c-0.163,0.322-0.245,0.806-0.245,1.454
			c0,0.646,0.082,1.13,0.245,1.455c0.165,0.322,0.41,0.482,0.736,0.482c0.328,0,0.573-0.161,0.736-0.482
			c0.165-0.324,0.248-0.809,0.248-1.455c0-0.648-0.083-1.132-0.248-1.454C30.198,1.107,29.952,0.946,29.625,0.946 M29.625,0.441
			c0.524,0,0.924,0.209,1.2,0.628c0.278,0.416,0.417,1.022,0.417,1.817c0,0.793-0.139,1.399-0.417,1.817
			c-0.276,0.417-0.676,0.625-1.2,0.625s-0.926-0.208-1.204-0.625c-0.275-0.418-0.414-1.024-0.414-1.817
			c0-0.795,0.138-1.401,0.414-1.817C28.699,0.65,29.1,0.441,29.625,0.441 M32.363,0.526h2.485v0.537h-1.905v1.154
			c0.092-0.031,0.184-0.055,0.276-0.069c0.092-0.017,0.184-0.025,0.275-0.025c0.522,0,0.936,0.144,1.241,0.432
			c0.305,0.288,0.458,0.678,0.458,1.17c0,0.507-0.157,0.901-0.47,1.183c-0.313,0.28-0.755,0.419-1.326,0.419
			c-0.196,0-0.396-0.017-0.602-0.05c-0.203-0.034-0.413-0.084-0.63-0.152v-0.64c0.188,0.103,0.382,0.18,0.583,0.23
			c0.201,0.051,0.413,0.076,0.636,0.076c0.361,0,0.647-0.096,0.858-0.287s0.316-0.451,0.316-0.779s-0.105-0.588-0.316-0.779
			s-0.497-0.287-0.858-0.287c-0.169,0-0.338,0.019-0.508,0.057c-0.167,0.038-0.338,0.097-0.514,0.177V0.526"/>
	</g>
</g>
<g transform="translate(46.4003,146.666)">
	<g id="schematicLabel_1_">
		<text transform="matrix(1 0 0 1 9.155273e-05 6.6758)" font-family="'DroidSans'" font-size="9">LED2</text>
	</g>
</g>
<g transform="translate(137.544,126.844)">
	<g transform="matrix(0,1,-1,0,0,0)">
		<g id="schematic_1_">
			
				<rect id="connector1terminal_1_" x="10.633" y="0.525" transform="matrix(2.578893e-06 1 -1 2.578893e-06 11.3655 -10.1076)" width="0.208" height="0.208"/>
			
				<rect id="connector0terminal_1_" x="10.649" y="64.314" transform="matrix(2.578893e-06 1 -1 2.578893e-06 75.1697 53.6652)" width="0.207" height="0.208"/>
			
				<rect id="connector1pin_1_" x="5.546" y="4.903" transform="matrix(2.578893e-06 1 -1 2.578893e-06 16.3059 -5.1252)" width="10.34" height="1.375"/>
			
				<rect id="connector0pin_1_" x="4.832" y="58.196" transform="matrix(2.578893e-06 1 -1 2.578893e-06 69.5992 48.1679)" width="11.767" height="1.375"/>
			
				<line fill="none" stroke="#000000" stroke-width="2.4" stroke-linecap="round" x1="10.753" y1="41.171" x2="10.753" y2="64.123"/>
			<line fill="none" stroke="#000000" stroke-width="2.4" stroke-linecap="round" x1="21.171" y1="41.683" x2="0.333" y2="41.683"/>
			<line fill="none" stroke="#000000" stroke-width="2.4" stroke-linecap="round" x1="10.753" y1="0.731" x2="10.753" y2="22.393"/>
			<polygon fill="none" stroke="#000000" stroke-width="2.4" stroke-linecap="round" stroke-linejoin="round" points="
				10.753,41.638 5.486,32.515 0.219,23.393 10.753,23.393 21.286,23.393 16.02,32.515 			"/>
			<path d="M27.775,47.148l2.558-2.037l1.465-1.169l1.092-0.871l3.461,9.58L27.775,47.148L27.775,47.148z"/>
			<path d="M21.226,52.138l2.556-2.039l1.465-1.168l1.09-0.87l3.469,9.581L21.226,52.138L21.226,52.138z"/>
			
				<line fill="none" stroke="#000000" stroke-width="2.4" stroke-linecap="round" x1="24.282" y1="37.577" x2="32.948" y2="48.061"/>
			<line fill="none" stroke="#000000" stroke-width="2.4" stroke-linecap="round" x1="19.948" y1="45.54" x2="25.515" y2="52.274"/>
		</g>
	</g>
</g>
<g transform="translate(46.4003,191.733)">
	<g id="schematicLabel_2_">
		<text transform="matrix(1 0 0 1 9.155273e-05 6.6752)" font-family="'DroidSans'" font-size="9">LED1</text>
	</g>
</g>
<g transform="translate(137.277,173.244)">
	<g transform="matrix(0,1,-1,0,0,0)">
		<g id="schematic_2_">
			
				<rect id="connector1terminal_2_" x="10.632" y="0.525" transform="matrix(2.578893e-06 1 -1 2.578893e-06 11.3655 -10.1074)" width="0.209" height="0.209"/>
			
				<rect id="connector0terminal_2_" x="10.649" y="64.314" transform="matrix(2.578893e-06 1 -1 2.578893e-06 75.1701 53.6649)" width="0.207" height="0.208"/>
			
				<rect id="connector1pin_2_" x="5.547" y="4.903" transform="matrix(2.578893e-06 1 -1 2.578893e-06 16.3064 -5.1255)" width="10.339" height="1.375"/>
			
				<rect id="connector0pin_2_" x="4.832" y="58.196" transform="matrix(2.578893e-06 1 -1 2.578893e-06 69.5996 48.1676)" width="11.767" height="1.375"/>
			
				<line fill="none" stroke="#000000" stroke-width="2.4" stroke-linecap="round" x1="10.752" y1="41.171" x2="10.752" y2="64.123"/>
			<line fill="none" stroke="#000000" stroke-width="2.4" stroke-linecap="round" x1="21.171" y1="41.683" x2="0.333" y2="41.683"/>
			<line fill="none" stroke="#000000" stroke-width="2.4" stroke-linecap="round" x1="10.752" y1="0.732" x2="10.752" y2="22.394"/>
			<polygon fill="none" stroke="#000000" stroke-width="2.4" stroke-linecap="round" stroke-linejoin="round" points="
				10.752,41.638 5.486,32.515 0.218,23.394 10.752,23.394 21.285,23.394 16.021,32.515 			"/>
			<path d="M27.776,47.148l2.558-2.037l1.465-1.169l1.092-0.871l3.461,9.58L27.776,47.148L27.776,47.148z"/>
			<path d="M21.226,52.138l2.557-2.039l1.464-1.168l1.09-0.87l3.47,9.581L21.226,52.138L21.226,52.138z"/>
			
				<line fill="none" stroke="#000000" stroke-width="2.4" stroke-linecap="round" x1="24.281" y1="37.577" x2="32.948" y2="48.061"/>
			<line fill="none" stroke="#000000" stroke-width="2.4" stroke-linecap="round" x1="19.948" y1="45.54" x2="25.515" y2="52.274"/>
		</g>
	</g>
</g>
<g transform="translate(195.968,94.9336)">
	<g id="schematicLabel_3_">
		<text transform="matrix(1 0 0 1 -7.019043e-04 6.6758)" font-family="'DroidSans'" font-size="9">560 ohm</text>
	</g>
</g>
<g transform="translate(194.959,138.509)">
	<g transform="matrix(-1,0,0,-1,0,0)">
		<g id="schematic_3_">
			<rect id="connector0pin_3_" x="5.474" y="1.088" width="1.893" height="9.783"/>
			<rect id="connector0terminal_3_" x="5.953" y="0.405" width="0.865" height="0.687"/>
			<rect id="connector1pin_3_" x="5.477" y="54.369" width="1.894" height="9.783"/>
			<rect id="connector1terminal_3_" x="5.957" y="64.082" width="0.865" height="0.688"/>
			<g>
				<polyline fill="#FFFFFF" stroke="#000000" stroke-width="2.2284" stroke-linecap="round" points="6.405,1.131 6.405,20.392 
					9.905,22.254 2.655,26.291 9.905,30.323 2.655,34.359 9.905,38.392 2.655,42.427 6.405,44.599 6.405,63.861 				"/>
			</g>
		</g>
	</g>
</g>
<g transform="translate(50.966,92.9333)">
	<g id="schematicLabel_4_">
		<text transform="matrix(1 0 0 1 -1.678467e-04 6.6751)" font-family="'DroidSans'" font-size="9">LED3</text>
	</g>
</g>
<g transform="translate(50.966,92.9333)">
	<g id="schematicLabel_6_">
		<text transform="matrix(1 0 0 1 125.5189 134.0091)" font-family="'DroidSans'" font-size="9">Meter (Amps)</text>
	</g>
</g>
<g transform="translate(137.81,81.111)">
	<g transform="matrix(0,1,-1,0,0,0)">
		<g id="schematic_4_">
			
				<rect id="connector1terminal_4_" x="10.632" y="0.525" transform="matrix(2.578893e-06 1 -1 2.578893e-06 11.365 -10.1073)" width="0.209" height="0.208"/>
			
				<rect id="connector0terminal_4_" x="10.649" y="64.313" transform="matrix(2.578893e-06 1 -1 2.578893e-06 75.1697 53.665)" width="0.207" height="0.208"/>
			
				<rect id="connector1pin_4_" x="5.546" y="4.903" transform="matrix(2.578893e-06 1 -1 2.578893e-06 16.3064 -5.1249)" width="10.34" height="1.375"/>
			
				<rect id="connector0pin_4_" x="4.832" y="58.196" transform="matrix(2.578893e-06 1 -1 2.578893e-06 69.5991 48.1677)" width="11.767" height="1.375"/>
			
				<line fill="none" stroke="#000000" stroke-width="2.4" stroke-linecap="round" x1="10.752" y1="41.171" x2="10.752" y2="64.123"/>
			<line fill="none" stroke="#000000" stroke-width="2.4" stroke-linecap="round" x1="21.171" y1="41.683" x2="0.333" y2="41.683"/>
			<line fill="none" stroke="#000000" stroke-width="2.4" stroke-linecap="round" x1="10.752" y1="0.731" x2="10.752" y2="22.393"/>
			<polygon fill="none" stroke="#000000" stroke-width="2.4" stroke-linecap="round" stroke-linejoin="round" points="
				10.752,41.638 5.486,32.515 0.218,23.393 10.752,23.393 21.285,23.393 16.02,32.515 			"/>
			<path d="M27.775,47.148l2.558-2.037l1.465-1.169l1.092-0.871l3.461,9.58L27.775,47.148L27.775,47.148z"/>
			<path d="M21.226,52.138l2.556-2.039l1.464-1.168l1.09-0.87l3.469,9.581L21.226,52.138L21.226,52.138z"/>
			
				<line fill="none" stroke="#000000" stroke-width="2.4" stroke-linecap="round" x1="24.282" y1="37.577" x2="32.949" y2="48.061"/>
			<line fill="none" stroke="#000000" stroke-width="2.4" stroke-linecap="round" x1="19.949" y1="45.54" x2="25.515" y2="52.274"/>
		</g>
	</g>
</g>
<g transform="translate(189.339,22.4)">
	<g id="schematicLabel_5_">
		<text transform="matrix(1 0 0 1 -6.103516e-04 6.6752)" font-family="'DroidSans'" font-size="9">S1</text>
	</g>
</g>
<g transform="translate(129.867,31.2)">
	<g id="schematic_5_">
		<rect id="connector0pin_5_" x="50.758" y="0.104" width="8" height="1.6"/>
		<rect id="connector1pin_5_" x="50.758" y="25.705" width="8" height="1.6"/>
		<rect id="connector2pin_1_" x="0.585" y="0.108" width="8" height="1.6"/>
		<rect id="connector3pin" x="0.585" y="25.708" width="8" height="1.6"/>
		<rect id="connector0terminal_5_" x="58.673" y="0.53" width="0.547" height="0.693"/>
		<rect id="connector1terminal_5_" x="58.673" y="26.132" width="0.547" height="0.693"/>
		<rect id="connector2terminal_1_" x="0.176" y="0.533" width="0.551" height="0.693"/>
		<rect id="connector3terminal" x="0.176" y="26.133" width="0.551" height="0.693"/>
		<path fill="none" stroke="#000000" stroke-width="1.6" stroke-linecap="round" d="M5.705,13.693"/>
		<path fill="none" stroke="#000000" stroke-width="1.6" stroke-linecap="round" d="M20.027,13.693"/>
		<polyline fill="none" stroke="#000000" stroke-width="1.6" stroke-linecap="round" stroke-linejoin="round" points="58.638,0.893 
			48.192,0.893 48.192,26.493 58.638,26.493 		"/>
		<line fill="none" stroke="#000000" stroke-width="1.6" stroke-linecap="round" x1="39.393" y1="13.693" x2="48.192" y2="13.693"/>
		<polyline fill="none" stroke="#000000" stroke-width="1.6" stroke-linecap="round" stroke-linejoin="round" points="0.782,26.493 
			11.227,26.493 11.227,0.893 0.782,0.893 		"/>
		<polyline fill="none" stroke="#000000" stroke-width="1.6" stroke-linecap="round" points="38.196,6.03 20.027,13.693 
			11.227,13.693 		"/>
	</g>
</g>
<line fill="none" stroke="#000000" stroke-width="2.4" stroke-linecap="round" x1="188.57" y1="74.083" x2="188.812" y2="57.678"/>
<line fill="none" stroke="#000000" stroke-width="2.4" stroke-linecap="round" x1="73.4" y1="32.265" x2="130.319" y2="32.08"/>
<line fill="none" stroke="#000000" stroke-width="2.4" stroke-linecap="round" x1="188.575" y1="137.761" x2="136.915" y2="137.58"/>
<circle cx="136.915" cy="137.581" r="3.6"/>
<line fill="none" stroke="#000000" stroke-width="2.4" stroke-linecap="round" x1="137.181" y1="91.847" x2="136.915" y2="137.58"/>
<circle cx="136.915" cy="137.581" r="3.6"/>
<line fill="none" stroke="#000000" stroke-width="2.4" stroke-linecap="round" x1="72.86" y1="183.996" x2="73.126" y2="137.597"/>
<circle cx="73.126" cy="137.596" r="3.6"/>
<line fill="none" stroke="#000000" stroke-width="2.4" stroke-linecap="round" x1="73.393" y1="91.863" x2="73.126" y2="137.597"/>
<circle cx="73.126" cy="137.596" r="3.6"/>
<line fill="none" stroke="#000000" stroke-width="2.4" stroke-linecap="round" x1="36.829" y1="68.146" x2="36.829" y2="137.597"/>
<line fill="none" stroke="#000000" stroke-width="2.4" stroke-linecap="round" x1="36.829" y1="137.597" x2="73.126" y2="137.597"/>
<g>
	
		<rect x="159.445" y="155.459" fill="none" stroke="#000000" stroke-width="2.4" stroke-linecap="round" width="84" height="59.155"/>
	<path fill="none" stroke="#000000" stroke-width="2.4" stroke-linecap="round" d="M170.278,197.525
		c0-17.086,13.825-30.911,30.911-30.911"/>
	<path fill="none" stroke="#000000" stroke-width="2.4" stroke-linecap="round" d="M231.19,197.53
		c0-17.086-13.826-30.911-30.912-30.911"/>
	
		<line fill="none" stroke="#000000" stroke-width="2.4" stroke-linecap="round" x1="170.278" y1="197.525" x2="231.19" y2="197.525"/>
	
		<line fill="none" stroke="#000000" stroke-width="2.4" stroke-linecap="round" x1="201.189" y1="197.525" x2="189.086" y2="178.281"/>
</g>
<line fill="none" stroke="#000000" stroke-width="2.4" stroke-linecap="round" x1="137.019" y1="137.685" x2="137.019" y2="164.614"/>
<line fill="none" stroke="#000000" stroke-width="2.4" stroke-linecap="round" x1="137.019" y1="164.614" x2="159.445" y2="164.614"/>
<line fill="none" stroke="#000000" stroke-width="2.4" stroke-linecap="round" x1="136.752" y1="183.876" x2="159.445" y2="183.876"/>
</svg>
