<?xml version="1.0" encoding="UTF-8" standalone="no"?>
<!DOCTYPE svg PUBLIC "-//W3C//DTD SVG 1.1//EN" "http://www.w3.org/Graphics/SVG/1.1/DTD/svg11.dtd">
<svg width="100%" height="100%" viewBox="0 0 261 199" version="1.1" xmlns="http://www.w3.org/2000/svg" xmlns:xlink="http://www.w3.org/1999/xlink" xml:space="preserve" xmlns:serif="http://www.serif.com/" style="fill-rule:evenodd;clip-rule:evenodd;stroke-linecap:round;">
    <g transform="matrix(0,-1,1,0,188.274,165.38)">
        <g>
            <g>
                <g id="schematic">
                    <path d="M7.5,3.1L8.6,0.2" style="fill:none;fill-rule:nonzero;stroke:black;stroke-width:0.43px;"/>
                    <path d="M8.6,0.2L10.4,6" style="fill:none;fill-rule:nonzero;stroke:black;stroke-width:0.43px;"/>
                    <path d="M10.4,6L12.2,0.2" style="fill:none;fill-rule:nonzero;stroke:black;stroke-width:0.43px;"/>
                    <path d="M12.2,0.2L14,6" style="fill:none;fill-rule:nonzero;stroke:black;stroke-width:0.43px;"/>
                    <path d="M14,6L15.8,0.2" style="fill:none;fill-rule:nonzero;stroke:black;stroke-width:0.43px;"/>
                    <path d="M15.8,0.2L17.6,6" style="fill:none;fill-rule:nonzero;stroke:black;stroke-width:0.43px;"/>
                    <path d="M17.6,6L19.4,0.2" style="fill:none;fill-rule:nonzero;stroke:black;stroke-width:0.43px;"/>
                    <path d="M19.4,0.2L21.2,6" style="fill:none;fill-rule:nonzero;stroke:black;stroke-width:0.43px;"/>
                    <path d="M21.2,6L22,3.1" style="fill:none;fill-rule:nonzero;stroke:black;stroke-width:0.43px;"/>
                    <path id="connector1pin" d="M29.2,3.1L22,3.1" style="fill:none;fill-rule:nonzero;stroke:rgb(120,120,120);stroke-width:0.7px;"/>
                    <path id="connector0pin" d="M0.3,3.1L7.5,3.1" style="fill:none;fill-rule:nonzero;stroke:rgb(120,120,120);stroke-width:0.7px;"/>
                </g>
            </g>
        </g>
    </g>
    <g transform="matrix(1,0,0,-1,191.441,137.759)">
        <g>
            <g>
                <g id="schematic_1_">
                    <path d="M50.8,0.4L36.3,14.8L14.8,14.8L14.8,43.6L36.3,43.6L50.8,58L50.8,0.4Z" style="fill:white;fill-rule:nonzero;stroke:black;stroke-width:0.9px;stroke-linejoin:round;"/>
                    <path id="connector0pin_1_" d="M0.4,22L14.8,22" style="fill:none;fill-rule:nonzero;stroke:rgb(120,120,120);stroke-width:0.75px;"/>
                    <g transform="matrix(1,0,0,1,16.8489,22.6616)">
                        <text x="0px" y="0px" style="font-family:'ArialMT', 'Arial', sans-serif;font-size:3.5px;fill:rgb(120,120,120);">+</text>
                    </g>
                    <path id="connector1pin_1_" d="M0.4,36.4L14.8,36.4" style="fill:none;fill-rule:nonzero;stroke:rgb(120,120,120);stroke-width:0.75px;"/>
                    <g transform="matrix(1,0,0,1,16.8489,37.06)">
                        <text x="0px" y="0px" style="font-family:'ArialMT', 'Arial', sans-serif;font-size:3.5px;fill:rgb(120,120,120);">-</text>
                    </g>
                    <path d="M36.3,43.6L36.3,14.8" style="fill:none;fill-rule:nonzero;stroke:black;stroke-width:0.9px;"/>
                </g>
            </g>
        </g>
    </g>
    <g transform="matrix(1,0,0,1,184.154,167.903)">
        <g>
            <g id="schematic_2_">
                <path id="connector0pin_2_" d="M7.2,7.6L7.2,0.4" style="fill:none;fill-rule:nonzero;stroke:rgb(120,120,120);stroke-width:0.75px;"/>
                <path id="path4098" d="M0.5,7.7L13.9,7.7" style="fill:none;fill-rule:nonzero;stroke:black;stroke-width:0.9px;"/>
                <path id="path4100" d="M2.7,10.5L11.6,10.5" style="fill:none;fill-rule:nonzero;stroke:black;stroke-width:0.9px;"/>
                <path id="path4102" d="M9.4,13.2L5,13.2" style="fill:none;fill-rule:nonzero;stroke:black;stroke-width:0.9px;"/>
            </g>
        </g>
    </g>
    <g transform="matrix(1,0,0,1,111.534,183.982)">
        <g>
            <g id="schematic_3_">
                <path id="connector0pin_3_" d="M7.2,7.6L7.2,0.4" style="fill:none;fill-rule:nonzero;stroke:rgb(120,120,120);stroke-width:0.75px;"/>
                <path id="path4098_1_" d="M0.5,7.7L13.9,7.7" style="fill:none;fill-rule:nonzero;stroke:black;stroke-width:0.9px;"/>
                <path id="path4100_1_" d="M2.7,10.5L11.6,10.5" style="fill:none;fill-rule:nonzero;stroke:black;stroke-width:0.9px;"/>
                <path id="path4102_1_" d="M9.4,13.2L5,13.2" style="fill:none;fill-rule:nonzero;stroke:black;stroke-width:0.9px;"/>
            </g>
        </g>
    </g>
    <g transform="matrix(1,0,0,1,16.4957,132.66)">
        <g>
            <g id="schematic_4_">
                <path id="connector0pin_4_" d="M7.2,7.6L7.2,0.4" style="fill:none;fill-rule:nonzero;stroke:rgb(120,120,120);stroke-width:0.75px;"/>
                <path id="path4098_2_" d="M0.5,7.7L13.9,7.7" style="fill:none;fill-rule:nonzero;stroke:black;stroke-width:0.9px;"/>
                <path id="path4100_2_" d="M2.7,10.5L11.6,10.5" style="fill:none;fill-rule:nonzero;stroke:black;stroke-width:0.9px;"/>
                <path id="path4102_2_" d="M9.4,13.2L5,13.2" style="fill:none;fill-rule:nonzero;stroke:black;stroke-width:0.9px;"/>
            </g>
        </g>
    </g>
    <g transform="matrix(1,0,0,1,60.9892,15.0732)">
        <g>
            <g id="schematic_5_">
                <rect x="14.9" y="14.9" width="78.3" height="135.9" style="fill:white;stroke:black;stroke-width:0.9px;"/>
                <path id="connector61pin" d="M93.2,28.8L107.7,28.8" style="fill:none;fill-rule:nonzero;stroke:rgb(120,120,120);stroke-width:0.7px;"/>
                <g transform="matrix(1,0,0,1,81.5413,29.4999)">
                    <text x="0px" y="0px" style="font-family:'ArialMT', 'Arial', sans-serif;font-size:3.5px;fill:rgb(140,140,140);">D0/RX</text>
                </g>
                <path id="connector62pin" d="M93.2,36L107.7,36" style="fill:none;fill-rule:nonzero;stroke:rgb(120,120,120);stroke-width:0.7px;"/>
                <g transform="matrix(1,0,0,1,81.931,36.6999)">
                    <text x="0px" y="0px" style="font-family:'ArialMT', 'Arial', sans-serif;font-size:3.5px;fill:rgb(140,140,140);">D1/TX</text>
                </g>
                <path id="connector63pin" d="M93.2,43.2L107.7,43.2" style="fill:none;fill-rule:nonzero;stroke:rgb(120,120,120);stroke-width:0.7px;"/>
                <g transform="matrix(1,0,0,1,87.3758,43.9)">
                    <text x="0px" y="0px" style="font-family:'ArialMT', 'Arial', sans-serif;font-size:3.5px;fill:rgb(140,140,140);">D2</text>
                </g>
                <path id="connector64pin" d="M93.2,50.4L107.7,50.4" style="fill:none;fill-rule:nonzero;stroke:rgb(120,120,120);stroke-width:0.7px;"/>
                <g transform="matrix(1,0,0,1,77.8499,51.1)">
                    <text x="0px" y="0px" style="font-family:'ArialMT', 'Arial', sans-serif;font-size:3.5px;fill:rgb(140,140,140);">D3 PWM</text>
                </g>
                <path id="connector65pin" d="M93.2,57.6L107.7,57.6" style="fill:none;fill-rule:nonzero;stroke:rgb(120,120,120);stroke-width:0.7px;"/>
                <g transform="matrix(1,0,0,1,87.3758,58.3)">
                    <text x="0px" y="0px" style="font-family:'ArialMT', 'Arial', sans-serif;font-size:3.5px;fill:rgb(140,140,140);">D4</text>
                </g>
                <path id="connector66pin" d="M93.2,64.8L107.7,64.8" style="fill:none;fill-rule:nonzero;stroke:rgb(120,120,120);stroke-width:0.7px;"/>
                <g transform="matrix(1,0,0,1,77.8499,65.4999)">
                    <text x="0px" y="0px" style="font-family:'ArialMT', 'Arial', sans-serif;font-size:3.5px;fill:rgb(140,140,140);">D5 PWM</text>
                </g>
                <path id="connector67pin" d="M93.2,72L107.7,72" style="fill:none;fill-rule:nonzero;stroke:rgb(120,120,120);stroke-width:0.7px;"/>
                <g transform="matrix(1,0,0,1,77.8499,72.6999)">
                    <text x="0px" y="0px" style="font-family:'ArialMT', 'Arial', sans-serif;font-size:3.5px;fill:rgb(140,140,140);">D6 PWM</text>
                </g>
                <path id="connector68pin" d="M93.2,79.2L107.7,79.2" style="fill:none;fill-rule:nonzero;stroke:rgb(120,120,120);stroke-width:0.7px;"/>
                <g transform="matrix(1,0,0,1,87.3758,79.9)">
                    <text x="0px" y="0px" style="font-family:'ArialMT', 'Arial', sans-serif;font-size:3.5px;fill:rgb(140,140,140);">D7</text>
                </g>
                <path id="connector51pin" d="M93.2,86.4L107.7,86.4" style="fill:none;fill-rule:nonzero;stroke:rgb(120,120,120);stroke-width:0.7px;"/>
                <g transform="matrix(1,0,0,1,87.3758,87.1)">
                    <text x="0px" y="0px" style="font-family:'ArialMT', 'Arial', sans-serif;font-size:3.5px;fill:rgb(140,140,140);">D8</text>
                </g>
                <path id="connector52pin" d="M93.2,93.6L107.7,93.6" style="fill:none;fill-rule:nonzero;stroke:rgb(120,120,120);stroke-width:0.7px;"/>
                <g transform="matrix(1,0,0,1,77.8499,94.3)">
                    <text x="0px" y="0px" style="font-family:'ArialMT', 'Arial', sans-serif;font-size:3.5px;fill:rgb(140,140,140);">D9 PWM</text>
                </g>
                <path id="connector53pin" d="M93.2,100.8L107.7,100.8" style="fill:none;fill-rule:nonzero;stroke:rgb(120,120,120);stroke-width:0.7px;"/>
                <g transform="matrix(1,0,0,1,70.2621,101.5)">
                    <text x="0px" y="0px" style="font-family:'ArialMT', 'Arial', sans-serif;font-size:3.5px;fill:rgb(140,140,140);">D10 PWM/SS</text>
                </g>
                <path id="connector54pin" d="M93.2,108L107.7,108" style="fill:none;fill-rule:nonzero;stroke:rgb(120,120,120);stroke-width:0.7px;"/>
                <g transform="matrix(1,0,0,1,66.246,108.7)">
                    <text x="0px" y="0px" style="font-family:'ArialMT', 'Arial', sans-serif;font-size:3.5px;fill:rgb(140,140,140);">D1<tspan x="4.214px 6.161px " y="0px 0px ">1 </tspan>PWM/MOSI</text>
                </g>
                <path id="connector55pin" d="M93.2,115.2L107.7,115.2" style="fill:none;fill-rule:nonzero;stroke:rgb(120,120,120);stroke-width:0.7px;"/>
                <g transform="matrix(1,0,0,1,75.512,115.9)">
                    <text x="0px" y="0px" style="font-family:'ArialMT', 'Arial', sans-serif;font-size:3.5px;fill:rgb(140,140,140);">D12/MISO</text>
                </g>
                <path id="connector41pin" d="M93.2,122.4L107.7,122.4" style="fill:none;fill-rule:nonzero;"/>
                <rect id="connector41terminal" x="107.7" y="122.1" width="0.7" height="0.7" style="fill:none;"/>
                <path id="connector56pin" d="M93.2,122.4L107.7,122.4" style="fill:none;fill-rule:nonzero;stroke:rgb(120,120,120);stroke-width:0.7px;"/>
                <g transform="matrix(1,0,0,1,77.2603,123.1)">
                    <text x="0px" y="0px" style="font-family:'ArialMT', 'Arial', sans-serif;font-size:3.5px;fill:rgb(140,140,140);">D13/SCK</text>
                </g>
                <path id="connector43pin" d="M0.3,28.8L14.8,28.8" style="fill:none;fill-rule:nonzero;"/>
                <rect id="connector43terminal" x="-0.3" y="28.4" width="0.7" height="0.7" style="fill:none;"/>
                <path id="connector85pin" d="M0.3,28.8L14.8,28.8" style="fill:none;fill-rule:nonzero;stroke:rgb(120,120,120);stroke-width:0.7px;"/>
                <g transform="matrix(1,0,0,1,16.15,29.4999)">
                    <text x="0px" y="0px" style="font-family:'ArialMT', 'Arial', sans-serif;font-size:3.5px;fill:rgb(140,140,140);">RESET</text>
                </g>
                <path id="connector49pin" d="M0.3,36L14.8,36" style="fill:none;fill-rule:nonzero;stroke:rgb(120,120,120);stroke-width:0.7px;"/>
                <g transform="matrix(1,0,0,1,16.15,36.6999)">
                    <text x="0px" y="0px" style="font-family:'ArialMT', 'Arial', sans-serif;font-size:3.5px;fill:rgb(140,140,140);">RESET2</text>
                </g>
                <rect id="connector49terminal" x="-0.3" y="35.6" width="0.7" height="0.7" style="fill:none;"/>
                <path id="connector58pin" d="M0.3,43.2L14.8,43.2" style="fill:none;fill-rule:nonzero;stroke:rgb(120,120,120);stroke-width:0.7px;"/>
                <g transform="matrix(1,0,0,1,16.15,43.9)">
                    <text x="0px" y="0px" style="font-family:'ArialMT', 'Arial', sans-serif;font-size:3.5px;fill:rgb(140,140,140);">AREF</text>
                </g>
                <path id="connector84pin" d="M0.3,50.4L14.8,50.4" style="fill:none;fill-rule:nonzero;stroke:rgb(120,120,120);stroke-width:0.7px;"/>
                <g transform="matrix(1,0,0,1,16.15,51.1)">
                    <text x="0px" y="0px" style="font-family:'ArialMT', 'Arial', sans-serif;font-size:3.5px;fill:rgb(140,140,140);">ioref</text>
                </g>
                <path id="connector0pin_5_" d="M0.3,64.8L14.8,64.8" style="fill:none;fill-rule:nonzero;stroke:rgb(120,120,120);stroke-width:0.7px;"/>
                <g transform="matrix(1,0,0,1,16.15,65.4999)">
                    <text x="0px" y="0px" style="font-family:'ArialMT', 'Arial', sans-serif;font-size:3.5px;fill:rgb(140,140,140);">A0</text>
                </g>
                <path id="connector1pin_2_" d="M0.3,72L14.8,72" style="fill:none;fill-rule:nonzero;stroke:rgb(120,120,120);stroke-width:0.7px;"/>
                <g transform="matrix(1,0,0,1,16.15,72.6999)">
                    <text x="0px" y="0px" style="font-family:'ArialMT', 'Arial', sans-serif;font-size:3.5px;fill:rgb(140,140,140);">A1</text>
                </g>
                <path id="connector2pin" d="M0.3,79.2L14.8,79.2" style="fill:none;fill-rule:nonzero;stroke:rgb(120,120,120);stroke-width:0.7px;"/>
                <g transform="matrix(1,0,0,1,16.15,79.9)">
                    <text x="0px" y="0px" style="font-family:'ArialMT', 'Arial', sans-serif;font-size:3.5px;fill:rgb(140,140,140);">A2</text>
                </g>
                <path id="connector3pin" d="M0.3,86.4L14.8,86.4" style="fill:none;fill-rule:nonzero;stroke:rgb(120,120,120);stroke-width:0.7px;"/>
                <g transform="matrix(1,0,0,1,16.15,87.1)">
                    <text x="0px" y="0px" style="font-family:'ArialMT', 'Arial', sans-serif;font-size:3.5px;fill:rgb(140,140,140);">A3</text>
                </g>
                <path id="connector48pin" d="M0.3,93.6L14.8,93.6" style="fill:none;fill-rule:nonzero;"/>
                <rect id="connector48terminal" x="-0.3" y="93.2" width="0.7" height="0.7" style="fill:none;"/>
                <path id="connector45pin" d="M0.3,93.6L14.8,93.6" style="fill:none;fill-rule:nonzero;"/>
                <rect id="connector45terminal" x="-0.3" y="93.2" width="0.7" height="0.7" style="fill:none;"/>
                <path id="connector4pin" d="M0.3,93.6L14.8,93.6" style="fill:none;fill-rule:nonzero;"/>
                <path id="connector39pin" d="M0.3,93.6L14.8,93.6" style="fill:none;fill-rule:nonzero;"/>
                <rect id="connector39terminal" x="-0.3" y="93.2" width="0.7" height="0.7" style="fill:none;"/>
                <path id="connector47pin" d="M0.3,93.6L14.8,93.6" style="fill:none;fill-rule:nonzero;"/>
                <rect id="connector47terminal" x="-0.3" y="93.2" width="0.7" height="0.7" style="fill:none;"/>
                <path id="connector42pin" d="M0.3,93.6L14.8,93.6" style="fill:none;fill-rule:nonzero;"/>
                <rect id="connector42terminal" x="-0.3" y="93.2" width="0.7" height="0.7" style="fill:none;"/>
                <path id="connector59pin" d="M0.3,93.6L14.8,93.6" style="fill:none;fill-rule:nonzero;stroke:rgb(120,120,120);stroke-width:0.7px;"/>
                <g transform="matrix(1,0,0,1,16.15,94.3)">
                    <text x="0px" y="0px" style="font-family:'ArialMT', 'Arial', sans-serif;font-size:3.5px;fill:rgb(140,140,140);">A4/SDA</text>
                </g>
                <path id="connector5pin" d="M0.3,100.8L14.8,100.8" style="fill:none;fill-rule:nonzero;"/>
                <path id="connector60pin" d="M0.3,100.8L14.8,100.8" style="fill:none;fill-rule:nonzero;stroke:rgb(120,120,120);stroke-width:0.7px;"/>
                <g transform="matrix(1,0,0,1,16.15,101.5)">
                    <text x="0px" y="0px" style="font-family:'ArialMT', 'Arial', sans-serif;font-size:3.5px;fill:rgb(140,140,140);">A5/SCL</text>
                </g>
                <path id="connector91pin" d="M0.3,136.8L14.8,136.8" style="fill:none;fill-rule:nonzero;stroke:rgb(120,120,120);stroke-width:0.7px;"/>
                <g transform="matrix(1,0,0,1,16.15,137.5)">
                    <text x="0px" y="0px" style="font-family:'ArialMT', 'Arial', sans-serif;font-size:3.5px;fill:rgb(140,140,140);">N/C</text>
                </g>
                <path id="connector88pin" d="M57.6,150.9L57.6,165.3" style="fill:none;fill-rule:nonzero;"/>
                <path id="connector57pin" d="M57.6,150.9L57.6,165.3" style="fill:none;fill-rule:nonzero;"/>
                <path id="connector44pin" d="M57.6,150.9L57.6,165.3" style="fill:none;fill-rule:nonzero;"/>
                <rect id="connector44terminal" x="57.2" y="165.3" width="0.7" height="0.7" style="fill:none;"/>
                <path id="connector50pin" d="M57.6,150.9L57.6,165.3" style="fill:none;fill-rule:nonzero;"/>
                <rect id="connector50terminal" x="57.2" y="165.3" width="0.7" height="0.7" style="fill:none;"/>
                <path id="connector89pin" d="M57.6,150.9L57.6,165.3" style="fill:none;fill-rule:nonzero;stroke:rgb(120,120,120);stroke-width:0.7px;"/>
                <g transform="matrix(7.04481e-16,-1,1,7.04481e-16,58.2999,149.45)">
                    <g>
                        <g>
                            <g>
                                <text x="0px" y="0px" style="font-family:'ArialMT', 'Arial', sans-serif;font-size:3.5px;fill:rgb(140,140,140);">GND</text>
                            </g>
                        </g>
                    </g>
                </g>
                <path id="connector86pin" d="M36,0.4L36,14.8" style="fill:none;fill-rule:nonzero;stroke:rgb(120,120,120);stroke-width:0.7px;"/>
                <g transform="matrix(7.04481e-16,-1,1,7.04481e-16,36.6999,22.3777)">
                    <g>
                        <g>
                            <g>
                                <text x="0px" y="0px" style="font-family:'ArialMT', 'Arial', sans-serif;font-size:3.5px;fill:rgb(140,140,140);">3V3</text>
                            </g>
                        </g>
                    </g>
                </g>
                <path id="connector40pin" d="M50.4,0.4L50.4,14.8" style="fill:none;fill-rule:nonzero;"/>
                <rect id="connector40terminal" x="50" y="-0.3" width="0.7" height="0.7" style="fill:none;"/>
                <path id="connector46pin" d="M50.4,0.4L50.4,14.8" style="fill:none;fill-rule:nonzero;"/>
                <rect id="connector46terminal" x="50" y="-0.3" width="0.7" height="0.7" style="fill:none;"/>
                <path id="connector87pin" d="M50.4,0.4L50.4,14.8" style="fill:none;fill-rule:nonzero;stroke:rgb(120,120,120);stroke-width:0.7px;"/>
                <g transform="matrix(7.04481e-16,-1,1,7.04481e-16,51.0999,20.4314)">
                    <g>
                        <g>
                            <g>
                                <text x="0px" y="0px" style="font-family:'ArialMT', 'Arial', sans-serif;font-size:3.5px;fill:rgb(140,140,140);">5V</text>
                            </g>
                        </g>
                    </g>
                </g>
                <path id="connector90pin" d="M64.8,0.4L64.8,14.8" style="fill:none;fill-rule:nonzero;stroke:rgb(120,120,120);stroke-width:0.7px;"/>
                <g transform="matrix(7.04481e-16,-1,1,7.04481e-16,65.4999,21.9842)">
                    <g>
                        <g>
                            <g>
                                <text x="0px" y="0px" style="font-family:'ArialMT', 'Arial', sans-serif;font-size:3.5px;fill:rgb(140,140,140);">VIN</text>
                            </g>
                        </g>
                    </g>
                </g>
                <g id="label_1_" transform="matrix(1,0,0,1,47.1257,76.4499)">
                    <text x="0px" y="0px" style="font-family:'ArialMT', 'Arial', sans-serif;font-size:4.25px;">Arduino</text>
                </g>
            </g>
        </g>
    </g>
    <g transform="matrix(1,0,0,1,19.022,87.0564)">
        <g>
            <g id="schematic_6_">
                <path d="M4.6,36.2L4.6,34.8L1.7,32.6L8.2,29L1.7,25.4L8.2,21.8L1.7,18.2L8.2,14.6L1.7,11L4.6,8.9L4.6,7.4" style="fill:none;fill-rule:nonzero;stroke:black;stroke-width:0.7px;"/>
                <path id="connector1pin_3_" d="M4.6,43.4L4.6,36.2" style="fill:none;fill-rule:nonzero;stroke:rgb(120,120,120);stroke-width:0.7px;"/>
                <path id="connector0pin_6_" d="M4.6,0.2L4.6,7.4" style="fill:none;fill-rule:nonzero;stroke:rgb(120,120,120);stroke-width:0.7px;"/>
            </g>
        </g>
    </g>
    <g transform="matrix(1,0,0,1,18.954,29.9028)">
        <g>
            <g id="schematic_7_">
                <path d="M4.6,36.2L4.6,34.8L1.7,32.6L8.2,29L1.7,25.4L8.2,21.8L1.7,18.2L8.2,14.6L1.7,11L4.6,8.9L4.6,7.4" style="fill:none;fill-rule:nonzero;stroke:black;stroke-width:0.7px;"/>
                <path id="connector1pin_4_" d="M4.6,43.4L4.6,36.2" style="fill:none;fill-rule:nonzero;stroke:rgb(120,120,120);stroke-width:0.7px;"/>
                <path id="connector0pin_7_" d="M4.6,0.2L4.6,7.4" style="fill:none;fill-rule:nonzero;stroke:rgb(120,120,120);stroke-width:0.7px;"/>
            </g>
        </g>
    </g>
    <g>
        <path d="M191.8,101.4L169,101.5" style="fill:none;fill-rule:nonzero;stroke:rgb(64,64,64);stroke-width:0.7px;"/>
    </g>
    <g>
        <path d="M191.4,136.2L191.8,115.8" style="fill:none;fill-rule:nonzero;stroke:rgb(64,64,64);stroke-width:0.7px;"/>
    </g>
    <g>
        <path d="M191.4,168.4L191.4,165" style="fill:none;fill-rule:nonzero;stroke:rgb(64,64,64);stroke-width:0.7px;"/>
    </g>
    <g>
        <path d="M118.7,184.5L118.6,180.7" style="fill:none;fill-rule:nonzero;stroke:rgb(64,64,64);stroke-width:0.7px;"/>
    </g>
    <g>
        <path d="M23.5,79.5L23.6,90.9" style="fill:none;fill-rule:nonzero;stroke:rgb(64,64,64);stroke-width:0.7px;"/>
    </g>
    <g>
        <path d="M23.6,69.7L23.5,79.5" style="fill:none;fill-rule:nonzero;stroke:rgb(64,64,64);stroke-width:0.7px;"/>
    </g>
    <circle cx="23.5" cy="79.5" r="1.4"/>
    <g>
        <path d="M23.5,79.5L61,79.9" style="fill:none;fill-rule:nonzero;stroke:rgb(64,64,64);stroke-width:0.7px;"/>
    </g>
    <g>
        <path d="M23.6,1.1L111.4,1.1" style="fill:none;fill-rule:nonzero;stroke:rgb(64,64,64);stroke-width:0.7px;"/>
    </g>
    <g>
        <path d="M23.6,33.7L23.6,1.1" style="fill:none;fill-rule:nonzero;stroke:rgb(64,64,64);stroke-width:0.7px;"/>
    </g>
    <g>
        <path d="M111.4,1.1L111.4,15.1" style="fill:none;fill-rule:nonzero;stroke:rgb(64,64,64);stroke-width:0.7px;"/>
    </g>
    <g>
        <path d="M23.6,126.9L23.7,133.1" style="fill:none;fill-rule:nonzero;stroke:rgb(64,64,64);stroke-width:0.7px;"/>
    </g>
    <g transform="matrix(1,0,0,1,73.7892,12.8233)">
        <g id="partLabel">
            <g>
                <g id="schematicLabel">
                    <text x="0px" y="0px" style="font-family:'ArialMT', 'Arial', sans-serif;font-size:5px;">Arduino1</text>
                </g>
            </g>
        </g>
    </g>
    <g transform="matrix(1,0,0,1,195.275,145.28)">
        <g id="partLabel_1_">
            <g>
                <g id="schematicLabel_1_">
                    <g transform="matrix(1,0,0,1,3.04141e-05,3.75)">
                        <text x="0px" y="0px" style="font-family:'ArialMT', 'Arial', sans-serif;font-size:5px;">R3</text>
                    </g>
                    <g transform="matrix(1,0,0,1,3.04141e-05,8.75)">
                        <text x="0px" y="0px" style="font-family:'ArialMT', 'Arial', sans-serif;font-size:5px;">100Ω</text>
                    </g>
                </g>
            </g>
        </g>
    </g>
    <g transform="matrix(1,0,0,1,242.55,77.5894)">
        <g id="partLabel_2_">
            <g>
                <g id="schematicLabel_2_">
                    <text x="0px" y="0px" style="font-family:'ArialMT', 'Arial', sans-serif;font-size:5px;">SPKR1</text>
                </g>
            </g>
        </g>
    </g>
    <g transform="matrix(1,0,0,1,2.0001,52.8077)">
        <g id="partLabel_3_">
            <g>
                <g id="schematicLabel_3_">
                    <text x="0px" y="0px" style="font-family:'ArialMT', 'Arial', sans-serif;font-size:5px;">R1</text>
                </g>
            </g>
        </g>
    </g>
    <g transform="matrix(1,0,0,1,5.11049,106.614)">
        <g id="partLabel_4_">
            <g>
                <g id="schematicLabel_4_">
                    <g>
                        <text x="0px" y="0px" style="font-family:'ArialMT', 'Arial', sans-serif;font-size:5px;">R2</text>
                        <text x="0px" y="5px" style="font-family:'ArialMT', 'Arial', sans-serif;font-size:5px;">10kΩ</text>
                    </g>
                </g>
            </g>
        </g>
    </g>
    <g>
        <g>
            <path d="M14.5,43.2L36.2,62" style="fill:none;fill-rule:nonzero;stroke:black;stroke-width:0.7px;"/>
            <g>
                <path d="M14.3,45.7L15,43.7L16.9,42.7L12.1,41.2L14.3,45.7Z" style="fill-rule:nonzero;"/>
            </g>
        </g>
    </g>
</svg>
