<?xml version="1.0" encoding="utf-8"?>
<!-- Generator: Adobe Illustrator 16.0.4, SVG Export Plug-In . SVG Version: 6.00 Build 0)  -->
<!DOCTYPE svg PUBLIC "-//W3C//DTD SVG 1.1//EN" "http://www.w3.org/Graphics/SVG/1.1/DTD/svg11.dtd">
<svg version="1.1" id="Layer_1" xmlns:svg="http://www.w3.org/2000/svg"
	 xmlns="http://www.w3.org/2000/svg" xmlns:xlink="http://www.w3.org/1999/xlink" x="0px" y="0px" width="422px" height="563.71px"
	 viewBox="-24.274 0 422 563.71" enable-background="new -24.274 0 422 563.71" xml:space="preserve">
<g>
	<g transform="translate(61.3555,13.3385)">
		<g id="schematic">
			
				<rect x="-32.605" y="64.675" fill="#FFFFFF" stroke="#000000" stroke-width="2" stroke-linecap="round" width="222.057" height="385.409"/>
			
				<line id="connector61pin" fill="none" stroke="#787878" stroke-width="2" stroke-linecap="round" x1="189.735" y1="104.237" x2="230.574" y2="104.237"/>
			<text transform="matrix(1 0 0 1 156.5302 106.2211)" fill="#8C8C8C" font-family="'ArialMT'" font-size="9.9258">D0/RX</text>
			<g id="connector61terminal">
			</g>
			
				<line id="connector62pin" fill="none" stroke="#787878" stroke-width="2" stroke-linecap="round" x1="189.735" y1="124.657" x2="230.574" y2="124.657"/>
			<text transform="matrix(1 0 0 1 157.6357 126.641)" fill="#8C8C8C" font-family="'ArialMT'" font-size="9.9258">D1/TX</text>
			<g id="connector62terminal">
			</g>
			
				<line id="connector63pin" fill="none" stroke="#787878" stroke-width="2" stroke-linecap="round" x1="189.735" y1="145.076" x2="230.574" y2="145.076"/>
			<text transform="matrix(1 0 0 1 173.0771 147.0599)" fill="#8C8C8C" font-family="'ArialMT'" font-size="9.9258">D2</text>
			<g id="connector63terminal">
			</g>
			
				<line id="connector64pin" fill="none" stroke="#787878" stroke-width="2" stroke-linecap="round" x1="189.735" y1="165.493" x2="230.574" y2="165.493"/>
			<text transform="matrix(1 0 0 1 146.0615 167.4799)" fill="#8C8C8C" font-family="'ArialMT'" font-size="9.9258">D3 PWM</text>
			<g id="connector64terminal">
			</g>
			
				<line id="connector65pin" fill="none" stroke="#787878" stroke-width="2" stroke-linecap="round" x1="189.735" y1="185.913" x2="230.574" y2="185.913"/>
			<text transform="matrix(1 0 0 1 173.0771 187.8988)" fill="#8C8C8C" font-family="'ArialMT'" font-size="9.9258">D4</text>
			<g id="connector65terminal">
			</g>
			
				<line id="connector66pin" fill="none" stroke="#787878" stroke-width="2" stroke-linecap="round" x1="189.735" y1="206.332" x2="230.574" y2="206.332"/>
			<text transform="matrix(1 0 0 1 146.0615 208.3158)" fill="#8C8C8C" font-family="'ArialMT'" font-size="9.9258">D5 PWM</text>
			<g id="connector66terminal">
			</g>
			
				<line id="connector67pin" fill="none" stroke="#787878" stroke-width="2" stroke-linecap="round" x1="189.735" y1="226.752" x2="230.574" y2="226.752"/>
			<text transform="matrix(1 0 0 1 146.0615 228.7357)" fill="#8C8C8C" font-family="'ArialMT'" font-size="9.9258">D6 PWM</text>
			<g id="connector67terminal">
			</g>
			
				<line id="connector68pin" fill="none" stroke="#787878" stroke-width="2" stroke-linecap="round" x1="189.735" y1="247.171" x2="230.574" y2="247.171"/>
			<text transform="matrix(1 0 0 1 173.0771 249.1547)" fill="#8C8C8C" font-family="'ArialMT'" font-size="9.9258">D7</text>
			<g id="connector68terminal">
			</g>
			
				<line id="connector51pin" fill="none" stroke="#787878" stroke-width="2" stroke-linecap="round" x1="189.735" y1="267.588" x2="230.574" y2="267.588"/>
			<text transform="matrix(1 0 0 1 173.0771 269.5746)" fill="#8C8C8C" font-family="'ArialMT'" font-size="9.9258">D8</text>
			<g id="connector51terminal">
			</g>
			
				<line id="connector52pin" fill="none" stroke="#787878" stroke-width="2" stroke-linecap="round" x1="189.735" y1="288.008" x2="230.574" y2="288.008"/>
			<text transform="matrix(1 0 0 1 146.0615 289.9935)" fill="#8C8C8C" font-family="'ArialMT'" font-size="9.9258">D9 PWM</text>
			<g id="connector52terminal">
			</g>
			
				<line id="connector53pin" fill="none" stroke="#787878" stroke-width="2" stroke-linecap="round" x1="189.735" y1="308.427" x2="230.574" y2="308.427"/>
			<text transform="matrix(1 0 0 1 124.5429 310.4135)" fill="#8C8C8C" font-family="'ArialMT'" font-size="9.9258">D10 PWM/SS</text>
			<g id="connector53terminal">
			</g>
			
				<line id="connector54pin" fill="none" stroke="#787878" stroke-width="2" stroke-linecap="round" x1="189.735" y1="328.847" x2="230.574" y2="328.847"/>
			<text transform="matrix(1 0 0 1 113.1533 330.8304)" fill="#8C8C8C" font-family="'ArialMT'" font-size="9.9258">D11 PWM/MOSI</text>
			<g id="connector54terminal">
			</g>
			
				<line id="connector55pin" fill="none" stroke="#787878" stroke-width="2" stroke-linecap="round" x1="189.735" y1="349.266" x2="230.574" y2="349.266"/>
			<text transform="matrix(1 0 0 1 139.4316 351.2494)" fill="#8C8C8C" font-family="'ArialMT'" font-size="9.9258">D12/MISO</text>
			<g id="connector55terminal">
			</g>
			<line id="connector41pin" fill="none" x1="189.735" y1="369.683" x2="230.574" y2="369.683"/>
			<rect id="connector41terminal" x="230.574" y="368.692" fill="none" width="1.985" height="1.985"/>
			
				<line id="connector56pin" fill="none" stroke="#787878" stroke-width="2" stroke-linecap="round" x1="189.735" y1="369.683" x2="230.574" y2="369.683"/>
			<text transform="matrix(1 0 0 1 144.3906 371.6693)" fill="#8C8C8C" font-family="'ArialMT'" font-size="9.9258">D13/SCK</text>
			<g id="connector56terminal">
			</g>
			<line id="connector43pin" fill="none" x1="-73.726" y1="104.237" x2="-32.887" y2="104.237"/>
			<rect id="connector43terminal" x="-75.71" y="103.246" fill="none" width="1.984" height="1.983"/>
			
				<line id="connector85pin" fill="none" stroke="#787878" stroke-width="2" stroke-linecap="round" x1="-73.726" y1="104.237" x2="-32.887" y2="104.237"/>
			<text transform="matrix(1 0 0 1 -28.916 106.2211)" fill="#8C8C8C" font-family="'ArialMT'" font-size="9.9258">RESET</text>
			<g id="connector85terminal">
			</g>
			
				<line id="connector49pin" fill="none" stroke="#787878" stroke-width="2" stroke-linecap="round" x1="-73.726" y1="124.657" x2="-32.887" y2="124.657"/>
			<text transform="matrix(1 0 0 1 -28.916 126.641)" fill="#8C8C8C" font-family="'ArialMT'" font-size="9.9258">RESET2</text>
			<rect id="connector49terminal" x="-75.71" y="123.663" fill="none" width="1.984" height="1.985"/>
			
				<line id="connector58pin" fill="none" stroke="#787878" stroke-width="2" stroke-linecap="round" x1="-73.726" y1="145.076" x2="-32.887" y2="145.076"/>
			<text transform="matrix(1 0 0 1 -28.916 147.0599)" fill="#8C8C8C" font-family="'ArialMT'" font-size="9.9258">AREF</text>
			<g id="connector58terminal">
			</g>
			
				<line id="connector84pin" fill="none" stroke="#787878" stroke-width="2" stroke-linecap="round" x1="-73.726" y1="165.493" x2="-32.887" y2="165.493"/>
			<text transform="matrix(1 0 0 1 -28.916 167.4799)" fill="#8C8C8C" font-family="'ArialMT'" font-size="9.9258">ioref</text>
			<g id="connector84terminal">
			</g>
			
				<line id="connector0pin" fill="none" stroke="#787878" stroke-width="2" stroke-linecap="round" x1="-73.726" y1="206.332" x2="-32.887" y2="206.332"/>
			<text transform="matrix(1 0 0 1 -28.916 208.3158)" fill="#8C8C8C" font-family="'ArialMT'" font-size="9.9258">A0</text>
			<g id="connector0terminal">
			</g>
			
				<line id="connector1pin" fill="none" stroke="#787878" stroke-width="2" stroke-linecap="round" x1="-73.726" y1="226.752" x2="-32.887" y2="226.752"/>
			<text transform="matrix(1 0 0 1 -28.916 228.7357)" fill="#8C8C8C" font-family="'ArialMT'" font-size="9.9258">A1</text>
			<g id="connector1terminal">
			</g>
			
				<line id="connector2pin" fill="none" stroke="#787878" stroke-width="2" stroke-linecap="round" x1="-73.726" y1="247.171" x2="-32.887" y2="247.171"/>
			<text transform="matrix(1 0 0 1 -28.916 249.1547)" fill="#8C8C8C" font-family="'ArialMT'" font-size="9.9258">A2</text>
			<g id="connector2terminal">
			</g>
			
				<line id="connector3pin" fill="none" stroke="#787878" stroke-width="2" stroke-linecap="round" x1="-73.726" y1="267.588" x2="-32.887" y2="267.588"/>
			<text transform="matrix(1 0 0 1 -28.916 269.5746)" fill="#8C8C8C" font-family="'ArialMT'" font-size="9.9258">A3</text>
			<g id="connector3terminal">
			</g>
			<line id="connector48pin" fill="none" x1="-73.726" y1="288.008" x2="-32.887" y2="288.008"/>
			<rect id="connector48terminal" x="-75.71" y="287.016" fill="none" width="1.984" height="1.986"/>
			<line id="connector45pin" fill="none" x1="-73.726" y1="288.008" x2="-32.887" y2="288.008"/>
			<rect id="connector45terminal" x="-75.71" y="287.016" fill="none" width="1.984" height="1.986"/>
			<line id="connector4pin" fill="none" x1="-73.726" y1="288.008" x2="-32.887" y2="288.008"/>
			<g id="connector4terminal">
			</g>
			<line id="connector39pin" fill="none" x1="-73.726" y1="288.008" x2="-32.887" y2="288.008"/>
			<rect id="connector39terminal" x="-75.71" y="287.016" fill="none" width="1.984" height="1.986"/>
			<line id="connector47pin" fill="none" x1="-73.726" y1="288.008" x2="-32.887" y2="288.008"/>
			<rect id="connector47terminal" x="-75.71" y="287.016" fill="none" width="1.984" height="1.986"/>
			<line id="connector42pin" fill="none" x1="-73.726" y1="288.008" x2="-32.887" y2="288.008"/>
			<rect id="connector42terminal" x="-75.71" y="287.016" fill="none" width="1.984" height="1.986"/>
			
				<line id="connector59pin" fill="none" stroke="#787878" stroke-width="2" stroke-linecap="round" x1="-73.726" y1="288.008" x2="-32.887" y2="288.008"/>
			<text transform="matrix(1 0 0 1 -28.916 289.9935)" fill="#8C8C8C" font-family="'ArialMT'" font-size="9.9258">A4/SDA</text>
			<g id="connector59terminal">
			</g>
			<line id="connector5pin" fill="none" x1="-73.726" y1="308.427" x2="-32.887" y2="308.427"/>
			<g id="connector5terminal">
			</g>
			
				<line id="connector60pin" fill="none" stroke="#787878" stroke-width="2" stroke-linecap="round" x1="-73.726" y1="308.427" x2="-32.887" y2="308.427"/>
			<text transform="matrix(1 0 0 1 -28.916 310.4135)" fill="#8C8C8C" font-family="'ArialMT'" font-size="9.9258">A5/SCL</text>
			<g id="connector60terminal">
			</g>
			
				<line id="connector91pin" fill="none" stroke="#787878" stroke-width="2" stroke-linecap="round" x1="-73.726" y1="410.522" x2="-32.887" y2="410.522"/>
			<text transform="matrix(1 0 0 1 -28.916 412.5082)" fill="#8C8C8C" font-family="'ArialMT'" font-size="9.9258">N/C</text>
			<g id="connector91terminal">
			</g>
			<line id="connector88pin" fill="none" x1="88.635" y1="450.366" x2="88.635" y2="491.205"/>
			<g id="connector88terminal">
			</g>
			<line id="connector57pin" fill="none" x1="88.635" y1="450.366" x2="88.635" y2="491.205"/>
			<g id="connector57terminal">
			</g>
			<line id="connector44pin" fill="none" x1="88.635" y1="450.366" x2="88.635" y2="491.205"/>
			<rect id="connector44terminal" x="87.641" y="491.205" fill="none" width="1.985" height="1.985"/>
			<line id="connector50pin" fill="none" x1="88.635" y1="450.366" x2="88.635" y2="491.205"/>
			<rect id="connector50terminal" x="87.641" y="491.205" fill="none" width="1.985" height="1.985"/>
			
				<line id="connector89pin" fill="none" stroke="#787878" stroke-width="2" stroke-linecap="round" x1="88.635" y1="450.366" x2="88.635" y2="491.205"/>
			<g transform="matrix(1, 0, 0, 1, 58.2999, 149.45)">
				<g>
					<g transform="rotate(270)">
						<g>
							<text transform="matrix(1 0 0 1 -296.9468 32.3173)" fill="#8C8C8C" font-family="'ArialMT'" font-size="9.9258">GND</text>
						</g>
					</g>
				</g>
			</g>
			<g id="connector89terminal">
			</g>
			
				<line id="connector86pin" fill="none" stroke="#787878" stroke-width="2" stroke-linecap="round" x1="27.377" y1="23.554" x2="27.377" y2="64.393"/>
			<g transform="matrix(1, 0, 0, 1, 36.6999, 16.15)">
				<g>
					<g transform="rotate(270)">
						<g>
							<text transform="matrix(1 0 0 1 -69.8719 -7.3376)" fill="#8C8C8C" font-family="'ArialMT'" font-size="9.9258">3V3</text>
						</g>
					</g>
				</g>
			</g>
			<g id="connector86terminal">
			</g>
			<line id="connector40pin" fill="none" x1="68.215" y1="23.554" x2="68.215" y2="64.393"/>
			<rect id="connector40terminal" x="67.221" y="21.568" fill="none" width="1.985" height="1.986"/>
			<line id="connector46pin" fill="none" x1="68.215" y1="23.554" x2="68.215" y2="64.393"/>
			<rect id="connector46terminal" x="67.221" y="21.568" fill="none" width="1.985" height="1.986"/>
			
				<line id="connector87pin" fill="none" stroke="#787878" stroke-width="2" stroke-linecap="round" x1="68.215" y1="23.554" x2="68.215" y2="64.393"/>
			<g transform="matrix(1, 0, 0, 1, 51.0999, 16.15)">
				<g>
					<g transform="rotate(270)">
						<g>
							<text transform="matrix(1 0 0 1 -64.3533 19.1003)" fill="#8C8C8C" font-family="'ArialMT'" font-size="9.9258">5V</text>
						</g>
					</g>
				</g>
			</g>
			<g id="connector87terminal">
			</g>
			
				<line id="connector90pin" fill="none" stroke="#787878" stroke-width="2" stroke-linecap="round" x1="109.051" y1="23.554" x2="109.051" y2="64.393"/>
			<g transform="matrix(1, 0, 0, 1, 65.4999, 16.15)">
				<g>
					<g transform="rotate(270)">
						<g>
							<text transform="matrix(1 0 0 1 -68.7586 45.5372)" fill="#8C8C8C" font-family="'ArialMT'" font-size="9.9258">VIN</text>
						</g>
					</g>
				</g>
			</g>
			<g id="connector90terminal">
			</g>
			<text id="label" transform="matrix(1 0 0 1 58.9297 239.3705)" font-family="'ArialMT'" font-size="12.0529">Arduino</text>
			<text id="label_1_" transform="matrix(1 0 0 1 68.6465 252.2289)" font-family="'ArialMT'" font-size="12.0529">Uno</text>
			<text id="label_2_" transform="matrix(1 0 0 1 61.6181 265.0853)" font-family="'ArialMT'" font-size="12.0529">(Rev3)</text>
		</g>
	</g>
</g>
<g>
	<g transform="translate(176.273,152.968)">
		<g id="schematic_2_">
			<g>
				<path d="M174.552,239.361h-10.211c-0.545,0-0.991-0.443-0.991-0.994c0-0.549,0.442-0.991,0.991-0.991h10.211
					c0.546,0,0.992,0.442,0.992,0.991C175.544,238.917,175.104,239.361,174.552,239.361z"/>
			</g>
			<g>
				<path d="M164.341,239.361h-10.209c-0.549,0-0.99-0.443-0.99-0.994c0-0.549,0.441-0.991,0.99-0.991h10.209
					c0.549,0,0.994,0.442,0.994,0.991C165.335,238.917,164.89,239.361,164.341,239.361z"/>
			</g>
			<g>
				<polygon fill="#FFFFFF" points="164.341,238.367 154.132,217.947 164.341,217.947 174.552,217.947 				"/>
				<path d="M164.341,240.585l-11.814-23.63h23.635L164.341,240.585z M155.74,218.941l8.603,17.207l8.604-17.207H155.74z"/>
			</g>
			<g>
				<path d="M164.341,239.006c-0.35,0-0.637-0.288-0.637-0.64v-20.42c0-0.352,0.287-0.637,0.637-0.637
					c0.354,0,0.64,0.285,0.64,0.637v20.42C164.978,238.718,164.696,239.006,164.341,239.006z"/>
			</g>
			<g>
				<path d="M141.373,231.349c-0.166,0-0.328-0.062-0.453-0.187c-0.248-0.25-0.248-0.65,0-0.899l6.64-6.643
					c0.249-0.249,0.651-0.249,0.899,0c0.25,0.252,0.25,0.654,0,0.903l-6.635,6.639C141.699,231.288,141.539,231.349,141.373,231.349
					z"/>
			</g>
			<g>
				<path d="M142.39,240.538c-0.163,0-0.323-0.061-0.448-0.186c-0.249-0.249-0.249-0.65,0-0.902l6.636-6.636
					c0.25-0.249,0.653-0.249,0.902,0c0.25,0.249,0.25,0.652,0,0.901l-6.636,6.637C142.723,240.474,142.556,240.538,142.39,240.538z"
					/>
			</g>
			<g id="connector0pin_2_">
				<path fill="#787878" d="M164.341,259.778c-0.545,0-0.991-0.44-0.991-0.992v-20.419c0-0.546,0.442-0.991,0.991-0.991
					c0.552,0,0.994,0.442,0.994,0.991v20.419C165.333,259.337,164.89,259.778,164.341,259.778z"/>
			</g>
			<g id="connector0terminal_2_">
				<rect x="164.341" y="258.786" fill="none" width="0.006" height="0.003"/>
			</g>
			<g transform="matrix(1, 0, 0, 1, 3.429, 6.4262)">
				<g>
					<g transform="rotate(270)">
						<g>
							<g enable-background="new    ">
								<path fill="#787878" d="M-241.744,158.274h-2.528v-0.43l0.97-1.059c0.142-0.149,0.266-0.285,0.374-0.409
									c0.105-0.125,0.199-0.244,0.279-0.363c0.075-0.118,0.133-0.237,0.175-0.354c0.044-0.12,0.061-0.248,0.061-0.391
									c0-0.109-0.014-0.203-0.05-0.289c-0.033-0.087-0.074-0.152-0.133-0.215c-0.058-0.055-0.127-0.1-0.205-0.127
									c-0.08-0.033-0.171-0.047-0.269-0.047c-0.175,0-0.332,0.036-0.475,0.107c-0.144,0.065-0.275,0.16-0.403,0.271l-0.282-0.326
									c0.068-0.065,0.154-0.134,0.238-0.186c0.079-0.062,0.177-0.111,0.273-0.152c0.097-0.045,0.202-0.075,0.307-0.104
									c0.108-0.022,0.226-0.033,0.345-0.033c0.18,0,0.338,0.021,0.479,0.072c0.146,0.05,0.27,0.121,0.368,0.215
									c0.097,0.089,0.177,0.205,0.232,0.339c0.053,0.133,0.077,0.284,0.077,0.454c0,0.156-0.024,0.305-0.071,0.445
									c-0.05,0.142-0.116,0.285-0.199,0.42c-0.089,0.137-0.188,0.274-0.311,0.414c-0.116,0.139-0.246,0.281-0.386,0.432
									l-0.777,0.834v0.021h1.91L-241.744,158.274L-241.744,158.274z"/>
							</g>
						</g>
					</g>
				</g>
			</g>
			<g id="connector1pin_2_">
				<path fill="#787878" d="M164.341,218.941c-0.545,0-0.991-0.445-0.991-0.994v-20.416c0-0.549,0.442-0.994,0.991-0.994
					c0.552,0,0.994,0.445,0.994,0.994v20.416C165.333,218.496,164.89,218.941,164.341,218.941z"/>
			</g>
			<g id="connector1terminal_2_">
				<polygon fill="none" points="164.341,197.531 164.347,197.531 164.347,197.531 				"/>
			</g>
			<g transform="matrix(1, 0, 0, 1, 3.429, 1.3462)">
				<g>
					<g transform="rotate(270)">
						<g>
							<g enable-background="new    ">
								<path fill="#787878" d="M-206.808,158.274h-0.488v-2.529c0-0.079,0-0.166,0-0.254c0-0.094,0.003-0.18,0.006-0.271
									c0.003-0.088,0.006-0.177,0.009-0.26c0.003-0.078,0.006-0.155,0.006-0.217c-0.03,0.033-0.059,0.062-0.08,0.086
									c-0.024,0.025-0.05,0.048-0.075,0.068c-0.024,0.019-0.05,0.045-0.08,0.069c-0.027,0.024-0.058,0.054-0.1,0.086l-0.41,0.333
									l-0.267-0.338l1.062-0.831h0.413v4.058H-206.808L-206.808,158.274z"/>
							</g>
						</g>
					</g>
				</g>
			</g>
			<g>
				<path d="M136.777,235.303l3.062-7.147l4.084,4.076L136.777,235.303z"/>
			</g>
			<g>
				<path d="M137.798,244.493l3.062-7.147l4.076,4.076L137.798,244.493z"/>
			</g>
		</g>
	</g>
</g>
<g>
	<g transform="translate(189.231,106.875)">
		<g transform="matrix(0,1,-1,0,0,0)">
			<g id="schematic_3_">
				
					<line fill="none" stroke="#000000" stroke-width="2" stroke-linecap="round" x1="133.702" y1="-151.278" x2="136.765" y2="-159.443"/>
				
					<line fill="none" stroke="#000000" stroke-width="2" stroke-linecap="round" x1="136.765" y1="-159.443" x2="141.872" y2="-143.108"/>
				
					<line fill="none" stroke="#000000" stroke-width="2" stroke-linecap="round" x1="141.872" y1="-143.108" x2="146.976" y2="-159.443"/>
				
					<line fill="none" stroke="#000000" stroke-width="2" stroke-linecap="round" x1="146.976" y1="-159.443" x2="152.081" y2="-143.108"/>
				
					<line fill="none" stroke="#000000" stroke-width="2" stroke-linecap="round" x1="152.081" y1="-143.108" x2="157.184" y2="-159.443"/>
				
					<line fill="none" stroke="#000000" stroke-width="2" stroke-linecap="round" x1="157.184" y1="-159.443" x2="162.289" y2="-143.108"/>
				
					<line fill="none" stroke="#000000" stroke-width="2" stroke-linecap="round" x1="162.289" y1="-143.108" x2="167.396" y2="-159.443"/>
				
					<line fill="none" stroke="#000000" stroke-width="2" stroke-linecap="round" x1="167.396" y1="-159.443" x2="172.5" y2="-143.108"/>
				
					<line fill="none" stroke="#000000" stroke-width="2" stroke-linecap="round" x1="172.5" y1="-143.108" x2="174.541" y2="-151.278"/>
				
					<line id="connector1pin_3_" fill="none" stroke="#787878" stroke-width="2" stroke-linecap="round" x1="194.961" y1="-151.278" x2="174.541" y2="-151.278"/>
				<g id="connector1terminal_3_">
				</g>
				<text transform="matrix(1 0 0 1 182.7764 -154.2563)" fill="#8C8C8C" font-family="'ArialMT'" font-size="7.0899">2</text>
				
					<line id="connector0pin_3_" fill="none" stroke="#787878" stroke-width="2" stroke-linecap="round" x1="113.285" y1="-151.278" x2="133.702" y2="-151.278"/>
				<g id="connector0terminal_3_">
				</g>
				<text transform="matrix(1 0 0 1 121.521 -154.2563)" fill="#8C8C8C" font-family="'ArialMT'" font-size="7.0899">1</text>
			</g>
		</g>
	</g>
</g>
<g>
	<g transform="translate(179.013,181.678)">
		<g id="schematic_4_">
			<path id="connector0pin_4_" fill="none" stroke="#787878" stroke-width="2" stroke-linecap="round" d="M161.718,271.109V250.69"
				/>
			<g id="connector0terminal_4_">
			</g>
			<path id="path4098" fill="none" stroke="#000000" stroke-width="2" stroke-linecap="round" d="M142.715,271.497h38.002"/>
			<path id="path4100" fill="none" stroke="#000000" stroke-width="2" stroke-linecap="round" d="M149.045,279.279h25.342"/>
			<path id="path4102" fill="none" stroke="#000000" stroke-width="2" stroke-linecap="round" d="M168.045,286.992h-12.66"/>
		</g>
	</g>
</g>
<g>
	<g transform="translate(111.613,181.678)">
		<g id="schematic_5_">
			<path id="connector0pin_5_" fill="none" stroke="#787878" stroke-width="2" stroke-linecap="round" d="M37.976,353.109V332.69"/>
			<g id="connector0terminal_5_">
			</g>
			<path id="path4098_1_" fill="none" stroke="#000000" stroke-width="2" stroke-linecap="round" d="M18.971,353.497h38"/>
			<path id="path4100_1_" fill="none" stroke="#000000" stroke-width="2" stroke-linecap="round" d="M25.299,361.279H50.64"/>
			<path id="path4102_1_" fill="none" stroke="#000000" stroke-width="2" stroke-linecap="round" d="M44.298,368.992H31.639"/>
		</g>
	</g>
</g>
<g>
	<line fill="none" stroke="#404040" stroke-width="2" stroke-linecap="round" x1="340.509" y1="220.16" x2="292.921" y2="219.347"/>
</g>
<g>
	<line fill="none" stroke="#404040" stroke-width="2" stroke-linecap="round" x1="340.62" y1="350.499" x2="340.509" y2="301.836"/>
</g>
<g>
	<line fill="none" stroke="#404040" stroke-width="2" stroke-linecap="round" x1="340.731" y1="432.656" x2="340.62" y2="411.754"/>
</g>
<g>
	
		<line fill="none" stroke="#404040" stroke-width="2" stroke-linecap="round" x1="149.589" y1="514.656" x2="149.987" y2="505.536"/>
</g>
<g id="partLabel">
	<g transform="translate(74.1555,7.33852)">
		<g id="schematicLabel">
			<text transform="matrix(1 0 0 1 -51.217 22.182)" font-family="'ArialMT'" font-size="14.1798">Arduino1</text>
		</g>
	</g>
</g>
<g id="partLabel_2_">
	<g transform="translate(191.098,159.343)">
		<g id="schematicLabel_2_">
			<text transform="matrix(1 0 0 1 163.485 219.2556)" font-family="'ArialMT'" font-size="14.1798">LED1</text>
		</g>
	</g>
</g>
<g id="partLabel_3_">
	<g transform="translate(190.085,118.129)">
		<g id="schematicLabel_3_">
			<text transform="matrix(1 0 0 1 161.6259 143.5878)" font-family="'ArialMT'" font-size="14.1798">R1</text>
			<text transform="matrix(1 0 0 1 161.6259 157.7685)" font-family="'ArialMT'" font-size="14.1798">220Ω</text>
		</g>
	</g>
</g>
</svg>
