<?xml version="1.0" encoding="UTF-8"?>
<svg width="88px" height="65px" viewBox="0 0 88 65" version="1.1" xmlns="http://www.w3.org/2000/svg" xmlns:xlink="http://www.w3.org/1999/xlink">
    <!-- Generator: Sketch 58 (84663) - https://sketch.com -->
    <title>CH340Basic</title>
    <desc>Created with Sketch.</desc>
    <g id="Page-1" stroke="none" stroke-width="1" fill="none" fill-rule="evenodd">
        <g id="CH340Basic">
            <g id="Group">
                <rect id="rect2997" stroke="#888888" stroke-width="0.216" fill="#D60617" fill-rule="nonzero" stroke-linejoin="round" x="0.979816514" y="0.269230769" width="84" height="63.9692308"></rect>
                <rect id="rect88209" fill="#000000" fill-rule="nonzero" x="55.4623853" y="18.9269231" width="31.0183486" height="25.6384615"></rect>
                <path d="M87.3669725,17.6576923 L54.5761468,17.6576923 L54.5761468,45.9615385 L87.3669725,45.9615385 L87.3669725,17.6576923 Z M83.6954128,20.8307692 L83.6954128,24.5115385 C83.6954128,24.7653846 83.4422018,24.8923077 83.1889908,24.8923077 L73.187156,24.8923077 C72.933945,24.8923077 72.6807339,24.6384615 72.6807339,24.5115385 L72.6807339,23.6230769 L81.4165138,23.6230769 C81.6697248,23.6230769 81.9229358,23.3692308 81.9229358,23.1153846 L81.9229358,22.2269231 C81.9229358,21.9730769 81.6697248,21.7192308 81.4165138,21.7192308 L72.8073394,21.7192308 L72.8073394,20.8307692 C72.8073394,20.5769231 73.0605505,20.45 73.3137615,20.45 L83.3155963,20.45 C83.4422018,20.3230769 83.6954128,20.5769231 83.6954128,20.8307692 Z M83.6954128,27.6846154 L83.6954128,28.1923077 L72.8073394,28.1923077 L70.5284404,28.5730769 L70.5284404,35.0461538 L72.8073394,35.4269231 L83.6954128,35.4269231 L83.6954128,35.9346154 C83.6954128,36.1884615 83.4422018,36.4423077 83.1889908,36.4423077 L68.6293578,36.4423077 C68.3761468,36.4423077 68.1229358,36.1884615 68.1229358,35.9346154 L68.1229358,27.6846154 C68.1229358,27.4307692 68.3761468,27.3038462 68.6293578,27.3038462 L83.1889908,27.3038462 C83.4422018,27.1769231 83.6954128,27.4307692 83.6954128,27.6846154 Z M83.6954128,39.1076923 L83.6954128,42.7884615 C83.6954128,43.0423077 83.4422018,43.2961538 83.1889908,43.2961538 L73.187156,43.2961538 C72.933945,43.2961538 72.6807339,43.0423077 72.6807339,42.7884615 L72.6807339,41.9 L81.4165138,41.9 C81.6697248,41.9 81.9229358,41.6461538 81.9229358,41.3923077 L81.9229358,40.5038462 C81.9229358,40.25 81.6697248,39.9961538 81.4165138,39.9961538 L72.8073394,39.9961538 L72.8073394,39.1076923 C72.8073394,38.8538462 73.0605505,38.6 73.3137615,38.6 L83.3155963,38.6 C83.4422018,38.6 83.6954128,38.8538462 83.6954128,39.1076923 Z" id="rect88148"></path>
                <rect id="rect88303" fill="#FFCC00" fill-rule="nonzero" opacity="0.4253" x="54.5761468" y="20.3230769" width="32.7908257" height="22.8461538"></rect>
                <rect id="rect5206" stroke="#000000" stroke-width="0.0708661" fill="#1A1A1A" fill-rule="nonzero" transform="translate(44.065138, 32.444231) rotate(-270.000000) translate(-44.065138, -32.444231) " x="26.6568807" y="23.1153846" width="34.8165138" height="18.6576923"></rect>
                <rect id="rect5206-copy" stroke="#000000" stroke-width="0.0708661" fill="#1A1A1A" fill-rule="nonzero" transform="translate(25.500000, 45.500000) rotate(-270.000000) translate(-25.500000, -45.500000) " x="21" y="40" width="9" height="11"></rect>
                <rect id="rect5206-copy-2" stroke="#000000" stroke-width="0.0708661" fill="#1A1A1A" fill-rule="nonzero" transform="translate(25.500000, 16.500000) rotate(-270.000000) translate(-25.500000, -16.500000) " x="23" y="11" width="5" height="11"></rect>
                <rect id="rect5206-copy-3" stroke="#000000" stroke-width="0.0708661" fill="#9C310A" fill-rule="nonzero" transform="translate(25.000000, 35.500000) rotate(-270.000000) translate(-25.000000, -35.500000) " x="23" y="31" width="4" height="9"></rect>
                <rect id="rect5206-copy-4" stroke="#000000" stroke-width="0.0708661" fill-opacity="0.541493663" fill="#6C5700" fill-rule="nonzero" transform="translate(25.000000, 29.500000) rotate(-270.000000) translate(-25.000000, -29.500000) " x="23" y="25" width="4" height="9"></rect>
                <rect id="rect88471" x="74.1577982" y="54.3384615" width="4.30458716" height="4.82307692"></rect>
                <rect id="rect88494" x="65.0422018" y="54.3384615" width="4.30458716" height="4.82307692"></rect>
                <rect id="rect88504" fill="#B3FF80" fill-rule="nonzero" x="12.346789" y="42.3384615" width="4.81100917" height="4.82307692"></rect>
                <rect id="rect6893" x="58.5853211" y="54.3384615" width="4.30458716" height="4.82307692"></rect>
                <rect id="rect6895" x="49.4697248" y="54.3384615" width="4.30458716" height="4.82307692"></rect>
                <rect id="rect6897" fill="#FF8080" fill-rule="nonzero" x="12.6833211" y="34.3384615" width="4.81100917" height="4.82307692"></rect>
                <path d="M10.0954128,40.5038462 C8.06972477,40.5038462 6.42385321,38.8538462 6.42385321,36.8230769 C6.42385321,34.7923077 8.06972477,33.1423077 10.0954128,33.1423077 C12.1211009,33.1423077 13.7669725,34.7923077 13.7669725,36.8230769 C13.640367,38.8538462 12.1211009,40.5038462 10.0954128,40.5038462 Z" id="path8144"></path>
                <path d="M10.0954128,31.3653846 C8.06972477,31.3653846 6.42385321,29.7153846 6.42385321,27.6846154 C6.42385321,25.6538462 8.06972477,24.0038462 10.0954128,24.0038462 C12.1211009,24.0038462 13.7669725,25.6538462 13.7669725,27.6846154 C13.7669725,29.7153846 12.1211009,31.3653846 10.0954128,31.3653846 Z" id="path8146"></path>
                <path d="M10.0954128,22.2269231 C8.06972477,22.2269231 6.42385321,20.5769231 6.42385321,18.5461538 C6.42385321,16.5153846 8.06972477,14.8653846 10.0954128,14.8653846 C12.1211009,14.8653846 13.7669725,16.5153846 13.7669725,18.5461538 C13.640367,20.5769231 12.1211009,22.2269231 10.0954128,22.2269231 Z" id="path8148"></path>
                <path d="M10.0954128,13.0884615 C8.06972477,13.0884615 6.42385321,11.4384615 6.42385321,9.40769231 C6.42385321,7.37692308 8.06972477,5.72692308 10.0954128,5.72692308 C12.1211009,5.72692308 13.7669725,7.37692308 13.7669725,9.40769231 C13.7669725,11.4384615 12.1211009,13.0884615 10.0954128,13.0884615 Z" id="path8150"></path>
                <text id="tspan7667" fill="#FFFFFF" font-family="Helvetica" font-size="4" font-weight="normal">
                    <tspan x="2.56998165" y="9.90486923">GND</tspan>
                </text>
                <g transform="translate(2.119266, 51.038462)" fill="#FFFFFF" font-family="Helvetica" font-size="4" font-weight="normal" id="DTR">
                    <text>
                        <tspan x="0.641680734" y="4.77778462">DTR</tspan>
                    </text>
                </g>
                <g transform="translate(2.119266, 42.153846)" fill="#FFFFFF" font-family="Helvetica" font-size="4" font-weight="normal" id="tspan7651">
                    <text>
                        <tspan x="0.641680734" y="4.52393846">RX</tspan>
                    </text>
                </g>
                <g transform="translate(2.119266, 33.269231)" fill="#FFFFFF" font-family="Helvetica" font-size="4" font-weight="normal" id="tspan7655">
                    <text>
                        <tspan x="0.641680734" y="4.27009231">TX</tspan>
                    </text>
                </g>
                <g transform="translate(2.119266, 14.230769)" fill="#FFFFFF" font-family="Helvetica" font-size="4" font-weight="normal" id="tspan7663">
                    <text>
                        <tspan x="0.641680734" y="4.57458077">CTS</tspan>
                    </text>
                </g>
                <g transform="translate(2.119266, 24.384615)" fill="#FFFFFF" font-family="Helvetica" font-size="4" font-weight="normal" id="tspan7659">
                    <text>
                        <tspan x="0.641680734" y="4.01624615">VCC</tspan>
                    </text>
                </g>
            </g>
        </g>
    </g>
</svg>