<?xml version="1.0" encoding="UTF-8"?>
<svg width="111px" height="65px" viewBox="0 0 111 65" version="1.1" xmlns="http://www.w3.org/2000/svg" xmlns:xlink="http://www.w3.org/1999/xlink">
    <!-- Generator: Sketch 58 (84663) - https://sketch.com -->
    <title>CP2102Friend</title>
    <desc>Created with Sketch.</desc>
    <g id="Page-1" stroke="none" stroke-width="1" fill="none" fill-rule="evenodd">
        <g id="CP2102Friend" transform="translate(-30.000000, -1.000000)">
            <g id="Group" transform="translate(3.000000, 0.000000)">
                <rect id="rect2997" stroke="#888888" stroke-width="0.216" fill="#165C7A" fill-rule="nonzero" stroke-linejoin="round" x="27.9798165" y="1.26923077" width="109.387156" height="63.9692308"></rect>
                <path d="M37.0954128,50.6423077 C35.0697248,50.6423077 33.4238532,48.9923077 33.4238532,46.9615385 C33.4238532,44.9307692 35.0697248,43.2807692 37.0954128,43.2807692 C39.1211009,43.2807692 40.7669725,44.9307692 40.7669725,46.9615385 C40.7669725,48.9923077 39.1211009,50.6423077 37.0954128,50.6423077 Z" id="path8142"></path>
                <polygon id="rect88169" points="112.678899 13.5807692 110.020183 13.5807692 109.133945 14.3423077 108.247706 13.5807692 105.588991 13.5807692 105.588991 19.0384615 112.678899 19.0384615 112.678899 13.5807692"></polygon>
                <polygon id="path88183" points="130.910092 13.5807692 128.251376 13.5807692 127.365138 14.3423077 126.478899 13.5807692 123.820183 13.5807692 123.820183 19.0384615 131.163303 19.0384615 131.163303 13.5807692"></polygon>
                <polygon id="path88187" points="112.678899 51.9115385 110.020183 51.9115385 109.133945 51.15 108.247706 51.9115385 105.588991 51.9115385 105.588991 46.4538462 112.678899 46.4538462 112.678899 51.9115385"></polygon>
                <polygon id="path88189" points="130.910092 51.9115385 128.251376 51.9115385 127.365138 51.15 126.478899 51.9115385 123.820183 51.9115385 123.820183 46.4538462 131.163303 46.4538462 131.163303 51.9115385"></polygon>
                <rect id="rect88209" fill="#000000" fill-rule="nonzero" x="105.462385" y="19.9269231" width="31.0183486" height="25.6384615"></rect>
                <path d="M137.366972,18.6576923 L104.576147,18.6576923 L104.576147,46.9615385 L137.366972,46.9615385 L137.366972,18.6576923 Z M133.695413,21.8307692 L133.695413,25.5115385 C133.695413,25.7653846 133.442202,25.8923077 133.188991,25.8923077 L123.187156,25.8923077 C122.933945,25.8923077 122.680734,25.6384615 122.680734,25.5115385 L122.680734,24.6230769 L131.416514,24.6230769 C131.669725,24.6230769 131.922936,24.3692308 131.922936,24.1153846 L131.922936,23.2269231 C131.922936,22.9730769 131.669725,22.7192308 131.416514,22.7192308 L122.807339,22.7192308 L122.807339,21.8307692 C122.807339,21.5769231 123.06055,21.45 123.313761,21.45 L133.315596,21.45 C133.442202,21.3230769 133.695413,21.5769231 133.695413,21.8307692 Z M133.695413,28.6846154 L133.695413,29.1923077 L122.807339,29.1923077 L120.52844,29.5730769 L120.52844,36.0461538 L122.807339,36.4269231 L133.695413,36.4269231 L133.695413,36.9346154 C133.695413,37.1884615 133.442202,37.4423077 133.188991,37.4423077 L118.629358,37.4423077 C118.376147,37.4423077 118.122936,37.1884615 118.122936,36.9346154 L118.122936,28.6846154 C118.122936,28.4307692 118.376147,28.3038462 118.629358,28.3038462 L133.188991,28.3038462 C133.442202,28.1769231 133.695413,28.4307692 133.695413,28.6846154 Z M133.695413,40.1076923 L133.695413,43.7884615 C133.695413,44.0423077 133.442202,44.2961538 133.188991,44.2961538 L123.187156,44.2961538 C122.933945,44.2961538 122.680734,44.0423077 122.680734,43.7884615 L122.680734,42.9 L131.416514,42.9 C131.669725,42.9 131.922936,42.6461538 131.922936,42.3923077 L131.922936,41.5038462 C131.922936,41.25 131.669725,40.9961538 131.416514,40.9961538 L122.807339,40.9961538 L122.807339,40.1076923 C122.807339,39.8538462 123.06055,39.6 123.313761,39.6 L133.315596,39.6 C133.442202,39.6 133.695413,39.8538462 133.695413,40.1076923 Z" id="rect88148"></path>
                <polygon id="path88246" points="133.695413 29.0653846 133.695413 36.4269231 122.807339 36.4269231 120.52844 35.9192308 120.52844 29.5730769 122.807339 29.0653846 133.695413 29.0653846"></polygon>
                <rect id="rect88303" fill="#FFCC00" fill-rule="nonzero" opacity="0.4253" x="104.576147" y="21.3230769" width="32.7908257" height="22.8461538"></rect>
                <rect id="rect88356" x="100.904587" y="32.4923077" width="3.67155963" height="1.39615385"></rect>
                <rect id="rect88358" x="100.904587" y="26.7807692" width="3.67155963" height="1.39615385"></rect>
                <rect id="rect88360" x="100.904587" y="29.7" width="3.67155963" height="1.39615385"></rect>
                <rect id="rect88362" x="100.904587" y="35.4115385" width="3.67155963" height="1.39615385"></rect>
                <rect id="rect88364" x="100.904587" y="38.2038462" width="3.67155963" height="1.39615385"></rect>
                <rect id="rect88079" x="63.3027523" y="20.5615385" width="1.13944954" height="3.55384615"></rect>
                <rect id="rect5072" x="65.7082569" y="20.5615385" width="1.13944954" height="3.55384615"></rect>
                <rect id="rect5076" x="67.987156" y="20.5615385" width="1.13944954" height="3.55384615"></rect>
                <rect id="rect5080" x="70.3926606" y="20.5615385" width="1.13944954" height="3.55384615"></rect>
                <rect id="rect5090" x="72.6715596" y="20.5615385" width="1.13944954" height="3.55384615"></rect>
                <rect id="rect5094" x="75.0770642" y="20.5615385" width="1.13944954" height="3.55384615"></rect>
                <rect id="rect5098" x="77.3559633" y="20.5615385" width="1.13944954" height="3.55384615"></rect>
                <rect id="rect5102" x="79.6348624" y="20.5615385" width="1.13944954" height="3.55384615"></rect>
                <rect id="rect5104" x="82.040367" y="20.5615385" width="1.13944954" height="3.55384615"></rect>
                <rect id="rect5106" x="84.3192661" y="20.5615385" width="1.13944954" height="3.55384615"></rect>
                <rect id="rect5108" x="86.7247706" y="20.5615385" width="1.13944954" height="3.55384615"></rect>
                <rect id="rect5110" x="89.0036697" y="20.5615385" width="1.13944954" height="3.55384615"></rect>
                <rect id="rect5112" x="91.2825688" y="20.5615385" width="1.13944954" height="3.55384615"></rect>
                <rect id="rect5114" x="93.6880734" y="20.5615385" width="1.13944954" height="3.55384615"></rect>
                <rect id="rect5150" x="93.6880734" y="42.7730769" width="1.13944954" height="3.55384615"></rect>
                <rect id="rect5152" x="91.2825688" y="42.7730769" width="1.13944954" height="3.55384615"></rect>
                <rect id="rect5154" x="89.0036697" y="42.7730769" width="1.13944954" height="3.55384615"></rect>
                <rect id="rect5156" x="86.7247706" y="42.7730769" width="1.13944954" height="3.55384615"></rect>
                <rect id="rect5158" x="84.3192661" y="42.7730769" width="1.13944954" height="3.55384615"></rect>
                <rect id="rect5160" x="82.040367" y="42.7730769" width="1.13944954" height="3.55384615"></rect>
                <rect id="rect5162" x="79.6348624" y="42.7730769" width="1.13944954" height="3.55384615"></rect>
                <rect id="rect5164" x="77.3559633" y="42.7730769" width="1.13944954" height="3.55384615"></rect>
                <rect id="rect5166" x="75.0770642" y="42.7730769" width="1.13944954" height="3.55384615"></rect>
                <rect id="rect5168" x="72.6715596" y="42.7730769" width="1.13944954" height="3.55384615"></rect>
                <rect id="rect5170" x="70.3926606" y="42.7730769" width="1.13944954" height="3.55384615"></rect>
                <rect id="rect5172" x="67.987156" y="42.7730769" width="1.13944954" height="3.55384615"></rect>
                <rect id="rect5174" x="65.7082569" y="42.7730769" width="1.13944954" height="3.55384615"></rect>
                <rect id="rect5176" x="63.3027523" y="42.7730769" width="1.13944954" height="3.55384615"></rect>
                <rect id="rect5206" stroke="#000000" stroke-width="0.0708661" fill="#1A1A1A" fill-rule="nonzero" x="61.6568807" y="24.1153846" width="34.8165138" height="18.6576923"></rect>
                <rect id="rect88471" x="101.157798" y="55.3384615" width="4.30458716" height="4.82307692"></rect>
                <rect id="rect88494" x="92.0422018" y="55.3384615" width="4.30458716" height="4.82307692"></rect>
                <rect id="rect88504" fill="#B3FF80" fill-rule="nonzero" x="96.346789" y="55.3384615" width="4.81100917" height="4.82307692"></rect>
                <rect id="rect6893" x="85.5853211" y="55.3384615" width="4.30458716" height="4.82307692"></rect>
                <rect id="rect6895" x="76.4697248" y="55.3384615" width="4.30458716" height="4.82307692"></rect>
                <rect id="rect6897" fill="#FF8080" fill-rule="nonzero" x="80.7743119" y="55.3384615" width="4.81100917" height="4.82307692"></rect>
                <rect id="rect6915" fill-opacity="0.1576" fill="#FFFFFF" fill-rule="nonzero" x="61.0238532" y="54.9576923" width="13.4201835" height="5.71153846"></rect>
                <rect id="rect6917" fill-opacity="0.1576" fill="#FFFFFF" fill-rule="nonzero" x="50.8954128" y="43.2807692" width="5.69724771" height="10.5346154"></rect>
                <rect id="rect6919" fill-opacity="0.1576" fill="#FFFFFF" fill-rule="nonzero" x="50.8954128" y="30.9692308" width="5.69724771" height="10.5346154"></rect>
                <rect id="rect6921" fill-opacity="0.1576" fill="#FFFFFF" fill-rule="nonzero" x="55.3266055" y="5.83846154" width="15.9522936" height="6.85384615"></rect>
                <rect id="rect6923" fill-opacity="0.1576" fill="#FFFFFF" fill-rule="nonzero" x="74.1908257" y="6.72692308" width="13.040367" height="5.07692308"></rect>
                <rect id="rect6925" fill-opacity="0.1576" fill="#FFFFFF" fill-rule="nonzero" x="89.7633028" y="6.72692308" width="13.040367" height="5.07692308"></rect>
                <rect id="rect6927" fill-opacity="0.1576" fill="#FFFFFF" fill-rule="nonzero" x="107.741284" y="55.2115385" width="13.040367" height="5.20384615"></rect>
                <path d="M37.0954128,41.5038462 C35.0697248,41.5038462 33.4238532,39.8538462 33.4238532,37.8230769 C33.4238532,35.7923077 35.0697248,34.1423077 37.0954128,34.1423077 C39.1211009,34.1423077 40.7669725,35.7923077 40.7669725,37.8230769 C40.640367,39.8538462 39.1211009,41.5038462 37.0954128,41.5038462 Z" id="path8144"></path>
                <path d="M37.0954128,32.3653846 C35.0697248,32.3653846 33.4238532,30.7153846 33.4238532,28.6846154 C33.4238532,26.6538462 35.0697248,25.0038462 37.0954128,25.0038462 C39.1211009,25.0038462 40.7669725,26.6538462 40.7669725,28.6846154 C40.7669725,30.7153846 39.1211009,32.3653846 37.0954128,32.3653846 Z" id="path8146"></path>
                <path d="M37.0954128,23.2269231 C35.0697248,23.2269231 33.4238532,21.5769231 33.4238532,19.5461538 C33.4238532,17.5153846 35.0697248,15.8653846 37.0954128,15.8653846 C39.1211009,15.8653846 40.7669725,17.5153846 40.7669725,19.5461538 C40.640367,21.5769231 39.1211009,23.2269231 37.0954128,23.2269231 Z" id="path8148"></path>
                <path d="M37.0954128,14.0884615 C35.0697248,14.0884615 33.4238532,12.4384615 33.4238532,10.4076923 C33.4238532,8.37692308 35.0697248,6.72692308 37.0954128,6.72692308 C39.1211009,6.72692308 40.7669725,8.37692308 40.7669725,10.4076923 C40.7669725,12.4384615 39.1211009,14.0884615 37.0954128,14.0884615 Z" id="path8150"></path>
                <path d="M37.0954128,59.7807692 C35.0697248,59.7807692 33.4238532,58.1307692 33.4238532,56.1 C33.4238532,54.0692308 35.0697248,52.4192308 37.0954128,52.4192308 C39.1211009,52.4192308 40.7669725,54.0692308 40.7669725,56.1 C40.7669725,58.1307692 39.1211009,59.7807692 37.0954128,59.7807692 Z" id="path8152"></path>
                <text id="tspan7637" fill="#FFFFFF" font-family="Helvetica" font-size="4" font-weight="normal">
                    <tspan x="29.5699817" y="63.2131692">GREEN</tspan>
                </text>
                <text id="tspan7641" fill="#FFFFFF" font-family="Helvetica" font-size="4" font-weight="normal">
                    <tspan x="29.5699817" y="4.27009231">BLACK</tspan>
                </text>
                <text id="tspan7667" fill="#FFFFFF" font-family="Helvetica" font-size="4" font-weight="normal">
                    <tspan x="29.5699817" y="10.9048692">GND</tspan>
                </text>
                <text id="tspan7671" fill="#FFFFFF" font-family="Helvetica" font-size="4" font-weight="normal">
                    <tspan x="74.6833211" y="58.1362462">TX</tspan>
                </text>
                <text id="tspan7675" fill="#FFFFFF" font-family="Helvetica" font-size="4" font-weight="normal">
                    <tspan x="89.3341101" y="57.6793231">RX</tspan>
                </text>
                <path d="M119.895413,16.1192308 C120.148624,16.1192308 120.275229,15.8653846 120.401835,15.6115385 C120.52844,15.3576923 121.034862,13.4538462 121.034862,13.4538462 C121.034862,13.4538462 121.541284,12.1846154 120.781651,11.1692308 C120.655046,11.0423077 120.52844,10.9153846 120.52844,10.7884615 C120.655046,10.9153846 120.781651,11.0423077 120.908257,11.0423077 C121.921101,11.6769231 123.187156,11.2961538 123.187156,11.2961538 C123.187156,11.2961538 125.086239,10.6615385 125.33945,10.6615385 C125.719266,10.5346154 125.845872,10.4076923 125.845872,10.1538462 C125.845872,9.9 125.719266,9.77307692 125.466055,9.51923077 C125.212844,9.39230769 123.693578,8.25 123.693578,8.25 C123.693578,8.25 122.554128,7.36153846 121.541284,7.74230769 C121.414679,7.74230769 121.288073,7.86923077 121.034862,7.86923077 C121.161468,7.74230769 121.288073,7.74230769 121.414679,7.61538462 C122.427523,6.85384615 122.300917,5.58461538 122.300917,5.58461538 C122.300917,5.58461538 122.300917,3.68076923 122.300917,3.3 C122.300917,2.91923077 122.300917,2.79230769 122.047706,2.66538462 C121.794495,2.53846154 121.66789,2.66538462 121.288073,2.79230769 C121.034862,2.91923077 119.515596,4.06153846 119.515596,4.06153846 C119.515596,4.06153846 118.376147,4.82307692 118.376147,5.96538462 C118.376147,6.09230769 118.376147,6.34615385 118.376147,6.47307692 C118.376147,6.34615385 118.249541,6.09230769 118.249541,5.96538462 C117.869725,4.82307692 116.60367,4.44230769 116.60367,4.44230769 C116.60367,4.44230769 114.704587,3.80769231 114.451376,3.68076923 C114.07156,3.55384615 113.944954,3.55384615 113.691743,3.68076923 C113.438532,3.93461538 113.565138,4.06153846 113.691743,4.44230769 C113.818349,4.69615385 114.451376,6.6 114.451376,6.6 C114.451376,6.6 114.831193,7.99615385 115.970642,8.25 C116.097248,8.25 116.223853,8.37692308 116.477064,8.37692308 C116.350459,8.37692308 116.097248,8.37692308 115.970642,8.37692308 C114.831193,8.37692308 114.07156,9.51923077 114.07156,9.51923077 C114.07156,9.51923077 112.93211,11.0423077 112.805505,11.2961538 C112.552294,11.55 112.552294,11.8038462 112.678899,12.0576923 C112.805505,12.3115385 112.93211,12.3115385 113.311927,12.3115385 C113.565138,12.3115385 115.590826,12.3115385 115.590826,12.3115385 C115.590826,12.3115385 116.983486,12.4384615 117.616514,11.4230769 C117.743119,11.2961538 117.743119,11.1692308 117.869725,11.0423077 C117.743119,11.1692308 117.743119,11.4230769 117.743119,11.55 C117.363303,12.6923077 118.249541,13.7076923 118.249541,13.7076923 C118.249541,13.7076923 119.388991,15.2307692 119.515596,15.4846154 C119.515596,15.9923077 119.515596,16.1192308 119.895413,16.1192308 L119.895413,16.1192308 Z M121.288073,9.39230769 C121.288073,9.64615385 120.781651,9.77307692 120.275229,9.64615385 C119.768807,9.51923077 119.388991,9.26538462 119.388991,9.13846154 C119.388991,8.88461538 119.895413,8.75769231 120.401835,8.88461538 C120.908257,8.88461538 121.288073,9.13846154 121.288073,9.39230769 Z M119.895413,6.6 C120.148624,6.72692308 120.022018,7.10769231 119.768807,7.61538462 C119.515596,8.12307692 119.13578,8.37692308 119.009174,8.25 C118.755963,8.12307692 118.882569,7.74230769 119.13578,7.23461538 C119.388991,6.85384615 119.768807,6.47307692 119.895413,6.6 L119.895413,6.6 Z M117.236697,8.12307692 C116.856881,7.74230769 116.730275,7.36153846 116.856881,7.10769231 C116.983486,6.98076923 117.489908,7.10769231 117.869725,7.48846154 C118.249541,7.86923077 118.376147,8.25 118.249541,8.50384615 C118.122936,8.63076923 117.616514,8.37692308 117.236697,8.12307692 Z M116.350459,10.1538462 C116.223853,9.9 116.60367,9.64615385 116.983486,9.39230769 C117.489908,9.13846154 117.869725,9.13846154 117.99633,9.26538462 C118.122936,9.51923077 117.743119,9.77307692 117.363303,10.0269231 C116.983486,10.2807692 116.477064,10.2807692 116.350459,10.1538462 Z M118.629358,10.6615385 C118.502752,10.1538462 118.629358,9.64615385 118.882569,9.64615385 C119.13578,9.64615385 119.388991,10.0269231 119.388991,10.5346154 C119.515596,11.0423077 119.388991,11.55 119.13578,11.55 C118.882569,11.55 118.629358,11.1692308 118.629358,10.6615385 Z" id="path12631" fill="#FFFFFF" fill-rule="nonzero"></path>
                <g transform="translate(29.119266, 52.038462)" fill="#FFFFFF">
                    <text id="tspan7647" font-family="Helvetica" font-size="4" font-weight="normal">
                        <tspan x="3.64168073" y="4.77778462">RTS</tspan>
                    </text>
                    <polygon id="path10704" stroke="#FFFFFF" stroke-width="0.36" fill-rule="nonzero" stroke-linecap="round" stroke-linejoin="round" points="2.7853211 6.34615385 0.506422018 4.06153846 2.7853211 1.77692308"></polygon>
                </g>
                <g transform="translate(29.119266, 43.153846)" fill="#FFFFFF">
                    <text id="tspan7651" font-family="Helvetica" font-size="4" font-weight="normal">
                        <tspan x="3.64168073" y="4.52393846">RX</tspan>
                    </text>
                    <polygon id="path11214" stroke="#FFFFFF" stroke-width="0.36" fill-rule="nonzero" stroke-linecap="round" stroke-linejoin="round" points="0.506422018 1.52307692 2.7853211 3.80769231 0.506422018 6.09230769"></polygon>
                </g>
                <g transform="translate(29.119266, 34.269231)" fill="#FFFFFF">
                    <text id="tspan7655" font-family="Helvetica" font-size="4" font-weight="normal">
                        <tspan x="3.64168073" y="4.27009231">TX</tspan>
                    </text>
                    <polygon id="path11216" stroke="#FFFFFF" stroke-width="0.36" fill-rule="nonzero" stroke-linecap="round" stroke-linejoin="round" points="2.7853211 5.83846154 0.506422018 3.55384615 2.7853211 1.26923077"></polygon>
                </g>
                <g transform="translate(29.119266, 15.230769)" fill="#FFFFFF">
                    <text id="tspan7663" font-family="Helvetica" font-size="4" font-weight="normal">
                        <tspan x="3.64168073" y="4.57458077">CTS</tspan>
                    </text>
                    <polygon id="path11218" stroke="#FFFFFF" stroke-width="0.36" fill-rule="nonzero" stroke-linecap="round" stroke-linejoin="round" points="0.506422018 2.03076923 2.7853211 4.31538462 0.506422018 6.6"></polygon>
                </g>
                <rect id="rect7707" x="0.633027523" y="5.83846154" width="27.9798165" height="54.8307692"></rect>
                <g transform="translate(29.119266, 25.384615)" fill="#FFFFFF">
                    <text id="tspan7659" font-family="Helvetica" font-size="4" font-weight="normal">
                        <tspan x="3.64168073" y="4.01624615">VCC</tspan>
                    </text>
                    <polygon id="path11227" stroke="#FFFFFF" stroke-width="0.36" fill-rule="nonzero" stroke-linecap="round" stroke-linejoin="round" points="2.7853211 5.45769231 0.506422018 3.17307692 2.7853211 0.888461538"></polygon>
                </g>
                <rect id="rect11229" x="28.612844" y="54.7038462" width="10.0018349" height="2.79230769"></rect>
                <rect id="rect11247" x="28.612844" y="45.5653846" width="10.0018349" height="2.79230769"></rect>
                <rect id="rect11251" x="28.612844" y="36.4269231" width="10.0018349" height="2.79230769"></rect>
                <rect id="rect11255" x="28.612844" y="27.2884615" width="10.0018349" height="2.79230769"></rect>
                <rect id="rect11259" x="28.612844" y="18.15" width="10.0018349" height="2.79230769"></rect>
                <rect id="rect11263" x="28.612844" y="9.01153846" width="10.0018349" height="2.79230769"></rect>
            </g>
        </g>
    </g>
</svg>