<?xml version="1.0" encoding="UTF-8"?>
<svg width="174px" height="139px" viewBox="0 0 174 139" version="1.1" xmlns="http://www.w3.org/2000/svg" xmlns:xlink="http://www.w3.org/1999/xlink">
    <!-- Generator: Sketch 58 (84663) - https://sketch.com -->
    <title>Slice 1</title>
    <desc>Created with Sketch.</desc>
    <g id="Page-1" stroke="none" stroke-width="1" fill="none" fill-rule="evenodd">
        <g id="LabBluetoothSerialNano" transform="translate(13.000000, 0.000000)">
            <g id="Group">
                <path d="M51,5.8 L0.6,5.8 L0.6,128.2 L51,128.2 L51,5.8 M49.7,9.4 C49.7,10.7 48.7,11.7 47.4,11.7 C46.1,11.7 45.1,10.7 45.1,9.4 L45.1,9.4 C45.1,8.1 46.1,7.1 47.4,7.1 C48.7,7 49.7,8.1 49.7,9.4 L49.7,9.4 Z M6.5,9.4 C6.5,10.7 5.5,11.7 4.2,11.7 C2.9,11.7 1.9,10.7 1.9,9.4 L1.9,9.4 C1.9,8.1 2.9,7.1 4.2,7.1 C5.5,7 6.5,8.1 6.5,9.4 Z M6.5,124.6 C6.5,125.9 5.5,126.9 4.2,126.9 C2.9,126.9 1.9,125.9 1.9,124.6 C1.9,123.3 2.9,122.3 4.2,122.3 C5.5,122.2 6.5,123.3 6.5,124.6 Z M49.7,124.6 C49.7,125.9 48.7,126.9 47.4,126.9 C46.1,126.9 45.1,125.9 45.1,124.6 L45.1,124.6 C45.1,123.3 46.1,122.3 47.4,122.3 C48.7,122.2 49.7,123.3 49.7,124.6 L49.7,124.6 Z M48.7,117.4 C48.7,118.1 48.1,118.7 47.4,118.7 C46.7,118.7 46.1,118.1 46.1,117.4 C46.1,116.7 46.7,116.1 47.4,116.1 C48.1,116.1 48.7,116.7 48.7,117.4 Z M48.7,110.2 C48.7,110.9 48.1,111.5 47.4,111.5 C46.7,111.5 46.1,110.9 46.1,110.2 C46.1,109.5 46.7,108.9 47.4,108.9 C48.1,108.9 48.7,109.5 48.7,110.2 Z M48.7,103 C48.7,103.7 48.1,104.3 47.4,104.3 C46.7,104.3 46.1,103.7 46.1,103 C46.1,102.3 46.7,101.7 47.4,101.7 C48.1,101.7 48.7,102.3 48.7,103 Z M48.7,95.8 C48.7,96.5 48.1,97.1 47.4,97.1 C46.7,97.1 46.1,96.5 46.1,95.8 C46.1,95.1 46.7,94.5 47.4,94.5 C48.1,94.5 48.7,95.1 48.7,95.8 Z M48.7,88.6 C48.7,89.3 48.1,89.9 47.4,89.9 C46.7,89.9 46.1,89.3 46.1,88.6 C46.1,87.9 46.7,87.3 47.4,87.3 C48.1,87.3 48.7,87.9 48.7,88.6 Z M48.7,81.4 C48.7,82.1 48.1,82.7 47.4,82.7 C46.7,82.7 46.1,82.1 46.1,81.4 L46.1,81.4 C46.1,80.7 46.7,80.1 47.4,80.1 C48.1,80.1 48.7,80.7 48.7,81.4 Z M48.7,74.2 C48.7,74.9 48.1,75.5 47.4,75.5 C46.7,75.5 46.1,74.9 46.1,74.2 L46.1,74.2 C46.1,73.5 46.7,72.9 47.4,72.9 C48.1,72.9 48.7,73.5 48.7,74.2 Z M48.7,67 C48.7,67.7 48.1,68.3 47.4,68.3 C46.7,68.3 46.1,67.7 46.1,67 C46.1,66.3 46.7,65.7 47.4,65.7 C48.1,65.7 48.7,66.3 48.7,67 L48.7,67 Z M48.7,59.8 C48.7,60.5 48.1,61.1 47.4,61.1 C46.7,61.1 46.1,60.5 46.1,59.8 C46.1,59.1 46.7,58.5 47.4,58.5 C48.1,58.5 48.7,59.1 48.7,59.8 Z M48.7,52.6 C48.7,53.3 48.1,53.9 47.4,53.9 C46.7,53.9 46.1,53.3 46.1,52.6 C46.1,51.9 46.7,51.3 47.4,51.3 C48.1,51.3 48.7,51.9 48.7,52.6 Z M48.7,45.4 C48.7,46.1 48.1,46.7 47.4,46.7 C46.7,46.7 46.1,46.1 46.1,45.4 L46.1,45.4 C46.1,44.7 46.7,44.1 47.4,44.1 C48.1,44.1 48.7,44.7 48.7,45.4 Z M48.7,38.2 C48.7,38.9 48.1,39.5 47.4,39.5 C46.7,39.5 46.1,38.9 46.1,38.2 C46.1,37.5 46.7,36.9 47.4,36.9 C48.1,36.9 48.7,37.5 48.7,38.2 Z M48.7,31 C48.7,31.7 48.1,32.3 47.4,32.3 C46.7,32.3 46.1,31.7 46.1,31 C46.1,30.3 46.7,29.7 47.4,29.7 C48.1,29.7 48.7,30.3 48.7,31 Z M48.7,23.8 C48.7,24.5 48.1,25.1 47.4,25.1 C46.7,25.1 46.1,24.5 46.1,23.8 C46.1,23.1 46.7,22.5 47.4,22.5 C48.1,22.5 48.7,23.1 48.7,23.8 Z M48.7,16.6 C48.7,17.3 48.1,17.9 47.4,17.9 C46.7,17.9 46.1,17.3 46.1,16.6 C46.1,15.9 46.7,15.3 47.4,15.3 C48.1,15.3 48.7,15.9 48.7,16.6 Z M5.5,117.4 C5.5,118.1 4.9,118.7 4.2,118.7 C3.5,118.7 2.9,118.1 2.9,117.4 L2.9,117.4 C2.9,116.7 3.5,116.1 4.2,116.1 C4.9,116.1 5.5,116.7 5.5,117.4 L5.5,117.4 Z M5.5,110.2 C5.5,110.9 4.9,111.5 4.2,111.5 C3.5,111.5 2.9,110.9 2.9,110.2 L2.9,110.2 C2.9,109.5 3.5,108.9 4.2,108.9 C4.9,108.9 5.5,109.5 5.5,110.2 L5.5,110.2 Z M5.5,103 C5.5,103.7 4.9,104.3 4.2,104.3 C3.5,104.3 2.9,103.7 2.9,103 L2.9,103 C2.9,102.3 3.5,101.7 4.2,101.7 C4.9,101.7 5.5,102.3 5.5,103 L5.5,103 Z M5.5,95.8 C5.5,96.5 4.9,97.1 4.2,97.1 C3.5,97.1 2.9,96.5 2.9,95.8 L2.9,95.8 C2.9,95.1 3.5,94.5 4.2,94.5 C4.9,94.5 5.5,95.1 5.5,95.8 L5.5,95.8 Z M5.5,88.6 C5.5,89.3 4.9,89.9 4.2,89.9 C3.5,89.9 2.9,89.3 2.9,88.6 L2.9,88.6 C2.9,87.9 3.5,87.3 4.2,87.3 C4.9,87.3 5.5,87.9 5.5,88.6 L5.5,88.6 Z M5.5,81.4 C5.5,82.1 4.9,82.7 4.2,82.7 C3.5,82.7 2.9,82.1 2.9,81.4 L2.9,81.4 C2.9,80.7 3.5,80.1 4.2,80.1 C4.9,80.1 5.5,80.7 5.5,81.4 L5.5,81.4 Z M5.5,74.2 C5.5,74.9 4.9,75.5 4.2,75.5 C3.5,75.5 2.9,74.9 2.9,74.2 L2.9,74.2 C2.9,73.5 3.5,72.9 4.2,72.9 C4.9,72.9 5.5,73.5 5.5,74.2 L5.5,74.2 Z M5.5,67 C5.5,67.7 4.9,68.3 4.2,68.3 C3.5,68.3 2.9,67.7 2.9,67 L2.9,67 C2.9,66.3 3.5,65.7 4.2,65.7 C4.9,65.7 5.5,66.3 5.5,67 L5.5,67 Z M5.5,59.8 C5.5,60.5 4.9,61.1 4.2,61.1 C3.5,61.1 2.9,60.5 2.9,59.8 L2.9,59.8 C2.9,59.1 3.5,58.5 4.2,58.5 C4.9,58.5 5.5,59.1 5.5,59.8 L5.5,59.8 Z M5.5,52.6 C5.5,53.3 4.9,53.9 4.2,53.9 C3.5,53.9 2.9,53.3 2.9,52.6 L2.9,52.6 C2.9,51.9 3.5,51.3 4.2,51.3 C4.9,51.3 5.5,51.9 5.5,52.6 L5.5,52.6 Z M5.5,45.4 C5.5,46.1 4.9,46.7 4.2,46.7 C3.5,46.7 2.9,46.1 2.9,45.4 L2.9,45.4 C2.9,44.7 3.5,44.1 4.2,44.1 C4.9,44.1 5.5,44.7 5.5,45.4 L5.5,45.4 Z M5.5,38.2 C5.5,38.9 4.9,39.5 4.2,39.5 C3.5,39.5 2.9,38.9 2.9,38.2 L2.9,38.2 C2.9,37.5 3.5,36.9 4.2,36.9 C4.9,36.9 5.5,37.5 5.5,38.2 L5.5,38.2 Z M5.5,31 C5.5,31.7 4.9,32.3 4.2,32.3 C3.5,32.3 2.9,31.7 2.9,31 L2.9,31 C2.9,30.3 3.5,29.7 4.2,29.7 C4.9,29.7 5.5,30.3 5.5,31 L5.5,31 Z M5.5,23.8 C5.5,24.5 4.9,25.1 4.2,25.1 C3.5,25.1 2.9,24.5 2.9,23.8 L2.9,23.8 C2.9,23.1 3.5,22.5 4.2,22.5 C4.9,22.5 5.5,23.1 5.5,23.8 L5.5,23.8 Z M5.5,16.6 C5.5,17.3 4.9,17.9 4.2,17.9 C3.5,17.9 2.9,17.3 2.9,16.6 L2.9,16.6 C2.9,15.9 3.5,15.3 4.2,15.3 C4.9,15.3 5.5,15.9 5.5,16.6 L5.5,16.6 Z" id="Shape" fill="#0F7391" fill-rule="nonzero"></path>
                <rect id="Rectangle" fill="#FFFFFF" fill-rule="nonzero" x="40.3" y="92.8" width="10.7" height="6.1"></rect>
                <text id="TX1" fill="#FFFFFF" transform="translate(42.793000, 117.019900) rotate(90.000000) translate(-42.793000, -117.019900) " font-family="Helvetica" font-size="2.6726" font-weight="normal">
                    <tspan x="40.293" y="118.0199">TX1</tspan>
                </text>
                <text id="RX0" fill="#FFFFFF" transform="translate(42.793000, 110.320700) rotate(90.000000) translate(-42.793000, -110.320700) " font-family="Helvetica" font-size="2.6726" font-weight="normal">
                    <tspan x="39.793" y="111.3207">RX0</tspan>
                </text>
                <text id="RST" fill="#FFFFFF" transform="translate(42.793000, 103.191800) rotate(90.000000) translate(-42.793000, -103.191800) " font-family="Helvetica" font-size="2.6726" font-weight="normal">
                    <tspan x="39.793" y="104.1918">RST</tspan>
                </text>
                <text id="GND" fill="#1A1A1A" transform="translate(42.793000, 95.992600) rotate(90.000000) translate(-42.793000, -95.992600) " font-family="Helvetica" font-size="2.6726" font-weight="normal">
                    <tspan x="39.793" y="96.9926">GND</tspan>
                </text>
                <text id="D2" fill="#FFFFFF" transform="translate(42.793000, 88.656600) rotate(90.000000) translate(-42.793000, -88.656600) " font-family="Helvetica" font-size="2.6726" font-weight="normal">
                    <tspan x="40.793" y="89.6566">D2</tspan>
                </text>
                <text id="D3" fill="#FFFFFF" transform="translate(42.793000, 81.600000) rotate(90.000000) translate(-42.793000, -81.600000) " font-family="Helvetica" font-size="2.6726" font-weight="normal">
                    <tspan x="40.793" y="82.6">D3</tspan>
                </text>
                <text id="D4" fill="#FFFFFF" transform="translate(42.793000, 74.328500) rotate(90.000000) translate(-42.793000, -74.328500) " font-family="Helvetica" font-size="2.6726" font-weight="normal">
                    <tspan x="40.793" y="75.3285">D4</tspan>
                </text>
                <text id="D5" fill="#FFFFFF" transform="translate(42.793000, 67.271900) rotate(90.000000) translate(-42.793000, -67.271900) " font-family="Helvetica" font-size="2.6726" font-weight="normal">
                    <tspan x="40.793" y="68.2719">D5</tspan>
                </text>
                <text id="D6" fill="#FFFFFF" transform="translate(42.793000, 59.928100) rotate(90.000000) translate(-42.793000, -59.928100) " font-family="Helvetica" font-size="2.6726" font-weight="normal">
                    <tspan x="40.793" y="60.9281">D6</tspan>
                </text>
                <text id="D7" fill="#FFFFFF" transform="translate(42.793000, 52.656600) rotate(90.000000) translate(-42.793000, -52.656600) " font-family="Helvetica" font-size="2.6726" font-weight="normal">
                    <tspan x="40.793" y="53.6566">D7</tspan>
                </text>
                <text id="D8" fill="#FFFFFF" transform="translate(42.793000, 45.600100) rotate(90.000000) translate(-42.793000, -45.600100) " font-family="Helvetica" font-size="2.6726" font-weight="normal">
                    <tspan x="40.793" y="46.6001">D8</tspan>
                </text>
                <text id="D9" fill="#FFFFFF" transform="translate(42.793000, 38.328500) rotate(90.000000) translate(-42.793000, -38.328500) " font-family="Helvetica" font-size="2.6726" font-weight="normal">
                    <tspan x="40.793" y="39.3285">D9</tspan>
                </text>
                <text id="D10" fill="#FFFFFF" transform="translate(42.793000, 30.475100) rotate(90.000000) translate(-42.793000, -30.475100) " font-family="Helvetica" font-size="2.6726" font-weight="normal">
                    <tspan x="40.293" y="31.4751">D10</tspan>
                </text>
                <text id="D11" fill="#FFFFFF" transform="translate(42.793000, 23.348000) rotate(90.000000) translate(-42.793000, -23.348000) " font-family="Helvetica" font-size="2.6726" font-weight="normal">
                    <tspan x="40.293" y="24.348">D11</tspan>
                </text>
                <text id="D12" fill="#FFFFFF" transform="translate(42.793000, 17.147000) rotate(90.000000) translate(-42.793000, -17.147000) " font-family="Helvetica" font-size="2.6726" font-weight="normal">
                    <tspan x="40.293" y="18.147">D12</tspan>
                </text>
                <text id="D13" fill="#FFFFFF" transform="translate(8.521500, 17.147000) rotate(90.000000) translate(-8.521500, -17.147000) " font-family="Helvetica" font-size="2.6726" font-weight="normal">
                    <tspan x="6.0215" y="18.147">D13</tspan>
                </text>
                <text id="3V3" fill="#FFFFFF" transform="translate(8.521500, 23.420400) rotate(90.000000) translate(-8.521500, -23.420400) " font-family="Helvetica" font-size="2.6726" font-weight="normal">
                    <tspan x="6.0215" y="24.4204">3V3</tspan>
                </text>
                <text id="REF" fill="#FFFFFF" transform="translate(8.521500, 31.047300) rotate(90.000000) translate(-8.521500, -31.047300) " font-family="Helvetica" font-size="2.6726" font-weight="normal">
                    <tspan x="5.5215" y="32.0473">REF</tspan>
                </text>
                <text id="A0" fill="#FFFFFF" transform="translate(8.521500, 38.256200) rotate(90.000000) translate(-8.521500, -38.256200) " font-family="Helvetica" font-size="2.6726" font-weight="normal">
                    <tspan x="6.5215" y="39.2562">A0</tspan>
                </text>
                <text id="A1" fill="#FFFFFF" transform="translate(8.521500, 45.527700) rotate(90.000000) translate(-8.521500, -45.527700) " font-family="Helvetica" font-size="2.6726" font-weight="normal">
                    <tspan x="6.5215" y="46.5277">A1</tspan>
                </text>
                <text id="A2" fill="#FFFFFF" transform="translate(8.521500, 52.656600) rotate(90.000000) translate(-8.521500, -52.656600) " font-family="Helvetica" font-size="2.6726" font-weight="normal">
                    <tspan x="6.5215" y="53.6566">A2</tspan>
                </text>
                <text id="A3" fill="#FFFFFF" transform="translate(8.521500, 59.855800) rotate(90.000000) translate(-8.521500, -59.855800) " font-family="Helvetica" font-size="2.6726" font-weight="normal">
                    <tspan x="6.5215" y="60.8558">A3</tspan>
                </text>
                <text id="A4" fill="#FFFFFF" transform="translate(8.521500, 66.984700) rotate(90.000000) translate(-8.521500, -66.984700) " font-family="Helvetica" font-size="2.6726" font-weight="normal">
                    <tspan x="6.5215" y="67.9847">A4</tspan>
                </text>
                <text id="A5" fill="#FFFFFF" transform="translate(8.521500, 74.256200) rotate(90.000000) translate(-8.521500, -74.256200) " font-family="Helvetica" font-size="2.6726" font-weight="normal">
                    <tspan x="6.5215" y="75.2562">A5</tspan>
                </text>
                <text id="A6" fill="#FFFFFF" transform="translate(8.521500, 81.455500) rotate(90.000000) translate(-8.521500, -81.455500) " font-family="Helvetica" font-size="2.6726" font-weight="normal">
                    <tspan x="6.5215" y="82.4555">A6</tspan>
                </text>
                <text id="A7" fill="#FFFFFF" transform="translate(8.521500, 88.584400) rotate(90.000000) translate(-8.521500, -88.584400) " font-family="Helvetica" font-size="2.6726" font-weight="normal">
                    <tspan x="6.5215" y="89.5844">A7</tspan>
                </text>
                <text id="Vusb" fill="#FFFFFF" transform="translate(8.521500, 96.783600) rotate(90.000000) translate(-8.521500, -96.783600) " font-family="Helvetica" font-size="2.6726" font-weight="normal">
                    <tspan x="5.5215" y="97.7836">Vusb</tspan>
                </text>
                <text id="RST" fill="#FFFFFF" transform="translate(8.521500, 103.984700) rotate(90.000000) translate(-8.521500, -103.984700) " font-family="Helvetica" font-size="2.6726" font-weight="normal">
                    <tspan x="5.5215" y="104.9847">RST</tspan>
                </text>
                <rect id="Rectangle" fill="#FFFFFF" fill-rule="nonzero" x="0.6" y="107.3" width="10.7" height="6.1"></rect>
                <text id="GND" fill="#1A1A1A" transform="translate(8.521500, 110.400800) rotate(90.000000) translate(-8.521500, -110.400800) " font-family="Helvetica" font-size="2.6726" font-weight="normal">
                    <tspan x="5.5215" y="111.4008">GND</tspan>
                </text>
                <text id="VIN" fill="#FFFFFF" transform="translate(8.521500, 118.027700) rotate(90.000000) translate(-8.521500, -118.027700) " font-family="Helvetica" font-size="2.6726" font-weight="normal">
                    <tspan x="6.0215" y="119.0277">VIN</tspan>
                </text>
                <text id="RST" fill="#FFFFFF" font-family="Helvetica" font-size="2.6726" font-weight="normal">
                    <tspan x="23.0244" y="44.9505">RST</tspan>
                </text>
                <text id="*" fill="#FFFFFF" transform="translate(44.453100, 36.035500) rotate(90.000000) translate(-44.453100, -36.035500) " font-family="Helvetica" font-size="1.6704" font-weight="normal">
                    <tspan x="43.9531" y="36.5355">*</tspan>
                </text>
                <text id="*" fill="#FFFFFF" transform="translate(44.453100, 28.764000) rotate(90.000000) translate(-44.453100, -28.764000) " font-family="Helvetica" font-size="1.6704" font-weight="normal">
                    <tspan x="43.9531" y="29.264">*</tspan>
                </text>
                <text id="*" fill="#FFFFFF" transform="translate(44.453100, 21.635100) rotate(90.000000) translate(-44.453100, -21.635100) " font-family="Helvetica" font-size="1.6704" font-weight="normal">
                    <tspan x="43.9531" y="22.1351">*</tspan>
                </text>
                <text id="*" fill="#FFFFFF" transform="translate(44.453100, 57.635100) rotate(90.000000) translate(-44.453100, -57.635100) " font-family="Helvetica" font-size="1.6704" font-weight="normal">
                    <tspan x="43.9531" y="58.1351">*</tspan>
                </text>
                <text id="*" fill="#FFFFFF" transform="translate(44.453100, 64.908600) rotate(90.000000) translate(-44.453100, -64.908600) " font-family="Helvetica" font-size="1.6704" font-weight="normal">
                    <tspan x="43.9531" y="65.4086">*</tspan>
                </text>
                <text id="*" fill="#FFFFFF" transform="translate(44.453100, 79.236700) rotate(90.000000) translate(-44.453100, -79.236700) " font-family="Helvetica" font-size="1.6704" font-weight="normal">
                    <tspan x="43.9531" y="79.7367">*</tspan>
                </text>
                <circle id="connector16pin" stroke="#9A916C" stroke-width="1.224" cx="47.4" cy="117.4" r="1.9"></circle>
                <rect id="Rectangle" stroke="#9A916C" stroke-width="1.224" x="45.5" y="115.5" width="3.8" height="3.8"></rect>
                <circle id="connector17pin" stroke="#9A916C" stroke-width="1.224" cx="47.4" cy="110.2" r="1.9"></circle>
                <circle id="connector18pin" stroke="#9A916C" stroke-width="1.224" cx="47.4" cy="103" r="1.9"></circle>
                <circle id="connector19pin" stroke="#9A916C" stroke-width="1.224" cx="47.4" cy="95.8" r="1.9"></circle>
                <circle id="connector20pin" stroke="#9A916C" stroke-width="1.224" cx="47.4" cy="88.6" r="1.9"></circle>
                <circle id="connector21pin" stroke="#9A916C" stroke-width="1.224" cx="47.4" cy="81.4" r="1.9"></circle>
                <circle id="connector22pin" stroke="#9A916C" stroke-width="1.224" cx="47.4" cy="74.2" r="1.9"></circle>
                <circle id="connector23pin" stroke="#9A916C" stroke-width="1.224" cx="47.4" cy="67" r="1.9"></circle>
                <circle id="connector24pin" stroke="#9A916C" stroke-width="1.224" cx="47.4" cy="59.8" r="1.9"></circle>
                <circle id="connector25pin" stroke="#9A916C" stroke-width="1.224" cx="47.4" cy="52.6" r="1.9"></circle>
                <circle id="connector26pin" stroke="#9A916C" stroke-width="1.224" cx="47.4" cy="45.4" r="1.9"></circle>
                <circle id="connector27pin" stroke="#9A916C" stroke-width="1.224" cx="47.4" cy="38.2" r="1.9"></circle>
                <circle id="connector28pin" stroke="#9A916C" stroke-width="1.224" cx="47.4" cy="31" r="1.9"></circle>
                <circle id="connector29pin" stroke="#9A916C" stroke-width="1.224" cx="47.4" cy="23.8" r="1.9"></circle>
                <circle id="connector30pin" stroke="#9A916C" stroke-width="1.224" cx="47.4" cy="16.6" r="1.9"></circle>
                <circle id="connector31pin" stroke="#9A916C" stroke-width="1.224" cx="4.2" cy="117.4" r="1.9"></circle>
                <circle id="connector32pin" stroke="#9A916C" stroke-width="1.224" cx="4.2" cy="110.2" r="1.9"></circle>
                <circle id="connector33pin" stroke="#9A916C" stroke-width="1.224" cx="4.2" cy="103" r="1.9"></circle>
                <circle id="connector34pin" stroke="#9A916C" stroke-width="1.224" cx="4.2" cy="95.8" r="1.9"></circle>
                <circle id="connector35pin" stroke="#9A916C" stroke-width="1.224" cx="4.2" cy="88.6" r="1.9"></circle>
                <circle id="connector36pin" stroke="#9A916C" stroke-width="1.224" cx="4.2" cy="81.4" r="1.9"></circle>
                <circle id="connector37pin" stroke="#9A916C" stroke-width="1.224" cx="4.2" cy="74.2" r="1.9"></circle>
                <circle id="connector38pin" stroke="#9A916C" stroke-width="1.224" cx="4.2" cy="67" r="1.9"></circle>
                <circle id="connector39pin" stroke="#9A916C" stroke-width="1.224" cx="4.2" cy="59.8" r="1.9"></circle>
                <circle id="connector40pin" stroke="#9A916C" stroke-width="1.224" cx="4.2" cy="52.6" r="1.9"></circle>
                <circle id="connector41pin" stroke="#9A916C" stroke-width="1.224" cx="4.2" cy="45.4" r="1.9"></circle>
                <circle id="connector42pin" stroke="#9A916C" stroke-width="1.224" cx="4.2" cy="38.2" r="1.9"></circle>
                <circle id="connector43pin" stroke="#9A916C" stroke-width="1.224" cx="4.2" cy="31" r="1.9"></circle>
                <circle id="connector44pin" stroke="#9A916C" stroke-width="1.224" cx="4.2" cy="23.8" r="1.9"></circle>
                <circle id="connector45pin" stroke="#9A916C" stroke-width="1.224" cx="4.2" cy="16.6" r="1.9"></circle>
                <polygon id="Path" fill="#CCCCCC" fill-rule="nonzero" points="23.3 41.8 23.3 41.7 27.7 41.7 27.7 41.8 31 41.8 31 35.5 20 35.5 20 41.8"></polygon>
                <polygon id="Path" fill="#CCCCCC" fill-rule="nonzero" points="27.7 34.5 27.7 34.7 23.3 34.7 23.3 34.5 20 34.5 20 40.8 31 40.8 31 34.5"></polygon>
                <circle id="Oval" fill="#000000" fill-rule="nonzero" cx="25.5" cy="38.2" r="2.3"></circle>
                <path d="M27.8,38.1 C27.8,36.8 26.8,35.8 25.5,35.8 C24.2,35.8 23.2,36.8 23.2,38.1 L23.2,38.2 C23.2,36.9 24.2,35.9 25.5,35.9 C26.8,35.9 27.8,36.9 27.8,38.1 L27.8,38.1 Z" id="Path" fill="#000000" fill-rule="nonzero" opacity="0.2"></path>
                <circle id="Oval" fill="#1A1A1A" fill-rule="nonzero" cx="25.5" cy="38.2" r="2.2"></circle>
                <circle id="Oval" fill="#333333" fill-rule="nonzero" cx="25.5" cy="38.2" r="2.2"></circle>
                <path d="M27.7,38.1 C27.7,36.9 26.7,35.9 25.5,35.9 C24.3,35.9 23.3,36.9 23.3,38.1 L23.3,38.2 C23.3,37 24.3,36 25.5,36 C26.7,36 27.7,37 27.7,38.1 L27.7,38.1 Z" id="Path" fill="#000000" fill-rule="nonzero" opacity="0.2"></path>
                <path d="M23.3,38.1 C23.3,39.3 24.3,40.3 25.5,40.3 C26.7,40.3 27.7,39.3 27.7,38.1 L27.7,38.2 C27.7,39.4 26.7,40.4 25.5,40.4 C24.3,40.4 23.3,39.4 23.3,38.1 L23.3,38.1 Z" id="Path" fill="#FFFFFF" fill-rule="nonzero" opacity="0.2"></path>
                <rect id="Rectangle" fill="#FFFFFF" fill-rule="nonzero" opacity="0.2" x="20" y="41.7" width="3.3" height="1"></rect>
                <rect id="Rectangle" fill="#FFFFFF" fill-rule="nonzero" opacity="0.2" x="27.7" y="41.7" width="3.3" height="1"></rect>
                <rect id="Rectangle" fill="#FFFFFF" fill-rule="nonzero" opacity="0.2" x="23.3" y="41.5" width="4.4" height="1"></rect>
                <rect id="Rectangle" fill="#000000" fill-rule="nonzero" opacity="0.2" x="20" y="34.5" width="3.3" height="1"></rect>
                <rect id="Rectangle" fill="#000000" fill-rule="nonzero" opacity="0.2" x="27.7" y="34.5" width="3.3" height="1"></rect>
                <rect id="Rectangle" fill="#000000" fill-rule="nonzero" opacity="0.2" x="23.3" y="34.7" width="4.4" height="1"></rect>
                <path d="M33.5,94.2 L33.5,86.9" id="Path"></path>
                <path d="M41.1,94.2 L41.1,86.9" id="Path"></path>
                <rect id="Rectangle" fill="#1A1A1A" fill-rule="nonzero" x="16.2" y="57.3" width="21.3" height="20.7"></rect>
                <circle id="Oval" fill="#E6E6E6" fill-rule="nonzero" cx="47.4" cy="16.6" r="1.9"></circle>
                <path d="M45.5,16.2 C45.5,17.2 46.3,18.1 47.4,18.1 C48.4,18.1 49.3,17.3 49.3,16.2 L49.3,16.5 C49.3,17.5 48.5,18.4 47.4,18.4 C46.4,18.4 45.5,17.6 45.5,16.5 L45.5,16.2 Z" id="Path" fill="#FFFFFF" fill-rule="nonzero" opacity="0.2"></path>
                <path d="M49.3,16.9 C49.3,15.9 48.5,15 47.4,15 C46.4,15 45.5,15.8 45.5,16.9 L45.5,16.6 C45.5,15.6 46.3,14.7 47.4,14.7 C48.4,14.7 49.3,15.5 49.3,16.6 L49.3,16.9 Z" id="Path" fill="#1A1A1A" fill-rule="nonzero" opacity="0.1"></path>
                <rect id="Rectangle" fill="#CCCCCC" fill-rule="nonzero" x="46.6" y="15.8" width="1.6" height="1.6"></rect>
                <rect id="Rectangle" fill="#FFFFFF" fill-rule="nonzero" opacity="0.2" x="46.6" y="17.2" width="1.6" height="1"></rect>
                <rect id="Rectangle" fill="#000000" fill-rule="nonzero" opacity="0.1" x="46.6" y="15.8" width="1.6" height="1"></rect>
                <circle id="Oval" fill="#E6E6E6" fill-rule="nonzero" cx="47.4" cy="23.8" r="1.9"></circle>
                <path d="M45.5,23.4 C45.5,24.4 46.3,25.3 47.4,25.3 C48.4,25.3 49.3,24.5 49.3,23.4 L49.3,23.7 C49.3,24.7 48.5,25.6 47.4,25.6 C46.4,25.6 45.5,24.8 45.5,23.7 L45.5,23.4 Z" id="Path" fill="#FFFFFF" fill-rule="nonzero" opacity="0.2"></path>
                <path d="M49.3,24.1 C49.3,23.1 48.5,22.2 47.4,22.2 C46.4,22.2 45.5,23 45.5,24.1 L45.5,23.8 C45.5,22.8 46.3,21.9 47.4,21.9 C48.4,21.9 49.3,22.7 49.3,23.8 L49.3,24.1 Z" id="Path" fill="#1A1A1A" fill-rule="nonzero" opacity="0.1"></path>
                <rect id="Rectangle" fill="#CCCCCC" fill-rule="nonzero" x="46.6" y="23" width="1.6" height="1.6"></rect>
                <rect id="Rectangle" fill="#FFFFFF" fill-rule="nonzero" opacity="0.2" x="46.6" y="24.4" width="1.6" height="1"></rect>
                <rect id="Rectangle" fill="#000000" fill-rule="nonzero" opacity="0.1" x="46.6" y="23" width="1.6" height="1"></rect>
                <circle id="Oval" fill="#E6E6E6" fill-rule="nonzero" cx="47.4" cy="31" r="1.9"></circle>
                <path d="M45.5,30.6 C45.5,31.6 46.3,32.5 47.4,32.5 C48.4,32.5 49.3,31.7 49.3,30.6 L49.3,30.9 C49.3,31.9 48.5,32.8 47.4,32.8 C46.4,32.8 45.5,32 45.5,30.9 C45.5,31 45.5,30.6 45.5,30.6 Z" id="Path" fill="#FFFFFF" fill-rule="nonzero" opacity="0.2"></path>
                <path d="M49.3,31.3 C49.3,30.3 48.5,29.4 47.4,29.4 C46.4,29.4 45.5,30.2 45.5,31.3 L45.5,31 C45.5,30 46.3,29.1 47.4,29.1 C48.4,29.1 49.3,29.9 49.3,31 L49.3,31.3 Z" id="Path" fill="#1A1A1A" fill-rule="nonzero" opacity="0.1"></path>
                <rect id="Rectangle" fill="#CCCCCC" fill-rule="nonzero" x="46.6" y="30.2" width="1.6" height="1.6"></rect>
                <rect id="Rectangle" fill="#FFFFFF" fill-rule="nonzero" opacity="0.2" x="46.6" y="31.6" width="1.6" height="1"></rect>
                <rect id="Rectangle" fill="#000000" fill-rule="nonzero" opacity="0.1" x="46.6" y="30.2" width="1.6" height="1"></rect>
                <circle id="Oval" fill="#E6E6E6" fill-rule="nonzero" cx="47.4" cy="38.2" r="1.9"></circle>
                <path d="M45.5,37.8 C45.5,38.8 46.3,39.7 47.4,39.7 C48.4,39.7 49.3,38.9 49.3,37.8 L49.3,38.2 C49.3,39.2 48.5,40.1 47.4,40.1 C46.4,40.1 45.5,39.3 45.5,38.2 L45.5,37.8 Z" id="Path" fill="#FFFFFF" fill-rule="nonzero" opacity="0.2"></path>
                <path d="M49.3,38.5 C49.3,37.5 48.5,36.6 47.4,36.6 C46.4,36.6 45.5,37.4 45.5,38.5 L45.5,38.2 C45.5,37.2 46.3,36.3 47.4,36.3 C48.4,36.3 49.3,37.1 49.3,38.2 L49.3,38.5 Z" id="Path" fill="#1A1A1A" fill-rule="nonzero" opacity="0.1"></path>
                <rect id="Rectangle" fill="#CCCCCC" fill-rule="nonzero" x="46.6" y="37.4" width="1.6" height="1.6"></rect>
                <rect id="Rectangle" fill="#FFFFFF" fill-rule="nonzero" opacity="0.2" x="46.6" y="38.8" width="1.6" height="1"></rect>
                <rect id="Rectangle" fill="#000000" fill-rule="nonzero" opacity="0.1" x="46.6" y="37.4" width="1.6" height="1"></rect>
                <circle id="Oval" fill="#E6E6E6" fill-rule="nonzero" cx="47.4" cy="45.4" r="1.9"></circle>
                <path d="M45.5,45 C45.5,46 46.3,46.9 47.4,46.9 C48.4,46.9 49.3,46.1 49.3,45 L49.3,45.3 C49.3,46.3 48.5,47.2 47.4,47.2 C46.4,47.2 45.5,46.4 45.5,45.3 L45.5,45 Z" id="Path" fill="#FFFFFF" fill-rule="nonzero" opacity="0.2"></path>
                <path d="M49.3,45.7 C49.3,44.7 48.5,43.8 47.4,43.8 C46.4,43.8 45.5,44.6 45.5,45.7 L45.5,45.4 C45.5,44.4 46.3,43.5 47.4,43.5 C48.4,43.5 49.3,44.3 49.3,45.4 L49.3,45.7 Z" id="Path" fill="#1A1A1A" fill-rule="nonzero" opacity="0.1"></path>
                <rect id="Rectangle" fill="#CCCCCC" fill-rule="nonzero" x="46.6" y="44.6" width="1.6" height="1.6"></rect>
                <rect id="Rectangle" fill="#FFFFFF" fill-rule="nonzero" opacity="0.2" x="46.6" y="46" width="1.6" height="1"></rect>
                <rect id="Rectangle" fill="#000000" fill-rule="nonzero" opacity="0.1" x="46.6" y="44.6" width="1.6" height="1"></rect>
                <circle id="Oval" fill="#E6E6E6" fill-rule="nonzero" cx="47.4" cy="52.6" r="1.9"></circle>
                <path d="M45.5,52.2 C45.5,53.2 46.3,54.1 47.4,54.1 C48.4,54.1 49.3,53.3 49.3,52.2 L49.3,52.5 C49.3,53.5 48.5,54.4 47.4,54.4 C46.4,54.4 45.5,53.6 45.5,52.5 L45.5,52.2 Z" id="Path" fill="#FFFFFF" fill-rule="nonzero" opacity="0.2"></path>
                <path d="M49.3,52.9 C49.3,51.9 48.5,51 47.4,51 C46.4,51 45.5,51.8 45.5,52.9 L45.5,52.6 C45.5,51.6 46.3,50.7 47.4,50.7 C48.4,50.7 49.3,51.5 49.3,52.6 L49.3,52.9 Z" id="Path" fill="#1A1A1A" fill-rule="nonzero" opacity="0.1"></path>
                <rect id="Rectangle" fill="#CCCCCC" fill-rule="nonzero" x="46.6" y="51.8" width="1.6" height="1.6"></rect>
                <rect id="Rectangle" fill="#FFFFFF" fill-rule="nonzero" opacity="0.2" x="46.6" y="53.2" width="1.6" height="1"></rect>
                <rect id="Rectangle" fill="#000000" fill-rule="nonzero" opacity="0.1" x="46.6" y="51.8" width="1.6" height="1"></rect>
                <circle id="Oval" fill="#E6E6E6" fill-rule="nonzero" cx="47.4" cy="59.8" r="1.9"></circle>
                <path d="M45.5,59.4 C45.5,60.4 46.3,61.3 47.4,61.3 C48.4,61.3 49.3,60.5 49.3,59.4 L49.3,59.7 C49.3,60.7 48.5,61.6 47.4,61.6 C46.4,61.6 45.5,60.8 45.5,59.7 L45.5,59.4 Z" id="Path" fill="#FFFFFF" fill-rule="nonzero" opacity="0.2"></path>
                <path d="M49.3,60.1 C49.3,59.1 48.5,58.2 47.4,58.2 C46.4,58.2 45.5,59 45.5,60.1 L45.5,59.8 C45.5,58.8 46.3,57.9 47.4,57.9 C48.4,57.9 49.3,58.7 49.3,59.8 L49.3,60.1 Z" id="Path" fill="#1A1A1A" fill-rule="nonzero" opacity="0.1"></path>
                <rect id="Rectangle" fill="#CCCCCC" fill-rule="nonzero" x="46.6" y="59" width="1.6" height="1.6"></rect>
                <rect id="Rectangle" fill="#FFFFFF" fill-rule="nonzero" opacity="0.2" x="46.6" y="60.4" width="1.6" height="1"></rect>
                <rect id="Rectangle" fill="#000000" fill-rule="nonzero" opacity="0.1" x="46.6" y="59" width="1.6" height="1"></rect>
                <circle id="Oval" fill="#E6E6E6" fill-rule="nonzero" cx="47.4" cy="67" r="1.9"></circle>
                <path d="M45.5,66.6 C45.5,67.6 46.3,68.5 47.4,68.5 C48.4,68.5 49.3,67.7 49.3,66.6 L49.3,66.9 C49.3,67.9 48.5,68.8 47.4,68.8 C46.4,68.8 45.5,68 45.5,66.9 C45.5,67 45.5,66.6 45.5,66.6 Z" id="Path" fill="#FFFFFF" fill-rule="nonzero" opacity="0.2"></path>
                <path d="M49.3,67.3 C49.3,66.3 48.5,65.4 47.4,65.4 C46.4,65.4 45.5,66.2 45.5,67.3 L45.5,67 C45.5,66 46.3,65.1 47.4,65.1 C48.4,65.1 49.3,65.9 49.3,67 L49.3,67.3 Z" id="Path" fill="#1A1A1A" fill-rule="nonzero" opacity="0.1"></path>
                <rect id="Rectangle" fill="#CCCCCC" fill-rule="nonzero" x="46.6" y="66.2" width="1.6" height="1.6"></rect>
                <rect id="Rectangle" fill="#FFFFFF" fill-rule="nonzero" opacity="0.2" x="46.6" y="67.6" width="1.6" height="1"></rect>
                <rect id="Rectangle" fill="#000000" fill-rule="nonzero" opacity="0.1" x="46.6" y="66.2" width="1.6" height="1"></rect>
                <circle id="Oval" fill="#E6E6E6" fill-rule="nonzero" cx="47.4" cy="74.2" r="1.9"></circle>
                <path d="M45.5,73.8 C45.5,74.8 46.3,75.7 47.4,75.7 C48.4,75.7 49.3,74.9 49.3,73.8 L49.3,74.2 C49.3,75.2 48.5,76.1 47.4,76.1 C46.4,76.1 45.5,75.3 45.5,74.2 L45.5,73.8 Z" id="Path" fill="#FFFFFF" fill-rule="nonzero" opacity="0.2"></path>
                <path d="M49.3,74.5 C49.3,73.5 48.5,72.6 47.4,72.6 C46.4,72.6 45.5,73.4 45.5,74.5 L45.5,74.2 C45.5,73.2 46.3,72.3 47.4,72.3 C48.4,72.3 49.3,73.1 49.3,74.2 L49.3,74.5 Z" id="Path" fill="#1A1A1A" fill-rule="nonzero" opacity="0.1"></path>
                <rect id="Rectangle" fill="#CCCCCC" fill-rule="nonzero" x="46.6" y="73.4" width="1.6" height="1.6"></rect>
                <rect id="Rectangle" fill="#FFFFFF" fill-rule="nonzero" opacity="0.2" x="46.6" y="74.8" width="1.6" height="1"></rect>
                <rect id="Rectangle" fill="#000000" fill-rule="nonzero" opacity="0.1" x="46.6" y="73.4" width="1.6" height="1"></rect>
                <circle id="Oval" fill="#E6E6E6" fill-rule="nonzero" cx="47.4" cy="81.4" r="1.9"></circle>
                <path d="M45.5,81 C45.5,82 46.3,82.9 47.4,82.9 C48.4,82.9 49.3,82.1 49.3,81 L49.3,81.3 C49.3,82.3 48.5,83.2 47.4,83.2 C46.4,83.2 45.5,82.4 45.5,81.3 C45.5,81.4 45.5,81 45.5,81 Z" id="Path" fill="#FFFFFF" fill-rule="nonzero" opacity="0.2"></path>
                <path d="M49.3,81.7 C49.3,80.7 48.5,79.8 47.4,79.8 C46.4,79.8 45.5,80.6 45.5,81.7 L45.5,81.4 C45.5,80.4 46.3,79.5 47.4,79.5 C48.4,79.5 49.3,80.3 49.3,81.4 L49.3,81.7 Z" id="Path" fill="#1A1A1A" fill-rule="nonzero" opacity="0.1"></path>
                <rect id="Rectangle" fill="#CCCCCC" fill-rule="nonzero" x="46.6" y="80.6" width="1.6" height="1.6"></rect>
                <rect id="Rectangle" fill="#FFFFFF" fill-rule="nonzero" opacity="0.2" x="46.6" y="82" width="1.6" height="1"></rect>
                <rect id="Rectangle" fill="#000000" fill-rule="nonzero" opacity="0.1" x="46.6" y="80.6" width="1.6" height="1"></rect>
                <circle id="Oval" fill="#E6E6E6" fill-rule="nonzero" cx="47.4" cy="88.6" r="1.9"></circle>
                <path d="M45.5,88.2 C45.5,89.2 46.3,90.1 47.4,90.1 C48.4,90.1 49.3,89.3 49.3,88.2 L49.3,88.5 C49.3,89.5 48.5,90.4 47.4,90.4 C46.4,90.4 45.5,89.6 45.5,88.5 L45.5,88.2 Z" id="Path" fill="#FFFFFF" fill-rule="nonzero" opacity="0.2"></path>
                <path d="M49.3,88.9 C49.3,87.9 48.5,87 47.4,87 C46.4,87 45.5,87.8 45.5,88.9 L45.5,88.6 C45.5,87.6 46.3,86.7 47.4,86.7 C48.4,86.7 49.3,87.5 49.3,88.6 L49.3,88.9 Z" id="Path" fill="#1A1A1A" fill-rule="nonzero" opacity="0.1"></path>
                <rect id="Rectangle" fill="#CCCCCC" fill-rule="nonzero" x="46.6" y="87.8" width="1.6" height="1.6"></rect>
                <rect id="Rectangle" fill="#FFFFFF" fill-rule="nonzero" opacity="0.2" x="46.6" y="89.2" width="1.6" height="1"></rect>
                <rect id="Rectangle" fill="#000000" fill-rule="nonzero" opacity="0.1" x="46.6" y="87.8" width="1.6" height="1"></rect>
                <circle id="Oval" fill="#E6E6E6" fill-rule="nonzero" cx="47.4" cy="95.8" r="1.9"></circle>
                <path d="M45.5,95.4 C45.5,96.4 46.3,97.3 47.4,97.3 C48.4,97.3 49.3,96.5 49.3,95.4 L49.3,95.7 C49.3,96.7 48.5,97.6 47.4,97.6 C46.4,97.6 45.5,96.8 45.5,95.7 C45.5,95.8 45.5,95.4 45.5,95.4 Z" id="Path" fill="#FFFFFF" fill-rule="nonzero" opacity="0.2"></path>
                <path d="M49.3,96.1 C49.3,95.1 48.5,94.2 47.4,94.2 C46.4,94.2 45.5,95 45.5,96.1 L45.5,95.8 C45.5,94.8 46.3,93.9 47.4,93.9 C48.4,93.9 49.3,94.7 49.3,95.8 L49.3,96.1 Z" id="Path" fill="#1A1A1A" fill-rule="nonzero" opacity="0.1"></path>
                <rect id="Rectangle" fill="#CCCCCC" fill-rule="nonzero" x="46.6" y="95" width="1.6" height="1.6"></rect>
                <rect id="Rectangle" fill="#FFFFFF" fill-rule="nonzero" opacity="0.2" x="46.6" y="96.4" width="1.6" height="1"></rect>
                <rect id="Rectangle" fill="#000000" fill-rule="nonzero" opacity="0.1" x="46.6" y="95" width="1.6" height="1"></rect>
                <circle id="Oval" fill="#E6E6E6" fill-rule="nonzero" cx="47.4" cy="103" r="1.9"></circle>
                <path d="M45.5,102.6 C45.5,103.6 46.3,104.5 47.4,104.5 C48.4,104.5 49.3,103.7 49.3,102.6 L49.3,102.9 C49.3,103.9 48.5,104.8 47.4,104.8 C46.4,104.8 45.5,104 45.5,102.9 L45.5,102.6 Z" id="Path" fill="#FFFFFF" fill-rule="nonzero" opacity="0.2"></path>
                <path d="M49.3,103.3 C49.3,102.3 48.5,101.4 47.4,101.4 C46.4,101.4 45.5,102.2 45.5,103.3 L45.5,103 C45.5,102 46.3,101.1 47.4,101.1 C48.4,101.1 49.3,101.9 49.3,103 L49.3,103.3 Z" id="Path" fill="#1A1A1A" fill-rule="nonzero" opacity="0.1"></path>
                <rect id="Rectangle" fill="#CCCCCC" fill-rule="nonzero" x="46.6" y="102.2" width="1.6" height="1.6"></rect>
                <rect id="Rectangle" fill="#FFFFFF" fill-rule="nonzero" opacity="0.2" x="46.6" y="103.6" width="1.6" height="1"></rect>
                <rect id="Rectangle" fill="#000000" fill-rule="nonzero" opacity="0.1" x="46.6" y="102.2" width="1.6" height="1"></rect>
                <circle id="Oval" fill="#E6E6E6" fill-rule="nonzero" cx="47.4" cy="110.2" r="1.9"></circle>
                <path d="M45.5,109.8 C45.5,110.8 46.3,111.7 47.4,111.7 C48.4,111.7 49.3,110.9 49.3,109.8 L49.3,110.1 C49.3,111.1 48.5,112 47.4,112 C46.4,112 45.5,111.2 45.5,110.1 L45.5,109.8 Z" id="Path" fill="#FFFFFF" fill-rule="nonzero" opacity="0.2"></path>
                <path d="M49.3,110.5 C49.3,109.5 48.5,108.6 47.4,108.6 C46.4,108.6 45.5,109.4 45.5,110.5 L45.5,110.2 C45.5,109.2 46.3,108.3 47.4,108.3 C48.4,108.3 49.3,109.1 49.3,110.2 L49.3,110.5 Z" id="Path" fill="#1A1A1A" fill-rule="nonzero" opacity="0.1"></path>
                <rect id="Rectangle" fill="#CCCCCC" fill-rule="nonzero" x="46.6" y="109.4" width="1.6" height="1.6"></rect>
                <rect id="Rectangle" fill="#FFFFFF" fill-rule="nonzero" opacity="0.2" x="46.6" y="110.8" width="1.6" height="1"></rect>
                <rect id="Rectangle" fill="#000000" fill-rule="nonzero" opacity="0.1" x="46.6" y="109.4" width="1.6" height="1"></rect>
                <circle id="Oval" fill="#E6E6E6" fill-rule="nonzero" cx="47.4" cy="117.4" r="1.9"></circle>
                <path d="M45.5,117 C45.5,118 46.3,118.9 47.4,118.9 C48.4,118.9 49.3,118.1 49.3,117 L49.3,117.3 C49.3,118.3 48.5,119.2 47.4,119.2 C46.4,119.2 45.5,118.4 45.5,117.3 L45.5,117 Z" id="Path" fill="#FFFFFF" fill-rule="nonzero" opacity="0.2"></path>
                <path d="M49.3,117.7 C49.3,116.7 48.5,115.8 47.4,115.8 C46.4,115.8 45.5,116.6 45.5,117.7 L45.5,117.4 C45.5,116.4 46.3,115.5 47.4,115.5 C48.4,115.5 49.3,116.3 49.3,117.4 L49.3,117.7 Z" id="Path" fill="#1A1A1A" fill-rule="nonzero" opacity="0.1"></path>
                <rect id="Rectangle" fill="#CCCCCC" fill-rule="nonzero" x="46.6" y="116.6" width="1.6" height="1.6"></rect>
                <rect id="Rectangle" fill="#FFFFFF" fill-rule="nonzero" opacity="0.2" x="46.6" y="118" width="1.6" height="1"></rect>
                <rect id="Rectangle" fill="#000000" fill-rule="nonzero" opacity="0.1" x="46.6" y="116.6" width="1.6" height="1"></rect>
                <circle id="Oval" fill="#E6E6E6" fill-rule="nonzero" cx="4.1" cy="16.6" r="1.9"></circle>
                <path d="M2.3,16.3 C2.3,17.3 3.1,18.2 4.2,18.2 C5.3,18.2 6.1,17.4 6.1,16.3 L6.1,16.6 C6.1,17.6 5.3,18.5 4.2,18.5 C3.1,18.5 2.3,17.7 2.3,16.6 C2.3,16.6 2.3,16.3 2.3,16.3 Z" id="Path" fill="#FFFFFF" fill-rule="nonzero" opacity="0.2"></path>
                <path d="M6,16.9 C6,15.9 5.2,15 4.1,15 C3,15 2.2,15.8 2.2,16.9 L2.2,16.6 C2.2,15.6 3,14.7 4.1,14.7 C5.2,14.7 6,15.5 6,16.6 L6,16.9 Z" id="Path" fill="#1A1A1A" fill-rule="nonzero" opacity="0.1"></path>
                <rect id="Rectangle" fill="#CCCCCC" fill-rule="nonzero" x="3.4" y="15.8" width="1.6" height="1.6"></rect>
                <rect id="Rectangle" fill="#FFFFFF" fill-rule="nonzero" opacity="0.2" x="3.4" y="17.3" width="1.6" height="1"></rect>
                <rect id="Rectangle" fill="#000000" fill-rule="nonzero" opacity="0.1" x="3.4" y="15.8" width="1.6" height="1"></rect>
                <circle id="Oval" fill="#E6E6E6" fill-rule="nonzero" cx="4.1" cy="23.8" r="1.9"></circle>
                <path d="M2.3,23.5 C2.3,24.5 3.1,25.4 4.2,25.4 C5.3,25.4 6.1,24.6 6.1,23.5 L6.1,23.8 C6.1,24.8 5.3,25.7 4.2,25.7 C3.1,25.7 2.3,24.9 2.3,23.8 L2.3,23.5 Z" id="Path" fill="#FFFFFF" fill-rule="nonzero" opacity="0.2"></path>
                <path d="M6,24.1 C6,23.1 5.2,22.2 4.1,22.2 C3,22.2 2.2,23 2.2,24.1 L2.2,23.8 C2.2,22.8 3,21.9 4.1,21.9 C5.2,21.9 6,22.7 6,23.8 L6,24.1 Z" id="Path" fill="#1A1A1A" fill-rule="nonzero" opacity="0.1"></path>
                <rect id="Rectangle" fill="#CCCCCC" fill-rule="nonzero" x="3.4" y="23" width="1.6" height="1.6"></rect>
                <rect id="Rectangle" fill="#FFFFFF" fill-rule="nonzero" opacity="0.2" x="3.4" y="24.5" width="1.6" height="1"></rect>
                <rect id="Rectangle" fill="#000000" fill-rule="nonzero" opacity="0.1" x="3.4" y="23" width="1.6" height="1"></rect>
                <circle id="Oval" fill="#E6E6E6" fill-rule="nonzero" cx="4.1" cy="31" r="1.9"></circle>
                <path d="M2.3,30.7 C2.3,31.7 3.1,32.6 4.2,32.6 C5.3,32.6 6.1,31.8 6.1,30.7 L6.1,31 C6.1,32 5.3,32.9 4.2,32.9 C3.1,32.9 2.3,32.1 2.3,31 L2.3,30.7 Z" id="Path" fill="#FFFFFF" fill-rule="nonzero" opacity="0.2"></path>
                <path d="M6,31.3 C6,30.3 5.2,29.4 4.1,29.4 C3,29.4 2.2,30.2 2.2,31.3 L2.2,31 C2.2,30 3,29.1 4.1,29.1 C5.2,29.1 6,29.9 6,31 L6,31.3 Z" id="Path" fill="#1A1A1A" fill-rule="nonzero" opacity="0.1"></path>
                <rect id="Rectangle" fill="#CCCCCC" fill-rule="nonzero" x="3.4" y="30.2" width="1.6" height="1.6"></rect>
                <rect id="Rectangle" fill="#FFFFFF" fill-rule="nonzero" opacity="0.2" x="3.4" y="31.7" width="1.6" height="1"></rect>
                <rect id="Rectangle" fill="#000000" fill-rule="nonzero" opacity="0.1" x="3.4" y="30.2" width="1.6" height="1"></rect>
                <circle id="Oval" fill="#E6E6E6" fill-rule="nonzero" cx="4.1" cy="38.2" r="1.9"></circle>
                <path d="M2.3,37.9 C2.3,38.9 3.1,39.8 4.2,39.8 C5.3,39.8 6.1,39 6.1,37.9 L6.1,38.2 C6.1,39.2 5.3,40.1 4.2,40.1 C3.1,40.1 2.3,39.2 2.3,38.2 L2.3,37.9 Z" id="Path" fill="#FFFFFF" fill-rule="nonzero" opacity="0.2"></path>
                <path d="M6,38.5 C6,37.5 5.2,36.6 4.1,36.6 C3,36.6 2.2,37.4 2.2,38.5 L2.2,38.2 C2.2,37.2 3,36.3 4.1,36.3 C5.2,36.3 6,37.2 6,38.2 L6,38.5 Z" id="Path" fill="#1A1A1A" fill-rule="nonzero" opacity="0.1"></path>
                <rect id="Rectangle" fill="#CCCCCC" fill-rule="nonzero" x="3.4" y="37.4" width="1.6" height="1.6"></rect>
                <rect id="Rectangle" fill="#FFFFFF" fill-rule="nonzero" opacity="0.2" x="3.4" y="38.9" width="1.6" height="1"></rect>
                <rect id="Rectangle" fill="#000000" fill-rule="nonzero" opacity="0.1" x="3.4" y="37.4" width="1.6" height="1"></rect>
                <circle id="Oval" fill="#E6E6E6" fill-rule="nonzero" cx="4.1" cy="45.4" r="1.9"></circle>
                <path d="M2.3,45.1 C2.3,46.1 3.1,47 4.2,47 C5.3,47 6.1,46.2 6.1,45.1 L6.1,45.4 C6.1,46.4 5.3,47.3 4.2,47.3 C3.1,47.3 2.3,46.5 2.3,45.4 C2.3,45.4 2.3,45.1 2.3,45.1 Z" id="Path" fill="#FFFFFF" fill-rule="nonzero" opacity="0.2"></path>
                <path d="M6,45.7 C6,44.7 5.2,43.8 4.1,43.8 C3,43.8 2.2,44.6 2.2,45.7 L2.2,45.4 C2.2,44.4 3,43.5 4.1,43.5 C5.2,43.5 6,44.3 6,45.4 L6,45.7 Z" id="Path" fill="#1A1A1A" fill-rule="nonzero" opacity="0.1"></path>
                <rect id="Rectangle" fill="#CCCCCC" fill-rule="nonzero" x="3.4" y="44.6" width="1.6" height="1.6"></rect>
                <rect id="Rectangle" fill="#FFFFFF" fill-rule="nonzero" opacity="0.2" x="3.4" y="46.1" width="1.6" height="1"></rect>
                <rect id="Rectangle" fill="#000000" fill-rule="nonzero" opacity="0.1" x="3.4" y="44.6" width="1.6" height="1"></rect>
                <circle id="Oval" fill="#E6E6E6" fill-rule="nonzero" cx="4.1" cy="52.6" r="1.9"></circle>
                <path d="M2.3,52.3 C2.3,53.3 3.1,54.2 4.2,54.2 C5.3,54.2 6.1,53.4 6.1,52.3 L6.1,52.6 C6.1,53.6 5.3,54.5 4.2,54.5 C3.1,54.5 2.3,53.7 2.3,52.6 L2.3,52.3 Z" id="Path" fill="#FFFFFF" fill-rule="nonzero" opacity="0.2"></path>
                <path d="M6,52.9 C6,51.9 5.2,51 4.1,51 C3,51 2.2,51.8 2.2,52.9 L2.2,52.6 C2.2,51.6 3,50.7 4.1,50.7 C5.2,50.7 6,51.5 6,52.6 L6,52.9 Z" id="Path" fill="#1A1A1A" fill-rule="nonzero" opacity="0.1"></path>
                <rect id="Rectangle" fill="#CCCCCC" fill-rule="nonzero" x="3.4" y="51.8" width="1.6" height="1.6"></rect>
                <rect id="Rectangle" fill="#FFFFFF" fill-rule="nonzero" opacity="0.2" x="3.4" y="53.3" width="1.6" height="1"></rect>
                <rect id="Rectangle" fill="#000000" fill-rule="nonzero" opacity="0.1" x="3.4" y="51.8" width="1.6" height="1"></rect>
                <circle id="Oval" fill="#E6E6E6" fill-rule="nonzero" cx="4.1" cy="59.8" r="1.9"></circle>
                <path d="M2.3,59.5 C2.3,60.5 3.1,61.4 4.2,61.4 C5.3,61.4 6.1,60.6 6.1,59.5 L6.1,59.8 C6.1,60.8 5.3,61.7 4.2,61.7 C3.1,61.7 2.3,60.9 2.3,59.8 L2.3,59.5 Z" id="Path" fill="#FFFFFF" fill-rule="nonzero" opacity="0.2"></path>
                <path d="M6,60.1 C6,59.1 5.2,58.2 4.1,58.2 C3,58.2 2.2,59 2.2,60.1 L2.2,59.8 C2.2,58.8 3,57.9 4.1,57.9 C5.2,57.9 6,58.7 6,59.8 L6,60.1 Z" id="Path" fill="#1A1A1A" fill-rule="nonzero" opacity="0.1"></path>
                <rect id="Rectangle" fill="#CCCCCC" fill-rule="nonzero" x="3.4" y="59" width="1.6" height="1.6"></rect>
                <rect id="Rectangle" fill="#FFFFFF" fill-rule="nonzero" opacity="0.2" x="3.4" y="60.5" width="1.6" height="1"></rect>
                <rect id="Rectangle" fill="#000000" fill-rule="nonzero" opacity="0.1" x="3.4" y="59" width="1.6" height="1"></rect>
                <circle id="Oval" fill="#E6E6E6" fill-rule="nonzero" cx="4.1" cy="67" r="1.9"></circle>
                <path d="M2.3,66.7 C2.3,67.7 3.1,68.6 4.2,68.6 C5.3,68.6 6.1,67.8 6.1,66.7 L6.1,67 C6.1,68 5.3,68.9 4.2,68.9 C3.1,68.9 2.3,68.1 2.3,67 L2.3,66.7 Z" id="Path" fill="#FFFFFF" fill-rule="nonzero" opacity="0.2"></path>
                <path d="M6,67.3 C6,66.3 5.2,65.4 4.1,65.4 C3,65.4 2.2,66.2 2.2,67.3 L2.2,67 C2.2,66 3,65.1 4.1,65.1 C5.2,65.1 6,65.9 6,67 L6,67.3 Z" id="Path" fill="#1A1A1A" fill-rule="nonzero" opacity="0.1"></path>
                <rect id="Rectangle" fill="#CCCCCC" fill-rule="nonzero" x="3.4" y="66.2" width="1.6" height="1.6"></rect>
                <rect id="Rectangle" fill="#FFFFFF" fill-rule="nonzero" opacity="0.2" x="3.4" y="67.7" width="1.6" height="1"></rect>
                <rect id="Rectangle" fill="#000000" fill-rule="nonzero" opacity="0.1" x="3.4" y="66.2" width="1.6" height="1"></rect>
                <circle id="Oval" fill="#E6E6E6" fill-rule="nonzero" cx="4.1" cy="74.2" r="1.9"></circle>
                <path d="M2.3,73.9 C2.3,74.9 3.1,75.8 4.2,75.8 C5.3,75.8 6.1,75 6.1,73.9 L6.1,74.2 C6.1,75.2 5.3,76.1 4.2,76.1 C3.1,76.1 2.3,75.2 2.3,74.2 L2.3,73.9 Z" id="Path" fill="#FFFFFF" fill-rule="nonzero" opacity="0.2"></path>
                <path d="M6,74.5 C6,73.5 5.2,72.6 4.1,72.6 C3,72.6 2.2,73.4 2.2,74.5 L2.2,74.2 C2.2,73.2 3,72.3 4.1,72.3 C5.2,72.3 6,73.2 6,74.2 L6,74.5 Z" id="Path" fill="#1A1A1A" fill-rule="nonzero" opacity="0.1"></path>
                <rect id="Rectangle" fill="#CCCCCC" fill-rule="nonzero" x="3.4" y="73.4" width="1.6" height="1.6"></rect>
                <rect id="Rectangle" fill="#FFFFFF" fill-rule="nonzero" opacity="0.2" x="3.4" y="74.9" width="1.6" height="1"></rect>
                <rect id="Rectangle" fill="#000000" fill-rule="nonzero" opacity="0.1" x="3.4" y="73.4" width="1.6" height="1"></rect>
                <circle id="Oval" fill="#E6E6E6" fill-rule="nonzero" cx="4.1" cy="81.4" r="1.9"></circle>
                <path d="M2.3,81.1 C2.3,82.1 3.1,83 4.2,83 C5.3,83 6.1,82.2 6.1,81.1 L6.1,81.4 C6.1,82.4 5.3,83.3 4.2,83.3 C3.1,83.3 2.3,82.5 2.3,81.4 L2.3,81.1 Z" id="Path" fill="#FFFFFF" fill-rule="nonzero" opacity="0.2"></path>
                <path d="M6,81.7 C6,80.7 5.2,79.8 4.1,79.8 C3,79.8 2.2,80.6 2.2,81.7 L2.2,81.4 C2.2,80.4 3,79.5 4.1,79.5 C5.2,79.5 6,80.3 6,81.4 L6,81.7 Z" id="Path" fill="#1A1A1A" fill-rule="nonzero" opacity="0.1"></path>
                <rect id="Rectangle" fill="#CCCCCC" fill-rule="nonzero" x="3.4" y="80.6" width="1.6" height="1.6"></rect>
                <rect id="Rectangle" fill="#FFFFFF" fill-rule="nonzero" opacity="0.2" x="3.4" y="82.1" width="1.6" height="1"></rect>
                <rect id="Rectangle" fill="#000000" fill-rule="nonzero" opacity="0.1" x="3.4" y="80.6" width="1.6" height="1"></rect>
                <circle id="Oval" fill="#E6E6E6" fill-rule="nonzero" cx="4.1" cy="88.6" r="1.9"></circle>
                <path d="M2.3,88.3 C2.3,89.3 3.1,90.2 4.2,90.2 C5.3,90.2 6.1,89.4 6.1,88.3 L6.1,88.6 C6.1,89.6 5.3,90.5 4.2,90.5 C3.1,90.5 2.3,89.7 2.3,88.6 C2.3,88.6 2.3,88.3 2.3,88.3 Z" id="Path" fill="#FFFFFF" fill-rule="nonzero" opacity="0.2"></path>
                <path d="M6,88.9 C6,87.9 5.2,87 4.1,87 C3,87 2.2,87.8 2.2,88.9 L2.2,88.6 C2.2,87.6 3,86.7 4.1,86.7 C5.2,86.7 6,87.5 6,88.6 L6,88.9 Z" id="Path" fill="#1A1A1A" fill-rule="nonzero" opacity="0.1"></path>
                <rect id="Rectangle" fill="#CCCCCC" fill-rule="nonzero" x="3.4" y="87.8" width="1.6" height="1.6"></rect>
                <rect id="Rectangle" fill="#FFFFFF" fill-rule="nonzero" opacity="0.2" x="3.4" y="89.3" width="1.6" height="1"></rect>
                <rect id="Rectangle" fill="#000000" fill-rule="nonzero" opacity="0.1" x="3.4" y="87.8" width="1.6" height="1"></rect>
                <circle id="Oval" fill="#E6E6E6" fill-rule="nonzero" cx="4.1" cy="95.8" r="1.9"></circle>
                <path d="M2.3,95.5 C2.3,96.5 3.1,97.4 4.2,97.4 C5.3,97.4 6.1,96.6 6.1,95.5 L6.1,95.8 C6.1,96.8 5.3,97.7 4.2,97.7 C3.1,97.7 2.3,96.9 2.3,95.8 L2.3,95.5 Z" id="Path" fill="#FFFFFF" fill-rule="nonzero" opacity="0.2"></path>
                <path d="M6,96.1 C6,95.1 5.2,94.2 4.1,94.2 C3,94.2 2.2,95 2.2,96.1 L2.2,95.8 C2.2,94.8 3,93.9 4.1,93.9 C5.2,93.9 6,94.7 6,95.8 L6,96.1 Z" id="Path" fill="#1A1A1A" fill-rule="nonzero" opacity="0.1"></path>
                <rect id="Rectangle" fill="#CCCCCC" fill-rule="nonzero" x="3.4" y="95" width="1.6" height="1.6"></rect>
                <rect id="Rectangle" fill="#FFFFFF" fill-rule="nonzero" opacity="0.2" x="3.4" y="96.5" width="1.6" height="1"></rect>
                <rect id="Rectangle" fill="#000000" fill-rule="nonzero" opacity="0.1" x="3.4" y="95" width="1.6" height="1"></rect>
                <circle id="Oval" fill="#E6E6E6" fill-rule="nonzero" cx="4.1" cy="103" r="1.9"></circle>
                <path d="M2.3,102.7 C2.3,103.7 3.1,104.6 4.2,104.6 C5.3,104.6 6.1,103.8 6.1,102.7 L6.1,103 C6.1,104 5.3,104.9 4.2,104.9 C3.1,104.9 2.3,104.1 2.3,103 L2.3,102.7 Z" id="Path" fill="#FFFFFF" fill-rule="nonzero" opacity="0.2"></path>
                <path d="M6,103.3 C6,102.3 5.2,101.4 4.1,101.4 C3,101.4 2.2,102.2 2.2,103.3 L2.2,103 C2.2,102 3,101.1 4.1,101.1 C5.2,101.1 6,101.9 6,103 L6,103.3 Z" id="Path" fill="#1A1A1A" fill-rule="nonzero" opacity="0.1"></path>
                <rect id="Rectangle" fill="#CCCCCC" fill-rule="nonzero" x="3.4" y="102.2" width="1.6" height="1.6"></rect>
                <rect id="Rectangle" fill="#FFFFFF" fill-rule="nonzero" opacity="0.2" x="3.4" y="103.7" width="1.6" height="1"></rect>
                <rect id="Rectangle" fill="#000000" fill-rule="nonzero" opacity="0.1" x="3.4" y="102.2" width="1.6" height="1"></rect>
                <circle id="Oval" fill="#E6E6E6" fill-rule="nonzero" cx="4.1" cy="110.2" r="1.9"></circle>
                <path d="M2.3,109.9 C2.3,110.9 3.1,111.8 4.2,111.8 C5.3,111.8 6.1,111 6.1,109.9 L6.1,110.2 C6.1,111.2 5.3,112.1 4.2,112.1 C3.1,112.1 2.3,111.2 2.3,110.2 L2.3,109.9 Z" id="Path" fill="#FFFFFF" fill-rule="nonzero" opacity="0.2"></path>
                <path d="M6,110.5 C6,109.5 5.2,108.6 4.1,108.6 C3,108.6 2.2,109.4 2.2,110.5 L2.2,110.2 C2.2,109.2 3,108.3 4.1,108.3 C5.2,108.3 6,109.1 6,110.2 L6,110.5 Z" id="Path" fill="#1A1A1A" fill-rule="nonzero" opacity="0.1"></path>
                <rect id="Rectangle" fill="#CCCCCC" fill-rule="nonzero" x="3.4" y="109.4" width="1.6" height="1.6"></rect>
                <rect id="Rectangle" fill="#FFFFFF" fill-rule="nonzero" opacity="0.2" x="3.4" y="110.9" width="1.6" height="1"></rect>
                <rect id="Rectangle" fill="#000000" fill-rule="nonzero" opacity="0.1" x="3.4" y="109.4" width="1.6" height="1"></rect>
                <circle id="Oval" fill="#E6E6E6" fill-rule="nonzero" cx="4.1" cy="117.4" r="1.9"></circle>
                <path d="M2.3,117.1 C2.3,118.1 3.1,119 4.2,119 C5.3,119 6.1,118.2 6.1,117.1 L6.1,117.4 C6.1,118.4 5.3,119.3 4.2,119.3 C3.1,119.3 2.3,118.5 2.3,117.4 L2.3,117.1 Z" id="Path" fill="#FFFFFF" fill-rule="nonzero" opacity="0.2"></path>
                <path d="M6,117.7 C6,116.7 5.2,115.8 4.1,115.8 C3,115.8 2.2,116.6 2.2,117.7 L2.2,117.4 C2.2,116.4 3,115.5 4.1,115.5 C5.2,115.5 6,116.3 6,117.4 L6,117.7 Z" id="Path" fill="#1A1A1A" fill-rule="nonzero" opacity="0.1"></path>
                <rect id="Rectangle" fill="#CCCCCC" fill-rule="nonzero" x="3.4" y="116.6" width="1.6" height="1.6"></rect>
                <rect id="Rectangle" fill="#FFFFFF" fill-rule="nonzero" opacity="0.2" x="3.4" y="118.1" width="1.6" height="1"></rect>
                <rect id="Rectangle" fill="#000000" fill-rule="nonzero" opacity="0.1" x="3.4" y="116.6" width="1.6" height="1"></rect>
                <path d="M41.1,109.5 L41.1,109.5 L41.1,111.5 C41.1,111.6 41,111.7 40.9,111.8 C40.8,111.9 40.7,111.9 40.6,111.8 L39.1,110.8 C38.9,110.7 38.9,110.4 39.1,110.2 L40.5,109.3 C40.6,109.2 40.7,109.2 40.8,109.2 C41,109.2 41.1,109.3 41.1,109.5 Z" id="Path" fill="#FFFFFF" fill-rule="nonzero"></path>
                <path d="M39,118.3 L39,118.3 L39,116.3 C39,116.2 39.1,116.1 39.2,116 C39.3,115.9 39.4,115.9 39.5,116 L41,117 C41.2,117.1 41.2,117.4 41,117.6 L39.6,118.5 C39.5,118.6 39.5,118.6 39.3,118.6 C39.2,118.7 39,118.5 39,118.3 Z" id="Path" fill="#FFFFFF" fill-rule="nonzero"></path>
                <polyline id="Path" fill="#F2F2F2" fill-rule="nonzero" points="15 1.6 15 1.2 36.7 1.2 36.7 1.6"></polyline>
                <rect id="Rectangle" fill="#83B8BD" fill-rule="nonzero" x="31.8" y="14.5" width="6.1" height="4.6"></rect>
                <rect id="Rectangle" fill="#83B8BD" fill-rule="nonzero" x="14.1" y="14.5" width="6.1" height="4.6"></rect>
                <rect id="Rectangle" fill="#83B8BD" fill-rule="nonzero" x="12.1" y="6.9" width="5.2" height="5.4"></rect>
                <rect id="Rectangle" fill="#83B8BD" fill-rule="nonzero" x="34.8" y="6.9" width="5.2" height="5.4"></rect>
                <rect id="Rectangle" fill="#83B8BD" fill-rule="nonzero" x="41.5" y="6.7" width="2.7" height="2.6"></rect>
                <rect id="Rectangle" fill="#83B8BD" fill-rule="nonzero" x="41.4" y="11.2" width="2.7" height="2.6"></rect>
                <path d="M44.1,7.9 C44.1,8.7 43.5,9.3 42.7,9.3 C41.9,9.3 41.3,8.7 41.3,7.9 C41.3,7.1 41.9,6.5 42.7,6.5 C43.5,6.5 44.1,7.1 44.1,7.9" id="Path" fill="#8E9090" fill-rule="nonzero"></path>
                <path d="M44.1,12.2 C44.1,13 43.5,13.6 42.7,13.6 C41.9,13.6 41.3,13 41.3,12.2 C41.3,11.4 41.9,10.8 42.7,10.8 C43.5,10.8 44.1,11.5 44.1,12.2" id="Path" fill="#8E9090" fill-rule="nonzero"></path>
                <rect id="Rectangle" fill="#8E9090" fill-rule="nonzero" x="41.4" y="7.9" width="2.7" height="1.4"></rect>
                <rect id="Rectangle" fill="#8E9090" fill-rule="nonzero" x="41.4" y="11" width="2.7" height="1.4"></rect>
                <rect id="Rectangle" fill="#7EC632" fill-rule="nonzero" x="41.4" y="8.5" width="2.7" height="3.4"></rect>
                <path d="M43.3,10.1 C43.3,10.4 43.1,10.7 42.7,10.7 C42.3,10.7 42.1,10.5 42.1,10.1 C42.1,9.7 42.3,9.5 42.7,9.5 C43,9.6 43.3,9.8 43.3,10.1" id="Path" fill="#FFFFFF" fill-rule="nonzero"></path>
                <rect id="Rectangle" fill="#83B8BD" fill-rule="nonzero" x="8.2" y="11.2" width="2.7" height="2.6"></rect>
                <rect id="Rectangle" fill="#83B8BD" fill-rule="nonzero" x="8.2" y="6.6" width="2.7" height="2.6"></rect>
                <path d="M10.9,7.9 C10.9,8.7 10.3,9.3 9.5,9.3 C8.7,9.3 8.1,8.7 8.1,7.9 C8.1,7.1 8.7,6.5 9.5,6.5 C10.3,6.5 10.9,7.1 10.9,7.9" id="Path" fill="#8E9090" fill-rule="nonzero"></path>
                <path d="M10.9,12.2 C10.9,13 10.3,13.6 9.5,13.6 C8.7,13.6 8.1,13 8.1,12.2 C8.1,11.4 8.7,10.8 9.5,10.8 C10.3,10.8 10.9,11.5 10.9,12.2" id="Path" fill="#8E9090" fill-rule="nonzero"></path>
                <rect id="Rectangle" fill="#8E9090" fill-rule="nonzero" x="8.2" y="7.9" width="2.7" height="1.4"></rect>
                <rect id="Rectangle" fill="#8E9090" fill-rule="nonzero" x="8.2" y="10.9" width="2.7" height="1.4"></rect>
                <rect id="Rectangle" fill="#E08948" fill-rule="nonzero" x="8.1" y="8.4" width="2.7" height="3.4"></rect>
                <path d="M10.1,10.1 C10.1,10.4 9.9,10.7 9.5,10.7 C9.1,10.7 8.9,10.5 8.9,10.1 C8.9,9.7 9.1,9.5 9.5,9.5 C9.9,9.5 10.1,9.8 10.1,10.1" id="Path" fill="#FFFFFF" fill-rule="nonzero"></path>
                <polygon id="Path" fill="#C2C3C3" fill-rule="nonzero" points="16.5 3.5 14.8 1.8 15.6 1 17.3 2.7"></polygon>
                <polygon id="Path" fill="#C2C3C3" fill-rule="nonzero" points="35.4 2.7 37.1 1 37.9 1.8 36.2 3.5"></polygon>
                <path d="M30.3,19 L30.3,15.4 C30.3,15.3 30.2,15.2 30.1,15.2 L29.1,15.2 C29,15.2 28.9,15.3 28.9,15.4 L28.9,19 C28.9,19.1 29,19.2 29.1,19.2 L30.1,19.2 C30.3,19.1 30.3,19.1 30.3,19" id="Path" fill="#C6C6C6" fill-rule="nonzero"></path>
                <path d="M28.5,19 L28.5,15.4 C28.5,15.3 28.4,15.2 28.3,15.2 L27.3,15.2 C27.2,15.2 27.1,15.3 27.1,15.4 L27.1,19 C27.1,19.1 27.2,19.2 27.3,19.2 L28.3,19.2 C28.4,19.1 28.5,19.1 28.5,19" id="Path" fill="#C6C6C6" fill-rule="nonzero"></path>
                <path d="M26.7,19 L26.7,15.4 C26.7,15.3 26.6,15.2 26.5,15.2 L25.5,15.2 C25.4,15.2 25.3,15.3 25.3,15.4 L25.3,19 C25.3,19.1 25.4,19.2 25.5,19.2 L26.4,19.2 C26.6,19.1 26.7,19.1 26.7,19" id="Path" fill="#C6C6C6" fill-rule="nonzero"></path>
                <path d="M24.8,19 L24.8,15.4 C24.8,15.3 24.7,15.2 24.6,15.2 L23.6,15.2 C23.5,15.2 23.4,15.3 23.4,15.4 L23.4,19 C23.4,19.1 23.5,19.2 23.6,19.2 L24.6,19.2 C24.8,19.1 24.8,19.1 24.8,19" id="Path" fill="#C6C6C6" fill-rule="nonzero"></path>
                <path d="M23,19 L23,15.4 C23,15.3 22.9,15.2 22.8,15.2 L21.8,15.2 C21.7,15.2 21.6,15.3 21.6,15.4 L21.6,19 C21.6,19.1 21.7,19.2 21.8,19.2 L22.7,19.2 C22.8,19.1 23,19.1 23,19" id="Path" fill="#C6C6C6" fill-rule="nonzero"></path>
                <path d="M27.9,16.2 L27.9,17 L36.6,17 L36.6,2.2 L35.6,2.2 L34.7,1.6 L17.8,1.6 L16.9,2.2 L15.9,2.2 L15.9,16.9 L24,16.9 L24,16.1 C24,15.7 24.3,15.4 24.7,15.4 L27.2,15.4 C27.6,15.6 27.9,15.9 27.9,16.2" id="Path" fill="#8E9090" fill-rule="nonzero"></path>
                <path d="M31.7,9.8 C31.6,9.8 31.5,9.7 31.5,9.6 L31.5,5 C31.5,4.9 31.6,4.8 31.7,4.8 L34,4.8 C34.1,4.8 34.2,4.9 34.2,5 L34.2,9.6 C34.2,9.7 34.1,9.8 34,9.8 L31.7,9.8 L31.7,9.8 Z" id="Path" fill="#C2C3C3" fill-rule="nonzero"></path>
                <path d="M18.5,9.8 C18.4,9.8 18.3,9.7 18.3,9.6 L18.3,5 C18.3,4.9 18.4,4.8 18.5,4.8 L20.8,4.8 C20.9,4.8 21,4.9 21,5 L21,9.6 C21,9.7 20.9,9.8 20.8,9.8 L18.5,9.8 L18.5,9.8 Z" id="Path" fill="#C2C3C3" fill-rule="nonzero"></path>
                <rect id="Rectangle" fill="#83B8BD" fill-rule="nonzero" x="23.5" y="22.8" width="2.8" height="2.8"></rect>
                <rect id="Rectangle" fill="#83B8BD" fill-rule="nonzero" x="23.4" y="28.3" width="2.8" height="1.7"></rect>
                <rect id="Rectangle" fill="#83B8BD" fill-rule="nonzero" x="29.9" y="22.8" width="2.8" height="1.7"></rect>
                <rect id="Rectangle" fill="#83B8BD" fill-rule="nonzero" x="30" y="28.2" width="2.8" height="1.7"></rect>
                <rect id="Rectangle" fill="#83B8BD" fill-rule="nonzero" x="14.4" y="26.5" width="1.8" height="1.8"></rect>
                <rect id="Rectangle" fill="#83B8BD" fill-rule="nonzero" x="14.4" y="24" width="1.8" height="1.8"></rect>
                <rect id="Rectangle" fill="#83B8BD" fill-rule="nonzero" x="17.8" y="22.2" width="4.1" height="2.7"></rect>
                <rect id="Rectangle" fill="#83B8BD" fill-rule="nonzero" x="17.7" y="27.8" width="4.1" height="2.7"></rect>
                <rect id="Rectangle" fill="#83B8BD" fill-rule="nonzero" x="35.8" y="26.8" width="2.8" height="2.3"></rect>
                <path d="M16.2,27.1 L16.2,26.2 L16.2,26.1 L16.2,25.2 C16.2,24.7 15.8,24.3 15.3,24.3 C14.8,24.3 14.4,24.7 14.4,25.2 L14.4,27.1 C14.4,27.6 14.8,28 15.3,28 C15.7,28 16.2,27.7 16.2,27.1" id="Path" fill="#8E9090" fill-rule="nonzero"></path>
                <rect id="Rectangle" fill="#000000" fill-rule="nonzero" x="14.3" y="25.5" width="1.9" height="1.4"></rect>
                <rect id="Rectangle" fill="#8A9091" fill-rule="nonzero" x="29.9" y="28.4" width="1.4" height="1.4"></rect>
                <rect id="Rectangle" fill="#8A9091" fill-rule="nonzero" x="29.8" y="22.9" width="1.4" height="1.4"></rect>
                <rect id="Rectangle" fill="#8A9091" fill-rule="nonzero" x="24.9" y="22.9" width="1.4" height="2.5"></rect>
                <rect id="Rectangle" fill="#8A9091" fill-rule="nonzero" x="24.8" y="28.4" width="1.4" height="1.4"></rect>
                <rect id="Rectangle" fill="#000000" fill-rule="nonzero" x="26.3" y="22.2" width="3.7" height="8.2"></rect>
                <path d="M36.2,27.8 L37,27.8 C37,27.6 37.2,27.5 37.3,27.5 C37.4,27.5 37.6,27.7 37.6,27.8 L38.7,27.8 L38.7,26.9 L38.7,23.7 L38.7,23.5 L38.7,22.9 L37.6,22.9 C37.6,23.1 37.4,23.2 37.3,23.2 C37.2,23.2 37,23 37,22.9 L35.9,22.9 L35.9,27.8 L36.2,27.8 L36.2,27.8 Z" id="Path" fill="#8C7965" fill-rule="nonzero"></path>
                <rect id="Rectangle" fill="#000000" fill-rule="nonzero" x="35.8" y="23.9" width="2.8" height="3.2"></rect>
                <path d="M17.7,29 C17.7,29.6 18.1,30 18.7,30 L20.8,30 C21.4,30 21.8,29.6 21.8,29 L21.8,28.7 L17.6,28.7 L17.7,29 Z" id="Path" fill="#8E9090" fill-rule="nonzero"></path>
                <path d="M17.7,23.9 C17.7,23.3 18.1,22.9 18.7,22.9 L20.8,22.9 C21.4,22.9 21.8,23.3 21.8,23.9 L21.8,24.2 L17.6,24.2 L17.7,23.9 Z" id="Path" fill="#8E9090" fill-rule="nonzero"></path>
                <rect id="Rectangle" fill="#8C7965" fill-rule="nonzero" x="17.6" y="24.3" width="4.2" height="4.4"></rect>
                <rect id="Rectangle" fill="#83B8BD" fill-rule="nonzero" x="33.9" y="33.9" width="4.1" height="2.7"></rect>
                <rect id="Rectangle" fill="#83B8BD" fill-rule="nonzero" x="33.9" y="39.4" width="4.1" height="2.7"></rect>
                <path d="M33.8,40.6 C33.8,41.2 34.2,41.6 34.8,41.6 L36.9,41.6 C37.5,41.6 37.9,41.2 37.9,40.6 L37.9,40.3 L33.7,40.3 L33.8,40.6 Z" id="Path" fill="#8E9090" fill-rule="nonzero"></path>
                <path d="M33.8,35.5 C33.8,34.9 34.2,34.5 34.8,34.5 L36.9,34.5 C37.5,34.5 37.9,34.9 37.9,35.5 L37.9,35.8 L33.7,35.8 L33.8,35.5 Z" id="Path" fill="#8E9090" fill-rule="nonzero"></path>
                <rect id="Rectangle" fill="#8C7965" fill-rule="nonzero" x="33.7" y="36" width="4.2" height="4.4"></rect>
                <rect id="Rectangle" fill="#83B8BD" fill-rule="nonzero" x="12.8" y="23.8" width="1.1" height="1.7"></rect>
                <rect id="Rectangle" fill="#83B8BD" fill-rule="nonzero" x="10.5" y="23.8" width="1.1" height="1.7"></rect>
                <path d="M11.2,23.8 C11,23.8 10.8,24 10.8,24.2 L10.8,25.1 C10.8,25.3 11,25.5 11.2,25.5 L11.3,25.5 L11.2,23.8 L11.2,23.8 Z" id="Path" fill="#8E9090" fill-rule="nonzero"></path>
                <path d="M13.2,23.8 C13.4,23.8 13.6,24 13.6,24.2 L13.6,25.1 C13.6,25.3 13.4,25.5 13.2,25.5 L13.1,25.5 L13.2,23.8 L13.2,23.8 Z" id="Path" fill="#8E9090" fill-rule="nonzero"></path>
                <rect id="Rectangle" fill="#8C7965" fill-rule="nonzero" x="11.3" y="23.8" width="1.8" height="1.7"></rect>
                <rect id="Rectangle" fill="#83B8BD" fill-rule="nonzero" x="12.8" y="26.6" width="1.1" height="1.7"></rect>
                <rect id="Rectangle" fill="#83B8BD" fill-rule="nonzero" x="10.5" y="26.6" width="1.1" height="1.7"></rect>
                <path d="M11.1,26.6 C10.9,26.6 10.7,26.8 10.7,27 L10.7,27.9 C10.7,28.1 10.9,28.3 11.1,28.3 L11.2,28.3 L11.1,26.6 L11.1,26.6 Z" id="Path" fill="#8E9090" fill-rule="nonzero"></path>
                <path d="M13.2,26.6 C13.4,26.6 13.6,26.8 13.6,27 L13.6,27.9 C13.6,28.1 13.4,28.3 13.2,28.3 L13.1,28.3 L13.2,26.6 L13.2,26.6 Z" id="Path" fill="#8E9090" fill-rule="nonzero"></path>
                <rect id="Rectangle" fill="#8C7965" fill-rule="nonzero" x="11.2" y="26.5" width="1.8" height="1.7"></rect>
                <rect id="Rectangle" fill="#000000" fill-rule="nonzero" x="12.5" y="32.7" width="5.6" height="6"></rect>
                <rect id="Rectangle" fill="#83B8BD" fill-rule="nonzero" x="12" y="49.4" width="4.3" height="2.8"></rect>
                <rect id="Rectangle" fill="#83B8BD" fill-rule="nonzero" x="18.3" y="49.4" width="4.3" height="2.8"></rect>
                <rect id="Rectangle" fill="#000000" fill-rule="nonzero" x="11.1" y="47.7" width="11.9" height="6"></rect>
                <rect id="Rectangle" fill="#8E9090" fill-rule="nonzero" x="12.4" y="87.6" width="24" height="24"></rect>
                <path d="M32.4,109.5 L17,109.5 C15.7,109.5 14.6,108.4 14.6,107.1 L14.6,91.8 C14.6,90.5 15.7,89.4 17,89.4 L32.4,89.4 C33.7,89.4 34.8,90.5 34.8,91.8 L34.8,107.2 C34.8,108.5 33.7,109.5 32.4,109.5 Z" id="Path" fill="#CCCCCC" fill-rule="nonzero"></path>
                <g transform="translate(12.000000, 112.000000)" fill-rule="nonzero" id="Rectangle">
                    <rect fill="#8E9090" x="0.2" y="0.2" width="24.2" height="8.3"></rect>
                    <rect fill="#1A1A1A" x="2.3" y="2.5" width="22" height="3.2"></rect>
                </g>
            </g>
        </g>
        <g id="Group" transform="translate(45.000000, 64.000000) scale(-1, 1) rotate(-180.000000) translate(-45.000000, -64.000000) translate(2.000000, 24.000000)" stroke-linecap="round">
            <path d="M86,3 C-48.1914063,-14.2 14.9948544,80 14.9948544,80" id="Path" stroke="#8C0000" stroke-width="3.2"></path>
            <path d="M86,3 C-47.6738281,-15.3 14.9948544,80 14.9948544,80" id="Path" stroke="#CC1414" stroke-width="1.6"></path>
        </g>
        <g id="Group" transform="translate(75.000000, 117.500000) scale(1, -1) translate(-75.000000, -117.500000) translate(61.000000, 117.000000)" stroke-linecap="round">
            <path d="M28,0 L0,1" id="Path" stroke="#1B5BB3" stroke-width="3.2"></path>
            <path d="M28,0 L0,1" id="Path" stroke="#418DD9" stroke-width="1.6"></path>
        </g>
        <g id="Group-Copy-2" transform="translate(75.000000, 110.500000) scale(1, -1) translate(-75.000000, -110.500000) translate(61.000000, 110.000000)" stroke-linecap="round">
            <path d="M28,0 L0,1" id="Path" stroke="#1B5BB3" stroke-width="3.2"></path>
            <path d="M28,0 L0,1" id="Path" stroke="#418DD9" stroke-width="1.6"></path>
        </g>
        <g id="Group-Copy" transform="translate(60.000000, 83.000000)" stroke-linecap="round">
            <path d="M29,0 L0,13" id="Path" stroke="#000000" stroke-width="3.2"></path>
            <path d="M29,0 L0,13" id="Path" stroke="#404040" stroke-width="1.6"></path>
        </g>
        <g id="CH340Basic" transform="translate(86.000000, 74.000000)">
            <rect id="rect2997" stroke="#888888" stroke-width="0.216" fill="#D60617" fill-rule="nonzero" stroke-linejoin="round" x="0.979816514" y="0.269230769" width="84" height="63.9692308"></rect>
            <rect id="rect88209" fill="#000000" fill-rule="nonzero" x="55.4623853" y="18.9269231" width="31.0183486" height="25.6384615"></rect>
            <path d="M87.3669725,17.6576923 L54.5761468,17.6576923 L54.5761468,45.9615385 L87.3669725,45.9615385 L87.3669725,17.6576923 Z M83.6954128,20.8307692 L83.6954128,24.5115385 C83.6954128,24.7653846 83.4422018,24.8923077 83.1889908,24.8923077 L73.187156,24.8923077 C72.933945,24.8923077 72.6807339,24.6384615 72.6807339,24.5115385 L72.6807339,23.6230769 L81.4165138,23.6230769 C81.6697248,23.6230769 81.9229358,23.3692308 81.9229358,23.1153846 L81.9229358,22.2269231 C81.9229358,21.9730769 81.6697248,21.7192308 81.4165138,21.7192308 L72.8073394,21.7192308 L72.8073394,20.8307692 C72.8073394,20.5769231 73.0605505,20.45 73.3137615,20.45 L83.3155963,20.45 C83.4422018,20.3230769 83.6954128,20.5769231 83.6954128,20.8307692 Z M83.6954128,27.6846154 L83.6954128,28.1923077 L72.8073394,28.1923077 L70.5284404,28.5730769 L70.5284404,35.0461538 L72.8073394,35.4269231 L83.6954128,35.4269231 L83.6954128,35.9346154 C83.6954128,36.1884615 83.4422018,36.4423077 83.1889908,36.4423077 L68.6293578,36.4423077 C68.3761468,36.4423077 68.1229358,36.1884615 68.1229358,35.9346154 L68.1229358,27.6846154 C68.1229358,27.4307692 68.3761468,27.3038462 68.6293578,27.3038462 L83.1889908,27.3038462 C83.4422018,27.1769231 83.6954128,27.4307692 83.6954128,27.6846154 Z M83.6954128,39.1076923 L83.6954128,42.7884615 C83.6954128,43.0423077 83.4422018,43.2961538 83.1889908,43.2961538 L73.187156,43.2961538 C72.933945,43.2961538 72.6807339,43.0423077 72.6807339,42.7884615 L72.6807339,41.9 L81.4165138,41.9 C81.6697248,41.9 81.9229358,41.6461538 81.9229358,41.3923077 L81.9229358,40.5038462 C81.9229358,40.25 81.6697248,39.9961538 81.4165138,39.9961538 L72.8073394,39.9961538 L72.8073394,39.1076923 C72.8073394,38.8538462 73.0605505,38.6 73.3137615,38.6 L83.3155963,38.6 C83.4422018,38.6 83.6954128,38.8538462 83.6954128,39.1076923 Z" id="rect88148"></path>
            <rect id="rect88303" fill="#FFCC00" fill-rule="nonzero" opacity="0.4253" x="54.5761468" y="20.3230769" width="32.7908257" height="22.8461538"></rect>
            <rect id="rect5206" stroke="#000000" stroke-width="0.0708661" fill="#1A1A1A" fill-rule="nonzero" transform="translate(44.065138, 32.444231) rotate(90.000000) translate(-44.065138, -32.444231) " x="26.6568813" y="23.1153845" width="34.8165138" height="18.6576923"></rect>
            <rect id="rect5206-copy" stroke="#000000" stroke-width="0.0708661" fill="#1A1A1A" fill-rule="nonzero" transform="translate(25.500000, 45.500000) rotate(90.000000) translate(-25.500000, -45.500000) " x="21" y="40" width="9" height="11"></rect>
            <rect id="rect5206-copy-2" stroke="#000000" stroke-width="0.0708661" fill="#1A1A1A" fill-rule="nonzero" transform="translate(25.500000, 16.500000) rotate(90.000000) translate(-25.500000, -16.500000) " x="23" y="11" width="5" height="11"></rect>
            <rect id="rect5206-copy-3" stroke="#000000" stroke-width="0.0708661" fill="#9C310A" fill-rule="nonzero" transform="translate(25.000000, 35.500000) rotate(90.000000) translate(-25.000000, -35.500000) " x="23" y="31" width="4" height="9"></rect>
            <rect id="rect5206-copy-4" stroke="#000000" stroke-width="0.0708661" fill-opacity="0.541493663" fill="#6C5700" fill-rule="nonzero" transform="translate(25.000000, 29.500000) rotate(90.000000) translate(-25.000000, -29.500000) " x="23" y="25" width="4" height="9"></rect>
            <rect id="rect88471" x="74.1577982" y="54.3384615" width="4.30458716" height="4.82307692"></rect>
            <rect id="rect88494" x="65.0422018" y="54.3384615" width="4.30458716" height="4.82307692"></rect>
            <rect id="rect88504" fill="#B3FF80" fill-rule="nonzero" x="12.346789" y="42.3384615" width="4.81100917" height="4.82307692"></rect>
            <rect id="rect6893" x="58.5853211" y="54.3384615" width="4.30458716" height="4.82307692"></rect>
            <rect id="rect6895" x="49.4697248" y="54.3384615" width="4.30458716" height="4.82307692"></rect>
            <rect id="rect6897" fill="#FF8080" fill-rule="nonzero" x="12.6833211" y="34.3384615" width="4.81100917" height="4.82307692"></rect>
            <path d="M10.0954128,40.5038462 C8.06972477,40.5038462 6.42385321,38.8538462 6.42385321,36.8230769 C6.42385321,34.7923077 8.06972477,33.1423077 10.0954128,33.1423077 C12.1211009,33.1423077 13.7669725,34.7923077 13.7669725,36.8230769 C13.640367,38.8538462 12.1211009,40.5038462 10.0954128,40.5038462 Z" id="path8144"></path>
            <path d="M10.0954128,31.3653846 C8.06972477,31.3653846 6.42385321,29.7153846 6.42385321,27.6846154 C6.42385321,25.6538462 8.06972477,24.0038462 10.0954128,24.0038462 C12.1211009,24.0038462 13.7669725,25.6538462 13.7669725,27.6846154 C13.7669725,29.7153846 12.1211009,31.3653846 10.0954128,31.3653846 Z" id="path8146"></path>
            <path d="M10.0954128,22.2269231 C8.06972477,22.2269231 6.42385321,20.5769231 6.42385321,18.5461538 C6.42385321,16.5153846 8.06972477,14.8653846 10.0954128,14.8653846 C12.1211009,14.8653846 13.7669725,16.5153846 13.7669725,18.5461538 C13.640367,20.5769231 12.1211009,22.2269231 10.0954128,22.2269231 Z" id="path8148"></path>
            <path d="M10.0954128,13.0884615 C8.06972477,13.0884615 6.42385321,11.4384615 6.42385321,9.40769231 C6.42385321,7.37692308 8.06972477,5.72692308 10.0954128,5.72692308 C12.1211009,5.72692308 13.7669725,7.37692308 13.7669725,9.40769231 C13.7669725,11.4384615 12.1211009,13.0884615 10.0954128,13.0884615 Z" id="path8150"></path>
            <text id="GND" fill="#FFFFFF" font-family="Helvetica" font-size="4" font-weight="normal">
                <tspan x="2.56998165" y="9.90486923">GND</tspan>
            </text>
            <g id="DTR" transform="translate(2.119266, 51.038462)" fill="#FFFFFF" font-family="Helvetica" font-size="4" font-weight="normal">
                <g id="Group">
                    <text id="DTR">
                        <tspan x="0.641680734" y="4.77778462">DTR</tspan>
                    </text>
                </g>
            </g>
            <g id="tspan7651" transform="translate(2.119266, 42.153846)" fill="#FFFFFF" font-family="Helvetica" font-size="4" font-weight="normal">
                <g id="Group">
                    <text id="RX">
                        <tspan x="0.641680734" y="4.52393846">RX</tspan>
                    </text>
                </g>
            </g>
            <g id="tspan7655" transform="translate(2.119266, 33.269231)" fill="#FFFFFF" font-family="Helvetica" font-size="4" font-weight="normal">
                <g id="Group">
                    <text id="TX">
                        <tspan x="0.641680734" y="4.27009231">TX</tspan>
                    </text>
                </g>
            </g>
            <g id="tspan7663" transform="translate(2.119266, 14.230769)" fill="#FFFFFF" font-family="Helvetica" font-size="4" font-weight="normal">
                <g id="Group">
                    <text id="CTS">
                        <tspan x="0.641680734" y="4.57458077">CTS</tspan>
                    </text>
                </g>
            </g>
            <g id="tspan7659" transform="translate(2.119266, 24.384615)" fill="#FFFFFF" font-family="Helvetica" font-size="4" font-weight="normal">
                <g id="Group">
                    <text id="VCC">
                        <tspan x="0.641680734" y="4.01624615">VCC</tspan>
                    </text>
                </g>
            </g>
        </g>
    </g>
</svg>