<?xml version="1.0" encoding="UTF-8" standalone="no"?>
<!DOCTYPE svg PUBLIC "-//W3C//DTD SVG 1.1//EN" "http://www.w3.org/Graphics/SVG/1.1/DTD/svg11.dtd">
<svg width="100%" height="100%" viewBox="0 0 576 273" version="1.1" xmlns="http://www.w3.org/2000/svg" xmlns:xlink="http://www.w3.org/1999/xlink" xml:space="preserve" xmlns:serif="http://www.serif.com/" style="fill-rule:evenodd;clip-rule:evenodd;stroke-linecap:round;">
    <path d="M284.876,257.238L284.876,238.914" style="fill:none;fill-rule:nonzero;stroke:rgb(120,120,120);stroke-width:2px;"/>
    <path d="M267.824,257.582L301.925,257.582M273.503,264.569L296.243,264.569M290.552,271.488L279.192,271.488" style="fill:none;fill-rule:nonzero;stroke:black;stroke-width:2px;"/>
    <path d="M53.062,94.057L43.663,94.057L36.716,100.963L27.971,100.963L16.417,93.162M53.062,112.157L20.548,112.157" style="fill:none;fill-rule:nonzero;stroke:black;stroke-width:2px;stroke-linejoin:round;"/>
    <path d="M16.417,132.648L53.062,132.648L53.062,77.679L16.417,77.679" style="fill:none;fill-rule:nonzero;stroke:black;stroke-width:2px;stroke-linejoin:round;"/>
    <path d="M45.847,97.062L49.65,102.279L47.058,102.787L50.308,109.12L43.949,101.473L46.655,100.779L45.847,97.062Z" style="fill-rule:nonzero;"/>
    <g transform="matrix(1,0,0,1,-1,0)">
        <path d="M53.062,112.157L71.386,112.157M53.062,94.198L71.386,94.198M53.062,112.157L71.386,112.157" style="fill:none;fill-rule:nonzero;stroke:rgb(120,120,120);stroke-width:2px;stroke-linejoin:round;"/>
    </g>
    <path d="M463.122,129.457L448.464,136.788M457.624,158.775L463.122,166.104M463.122,166.104L453.961,166.104M453.961,166.104L457.624,158.775M455.909,162.498L447.023,158.054M455.793,165.187L461.29,165.187M461.29,165.187L457.624,160.607M457.624,160.607L455.793,164.272M455.793,164.272L458.541,164.272M458.541,164.272L457.624,162.441" style="fill:none;fill-rule:nonzero;stroke:black;stroke-width:2px;"/>
    <rect x="442.966" y="129.457" width="5.498" height="36.647" style="fill-rule:nonzero;"/>
    <path d="M426.477,147.78L444.801,147.78" style="fill:none;fill-rule:nonzero;stroke:rgb(120,120,120);stroke-width:2px;"/>
    <path d="M463.122,184.428L463.122,166.104" style="fill:none;fill-rule:nonzero;stroke:rgb(120,120,120);stroke-width:2px;"/>
    <path d="M463.122,111.135L463.122,129.457" style="fill:none;fill-rule:nonzero;stroke:rgb(120,120,120);stroke-width:2px;"/>
    <g transform="matrix(-1,-7.65714e-16,7.65714e-16,-1,188.564,30.058)">
        <g transform="matrix(1,0,0,1,-348.93,0.493394)">
            <path d="M88.804,-7.95C88.804,-13.472 85.754,-18.279 81.239,-20.777L83.309,-20.777L83.309,-35.435L64.985,-35.435L64.985,-20.777L67.053,-20.777C62.544,-18.279 59.485,-13.472 59.485,-7.95C59.485,-2.428 62.543,2.379 67.053,4.877L64.985,4.877L64.985,19.538L83.309,19.538L83.309,4.877L81.237,4.877C85.749,2.379 88.804,-2.428 88.804,-7.95Z" style="fill:white;fill-rule:nonzero;stroke:black;stroke-width:2px;stroke-linecap:butt;"/>
        </g>
        <g transform="matrix(1,0,0,1,0,-1)">
            <g transform="matrix(1,0,0,1,-348.93,0.493394)">
                <path d="M64.985,-35.435L64.985,-20.777M64.985,-35.435L74.146,-35.435M74.146,-35.435L83.309,-35.435M83.309,-35.435L83.309,-20.777M83.309,19.537L83.309,4.877M83.309,19.537L74.146,19.537M74.146,19.537L64.985,19.537M64.985,19.537L64.985,4.877" style="fill:none;fill-rule:nonzero;stroke:black;stroke-width:2px;"/>
            </g>
            <g transform="matrix(1,0,0,1,-348.93,0.493394)">
                <path d="M74.146,-44.598L74.146,-35.435M74.146,28.695L74.146,19.537" style="fill:none;fill-rule:nonzero;stroke:rgb(140,140,140);stroke-width:2px;stroke-miterlimit:10;"/>
            </g>
        </g>
        <g transform="matrix(1,0,0,1,-348.93,0.493394)">
            <circle cx="74.146" cy="-7.951" r="14.659" style="fill:none;stroke:black;stroke-width:2px;stroke-linecap:butt;"/>
        </g>
        <g transform="matrix(1,0,0,1,-97.427,27.261)">
            <text x="0px" y="0px" style="font-family:'ArialMT', 'Arial', sans-serif;font-size:6.362px;fill:rgb(140,140,140);">2</text>
        </g>
        <g transform="matrix(1,0,0,1,-102.04,16.088)">
            <text x="0px" y="0px" style="font-family:'ArialMT', 'Arial', sans-serif;font-size:8.907px;fill:rgb(120,120,120);">-</text>
        </g>
    </g>
    <path d="M387.917,148.352L385.169,155.681M385.169,155.681L380.588,141.023M380.588,141.023L376.008,155.681M376.008,155.681L371.428,141.023M371.428,141.023L366.845,155.681M366.845,155.681L362.265,141.023M362.265,141.023L357.685,155.681M357.685,155.681L353.104,141.023M353.104,141.023L351.27,148.352" style="fill:none;fill-rule:nonzero;stroke:black;stroke-width:2px;"/>
    <path d="M332.948,148.352L351.27,148.352" style="fill:none;fill-rule:nonzero;stroke:rgb(120,120,120);stroke-width:2px;"/>
    <path d="M406.241,148.352L387.917,148.352" style="fill:none;fill-rule:nonzero;stroke:rgb(120,120,120);stroke-width:2px;"/>
    <path d="M463.502,257.238L463.502,238.914" style="fill:none;fill-rule:nonzero;stroke:rgb(120,120,120);stroke-width:2px;"/>
    <path d="M446.448,257.582L480.551,257.582M452.129,264.569L474.867,264.569M469.176,271.488L457.816,271.488" style="fill:none;fill-rule:nonzero;stroke:black;stroke-width:2px;"/>
    <rect x="145.833" y="75.133" width="73.293" height="54.972" style="fill:white;fill-rule:nonzero;"/>
    <path d="M145.833,130.105L219.126,130.105M219.126,130.105L219.126,75.133M219.126,75.133L145.833,75.133M145.833,75.133L145.833,130.105" style="fill:none;fill-rule:nonzero;stroke:black;stroke-width:2px;"/>
    <path d="M127.509,93.457L145.833,93.457" style="fill:none;fill-rule:nonzero;stroke:rgb(120,120,120);stroke-width:2px;"/>
    <path d="M182.478,148.429L182.478,130.105" style="fill:none;fill-rule:nonzero;stroke:rgb(120,120,120);stroke-width:2px;"/>
    <g transform="matrix(-3.82857e-16,-1,1,-3.82857e-16,80.5338,139.332)">
        <text x="0px" y="0px" style="font-family:'ArialMT', 'Arial', sans-serif;font-size:8.907px;fill:rgb(120,120,120);">GND</text>
    </g>
    <path d="M237.45,93.457L219.126,93.457" style="fill:none;fill-rule:nonzero;stroke:rgb(120,120,120);stroke-width:2px;"/>
    <g transform="matrix(1,0,0,1,58.753,91.3237)">
        <text x="0px" y="0px" style="font-family:'ArialMT', 'Arial', sans-serif;font-size:8.907px;fill:rgb(120,120,120);">OUT</text>
    </g>
    <path d="M183.288,257.238L183.288,238.914" style="fill:none;fill-rule:nonzero;stroke:rgb(120,120,120);stroke-width:2px;"/>
    <path d="M166.236,257.582L200.337,257.582M171.915,264.569L194.655,264.569M188.964,271.488L177.604,271.488M504.429,135.999L513.587,135.999M513.587,135.999L522.752,135.999" style="fill:none;fill-rule:nonzero;stroke:black;stroke-width:2px;"/>
    <path d="M513.587,135.999L522.752,154.323L504.429,154.323L513.587,135.999Z" style="fill:white;fill-rule:nonzero;stroke:black;stroke-width:2px;"/>
    <path d="M513.587,154.323L513.587,135.999" style="fill:none;fill-rule:nonzero;stroke:black;stroke-width:2px;"/>
    <path d="M513.587,117.679L513.587,135.999" style="fill:none;fill-rule:nonzero;stroke:rgb(120,120,120);stroke-width:2px;"/>
    <path d="M513.587,172.649L513.587,154.323" style="fill:none;fill-rule:nonzero;stroke:rgb(120,120,120);stroke-width:2px;"/>
    <path d="M284.205,144.449L284.205,127.654" style="fill:none;fill-rule:nonzero;stroke:rgb(120,120,120);stroke-width:2px;"/>
    <path d="M284.205,43.67L284.205,60.469" style="fill:none;fill-rule:nonzero;stroke:rgb(120,120,120);stroke-width:2px;"/>
    <path d="M284.697,212.803L277.368,210.054M277.368,210.054L292.026,205.474M292.026,205.474L277.368,200.894M277.368,200.894L292.026,196.311M292.026,196.311L277.368,191.731M277.368,191.731L292.026,187.15M292.026,187.15L277.368,182.57M277.368,182.57L292.026,177.987M292.026,177.987L284.697,176.155" style="fill:none;fill-rule:nonzero;stroke:black;stroke-width:2px;"/>
    <g transform="matrix(1,0,0,1,-1.13903,-12.4784)">
        <g transform="matrix(1,0,0,1,0.647078,-86.5117)">
            <path d="M284.697,212.803L277.368,210.054M277.368,210.054L292.026,205.474M292.026,205.474L277.368,200.894M277.368,200.894L292.026,196.311M292.026,196.311L277.368,191.731M277.368,191.731L292.026,187.15M292.026,187.15L277.368,182.57M277.368,182.57L292.026,177.987M292.026,177.987L284.697,176.155" style="fill:none;fill-rule:nonzero;stroke:black;stroke-width:2px;"/>
        </g>
        <g transform="matrix(1,0,0,1,0.647078,-86.5117)">
            <path d="M284.697,157.831L284.697,176.155" style="fill:none;fill-rule:nonzero;stroke:rgb(120,120,120);stroke-width:2px;"/>
        </g>
        <g transform="matrix(1,0,0,1,0.647078,-86.5117)">
            <path d="M284.697,231.127L284.697,212.803" style="fill:none;fill-rule:nonzero;stroke:rgb(120,120,120);stroke-width:2px;"/>
        </g>
    </g>
    <path d="M284.697,157.831L284.697,176.155" style="fill:none;fill-rule:nonzero;stroke:rgb(120,120,120);stroke-width:2px;"/>
    <path d="M284.697,231.127L284.697,212.803" style="fill:none;fill-rule:nonzero;stroke:rgb(120,120,120);stroke-width:2px;"/>
    <path d="M426.479,147.78L406.241,148.352M182.478,148.43L183.288,239.172" style="fill:none;fill-rule:nonzero;stroke:rgb(64,64,64);stroke-width:2px;"/>
    <circle cx="182.478" cy="148.428" r="3.665"/>
    <path d="M463.122,184.429L463.499,239.172" style="fill:none;fill-rule:nonzero;stroke:rgb(64,64,64);stroke-width:2px;"/>
    <circle cx="463.122" cy="184.43" r="3.665"/>
    <path d="M513.588,184.429L463.124,184.429" style="fill:none;fill-rule:nonzero;stroke:rgb(64,64,64);stroke-width:2px;"/>
    <circle cx="463.124" cy="184.43" r="3.665"/>
    <path d="M513.588,172.645L513.588,184.429M513.588,111.136L463.124,111.136" style="fill:none;fill-rule:nonzero;stroke:rgb(64,64,64);stroke-width:2px;"/>
    <circle cx="463.124" cy="111.134" r="3.665"/>
    <path d="M513.588,117.677L513.588,111.136M463.328,73.792L463.124,111.136" style="fill:none;fill-rule:nonzero;stroke:rgb(64,64,64);stroke-width:2px;"/>
    <circle cx="463.124" cy="111.134" r="3.665"/>
    <path d="M70.655,148.43L182.478,148.43" style="fill:none;fill-rule:nonzero;stroke:rgb(64,64,64);stroke-width:2px;"/>
    <circle cx="182.478" cy="148.428" r="3.665"/>
    <path d="M70.655,112.162L70.655,148.43M70.655,94.198L127.508,93.458" style="fill:none;fill-rule:nonzero;stroke:rgb(64,64,64);stroke-width:2px;"/>
    <circle cx="127.508" cy="93.458" r="3.665"/>
    <path d="M127.508,1.361L127.508,93.458" style="fill:none;fill-rule:nonzero;stroke:rgb(64,64,64);stroke-width:2px;"/>
    <circle cx="127.508" cy="93.458" r="3.665"/>
    <path d="M463.288,1.361L127.506,1.361M332.948,148.352L284.471,147.698M284.471,147.698L284.697,157.831M284.205,135.29L284.471,147.698" style="fill:none;fill-rule:nonzero;stroke:rgb(64,64,64);stroke-width:2px;"/>
    <path d="M284.471,144.035C286.48,144.036 288.133,145.689 288.134,147.698C288.134,149.708 286.48,151.363 284.47,151.363C282.459,151.363 280.805,149.708 280.805,147.698C280.806,145.688 282.459,144.035 284.469,144.035C284.47,144.035 284.47,144.035 284.471,144.035Z" style="fill-rule:nonzero;"/>
    <path d="M237.449,43.67L237.449,93.458M284.205,43.67L237.449,43.67M284.873,239.172L284.697,231.127" style="fill:none;fill-rule:nonzero;stroke:rgb(64,64,64);stroke-width:2px;"/>
    <g transform="matrix(1,0,0,1,381.455,40.565)">
        <text x="0px" y="0px" style="font-family:'ArialMT', 'Arial', sans-serif;font-size:12.725px;">DC Motor</text>
    </g>
    <g transform="matrix(1,0,0,1,391.378,111.202)">
        <text x="0px" y="0px" style="font-family:'ArialMT', 'Arial', sans-serif;font-size:12.725px;">TIP<tspan x="19.566px 23.101px " y="0px 0px "> 1</tspan>20</text>
        <text x="0px" y="12.725px" style="font-family:'ArialMT', 'Arial', sans-serif;font-size:12.725px;">T<tspan x="7.301px 11.538px " y="12.725px 12.725px ">ra</tspan>nsistor</text>
    </g>
    <g>
        <g transform="matrix(1,0,0,1,348.424,172.998)">
            <text x="0px" y="0px" style="font-family:'ArialMT', 'Arial', sans-serif;font-size:12.725px;">Resistor</text>
        </g>
        <g transform="matrix(1,0,0,1,348.424,185.722)">
            <text x="0px" y="0px" style="font-family:'ArialMT', 'Arial', sans-serif;font-size:12.725px;">1kΩ</text>
        </g>
    </g>
    <g>
        <g transform="matrix(1,0,0,1,527.992,145.071)">
            <text x="0px" y="0px" style="font-family:'ArialMT', 'Arial', sans-serif;font-size:12.725px;">Diode</text>
        </g>
        <g transform="matrix(1,0,0,1,527.588,157.796)">
            <text x="0px" y="0px" style="font-family:'ArialMT', 'Arial', sans-serif;font-size:12.725px;">1N4001</text>
        </g>
    </g>
    <g transform="matrix(1,0,0,1,160.884,92.4526)">
        <text x="0px" y="0px" style="font-family:'ArialMT', 'Arial', sans-serif;font-size:12.725px;">V<tspan x="7.785px 14.862px " y="0px 0px ">ol</tspan>tage</text>
        <text x="7.788px" y="12.725px" style="font-family:'ArialMT', 'Arial', sans-serif;font-size:12.725px;">Reg.</text>
        <g transform="matrix(12.725,0,0,12.725,35.3821,25.45)">
        </g>
        <text x="7.074px" y="25.45px" style="font-family:'ArialMT', 'Arial', sans-serif;font-size:12.725px;">7805</text>
    </g>
    <g transform="matrix(1,0,0,1,313.119,86.0163)">
        <text x="0px" y="0px" style="font-family:'ArialMT', 'Arial', sans-serif;font-size:12.725px;">Force</text>
        <text x="0px" y="12.725px" style="font-family:'ArialMT', 'Arial', sans-serif;font-size:12.725px;">Sensing</text>
        <g transform="matrix(12.725,0,0,12.725,46.6687,25.45)">
        </g>
        <text x="0px" y="25.45px" style="font-family:'ArialMT', 'Arial', sans-serif;font-size:12.725px;">Resistor</text>
    </g>
    <g transform="matrix(1,0,0,1,6.59764,5.30184)">
        <path d="M260.329,109.645L299.285,70.689" style="fill:none;"/>
        <g transform="matrix(1,-0,-0,1,-6.59764,-5.30184)">
            <path d="M293.805,78.406L304.411,76.285C304.739,76.219 305.078,76.322 305.315,76.558C305.551,76.795 305.654,77.134 305.588,77.462L303.467,88.068C303.394,88.43 303.129,88.722 302.776,88.829C302.423,88.936 302.04,88.84 301.779,88.579L293.294,80.094C293.033,79.833 292.937,79.45 293.044,79.097C293.151,78.744 293.443,78.478 293.805,78.406ZM296.029,80.001L301.872,85.844L303.333,78.54L296.029,80.001Z"/>
            <path d="M267.633,115.654C267.243,116.044 266.609,116.044 266.219,115.654C265.829,115.263 265.829,114.63 266.219,114.239L297.536,82.922C297.927,82.532 298.56,82.532 298.951,82.922C299.341,83.313 299.341,83.946 298.951,84.336L267.633,115.654Z"/>
        </g>
    </g>
    <g>
        <g transform="matrix(1,0,0,1,226.518,193.527)">
            <text x="0px" y="0px" style="font-family:'ArialMT', 'Arial', sans-serif;font-size:12.725px;">Resistor</text>
        </g>
        <g transform="matrix(1,0,0,1,226.518,206.252)">
            <text x="0px" y="0px" style="font-family:'ArialMT', 'Arial', sans-serif;font-size:12.725px;">10kΩ</text>
        </g>
    </g>
</svg>
