<?xml version="1.0" encoding="UTF-8" standalone="no"?>
<!DOCTYPE svg PUBLIC "-//W3C//DTD SVG 1.1//EN" "http://www.w3.org/Graphics/SVG/1.1/DTD/svg11.dtd">
<svg width="100%" height="100%" viewBox="0 0 188 209" version="1.1" xmlns="http://www.w3.org/2000/svg" xmlns:xlink="http://www.w3.org/1999/xlink" xml:space="preserve" xmlns:serif="http://www.serif.com/" style="fill-rule:evenodd;clip-rule:evenodd;stroke-linecap:round;">
    <g id="Artboard1" transform="matrix(1,0,0,1,-111.333,9.08472)">
        <rect x="111.333" y="-9.085" width="187.382" height="208.506" style="fill:none;"/>
        <g transform="matrix(1,0,0,1,245.466,170.337)">
            <g>
                <g id="schematic">
                    <path id="connector0pin" d="M7.201,7.575L7.201,0.375" style="fill:none;fill-rule:nonzero;stroke:rgb(120,120,120);stroke-width:0.75px;"/>
                    <path id="path4098" d="M0.5,7.711L13.9,7.711" style="fill:none;fill-rule:nonzero;stroke:black;stroke-width:0.9px;"/>
                    <path id="path4100" d="M2.732,10.456L11.667,10.456" style="fill:none;fill-rule:nonzero;stroke:black;stroke-width:0.9px;"/>
                    <path id="path4102" d="M9.431,13.175L4.967,13.175" style="fill:none;fill-rule:nonzero;stroke:black;stroke-width:0.9px;"/>
                </g>
            </g>
        </g>
        <g transform="matrix(1,0,0,1,122.783,62.8154)">
            <g>
                <g id="schematic1" serif:id="schematic">
                    <rect x="14.4" y="14.4" width="37.5" height="50.4" style="fill:none;stroke:black;stroke-width:0.9px;stroke-linejoin:round;"/>
                    <g transform="matrix(1,0,0,1,24.1035,29.0004)">
                        <g>
                            <g>
                                <g>
                                    <g id="label_2_">
                                        <text x="0px" y="0px" style="font-family:'DroidSans', 'Droid Sans', sans-serif;font-size:3.5px;">APDS-9960</text>
                                        <g transform="matrix(1,0,0,1,1.4,4.2)">
                                            <text x="0px" y="0px" style="font-family:'DroidSans', 'Droid Sans', sans-serif;font-size:3.5px;">RGB and</text>
                                        </g>
                                        <g transform="matrix(1,0,0,1,2.4,8.4)">
                                            <text x="0px" y="0px" style="font-family:'DroidSans', 'Droid Sans', sans-serif;font-size:3.5px;">Gesture</text>
                                        </g>
                                        <g transform="matrix(1,0,0,1,2.8,12.6)">
                                            <text x="0px" y="0px" style="font-family:'DroidSans', 'Droid Sans', sans-serif;font-size:3.5px;">Sensor</text>
                                        </g>
                                        <g transform="matrix(1,0,0,1,-3.8,16.8)">
                                            <text x="0px" y="0px" style="font-family:'DroidSans', 'Droid Sans', sans-serif;font-size:3.5px;">Breakout Board</text>
                                        </g>
                                    </g>
                                </g>
                            </g>
                        </g>
                    </g>
                    <path d="M0.3,28.8L14.4,28.8" style="fill:none;fill-rule:nonzero;stroke:rgb(120,120,120);stroke-width:0.7px;stroke-linejoin:round;"/>
                    <rect id="connector0pin1" serif:id="connector0pin" x="0" y="28.5" width="14.4" height="0.7" style="fill:none;"/>
                    <path d="M0,28.5L0,29.2L0,28.5Z" style="fill:none;"/>
                    <g transform="matrix(1,0,0,1,15.8,29.5)">
                        <g>
                            <g>
                                <g>
                                    <text id="label2" x="0px" y="0px" style="font-family:'DroidSans', 'Droid Sans', sans-serif;font-size:3.5px;fill:rgb(140,140,140);">VL</text>
                                </g>
                            </g>
                        </g>
                    </g>
                    <path id="connector5pin" d="M0.3,35.7L14.4,35.7" style="fill:none;fill-rule:nonzero;stroke:rgb(120,120,120);stroke-width:0.7px;stroke-linejoin:round;"/>
                    <g transform="matrix(1,0,0,1,15.8,36.35)">
                        <g>
                            <g>
                                <g>
                                    <text id="label2_1_" x="0px" y="0px" style="font-family:'DroidSans', 'Droid Sans', sans-serif;font-size:3.5px;fill:rgb(140,140,140);">INT</text>
                                </g>
                            </g>
                        </g>
                    </g>
                    <path d="M52,28.8L66.4,28.8" style="fill:none;fill-rule:nonzero;stroke:rgb(120,120,120);stroke-width:0.7px;stroke-linejoin:round;"/>
                    <rect id="connector3pin" x="52.4" y="28.5" width="14.4" height="0.7" style="fill:none;"/>
                    <path d="M66.8,28.5L66.8,29.2L66.8,28.5Z" style="fill:none;"/>
                    <g transform="matrix(1,0,0,1,43.9197,29.5)">
                        <g>
                            <g>
                                <g>
                                    <text id="label1" x="0px" y="0px" style="font-family:'DroidSans', 'Droid Sans', sans-serif;font-size:3.5px;fill:rgb(140,140,140);">SDA</text>
                                </g>
                            </g>
                        </g>
                    </g>
                    <path d="M52,36L66.4,36" style="fill:none;fill-rule:nonzero;stroke:rgb(120,120,120);stroke-width:0.7px;stroke-linejoin:round;"/>
                    <rect id="connector4pin" x="52.4" y="35.7" width="14.4" height="0.7" style="fill:none;"/>
                    <path d="M66.8,35.7L66.8,36.4L66.8,35.7Z" style="fill:none;"/>
                    <g transform="matrix(1,0,0,1,43.9795,36.7)">
                        <g>
                            <g>
                                <g>
                                    <text id="label3" x="0px" y="0px" style="font-family:'DroidSans', 'Droid Sans', sans-serif;font-size:3.5px;fill:rgb(140,140,140);">SCL</text>
                                </g>
                            </g>
                        </g>
                    </g>
                    <path id="connector1pin" d="M33,0.4L33,14.4" style="fill:none;fill-rule:nonzero;stroke:rgb(120,120,120);stroke-width:0.7px;stroke-linejoin:round;"/>
                    <rect x="28.4" y="0" width="0.7" height="14.4" style="fill:none;"/>
                    <path d="M28.5,0L29.1,0L28.5,0Z" style="fill:none;fill-rule:nonzero;"/>
                    <g transform="matrix(7.04481e-16,-1,1,7.04481e-16,34.3999,22.7969)">
                        <g>
                            <g>
                                <g>
                                    <g>
                                        <g>
                                            <g>
                                                <g>
                                                    <g>
                                                        <g>
                                                            <g>
                                                                <g>
                                                                    <g>
                                                                        <g>
                                                                            <text id="label4" x="0px" y="0px" style="font-family:'DroidSans', 'Droid Sans', sans-serif;font-size:3.5px;fill:rgb(140,140,140);">VC<tspan x="3.958px " y="0px ">C</tspan></text>
                                                                        </g>
                                                                    </g>
                                                                </g>
                                                            </g>
                                                        </g>
                                                    </g>
                                                </g>
                                            </g>
                                        </g>
                                    </g>
                                </g>
                            </g>
                        </g>
                    </g>
                    <path id="connector2pin" d="M33.7,64.8L33.7,78.9" style="fill:none;fill-rule:nonzero;stroke:rgb(120,120,120);stroke-width:0.7px;stroke-linejoin:round;"/>
                    <rect x="28.4" y="64.8" width="0.7" height="14.4" style="fill:none;"/>
                    <path d="M28.5,79.2L29.1,79.2L28.5,79.2Z" style="fill:none;fill-rule:nonzero;"/>
                    <g transform="matrix(7.04481e-16,-1,1,7.04481e-16,35.0998,63.2002)">
                        <g>
                            <g>
                                <g>
                                    <g>
                                        <g>
                                            <g>
                                                <g>
                                                    <g>
                                                        <g>
                                                            <g>
                                                                <g>
                                                                    <g>
                                                                        <g>
                                                                            <text id="label0" x="0px" y="0px" style="font-family:'DroidSans', 'Droid Sans', sans-serif;font-size:3.5px;fill:rgb(140,140,140);">GND</text>
                                                                        </g>
                                                                    </g>
                                                                </g>
                                                            </g>
                                                        </g>
                                                    </g>
                                                </g>
                                            </g>
                                        </g>
                                    </g>
                                </g>
                            </g>
                        </g>
                    </g>
                </g>
            </g>
        </g>
        <g transform="matrix(1,0,0,1,209.34,12.4436)">
            <g>
                <g id="schematic2" serif:id="schematic">
                    <rect x="14.85" y="14.85" width="56.7" height="128.7" style="fill:white;stroke:black;stroke-width:0.9px;"/>
                    <path id="connector45pin" d="M71.65,28.8L86.05,28.8" style="fill:none;fill-rule:nonzero;"/>
                    <path id="connector57pin" d="M71.65,28.8L86.05,28.8" style="fill:none;fill-rule:nonzero;stroke:rgb(120,120,120);stroke-width:0.7px;"/>
                    <g transform="matrix(1,0,0,1,70.2499,29.4999)">
                        <text x="-13.509px" y="0px" style="font-family:'DroidSans', 'Droid Sans', sans-serif;font-size:3.5px;fill:rgb(140,140,140);">D13/SCK</text>
                    </g>
                    <rect id="connector57terminal" x="86.05" y="28.45" width="0.7" height="0.7" style="fill:none;"/>
                    <path id="connector30pin" d="M71.65,36L86.05,36" style="fill:none;fill-rule:nonzero;"/>
                    <path id="connector55pin" d="M71.65,36L86.05,36" style="fill:none;fill-rule:nonzero;stroke:rgb(120,120,120);stroke-width:0.7px;"/>
                    <g transform="matrix(1,0,0,1,70.2499,36.6999)">
                        <text x="-12.918px" y="0px" style="font-family:'DroidSans', 'Droid Sans', sans-serif;font-size:3.5px;fill:rgb(140,140,140);">D12/SDI</text>
                    </g>
                    <rect id="connector55terminal" x="86.05" y="35.65" width="0.7" height="0.7" style="fill:none;"/>
                    <path id="connector29pin" d="M71.65,43.2L86.05,43.2" style="fill:none;fill-rule:nonzero;"/>
                    <path id="connector58pin" d="M71.65,43.2L86.05,43.2" style="fill:none;fill-rule:nonzero;stroke:rgb(120,120,120);stroke-width:0.7px;"/>
                    <g transform="matrix(1,0,0,1,70.2499,43.8999)">
                        <text x="-14.364px" y="0px" style="font-family:'DroidSans', 'Droid Sans', sans-serif;font-size:3.5px;fill:rgb(140,140,140);">D11/SDO</text>
                    </g>
                    <rect id="connector58terminal" x="86.05" y="42.85" width="0.7" height="0.7" style="fill:none;"/>
                    <path id="connector28pin" d="M71.65,50.4L86.05,50.4" style="fill:none;fill-rule:nonzero;stroke:rgb(120,120,120);stroke-width:0.7px;"/>
                    <g transform="matrix(1,0,0,1,70.2499,51.0999)">
                        <text x="-6.25px" y="0px" style="font-family:'DroidSans', 'Droid Sans', sans-serif;font-size:3.5px;fill:rgb(140,140,140);">D10</text>
                    </g>
                    <path id="connector27pin" d="M71.65,57.6L86.05,57.6" style="fill:none;fill-rule:nonzero;stroke:rgb(120,120,120);stroke-width:0.7px;"/>
                    <g transform="matrix(1,0,0,1,70.2499,58.2999)">
                        <text x="-4.322px" y="0px" style="font-family:'DroidSans', 'Droid Sans', sans-serif;font-size:3.5px;fill:rgb(140,140,140);">D9</text>
                    </g>
                    <path id="connector26pin" d="M71.65,64.8L86.05,64.8" style="fill:none;fill-rule:nonzero;stroke:rgb(120,120,120);stroke-width:0.7px;"/>
                    <g transform="matrix(1,0,0,1,70.2499,65.4999)">
                        <text x="-4.322px" y="0px" style="font-family:'DroidSans', 'Droid Sans', sans-serif;font-size:3.5px;fill:rgb(140,140,140);">D8</text>
                    </g>
                    <path id="connector25pin" d="M71.65,72L86.05,72" style="fill:none;fill-rule:nonzero;stroke:rgb(120,120,120);stroke-width:0.7px;"/>
                    <g transform="matrix(1,0,0,1,70.2499,72.6999)">
                        <text x="-4.322px" y="0px" style="font-family:'DroidSans', 'Droid Sans', sans-serif;font-size:3.5px;fill:rgb(140,140,140);">D7</text>
                    </g>
                    <path id="connector24pin" d="M71.65,79.2L86.05,79.2" style="fill:none;fill-rule:nonzero;stroke:rgb(120,120,120);stroke-width:0.7px;"/>
                    <g transform="matrix(1,0,0,1,70.2499,79.8999)">
                        <text x="-4.322px" y="0px" style="font-family:'DroidSans', 'Droid Sans', sans-serif;font-size:3.5px;fill:rgb(140,140,140);">D6</text>
                    </g>
                    <path id="connector23pin" d="M71.65,86.4L86.05,86.4" style="fill:none;fill-rule:nonzero;stroke:rgb(120,120,120);stroke-width:0.7px;"/>
                    <g transform="matrix(1,0,0,1,70.2499,87.0999)">
                        <text x="-4.322px" y="0px" style="font-family:'DroidSans', 'Droid Sans', sans-serif;font-size:3.5px;fill:rgb(140,140,140);">D5</text>
                    </g>
                    <path id="connector22pin" d="M71.65,93.6L86.05,93.6" style="fill:none;fill-rule:nonzero;stroke:rgb(120,120,120);stroke-width:0.7px;"/>
                    <g transform="matrix(1,0,0,1,70.2499,94.2999)">
                        <text x="-4.322px" y="0px" style="font-family:'DroidSans', 'Droid Sans', sans-serif;font-size:3.5px;fill:rgb(140,140,140);">D4</text>
                    </g>
                    <path id="connector21pin" d="M71.65,100.8L86.05,100.8" style="fill:none;fill-rule:nonzero;stroke:rgb(120,120,120);stroke-width:0.7px;"/>
                    <g transform="matrix(1,0,0,1,70.2499,101.5)">
                        <text x="-4.322px" y="0px" style="font-family:'DroidSans', 'Droid Sans', sans-serif;font-size:3.5px;fill:rgb(140,140,140);">D3</text>
                    </g>
                    <path id="connector20pin" d="M71.65,108L86.05,108" style="fill:none;fill-rule:nonzero;stroke:rgb(120,120,120);stroke-width:0.7px;"/>
                    <g transform="matrix(1,0,0,1,70.2499,108.7)">
                        <text x="-4.322px" y="0px" style="font-family:'DroidSans', 'Droid Sans', sans-serif;font-size:3.5px;fill:rgb(140,140,140);">D2</text>
                    </g>
                    <path id="connector16pin" d="M71.65,122.4L86.05,122.4" style="fill:none;fill-rule:nonzero;stroke:rgb(120,120,120);stroke-width:0.7px;"/>
                    <g transform="matrix(1,0,0,1,70.2499,123.1)">
                        <text x="-9.358px" y="0px" style="font-family:'DroidSans', 'Droid Sans', sans-serif;font-size:3.5px;fill:rgb(140,140,140);">D1/TX</text>
                    </g>
                    <path id="connector17pin" d="M71.65,129.6L86.05,129.6" style="fill:none;fill-rule:nonzero;stroke:rgb(120,120,120);stroke-width:0.7px;"/>
                    <g transform="matrix(1,0,0,1,70.2499,130.3)">
                        <text x="-9.606px" y="0px" style="font-family:'DroidSans', 'Droid Sans', sans-serif;font-size:3.5px;fill:rgb(140,140,140);">D0/RX</text>
                    </g>
                    <path id="connector33pin" d="M0.35,28.8L14.75,28.8" style="fill:none;fill-rule:nonzero;"/>
                    <path id="connector18pin" d="M0.35,28.8L14.75,28.8" style="fill:none;fill-rule:nonzero;"/>
                    <path id="connector59pin" d="M0.35,28.8L14.75,28.8" style="fill:none;fill-rule:nonzero;stroke:rgb(120,120,120);stroke-width:0.7px;"/>
                    <g transform="matrix(1,0,0,1,16.15,29.4999)">
                        <text x="0px" y="0px" style="font-family:'DroidSans', 'Droid Sans', sans-serif;font-size:3.5px;fill:rgb(140,140,140);">RESET</text>
                    </g>
                    <rect id="connector59terminal" x="-0.35" y="28.45" width="0.7" height="0.7" style="fill:none;"/>
                    <path id="connector43pin" d="M0.35,36L14.75,36" style="fill:none;fill-rule:nonzero;stroke:rgb(120,120,120);stroke-width:0.7px;"/>
                    <g transform="matrix(1,0,0,1,16.15,36.6999)">
                        <text x="0px" y="0px" style="font-family:'DroidSans', 'Droid Sans', sans-serif;font-size:3.5px;fill:rgb(140,140,140);">AREF</text>
                    </g>
                    <path id="connector42pin" d="M0.35,50.4L14.75,50.4" style="fill:none;fill-rule:nonzero;stroke:rgb(120,120,120);stroke-width:0.7px;"/>
                    <g transform="matrix(1,0,0,1,16.15,51.0999)">
                        <text x="0px" y="0px" style="font-family:'DroidSans', 'Droid Sans', sans-serif;font-size:3.5px;fill:rgb(140,140,140);">A0</text>
                    </g>
                    <path id="connector41pin" d="M0.35,57.6L14.75,57.6" style="fill:none;fill-rule:nonzero;stroke:rgb(120,120,120);stroke-width:0.7px;"/>
                    <g transform="matrix(1,0,0,1,16.15,58.2999)">
                        <text x="0px" y="0px" style="font-family:'DroidSans', 'Droid Sans', sans-serif;font-size:3.5px;fill:rgb(140,140,140);">A1</text>
                    </g>
                    <path id="connector40pin" d="M0.35,64.8L14.75,64.8" style="fill:none;fill-rule:nonzero;stroke:rgb(120,120,120);stroke-width:0.7px;"/>
                    <g transform="matrix(1,0,0,1,16.15,65.4999)">
                        <text x="0px" y="0px" style="font-family:'DroidSans', 'Droid Sans', sans-serif;font-size:3.5px;fill:rgb(140,140,140);">A2</text>
                    </g>
                    <path id="connector39pin" d="M0.35,72L14.75,72" style="fill:none;fill-rule:nonzero;stroke:rgb(120,120,120);stroke-width:0.7px;"/>
                    <g transform="matrix(1,0,0,1,16.15,72.6999)">
                        <text x="0px" y="0px" style="font-family:'DroidSans', 'Droid Sans', sans-serif;font-size:3.5px;fill:rgb(140,140,140);">A3</text>
                    </g>
                    <path id="connector38pin" d="M0.35,79.2L14.75,79.2" style="fill:none;fill-rule:nonzero;stroke:rgb(120,120,120);stroke-width:0.7px;"/>
                    <g transform="matrix(1,0,0,1,16.15,79.8999)">
                        <text x="0px" y="0px" style="font-family:'DroidSans', 'Droid Sans', sans-serif;font-size:3.5px;fill:rgb(140,140,140);">A4/SDA</text>
                    </g>
                    <path id="connector37pin" d="M0.35,86.4L14.75,86.4" style="fill:none;fill-rule:nonzero;stroke:rgb(120,120,120);stroke-width:0.7px;"/>
                    <g transform="matrix(1,0,0,1,16.15,87.0999)">
                        <text x="0px" y="0px" style="font-family:'DroidSans', 'Droid Sans', sans-serif;font-size:3.5px;fill:rgb(140,140,140);">A5/SCL</text>
                    </g>
                    <path id="connector36pin" d="M0.35,93.6L14.75,93.6" style="fill:none;fill-rule:nonzero;stroke:rgb(120,120,120);stroke-width:0.7px;"/>
                    <g transform="matrix(1,0,0,1,16.15,94.2999)">
                        <text x="0px" y="0px" style="font-family:'DroidSans', 'Droid Sans', sans-serif;font-size:3.5px;fill:rgb(140,140,140);">A6</text>
                    </g>
                    <path id="connector35pin" d="M0.35,100.8L14.75,100.8" style="fill:none;fill-rule:nonzero;stroke:rgb(120,120,120);stroke-width:0.7px;"/>
                    <g transform="matrix(1,0,0,1,16.15,101.5)">
                        <text x="0px" y="0px" style="font-family:'DroidSans', 'Droid Sans', sans-serif;font-size:3.5px;fill:rgb(140,140,140);">A7</text>
                    </g>
                    <path id="connector19pin" d="M43.2,143.65L43.2,158.05" style="fill:none;fill-rule:nonzero;"/>
                    <path id="connector32pin" d="M43.2,143.65L43.2,158.05" style="fill:none;fill-rule:nonzero;"/>
                    <path id="connector60pin" d="M43.2,143.65L43.2,158.05" style="fill:none;fill-rule:nonzero;stroke:rgb(120,120,120);stroke-width:0.7px;"/>
                    <g transform="matrix(7.04481e-16,-1,1,7.04481e-16,43.8999,142.25)">
                        <g>
                            <g>
                                <g>
                                    <text x="0px" y="0px" style="font-family:'DroidSans', 'Droid Sans', sans-serif;font-size:3.5px;fill:rgb(140,140,140);">GND</text>
                                </g>
                            </g>
                        </g>
                    </g>
                    <rect id="connector60terminal" x="42.85" y="158.05" width="0.7" height="0.7" style="fill:none;"/>
                    <path id="connector31pin" d="M28.8,0.35L28.8,14.75" style="fill:none;fill-rule:nonzero;stroke:rgb(120,120,120);stroke-width:0.7px;"/>
                    <g transform="matrix(7.04481e-16,-1,1,7.04481e-16,29.4999,16.15)">
                        <g>
                            <g>
                                <g>
                                    <text x="-5.725px" y="0px" style="font-family:'DroidSans', 'Droid Sans', sans-serif;font-size:3.5px;fill:rgb(140,140,140);">VIN</text>
                                </g>
                            </g>
                        </g>
                    </g>
                    <path id="connector34pin" d="M43.2,0.35L43.2,14.75" style="fill:none;fill-rule:nonzero;"/>
                    <path id="connector56pin" d="M43.2,0.35L43.2,14.75" style="fill:none;fill-rule:nonzero;stroke:rgb(120,120,120);stroke-width:0.7px;"/>
                    <g transform="matrix(7.04481e-16,-1,1,7.04481e-16,43.8999,16.15)">
                        <g>
                            <g>
                                <g>
                                    <text x="-7.608px" y="0px" style="font-family:'DroidSans', 'Droid Sans', sans-serif;font-size:3.5px;fill:rgb(140,140,140);">Vusb</text>
                                </g>
                            </g>
                        </g>
                    </g>
                    <rect id="connector56terminal" x="42.85" y="-0.35" width="0.7" height="0.7" style="fill:none;"/>
                    <path id="connector44pin" d="M57.6,0.35L57.6,14.75" style="fill:none;fill-rule:nonzero;stroke:rgb(120,120,120);stroke-width:0.7px;"/>
                    <g transform="matrix(7.04481e-16,-1,1,7.04481e-16,58.2999,16.15)">
                        <g>
                            <g>
                                <g>
                                    <text x="-5.843px" y="0px" style="font-family:'DroidSans', 'Droid Sans', sans-serif;font-size:3.5px;fill:rgb(140,140,140);">3V3</text>
                                </g>
                            </g>
                        </g>
                    </g>
                    <g id="label" transform="matrix(1,0,0,1,43.6499,72.8498)">
                        <text x="-7.664px" y="0px" style="font-family:'DroidSans', 'Droid Sans', sans-serif;font-size:4.25px;">Arduino</text>
                    </g>
                    <g id="label5" serif:id="label" transform="matrix(1,0,0,1,43.6499,77.3833)">
                        <text x="-5.155px" y="0px" style="font-family:'DroidSans', 'Droid Sans', sans-serif;font-size:4.25px;">Nano</text>
                    </g>
                </g>
            </g>
        </g>
        <g transform="matrix(1,0,0,1,0.332866,0.915278)">
            <path d="M266.583,3.817L266.75,18.75" style="fill:none;fill-rule:nonzero;stroke:rgb(64,64,64);stroke-width:0.7px;"/>
        </g>
        <g transform="matrix(0.770678,0,0,0.770678,61.4665,1.79056)">
            <path d="M122.45,3.817L266.584,3.817" style="fill:none;fill-rule:nonzero;stroke:rgb(64,64,64);stroke-width:0.7px;"/>
        </g>
        <g transform="matrix(0.997328,0,0,0.670515,33.6217,2.29493)">
            <path d="M122.45,90.75L122.45,3.817" style="fill:none;fill-rule:nonzero;stroke:rgb(64,64,64);stroke-width:0.7px;"/>
        </g>
        <g transform="matrix(1,0,0,1,0.332866,0.915278)">
            <path d="M156.15,169.698L252.039,169.698" style="fill:none;fill-rule:nonzero;stroke:rgb(64,64,64);stroke-width:0.7px;"/>
        </g>
        <g transform="matrix(1,0,0,1,0.332866,0.915278)">
            <path d="M156.15,141.15L156.15,169.698" style="fill:none;fill-rule:nonzero;stroke:rgb(64,64,64);stroke-width:0.7px;"/>
        </g>
        <g transform="matrix(1,0,0,1,0.376366,8.37378)">
            <circle cx="252.35" cy="162.05" r="1.44"/>
        </g>
        <g transform="matrix(1,0,0,1,0.332866,0.915278)">
            <path d="M189.148,90.721L209.368,90.699" style="fill:none;stroke:black;stroke-width:0.7px;stroke-linejoin:round;stroke-miterlimit:1.5;"/>
            <g transform="matrix(1,0,0,1,0,0.2244)">
                <path d="M209.385,97.643L188.784,97.643" style="fill:none;stroke:black;stroke-width:0.7px;stroke-linejoin:round;stroke-miterlimit:1.5;"/>
            </g>
        </g>
    </g>
    <g id="partLabel">
    </g>
    <g id="partLabel1" serif:id="partLabel">
    </g>
    <g id="partLabel2" serif:id="partLabel">
    </g>
</svg>
