<?xml version="1.0" encoding="utf-8"?>
<!-- Generator: Adobe Illustrator 16.0.4, SVG Export Plug-In . SVG Version: 6.00 Build 0)  -->
<!DOCTYPE svg PUBLIC "-//W3C//DTD SVG 1.1//EN" "http://www.w3.org/Graphics/SVG/1.1/DTD/svg11.dtd">
<svg version="1.1" id="Layer_1" xmlns:svg="http://www.w3.org/2000/svg"
	 xmlns="http://www.w3.org/2000/svg" xmlns:xlink="http://www.w3.org/1999/xlink" x="0px" y="0px" width="588px" height="600px"
	 viewBox="-182.525 -176.752 588 600" enable-background="new -182.525 -176.752 588 600" xml:space="preserve">
<g>
	<g transform="translate(212.759,57.717)">
		<g transform="matrix(0,1,-1,0,0,0)">
			<g id="schematic">
				
					<line fill="none" stroke="#000000" stroke-width="2" stroke-linecap="round" x1="-31.71" y1="-110.079" x2="-27.417" y2="-110.079"/>
				
					<line fill="none" stroke="#000000" stroke-width="2" stroke-linecap="round" x1="-61.764" y1="-110.079" x2="-31.71" y2="-118.668"/>
				<circle fill="none" stroke="#000000" stroke-width="2" cx="-61.764" cy="-110.08" r="0.858"/>
				<circle fill="none" stroke="#000000" stroke-width="2" cx="-27.417" cy="-110.08" r="0.858"/>
				<g transform="matrix(1, 0, 0, 1, 2.7612, 2.718)">
					<text transform="matrix(1 0 0 1 -75.1127 -132.9299)" fill="#787878" font-family="'ArialMT'" font-size="4.7706">1</text>
				</g>
				<g transform="matrix(1, 0, 0, 1, 24.604, 2.718)">
					<text transform="matrix(1 0 0 1 -44.853 -132.9299)" fill="#787878" font-family="'ArialMT'" font-size="4.7706">2</text>
				</g>
				<g transform="matrix(1, 0, 0, 1, 2.7612, 16.843)">
					<text transform="matrix(1 0 0 1 -75.1127 -113.3635)" fill="#787878" font-family="'ArialMT'" font-size="4.7706">1</text>
				</g>
				<g transform="matrix(1, 0, 0, 1, 24.604, 16.843)">
					<text transform="matrix(1 0 0 1 -44.853 -113.3635)" fill="#787878" font-family="'ArialMT'" font-size="4.7706">2</text>
				</g>
				
					<line fill="none" stroke="#000000" stroke-width="2" stroke-linecap="round" x1="-27.417" y1="-127.251" x2="-27.417" y2="-92.906"/>
				
					<line fill="none" stroke="#000000" stroke-width="2" stroke-linecap="round" x1="-61.764" y1="-127.251" x2="-61.764" y2="-92.906"/>
				
					<line id="connector3pin" fill="none" stroke="#555555" stroke-width="2" stroke-linecap="round" x1="-78.17" y1="-92.906" x2="-61.764" y2="-92.906"/>
				
					<line id="connector2pin" fill="none" stroke="#555555" stroke-width="2" stroke-linecap="round" x1="-78.17" y1="-127.251" x2="-61.764" y2="-127.251"/>
				<g id="connector2terminal">
				</g>
				<g id="connector3terminal">
				</g>
				
					<line id="connector1pin" fill="none" stroke="#555555" stroke-width="2" stroke-linecap="round" x1="-11.074" y1="-92.906" x2="-27.417" y2="-92.906"/>
				<g id="connector1terminal">
				</g>
				<g id="connector0terminal">
				</g>
				
					<line id="connector0pin" fill="none" stroke="#555555" stroke-width="2" stroke-linecap="round" x1="-11.074" y1="-127.251" x2="-27.417" y2="-127.251"/>
			</g>
		</g>
	</g>
</g>
<g>
	<g transform="translate(119.699,136.157)">
		<g id="schematic_1_">
			<g>
				<path d="M39.983,65.425h-8.589c-0.459,0-0.834-0.373-0.834-0.837c0-0.461,0.373-0.834,0.834-0.834h8.589
					c0.458,0,0.834,0.373,0.834,0.834C40.817,65.052,40.444,65.425,39.983,65.425z"/>
			</g>
			<g>
				<path d="M31.394,65.425h-8.586c-0.462,0-0.834-0.373-0.834-0.837c0-0.461,0.372-0.834,0.834-0.834h8.586
					c0.461,0,0.836,0.373,0.836,0.834C32.23,65.052,31.855,65.425,31.394,65.425z"/>
			</g>
			<g>
				<polygon fill="#FFFFFF" points="31.394,64.588 22.808,47.417 31.394,47.417 39.983,47.417 				"/>
				<path d="M31.394,66.455L21.457,46.58h19.877L31.394,66.455z M24.159,48.25l7.235,14.475l7.237-14.475H24.159z"/>
			</g>
			<g>
				<path d="M31.394,65.126c-0.296,0-0.536-0.242-0.536-0.538V47.417c0-0.296,0.24-0.538,0.536-0.538s0.538,0.242,0.538,0.538
					v17.172C31.93,64.884,31.69,65.126,31.394,65.126z"/>
			</g>
			<g>
				<path d="M12.074,58.686c-0.138,0-0.274-0.052-0.38-0.156c-0.209-0.21-0.209-0.548,0-0.757l5.582-5.584
					c0.209-0.212,0.549-0.212,0.759,0c0.21,0.21,0.21,0.548,0,0.757l-5.581,5.584C12.349,58.634,12.211,58.686,12.074,58.686z"/>
			</g>
			<g>
				<path d="M12.933,66.415c-0.14,0-0.274-0.051-0.38-0.155c-0.209-0.21-0.209-0.548,0-0.76l5.582-5.581
					c0.209-0.21,0.55-0.21,0.759,0c0.21,0.209,0.21,0.55,0,0.759l-5.583,5.582C13.208,66.361,13.071,66.415,12.933,66.415z"/>
			</g>
			<g id="connector0pin_1_">
				<path fill="#787878" d="M31.394,82.599c-0.459,0-0.834-0.372-0.834-0.836V64.588c0-0.459,0.373-0.834,0.834-0.834
					c0.464,0,0.836,0.373,0.836,0.834v17.175C32.228,82.227,31.855,82.599,31.394,82.599z"/>
			</g>
			<g id="connector0terminal_1_">
				<rect x="31.394" y="81.763" fill="none" width="0.002" height="0.002"/>
			</g>
			<g transform="matrix(1, 0, 0, 1, 3.429, 6.4262)">
				<g>
					<g transform="rotate(270)">
						<g>
							<g enable-background="new    ">
								<path fill="#787878" d="M-66.408,25.745h-2.127v-0.363l0.815-0.888c0.119-0.126,0.224-0.24,0.312-0.345
									c0.09-0.105,0.17-0.205,0.237-0.306c0.061-0.1,0.111-0.2,0.146-0.298c0.037-0.103,0.052-0.21,0.052-0.328
									c0-0.091-0.012-0.173-0.042-0.245c-0.028-0.072-0.063-0.128-0.112-0.179c-0.049-0.047-0.107-0.082-0.172-0.11
									c-0.068-0.025-0.145-0.037-0.227-0.037c-0.146,0-0.281,0.03-0.398,0.091c-0.121,0.057-0.232,0.136-0.34,0.229l-0.24-0.277
									c0.061-0.054,0.133-0.109,0.201-0.153c0.069-0.052,0.151-0.094,0.232-0.131c0.082-0.035,0.17-0.061,0.259-0.084
									c0.091-0.021,0.188-0.032,0.289-0.032c0.151,0,0.284,0.023,0.402,0.062c0.124,0.042,0.227,0.103,0.308,0.182
									c0.084,0.077,0.151,0.17,0.195,0.284c0.047,0.114,0.068,0.24,0.068,0.38c0,0.135-0.021,0.259-0.063,0.378
									c-0.039,0.118-0.096,0.239-0.165,0.354c-0.074,0.114-0.158,0.23-0.261,0.348c-0.098,0.116-0.208,0.239-0.324,0.363
									l-0.654,0.701v0.019h1.607V25.745z"/>
							</g>
						</g>
					</g>
				</g>
			</g>
			<g id="connector1pin_1_">
				<path fill="#787878" d="M31.394,48.25c-0.459,0-0.834-0.375-0.834-0.834V30.242c0-0.462,0.373-0.837,0.834-0.837
					c0.464,0,0.836,0.375,0.836,0.837v17.175C32.228,47.875,31.855,48.25,31.394,48.25z"/>
			</g>
			<g id="connector1terminal_1_">
				<polygon fill="none" points="31.394,30.242 31.396,30.242 31.396,30.242 				"/>
			</g>
			<g transform="matrix(1, 0, 0, 1, 3.429, 1.3462)">
				<g>
					<g transform="rotate(270)">
						<g>
							<g enable-background="new    ">
								<path fill="#787878" d="M-37.831,25.745h-0.41v-2.127c0-0.067,0-0.14,0-0.217c0-0.074,0.003-0.149,0.005-0.226
									c0.003-0.077,0.005-0.149,0.007-0.22c0.003-0.067,0.005-0.128,0.005-0.182c-0.025,0.028-0.049,0.052-0.067,0.072
									c-0.021,0.021-0.042,0.04-0.062,0.057c-0.021,0.019-0.045,0.039-0.068,0.061c-0.023,0.019-0.049,0.046-0.084,0.072
									l-0.345,0.281l-0.224-0.286l0.893-0.696h0.347v3.41H-37.831z"/>
							</g>
						</g>
					</g>
				</g>
			</g>
			<g>
				<path d="M8.209,62.012L10.786,56l3.436,3.429L8.209,62.012z"/>
			</g>
			<g>
				<path d="M9.069,69.742l2.576-6.013l3.429,3.429L9.069,69.742z"/>
			</g>
		</g>
	</g>
</g>
<g>
	<g transform="translate(162.899,128.957)">
		<g id="schematic_2_">
			<g>
				<path d="M99.829,55.45H91.24c-0.459,0-0.834-0.373-0.834-0.834c0-0.464,0.373-0.837,0.834-0.837h8.589
					c0.459,0,0.834,0.373,0.834,0.837C100.663,55.077,100.29,55.45,99.829,55.45z"/>
			</g>
			<g>
				<path d="M91.24,55.45h-8.586c-0.461,0-0.836-0.373-0.836-0.834c0-0.464,0.375-0.837,0.836-0.837h8.586
					c0.461,0,0.836,0.373,0.836,0.837C92.076,55.077,91.701,55.45,91.24,55.45z"/>
			</g>
			<g>
				<polygon fill="#FFFFFF" points="91.24,54.616 82.654,37.442 91.24,37.442 99.829,37.442 				"/>
				<path d="M91.24,56.48l-9.938-19.875h19.877L91.24,56.48z M84.003,38.276L91.24,52.75l7.237-14.475H84.003z"/>
			</g>
			<g>
				<path d="M91.24,55.152c-0.296,0-0.535-0.239-0.535-0.535V37.442c0-0.296,0.239-0.538,0.535-0.538s0.538,0.242,0.538,0.538
					v17.175C91.776,54.912,91.536,55.152,91.24,55.152z"/>
			</g>
			<g>
				<path d="M71.92,48.711c-0.14,0-0.274-0.049-0.379-0.154c-0.21-0.212-0.21-0.549,0-0.759l5.581-5.584
					c0.209-0.209,0.55-0.209,0.759,0c0.21,0.21,0.21,0.548,0,0.757l-5.581,5.586C72.195,48.662,72.057,48.711,71.92,48.711z"/>
			</g>
			<g>
				<path d="M72.777,56.44c-0.138,0-0.272-0.051-0.377-0.155c-0.21-0.21-0.21-0.548,0-0.758l5.581-5.581
					c0.21-0.212,0.547-0.212,0.757,0c0.212,0.21,0.212,0.548,0,0.757l-5.581,5.582C73.054,56.387,72.917,56.44,72.777,56.44z"/>
			</g>
			<g id="connector0pin_2_">
				<path fill="#787878" d="M91.24,72.625c-0.459,0-0.834-0.373-0.834-0.837V54.616c0-0.462,0.373-0.837,0.834-0.837
					c0.464,0,0.836,0.373,0.836,0.837v17.172C92.074,72.252,91.701,72.625,91.24,72.625z"/>
			</g>
			<g id="connector0terminal_2_">
				<rect x="91.24" y="71.788" fill="none" width="0.002" height="0.003"/>
			</g>
			<g transform="matrix(1, 0, 0, 1, 3.429, 6.4262)">
				<g>
					<g transform="rotate(270)">
						<g>
							<g enable-background="new    ">
								<path fill="#787878" d="M-56.436,85.591h-2.124v-0.363l0.815-0.888c0.116-0.126,0.221-0.24,0.312-0.345
									s0.171-0.205,0.238-0.306c0.061-0.1,0.111-0.2,0.146-0.298c0.035-0.103,0.051-0.21,0.051-0.331
									c0-0.088-0.014-0.17-0.041-0.242c-0.028-0.072-0.063-0.128-0.112-0.179c-0.049-0.047-0.107-0.084-0.175-0.109
									c-0.065-0.026-0.142-0.038-0.224-0.038c-0.146,0-0.282,0.031-0.398,0.092c-0.121,0.056-0.232,0.135-0.34,0.228l-0.24-0.277
									c0.061-0.053,0.133-0.109,0.2-0.153c0.07-0.051,0.152-0.093,0.233-0.131c0.079-0.034,0.168-0.061,0.259-0.086
									c0.091-0.019,0.188-0.03,0.289-0.03c0.151,0,0.284,0.021,0.402,0.063c0.121,0.041,0.224,0.102,0.308,0.182
									c0.084,0.074,0.151,0.17,0.195,0.281c0.047,0.117,0.068,0.242,0.068,0.382c0,0.136-0.021,0.259-0.063,0.378
									c-0.039,0.118-0.098,0.237-0.165,0.354c-0.075,0.114-0.158,0.231-0.261,0.348c-0.098,0.116-0.208,0.237-0.324,0.363
									l-0.654,0.701v0.019h1.604V85.591z"/>
							</g>
						</g>
					</g>
				</g>
			</g>
			<g id="connector1pin_2_">
				<path fill="#787878" d="M91.24,38.276c-0.459,0-0.834-0.375-0.834-0.834V20.267c0-0.462,0.373-0.834,0.834-0.834
					c0.464,0,0.836,0.372,0.836,0.834v17.175C92.074,37.901,91.701,38.276,91.24,38.276z"/>
			</g>
			<g id="connector1terminal_2_">
				<polygon fill="none" points="91.24,20.267 91.242,20.267 91.242,20.267 				"/>
			</g>
			<g transform="matrix(1, 0, 0, 1, 3.429, 1.3462)">
				<g>
					<g transform="rotate(270)">
						<g>
							<g enable-background="new    ">
								<path fill="#787878" d="M-27.856,85.591h-0.41v-2.129c0-0.065,0-0.138,0-0.215c0-0.074,0.003-0.148,0.005-0.226
									s0.005-0.149,0.007-0.219c0.003-0.067,0.005-0.129,0.005-0.182c-0.025,0.027-0.051,0.049-0.07,0.072
									c-0.019,0.021-0.039,0.039-0.061,0.056c-0.022,0.017-0.044,0.039-0.067,0.061c-0.023,0.019-0.051,0.044-0.084,0.072
									l-0.345,0.279l-0.226-0.284l0.893-0.696h0.349v3.41H-27.856z"/>
							</g>
						</g>
					</g>
				</g>
			</g>
			<g>
				<path d="M68.055,52.039l2.576-6.014l3.434,3.431L68.055,52.039z"/>
			</g>
			<g>
				<path d="M68.915,59.767l2.574-6.013l3.432,3.429L68.915,59.767z"/>
			</g>
		</g>
	</g>
</g>
<g>
	<g transform="translate(132.696,100.023)">
		<g transform="matrix(0,1,-1,0,0,0)">
			<g id="schematic_3_">
				
					<line fill="none" stroke="#000000" stroke-width="2" stroke-linecap="round" x1="-2.321" y1="-18.399" x2="0.253" y2="-25.271"/>
				<line fill="none" stroke="#000000" stroke-width="2" stroke-linecap="round" x1="0.253" y1="-25.271" x2="4.548" y2="-11.53"/>
				<line fill="none" stroke="#000000" stroke-width="2" stroke-linecap="round" x1="4.548" y1="-11.53" x2="8.841" y2="-25.271"/>
				<line fill="none" stroke="#000000" stroke-width="2" stroke-linecap="round" x1="8.841" y1="-25.271" x2="13.134" y2="-11.53"/>
				
					<line fill="none" stroke="#000000" stroke-width="2" stroke-linecap="round" x1="13.134" y1="-11.53" x2="17.427" y2="-25.271"/>
				
					<line fill="none" stroke="#000000" stroke-width="2" stroke-linecap="round" x1="17.427" y1="-25.271" x2="21.723" y2="-11.53"/>
				
					<line fill="none" stroke="#000000" stroke-width="2" stroke-linecap="round" x1="21.723" y1="-11.53" x2="26.016" y2="-25.271"/>
				
					<line fill="none" stroke="#000000" stroke-width="2" stroke-linecap="round" x1="26.016" y1="-25.271" x2="30.309" y2="-11.53"/>
				
					<line fill="none" stroke="#000000" stroke-width="2" stroke-linecap="round" x1="30.309" y1="-11.53" x2="32.026" y2="-18.399"/>
				
					<line id="connector1pin_3_" fill="none" stroke="#787878" stroke-width="2" stroke-linecap="round" x1="49.201" y1="-18.399" x2="32.026" y2="-18.399"/>
				<g id="connector1terminal_3_">
				</g>
				<text transform="matrix(1 0 0 1 38.9557 -20.9039)" fill="#8C8C8C" font-family="'ArialMT'" font-size="5.9633">2</text>
				
					<line id="connector0pin_3_" fill="none" stroke="#787878" stroke-width="2" stroke-linecap="round" x1="-19.496" y1="-18.399" x2="-2.321" y2="-18.399"/>
				<g id="connector0terminal_3_">
				</g>
				<text transform="matrix(1 0 0 1 -12.5687 -20.9039)" fill="#8C8C8C" font-family="'ArialMT'" font-size="5.9633">1</text>
			</g>
		</g>
	</g>
</g>
<g>
	<g transform="translate(175.896,92.8229)">
		<g transform="matrix(0,1,-1,0,0,0)">
			<g id="schematic_4_">
				
					<line fill="none" stroke="#000000" stroke-width="2" stroke-linecap="round" x1="-12.296" y1="-78.245" x2="-9.72" y2="-85.115"/>
				
					<line fill="none" stroke="#000000" stroke-width="2" stroke-linecap="round" x1="-9.72" y1="-85.115" x2="-5.427" y2="-71.376"/>
				
					<line fill="none" stroke="#000000" stroke-width="2" stroke-linecap="round" x1="-5.427" y1="-71.376" x2="-1.133" y2="-85.115"/>
				<line fill="none" stroke="#000000" stroke-width="2" stroke-linecap="round" x1="-1.133" y1="-85.115" x2="3.16" y2="-71.376"/>
				<line fill="none" stroke="#000000" stroke-width="2" stroke-linecap="round" x1="3.16" y1="-71.376" x2="7.453" y2="-85.115"/>
				
					<line fill="none" stroke="#000000" stroke-width="2" stroke-linecap="round" x1="7.453" y1="-85.115" x2="11.748" y2="-71.376"/>
				
					<line fill="none" stroke="#000000" stroke-width="2" stroke-linecap="round" x1="11.748" y1="-71.376" x2="16.042" y2="-85.115"/>
				
					<line fill="none" stroke="#000000" stroke-width="2" stroke-linecap="round" x1="16.042" y1="-85.115" x2="20.335" y2="-71.376"/>
				
					<line fill="none" stroke="#000000" stroke-width="2" stroke-linecap="round" x1="20.335" y1="-71.376" x2="22.051" y2="-78.245"/>
				
					<line id="connector1pin_4_" fill="none" stroke="#787878" stroke-width="2" stroke-linecap="round" x1="39.226" y1="-78.245" x2="22.051" y2="-78.245"/>
				<g id="connector1terminal_4_">
				</g>
				<text transform="matrix(1 0 0 1 28.981 -80.7546)" fill="#8C8C8C" font-family="'ArialMT'" font-size="5.9633">2</text>
				
					<line id="connector0pin_4_" fill="none" stroke="#787878" stroke-width="2" stroke-linecap="round" x1="-29.471" y1="-78.245" x2="-12.296" y2="-78.245"/>
				<g id="connector0terminal_4_">
				</g>
				<text transform="matrix(1 0 0 1 -22.5404 -80.7546)" fill="#8C8C8C" font-family="'ArialMT'" font-size="5.9633">1</text>
			</g>
		</g>
	</g>
</g>
<g>
	<g transform="translate(205.704,122.323)">
		<g transform="matrix(0,-1,1,0,0,0)">
			<g id="schematic_5_">
				
					<line fill="none" stroke="#000000" stroke-width="2" stroke-linecap="round" x1="7.449" y1="134.309" x2="10.025" y2="127.439"/>
				
					<line fill="none" stroke="#000000" stroke-width="2" stroke-linecap="round" x1="10.025" y1="127.439" x2="14.318" y2="141.178"/>
				
					<line fill="none" stroke="#000000" stroke-width="2" stroke-linecap="round" x1="14.318" y1="141.178" x2="18.611" y2="127.439"/>
				
					<line fill="none" stroke="#000000" stroke-width="2" stroke-linecap="round" x1="18.611" y1="127.439" x2="22.904" y2="141.178"/>
				
					<line fill="none" stroke="#000000" stroke-width="2" stroke-linecap="round" x1="22.904" y1="141.178" x2="27.198" y2="127.439"/>
				
					<line fill="none" stroke="#000000" stroke-width="2" stroke-linecap="round" x1="27.198" y1="127.439" x2="31.493" y2="141.178"/>
				
					<line fill="none" stroke="#000000" stroke-width="2" stroke-linecap="round" x1="31.493" y1="141.178" x2="35.786" y2="127.439"/>
				
					<line fill="none" stroke="#000000" stroke-width="2" stroke-linecap="round" x1="35.786" y1="127.439" x2="40.079" y2="141.178"/>
				
					<line fill="none" stroke="#000000" stroke-width="2" stroke-linecap="round" x1="40.079" y1="141.178" x2="41.796" y2="134.309"/>
				
					<line id="connector1pin_5_" fill="none" stroke="#787878" stroke-width="2" stroke-linecap="round" x1="58.971" y1="134.309" x2="41.796" y2="134.309"/>
				<g id="connector1terminal_5_">
				</g>
				<text transform="matrix(1 0 0 1 48.7251 131.8051)" fill="#8C8C8C" font-family="'ArialMT'" font-size="5.9633">2</text>
				
					<line id="connector0pin_5_" fill="none" stroke="#787878" stroke-width="2" stroke-linecap="round" x1="-9.726" y1="134.309" x2="7.449" y2="134.309"/>
				<g id="connector0terminal_5_">
				</g>
				<text transform="matrix(1 0 0 1 -2.7983 131.8051)" fill="#8C8C8C" font-family="'ArialMT'" font-size="5.9633">1</text>
			</g>
		</g>
	</g>
</g>
<g>
	<g transform="translate(50.3994,215.097)">
		<g id="schematic_6_">
			<path id="connector0pin_6_" fill="none" stroke="#787878" stroke-width="2" stroke-linecap="round" d="M-71.045,157.151v-17.175"
				/>
			<g id="connector0terminal_6_">
			</g>
			<path id="path4098" fill="none" stroke="#000000" stroke-width="2" stroke-linecap="round" d="M-87.029,157.476h31.964"/>
			<path id="path4100" fill="none" stroke="#000000" stroke-width="2" stroke-linecap="round" d="M-81.704,164.023h21.312"/>
			<path id="path4102" fill="none" stroke="#000000" stroke-width="2" stroke-linecap="round" d="M-65.726,170.509h-10.648"/>
		</g>
	</g>
</g>
<g>
	<g transform="translate(0,42.773)">
		<g id="schematic_7_">
			
				<rect x="-122.62" y="-64.218" fill="#FFFFFF" stroke="#000000" stroke-width="2" stroke-linecap="round" width="186.772" height="324.163"/>
			
				<line id="connector61pin" fill="none" stroke="#787878" stroke-width="2" stroke-linecap="round" x1="64.39" y1="-30.943" x2="98.74" y2="-30.943"/>
			<text transform="matrix(1 0 0 1 36.4622 -29.2747)" fill="#8C8C8C" font-family="'ArialMT'" font-size="8.3486">D0/RX</text>
			<g id="connector61terminal">
			</g>
			
				<line id="connector62pin" fill="none" stroke="#787878" stroke-width="2" stroke-linecap="round" x1="64.39" y1="-13.77" x2="98.74" y2="-13.77"/>
			<text transform="matrix(1 0 0 1 37.3909 -12.0999)" fill="#8C8C8C" font-family="'ArialMT'" font-size="8.3486">D1/TX</text>
			<g id="connector62terminal">
			</g>
			
				<line id="connector63pin" fill="none" stroke="#787878" stroke-width="2" stroke-linecap="round" x1="64.39" y1="3.404" x2="98.74" y2="3.404"/>
			<text transform="matrix(1 0 0 1 50.3792 5.0749)" fill="#8C8C8C" font-family="'ArialMT'" font-size="8.3486">D2</text>
			<g id="connector63terminal">
			</g>
			
				<line id="connector64pin" fill="none" stroke="#787878" stroke-width="2" stroke-linecap="round" x1="64.39" y1="20.579" x2="98.74" y2="20.579"/>
			<text transform="matrix(1 0 0 1 27.6565 22.2497)" fill="#8C8C8C" font-family="'ArialMT'" font-size="8.3486">D3 PWM</text>
			<g id="connector64terminal">
			</g>
			
				<line id="connector65pin" fill="none" stroke="#787878" stroke-width="2" stroke-linecap="round" x1="64.39" y1="37.754" x2="98.74" y2="37.754"/>
			<text transform="matrix(1 0 0 1 50.3792 39.4245)" fill="#8C8C8C" font-family="'ArialMT'" font-size="8.3486">D4</text>
			<g id="connector65terminal">
			</g>
			
				<line id="connector66pin" fill="none" stroke="#787878" stroke-width="2" stroke-linecap="round" x1="64.39" y1="54.929" x2="98.74" y2="54.929"/>
			<text transform="matrix(1 0 0 1 27.6565 56.5964)" fill="#8C8C8C" font-family="'ArialMT'" font-size="8.3486">D5 PWM</text>
			<g id="connector66terminal">
			</g>
			
				<line id="connector67pin" fill="none" stroke="#787878" stroke-width="2" stroke-linecap="round" x1="64.39" y1="72.101" x2="98.74" y2="72.101"/>
			<text transform="matrix(1 0 0 1 27.6565 73.7712)" fill="#8C8C8C" font-family="'ArialMT'" font-size="8.3486">D6 PWM</text>
			<g id="connector67terminal">
			</g>
			
				<line id="connector68pin" fill="none" stroke="#787878" stroke-width="2" stroke-linecap="round" x1="64.39" y1="89.276" x2="98.74" y2="89.276"/>
			<text transform="matrix(1 0 0 1 50.3792 90.946)" fill="#8C8C8C" font-family="'ArialMT'" font-size="8.3486">D7</text>
			<g id="connector68terminal">
			</g>
			
				<line id="connector51pin" fill="none" stroke="#787878" stroke-width="2" stroke-linecap="round" x1="64.39" y1="106.451" x2="98.74" y2="106.451"/>
			<text transform="matrix(1 0 0 1 50.3792 108.1208)" fill="#8C8C8C" font-family="'ArialMT'" font-size="8.3486">D8</text>
			<g id="connector51terminal">
			</g>
			
				<line id="connector52pin" fill="none" stroke="#787878" stroke-width="2" stroke-linecap="round" x1="64.39" y1="123.626" x2="98.74" y2="123.626"/>
			<text transform="matrix(1 0 0 1 27.6565 125.2956)" fill="#8C8C8C" font-family="'ArialMT'" font-size="8.3486">D9 PWM</text>
			<g id="connector52terminal">
			</g>
			
				<line id="connector53pin" fill="none" stroke="#787878" stroke-width="2" stroke-linecap="round" x1="64.39" y1="140.8" x2="98.74" y2="140.8"/>
			<text transform="matrix(1 0 0 1 9.5569 142.4704)" fill="#8C8C8C" font-family="'ArialMT'" font-size="8.3486">D10 PWM/SS</text>
			<g id="connector53terminal">
			</g>
			
				<line id="connector54pin" fill="none" stroke="#787878" stroke-width="2" stroke-linecap="round" x1="64.39" y1="157.972" x2="98.74" y2="157.972"/>
			<text transform="matrix(1 0 0 1 -0.0232 159.6432)" fill="#8C8C8C" font-family="'ArialMT'" font-size="8.3486">D11 PWM/MOSI</text>
			<g id="connector54terminal">
			</g>
			
				<line id="connector55pin" fill="none" stroke="#787878" stroke-width="2" stroke-linecap="round" x1="64.39" y1="175.147" x2="98.74" y2="175.147"/>
			<text transform="matrix(1 0 0 1 22.0803 176.8181)" fill="#8C8C8C" font-family="'ArialMT'" font-size="8.3486">D12/MISO</text>
			<g id="connector55terminal">
			</g>
			<line id="connector41pin" fill="none" x1="64.39" y1="192.322" x2="98.74" y2="192.322"/>
			<rect id="connector41terminal" x="98.74" y="191.488" fill="none" width="1.668" height="1.668"/>
			
				<line id="connector56pin" fill="none" stroke="#787878" stroke-width="2" stroke-linecap="round" x1="64.39" y1="192.322" x2="98.74" y2="192.322"/>
			<text transform="matrix(1 0 0 1 26.2503 193.9929)" fill="#8C8C8C" font-family="'ArialMT'" font-size="8.3486">D13/SCK</text>
			<g id="connector56terminal">
			</g>
			<line id="connector43pin" fill="none" x1="-157.207" y1="-30.943" x2="-122.857" y2="-30.943"/>
			<rect id="connector43terminal" x="-158.875" y="-31.779" fill="none" width="1.668" height="1.67"/>
			
				<line id="connector85pin" fill="none" stroke="#787878" stroke-width="2" stroke-linecap="round" x1="-157.207" y1="-30.943" x2="-122.857" y2="-30.943"/>
			<text transform="matrix(1 0 0 1 -119.5163 -29.2747)" fill="#8C8C8C" font-family="'ArialMT'" font-size="8.3486">RESET</text>
			<g id="connector85terminal">
			</g>
			
				<line id="connector49pin" fill="none" stroke="#787878" stroke-width="2" stroke-linecap="round" x1="-157.207" y1="-13.77" x2="-122.857" y2="-13.77"/>
			<text transform="matrix(1 0 0 1 -119.5163 -12.0999)" fill="#8C8C8C" font-family="'ArialMT'" font-size="8.3486">RESET2</text>
			<rect id="connector49terminal" x="-158.875" y="-14.604" fill="none" width="1.668" height="1.67"/>
			
				<line id="connector58pin" fill="none" stroke="#787878" stroke-width="2" stroke-linecap="round" x1="-157.207" y1="3.404" x2="-122.857" y2="3.404"/>
			<text transform="matrix(1 0 0 1 -119.5163 5.0749)" fill="#8C8C8C" font-family="'ArialMT'" font-size="8.3486">AREF</text>
			<g id="connector58terminal">
			</g>
			
				<line id="connector84pin" fill="none" stroke="#787878" stroke-width="2" stroke-linecap="round" x1="-157.207" y1="20.579" x2="-122.857" y2="20.579"/>
			<text transform="matrix(1 0 0 1 -119.5163 22.2497)" fill="#8C8C8C" font-family="'ArialMT'" font-size="8.3486">ioref</text>
			<g id="connector84terminal">
			</g>
			
				<line id="connector0pin_7_" fill="none" stroke="#787878" stroke-width="2" stroke-linecap="round" x1="-157.207" y1="54.929" x2="-122.857" y2="54.929"/>
			<text transform="matrix(1 0 0 1 -119.5163 56.5964)" fill="#8C8C8C" font-family="'ArialMT'" font-size="8.3486">A0</text>
			<g id="connector0terminal_7_">
			</g>
			
				<line id="connector1pin_6_" fill="none" stroke="#787878" stroke-width="2" stroke-linecap="round" x1="-157.207" y1="72.101" x2="-122.857" y2="72.101"/>
			<text transform="matrix(1 0 0 1 -119.5163 73.7712)" fill="#8C8C8C" font-family="'ArialMT'" font-size="8.3486">A1</text>
			<g id="connector1terminal_6_">
			</g>
			
				<line id="connector2pin_1_" fill="none" stroke="#787878" stroke-width="2" stroke-linecap="round" x1="-157.207" y1="89.276" x2="-122.857" y2="89.276"/>
			<text transform="matrix(1 0 0 1 -119.5163 90.946)" fill="#8C8C8C" font-family="'ArialMT'" font-size="8.3486">A2</text>
			<g id="connector2terminal_1_">
			</g>
			
				<line id="connector3pin_1_" fill="none" stroke="#787878" stroke-width="2" stroke-linecap="round" x1="-157.207" y1="106.451" x2="-122.857" y2="106.451"/>
			<text transform="matrix(1 0 0 1 -119.5163 108.1208)" fill="#8C8C8C" font-family="'ArialMT'" font-size="8.3486">A3</text>
			<g id="connector3terminal_1_">
			</g>
			<line id="connector48pin" fill="none" x1="-157.207" y1="123.626" x2="-122.857" y2="123.626"/>
			<rect id="connector48terminal" x="-158.875" y="122.789" fill="none" width="1.668" height="1.671"/>
			<line id="connector45pin" fill="none" x1="-157.207" y1="123.626" x2="-122.857" y2="123.626"/>
			<rect id="connector45terminal" x="-158.875" y="122.789" fill="none" width="1.668" height="1.671"/>
			<line id="connector4pin" fill="none" x1="-157.207" y1="123.626" x2="-122.857" y2="123.626"/>
			<g id="connector4terminal">
			</g>
			<line id="connector39pin" fill="none" x1="-157.207" y1="123.626" x2="-122.857" y2="123.626"/>
			<rect id="connector39terminal" x="-158.875" y="122.789" fill="none" width="1.668" height="1.671"/>
			<line id="connector47pin" fill="none" x1="-157.207" y1="123.626" x2="-122.857" y2="123.626"/>
			<rect id="connector47terminal" x="-158.875" y="122.789" fill="none" width="1.668" height="1.671"/>
			<line id="connector42pin" fill="none" x1="-157.207" y1="123.626" x2="-122.857" y2="123.626"/>
			<rect id="connector42terminal" x="-158.875" y="122.789" fill="none" width="1.668" height="1.671"/>
			
				<line id="connector59pin" fill="none" stroke="#787878" stroke-width="2" stroke-linecap="round" x1="-157.207" y1="123.626" x2="-122.857" y2="123.626"/>
			<text transform="matrix(1 0 0 1 -119.5163 125.2956)" fill="#8C8C8C" font-family="'ArialMT'" font-size="8.3486">A4/SDA</text>
			<g id="connector59terminal">
			</g>
			<line id="connector5pin" fill="none" x1="-157.207" y1="140.8" x2="-122.857" y2="140.8"/>
			<g id="connector5terminal">
			</g>
			
				<line id="connector60pin" fill="none" stroke="#787878" stroke-width="2" stroke-linecap="round" x1="-157.207" y1="140.8" x2="-122.857" y2="140.8"/>
			<text transform="matrix(1 0 0 1 -119.5163 142.4704)" fill="#8C8C8C" font-family="'ArialMT'" font-size="8.3486">A5/SCL</text>
			<g id="connector60terminal">
			</g>
			
				<line id="connector91pin" fill="none" stroke="#787878" stroke-width="2" stroke-linecap="round" x1="-157.207" y1="226.672" x2="-122.857" y2="226.672"/>
			<text transform="matrix(1 0 0 1 -119.5163 228.3415)" fill="#8C8C8C" font-family="'ArialMT'" font-size="8.3486">N/C</text>
			<g id="connector91terminal">
			</g>
			<line id="connector88pin" fill="none" x1="-20.648" y1="260.184" x2="-20.648" y2="294.532"/>
			<g id="connector88terminal">
			</g>
			<line id="connector57pin" fill="none" x1="-20.648" y1="260.184" x2="-20.648" y2="294.532"/>
			<g id="connector57terminal">
			</g>
			<line id="connector44pin" fill="none" x1="-20.648" y1="260.184" x2="-20.648" y2="294.532"/>
			<rect id="connector44terminal" x="-21.481" y="294.532" fill="none" width="1.67" height="1.67"/>
			<line id="connector50pin" fill="none" x1="-20.648" y1="260.184" x2="-20.648" y2="294.532"/>
			<rect id="connector50terminal" x="-21.481" y="294.532" fill="none" width="1.67" height="1.67"/>
			
				<line id="connector89pin" fill="none" stroke="#787878" stroke-width="2" stroke-linecap="round" x1="-20.648" y1="260.184" x2="-20.648" y2="294.532"/>
			<g transform="matrix(1, 0, 0, 1, 58.2999, 149.45)">
				<g>
					<g transform="rotate(270)">
						<g>
							<text transform="matrix(1 0 0 1 -107.3944 -77.2772)" fill="#8C8C8C" font-family="'ArialMT'" font-size="8.3486">GND</text>
						</g>
					</g>
				</g>
			</g>
			<g id="connector89terminal">
			</g>
			
				<line id="connector86pin" fill="none" stroke="#787878" stroke-width="2" stroke-linecap="round" x1="-72.17" y1="-98.805" x2="-72.17" y2="-64.458"/>
			<g transform="matrix(1, 0, 0, 1, 36.6999, 16.15)">
				<g>
					<g transform="rotate(270)">
						<g>
							<text transform="matrix(1 0 0 1 62.4149 -107.1987)" fill="#8C8C8C" font-family="'ArialMT'" font-size="8.3486">3V3</text>
						</g>
					</g>
				</g>
			</g>
			<g id="connector86terminal">
			</g>
			<line id="connector40pin" fill="none" x1="-37.82" y1="-98.805" x2="-37.82" y2="-64.458"/>
			<rect id="connector40terminal" x="-38.656" y="-100.475" fill="none" width="1.67" height="1.67"/>
			<line id="connector46pin" fill="none" x1="-37.82" y1="-98.805" x2="-37.82" y2="-64.458"/>
			<rect id="connector46terminal" x="-38.656" y="-100.475" fill="none" width="1.67" height="1.67"/>
			
				<line id="connector87pin" fill="none" stroke="#787878" stroke-width="2" stroke-linecap="round" x1="-37.82" y1="-98.805" x2="-37.82" y2="-64.458"/>
			<g transform="matrix(1, 0, 0, 1, 51.0999, 16.15)">
				<g>
					<g transform="rotate(270)">
						<g>
							<text transform="matrix(1 0 0 1 67.0556 -87.2491)" fill="#8C8C8C" font-family="'ArialMT'" font-size="8.3486">5V</text>
						</g>
					</g>
				</g>
			</g>
			<g id="connector87terminal">
			</g>
			
				<line id="connector90pin" fill="none" stroke="#787878" stroke-width="2" stroke-linecap="round" x1="-3.473" y1="-98.805" x2="-3.473" y2="-64.458"/>
			<g transform="matrix(1, 0, 0, 1, 65.4999, 16.15)">
				<g>
					<g transform="rotate(270)">
						<g>
							<text transform="matrix(1 0 0 1 63.3524 -67.3024)" fill="#8C8C8C" font-family="'ArialMT'" font-size="8.3486">VIN</text>
						</g>
					</g>
				</g>
			</g>
			<g id="connector90terminal">
			</g>
			<text id="label" transform="matrix(1 0 0 1 -45.6306 82.7165)" font-family="'ArialMT'" font-size="10.1376">Arduino</text>
			<text id="label_1_" transform="matrix(1 0 0 1 -37.4577 93.53)" font-family="'ArialMT'" font-size="10.1376">Uno</text>
			<text id="label_2_" transform="matrix(1 0 0 1 -43.3679 104.3454)" font-family="'ArialMT'" font-size="10.1376">(Rev3)</text>
		</g>
	</g>
</g>
<g>
	<g transform="translate(57.6184,0)">
		<g id="schematic_8_">
			
				<line id="connector0pin_8_" fill="none" stroke="#787878" stroke-width="2" stroke-linecap="round" stroke-miterlimit="10" x1="-61.047" y1="-142.721" x2="-61.047" y2="-125.549"/>
			<g id="connector0terminal_8_">
			</g>
			<path fill="none" stroke="#000000" stroke-width="2" stroke-linecap="round" d="M-77.148-143.239h32.202"/>
			<g transform="matrix(1, 0, 0, 1, 1.4985, 4.9878)">
				<text id="label_3_" transform="matrix(1 0 0 1 -76.144 -151.9836)" font-family="'ArialMT'" font-size="10.7318">12V</text>
			</g>
		</g>
	</g>
</g>
<g>
	<line fill="none" stroke="#00A527" stroke-width="2" stroke-linecap="round" x1="340.013" y1="63.352" x2="340.013" y2="46.177"/>
</g>
<g id="partLabel">
	<g transform="translate(216.717,68.8693)">
		<g id="schematicLabel">
			<text transform="matrix(1 0 0 1 142.1817 -54.5439)" font-family="'ArialMT'" font-size="11.9266">S1</text>
		</g>
	</g>
</g>
<g id="partLabel_1_">
	<g transform="translate(196.696,103.515)">
		<g transform="matrix(0,1,-1,0,0,0)">
			<g id="schematicLabel_1_">
				<text transform="matrix(0 -1 1 0 -4.9073 -80.4537)" font-family="'ArialMT'" font-size="11.9266">R2</text>
				<text transform="matrix(0 -1 1 0 7.0194 -80.4537)" font-family="'ArialMT'" font-size="11.9266">560Ω</text>
			</g>
		</g>
	</g>
</g>
<g id="partLabel_2_">
	<g transform="translate(153.496,108.582)">
		<g transform="matrix(0,1,-1,0,0,0)">
			<g id="schematicLabel_2_">
				<text transform="matrix(0 -1 1 0 7.2005 -13.4535)" font-family="'ArialMT'" font-size="11.9266">R3</text>
				<text transform="matrix(0 -1 1 0 19.1272 -13.4535)" font-family="'ArialMT'" font-size="11.9266">560Ω</text>
			</g>
		</g>
	</g>
</g>
<g>
	
		<line fill="none" stroke="#000000" stroke-width="2" stroke-linecap="round" x1="151.095" y1="149.224" x2="151.095" y2="166.399"/>
</g>
<g>
	
		<line fill="none" stroke="#000000" stroke-width="2" stroke-linecap="round" x1="254.141" y1="132.049" x2="254.141" y2="149.224"/>
</g>
<g>
	
		<line fill="none" stroke="#404040" stroke-width="2" stroke-linecap="round" x1="-20.648" y1="338.141" x2="-20.648" y2="355.316"/>
</g>
<circle cx="-20.648" cy="338.14" r="3.435"/>
<g>
	<line fill="none" stroke="#404040" stroke-width="2" stroke-linecap="round" x1="-20.648" y1="338.141" x2="150.62" y2="337.663"/>
</g>
<circle cx="-20.648" cy="338.14" r="3.435"/>
<g>
	<line fill="none" stroke="#404040" stroke-width="2" stroke-linecap="round" x1="150.62" y1="337.663" x2="254.141" y2="338.141"/>
</g>
<circle cx="150.62" cy="337.664" r="3.436"/>
<g>
	
		<line fill="none" stroke="#404040" stroke-width="2" stroke-linecap="round" x1="340.013" y1="132.049" x2="340.013" y2="338.141"/>
</g>
<g>
	
		<line fill="none" stroke="#404040" stroke-width="2" stroke-linecap="round" x1="340.013" y1="338.141" x2="254.141" y2="338.141"/>
</g>
<circle cx="254.141" cy="338.14" r="3.435"/>
<g>
	
		<line fill="none" stroke="#404040" stroke-width="2" stroke-linecap="round" x1="340.013" y1="132.049" x2="340.013" y2="132.049"/>
</g>
<g>
	<line fill="none" stroke="#404040" stroke-width="2" stroke-linecap="round" x1="150.62" y1="337.663" x2="151.095" y2="217.92"/>
</g>
<g>
	
		<line fill="none" stroke="#404040" stroke-width="2" stroke-linecap="round" x1="254.141" y1="338.141" x2="254.141" y2="200.745"/>
</g>
<g>
	<line fill="none" stroke="#404040" stroke-width="2" stroke-linecap="round" x1="305.665" y1="46.177" x2="99.574" y2="46.177"/>
</g>
<g>
	<line fill="none" stroke="#404040" stroke-width="2" stroke-linecap="round" x1="305.705" y1="46.289" x2="305.665" y2="46.177"/>
</g>
<g>
	<line fill="none" stroke="#404040" stroke-width="2" stroke-linecap="round" x1="254.141" y1="63.352" x2="99.574" y2="63.352"/>
</g>
<g>
	<line fill="none" stroke="#404040" stroke-width="2" stroke-linecap="round" x1="254.141" y1="63.352" x2="254.141" y2="63.352"/>
</g>
<g>
	<line fill="none" stroke="#404040" stroke-width="2" stroke-linecap="round" x1="151.095" y1="80.527" x2="99.574" y2="80.527"/>
</g>
<g>
	<line fill="none" stroke="#404040" stroke-width="2" stroke-linecap="round" x1="151.095" y1="80.527" x2="151.095" y2="80.527"/>
</g>
<g>
	
		<line fill="none" stroke="#404040" stroke-width="2" stroke-linecap="round" x1="305.631" y1="-20.222" x2="305.665" y2="-108.39"/>
</g>
<g>
	<line fill="none" stroke="#404040" stroke-width="2" stroke-linecap="round" x1="305.665" y1="-108.39" x2="-37.82" y2="-108.39"/>
</g>
<g>
	<line fill="none" stroke="#404040" stroke-width="2" stroke-linecap="round" x1="-37.82" y1="-108.39" x2="-37.82" y2="-56.869"/>
</g>
<g>
	<line fill="none" stroke="#404040" stroke-width="2" stroke-linecap="round" x1="-3.473" y1="-56.869" x2="-3.473" y2="-125.565"/>
</g>
<g id="partLabel_3_">
	<g transform="translate(184.579,135.357)">
		<g id="schematicLabel_3_">
			<text transform="matrix(1 0 0 1 97.6595 37.5641)" font-family="'ArialMT'" font-size="11.9266">LED1</text>
			<text transform="matrix(1 0 0 1 97.6595 49.4909)" font-family="'ArialMT'" font-size="11.9266">Yellow</text>
		</g>
	</g>
</g>
<g id="partLabel_4_">
	<g transform="translate(139.513,142.423)">
		<g id="schematicLabel_4_">
			<text transform="matrix(1 0 0 1 35.2294 47.3507)" font-family="'ArialMT'" font-size="11.9266">LED2</text>
			<text transform="matrix(1 0 0 1 35.2294 59.2774)" font-family="'ArialMT'" font-size="11.9266">Red </text>
		</g>
	</g>
</g>
<g id="partLabel_6_">
	<g transform="translate(223.55,93.2772)">
		<g id="schematicLabel_6_">
			<text transform="matrix(1 0 0 1 135.3467 2.3246)" font-family="'ArialMT'" font-size="11.9266">R1</text>
			<text transform="matrix(1 0 0 1 135.3467 14.2514)" font-family="'ArialMT'" font-size="11.9266">10kΩ</text>
		</g>
	</g>
</g>
</svg>
