<?xml version="1.0" encoding="utf-8"?>
<!-- Generator: Adobe Illustrator 16.0.4, SVG Export Plug-In . SVG Version: 6.00 Build 0)  -->
<!DOCTYPE svg PUBLIC "-//W3C//DTD SVG 1.1//EN" "http://www.w3.org/Graphics/SVG/1.1/DTD/svg11.dtd">
<svg version="1.1" id="Layer_1" xmlns:svg="http://www.w3.org/2000/svg"
	 xmlns="http://www.w3.org/2000/svg" xmlns:xlink="http://www.w3.org/1999/xlink" x="0px" y="0px" width="613.249px"
	 height="443.773px" viewBox="-289.263 56.559 613.249 443.773" enable-background="new -289.263 56.559 613.249 443.773"
	 xml:space="preserve">
<rect x="-101.226" y="57.559" fill="#FFFFFF" stroke="#000000" stroke-width="2" stroke-linecap="round" width="235.901" height="441.773"/>
<line id="connector23pin" fill="none" stroke="#787878" stroke-width="2" stroke-linecap="round" x1="135.15" y1="89.726" x2="203.772" y2="89.726"/>
<text transform="matrix(1 0 0 1 162.8352 84.7244)" fill="#8C8C8C" font-family="'HelveticaNeue'" font-size="11.9141">24</text>
<text transform="matrix(1 0 0 1 108.0764 93.0652)" fill="#8C8C8C" font-family="'HelveticaNeue'" font-size="16.6796">B4</text>
<line id="connector22pin" fill="none" stroke="#787878" stroke-width="2" stroke-linecap="round" x1="135.15" y1="124.041" x2="203.772" y2="124.041"/>
<text transform="matrix(1 0 0 1 162.8352 119.0339)" fill="#8C8C8C" font-family="'HelveticaNeue'" font-size="11.9141">23</text>
<text transform="matrix(1 0 0 1 103.4563 127.3748)" fill="#8C8C8C" font-family="'HelveticaNeue'" font-size="16.6796">W4</text>
<line id="connector21pin" fill="none" stroke="#787878" stroke-width="2" stroke-linecap="round" x1="135.15" y1="158.353" x2="203.772" y2="158.353"/>
<text transform="matrix(1 0 0 1 162.8352 153.3474)" fill="#8C8C8C" font-family="'HelveticaNeue'" font-size="11.9141">22</text>
<text transform="matrix(1 0 0 1 108.0764 161.6882)" fill="#8C8C8C" font-family="'HelveticaNeue'" font-size="16.6796">A4</text>
<line id="connector20pin" fill="none" stroke="#787878" stroke-width="2" stroke-linecap="round" x1="135.15" y1="192.661" x2="203.772" y2="192.661"/>
<text transform="matrix(1 0 0 1 162.8352 187.6628)" fill="#8C8C8C" font-family="'HelveticaNeue'" font-size="11.9141">21</text>
<text transform="matrix(1 0 0 1 108.0764 196.0007)" fill="#8C8C8C" font-family="'HelveticaNeue'" font-size="16.6796">B2</text>
<line id="connector19pin" fill="none" stroke="#787878" stroke-width="2" stroke-linecap="round" x1="135.15" y1="226.974" x2="203.772" y2="226.974"/>
<text transform="matrix(1 0 0 1 162.8352 221.9753)" fill="#8C8C8C" font-family="'HelveticaNeue'" font-size="11.9141">20</text>
<text transform="matrix(1 0 0 1 103.4563 230.3142)" fill="#8C8C8C" font-family="'HelveticaNeue'" font-size="16.6796">W2</text>
<line id="connector18pin" fill="none" stroke="#787878" stroke-width="2" stroke-linecap="round" x1="135.15" y1="261.289" x2="203.772" y2="261.289"/>
<text transform="matrix(1 0 0 1 162.8352 256.2888)" fill="#8C8C8C" font-family="'HelveticaNeue'" font-size="11.9141">19</text>
<text transform="matrix(1 0 0 1 108.0764 264.6238)" fill="#8C8C8C" font-family="'HelveticaNeue'" font-size="16.6796">A2</text>
<line id="connector17pin" fill="none" stroke="#787878" stroke-width="2" stroke-linecap="round" x1="135.15" y1="295.603" x2="203.772" y2="295.603"/>
<text transform="matrix(1 0 0 1 162.8352 290.5955)" fill="#8C8C8C" font-family="'HelveticaNeue'" font-size="11.9141">18</text>
<text transform="matrix(1 0 0 1 108.0764 298.9363)" fill="#8C8C8C" font-family="'HelveticaNeue'" font-size="16.6796">A1</text>
<line id="connector16pin" fill="none" stroke="#787878" stroke-width="2" stroke-linecap="round" x1="135.15" y1="329.918" x2="203.772" y2="329.918"/>
<text transform="matrix(1 0 0 1 162.8352 324.9119)" fill="#8C8C8C" font-family="'HelveticaNeue'" font-size="11.9141">17</text>
<text transform="matrix(1 0 0 1 103.4563 333.2498)" fill="#8C8C8C" font-family="'HelveticaNeue'" font-size="16.6796">W1</text>
<line id="connector15pin" fill="none" stroke="#787878" stroke-width="2" stroke-linecap="round" x1="135.15" y1="364.226" x2="203.772" y2="364.226"/>
<text transform="matrix(1 0 0 1 162.8352 359.2244)" fill="#8C8C8C" font-family="'HelveticaNeue'" font-size="11.9141">16</text>
<text transform="matrix(1 0 0 1 108.0764 367.5652)" fill="#8C8C8C" font-family="'HelveticaNeue'" font-size="16.6796">B1</text>
<line id="connector14pin" fill="none" stroke="#787878" stroke-width="2" stroke-linecap="round" x1="135.15" y1="398.536" x2="203.772" y2="398.536"/>
<text transform="matrix(1 0 0 1 162.8352 393.5369)" fill="#8C8C8C" font-family="'HelveticaNeue'" font-size="11.9141">15</text>
<text transform="matrix(1 0 0 1 108.0764 401.8777)" fill="#8C8C8C" font-family="'HelveticaNeue'" font-size="16.6796">A3</text>
<line id="connector13pin" fill="none" stroke="#787878" stroke-width="2" stroke-linecap="round" x1="135.15" y1="432.85" x2="203.772" y2="432.85"/>
<text transform="matrix(1 0 0 1 162.8352 427.8503)" fill="#8C8C8C" font-family="'HelveticaNeue'" font-size="11.9141">14</text>
<text transform="matrix(1 0 0 1 103.4563 436.1853)" fill="#8C8C8C" font-family="'HelveticaNeue'" font-size="16.6796">W3</text>
<line id="connector12pin" fill="none" stroke="#787878" stroke-width="2" stroke-linecap="round" x1="135.15" y1="467.165" x2="203.772" y2="467.165"/>
<text transform="matrix(1 0 0 1 162.8352 462.1599)" fill="#8C8C8C" font-family="'HelveticaNeue'" font-size="11.9141">13</text>
<text transform="matrix(1 0 0 1 108.0764 470.4978)" fill="#8C8C8C" font-family="'HelveticaNeue'" font-size="16.6796">B3</text>
<line id="connector0pin" fill="none" stroke="#787878" stroke-width="2" stroke-linecap="round" x1="-170.326" y1="89.726" x2="-101.701" y2="89.726"/>
<text transform="matrix(1 0 0 1 -139.3269 84.7244)" fill="#8C8C8C" font-family="'HelveticaNeue'" font-size="11.9141">1</text>
<text transform="matrix(1 0 0 1 -95.0291 93.0652)" fill="#8C8C8C" font-family="'HelveticaNeue'" font-size="16.6796">A6</text>
<line id="connector1pin" fill="none" stroke="#787878" stroke-width="2" stroke-linecap="round" x1="-170.326" y1="124.041" x2="-101.701" y2="124.041"/>
<text transform="matrix(1 0 0 1 -139.3269 119.0339)" fill="#8C8C8C" font-family="'HelveticaNeue'" font-size="11.9141">2</text>
<text transform="matrix(1 0 0 1 -95.0291 127.3748)" fill="#8C8C8C" font-family="'HelveticaNeue'" font-size="16.6796">W6</text>
<line id="connector2pin" fill="none" stroke="#787878" stroke-width="2" stroke-linecap="round" x1="-170.326" y1="158.353" x2="-101.701" y2="158.353"/>
<text transform="matrix(1 0 0 1 -139.3269 153.3474)" fill="#8C8C8C" font-family="'HelveticaNeue'" font-size="11.9141">3</text>
<text transform="matrix(1 0 0 1 -95.0291 161.6882)" fill="#8C8C8C" font-family="'HelveticaNeue'" font-size="16.6796">B6</text>
<line id="connector3pin" fill="none" stroke="#787878" stroke-width="2" stroke-linecap="round" x1="-170.326" y1="192.661" x2="-101.701" y2="192.661"/>
<text transform="matrix(1 0 0 1 -139.3269 187.6628)" fill="#8C8C8C" font-family="'HelveticaNeue'" font-size="11.9141">4</text>
<text transform="matrix(1 0 0 1 -95.0291 196.0007)" fill="#8C8C8C" font-family="'HelveticaNeue'" font-size="16.6796">Gnd</text>
<line id="connector4pin" fill="none" stroke="#787878" stroke-width="2" stroke-linecap="round" x1="-170.326" y1="226.974" x2="-101.701" y2="226.974"/>
<text transform="matrix(1 0 0 1 -139.3269 221.9753)" fill="#8C8C8C" font-family="'HelveticaNeue'" font-size="11.9141">5</text>
<text transform="matrix(1 0 0 1 -95.0291 230.3142)" fill="#8C8C8C" font-family="'HelveticaNeue'" font-size="16.6796">CS</text>
<line id="connector5pin" fill="none" stroke="#787878" stroke-width="2" stroke-linecap="round" x1="-170.326" y1="261.289" x2="-101.701" y2="261.289"/>
<text transform="matrix(1 0 0 1 -139.3269 256.2888)" fill="#8C8C8C" font-family="'HelveticaNeue'" font-size="11.9141">6</text>
<text transform="matrix(1 0 0 1 -95.0291 264.6238)" fill="#8C8C8C" font-family="'HelveticaNeue'" font-size="16.6796">Vdd</text>
<line id="connector6pin" fill="none" stroke="#787878" stroke-width="2" stroke-linecap="round" x1="-170.326" y1="295.603" x2="-101.701" y2="295.603"/>
<text transform="matrix(1 0 0 1 -139.3269 290.5955)" fill="#8C8C8C" font-family="'HelveticaNeue'" font-size="11.9141">7</text>
<text transform="matrix(1 0 0 1 -95.0291 298.9363)" fill="#8C8C8C" font-family="'HelveticaNeue'" font-size="16.6796">SDI</text>
<line id="connector7pin" fill="none" stroke="#787878" stroke-width="2" stroke-linecap="round" x1="-170.326" y1="329.918" x2="-101.701" y2="329.918"/>
<text transform="matrix(1 0 0 1 -139.3269 324.9119)" fill="#8C8C8C" font-family="'HelveticaNeue'" font-size="11.9141">8</text>
<text transform="matrix(1 0 0 1 -95.0291 333.2498)" fill="#8C8C8C" font-family="'HelveticaNeue'" font-size="16.6796">CLK</text>
<line id="connector8pin" fill="none" stroke="#787878" stroke-width="2" stroke-linecap="round" x1="-170.326" y1="364.226" x2="-101.701" y2="364.226"/>
<text transform="matrix(1 0 0 1 -139.3269 359.2244)" fill="#8C8C8C" font-family="'HelveticaNeue'" font-size="11.9141">9</text>
<text transform="matrix(1 0 0 1 -95.0291 367.5652)" fill="#8C8C8C" font-family="'HelveticaNeue'" font-size="16.6796">Vss</text>
<line id="connector9pin" fill="none" stroke="#787878" stroke-width="2" stroke-linecap="round" x1="-170.326" y1="398.536" x2="-101.701" y2="398.536"/>
<text transform="matrix(1 0 0 1 -142.6404 393.5369)" fill="#8C8C8C" font-family="'HelveticaNeue'" font-size="11.9141">10</text>
<text transform="matrix(1 0 0 1 -95.0291 401.8777)" fill="#8C8C8C" font-family="'HelveticaNeue'" font-size="16.6796">B5</text>
<line id="connector10pin" fill="none" stroke="#787878" stroke-width="2" stroke-linecap="round" x1="-170.326" y1="432.85" x2="-101.701" y2="432.85"/>
<text transform="matrix(1 0 0 1 -142.198 427.8503)" fill="#8C8C8C" font-family="'HelveticaNeue'" font-size="11.9141">11</text>
<text transform="matrix(1 0 0 1 -95.0291 436.1853)" fill="#8C8C8C" font-family="'HelveticaNeue'" font-size="16.6796">W5</text>
<line id="connector11pin" fill="none" stroke="#787878" stroke-width="2" stroke-linecap="round" x1="-170.326" y1="467.165" x2="-101.701" y2="467.165"/>
<text transform="matrix(1 0 0 1 -142.6404 462.1599)" fill="#8C8C8C" font-family="'HelveticaNeue'" font-size="11.9141">12</text>
<text transform="matrix(1 0 0 1 -95.0291 470.4978)" fill="#8C8C8C" font-family="'HelveticaNeue'" font-size="16.6796">A5</text>
<text id="label" transform="matrix(1 0 0 1 -17.7292 248.1853)" font-family="'HelveticaNeue'" font-size="20.2539">AD5206</text>
<text id="label_1_" transform="matrix(1 0 0 1 -9.2742 269.7888)" font-family="'HelveticaNeue'" font-size="20.2539">Digital</text>
<text id="label_2_" transform="matrix(1 0 0 1 -44.1785 291.3923)" font-family="'HelveticaNeue'" font-size="20.2539">Potentiometer</text>
<text transform="matrix(1 0 0 1 -262.8035 272.2478)"><tspan x="0" y="0" font-family="'HelveticaNeue'" font-size="12">Power and </tspan><tspan x="-26.459" y="14.4" font-family="'HelveticaNeue'" font-size="12">SPI connections</tspan></text>
<text transform="matrix(1 0 0 1 -287.4988 440.7263)" font-family="'HelveticaNeue'" font-size="12">Potentiometer 5</text>
<text transform="matrix(1 0 0 1 -287.4988 119.531)" font-family="'HelveticaNeue'" font-size="12">Potentiometer 6</text>
<text transform="matrix(1 0 0 1 238.1868 439.6394)" font-family="'HelveticaNeue'" font-size="12">Potentiometer 3</text>
<text transform="matrix(1 0 0 1 238.1868 331.4871)" font-family="'HelveticaNeue'" font-size="12">Potentiometer 1</text>
<text transform="matrix(1 0 0 1 238.1868 227.1394)" font-family="'HelveticaNeue'" font-size="12">Potentiometer 2</text>
<text transform="matrix(1 0 0 1 238.1868 129.8562)" font-family="'HelveticaNeue'" font-size="12">Potentiometer 4</text>
<g>
	
		<line fill="none" stroke="#000000" stroke-width="2" stroke-linecap="round" x1="-190.809" y1="71.161" x2="-190.809" y2="165.725"/>
	
		<line fill="none" stroke="#000000" stroke-width="2" stroke-linecap="round" x1="-190.809" y1="71.161" x2="-173.961" y2="71.161"/>
	
		<line fill="none" stroke="#000000" stroke-width="2" stroke-linecap="round" x1="-190.809" y1="166.269" x2="-173.961" y2="166.269"/>
</g>
<g>
	
		<line fill="none" stroke="#000000" stroke-width="2" stroke-linecap="round" x1="-190.809" y1="176.595" x2="-190.809" y2="372.75"/>
	
		<line fill="none" stroke="#000000" stroke-width="2" stroke-linecap="round" x1="-190.809" y1="176.595" x2="-173.961" y2="176.595"/>
	
		<line fill="none" stroke="#000000" stroke-width="2" stroke-linecap="round" x1="-190.809" y1="373.878" x2="-173.961" y2="373.878"/>
</g>
<g>
	
		<line fill="none" stroke="#000000" stroke-width="2" stroke-linecap="round" x1="-190.809" y1="383.835" x2="-190.809" y2="478.399"/>
	
		<line fill="none" stroke="#000000" stroke-width="2" stroke-linecap="round" x1="-190.809" y1="383.835" x2="-173.961" y2="383.835"/>
	
		<line fill="none" stroke="#000000" stroke-width="2" stroke-linecap="round" x1="-190.809" y1="478.943" x2="-173.961" y2="478.943"/>
</g>
<g>
	
		<line fill="none" stroke="#000000" stroke-width="2" stroke-linecap="round" x1="224.017" y1="385.292" x2="224.017" y2="479.856"/>
	
		<line fill="none" stroke="#000000" stroke-width="2" stroke-linecap="round" x1="224.017" y1="385.292" x2="207.169" y2="385.292"/>
	<line fill="none" stroke="#000000" stroke-width="2" stroke-linecap="round" x1="224.017" y1="480.4" x2="207.169" y2="480.4"/>
</g>
<g>
	
		<line fill="none" stroke="#000000" stroke-width="2" stroke-linecap="round" x1="224.017" y1="280.582" x2="224.017" y2="375.146"/>
	
		<line fill="none" stroke="#000000" stroke-width="2" stroke-linecap="round" x1="224.017" y1="280.582" x2="207.169" y2="280.582"/>
	<line fill="none" stroke="#000000" stroke-width="2" stroke-linecap="round" x1="224.017" y1="375.69" x2="207.169" y2="375.69"/>
</g>
<g>
	
		<line fill="none" stroke="#000000" stroke-width="2" stroke-linecap="round" x1="224.017" y1="175.871" x2="224.017" y2="270.435"/>
	
		<line fill="none" stroke="#000000" stroke-width="2" stroke-linecap="round" x1="224.017" y1="175.871" x2="207.169" y2="175.871"/>
	
		<line fill="none" stroke="#000000" stroke-width="2" stroke-linecap="round" x1="224.017" y1="270.979" x2="207.169" y2="270.979"/>
</g>
<g>
	<line fill="none" stroke="#000000" stroke-width="2" stroke-linecap="round" x1="224.017" y1="71.161" x2="224.017" y2="165.725"/>
	<line fill="none" stroke="#000000" stroke-width="2" stroke-linecap="round" x1="224.017" y1="71.161" x2="207.169" y2="71.161"/>
	
		<line fill="none" stroke="#000000" stroke-width="2" stroke-linecap="round" x1="224.017" y1="166.269" x2="207.169" y2="166.269"/>
</g>
</svg>
