<?xml version="1.0" encoding="utf-8"?>
<!-- Generator: Adobe Illustrator 16.0.4, SVG Export Plug-In . SVG Version: 6.00 Build 0)  -->
<!DOCTYPE svg PUBLIC "-//W3C//DTD SVG 1.1//EN" "http://www.w3.org/Graphics/SVG/1.1/DTD/svg11.dtd">
<svg version="1.1" id="Layer_1" xmlns="http://www.w3.org/2000/svg" xmlns:xlink="http://www.w3.org/1999/xlink" x="0px" y="0px"
	 width="485px" height="499px" viewBox="0 0 485 499" enable-background="new 0 0 485 499" xml:space="preserve">
<rect x="384.599" y="43.255" fill="#FFFFFF" stroke="#000000" stroke-width="2" stroke-miterlimit="10" width="85.401" height="105.932"/>
<rect x="384.599" y="210.774" fill="#FFFFFF" stroke="#000000" stroke-width="2" stroke-miterlimit="10" width="85.401" height="105.929"/>
<rect x="384.599" y="376.65" fill="#FFFFFF" stroke="#000000" stroke-width="2" stroke-miterlimit="10" width="85.401" height="105.93"/>
<polygon fill="none" stroke="#000000" stroke-width="2" stroke-miterlimit="10" points="49.871,238.233 66.807,252.038 
	135.58,252.038 154.671,236.477 205.583,236.477 205.583,31.348 20,31.348 20,238.233 "/>
<line fill="none" stroke="#000000" stroke-width="2" stroke-miterlimit="10" x1="205.583" y1="65.836" x2="384.599" y2="65.836"/>
<line fill="none" stroke="#000000" stroke-width="2" stroke-miterlimit="10" x1="340.255" y1="65.836" x2="340.255" y2="389.416"/>
<line fill="none" stroke="#000000" stroke-width="2" stroke-miterlimit="10" x1="205.583" y1="85.792" x2="384.599" y2="85.792"/>
<line fill="none" stroke="#000000" stroke-width="2" stroke-miterlimit="10" x1="314.8" y1="85.792" x2="314.8" y2="409.373"/>
<circle stroke="#000000" stroke-width="2" stroke-miterlimit="10" cx="340.255" cy="65.836" r="4.105"/>
<circle stroke="#000000" stroke-width="2" stroke-miterlimit="10" cx="314.8" cy="85.792" r="4.105"/>
<circle stroke="#000000" stroke-width="2" stroke-miterlimit="10" cx="340.255" cy="222.105" r="4.105"/>
<circle stroke="#000000" stroke-width="2" stroke-miterlimit="10" cx="314.8" cy="242.059" r="4.105"/>
<text transform="matrix(1 0 0 1 389.1152 69.9414)" font-family="'HelveticaNeue'" font-size="14.781">SCL</text>
<text transform="matrix(1 0 0 1 389.1152 92.1133)" font-family="'HelveticaNeue'" font-size="14.781">SDA</text>
<text transform="matrix(1 0 0 1 163.1436 69.9414)" font-family="'HelveticaNeue'" font-size="14.781">SCL</text>
<text transform="matrix(1 0 0 1 23.2856 26.2148)" font-family="'HelveticaNeue'" font-size="14.781">Controller</text>
<text transform="matrix(1 0 0 1 384.5996 371.7227)" font-family="'HelveticaNeue'" font-size="14.781">Peripheral 3</text>
<text transform="matrix(1 0 0 1 384.5996 204.8193)" font-family="'HelveticaNeue'" font-size="14.781">Peripheral 2</text>
<text transform="matrix(1 0 0 1 384.5996 37.917)" font-family="'HelveticaNeue'" font-size="14.781">Peripheral 1</text>
<text transform="matrix(1 0 0 1 163.1436 90.7188)" font-family="'HelveticaNeue'" font-size="14.781">SDA</text>
<text transform="matrix(1 0 0 1 388.0879 226.2949)" font-family="'HelveticaNeue'" font-size="14.781">SCL</text>
<text transform="matrix(1 0 0 1 388.0879 248.4658)" font-family="'HelveticaNeue'" font-size="14.781">SDA</text>
<text transform="matrix(1 0 0 1 388.0879 391.3496)" font-family="'HelveticaNeue'" font-size="14.781">SCL</text>
<text transform="matrix(1 0 0 1 388.0879 413.5186)" font-family="'HelveticaNeue'" font-size="14.781">SDA</text>
<line fill="none" stroke="#000000" stroke-width="2" stroke-miterlimit="10" x1="340.255" y1="222.106" x2="384.599" y2="222.106"/>
<line fill="none" stroke="#000000" stroke-width="2" stroke-miterlimit="10" x1="314.8" y1="242.06" x2="384.599" y2="242.06"/>
<line fill="none" stroke="#000000" stroke-width="2" stroke-miterlimit="10" x1="340.255" y1="389.416" x2="384.599" y2="389.416"/>
<line fill="none" stroke="#000000" stroke-width="2" stroke-miterlimit="10" x1="314.8" y1="409.373" x2="384.599" y2="409.373"/>
</svg>
