<?xml version="1.0" encoding="utf-8"?>
<!-- Generator: Adobe Illustrator 16.0.4, SVG Export Plug-In . SVG Version: 6.00 Build 0)  -->
<!DOCTYPE svg PUBLIC "-//W3C//DTD SVG 1.1//EN" "http://www.w3.org/Graphics/SVG/1.1/DTD/svg11.dtd">
<svg version="1.1" id="Layer_1" xmlns="http://www.w3.org/2000/svg" xmlns:xlink="http://www.w3.org/1999/xlink" x="0px" y="0px"
	 width="1012.238px" height="142.04px" viewBox="-0.001 -21.998 1012.238 142.04"
	 enable-background="new -0.001 -21.998 1012.238 142.04" xml:space="preserve">
<g>
	
		<rect x="0.499" y="83.498" fill="#FFFFFF" stroke="#000000" stroke-linecap="round" stroke-miterlimit="10" width="20.391" height="33"/>
	
		<rect x="20.707" y="83.498" fill="#FFFFFF" stroke="#000000" stroke-linecap="round" stroke-miterlimit="10" width="20.392" height="33"/>
	
		<rect x="40.37" y="83.498" fill="#FFFFFF" stroke="#000000" stroke-linecap="round" stroke-miterlimit="10" width="20.391" height="33"/>
	
		<rect x="60.578" y="83.498" fill="#FFFFFF" stroke="#000000" stroke-linecap="round" stroke-miterlimit="10" width="20.391" height="33"/>
	
		<rect x="80.241" y="83.498" fill="#FFFFFF" stroke="#000000" stroke-linecap="round" stroke-miterlimit="10" width="20.391" height="33"/>
	
		<rect x="100.45" y="83.498" fill="#FFFFFF" stroke="#000000" stroke-linecap="round" stroke-miterlimit="10" width="20.391" height="33"/>
	
		<rect x="120.112" y="83.498" fill="#FFFFFF" stroke="#000000" stroke-linecap="round" stroke-miterlimit="10" width="20.392" height="33"/>
	
		<rect x="139.774" y="83.498" fill="#FFFFFF" stroke="#000000" stroke-linecap="round" stroke-miterlimit="10" width="20.391" height="33"/>
</g>
<text transform="matrix(1 0 0 1 3.9985 108.4976)" font-family="'HelveticaNeue'" font-size="24">1 0 0 0 0 0 0 0 </text>
<text transform="matrix(1 0 0 1 11.9985 63.2476)" font-family="'HelveticaNeue'" font-size="14">Address (0x40)</text>
<text transform="matrix(1 0 0 1 140.7485 62.9976)" font-family="'HelveticaNeue'" font-size="14">Write</text>
<text transform="matrix(1 0 0 1 184.6895 -10)" font-family="'HelveticaNeue'" font-size="14">From controller to peripheral</text>
<g>
	
		<line fill="none" stroke="#000000" stroke-linecap="round" stroke-miterlimit="10" x1="139.749" y1="78.498" x2="139.749" y2="68.998"/>
	
		<line fill="none" stroke="#000000" stroke-linecap="round" stroke-miterlimit="10" x1="0.499" y1="78.498" x2="0.499" y2="68.998"/>
	
		<line fill="none" stroke="#000000" stroke-linecap="round" stroke-miterlimit="10" x1="1.079" y1="68.998" x2="139.749" y2="68.998"/>
</g>
<g>
	
		<rect x="186.399" y="83.498" fill="#FFFFFF" stroke="#000000" stroke-linecap="round" stroke-miterlimit="10" width="20.391" height="33"/>
	
		<rect x="206.607" y="83.498" fill="#FFFFFF" stroke="#000000" stroke-linecap="round" stroke-miterlimit="10" width="20.392" height="33"/>
	
		<rect x="226.27" y="83.498" fill="#FFFFFF" stroke="#000000" stroke-linecap="round" stroke-miterlimit="10" width="20.39" height="33"/>
	
		<rect x="246.479" y="83.498" fill="#FFFFFF" stroke="#000000" stroke-linecap="round" stroke-miterlimit="10" width="20.391" height="33"/>
	
		<rect x="266.141" y="83.498" fill="#FFFFFF" stroke="#000000" stroke-linecap="round" stroke-miterlimit="10" width="20.391" height="33"/>
	
		<rect x="286.35" y="83.498" fill="#FFFFFF" stroke="#000000" stroke-linecap="round" stroke-miterlimit="10" width="20.391" height="33"/>
	
		<rect x="306.012" y="83.498" fill="#FFFFFF" stroke="#000000" stroke-linecap="round" stroke-miterlimit="10" width="20.393" height="33"/>
	
		<rect x="325.674" y="83.498" fill="#FFFFFF" stroke="#000000" stroke-linecap="round" stroke-miterlimit="10" width="20.393" height="33"/>
</g>
<text transform="matrix(1 0 0 1 189.8989 108.4976)" font-family="'HelveticaNeue'" font-size="24">0 0 0 0 0 0 1 0</text>
<text transform="matrix(1 0 0 1 197.8989 63.2476)" font-family="'HelveticaNeue'" font-size="14">Register (0x01)</text>
<text transform="matrix(1 0 0 1 326.6484 24.9976)" enable-background="new    "><tspan x="0" y="0" font-family="'HelveticaNeue'" font-size="14">Ack.</tspan><tspan x="0" y="16.8" font-family="'HelveticaNeue'" font-size="14">from </tspan><tspan x="0" y="33.6" font-family="'HelveticaNeue'" font-size="14">device</tspan></text>
<text transform="matrix(1 0 0 1 741.6484 24.9976)" enable-background="new    "><tspan x="0" y="0" font-family="'HelveticaNeue'" font-size="14">Ack.</tspan><tspan x="0" y="16.8" font-family="'HelveticaNeue'" font-size="14">from </tspan><tspan x="0" y="33.6" font-family="'HelveticaNeue'" font-size="14">device</tspan></text>
<text transform="matrix(1 0 0 1 953.6484 24.9976)" enable-background="new    "><tspan x="0" y="0" font-family="'HelveticaNeue'" font-size="14">Nack.</tspan><tspan x="0" y="16.8" font-family="'HelveticaNeue'" font-size="14">from </tspan><tspan x="0" y="33.6" font-family="'HelveticaNeue'" font-size="14">controller</tspan></text>
<g>
	
		<line fill="none" stroke="#000000" stroke-linecap="round" stroke-miterlimit="10" x1="325.648" y1="78.498" x2="325.648" y2="68.998"/>
	
		<line fill="none" stroke="#000000" stroke-linecap="round" stroke-miterlimit="10" x1="186.399" y1="78.498" x2="186.399" y2="68.998"/>
	
		<line fill="none" stroke="#000000" stroke-linecap="round" stroke-miterlimit="10" x1="186.979" y1="68.998" x2="325.648" y2="68.998"/>
</g>
<g>
	
		<line fill="none" stroke="#000000" stroke-linecap="round" stroke-miterlimit="10" x1="0.499" y1="-3.833" x2="541.065" y2="-3.833"/>
	
		<line fill="none" stroke="#000000" stroke-linecap="round" stroke-miterlimit="10" x1="0.499" y1="12.166" x2="0.499" y2="-3.833"/>
	
		<line fill="none" stroke="#000000" stroke-linecap="round" stroke-miterlimit="10" x1="541.065" y1="-3.834" x2="541.065" y2="12"/>
</g>
<g>
	
		<rect x="381.331" y="83.498" fill="#FFFFFF" stroke="#000000" stroke-linecap="round" stroke-miterlimit="10" width="20.391" height="33"/>
	
		<rect x="401.54" y="83.498" fill="#FFFFFF" stroke="#000000" stroke-linecap="round" stroke-miterlimit="10" width="20.391" height="33"/>
	
		<rect x="421.202" y="83.498" fill="#FFFFFF" stroke="#000000" stroke-linecap="round" stroke-miterlimit="10" width="20.391" height="33"/>
	
		<rect x="441.411" y="83.498" fill="#FFFFFF" stroke="#000000" stroke-linecap="round" stroke-miterlimit="10" width="20.391" height="33"/>
	
		<rect x="461.073" y="83.498" fill="#FFFFFF" stroke="#000000" stroke-linecap="round" stroke-miterlimit="10" width="20.391" height="33"/>
	
		<rect x="481.282" y="83.498" fill="#FFFFFF" stroke="#000000" stroke-linecap="round" stroke-miterlimit="10" width="20.391" height="33"/>
	
		<rect x="500.944" y="83.498" fill="#FFFFFF" stroke="#000000" stroke-linecap="round" stroke-miterlimit="10" width="20.392" height="33"/>
	
		<rect x="520.606" y="83.498" fill="#FFFFFF" stroke="#000000" stroke-linecap="round" stroke-miterlimit="10" width="20.392" height="33"/>
</g>
<text transform="matrix(1 0 0 1 384.832 108.4976)" font-family="'HelveticaNeue'" font-size="24">1 0 0 0 0 0 0 1 </text>
<text transform="matrix(1 0 0 1 392.832 63.2476)" font-family="'HelveticaNeue'" font-size="14">Address (0x40)</text>
<text transform="matrix(1 0 0 1 521.582 62.9976)" font-family="'HelveticaNeue'" font-size="14">Read</text>
<text transform="matrix(1 0 0 1 703.0234 -9.333)" font-family="'HelveticaNeue'" font-size="14">From peripheral to controller</text>
<g>
	
		<line fill="none" stroke="#000000" stroke-linecap="round" stroke-miterlimit="10" x1="520.581" y1="78.498" x2="520.581" y2="68.998"/>
	
		<line fill="none" stroke="#000000" stroke-linecap="round" stroke-miterlimit="10" x1="381.331" y1="78.498" x2="381.331" y2="68.998"/>
	
		<line fill="none" stroke="#000000" stroke-linecap="round" stroke-miterlimit="10" x1="381.911" y1="68.998" x2="520.581" y2="68.998"/>
</g>
<g>
	
		<rect x="600.398" y="83.498" fill="#FFFFFF" stroke="#000000" stroke-linecap="round" stroke-miterlimit="10" width="20.391" height="33"/>
	
		<rect x="620.607" y="83.498" fill="#FFFFFF" stroke="#000000" stroke-linecap="round" stroke-miterlimit="10" width="20.391" height="33"/>
	
		<rect x="640.27" y="83.498" fill="#FFFFFF" stroke="#000000" stroke-linecap="round" stroke-miterlimit="10" width="20.392" height="33"/>
	
		<rect x="660.479" y="83.498" fill="#FFFFFF" stroke="#000000" stroke-linecap="round" stroke-miterlimit="10" width="20.392" height="33"/>
	
		<rect x="680.141" y="83.498" fill="#FFFFFF" stroke="#000000" stroke-linecap="round" stroke-miterlimit="10" width="20.392" height="33"/>
	
		<rect x="700.35" y="83.498" fill="#FFFFFF" stroke="#000000" stroke-linecap="round" stroke-miterlimit="10" width="20.392" height="33"/>
	
		<rect x="720.012" y="83.498" fill="#FFFFFF" stroke="#000000" stroke-linecap="round" stroke-miterlimit="10" width="20.393" height="33"/>
	
		<rect x="739.674" y="83.498" fill="#FFFFFF" stroke="#000000" stroke-linecap="round" stroke-miterlimit="10" width="20.393" height="33"/>
</g>
<text transform="matrix(1 0 0 1 603.8984 108.4976)" font-family="'HelveticaNeue'" font-size="24">0 0 0 0 0 0 1 0</text>
<text transform="matrix(1 0 0 1 591.8984 63.2476)" font-family="'HelveticaNeue'" font-size="14">Data from register 0x01</text>
<text transform="matrix(1 0 0 1 803.8984 63.2476)" font-family="'HelveticaNeue'" font-size="14">Data from register 0x01</text>
<g>
	
		<line fill="none" stroke="#000000" stroke-linecap="round" stroke-miterlimit="10" x1="739.648" y1="78.498" x2="739.648" y2="68.998"/>
	
		<line fill="none" stroke="#000000" stroke-linecap="round" stroke-miterlimit="10" x1="600.398" y1="78.498" x2="600.398" y2="68.998"/>
	
		<line fill="none" stroke="#000000" stroke-linecap="round" stroke-miterlimit="10" x1="600.979" y1="68.998" x2="739.648" y2="68.998"/>
</g>
<g>
	
		<rect x="812.398" y="83.498" fill="#FFFFFF" stroke="#000000" stroke-linecap="round" stroke-miterlimit="10" width="20.391" height="33"/>
	
		<rect x="832.607" y="83.498" fill="#FFFFFF" stroke="#000000" stroke-linecap="round" stroke-miterlimit="10" width="20.391" height="33"/>
	
		<rect x="852.27" y="83.498" fill="#FFFFFF" stroke="#000000" stroke-linecap="round" stroke-miterlimit="10" width="20.392" height="33"/>
	
		<rect x="872.479" y="83.498" fill="#FFFFFF" stroke="#000000" stroke-linecap="round" stroke-miterlimit="10" width="20.392" height="33"/>
	
		<rect x="892.141" y="83.498" fill="#FFFFFF" stroke="#000000" stroke-linecap="round" stroke-miterlimit="10" width="20.392" height="33"/>
	
		<rect x="912.35" y="83.498" fill="#FFFFFF" stroke="#000000" stroke-linecap="round" stroke-miterlimit="10" width="20.392" height="33"/>
	
		<rect x="932.012" y="83.498" fill="#FFFFFF" stroke="#000000" stroke-linecap="round" stroke-miterlimit="10" width="20.393" height="33"/>
	
		<rect x="951.674" y="83.498" fill="#FFFFFF" stroke="#000000" stroke-linecap="round" stroke-miterlimit="10" width="20.393" height="33"/>
</g>
<text transform="matrix(1 0 0 1 815.8984 108.4976)" font-family="'HelveticaNeue'" font-size="24">0 0 0 0 0 0 1 1</text>
<g>
	
		<line fill="none" stroke="#000000" stroke-linecap="round" stroke-miterlimit="10" x1="951.648" y1="78.498" x2="951.648" y2="68.998"/>
	
		<line fill="none" stroke="#000000" stroke-linecap="round" stroke-miterlimit="10" x1="812.398" y1="78.498" x2="812.398" y2="68.998"/>
	
		<line fill="none" stroke="#000000" stroke-linecap="round" stroke-miterlimit="10" x1="812.979" y1="68.998" x2="951.648" y2="68.998"/>
</g>
<g>
	
		<line fill="none" stroke="#000000" stroke-linecap="round" stroke-miterlimit="10" x1="600.398" y1="-3.833" x2="972.632" y2="-3.833"/>
	
		<line fill="none" stroke="#000000" stroke-linecap="round" stroke-miterlimit="10" x1="600.398" y1="12.166" x2="600.398" y2="-3.833"/>
	
		<line fill="none" stroke="#000000" stroke-linecap="round" stroke-miterlimit="10" x1="972.632" y1="-3.834" x2="972.632" y2="12"/>
</g>
</svg>
