<?xml version="1.0" encoding="utf-8"?>
<!-- Generator: Adobe Illustrator 19.0.1, SVG Export Plug-In . SVG Version: 6.00 Build 0)  -->
<svg version="1.1" id="Layer_1" xmlns:svg="http://www.w3.org/2000/svg"
	 xmlns="http://www.w3.org/2000/svg" xmlns:xlink="http://www.w3.org/1999/xlink" x="0px" y="0px" viewBox="-199.9 81.4 630 606.6"
	 style="enable-background:new -199.9 81.4 630 606.6;" xml:space="preserve">
<style type="text/css">
	.st0{fill:none;stroke:#787878;stroke-width:3;stroke-linecap:round;}
	.st1{fill:none;stroke:#000000;stroke-width:3;stroke-linecap:round;}
	.st2{fill:#FFFFFF;stroke:#000000;stroke-width:3;stroke-linecap:round;}
	.st3{fill:#8C8C8C;}
	.st4{font-family:'ArialMT';}
	.st5{font-size:9.4798px;}
	.st6{fill:none;}
	.st7{font-size:11.5112px;}
	.st8{fill:none;stroke:#000000;stroke-width:3;stroke-linecap:round;stroke-linejoin:round;}
	.st9{font-size:16.2511px;}
	.st10{fill:none;stroke:#787878;stroke-width:3;stroke-linecap:round;stroke-linejoin:round;}
	.st11{font-size:10.834px;}
	.st12{fill:none;stroke:#404040;stroke-width:3;stroke-linecap:round;}
	.st13{font-size:13.5425px;}
</style>
<g>
	<g transform="translate(74.7265,188.42)">
		<g id="schematic">
			<path id="connector0pin" class="st0" d="M-30.5,445.9v-19.5"/>
			<g id="connector0terminal">
			</g>
			<path id="path4098" class="st1" d="M-48.6,446.3h36.3"/>
			<path id="path4100" class="st1" d="M-42.6,453.7h24.2"/>
			<path id="path4102" class="st1" d="M-24.5,461.1h-12.1"/>
		</g>
	</g>
</g>
<g>
	<g transform="translate(104.313,16.0407)">
		<g id="schematic_1_">
			<rect x="40.8" y="171.1" class="st2" width="212.1" height="368.1"/>
			<line id="connector61pin" class="st0" x1="253.1" y1="208.9" x2="292.1" y2="208.9"/>
			<text transform="matrix(1 0 0 1 221.4031 210.7887)" class="st3 st4 st5">D0/RX</text>
			<g id="connector61terminal">
			</g>
			<line id="connector62pin" class="st0" x1="253.1" y1="228.4" x2="292.1" y2="228.4"/>
			<text transform="matrix(1 0 0 1 222.4587 230.2877)" class="st3 st4 st5">D1/TX</text>
			<g id="connector62terminal">
			</g>
			<line id="connector63pin" class="st0" x1="253.1" y1="247.9" x2="292.1" y2="247.9"/>
			<text transform="matrix(1 0 0 1 237.2058 249.7897)" class="st3 st4 st5">D2</text>
			<g id="connector63terminal">
			</g>
			<line id="connector64pin" class="st0" x1="253.1" y1="267.4" x2="292.1" y2="267.4"/>
			<text transform="matrix(1 0 0 1 211.405 269.2916)" class="st3 st4 st5">D3 PWM</text>
			<g id="connector64terminal">
			</g>
			<line id="connector65pin" class="st0" x1="253.1" y1="286.9" x2="292.1" y2="286.9"/>
			<text transform="matrix(1 0 0 1 237.2058 288.7936)" class="st3 st4 st5">D4</text>
			<g id="connector65terminal">
			</g>
			<line id="connector66pin" class="st0" x1="253.1" y1="306.4" x2="292.1" y2="306.4"/>
			<text transform="matrix(1 0 0 1 211.405 308.2946)" class="st3 st4 st5">D5 PWM</text>
			<g id="connector66terminal">
			</g>
			<line id="connector67pin" class="st0" x1="253.1" y1="325.9" x2="292.1" y2="325.9"/>
			<text transform="matrix(1 0 0 1 211.405 327.7946)" class="st3 st4 st5">D6 PWM</text>
			<g id="connector67terminal">
			</g>
			<line id="connector68pin" class="st0" x1="253.1" y1="345.4" x2="292.1" y2="345.4"/>
			<text transform="matrix(1 0 0 1 237.2058 347.2965)" class="st3 st4 st5">D7</text>
			<g id="connector68terminal">
			</g>
			<line id="connector51pin" class="st0" x1="253.1" y1="364.9" x2="292.1" y2="364.9"/>
			<text transform="matrix(1 0 0 1 237.2058 366.7975)" class="st3 st4 st5">D8</text>
			<g id="connector51terminal">
			</g>
			<line id="connector52pin" class="st0" x1="253.1" y1="384.4" x2="292.1" y2="384.4"/>
			<text transform="matrix(1 0 0 1 211.405 386.2994)" class="st3 st4 st5">D9 PWM</text>
			<g id="connector52terminal">
			</g>
			<line id="connector53pin" class="st0" x1="253.1" y1="403.9" x2="292.1" y2="403.9"/>
			<text transform="matrix(1 0 0 1 190.8533 405.8015)" class="st3 st4 st5">D10 PWM/SS</text>
			<g id="connector53terminal">
			</g>
			<line id="connector54pin" class="st0" x1="253.1" y1="423.4" x2="292.1" y2="423.4"/>
			<text transform="matrix(1 0 0 1 179.9753 425.3004)" class="st3 st4 st5">D11 PWM/MOSI</text>
			<g id="connector54terminal">
			</g>
			<line id="connector55pin" class="st0" x1="253.1" y1="442.9" x2="292.1" y2="442.9"/>
			<text transform="matrix(1 0 0 1 205.073 444.8024)" class="st3 st4 st5">D12/MISO</text>
			<g id="connector55terminal">
			</g>
			<line id="connector41pin" class="st6" x1="253.1" y1="462.4" x2="292.1" y2="462.4"/>
			<rect id="connector41terminal" x="292.1" y="461.5" class="st6" width="1.9" height="1.9"/>
			<line id="connector56pin" class="st0" x1="253.1" y1="462.4" x2="292.1" y2="462.4"/>
			<text transform="matrix(1 0 0 1 209.8074 464.3043)" class="st3 st4 st5">D13/SCK</text>
			<g id="connector56terminal">
			</g>
			<line id="connector43pin" class="st6" x1="1.5" y1="208.9" x2="40.5" y2="208.9"/>
			<rect id="connector43terminal" x="-0.4" y="207.9" class="st6" width="1.9" height="1.9"/>
			<line id="connector85pin" class="st0" x1="1.5" y1="208.9" x2="40.5" y2="208.9"/>
			<text transform="matrix(1 0 0 1 44.2898 210.7887)" class="st3 st4 st5">RESET</text>
			<g id="connector85terminal">
			</g>
			<line id="connector49pin" class="st0" x1="1.5" y1="228.4" x2="40.5" y2="228.4"/>
			<text transform="matrix(1 0 0 1 44.2898 230.2877)" class="st3 st4 st5">RESET2</text>
			<rect id="connector49terminal" x="-0.4" y="227.4" class="st6" width="1.9" height="1.9"/>
			<line id="connector58pin" class="st0" x1="1.5" y1="247.9" x2="40.5" y2="247.9"/>
			<text transform="matrix(1 0 0 1 44.2898 249.7897)" class="st3 st4 st5">AREF</text>
			<g id="connector58terminal">
			</g>
			<line id="connector84pin" class="st0" x1="1.5" y1="267.4" x2="40.5" y2="267.4"/>
			<text transform="matrix(1 0 0 1 44.2898 269.2916)" class="st3 st4 st5">ioref</text>
			<g id="connector84terminal">
			</g>
			<line id="connector0pin_1_" class="st0" x1="1.5" y1="306.4" x2="40.5" y2="306.4"/>
			<text transform="matrix(1 0 0 1 44.2898 308.2946)" class="st3 st4 st5">A0</text>
			<g id="connector0terminal_1_">
			</g>
			<line id="connector1pin" class="st0" x1="1.5" y1="325.9" x2="40.5" y2="325.9"/>
			<text transform="matrix(1 0 0 1 44.2898 327.7946)" class="st3 st4 st5">A1</text>
			<g id="connector1terminal">
			</g>
			<line id="connector2pin" class="st0" x1="1.5" y1="345.4" x2="40.5" y2="345.4"/>
			<text transform="matrix(1 0 0 1 44.2898 347.2965)" class="st3 st4 st5">A2</text>
			<g id="connector2terminal">
			</g>
			<line id="connector3pin" class="st0" x1="1.5" y1="364.9" x2="40.5" y2="364.9"/>
			<text transform="matrix(1 0 0 1 44.2898 366.7975)" class="st3 st4 st5">A3</text>
			<g id="connector3terminal">
			</g>
			<line id="connector48pin" class="st6" x1="1.5" y1="384.4" x2="40.5" y2="384.4"/>
			<rect id="connector48terminal" x="-0.4" y="383.5" class="st6" width="1.9" height="1.9"/>
			<line id="connector45pin" class="st6" x1="1.5" y1="384.4" x2="40.5" y2="384.4"/>
			<rect id="connector45terminal" x="-0.4" y="383.5" class="st6" width="1.9" height="1.9"/>
			<line id="connector4pin" class="st6" x1="1.5" y1="384.4" x2="40.5" y2="384.4"/>
			<g id="connector4terminal">
			</g>
			<line id="connector39pin" class="st6" x1="1.5" y1="384.4" x2="40.5" y2="384.4"/>
			<rect id="connector39terminal" x="-0.4" y="383.5" class="st6" width="1.9" height="1.9"/>
			<line id="connector47pin" class="st6" x1="1.5" y1="384.4" x2="40.5" y2="384.4"/>
			<rect id="connector47terminal" x="-0.4" y="383.5" class="st6" width="1.9" height="1.9"/>
			<line id="connector42pin" class="st6" x1="1.5" y1="384.4" x2="40.5" y2="384.4"/>
			<rect id="connector42terminal" x="-0.4" y="383.5" class="st6" width="1.9" height="1.9"/>
			<line id="connector59pin" class="st0" x1="1.5" y1="384.4" x2="40.5" y2="384.4"/>
			<text transform="matrix(1 0 0 1 44.2898 386.2994)" class="st3 st4 st5">A4/SDA</text>
			<g id="connector59terminal">
			</g>
			<line id="connector5pin" class="st6" x1="1.5" y1="403.9" x2="40.5" y2="403.9"/>
			<g id="connector5terminal">
			</g>
			<line id="connector60pin" class="st0" x1="1.5" y1="403.9" x2="40.5" y2="403.9"/>
			<text transform="matrix(1 0 0 1 44.2898 405.8015)" class="st3 st4 st5">A5/SCL</text>
			<g id="connector60terminal">
			</g>
			<line id="connector91pin" class="st0" x1="1.5" y1="501.4" x2="40.5" y2="501.4"/>
			<text transform="matrix(1 0 0 1 44.2898 503.3082)" class="st3 st4 st5">N/C</text>
			<g id="connector91terminal">
			</g>
			<line id="connector88pin" class="st6" x1="156.6" y1="539.5" x2="156.6" y2="578.5"/>
			<g id="connector88terminal">
			</g>
			<line id="connector57pin" class="st6" x1="156.6" y1="539.5" x2="156.6" y2="578.5"/>
			<g id="connector57terminal">
			</g>
			<line id="connector44pin" class="st6" x1="156.6" y1="539.5" x2="156.6" y2="578.5"/>
			<rect id="connector44terminal" x="155.6" y="578.5" class="st6" width="1.9" height="1.9"/>
			<line id="connector50pin" class="st6" x1="156.6" y1="539.5" x2="156.6" y2="578.5"/>
			<rect id="connector50terminal" x="155.6" y="578.5" class="st6" width="1.9" height="1.9"/>
			<line id="connector89pin" class="st0" x1="156.6" y1="539.5" x2="156.6" y2="578.5"/>
			<g transform="matrix(1, 0, 0, 1, 58.2999, 149.45)">
				<g>
					<g transform="rotate(270)">
						<g>
							<text transform="matrix(1 0 0 1 -386.2218 100.1559)" class="st3 st4 st5">GND</text>
						</g>
					</g>
				</g>
			</g>
			<g id="connector89terminal">
			</g>
			<line id="connector86pin" class="st0" x1="98.1" y1="131.8" x2="98.1" y2="170.8"/>
			<g transform="matrix(1, 0, 0, 1, 36.6999, 16.15)">
				<g>
					<g transform="rotate(270)">
						<g>
							<text transform="matrix(1 0 0 1 -175.346 63.2501)" class="st3 st4 st5">3V3</text>
						</g>
					</g>
				</g>
			</g>
			<g id="connector86terminal">
			</g>
			<line id="connector40pin" class="st6" x1="137.1" y1="131.8" x2="137.1" y2="170.8"/>
			<rect id="connector40terminal" x="136.1" y="129.9" class="st6" width="1.9" height="1.9"/>
			<line id="connector46pin" class="st6" x1="137.1" y1="131.8" x2="137.1" y2="170.8"/>
			<rect id="connector46terminal" x="136.1" y="129.9" class="st6" width="1.9" height="1.9"/>
			<line id="connector87pin" class="st0" x1="137.1" y1="131.8" x2="137.1" y2="170.8"/>
			<g transform="matrix(1, 0, 0, 1, 51.0999, 16.15)">
				<g>
					<g transform="rotate(270)">
						<g>
							<text transform="matrix(1 0 0 1 -170.0764 87.8539)" class="st3 st4 st5">5V</text>
						</g>
					</g>
				</g>
			</g>
			<g id="connector87terminal">
			</g>
			<line id="connector90pin" class="st0" x1="176.1" y1="131.8" x2="176.1" y2="170.8"/>
			<g transform="matrix(1, 0, 0, 1, 65.4999, 16.15)">
				<g>
					<g transform="rotate(270)">
						<g>
							<text transform="matrix(1 0 0 1 -174.2835 112.4579)" class="st3 st4 st5">VIN</text>
						</g>
					</g>
				</g>
			</g>
			<g id="connector90terminal">
			</g>
			<text id="label" transform="matrix(1 0 0 1 128.1882 337.9508)" class="st4 st7">Arduino</text>
			<text id="label_1_" transform="matrix(1 0 0 1 137.4675 350.2321)" class="st4 st7">Uno</text>
			<text id="label_2_" transform="matrix(1 0 0 1 130.7566 362.5104)" class="st4 st7">(Rev3)</text>
		</g>
	</g>
</g>
<g>
	<g transform="translate(86.4,73.8157)">
		<rect id="rect9" x="-223.2" y="287.9" class="st8" width="154.8" height="117"/>
		<text id="label_3_" transform="matrix(1 0 0 1 -172.8901 336.8884)" class="st4 st9">TMP007</text>
		<line id="line14" class="st10" x1="-30.3" y1="326.9" x2="-68.4" y2="326.9"/>
		<rect id="connector6pin" x="-68.4" y="325.9" class="st6" width="39" height="1.9"/>
		<text id="label6" transform="matrix(1 0 0 1 -95.1176 328.7624)" class="st3 st4 st11">SDA</text>
		<line id="line19" class="st10" x1="-30.3" y1="346.4" x2="-68.4" y2="346.4"/>
		<rect id="connector7pin" x="-68.4" y="345.4" class="st6" width="39" height="1.9"/>
		<text id="label7" transform="matrix(1 0 0 1 -93.9169 348.2644)" class="st3 st4 st11">SCL</text>
		<line id="line24" class="st10" x1="-30.3" y1="365.9" x2="-68.4" y2="365.9"/>
		<rect id="connector8pin" x="-68.4" y="364.9" class="st6" width="39" height="1.9"/>
		<text id="label8" transform="matrix(1 0 0 1 -107.7607 367.7663)" class="st3 st4 st11">ALERT</text>
		<line id="line29" class="st10" x1="-223.5" y1="326.9" x2="-262.5" y2="326.9"/>
		<rect id="connector10pin" x="-263.4" y="325.9" class="st6" width="39" height="1.9"/>
		<text id="label10" transform="matrix(1 0 0 1 -218.4506 328.7624)" class="st3 st4 st11">ADDR0</text>
		<line id="line34" class="st10" x1="-223.5" y1="346.4" x2="-262.5" y2="346.4"/>
		<rect id="connector9pin" x="-263.4" y="345.4" class="st6" width="39" height="1.9"/>
		<text id="label9" transform="matrix(1 0 0 1 -218.4604 348.2644)" class="st3 st4 st11">ADDR1</text>
		<line id="line39" class="st10" x1="-146.4" y1="249.8" x2="-146.4" y2="287.9"/>
		<rect id="connector4pin_1_" x="-147.3" y="248.9" class="st6" width="1.9" height="39"/>
		<text id="label4" transform="matrix(4.489659e-11 -1 1 4.489659e-11 -143.8061 315.0725)" class="st3 st4 st11">VCC</text>
		<line id="line44" class="st10" x1="-146.4" y1="404.9" x2="-146.4" y2="442.9"/>
		<rect id="connector5pin_1_" x="-147.3" y="404.9" class="st6" width="1.9" height="39"/>
		<text id="label5" transform="matrix(4.489659e-11 -1 1 4.489659e-11 -143.8061 400.5374)" class="st3 st4 st11">GND</text>
	</g>
</g>
<g>
	<line class="st12" x1="260.9" y1="617.1" x2="260.9" y2="595.5"/>
</g>
<g>
	<line class="st12" x1="44.2" y1="615.1" x2="260.9" y2="617.1"/>
</g>
<circle cx="44.2" cy="615.1" r="3.9"/>
<g>
	<line class="st12" x1="-60.7" y1="106.3" x2="-60.7" y2="323.6"/>
</g>
<g>
	<line class="st12" x1="241.4" y1="106.3" x2="-60.7" y2="106.3"/>
</g>
<g>
	<line class="st12" x1="241.4" y1="146.9" x2="241.4" y2="106.3"/>
</g>
<g>
	<line class="st12" x1="-60.7" y1="615.1" x2="-60.7" y2="517.7"/>
</g>
<g>
	<line class="st12" x1="44.2" y1="615.1" x2="-60.7" y2="615.1"/>
</g>
<circle cx="44.2" cy="615.1" r="3.9"/>
<g>
	<line class="st12" x1="56.3" y1="400.9" x2="104.9" y2="400.4"/>
</g>
<g>
	<line class="st12" x1="56.3" y1="420.4" x2="104.9" y2="419.9"/>
</g>
<g id="partLabel">
	<g transform="translate(117.113,10.0407)">
		<g id="schematicLabel">
			<text transform="matrix(1 0 0 1 22.4165 130.7937)" class="st4 st13">Arduino1</text>
		</g>
	</g>
</g>
<g id="partLabel_1_">
	<g transform="translate(1.63276,66.2834)">
		<g transform="matrix(1,0,0,1,0,0)">
			<g id="schematicLabel_1_">
				<text transform="matrix(1 0 0 1 -128.1756 286.7772)" class="st4 st13">TMP007</text>
			</g>
		</g>
	</g>
</g>
</svg>
