<?xml version="1.0" encoding="utf-8"?>
<!-- Generator: Adobe Illustrator 16.0.4, SVG Export Plug-In . SVG Version: 6.00 Build 0)  -->
<!DOCTYPE svg PUBLIC "-//W3C//DTD SVG 1.1//EN" "http://www.w3.org/Graphics/SVG/1.1/DTD/svg11.dtd">
<svg version="1.1" xmlns="http://www.w3.org/2000/svg" xmlns:xlink="http://www.w3.org/1999/xlink" x="0px" y="0px" width="612px"
	 height="792px" viewBox="0 0 612 792" enable-background="new 0 0 612 792" xml:space="preserve">
<g id="Layer_1">
	<line fill="none" stroke="#000000" stroke-miterlimit="10" x1="119.667" y1="342.333" x2="119.667" y2="263"/>
	<line fill="none" stroke="#000000" stroke-miterlimit="10" x1="99" y1="263" x2="119.667" y2="263"/>
	<line fill="none" stroke="#000000" stroke-miterlimit="10" x1="519.672" y1="263" x2="540.339" y2="263"/>
	<line fill="none" stroke="#000000" stroke-miterlimit="10" x1="519.672" y1="263" x2="519.672" y2="342.333"/>
	<line fill="none" stroke="#000000" stroke-miterlimit="10" x1="169.667" y1="441" x2="169.667" y2="361.667"/>
	<line fill="none" stroke="#000000" stroke-miterlimit="10" x1="169.667" y1="361.667" x2="190.334" y2="361.667"/>
	<line fill="none" stroke="#000000" stroke-miterlimit="10" x1="190.334" y1="441" x2="211.001" y2="441"/>
	<line fill="none" stroke="#000000" stroke-miterlimit="10" x1="149" y1="441" x2="169.667" y2="441"/>
	<line fill="none" stroke="#000000" stroke-miterlimit="10" x1="190.334" y1="361.667" x2="190.334" y2="441"/>
	<line fill="none" stroke="#000000" stroke-miterlimit="10" x1="211.001" y1="441" x2="211.001" y2="361.667"/>
	<line fill="none" stroke="#000000" stroke-miterlimit="10" x1="211.001" y1="361.667" x2="231.668" y2="361.667"/>
	<line fill="none" stroke="#000000" stroke-miterlimit="10" x1="231.668" y1="441" x2="252.335" y2="441"/>
	<line fill="none" stroke="#000000" stroke-miterlimit="10" x1="231.668" y1="361.667" x2="231.668" y2="441"/>
	<line fill="none" stroke="#000000" stroke-miterlimit="10" x1="252.335" y1="441" x2="252.335" y2="361.667"/>
	<line fill="none" stroke="#000000" stroke-miterlimit="10" x1="252.335" y1="361.667" x2="273.002" y2="361.667"/>
	<line fill="none" stroke="#000000" stroke-miterlimit="10" x1="273.002" y1="441" x2="293.669" y2="441"/>
	<line fill="none" stroke="#000000" stroke-miterlimit="10" x1="273.002" y1="361.667" x2="273.002" y2="441"/>
	<line fill="none" stroke="#000000" stroke-miterlimit="10" x1="293.669" y1="441" x2="293.669" y2="361.667"/>
	<line fill="none" stroke="#000000" stroke-miterlimit="10" x1="293.669" y1="361.667" x2="314.336" y2="361.667"/>
	<line fill="none" stroke="#000000" stroke-miterlimit="10" x1="314.336" y1="441" x2="335.003" y2="441"/>
	<line fill="none" stroke="#000000" stroke-miterlimit="10" x1="314.336" y1="361.667" x2="314.336" y2="441"/>
	<line fill="none" stroke="#000000" stroke-miterlimit="10" x1="335.003" y1="441" x2="335.003" y2="361.667"/>
	<line fill="none" stroke="#000000" stroke-miterlimit="10" x1="335.003" y1="361.667" x2="355.67" y2="361.667"/>
	<line fill="none" stroke="#000000" stroke-miterlimit="10" x1="355.67" y1="441" x2="376.337" y2="441"/>
	<line fill="none" stroke="#000000" stroke-miterlimit="10" x1="355.67" y1="361.667" x2="355.67" y2="441"/>
	<line fill="none" stroke="#000000" stroke-miterlimit="10" x1="376.337" y1="441" x2="376.337" y2="361.667"/>
	<line fill="none" stroke="#000000" stroke-miterlimit="10" x1="376.337" y1="361.667" x2="397.004" y2="361.667"/>
	<line fill="none" stroke="#000000" stroke-miterlimit="10" x1="397.004" y1="441" x2="417.671" y2="441"/>
	<line fill="none" stroke="#000000" stroke-miterlimit="10" x1="397.004" y1="361.667" x2="397.004" y2="441"/>
	<line fill="none" stroke="#000000" stroke-miterlimit="10" x1="417.671" y1="441" x2="417.671" y2="361.667"/>
	<line fill="none" stroke="#000000" stroke-miterlimit="10" x1="417.671" y1="361.667" x2="438.338" y2="361.667"/>
	<line fill="none" stroke="#000000" stroke-miterlimit="10" x1="438.338" y1="441" x2="459.005" y2="441"/>
	<line fill="none" stroke="#000000" stroke-miterlimit="10" x1="438.338" y1="361.667" x2="438.338" y2="441"/>
	<line fill="none" stroke="#000000" stroke-miterlimit="10" x1="459.005" y1="441" x2="459.005" y2="361.667"/>
	<line fill="none" stroke="#000000" stroke-miterlimit="10" x1="459.005" y1="361.667" x2="479.672" y2="361.667"/>
	<line fill="none" stroke="#000000" stroke-miterlimit="10" x1="479.672" y1="441" x2="500.339" y2="441"/>
	<line fill="none" stroke="#000000" stroke-miterlimit="10" x1="479.672" y1="361.667" x2="479.672" y2="441"/>
	<line fill="none" stroke="#000000" stroke-miterlimit="10" x1="158.667" y1="542.334" x2="158.667" y2="463"/>
	<line fill="none" stroke="#000000" stroke-miterlimit="10" x1="158.667" y1="463" x2="179.334" y2="463"/>
	<line fill="none" stroke="#000000" stroke-miterlimit="10" x1="179.334" y1="463" x2="200.001" y2="463"/>
	<line fill="none" stroke="#000000" stroke-miterlimit="10" x1="138" y1="542.334" x2="158.667" y2="542.334"/>
	<line fill="none" stroke="#000000" stroke-miterlimit="10" x1="200.001" y1="463" x2="220.668" y2="463"/>
	<line fill="none" stroke="#000000" stroke-miterlimit="10" x1="220.668" y1="542.334" x2="241.335" y2="542.334"/>
	<line fill="none" stroke="#000000" stroke-miterlimit="10" x1="220.668" y1="463" x2="220.668" y2="542.334"/>
	<line fill="none" stroke="#000000" stroke-miterlimit="10" x1="241.335" y1="542.334" x2="262.002" y2="542.334"/>
	<line fill="none" stroke="#000000" stroke-miterlimit="10" x1="262.002" y1="542.334" x2="282.669" y2="542.334"/>
	<line fill="none" stroke="#000000" stroke-miterlimit="10" x1="282.669" y1="542.334" x2="303.336" y2="542.334"/>
	<line fill="none" stroke="#000000" stroke-miterlimit="10" x1="303.336" y1="542.334" x2="324.003" y2="542.334"/>
	<line fill="none" stroke="#000000" stroke-miterlimit="10" x1="324.003" y1="542.334" x2="324.003" y2="463"/>
	<line fill="none" stroke="#000000" stroke-miterlimit="10" x1="324.003" y1="463" x2="344.67" y2="463"/>
	<line fill="none" stroke="#000000" stroke-miterlimit="10" x1="344.67" y1="542.334" x2="365.337" y2="542.334"/>
	<line fill="none" stroke="#000000" stroke-miterlimit="10" x1="344.67" y1="463" x2="344.67" y2="542.334"/>
	<line fill="none" stroke="#000000" stroke-miterlimit="10" x1="365.337" y1="542.334" x2="386.004" y2="542.334"/>
	<line fill="none" stroke="#000000" stroke-miterlimit="10" x1="386.004" y1="542.334" x2="406.671" y2="542.334"/>
	<line fill="none" stroke="#000000" stroke-miterlimit="10" x1="406.671" y1="542.334" x2="406.671" y2="463"/>
	<line fill="none" stroke="#000000" stroke-miterlimit="10" x1="406.671" y1="463" x2="427.338" y2="463"/>
	<line fill="none" stroke="#000000" stroke-miterlimit="10" x1="427.338" y1="542.334" x2="448.005" y2="542.334"/>
	<line fill="none" stroke="#000000" stroke-miterlimit="10" x1="427.338" y1="463" x2="427.338" y2="542.334"/>
	<line fill="none" stroke="#000000" stroke-miterlimit="10" x1="448.005" y1="542.334" x2="448.005" y2="463"/>
	<line fill="none" stroke="#000000" stroke-miterlimit="10" x1="448.005" y1="463" x2="468.672" y2="463"/>
	<line fill="none" stroke="#000000" stroke-miterlimit="10" x1="468.672" y1="542.334" x2="489.339" y2="542.334"/>
	<line fill="none" stroke="#000000" stroke-miterlimit="10" x1="468.672" y1="463" x2="468.672" y2="542.334"/>
	<line fill="none" stroke="#000000" stroke-miterlimit="10" x1="178.667" y1="659" x2="178.667" y2="579.666"/>
	<line fill="none" stroke="#000000" stroke-miterlimit="10" x1="178.667" y1="579.666" x2="199.334" y2="579.666"/>
	<line fill="none" stroke="#000000" stroke-miterlimit="10" x1="199.334" y1="659" x2="220.001" y2="659"/>
	<line fill="none" stroke="#000000" stroke-miterlimit="10" x1="158" y1="659" x2="178.667" y2="659"/>
	<line fill="none" stroke="#000000" stroke-miterlimit="10" x1="220.001" y1="579.666" x2="240.668" y2="579.666"/>
	<line fill="none" stroke="#000000" stroke-miterlimit="10" x1="240.668" y1="659" x2="261.335" y2="659"/>
	<line fill="none" stroke="#000000" stroke-miterlimit="10" x1="240.668" y1="579.666" x2="240.668" y2="659"/>
	<line fill="none" stroke="#000000" stroke-miterlimit="10" x1="220.001" y1="579.666" x2="220.001" y2="659"/>
	<line fill="none" stroke="#000000" stroke-miterlimit="10" x1="199.334" y1="579.666" x2="199.334" y2="659"/>
	<line fill="none" stroke="#000000" stroke-miterlimit="10" x1="260.668" y1="579.666" x2="260.668" y2="659"/>
	<line fill="none" stroke="#000000" stroke-miterlimit="10" x1="302.002" y1="579.666" x2="302.002" y2="659"/>
	<line fill="none" stroke="#000000" stroke-miterlimit="10" x1="261.335" y1="579.666" x2="282.002" y2="579.666"/>
	<line fill="none" stroke="#000000" stroke-miterlimit="10" x1="282.002" y1="579.666" x2="302.669" y2="579.666"/>
	<line fill="none" stroke="#000000" stroke-miterlimit="10" x1="301.335" y1="659" x2="322.003" y2="659"/>
	<line fill="none" stroke="#000000" stroke-miterlimit="10" x1="323.336" y1="579.666" x2="344.003" y2="579.666"/>
	<line fill="none" stroke="#000000" stroke-miterlimit="10" x1="322.67" y1="659" x2="322.67" y2="579.666"/>
	<line fill="none" stroke="#000000" stroke-miterlimit="10" x1="344.003" y1="579.666" x2="364.67" y2="579.666"/>
	<line fill="none" stroke="#000000" stroke-miterlimit="10" x1="364.67" y1="659" x2="385.337" y2="659"/>
	<line fill="none" stroke="#000000" stroke-miterlimit="10" x1="364.67" y1="579.666" x2="364.67" y2="659"/>
	<line fill="none" stroke="#000000" stroke-miterlimit="10" x1="385.337" y1="659" x2="406.004" y2="659"/>
	<line fill="none" stroke="#000000" stroke-miterlimit="10" x1="406.004" y1="659" x2="426.671" y2="659"/>
	<line fill="none" stroke="#000000" stroke-miterlimit="10" x1="426.671" y1="659" x2="426.671" y2="579.666"/>
	<line fill="none" stroke="#000000" stroke-miterlimit="10" x1="426.671" y1="579.666" x2="447.338" y2="579.666"/>
	<line fill="none" stroke="#000000" stroke-miterlimit="10" x1="447.338" y1="659" x2="468.005" y2="659"/>
	<line fill="none" stroke="#000000" stroke-miterlimit="10" x1="447.338" y1="579.666" x2="447.338" y2="659"/>
	<line fill="none" stroke="#000000" stroke-miterlimit="10" x1="468.005" y1="659" x2="468.005" y2="579.666"/>
	<line fill="none" stroke="#000000" stroke-miterlimit="10" x1="468.005" y1="579.666" x2="488.672" y2="579.666"/>
	<line fill="none" stroke="#000000" stroke-miterlimit="10" x1="488.672" y1="659" x2="509.339" y2="659"/>
	<line fill="none" stroke="#000000" stroke-miterlimit="10" x1="488.672" y1="579.666" x2="488.672" y2="659"/>
	<line fill="none" stroke="#000000" stroke-miterlimit="10" x1="119.667" y1="342.333" x2="519.672" y2="342.333"/>
	<text transform="matrix(1 0 0 1 40.3335 497.667)" font-family="'HelveticaNeue'" font-size="14">SDI (MOSI)</text>
	<text transform="matrix(1 0 0 1 40.3335 403.667)" font-family="'HelveticaNeue'" font-size="14">SCLK</text>
	<text transform="matrix(1 0 0 1 40.3335 306.3335)" font-family="'HelveticaNeue'" font-size="14">CS</text>
	<text transform="matrix(1 0 0 1 43.6665 625.667)" font-family="'HelveticaNeue'" font-size="14">SDO (MISO)</text>
</g>
<g id="Rising_Edge" display="none">
	<g display="inline">
		<g>
			<line fill="none" stroke="#000000" stroke-miterlimit="10" x1="168.833" y1="578.666" x2="168.833" y2="575.666"/>
			
				<line fill="none" stroke="#000000" stroke-miterlimit="10" stroke-dasharray="5.7681,5.7681" x1="168.833" y1="569.898" x2="168.833" y2="445.884"/>
			<line fill="none" stroke="#000000" stroke-miterlimit="10" x1="168.833" y1="443" x2="168.833" y2="440"/>
		</g>
	</g>
	<g display="inline">
		<g>
			<line fill="none" stroke="#000000" stroke-miterlimit="10" x1="209.834" y1="578.666" x2="209.834" y2="575.666"/>
			
				<line fill="none" stroke="#000000" stroke-miterlimit="10" stroke-dasharray="5.7681,5.7681" x1="209.834" y1="569.898" x2="209.834" y2="445.884"/>
			<line fill="none" stroke="#000000" stroke-miterlimit="10" x1="209.834" y1="443" x2="209.834" y2="440"/>
		</g>
	</g>
	<g display="inline">
		<g>
			<line fill="none" stroke="#000000" stroke-miterlimit="10" x1="251.168" y1="578.666" x2="251.168" y2="575.666"/>
			
				<line fill="none" stroke="#000000" stroke-miterlimit="10" stroke-dasharray="5.7681,5.7681" x1="251.168" y1="569.898" x2="251.168" y2="445.884"/>
			<line fill="none" stroke="#000000" stroke-miterlimit="10" x1="251.168" y1="443" x2="251.168" y2="440"/>
		</g>
	</g>
	<g display="inline">
		<g>
			<line fill="none" stroke="#000000" stroke-miterlimit="10" x1="291.835" y1="578.666" x2="291.835" y2="575.666"/>
			
				<line fill="none" stroke="#000000" stroke-miterlimit="10" stroke-dasharray="5.7681,5.7681" x1="291.835" y1="569.898" x2="291.835" y2="445.884"/>
			<line fill="none" stroke="#000000" stroke-miterlimit="10" x1="291.835" y1="443" x2="291.835" y2="440"/>
		</g>
	</g>
	<g display="inline">
		<g>
			<line fill="none" stroke="#000000" stroke-miterlimit="10" x1="333.836" y1="578.666" x2="333.836" y2="575.666"/>
			
				<line fill="none" stroke="#000000" stroke-miterlimit="10" stroke-dasharray="5.7681,5.7681" x1="333.836" y1="569.898" x2="333.836" y2="445.884"/>
			<line fill="none" stroke="#000000" stroke-miterlimit="10" x1="333.836" y1="443" x2="333.836" y2="440"/>
		</g>
	</g>
	<g display="inline">
		<g>
			<line fill="none" stroke="#000000" stroke-miterlimit="10" x1="375.17" y1="578.666" x2="375.17" y2="575.666"/>
			
				<line fill="none" stroke="#000000" stroke-miterlimit="10" stroke-dasharray="5.7681,5.7681" x1="375.17" y1="569.898" x2="375.17" y2="445.884"/>
			<line fill="none" stroke="#000000" stroke-miterlimit="10" x1="375.17" y1="443" x2="375.17" y2="440"/>
		</g>
	</g>
	<g display="inline">
		<g>
			<line fill="none" stroke="#000000" stroke-miterlimit="10" x1="416.504" y1="578.666" x2="416.504" y2="575.666"/>
			
				<line fill="none" stroke="#000000" stroke-miterlimit="10" stroke-dasharray="5.7681,5.7681" x1="416.504" y1="569.898" x2="416.504" y2="445.884"/>
			<line fill="none" stroke="#000000" stroke-miterlimit="10" x1="416.504" y1="443" x2="416.504" y2="440"/>
		</g>
	</g>
	<g display="inline">
		<g>
			<line fill="none" stroke="#000000" stroke-miterlimit="10" x1="457.838" y1="578.666" x2="457.838" y2="575.666"/>
			
				<line fill="none" stroke="#000000" stroke-miterlimit="10" stroke-dasharray="5.7681,5.7681" x1="457.838" y1="569.898" x2="457.838" y2="445.884"/>
			<line fill="none" stroke="#000000" stroke-miterlimit="10" x1="457.838" y1="443" x2="457.838" y2="440"/>
		</g>
	</g>
</g>
<g id="Falling_edge">
	<g>
		<g>
			<line fill="none" stroke="#000000" stroke-miterlimit="10" x1="190.833" y1="578.666" x2="190.833" y2="575.666"/>
			
				<line fill="none" stroke="#000000" stroke-miterlimit="10" stroke-dasharray="5.7681,5.7681" x1="190.833" y1="569.898" x2="190.833" y2="445.884"/>
			<line fill="none" stroke="#000000" stroke-miterlimit="10" x1="190.833" y1="443" x2="190.833" y2="440"/>
		</g>
	</g>
	<g>
		<g>
			<line fill="none" stroke="#000000" stroke-miterlimit="10" x1="231.834" y1="578.666" x2="231.834" y2="575.666"/>
			
				<line fill="none" stroke="#000000" stroke-miterlimit="10" stroke-dasharray="5.7681,5.7681" x1="231.834" y1="569.898" x2="231.834" y2="445.884"/>
			<line fill="none" stroke="#000000" stroke-miterlimit="10" x1="231.834" y1="443" x2="231.834" y2="440"/>
		</g>
	</g>
	<g>
		<g>
			<line fill="none" stroke="#000000" stroke-miterlimit="10" x1="273.168" y1="578.666" x2="273.168" y2="575.666"/>
			
				<line fill="none" stroke="#000000" stroke-miterlimit="10" stroke-dasharray="5.7681,5.7681" x1="273.168" y1="569.898" x2="273.168" y2="445.884"/>
			<line fill="none" stroke="#000000" stroke-miterlimit="10" x1="273.168" y1="443" x2="273.168" y2="440"/>
		</g>
	</g>
	<g>
		<g>
			<line fill="none" stroke="#000000" stroke-miterlimit="10" x1="313.836" y1="578.666" x2="313.836" y2="575.666"/>
			
				<line fill="none" stroke="#000000" stroke-miterlimit="10" stroke-dasharray="5.7681,5.7681" x1="313.836" y1="569.898" x2="313.836" y2="445.884"/>
			<line fill="none" stroke="#000000" stroke-miterlimit="10" x1="313.836" y1="443" x2="313.836" y2="440"/>
		</g>
	</g>
	<g>
		<g>
			<line fill="none" stroke="#000000" stroke-miterlimit="10" x1="355.836" y1="578.666" x2="355.836" y2="575.666"/>
			
				<line fill="none" stroke="#000000" stroke-miterlimit="10" stroke-dasharray="5.7681,5.7681" x1="355.836" y1="569.898" x2="355.836" y2="445.884"/>
			<line fill="none" stroke="#000000" stroke-miterlimit="10" x1="355.836" y1="443" x2="355.836" y2="440"/>
		</g>
	</g>
	<g>
		<g>
			<line fill="none" stroke="#000000" stroke-miterlimit="10" x1="397.17" y1="578.666" x2="397.17" y2="575.666"/>
			
				<line fill="none" stroke="#000000" stroke-miterlimit="10" stroke-dasharray="5.7681,5.7681" x1="397.17" y1="569.898" x2="397.17" y2="445.884"/>
			<line fill="none" stroke="#000000" stroke-miterlimit="10" x1="397.17" y1="443" x2="397.17" y2="440"/>
		</g>
	</g>
	<g>
		<g>
			<line fill="none" stroke="#000000" stroke-miterlimit="10" x1="438.504" y1="578.666" x2="438.504" y2="575.666"/>
			
				<line fill="none" stroke="#000000" stroke-miterlimit="10" stroke-dasharray="5.7681,5.7681" x1="438.504" y1="569.898" x2="438.504" y2="445.884"/>
			<line fill="none" stroke="#000000" stroke-miterlimit="10" x1="438.504" y1="443" x2="438.504" y2="440"/>
		</g>
	</g>
	<g>
		<g>
			<line fill="none" stroke="#000000" stroke-miterlimit="10" x1="479.838" y1="578.666" x2="479.838" y2="575.666"/>
			
				<line fill="none" stroke="#000000" stroke-miterlimit="10" stroke-dasharray="5.7681,5.7681" x1="479.838" y1="569.898" x2="479.838" y2="445.884"/>
			<line fill="none" stroke="#000000" stroke-miterlimit="10" x1="479.838" y1="443" x2="479.838" y2="440"/>
		</g>
	</g>
</g>
</svg>
