<?xml version="1.0" encoding="utf-8"?>
<!-- Generator: Adobe Illustrator 16.0.4, SVG Export Plug-In . SVG Version: 6.00 Build 0)  -->
<!DOCTYPE svg PUBLIC "-//W3C//DTD SVG 1.1//EN" "http://www.w3.org/Graphics/SVG/1.1/DTD/svg11.dtd">
<svg version="1.1"
	 id="Layer_1" xmlns:svg="http://www.w3.org/2000/svg" xmlns:rdf="http://www.w3.org/1999/02/22-rdf-syntax-ns#" xmlns:inkscape="http://www.inkscape.org/namespaces/inkscape" xmlns:sodipodi="http://sodipodi.sourceforge.net/DTD/sodipodi-0.dtd" xmlns:dc="http://purl.org/dc/elements/1.1/" xmlns:cc="http://creativecommons.org/ns#" sodipodi:docname="hBridge_bb_battery.pdf" inkscape:version="0.48.2 r9819"
	 xmlns="http://www.w3.org/2000/svg" xmlns:xlink="http://www.w3.org/1999/xlink" x="0px" y="0px" width="631.333px"
	 height="377.333px" viewBox="0 0 631.333 377.333" enable-background="new 0 0 631.333 377.333" xml:space="preserve">
<sodipodi:namedview  id="namedview15705" gridtolerance="10" inkscape:cx="204.75474" bordercolor="#666666" borderopacity="1" objecttolerance="10" guidetolerance="10" inkscape:zoom="1.4425882" inkscape:cy="188.6665" pagecolor="#ffffff" showgrid="false" inkscape:current-layer="Layer_1" inkscape:window-x="0" inkscape:window-width="1135" inkscape:window-y="0" inkscape:window-maximized="0" inkscape:window-height="721" inkscape:pageopacity="0" inkscape:pageshadow="2">
	</sodipodi:namedview>
<rect id="connector0pin_8_" x="203.109" y="205.776" fill="#8C8C8C" width="3" height="4.521"/>
<rect id="connector1pin_8_" x="209.305" y="205.775" fill="#8C8C8C" width="3" height="4.521"/>
<rect id="connector0terminal_8_" x="203.109" y="209.737" fill="#8C8C8C" width="3" height="0.562"/>
<rect id="connector1terminal_8_" x="209.305" y="209.989" fill="#8C8C8C" width="3" height="0.309"/>
<rect id="rect4199-1-3_1_" x="207.054" y="171.95" fill="#8C8C8C" width="11.252" height="38.35"/>
<rect id="rect4199-8_1_" x="202.716" y="171.95" fill="#AFAFAF" width="11.252" height="38.35"/>
<g id="g10501" transform="translate(333.331,325.26)">
	<g id="g10503" transform="matrix(0,-1,1,0,0,0)">
		<g id="breadboard_5_">
			<path id="path10506" fill="none" stroke="#000000" stroke-width="3" d="M238.886-175.479c0,14.469,0.271,59-18.229,50.25"/>
			<path id="path10508" fill="none" stroke="#FF0000" stroke-width="3" d="M238.884-175.479c0,17.259,7.023,62.5-17.727,58.5"/>
			
				<rect id="connector1pin_4_" x="232.217" y="-149.066" transform="matrix(-2.547107e-06 -1 1 -2.547107e-06 380.4114 85.2787)" fill="none" width="1.256" height="3"/>
			
				<rect id="connector0pin_4_" x="225.017" y="-149.064" transform="matrix(-2.547107e-06 -1 1 -2.547107e-06 373.2102 78.0795)" fill="none" width="1.256" height="2.998"/>
			<g id="connector0leg_2_">
			</g>
			<g id="connector1leg_2_">
			</g>
			<g id="g10514">
				<g id="g10516">
					<path id="path10518" fill="#939393" d="M229.424-233.62v14.457c0,0.312,0.256,0.565,0.568,0.565h8.219
						c0.311,0,0.566-0.255,0.566-0.565v-7.229v-7.228c0-0.312-0.256-0.566-0.566-0.566h-8.219
						C229.677-234.186,229.424-233.932,229.424-233.62z M238.114-233.316c0.305,0,0.553,0.248,0.553,0.552v6.373v6.373
						c0,0.304-0.248,0.552-0.553,0.552h-8.025c-0.303,0-0.551-0.248-0.551-0.552v-12.746c0-0.304,0.248-0.552,0.551-0.552H238.114
						L238.114-233.316z"/>
					<path id="path10520" fill="#B2B2B2" d="M229.537-232.765v6.373v6.373c0,0.304,0.248,0.552,0.551,0.552h8.025
						c0.305,0,0.553-0.248,0.553-0.552v-6.373v-6.373c0-0.304-0.248-0.552-0.553-0.552h-8.025
						C229.785-233.316,229.537-233.068,229.537-232.765z"/>
					<path id="path10522" fill="#E6E6E6" d="M229.625-231.52v5.128v5.128c0,0.28,0.229,0.511,0.51,0.511h7.621
						c0.281,0,0.51-0.229,0.51-0.511v-3.98c-0.094,0.108-0.232,0.186-0.396,0.186h-6.865c-0.281,0-0.51-0.21-0.51-0.466v-0.866
						v-2.474c0-0.256,0.229-0.466,0.51-0.466h6.865c0.164,0,0.303,0.075,0.395,0.186v-2.374c0-0.28-0.229-0.51-0.51-0.51h-7.619
						C229.853-232.029,229.625-231.8,229.625-231.52L229.625-231.52z"/>
					<path id="path10524" opacity="0.9" fill="#FFFFFF" enable-background="new    " d="M237.543-223.951
						c0.299,0,0.541-0.199,0.541-0.442v2.173c0,0.244-0.242,0.443-0.541,0.443h-7.277c-0.299,0-0.543-0.199-0.543-0.443v-2.173
						c0,0.243,0.244,0.442,0.543,0.442H237.543z"/>
				</g>
				
					<rect id="rect10526" x="230.191" y="-227.178" transform="matrix(-2.547107e-06 -1 1 -2.547107e-06 464.369 11.5612)" opacity="0.1" enable-background="new    " width="15.548" height="1.549"/>
			</g>
			<g id="g10528">
				<path id="path10530" fill="#919191" d="M235.523-216.072c0.018-0.384-0.674-1.126-0.674-1.126s0.744-0.365,0.793-1.012
					c0.215-2.888,0.119-4.328,0.119-7.215c0-0.39,0.014-0.812-0.492-0.995c0.506-0.181,0.492-0.603,0.492-0.993
					c0-2.945,0.086-4.413-0.137-7.36c-0.053-0.715-0.791-1.017-0.791-1.017s0.719-0.422,0.699-0.853
					c-0.01-0.519,0.029-1.007-0.418-1.046c-1.734-0.152-2.527-0.295-4.082-0.371c-1.324-0.064-1.902,0.392-3.379,0.392
					c-1.018,0-2.17,0.903-2.17,1.673c0,2.716,0.062,4.073-0.143,6.79c-0.092,1.206,0.141,2.45,1.229,2.786
					c-1.088,0.336-1.322,1.585-1.232,2.791c0.205,2.715,0.146,4.071,0.146,6.787c0,0.769,1.234,1.538,2.172,1.538
					c0,0,2.105,0.684,3.674,0.574c1.568-0.108,3.801-0.556,3.801-0.556C235.769-215.339,235.515-215.888,235.523-216.072
					L235.523-216.072z"/>
				<g id="g10532">
					<path id="path10534" fill="#F4F4F4" d="M233.189-237.577c0.252,0.849,0.492,1.445,0.492,1.445
						c-1.797-0.174-2.645-0.275-4.162,0.001c0.092-0.52,0.176-1.006,0.25-1.477C231.071-237.885,231.683-237.674,233.189-237.577
						L233.189-237.577z"/>
					<path id="path10536" fill="#B7B7B7" d="M235.125-237.327c-0.039,0.747-0.643,1.272-1.441,1.195c0,0-0.24-0.598-0.492-1.445
						C233.965-237.527,234.349-237.395,235.125-237.327z"/>
					<path id="path10538" fill="#999999" d="M230.424-236.234c-0.6,0.015-0.822,0.095-1.342,0.188
						c-0.68,0.121-1.354-0.505-1.406-1.258c0.926,0,1.295-0.131,2.094-0.302C229.769-237.048,229.881-236.222,230.424-236.234z"/>
				</g>
				<g id="g10540">
					<path id="path10542" fill="#F4F4F4" d="M233.732-235.37c0.836,0.062,1.543,0.548,1.58,1.063
						c0.189,2.619,0.102,3.907,0.102,6.508c0,0.516-0.674,0.933-1.51,0.933c0,0-1.416-0.188-2.246-0.188s-2.156,0.188-2.156,0.188
						c-1.24,0-2.105-0.417-2.076-0.933c0.148-2.601,0.24-3.901,0.24-6.503c0-0.513,0.707-0.902,1.416-1.001
						C230.783-235.535,231.728-235.52,233.732-235.37L233.732-235.37z"/>
					<g id="g10544">
						<path id="path10546" fill="#B7B7B7" d="M235.312-234.306c0.189,2.619,0.102,3.907,0.102,6.508c0,0.516-0.674,0.933-1.51,0.933
							c0,0-0.119-2.748-0.119-4.409c0-1.786-0.053-4.095-0.053-4.095C234.568-235.308,235.275-234.822,235.312-234.306
							L235.312-234.306z"/>
					</g>
					<g id="g10548">
						<path id="path10550" fill="#999999" d="M227.666-234.301c0,2.602-0.092,3.902-0.24,6.503
							c-0.029,0.516,0.641,0.933,1.473,0.933c0.244,0,0.367,0,0.613,0c0.396-1.22,0.643-2.746,0.643-4.407
							c0.002-1.797-0.6-3.009,0.355-4.171c-0.645-0.002-0.879,0.067-1.428,0.143C228.373-235.204,227.666-234.813,227.666-234.301
							L227.666-234.301z"/>
					</g>
				</g>
				<g id="g10552">
					<path id="path10554" fill="#F4F4F4" d="M233.193-215.262c0.254-0.851,0.494-1.448,0.494-1.448c-1.797,0.171-2.65,0.271-4.168,0
						c0.092,0.52,0.176,1.004,0.25,1.476C231.071-214.96,231.687-215.164,233.193-215.262z"/>
					<path id="path10556" fill="#B7B7B7" d="M235.127-215.51c-0.037-0.747-0.639-1.276-1.439-1.2c0,0-0.238,0.599-0.492,1.448
						C233.966-215.311,234.353-215.441,235.127-215.51z"/>
					<path id="path10558" fill="#999999" d="M230.754-216.608c-0.715,0.006-1.037-0.072-1.672-0.184
						c-0.68-0.119-1.354,0.506-1.406,1.259c0.926,0,1.295,0.129,2.094,0.298C229.769-215.657,230.103-216.603,230.754-216.608
						L230.754-216.608z"/>
				</g>
				<g id="g10560">
					<path id="path10562" fill="#F4F4F4" d="M233.74-217.471c0.834-0.062,1.541-0.546,1.576-1.062
						c0.188-2.617,0.098-3.907,0.098-6.507c0-0.516-0.674-0.929-1.51-0.929c0,0-1.521,0.169-2.437,0.169
						c-0.912,0-1.967-0.169-1.967-0.169c-0.832,0-2.109,0.413-2.08,0.929c0.143,2.6,0.244,3.9,0.244,6.501
						c0,0.513,0.707,0.903,1.416,0.999C230.783-217.311,231.734-217.324,233.74-217.471L233.74-217.471z"/>
					<g id="g10564">
						<path id="path10566" fill="#B7B7B7" d="M235.316-218.532c0.188-2.617,0.098-3.907,0.098-6.507c0-0.516-0.674-0.929-1.51-0.929
							c0,0-0.119,2.744-0.119,4.405c0,1.786-0.045,4.091-0.045,4.091C234.574-217.532,235.281-218.017,235.316-218.532
							L235.316-218.532z"/>
					</g>
					<g id="g10568">
						<path id="path10570" fill="#999999" d="M227.666-218.538c0-2.601-0.102-3.901-0.244-6.501
							c-0.027-0.516,0.643-0.929,1.475-0.929c0.244,0,0.367,0,0.613,0c0.396,1.22,0.643,2.745,0.645,4.405
							c0.002,1.796-0.334,3.2,0.566,4.164c-0.711,0.001-1.018-0.059-1.639-0.142C228.373-217.634,227.666-218.025,227.666-218.538
							L227.666-218.538z"/>
					</g>
				</g>
			</g>
			<g id="g10572">
				<path id="path10574" fill="#939393" d="M235.959-183.069v-14.457c0-0.312-0.254-0.566-0.566-0.566h-8.219
					c-0.312,0-0.568,0.255-0.568,0.566v7.229v7.229c0,0.312,0.256,0.566,0.568,0.566h8.217
					C235.705-182.503,235.959-182.758,235.959-183.069L235.959-183.069z M227.269-183.373c-0.305,0-0.553-0.248-0.553-0.553v-6.373
					v-6.373c0-0.304,0.248-0.552,0.553-0.552h8.025c0.305,0,0.553,0.248,0.553,0.552v12.746c0,0.305-0.248,0.553-0.553,0.553
					H227.269L227.269-183.373z"/>
				<path id="path10576" fill="#B2B2B2" d="M235.845-183.925v-6.373v-6.373c0-0.304-0.248-0.552-0.551-0.552h-8.025
					c-0.305,0-0.553,0.248-0.553,0.552v6.373v6.373c0,0.305,0.248,0.553,0.553,0.553h8.025
					C235.597-183.373,235.845-183.621,235.845-183.925z"/>
				<path id="path10578" fill="#E6E6E6" d="M235.758-185.171v-5.128v-5.128c0-0.279-0.229-0.51-0.51-0.51h-7.619
					c-0.281,0-0.51,0.229-0.51,0.51v3.981c0.094-0.109,0.23-0.187,0.395-0.187h6.867c0.281,0,0.51,0.21,0.51,0.467v0.865v2.475
					c0,0.256-0.229,0.466-0.51,0.466h-6.865c-0.164,0-0.303-0.076-0.396-0.187v2.374c0,0.28,0.229,0.511,0.51,0.511h7.621
					C235.53-184.66,235.758-184.89,235.758-185.171L235.758-185.171z"/>
				<path id="path10580" opacity="0.9" fill="#FFFFFF" enable-background="new    " d="M227.841-192.738
					c-0.299,0-0.543,0.199-0.543,0.441v-2.173c0-0.244,0.244-0.442,0.543-0.442h7.277c0.299,0,0.541,0.198,0.541,0.442v2.173
					c0-0.242-0.242-0.441-0.541-0.441H227.841z"/>
			</g>
			
				<rect id="rect10582" x="219.645" y="-191.061" transform="matrix(-2.547107e-06 -1 1 -2.547107e-06 417.7068 37.1302)" fill="none" width="15.547" height="1.547"/>
			
				<rect id="rect10584" x="216.123" y="-227.289" transform="matrix(-2.547107e-06 -1 1 -2.547107e-06 453.9358 0.9026)" opacity="0.1" enable-background="new    " width="22.592" height="1.547"/>
			<path id="path10586" fill="#353535" d="M91.429-237.522v0.061c0-0.1,0.008-0.195,0.01-0.294
				C91.437-237.678,91.429-237.602,91.429-237.522z"/>
			<path id="path10588" fill="#353535" d="M91.455-238.081c0-0.021,0.004-0.041,0.006-0.062
				C91.459-238.122,91.455-238.102,91.455-238.081z"/>
			<path id="path10590" opacity="0.35" enable-background="new    " d="M91.439-237.756c0.006-0.107,0.006-0.219,0.016-0.324
				C91.447-237.975,91.445-237.865,91.439-237.756z"/>
			<path id="path10592" fill="#353535" d="M95.051-172.466c-0.896-0.605-1.566-2.843-1.566-5.498v-59.5
				c0-3.116,0.924-5.666,2.053-5.666h-0.125c-2.076,0.36-3.721,2.421-3.951,4.986c-0.002,0.021-0.004,0.041-0.006,0.062
				c-0.008,0.105-0.01,0.217-0.014,0.324c-0.004,0.099-0.01,0.194-0.01,0.293v59.47C91.429-175.3,92.986-173.033,95.051-172.466
				L95.051-172.466z"/>
			<path id="path10594" opacity="0.35" enable-background="new    " d="M95.051-172.466c-0.896-0.605-1.566-2.843-1.566-5.498v-59.5
				c0-3.116,0.924-5.666,2.053-5.666h-0.125c-2.076,0.36-3.721,2.421-3.951,4.986c-0.002,0.021-0.004,0.041-0.006,0.062
				c-0.008,0.105-0.01,0.217-0.014,0.324c-0.004,0.099-0.01,0.194-0.01,0.293v59.47C91.429-175.3,92.986-173.033,95.051-172.466
				L95.051-172.466z"/>
			<g id="g10596">
				<g id="g10598">
					<path id="path10600" fill="#353535" d="M227.504-176.861c0,1.985-1.703,4.536-3.783,4.536H96.058
						c-2.545,0-4.627-2.551-4.627-5.669v-59.528c0-3.118,2.082-5.669,4.627-5.669h127.66c2.082,0,3.783,2.551,3.783,6.802v59.528
						H227.504L227.504-176.861z"/>
					<path id="path10602" fill="#D18D52" d="M193.908-172.325v-70.866h29.811c2.08,0,3.783,2.551,3.783,6.802v59.528
						c0,1.985-1.703,4.536-3.783,4.536H193.908z"/>
				</g>
				<path id="path10604" opacity="0.15" fill="#FFFFFF" enable-background="new    " d="M95.535-173.589
					c-0.574,0-1.065-1.594-1.236-3.782h131.114c-0.141,2.188-0.541,3.782-1.014,3.782H95.535z"/>
				<path id="path10606" opacity="0.15" fill="#FFFFFF" enable-background="new    " d="M95.535-242.048
					c-0.574,0-1.065,1.595-1.236,3.783h131.114c-0.141-2.188-0.541-3.783-1.014-3.783H95.535z"/>
				<path id="path10608" opacity="0.35" fill="#FFFFFF" enable-background="new    " d="M224.412-242.048
					c0.586,0,1.064,2.465,1.064,5.478v57.507c0,3.013-0.479,5.478-1.064,5.478h0.217c1.053,0,1.914-2.465,1.914-5.478v-57.508
					c0-3.013-0.861-5.478-1.914-5.478L224.412-242.048L224.412-242.048z"/>
				<g id="g10610" opacity="0.2">
					<path id="path10612" d="M224.781-173.589c0,0-128.895,0-130.53,0c0.297,0.629,0.297,0.629,0.646,1c0.625,0,126.221,0,126.682,0
						C222.642-172.589,224.138-173.296,224.781-173.589z"/>
				</g>
				<g id="g10614" opacity="0.2">
					<path id="path10616" d="M224.781-242.048c0,0-128.895,0-130.53,0c0.297-0.628,0.297-0.628,0.646-1c0.625,0,126.221,0,126.682,0
						C222.642-243.048,224.138-242.341,224.781-242.048z"/>
				</g>
			</g>
			<g id="g10618">
				<path id="path10620" fill="#919191" d="M228.906-200.623c-0.018,0.384,0.672,1.126,0.672,1.126s-0.742,0.364-0.791,1.012
					c-0.217,2.887-0.119,4.328-0.119,7.214c0,0.39-0.014,0.813,0.49,0.996c-0.504,0.181-0.49,0.603-0.49,0.993
					c0,2.944-0.086,4.413,0.137,7.359c0.053,0.716,0.791,1.018,0.791,1.018s-0.719,0.422-0.699,0.853
					c0.01,0.52-0.029,1.007,0.418,1.046c1.734,0.152,2.527,0.296,4.082,0.371c1.324,0.065,1.902-0.391,3.379-0.391
					c1.018,0,2.17-0.904,2.17-1.673c0-2.716-0.062-4.074,0.143-6.79c0.092-1.206-0.141-2.451-1.229-2.786
					c1.088-0.336,1.322-1.585,1.231-2.791c-0.205-2.715-0.146-4.072-0.146-6.788c0-0.768-1.234-1.538-2.172-1.538
					c0,0-2.105-0.683-3.674-0.574c-1.568,0.109-3.803,0.557-3.803,0.557C228.658-201.356,228.914-200.808,228.906-200.623
					L228.906-200.623z"/>
				<g id="g10622">
					<path id="path10624" fill="#F4F4F4" d="M231.239-179.118c-0.252-0.85-0.492-1.446-0.492-1.446
						c1.797,0.174,2.646,0.276,4.164-0.001c-0.094,0.52-0.176,1.006-0.25,1.477C233.359-178.811,232.744-179.021,231.239-179.118
						L231.239-179.118z"/>
					<path id="path10626" fill="#B7B7B7" d="M229.304-179.368c0.039-0.747,0.643-1.273,1.441-1.196c0,0,0.238,0.598,0.492,1.446
						C230.465-179.168,230.078-179.3,229.304-179.368z"/>
					<path id="path10628" fill="#999999" d="M234.006-180.461c0.6-0.016,0.822-0.096,1.342-0.188
						c0.68-0.121,1.354,0.505,1.406,1.258c-0.926,0-1.295,0.131-2.094,0.302C234.66-179.647,234.549-180.474,234.006-180.461z"/>
				</g>
				<g id="g10630">
					<path id="path10632" fill="#F4F4F4" d="M230.696-181.325c-0.836-0.062-1.543-0.548-1.58-1.064
						c-0.189-2.619-0.102-3.907-0.102-6.508c0-0.515,0.676-0.932,1.51-0.932c0,0,1.416,0.187,2.246,0.187s2.158-0.187,2.158-0.187
						c1.238,0,2.104,0.417,2.074,0.932c-0.146,2.601-0.24,3.902-0.24,6.503c0,0.513-0.707,0.903-1.416,1.001
						C233.646-181.16,232.701-181.175,230.696-181.325L230.696-181.325z"/>
					<g id="g10634">
						<path id="path10636" fill="#B7B7B7" d="M229.115-182.39c-0.189-2.619-0.102-3.907-0.102-6.508c0-0.515,0.676-0.932,1.51-0.932
							c0,0,0.121,2.748,0.121,4.408c0,1.786,0.051,4.096,0.051,4.096C229.859-181.388,229.153-181.873,229.115-182.39
							L229.115-182.39z"/>
					</g>
					<g id="g10638">
						<path id="path10640" fill="#999999" d="M236.761-182.395c0-2.601,0.094-3.902,0.24-6.503c0.029-0.515-0.641-0.932-1.471-0.932
							c-0.246,0-0.369,0-0.613,0c-0.396,1.22-0.643,2.746-0.645,4.406c0,1.798,0.6,3.01-0.354,4.172
							c0.645,0.002,0.879-0.067,1.426-0.144C236.054-181.491,236.761-181.882,236.761-182.395L236.761-182.395z"/>
					</g>
				</g>
				<g id="g10642">
					<path id="path10644" fill="#F4F4F4" d="M231.234-201.434c-0.254,0.852-0.492,1.449-0.492,1.449
						c1.797-0.171,2.648-0.272,4.168,0c-0.094-0.521-0.176-1.004-0.25-1.476C233.359-201.735,232.742-201.531,231.234-201.434z"/>
					<path id="path10646" fill="#B7B7B7" d="M229.3-201.186c0.037,0.747,0.641,1.277,1.439,1.201c0,0,0.24-0.599,0.494-1.449
						C230.463-201.384,230.076-201.255,229.3-201.186L229.3-201.186z"/>
					<path id="path10648" fill="#999999" d="M233.675-200.087c0.715-0.007,1.037,0.071,1.672,0.184
						c0.68,0.119,1.354-0.506,1.406-1.259c-0.926,0-1.295-0.129-2.094-0.298C234.66-201.038,234.326-200.092,233.675-200.087
						L233.675-200.087z"/>
				</g>
				<g id="g10650">
					<path id="path10652" fill="#F4F4F4" d="M230.689-199.225c-0.836,0.062-1.541,0.546-1.578,1.062
						c-0.188,2.616-0.098,3.906-0.098,6.507c0,0.515,0.676,0.928,1.51,0.928c0,0,1.523-0.169,2.436-0.169
						c0.914,0,1.969,0.169,1.969,0.169c0.832,0,2.107-0.413,2.08-0.928c-0.145-2.601-0.244-3.901-0.244-6.501
						c0-0.513-0.707-0.904-1.416-0.999C233.646-199.385,232.696-199.371,230.689-199.225z"/>
					<g id="g10654">
						<path id="path10656" fill="#B7B7B7" d="M229.112-198.163c-0.188,2.616-0.098,3.906-0.098,6.507
							c0,0.515,0.676,0.928,1.51,0.928c0,0,0.121-2.744,0.121-4.405c0-1.785,0.045-4.091,0.045-4.091
							C229.853-199.163,229.148-198.679,229.112-198.163z"/>
					</g>
					<g id="g10658">
						<path id="path10660" fill="#999999" d="M236.761-198.157c0,2.6,0.102,3.9,0.244,6.501c0.029,0.515-0.641,0.928-1.473,0.928
							c-0.246,0-0.369,0-0.615,0c-0.395-1.219-0.643-2.745-0.645-4.405c-0.002-1.796,0.334-3.199-0.566-4.164
							c0.711-0.001,1.02,0.06,1.639,0.143C236.054-199.061,236.761-198.67,236.761-198.157L236.761-198.157z"/>
					</g>
				</g>
			</g>
			<path id="path10662" fill="#262626" d="M236.384-175.439c0,0,3.562,0,4.48,0c1.697,0,2.436-1.166,2.436-6.257v-52.143
				c0-5.091-0.738-6.257-2.436-6.257c-0.918,0-4.48,0-4.48,0V-175.439L236.384-175.439z"/>
			<path id="path10664" opacity="0.35" fill="#FFFFFF" enable-background="new    " d="M242.734-180.426
				c0,3.609-0.859,4.258-1.912,4.258h-0.219c0.586,0,1.066-1.447,1.066-4.258v-54.685c0-2.81-0.48-4.257-1.066-4.257h0.219
				c1.053,0,1.912,0.646,1.912,4.257V-180.426z"/>
			<path id="path10666" opacity="0.15" fill="#FFFFFF" enable-background="new    " d="M241.487-237.606
				c-0.188-1.152-0.51-1.761-0.883-1.761h-3.816v1.761H241.487z"/>
			<path id="path10668" opacity="0.15" fill="#FFFFFF" enable-background="new    " d="M241.487-177.93
				c-0.188,1.152-0.51,1.762-0.883,1.762h-3.816v-1.762H241.487z"/>
			<g id="g10670">
				<text id="text10672" transform="matrix(0 1 -1 0 167.365 -220.5522)" fill="#FFFFFF" font-family="'ArialMT'" font-size="22">9</text>
				<text id="text10674" transform="matrix(0 1 -1 0 167.365 -206.6147)" fill="#FFFFFF" font-family="'ArialMT'" font-size="22">v</text>
			</g>
		</g>
	</g>
</g>
<path id="path26-0-3_1_" d="M223.308,159.592c0,4.645-0.363,10.57-0.791,10.57h-1.98c0.43,0,1.103-5.929,1.103-10.57v-45.033
	c0-4.646-0.673-10.568-1.103-10.568h1.98c0.43,0,0.791,5.926,0.791,10.568V159.592L223.308,159.592z"/>
<path id="path22-7-5_1_" fill="#1A1A1A" d="M222.023,102.211c0.867,0,1.574,5.052,1.574,11.223v47.285
	c0,6.174-0.707,11.222-1.574,11.222h-23.632c-0.866,0-1.575-5.048-1.575-11.222v-47.286c0-6.174,0.709-11.224,1.575-11.224h23.632
	V102.211z"/>
<path id="path54-2-7_1_" opacity="0.3" fill="#FFFFFF" enable-background="new    " d="M198.858,112.008
	c0.209,0,0.378,4.062,0.378,9.074v31.986c0,5.011-0.152,9.067-0.361,9.067h-1.142c-0.209,0-0.394-4.062-0.394-9.067v-31.985
	c0-5.012,0.17-9.074,0.379-9.074L198.858,112.008L198.858,112.008z"/>
</svg>
