<?xml version="1.0" encoding="utf-8"?>
<!-- Generator: Adobe Illustrator 21.1.0, SVG Export Plug-In . SVG Version: 6.00 Build 0)  -->
<svg version="1.1" id="Layer_1" xmlns="http://www.w3.org/2000/svg" xmlns:xlink="http://www.w3.org/1999/xlink" x="0px" y="0px"
	 viewBox="0 0 1341.7 377.2" style="enable-background:new 0 0 1341.7 377.2;" xml:space="preserve">
<style type="text/css">
	.st0{fill:#0F7391;}
	.st1{fill:#FFFFFF;}
	.st2{font-family:'ArialMT';}
	.st3{font-size:4.9754px;}
	.st4{fill:#1A1A1A;}
	.st5{font-size:3.1097px;}
	.st6{fill:none;stroke:#9A916C;stroke-width:1.224;}
	.st7{fill:#CCCCCC;}
	.st8{opacity:0.2;enable-background:new    ;}
	.st9{fill:#333333;}
	.st10{opacity:0.2;fill:#FFFFFF;enable-background:new    ;}
	.st11{fill:none;}
	.st12{fill:#E6E6E6;}
	.st13{opacity:0.1;fill:#1A1A1A;enable-background:new    ;}
	.st14{opacity:0.1;enable-background:new    ;}
	.st15{fill:#F2F2F2;}
	.st16{fill:#83B8BD;}
	.st17{fill:#8E9090;}
	.st18{fill:#7EC632;}
	.st19{fill:#E08948;}
	.st20{fill:#C2C3C3;}
	.st21{fill:#C6C6C6;}
	.st22{fill:#8A9091;}
	.st23{fill:#8C7965;}
	.st24{fill:none;stroke:#000000;stroke-miterlimit:10;}
	.st25{font-family:'Helvetica';}
	.st26{font-size:24px;}
</style>
<g id="pxisev.tif">
	
		<image style="overflow:visible;" width="2112" height="1596" id="Layer_0_1_" xlink:href="BA35816EAF0B033.png"  transform="matrix(0.2206 0 0 0.2206 577.1136 12.6079)">
	</image>
</g>
<g id="_x34_1Rlo3.tif">
	
		<image style="overflow:visible;" width="1866" height="1664" id="Layer_0_2_" xlink:href="BA35816EAF0B036.png"  transform="matrix(0.205 0 0 0.205 44.8436 18.039)">
	</image>
</g>
<g>
	<path class="st0" d="M1296.8,79.1H1203V307h93.8V79.1 M1294.4,85.8c0,2.4-1.9,4.3-4.3,4.3c-2.4,0-4.3-1.9-4.3-4.3l0,0
		c0-2.4,1.9-4.3,4.3-4.3C1292.5,81.4,1294.4,83.4,1294.4,85.8L1294.4,85.8z M1214,85.8c0,2.4-1.9,4.3-4.3,4.3
		c-2.4,0-4.3-1.9-4.3-4.3l0,0c0-2.4,1.9-4.3,4.3-4.3C1212.1,81.4,1214,83.4,1214,85.8z M1214,300.3c0,2.4-1.9,4.3-4.3,4.3
		c-2.4,0-4.3-1.9-4.3-4.3s1.9-4.3,4.3-4.3C1212.1,295.8,1214,297.9,1214,300.3z M1294.4,300.3c0,2.4-1.9,4.3-4.3,4.3
		c-2.4,0-4.3-1.9-4.3-4.3l0,0c0-2.4,1.9-4.3,4.3-4.3C1292.5,295.8,1294.4,297.9,1294.4,300.3L1294.4,300.3z M1292.5,286.9
		c0,1.3-1.1,2.4-2.4,2.4c-1.3,0-2.4-1.1-2.4-2.4c0-1.3,1.1-2.4,2.4-2.4C1291.4,284.5,1292.5,285.6,1292.5,286.9z M1292.5,273.5
		c0,1.3-1.1,2.4-2.4,2.4c-1.3,0-2.4-1.1-2.4-2.4c0-1.3,1.1-2.4,2.4-2.4C1291.4,271.1,1292.5,272.2,1292.5,273.5z M1292.5,260.1
		c0,1.3-1.1,2.4-2.4,2.4c-1.3,0-2.4-1.1-2.4-2.4c0-1.3,1.1-2.4,2.4-2.4C1291.4,257.7,1292.5,258.8,1292.5,260.1z M1292.5,246.7
		c0,1.3-1.1,2.4-2.4,2.4c-1.3,0-2.4-1.1-2.4-2.4c0-1.3,1.1-2.4,2.4-2.4C1291.4,244.3,1292.5,245.4,1292.5,246.7z M1292.5,233.3
		c0,1.3-1.1,2.4-2.4,2.4c-1.3,0-2.4-1.1-2.4-2.4c0-1.3,1.1-2.4,2.4-2.4C1291.4,230.9,1292.5,232,1292.5,233.3z M1292.5,219.9
		c0,1.3-1.1,2.4-2.4,2.4c-1.3,0-2.4-1.1-2.4-2.4l0,0c0-1.3,1.1-2.4,2.4-2.4C1291.4,217.5,1292.5,218.6,1292.5,219.9z M1292.5,206.5
		c0,1.3-1.1,2.4-2.4,2.4c-1.3,0-2.4-1.1-2.4-2.4l0,0c0-1.3,1.1-2.4,2.4-2.4C1291.4,204.1,1292.5,205.2,1292.5,206.5z M1292.5,193.1
		c0,1.3-1.1,2.4-2.4,2.4c-1.3,0-2.4-1.1-2.4-2.4c0-1.3,1.1-2.4,2.4-2.4C1291.4,190.7,1292.5,191.8,1292.5,193.1L1292.5,193.1z
		 M1292.5,179.7c0,1.3-1.1,2.4-2.4,2.4c-1.3,0-2.4-1.1-2.4-2.4s1.1-2.4,2.4-2.4C1291.4,177.3,1292.5,178.4,1292.5,179.7z
		 M1292.5,166.3c0,1.3-1.1,2.4-2.4,2.4c-1.3,0-2.4-1.1-2.4-2.4s1.1-2.4,2.4-2.4C1291.4,163.8,1292.5,165,1292.5,166.3z
		 M1292.5,152.9c0,1.3-1.1,2.4-2.4,2.4c-1.3,0-2.4-1.1-2.4-2.4l0,0c0-1.3,1.1-2.4,2.4-2.4C1291.4,150.4,1292.5,151.6,1292.5,152.9z
		 M1292.5,139.5c0,1.3-1.1,2.4-2.4,2.4c-1.3,0-2.4-1.1-2.4-2.4s1.1-2.4,2.4-2.4C1291.4,137,1292.5,138.2,1292.5,139.5z
		 M1292.5,126.1c0,1.3-1.1,2.4-2.4,2.4c-1.3,0-2.4-1.1-2.4-2.4c0-1.3,1.1-2.4,2.4-2.4C1291.4,123.6,1292.5,124.8,1292.5,126.1z
		 M1292.5,112.7c0,1.3-1.1,2.4-2.4,2.4c-1.3,0-2.4-1.1-2.4-2.4c0-1.3,1.1-2.4,2.4-2.4C1291.4,110.2,1292.5,111.4,1292.5,112.7z
		 M1292.5,99.2c0,1.3-1.1,2.4-2.4,2.4c-1.3,0-2.4-1.1-2.4-2.4c0-1.3,1.1-2.4,2.4-2.4C1291.4,96.8,1292.5,97.9,1292.5,99.2z
		 M1212.1,286.9c0,1.3-1.1,2.4-2.4,2.4c-1.3,0-2.4-1.1-2.4-2.4l0,0c0-1.3,1.1-2.4,2.4-2.4C1211,284.5,1212.1,285.6,1212.1,286.9
		L1212.1,286.9z M1212.1,273.5c0,1.3-1.1,2.4-2.4,2.4c-1.3,0-2.4-1.1-2.4-2.4l0,0c0-1.3,1.1-2.4,2.4-2.4
		C1211,271.1,1212.1,272.2,1212.1,273.5L1212.1,273.5z M1212.1,260.1c0,1.3-1.1,2.4-2.4,2.4c-1.3,0-2.4-1.1-2.4-2.4l0,0
		c0-1.3,1.1-2.4,2.4-2.4C1211,257.7,1212.1,258.8,1212.1,260.1L1212.1,260.1z M1212.1,246.7c0,1.3-1.1,2.4-2.4,2.4
		c-1.3,0-2.4-1.1-2.4-2.4l0,0c0-1.3,1.1-2.4,2.4-2.4C1211,244.3,1212.1,245.4,1212.1,246.7L1212.1,246.7z M1212.1,233.3
		c0,1.3-1.1,2.4-2.4,2.4c-1.3,0-2.4-1.1-2.4-2.4l0,0c0-1.3,1.1-2.4,2.4-2.4C1211,230.9,1212.1,232,1212.1,233.3L1212.1,233.3z
		 M1212.1,219.9c0,1.3-1.1,2.4-2.4,2.4c-1.3,0-2.4-1.1-2.4-2.4l0,0c0-1.3,1.1-2.4,2.4-2.4C1211,217.5,1212.1,218.6,1212.1,219.9
		L1212.1,219.9z M1212.1,206.5c0,1.3-1.1,2.4-2.4,2.4c-1.3,0-2.4-1.1-2.4-2.4l0,0c0-1.3,1.1-2.4,2.4-2.4
		C1211,204.1,1212.1,205.2,1212.1,206.5L1212.1,206.5z M1212.1,193.1c0,1.3-1.1,2.4-2.4,2.4c-1.3,0-2.4-1.1-2.4-2.4l0,0
		c0-1.3,1.1-2.4,2.4-2.4C1211,190.7,1212.1,191.8,1212.1,193.1L1212.1,193.1z M1212.1,179.7c0,1.3-1.1,2.4-2.4,2.4
		c-1.3,0-2.4-1.1-2.4-2.4l0,0c0-1.3,1.1-2.4,2.4-2.4C1211,177.3,1212.1,178.4,1212.1,179.7L1212.1,179.7z M1212.1,166.3
		c0,1.3-1.1,2.4-2.4,2.4c-1.3,0-2.4-1.1-2.4-2.4l0,0c0-1.3,1.1-2.4,2.4-2.4C1211,163.8,1212.1,165,1212.1,166.3L1212.1,166.3z
		 M1212.1,152.9c0,1.3-1.1,2.4-2.4,2.4c-1.3,0-2.4-1.1-2.4-2.4l0,0c0-1.3,1.1-2.4,2.4-2.4C1211,150.4,1212.1,151.6,1212.1,152.9
		L1212.1,152.9z M1212.1,139.5c0,1.3-1.1,2.4-2.4,2.4c-1.3,0-2.4-1.1-2.4-2.4l0,0c0-1.3,1.1-2.4,2.4-2.4
		C1211,137,1212.1,138.2,1212.1,139.5L1212.1,139.5z M1212.1,126.1c0,1.3-1.1,2.4-2.4,2.4c-1.3,0-2.4-1.1-2.4-2.4l0,0
		c0-1.3,1.1-2.4,2.4-2.4C1211,123.6,1212.1,124.8,1212.1,126.1L1212.1,126.1z M1212.1,112.7c0,1.3-1.1,2.4-2.4,2.4
		c-1.3,0-2.4-1.1-2.4-2.4l0,0c0-1.3,1.1-2.4,2.4-2.4C1211,110.2,1212.1,111.4,1212.1,112.7L1212.1,112.7z M1212.1,99.2
		c0,1.3-1.1,2.4-2.4,2.4c-1.3,0-2.4-1.1-2.4-2.4l0,0c0-1.3,1.1-2.4,2.4-2.4C1211,96.8,1212.1,97.9,1212.1,99.2L1212.1,99.2z"/>
	<rect x="1276.9" y="241.1" class="st1" width="19.9" height="11.4"/>
	<text transform="matrix(3.061617e-16 1 -1 3.061617e-16 1279.6869 281.5411)" class="st1 st2 st3">TX1</text>
	<text transform="matrix(3.061617e-16 1 -1 3.061617e-16 1279.6869 268.1388)" class="st1 st2 st3">RX0</text>
	<text transform="matrix(3.061617e-16 1 -1 3.061617e-16 1279.6869 254.8683)" class="st1 st2 st3">RST</text>
	<text transform="matrix(3.061617e-16 1 -1 3.061617e-16 1279.6869 241.4659)" class="st4 st2 st3">GND</text>
	<text transform="matrix(3.061617e-16 1 -1 3.061617e-16 1279.6869 229.6705)" class="st1 st2 st3">D2</text>
	<text transform="matrix(3.061617e-16 1 -1 3.061617e-16 1279.6869 216.5333)" class="st1 st2 st3">D3</text>
	<text transform="matrix(3.061617e-16 1 -1 3.061617e-16 1279.6869 202.9962)" class="st1 st2 st3">D4</text>
	<text transform="matrix(3.061617e-16 1 -1 3.061617e-16 1279.6869 189.86)" class="st1 st2 st3">D5</text>
	<text transform="matrix(3.061617e-16 1 -1 3.061617e-16 1279.6869 176.1881)" class="st1 st2 st3">D6</text>
	<text transform="matrix(3.061617e-16 1 -1 3.061617e-16 1279.6869 162.652)" class="st1 st2 st3">D7</text>
	<text transform="matrix(3.061617e-16 1 -1 3.061617e-16 1279.6869 149.5148)" class="st1 st2 st3">D8</text>
	<text transform="matrix(3.061617e-16 1 -1 3.061617e-16 1279.6869 135.9772)" class="st1 st2 st3">D9</text>
	<text transform="matrix(3.061617e-16 1 -1 3.061617e-16 1279.6869 120.4264)" class="st1 st2 st3">D10</text>
	<text transform="matrix(3.061617e-16 1 -1 3.061617e-16 1279.6869 107.1583)" class="st1 st2 st3">D11</text>
	<text transform="matrix(3.061617e-16 1 -1 3.061617e-16 1279.6869 95.6149)" class="st1 st2 st3">D12</text>
	<text transform="matrix(3.061617e-16 1 -1 3.061617e-16 1215.8851 95.6149)" class="st1 st2 st3">D13</text>
	<text transform="matrix(3.061617e-16 1 -1 3.061617e-16 1215.8851 107.2936)" class="st1 st2 st3">3V3</text>
	<text transform="matrix(3.061617e-16 1 -1 3.061617e-16 1215.8851 120.5616)" class="st1 st2 st3">REF</text>
	<text transform="matrix(3.061617e-16 1 -1 3.061617e-16 1215.8851 135.8429)" class="st1 st2 st3">A0</text>
	<text transform="matrix(3.061617e-16 1 -1 3.061617e-16 1215.8851 149.3795)" class="st1 st2 st3">A1</text>
	<text transform="matrix(3.061617e-16 1 -1 3.061617e-16 1215.8851 162.652)" class="st1 st2 st3">A2</text>
	<text transform="matrix(3.061617e-16 1 -1 3.061617e-16 1215.8851 176.0538)" class="st1 st2 st3">A3</text>
	<text transform="matrix(3.061617e-16 1 -1 3.061617e-16 1215.8851 189.3253)" class="st1 st2 st3">A4</text>
	<text transform="matrix(3.061617e-16 1 -1 3.061617e-16 1215.8851 202.8619)" class="st1 st2 st3">A5</text>
	<text transform="matrix(3.061617e-16 1 -1 3.061617e-16 1215.8851 216.2643)" class="st1 st2 st3">A6</text>
	<text transform="matrix(3.061617e-16 1 -1 3.061617e-16 1215.8851 229.5358)" class="st1 st2 st3">A7</text>
	<text transform="matrix(3.061617e-16 1 -1 3.061617e-16 1215.8851 242.9376)" class="st1 st2 st3">Vusb</text>
	<text transform="matrix(3.061617e-16 1 -1 3.061617e-16 1215.8851 256.3448)" class="st1 st2 st3">RST</text>
	<rect x="1203" y="268.1" class="st1" width="19.9" height="11.4"/>
	<text transform="matrix(3.061617e-16 1 -1 3.061617e-16 1215.8851 268.2882)" class="st4 st2 st3">GND</text>
	<text transform="matrix(3.061617e-16 1 -1 3.061617e-16 1215.8851 283.4171)" class="st1 st2 st3">VIN</text>
	<text transform="matrix(1 0 0 1 1244.7474 152.028)" class="st1 st2 st3">RST</text>
	<text transform="matrix(3.061617e-16 1 -1 3.061617e-16 1283.7074 134.5016)" class="st1 st2 st5">*</text>
	<text transform="matrix(3.061617e-16 1 -1 3.061617e-16 1283.7074 120.964)" class="st1 st2 st5">*</text>
	<text transform="matrix(3.061617e-16 1 -1 3.061617e-16 1283.7074 107.693)" class="st1 st2 st5">*</text>
	<text transform="matrix(3.061617e-16 1 -1 3.061617e-16 1283.7074 174.7115)" class="st1 st2 st5">*</text>
	<text transform="matrix(3.061617e-16 1 -1 3.061617e-16 1283.7074 188.2526)" class="st1 st2 st5">*</text>
	<text transform="matrix(3.061617e-16 1 -1 3.061617e-16 1283.7074 214.9259)" class="st1 st2 st5">*</text>
	<circle id="connector16pin" class="st6" cx="1290.1" cy="286.9" r="3.5"/>
	<rect x="1286.6" y="283.4" class="st6" width="7.1" height="7.1"/>
	<circle id="connector17pin" class="st6" cx="1290.1" cy="273.5" r="3.5"/>
	<circle id="connector18pin" class="st6" cx="1290.1" cy="260.1" r="3.5"/>
	<circle id="connector19pin" class="st6" cx="1290.1" cy="246.7" r="3.5"/>
	<circle id="connector20pin" class="st6" cx="1290.1" cy="233.3" r="3.5"/>
	<circle id="connector21pin" class="st6" cx="1290.1" cy="219.9" r="3.5"/>
	<circle id="connector22pin" class="st6" cx="1290.1" cy="206.5" r="3.5"/>
	<circle id="connector23pin" class="st6" cx="1290.1" cy="193.1" r="3.5"/>
	<circle id="connector24pin" class="st6" cx="1290.1" cy="179.7" r="3.5"/>
	<circle id="connector25pin" class="st6" cx="1290.1" cy="166.3" r="3.5"/>
	<circle id="connector26pin" class="st6" cx="1290.1" cy="152.9" r="3.5"/>
	<circle id="connector27pin" class="st6" cx="1290.1" cy="139.5" r="3.5"/>
	<circle id="connector28pin" class="st6" cx="1290.1" cy="126.1" r="3.5"/>
	<circle id="connector29pin" class="st6" cx="1290.1" cy="112.7" r="3.5"/>
	<circle id="connector30pin" class="st6" cx="1290.1" cy="99.2" r="3.5"/>
	<circle id="connector31pin" class="st6" cx="1209.7" cy="286.9" r="3.5"/>
	<circle id="connector32pin" class="st6" cx="1209.7" cy="273.5" r="3.5"/>
	<circle id="connector33pin" class="st6" cx="1209.7" cy="260.1" r="3.5"/>
	<circle id="connector34pin" class="st6" cx="1209.7" cy="246.7" r="3.5"/>
	<circle id="connector35pin" class="st6" cx="1209.7" cy="233.3" r="3.5"/>
	<circle id="connector36pin" class="st6" cx="1209.7" cy="219.9" r="3.5"/>
	<circle id="connector37pin" class="st6" cx="1209.7" cy="206.5" r="3.5"/>
	<circle id="connector38pin" class="st6" cx="1209.7" cy="193.1" r="3.5"/>
	<circle id="connector39pin" class="st6" cx="1209.7" cy="179.7" r="3.5"/>
	<circle id="connector40pin" class="st6" cx="1209.7" cy="166.3" r="3.5"/>
	<circle id="connector41pin" class="st6" cx="1209.7" cy="152.9" r="3.5"/>
	<circle id="connector42pin" class="st6" cx="1209.7" cy="139.5" r="3.5"/>
	<circle id="connector43pin" class="st6" cx="1209.7" cy="126.1" r="3.5"/>
	<circle id="connector44pin" class="st6" cx="1209.7" cy="112.7" r="3.5"/>
	<circle id="connector45pin" class="st6" cx="1209.7" cy="99.2" r="3.5"/>
	<polygon class="st7" points="1245.3,146.2 1245.3,146 1253.5,146 1253.5,146.2 1259.6,146.2 1259.6,134.4 1239.1,134.4 
		1239.1,146.2 	"/>
	<polygon class="st7" points="1253.5,132.6 1253.5,132.9 1245.3,132.9 1245.3,132.6 1239.1,132.6 1239.1,144.3 1259.6,144.3 
		1259.6,132.6 	"/>
	<circle cx="1249.4" cy="139.5" r="4.3"/>
	<path class="st8" d="M1253.6,139.3c0-2.4-1.9-4.3-4.3-4.3s-4.3,1.9-4.3,4.3v0.2c0-2.4,1.9-4.3,4.3-4.3S1253.6,137,1253.6,139.3
		L1253.6,139.3z"/>
	<circle class="st4" cx="1249.4" cy="139.5" r="4.1"/>
	<circle class="st9" cx="1249.4" cy="139.5" r="4.1"/>
	<path class="st8" d="M1253.5,139.3c0-2.2-1.9-4.1-4.1-4.1c-2.2,0-4.1,1.9-4.1,4.1v0.2c0-2.2,1.9-4.1,4.1-4.1
		C1251.6,135.4,1253.5,137.2,1253.5,139.3L1253.5,139.3z"/>
	<path class="st10" d="M1245.3,139.3c0,2.2,1.9,4.1,4.1,4.1c2.2,0,4.1-1.9,4.1-4.1v0.2c0,2.2-1.9,4.1-4.1,4.1
		C1247.1,143.6,1245.3,141.7,1245.3,139.3L1245.3,139.3z"/>
	<rect x="1239.1" y="146" class="st10" width="6.1" height="0.2"/>
	<rect x="1253.5" y="146" class="st10" width="6.1" height="0.2"/>
	<rect x="1245.3" y="145.6" class="st10" width="8.2" height="0.2"/>
	<rect x="1239.1" y="132.6" class="st8" width="6.1" height="0.2"/>
	<rect x="1253.5" y="132.6" class="st8" width="6.1" height="0.2"/>
	<rect x="1245.3" y="132.9" class="st8" width="8.2" height="0.2"/>
	<line class="st11" x1="1264.2" y1="243.7" x2="1264.2" y2="230.1"/>
	<line class="st11" x1="1278.4" y1="243.7" x2="1278.4" y2="230.1"/>
	<rect x="1232" y="175" class="st4" width="39.7" height="38.5"/>
	<circle class="st12" cx="1290.1" cy="99.2" r="3.5"/>
	<path class="st10" d="M1286.6,98.5c0,1.9,1.5,3.5,3.5,3.5c1.9,0,3.5-1.5,3.5-3.5v0.6c0,1.9-1.5,3.5-3.5,3.5c-1.9,0-3.5-1.5-3.5-3.5
		V98.5z"/>
	<path class="st13" d="M1293.7,99.8c0-1.9-1.5-3.5-3.5-3.5c-1.9,0-3.5,1.5-3.5,3.5v-0.6c0-1.9,1.5-3.5,3.5-3.5
		c1.9,0,3.5,1.5,3.5,3.5V99.8z"/>
	<rect x="1288.6" y="97.8" class="st7" width="3" height="3"/>
	<rect x="1288.6" y="100.4" class="st10" width="3" height="0.2"/>
	<rect x="1288.6" y="97.8" class="st14" width="3" height="0.2"/>
	<circle class="st12" cx="1290.1" cy="112.7" r="3.5"/>
	<path class="st10" d="M1286.6,111.9c0,1.9,1.5,3.5,3.5,3.5c1.9,0,3.5-1.5,3.5-3.5v0.6c0,1.9-1.5,3.5-3.5,3.5
		c-1.9,0-3.5-1.5-3.5-3.5V111.9z"/>
	<path class="st13" d="M1293.7,113.2c0-1.9-1.5-3.5-3.5-3.5c-1.9,0-3.5,1.5-3.5,3.5v-0.6c0-1.9,1.5-3.5,3.5-3.5
		c1.9,0,3.5,1.5,3.5,3.5V113.2z"/>
	<rect x="1288.6" y="111.2" class="st7" width="3" height="3"/>
	<rect x="1288.6" y="113.8" class="st10" width="3" height="0.2"/>
	<rect x="1288.6" y="111.2" class="st14" width="3" height="0.2"/>
	<circle class="st12" cx="1290.1" cy="126.1" r="3.5"/>
	<path class="st10" d="M1286.6,125.3c0,1.9,1.5,3.5,3.5,3.5c1.9,0,3.5-1.5,3.5-3.5v0.6c0,1.9-1.5,3.5-3.5,3.5
		c-1.9,0-3.5-1.5-3.5-3.5C1286.6,126.1,1286.6,125.3,1286.6,125.3z"/>
	<path class="st13" d="M1293.7,126.6c0-1.9-1.5-3.5-3.5-3.5c-1.9,0-3.5,1.5-3.5,3.5v-0.6c0-1.9,1.5-3.5,3.5-3.5
		c1.9,0,3.5,1.5,3.5,3.5V126.6z"/>
	<rect x="1288.6" y="124.6" class="st7" width="3" height="3"/>
	<rect x="1288.6" y="127.2" class="st10" width="3" height="0.2"/>
	<rect x="1288.6" y="124.6" class="st14" width="3" height="0.2"/>
	<circle class="st12" cx="1290.1" cy="139.5" r="3.5"/>
	<path class="st10" d="M1286.6,138.7c0,1.9,1.5,3.5,3.5,3.5c1.9,0,3.5-1.5,3.5-3.5v0.7c0,1.9-1.5,3.5-3.5,3.5
		c-1.9,0-3.5-1.5-3.5-3.5V138.7z"/>
	<path class="st13" d="M1293.7,140c0-1.9-1.5-3.5-3.5-3.5c-1.9,0-3.5,1.5-3.5,3.5v-0.6c0-1.9,1.5-3.5,3.5-3.5c1.9,0,3.5,1.5,3.5,3.5
		V140z"/>
	<rect x="1288.6" y="138" class="st7" width="3" height="3"/>
	<rect x="1288.6" y="140.6" class="st10" width="3" height="0.2"/>
	<rect x="1288.6" y="138" class="st14" width="3" height="0.2"/>
	<circle class="st12" cx="1290.1" cy="152.9" r="3.5"/>
	<path class="st10" d="M1286.6,152.1c0,1.9,1.5,3.5,3.5,3.5c1.9,0,3.5-1.5,3.5-3.5v0.6c0,1.9-1.5,3.5-3.5,3.5
		c-1.9,0-3.5-1.5-3.5-3.5V152.1z"/>
	<path class="st13" d="M1293.7,153.4c0-1.9-1.5-3.5-3.5-3.5c-1.9,0-3.5,1.5-3.5,3.5v-0.6c0-1.9,1.5-3.5,3.5-3.5
		c1.9,0,3.5,1.5,3.5,3.5V153.4z"/>
	<rect x="1288.6" y="151.4" class="st7" width="3" height="3"/>
	<rect x="1288.6" y="154" class="st10" width="3" height="0.2"/>
	<rect x="1288.6" y="151.4" class="st14" width="3" height="0.2"/>
	<circle class="st12" cx="1290.1" cy="166.3" r="3.5"/>
	<path class="st10" d="M1286.6,165.5c0,1.9,1.5,3.5,3.5,3.5c1.9,0,3.5-1.5,3.5-3.5v0.6c0,1.9-1.5,3.5-3.5,3.5
		c-1.9,0-3.5-1.5-3.5-3.5V165.5z"/>
	<path class="st13" d="M1293.7,166.8c0-1.9-1.5-3.5-3.5-3.5c-1.9,0-3.5,1.5-3.5,3.5v-0.6c0-1.9,1.5-3.5,3.5-3.5
		c1.9,0,3.5,1.5,3.5,3.5V166.8z"/>
	<rect x="1288.6" y="164.8" class="st7" width="3" height="3"/>
	<rect x="1288.6" y="167.4" class="st10" width="3" height="0.2"/>
	<rect x="1288.6" y="164.8" class="st14" width="3" height="0.2"/>
	<circle class="st12" cx="1290.1" cy="179.7" r="3.5"/>
	<path class="st10" d="M1286.6,178.9c0,1.9,1.5,3.5,3.5,3.5c1.9,0,3.5-1.5,3.5-3.5v0.6c0,1.9-1.5,3.5-3.5,3.5
		c-1.9,0-3.5-1.5-3.5-3.5V178.9z"/>
	<path class="st13" d="M1293.7,180.2c0-1.9-1.5-3.5-3.5-3.5c-1.9,0-3.5,1.5-3.5,3.5v-0.6c0-1.9,1.5-3.5,3.5-3.5
		c1.9,0,3.5,1.5,3.5,3.5V180.2z"/>
	<rect x="1288.6" y="178.2" class="st7" width="3" height="3"/>
	<rect x="1288.6" y="180.8" class="st10" width="3" height="0.2"/>
	<rect x="1288.6" y="178.2" class="st14" width="3" height="0.2"/>
	<circle class="st12" cx="1290.1" cy="193.1" r="3.5"/>
	<path class="st10" d="M1286.6,192.3c0,1.9,1.5,3.5,3.5,3.5c1.9,0,3.5-1.5,3.5-3.5v0.6c0,1.9-1.5,3.5-3.5,3.5
		c-1.9,0-3.5-1.5-3.5-3.5C1286.6,193.1,1286.6,192.3,1286.6,192.3z"/>
	<path class="st13" d="M1293.7,193.6c0-1.9-1.5-3.5-3.5-3.5c-1.9,0-3.5,1.5-3.5,3.5v-0.6c0-1.9,1.5-3.5,3.5-3.5
		c1.9,0,3.5,1.5,3.5,3.5V193.6z"/>
	<rect x="1288.6" y="191.6" class="st7" width="3" height="3"/>
	<rect x="1288.6" y="194.2" class="st10" width="3" height="0.2"/>
	<rect x="1288.6" y="191.6" class="st14" width="3" height="0.2"/>
	<circle class="st12" cx="1290.1" cy="206.5" r="3.5"/>
	<path class="st10" d="M1286.6,205.7c0,1.9,1.5,3.5,3.5,3.5c1.9,0,3.5-1.5,3.5-3.5v0.7c0,1.9-1.5,3.5-3.5,3.5
		c-1.9,0-3.5-1.5-3.5-3.5V205.7z"/>
	<path class="st13" d="M1293.7,207c0-1.9-1.5-3.5-3.5-3.5c-1.9,0-3.5,1.5-3.5,3.5v-0.6c0-1.9,1.5-3.5,3.5-3.5c1.9,0,3.5,1.5,3.5,3.5
		V207z"/>
	<rect x="1288.6" y="205" class="st7" width="3" height="3"/>
	<rect x="1288.6" y="207.6" class="st10" width="3" height="0.2"/>
	<rect x="1288.6" y="205" class="st14" width="3" height="0.2"/>
	<circle class="st12" cx="1290.1" cy="219.9" r="3.5"/>
	<path class="st10" d="M1286.6,219.1c0,1.9,1.5,3.5,3.5,3.5c1.9,0,3.5-1.5,3.5-3.5v0.6c0,1.9-1.5,3.5-3.5,3.5
		c-1.9,0-3.5-1.5-3.5-3.5C1286.6,219.9,1286.6,219.1,1286.6,219.1z"/>
	<path class="st13" d="M1293.7,220.4c0-1.9-1.5-3.5-3.5-3.5c-1.9,0-3.5,1.5-3.5,3.5v-0.6c0-1.9,1.5-3.5,3.5-3.5
		c1.9,0,3.5,1.5,3.5,3.5V220.4z"/>
	<rect x="1288.6" y="218.4" class="st7" width="3" height="3"/>
	<rect x="1288.6" y="221" class="st10" width="3" height="0.2"/>
	<rect x="1288.6" y="218.4" class="st14" width="3" height="0.2"/>
	<circle class="st12" cx="1290.1" cy="233.3" r="3.5"/>
	<path class="st10" d="M1286.6,232.5c0,1.9,1.5,3.5,3.5,3.5c1.9,0,3.5-1.5,3.5-3.5v0.6c0,1.9-1.5,3.5-3.5,3.5
		c-1.9,0-3.5-1.5-3.5-3.5V232.5z"/>
	<path class="st13" d="M1293.7,233.8c0-1.9-1.5-3.5-3.5-3.5c-1.9,0-3.5,1.5-3.5,3.5v-0.6c0-1.9,1.5-3.5,3.5-3.5
		c1.9,0,3.5,1.5,3.5,3.5V233.8z"/>
	<rect x="1288.6" y="231.8" class="st7" width="3" height="3"/>
	<rect x="1288.6" y="234.4" class="st10" width="3" height="0.2"/>
	<rect x="1288.6" y="231.8" class="st14" width="3" height="0.2"/>
	<circle class="st12" cx="1290.1" cy="246.7" r="3.5"/>
	<path class="st10" d="M1286.6,245.9c0,1.9,1.5,3.5,3.5,3.5c1.9,0,3.5-1.5,3.5-3.5v0.6c0,1.9-1.5,3.5-3.5,3.5
		c-1.9,0-3.5-1.5-3.5-3.5C1286.6,246.7,1286.6,245.9,1286.6,245.9z"/>
	<path class="st13" d="M1293.7,247.2c0-1.9-1.5-3.5-3.5-3.5c-1.9,0-3.5,1.5-3.5,3.5v-0.6c0-1.9,1.5-3.5,3.5-3.5
		c1.9,0,3.5,1.5,3.5,3.5V247.2z"/>
	<rect x="1288.6" y="245.2" class="st7" width="3" height="3"/>
	<rect x="1288.6" y="247.8" class="st10" width="3" height="0.2"/>
	<rect x="1288.6" y="245.2" class="st14" width="3" height="0.2"/>
	<circle class="st12" cx="1290.1" cy="260.1" r="3.5"/>
	<path class="st10" d="M1286.6,259.4c0,1.9,1.5,3.5,3.5,3.5c1.9,0,3.5-1.5,3.5-3.5v0.6c0,1.9-1.5,3.5-3.5,3.5
		c-1.9,0-3.5-1.5-3.5-3.5V259.4z"/>
	<path class="st13" d="M1293.7,260.7c0-1.9-1.5-3.5-3.5-3.5c-1.9,0-3.5,1.5-3.5,3.5v-0.6c0-1.9,1.5-3.5,3.5-3.5
		c1.9,0,3.5,1.5,3.5,3.5V260.7z"/>
	<rect x="1288.6" y="258.6" class="st7" width="3" height="3"/>
	<rect x="1288.6" y="261.2" class="st10" width="3" height="0.2"/>
	<rect x="1288.6" y="258.6" class="st14" width="3" height="0.2"/>
	<circle class="st12" cx="1290.1" cy="273.5" r="3.5"/>
	<path class="st10" d="M1286.6,272.8c0,1.9,1.5,3.5,3.5,3.5c1.9,0,3.5-1.5,3.5-3.5v0.6c0,1.9-1.5,3.5-3.5,3.5
		c-1.9,0-3.5-1.5-3.5-3.5V272.8z"/>
	<path class="st13" d="M1293.7,274.1c0-1.9-1.5-3.5-3.5-3.5c-1.9,0-3.5,1.5-3.5,3.5v-0.6c0-1.9,1.5-3.5,3.5-3.5
		c1.9,0,3.5,1.5,3.5,3.5V274.1z"/>
	<rect x="1288.6" y="272" class="st7" width="3" height="3"/>
	<rect x="1288.6" y="274.6" class="st10" width="3" height="0.2"/>
	<rect x="1288.6" y="272" class="st14" width="3" height="0.2"/>
	<circle class="st12" cx="1290.1" cy="286.9" r="3.5"/>
	<path class="st10" d="M1286.6,286.2c0,1.9,1.5,3.5,3.5,3.5c1.9,0,3.5-1.5,3.5-3.5v0.6c0,1.9-1.5,3.5-3.5,3.5
		c-1.9,0-3.5-1.5-3.5-3.5V286.2z"/>
	<path class="st13" d="M1293.7,287.5c0-1.9-1.5-3.5-3.5-3.5c-1.9,0-3.5,1.5-3.5,3.5v-0.6c0-1.9,1.5-3.5,3.5-3.5
		c1.9,0,3.5,1.5,3.5,3.5V287.5z"/>
	<rect x="1288.6" y="285.4" class="st7" width="3" height="3"/>
	<rect x="1288.6" y="288" class="st10" width="3" height="0.2"/>
	<rect x="1288.6" y="285.4" class="st14" width="3" height="0.2"/>
	<circle class="st12" cx="1209.5" cy="99.2" r="3.5"/>
	<path class="st10" d="M1206.2,98.7c0,1.9,1.5,3.5,3.5,3.5c2,0,3.5-1.5,3.5-3.5v0.6c0,1.9-1.5,3.5-3.5,3.5c-2,0-3.5-1.5-3.5-3.5
		C1206.2,99.2,1206.2,98.7,1206.2,98.7z"/>
	<path class="st13" d="M1213.1,99.8c0-1.9-1.5-3.5-3.5-3.5c-2,0-3.5,1.5-3.5,3.5v-0.6c0-1.9,1.5-3.5,3.5-3.5c2,0,3.5,1.5,3.5,3.5
		V99.8z"/>
	<rect x="1208.2" y="97.8" class="st7" width="3" height="3"/>
	<rect x="1208.2" y="100.6" class="st10" width="3" height="0.2"/>
	<rect x="1208.2" y="97.8" class="st14" width="3" height="0.2"/>
	<circle class="st12" cx="1209.5" cy="112.7" r="3.5"/>
	<path class="st10" d="M1206.2,112.1c0,1.9,1.5,3.5,3.5,3.5c2,0,3.5-1.5,3.5-3.5v0.6c0,1.9-1.5,3.5-3.5,3.5c-2,0-3.5-1.5-3.5-3.5
		V112.1z"/>
	<path class="st13" d="M1213.1,113.2c0-1.9-1.5-3.5-3.5-3.5c-2,0-3.5,1.5-3.5,3.5v-0.6c0-1.9,1.5-3.5,3.5-3.5c2,0,3.5,1.5,3.5,3.5
		V113.2z"/>
	<rect x="1208.2" y="111.2" class="st7" width="3" height="3"/>
	<rect x="1208.2" y="114" class="st10" width="3" height="0.2"/>
	<rect x="1208.2" y="111.2" class="st14" width="3" height="0.2"/>
	<circle class="st12" cx="1209.5" cy="126.1" r="3.5"/>
	<path class="st10" d="M1206.2,125.5c0,1.9,1.5,3.5,3.5,3.5c2,0,3.5-1.5,3.5-3.5v0.6c0,1.9-1.5,3.5-3.5,3.5c-2,0-3.5-1.5-3.5-3.5
		V125.5z"/>
	<path class="st13" d="M1213.1,126.6c0-1.9-1.5-3.5-3.5-3.5c-2,0-3.5,1.5-3.5,3.5v-0.6c0-1.9,1.5-3.5,3.5-3.5c2,0,3.5,1.5,3.5,3.5
		V126.6z"/>
	<rect x="1208.2" y="124.6" class="st7" width="3" height="3"/>
	<rect x="1208.2" y="127.4" class="st10" width="3" height="0.2"/>
	<rect x="1208.2" y="124.6" class="st14" width="3" height="0.2"/>
	<circle class="st12" cx="1209.5" cy="139.5" r="3.5"/>
	<path class="st10" d="M1206.2,138.9c0,1.9,1.5,3.5,3.5,3.5c2,0,3.5-1.5,3.5-3.5v0.6c0,1.9-1.5,3.5-3.5,3.5c-2,0-3.5-1.7-3.5-3.5
		V138.9z"/>
	<path class="st13" d="M1213.1,140c0-1.9-1.5-3.5-3.5-3.5c-2,0-3.5,1.5-3.5,3.5v-0.6c0-1.9,1.5-3.5,3.5-3.5c2,0,3.5,1.7,3.5,3.5V140
		z"/>
	<rect x="1208.2" y="138" class="st7" width="3" height="3"/>
	<rect x="1208.2" y="140.8" class="st10" width="3" height="0.2"/>
	<rect x="1208.2" y="138" class="st14" width="3" height="0.2"/>
	<circle class="st12" cx="1209.5" cy="152.9" r="3.5"/>
	<path class="st10" d="M1206.2,152.3c0,1.9,1.5,3.5,3.5,3.5c2,0,3.5-1.5,3.5-3.5v0.6c0,1.9-1.5,3.5-3.5,3.5c-2,0-3.5-1.5-3.5-3.5
		C1206.2,152.9,1206.2,152.3,1206.2,152.3z"/>
	<path class="st13" d="M1213.1,153.4c0-1.9-1.5-3.5-3.5-3.5c-2,0-3.5,1.5-3.5,3.5v-0.6c0-1.9,1.5-3.5,3.5-3.5c2,0,3.5,1.5,3.5,3.5
		V153.4z"/>
	<rect x="1208.2" y="151.4" class="st7" width="3" height="3"/>
	<rect x="1208.2" y="154.2" class="st10" width="3" height="0.2"/>
	<rect x="1208.2" y="151.4" class="st14" width="3" height="0.2"/>
	<circle class="st12" cx="1209.5" cy="166.3" r="3.5"/>
	<path class="st10" d="M1206.2,165.7c0,1.9,1.5,3.5,3.5,3.5c2,0,3.5-1.5,3.5-3.5v0.6c0,1.9-1.5,3.5-3.5,3.5c-2,0-3.5-1.5-3.5-3.5
		V165.7z"/>
	<path class="st13" d="M1213.1,166.8c0-1.9-1.5-3.5-3.5-3.5c-2,0-3.5,1.5-3.5,3.5v-0.6c0-1.9,1.5-3.5,3.5-3.5c2,0,3.5,1.5,3.5,3.5
		V166.8z"/>
	<rect x="1208.2" y="164.8" class="st7" width="3" height="3"/>
	<rect x="1208.2" y="167.6" class="st10" width="3" height="0.2"/>
	<rect x="1208.2" y="164.8" class="st14" width="3" height="0.2"/>
	<circle class="st12" cx="1209.5" cy="179.7" r="3.5"/>
	<path class="st10" d="M1206.2,179.1c0,1.9,1.5,3.5,3.5,3.5c2,0,3.5-1.5,3.5-3.5v0.6c0,1.9-1.5,3.5-3.5,3.5c-2,0-3.5-1.5-3.5-3.5
		V179.1z"/>
	<path class="st13" d="M1213.1,180.2c0-1.9-1.5-3.5-3.5-3.5c-2,0-3.5,1.5-3.5,3.5v-0.6c0-1.9,1.5-3.5,3.5-3.5c2,0,3.5,1.5,3.5,3.5
		V180.2z"/>
	<rect x="1208.2" y="178.2" class="st7" width="3" height="3"/>
	<rect x="1208.2" y="181" class="st10" width="3" height="0.2"/>
	<rect x="1208.2" y="178.2" class="st14" width="3" height="0.2"/>
	<circle class="st12" cx="1209.5" cy="193.1" r="3.5"/>
	<path class="st10" d="M1206.2,192.5c0,1.9,1.5,3.5,3.5,3.5c2,0,3.5-1.5,3.5-3.5v0.6c0,1.9-1.5,3.5-3.5,3.5c-2,0-3.5-1.5-3.5-3.5
		V192.5z"/>
	<path class="st13" d="M1213.1,193.6c0-1.9-1.5-3.5-3.5-3.5c-2,0-3.5,1.5-3.5,3.5v-0.6c0-1.9,1.5-3.5,3.5-3.5c2,0,3.5,1.5,3.5,3.5
		V193.6z"/>
	<rect x="1208.2" y="191.6" class="st7" width="3" height="3"/>
	<rect x="1208.2" y="194.4" class="st10" width="3" height="0.2"/>
	<rect x="1208.2" y="191.6" class="st14" width="3" height="0.2"/>
	<circle class="st12" cx="1209.5" cy="206.5" r="3.5"/>
	<path class="st10" d="M1206.2,205.9c0,1.9,1.5,3.5,3.5,3.5c2,0,3.5-1.5,3.5-3.5v0.6c0,1.9-1.5,3.5-3.5,3.5c-2,0-3.5-1.7-3.5-3.5
		V205.9z"/>
	<path class="st13" d="M1213.1,207c0-1.9-1.5-3.5-3.5-3.5c-2,0-3.5,1.5-3.5,3.5v-0.6c0-1.9,1.5-3.5,3.5-3.5c2,0,3.5,1.7,3.5,3.5V207
		z"/>
	<rect x="1208.2" y="205" class="st7" width="3" height="3"/>
	<rect x="1208.2" y="207.8" class="st10" width="3" height="0.2"/>
	<rect x="1208.2" y="205" class="st14" width="3" height="0.2"/>
	<circle class="st12" cx="1209.5" cy="219.9" r="3.5"/>
	<path class="st10" d="M1206.2,219.3c0,1.9,1.5,3.5,3.5,3.5c2,0,3.5-1.5,3.5-3.5v0.6c0,1.9-1.5,3.5-3.5,3.5c-2,0-3.5-1.5-3.5-3.5
		V219.3z"/>
	<path class="st13" d="M1213.1,220.4c0-1.9-1.5-3.5-3.5-3.5c-2,0-3.5,1.5-3.5,3.5v-0.6c0-1.9,1.5-3.5,3.5-3.5c2,0,3.5,1.5,3.5,3.5
		V220.4z"/>
	<rect x="1208.2" y="218.4" class="st7" width="3" height="3"/>
	<rect x="1208.2" y="221.2" class="st10" width="3" height="0.2"/>
	<rect x="1208.2" y="218.4" class="st14" width="3" height="0.2"/>
	<circle class="st12" cx="1209.5" cy="233.3" r="3.5"/>
	<path class="st10" d="M1206.2,232.7c0,1.9,1.5,3.5,3.5,3.5c2,0,3.5-1.5,3.5-3.5v0.6c0,1.9-1.5,3.5-3.5,3.5c-2,0-3.5-1.5-3.5-3.5
		C1206.2,233.3,1206.2,232.7,1206.2,232.7z"/>
	<path class="st13" d="M1213.1,233.8c0-1.9-1.5-3.5-3.5-3.5c-2,0-3.5,1.5-3.5,3.5v-0.6c0-1.9,1.5-3.5,3.5-3.5c2,0,3.5,1.5,3.5,3.5
		V233.8z"/>
	<rect x="1208.2" y="231.8" class="st7" width="3" height="3"/>
	<rect x="1208.2" y="234.6" class="st10" width="3" height="0.2"/>
	<rect x="1208.2" y="231.8" class="st14" width="3" height="0.2"/>
	<circle class="st12" cx="1209.5" cy="246.7" r="3.5"/>
	<path class="st10" d="M1206.2,246.1c0,1.9,1.5,3.5,3.5,3.5c2,0,3.5-1.5,3.5-3.5v0.6c0,1.9-1.5,3.5-3.5,3.5c-2,0-3.5-1.5-3.5-3.5
		V246.1z"/>
	<path class="st13" d="M1213.1,247.2c0-1.9-1.5-3.5-3.5-3.5c-2,0-3.5,1.5-3.5,3.5v-0.6c0-1.9,1.5-3.5,3.5-3.5c2,0,3.5,1.5,3.5,3.5
		V247.2z"/>
	<rect x="1208.2" y="245.2" class="st7" width="3" height="3"/>
	<rect x="1208.2" y="248" class="st10" width="3" height="0.2"/>
	<rect x="1208.2" y="245.2" class="st14" width="3" height="0.2"/>
	<circle class="st12" cx="1209.5" cy="260.1" r="3.5"/>
	<path class="st10" d="M1206.2,259.5c0,1.9,1.5,3.5,3.5,3.5c2,0,3.5-1.5,3.5-3.5v0.6c0,1.9-1.5,3.5-3.5,3.5c-2,0-3.5-1.5-3.5-3.5
		V259.5z"/>
	<path class="st13" d="M1213.1,260.7c0-1.9-1.5-3.5-3.5-3.5c-2,0-3.5,1.5-3.5,3.5v-0.6c0-1.9,1.5-3.5,3.5-3.5c2,0,3.5,1.5,3.5,3.5
		V260.7z"/>
	<rect x="1208.2" y="258.6" class="st7" width="3" height="3"/>
	<rect x="1208.2" y="261.4" class="st10" width="3" height="0.2"/>
	<rect x="1208.2" y="258.6" class="st14" width="3" height="0.2"/>
	<circle class="st12" cx="1209.5" cy="273.5" r="3.5"/>
	<path class="st10" d="M1206.2,272.9c0,1.9,1.5,3.5,3.5,3.5c2,0,3.5-1.5,3.5-3.5v0.6c0,1.9-1.5,3.5-3.5,3.5c-2,0-3.5-1.7-3.5-3.5
		V272.9z"/>
	<path class="st13" d="M1213.1,274.1c0-1.9-1.5-3.5-3.5-3.5c-2,0-3.5,1.5-3.5,3.5v-0.6c0-1.9,1.5-3.5,3.5-3.5c2,0,3.5,1.5,3.5,3.5
		V274.1z"/>
	<rect x="1208.2" y="272" class="st7" width="3" height="3"/>
	<rect x="1208.2" y="274.8" class="st10" width="3" height="0.2"/>
	<rect x="1208.2" y="272" class="st14" width="3" height="0.2"/>
	<circle class="st12" cx="1209.5" cy="286.9" r="3.5"/>
	<path class="st10" d="M1206.2,286.3c0,1.9,1.5,3.5,3.5,3.5c2,0,3.5-1.5,3.5-3.5v0.6c0,1.9-1.5,3.5-3.5,3.5c-2,0-3.5-1.5-3.5-3.5
		V286.3z"/>
	<path class="st13" d="M1213.1,287.5c0-1.9-1.5-3.5-3.5-3.5c-2,0-3.5,1.5-3.5,3.5v-0.6c0-1.9,1.5-3.5,3.5-3.5c2,0,3.5,1.5,3.5,3.5
		V287.5z"/>
	<rect x="1208.2" y="285.4" class="st7" width="3" height="3"/>
	<rect x="1208.2" y="288.2" class="st10" width="3" height="0.2"/>
	<rect x="1208.2" y="285.4" class="st14" width="3" height="0.2"/>
	<path class="st1" d="M1278.4,272.2L1278.4,272.2v3.7c0,0.2-0.2,0.4-0.4,0.6c-0.2,0.2-0.4,0.2-0.6,0l-2.8-1.9
		c-0.4-0.2-0.4-0.7,0-1.1l2.6-1.7c0.2-0.2,0.4-0.2,0.6-0.2C1278.2,271.6,1278.4,271.8,1278.4,272.2z"/>
	<path class="st1" d="M1274.5,288.6L1274.5,288.6v-3.7c0-0.2,0.2-0.4,0.4-0.6c0.2-0.2,0.4-0.2,0.6,0l2.8,1.9c0.4,0.2,0.4,0.7,0,1.1
		l-2.6,1.7c-0.2,0.2-0.2,0.2-0.6,0.2C1274.9,289.3,1274.5,289,1274.5,288.6z"/>
	<polyline class="st15" points="1229.8,71.3 1229.8,70.6 1270.2,70.6 1270.2,71.3 	"/>
	<rect x="1261.1" y="95.3" class="st16" width="11.4" height="8.6"/>
	<rect x="1228.1" y="95.3" class="st16" width="11.4" height="8.6"/>
	<rect x="1224.4" y="81.2" class="st16" width="9.7" height="10.1"/>
	<rect x="1266.7" y="81.2" class="st16" width="9.7" height="10.1"/>
	<rect x="1279.1" y="80.8" class="st16" width="5" height="4.8"/>
	<rect x="1279" y="89.2" class="st16" width="5" height="4.8"/>
	<path class="st17" d="M1284,83.1c0,1.5-1.1,2.6-2.6,2.6s-2.6-1.1-2.6-2.6c0-1.5,1.1-2.6,2.6-2.6S1284,81.6,1284,83.1"/>
	<path class="st17" d="M1284,91.1c0,1.5-1.1,2.6-2.6,2.6s-2.6-1.1-2.6-2.6s1.1-2.6,2.6-2.6S1284,89.8,1284,91.1"/>
	<rect x="1279" y="83.1" class="st17" width="5" height="2.6"/>
	<rect x="1279" y="88.8" class="st17" width="5" height="2.6"/>
	<rect x="1279" y="84.2" class="st18" width="5" height="6.3"/>
	<path class="st1" d="M1282.5,87.1c0,0.6-0.4,1.1-1.1,1.1s-1.1-0.4-1.1-1.1c0-0.7,0.4-1.1,1.1-1.1
		C1281.9,86.2,1282.5,86.6,1282.5,87.1"/>
	<rect x="1217.1" y="89.2" class="st16" width="5" height="4.8"/>
	<rect x="1217.1" y="80.6" class="st16" width="5" height="4.8"/>
	<path class="st17" d="M1222.2,83.1c0,1.5-1.1,2.6-2.6,2.6c-1.5,0-2.6-1.1-2.6-2.6c0-1.5,1.1-2.6,2.6-2.6
		C1221.1,80.4,1222.2,81.6,1222.2,83.1"/>
	<path class="st17" d="M1222.2,91.1c0,1.5-1.1,2.6-2.6,2.6c-1.5,0-2.6-1.1-2.6-2.6s1.1-2.6,2.6-2.6
		C1221.1,88.5,1222.2,89.8,1222.2,91.1"/>
	<rect x="1217.1" y="83.1" class="st17" width="5" height="2.6"/>
	<rect x="1217.1" y="88.6" class="st17" width="5" height="2.6"/>
	<rect x="1217" y="84" class="st19" width="5" height="6.3"/>
	<path class="st1" d="M1220.7,87.1c0,0.6-0.4,1.1-1.1,1.1s-1.1-0.4-1.1-1.1c0-0.7,0.4-1.1,1.1-1.1S1220.7,86.6,1220.7,87.1"/>
	<path class="st20" d="M1232.6,74.9l-3.2-3.2l1.5-1.5l3.2,3.2L1232.6,74.9z"/>
	<path class="st20" d="M1267.8,73.4l3.2-3.2l1.5,1.5l-3.2,3.2L1267.8,73.4z"/>
	<path class="st21" d="M1258.3,103.7V97c0-0.2-0.2-0.4-0.4-0.4h-1.9c-0.2,0-0.4,0.2-0.4,0.4v6.7c0,0.2,0.2,0.4,0.4,0.4h1.9
		C1258.3,103.9,1258.3,103.9,1258.3,103.7"/>
	<path class="st21" d="M1254.9,103.7V97c0-0.2-0.2-0.4-0.4-0.4h-1.9c-0.2,0-0.4,0.2-0.4,0.4v6.7c0,0.2,0.2,0.4,0.4,0.4h1.9
		C1254.8,103.9,1254.9,103.9,1254.9,103.7"/>
	<path class="st21" d="M1251.6,103.7V97c0-0.2-0.2-0.4-0.4-0.4h-1.9c-0.2,0-0.4,0.2-0.4,0.4v6.7c0,0.2,0.2,0.4,0.4,0.4h1.7
		C1251.4,103.9,1251.6,103.9,1251.6,103.7"/>
	<path class="st21" d="M1248.1,103.7V97c0-0.2-0.2-0.4-0.4-0.4h-1.9c-0.2,0-0.4,0.2-0.4,0.4v6.7c0,0.2,0.2,0.4,0.4,0.4h1.9
		C1248.1,103.9,1248.1,103.9,1248.1,103.7"/>
	<path class="st21" d="M1244.7,103.7V97c0-0.2-0.2-0.4-0.4-0.4h-1.9c-0.2,0-0.4,0.2-0.4,0.4v6.7c0,0.2,0.2,0.4,0.4,0.4h1.7
		C1244.3,103.9,1244.7,103.9,1244.7,103.7"/>
	<path class="st17" d="M1253.8,98.5v1.5h16.2V72.4h-1.9l-1.7-1.1H1235l-1.7,1.1h-1.9v27.4h15.1v-1.5c0-0.7,0.6-1.3,1.3-1.3h4.7
		C1253.3,97.4,1253.8,97.9,1253.8,98.5"/>
	<path class="st20" d="M1260.9,86.6c-0.2,0-0.4-0.2-0.4-0.4v-8.6c0-0.2,0.2-0.4,0.4-0.4h4.3c0.2,0,0.4,0.2,0.4,0.4v8.6
		c0,0.2-0.2,0.4-0.4,0.4H1260.9z"/>
	<path class="st20" d="M1236.3,86.6c-0.2,0-0.4-0.2-0.4-0.4v-8.6c0-0.2,0.2-0.4,0.4-0.4h4.3c0.2,0,0.4,0.2,0.4,0.4v8.6
		c0,0.2-0.2,0.4-0.4,0.4H1236.3z"/>
	<rect x="1245.6" y="110.8" class="st16" width="5.2" height="5.2"/>
	<rect x="1245.4" y="121" class="st16" width="5.2" height="3.2"/>
	<rect x="1257.5" y="110.8" class="st16" width="5.2" height="3.2"/>
	<rect x="1257.7" y="120.8" class="st16" width="5.2" height="3.2"/>
	<rect x="1228.7" y="117.7" class="st16" width="3.4" height="3.4"/>
	<rect x="1228.7" y="113" class="st16" width="3.4" height="3.4"/>
	<rect x="1235" y="109.7" class="st16" width="7.6" height="5"/>
	<rect x="1234.8" y="120.1" class="st16" width="7.6" height="5"/>
	<rect x="1268.5" y="118.2" class="st16" width="5.2" height="4.3"/>
	<path class="st17" d="M1232,118.8v-1.7v-0.2v-1.7c0-0.9-0.7-1.7-1.7-1.7s-1.7,0.7-1.7,1.7v3.5c0,0.9,0.7,1.7,1.7,1.7
		C1231.1,120.5,1232,119.9,1232,118.8"/>
	<rect x="1228.5" y="115.8" width="3.5" height="2.6"/>
	<rect x="1257.5" y="121.2" class="st22" width="2.6" height="2.6"/>
	<rect x="1257.4" y="111" class="st22" width="2.6" height="2.6"/>
	<rect x="1248.2" y="111" class="st22" width="2.6" height="4.7"/>
	<rect x="1248.1" y="121.2" class="st22" width="2.6" height="2.6"/>
	<rect x="1250.8" y="109.7" width="6.9" height="15.3"/>
	<path class="st23" d="M1269.3,120.1h1.5c0-0.4,0.4-0.6,0.6-0.6s0.6,0.4,0.6,0.6h2v-1.7v-6v-0.4V111h-2c0,0.4-0.4,0.6-0.6,0.6
		s-0.6-0.4-0.6-0.6h-2v9.1H1269.3L1269.3,120.1z"/>
	<rect x="1268.5" y="112.8" width="5.2" height="6"/>
	<path class="st17" d="M1234.8,122.3c0,1.1,0.7,1.9,1.9,1.9h3.9c1.1,0,1.9-0.7,1.9-1.9v-0.6h-7.8L1234.8,122.3z"/>
	<path class="st17" d="M1234.8,112.8c0-1.1,0.7-1.9,1.9-1.9h3.9c1.1,0,1.9,0.7,1.9,1.9v0.6h-7.8L1234.8,112.8z"/>
	<rect x="1234.6" y="113.6" class="st23" width="7.8" height="8.2"/>
	<rect x="1265" y="131.5" class="st16" width="7.6" height="5"/>
	<rect x="1265" y="141.7" class="st16" width="7.6" height="5"/>
	<path class="st17" d="M1264.8,143.9c0,1.1,0.7,1.9,1.9,1.9h3.9c1.1,0,1.9-0.7,1.9-1.9v-0.6h-7.8L1264.8,143.9z"/>
	<path class="st17" d="M1264.8,134.4c0-1.1,0.7-1.9,1.9-1.9h3.9c1.1,0,1.9,0.7,1.9,1.9v0.6h-7.8L1264.8,134.4z"/>
	<rect x="1264.6" y="135.4" class="st23" width="7.8" height="8.2"/>
	<rect x="1225.7" y="112.7" class="st16" width="2" height="3.2"/>
	<rect x="1221.4" y="112.7" class="st16" width="2" height="3.2"/>
	<path class="st17" d="M1222.7,112.7c-0.4,0-0.7,0.4-0.7,0.7v1.7c0,0.4,0.4,0.7,0.7,0.7h0.2L1222.7,112.7L1222.7,112.7z"/>
	<path class="st17" d="M1226.5,112.7c0.4,0,0.7,0.4,0.7,0.7v1.7c0,0.4-0.4,0.7-0.7,0.7h-0.2L1226.5,112.7L1226.5,112.7z"/>
	<rect x="1222.9" y="112.7" class="st23" width="3.4" height="3.2"/>
	<rect x="1225.7" y="117.9" class="st16" width="2" height="3.2"/>
	<rect x="1221.4" y="117.9" class="st16" width="2" height="3.2"/>
	<path class="st17" d="M1222.5,117.9c-0.4,0-0.7,0.4-0.7,0.7v1.7c0,0.4,0.4,0.7,0.7,0.7h0.2L1222.5,117.9L1222.5,117.9z"/>
	<path class="st17" d="M1226.5,117.9c0.4,0,0.7,0.4,0.7,0.7v1.7c0,0.4-0.4,0.7-0.7,0.7h-0.2L1226.5,117.9L1226.5,117.9z"/>
	<rect x="1222.7" y="117.7" class="st23" width="3.4" height="3.2"/>
	<rect x="1225.2" y="129.2" width="10.4" height="11.2"/>
	<rect x="1224.2" y="160.3" class="st16" width="8" height="5.2"/>
	<rect x="1236" y="160.3" class="st16" width="8" height="5.2"/>
	<rect x="1222.5" y="157.1" width="22.2" height="11.2"/>
	<rect x="1225" y="231.4" class="st17" width="44.7" height="44.7"/>
	<path class="st7" d="M1262.2,272.2h-28.7c-2.4,0-4.5-2-4.5-4.5v-28.5c0-2.4,2-4.5,4.5-4.5h28.7c2.4,0,4.5,2,4.5,4.5v28.7
		C1266.7,270.3,1264.6,272.2,1262.2,272.2z"/>
	<g>
		<rect x="1224.6" y="277.2" class="st17" width="45.1" height="15.5"/>
		<rect x="1228.5" y="281.5" class="st4" width="41" height="6"/>
	</g>
</g>
<g>
	<line x1="427.1" y1="178.6" x2="577.1" y2="178.6"/>
	<g>
		<line class="st24" x1="443.4" y1="178.6" x2="560.8" y2="178.6"/>
		<g>
			<path d="M447,178.6l4.4-7.2l-0.2-0.2l-11.8,4.7c-4.1,0.9-8.2,1.8-12.3,2.7c4.1,0.9,8.2,1.8,12.3,2.7l11.8,4.7l0.2-0.1L447,178.6z
				"/>
		</g>
		<g>
			<path d="M557.2,178.6l-4.4-7.2l0.2-0.2l11.8,4.7c4.1,0.9,8.2,1.8,12.3,2.7c-4.1,0.9-8.2,1.8-12.3,2.7l-11.8,4.7l-0.2-0.1
				L557.2,178.6z"/>
		</g>
	</g>
</g>
<g>
	<line x1="1043.1" y1="175.1" x2="1193.1" y2="175.1"/>
	<g>
		<line class="st24" x1="1059.4" y1="175.1" x2="1176.8" y2="175.1"/>
		<g>
			<path d="M1063,175.1l4.4-7.2l-0.2-0.2l-11.8,4.7c-4.1,0.9-8.2,1.8-12.3,2.7c4.1,0.9,8.2,1.8,12.3,2.7l11.8,4.7l0.2-0.1
				L1063,175.1z"/>
		</g>
		<g>
			<path d="M1173.2,175.1l-4.4-7.2l0.2-0.2l11.8,4.7c4.1,0.9,8.2,1.8,12.3,2.7c-4.1,0.9-8.2,1.8-12.3,2.7l-11.8,4.7l-0.2-0.1
				L1173.2,175.1z"/>
		</g>
	</g>
</g>
<text transform="matrix(1 0 0 1 432.4603 122.2026)"><tspan x="0" y="0" class="st25 st26">Connects via</tspan><tspan x="10" y="28.8" class="st25 st26">Websocket</tspan></text>
<text transform="matrix(1 0 0 1 1048.4603 125.2026)"><tspan x="0" y="0" class="st25 st26">Connects via</tspan><tspan x="16.7" y="28.8" class="st25 st26">serial port</tspan></text>
</svg>
