<?xml version="1.0" encoding="utf-8"?>
<!-- Generator: Adobe Illustrator 16.0.4, SVG Export Plug-In . SVG Version: 6.00 Build 0)  -->
<!DOCTYPE svg PUBLIC "-//W3C//DTD SVG 1.1//EN" "http://www.w3.org/Graphics/SVG/1.1/DTD/svg11.dtd">
<svg version="1.1" id="Layer_1" xmlns="http://www.w3.org/2000/svg" xmlns:xlink="http://www.w3.org/1999/xlink" x="0px" y="0px"
	 width="78.516px" height="28.8px" viewBox="0 0 78.516 28.8" enable-background="new 0 0 78.516 28.8" xml:space="preserve">
<g>
	<g id="g3061">
		<rect id="rect2989" x="1.439" y="4.5" fill="#52BB70" width="19.842" height="19.843"/>
		<rect id="rect3761" x="1.439" y="4.5" fill="#FFFFFF" fill-opacity="0.3533" width="2.834" height="19.843"/>
		<g transform="matrix(1.25, 0, 0, 1.25, -4.96063, -201.26)">
			<path id="path3763" fill="#D7D7D7" stroke="#010101" stroke-width="0.2268" d="M13.058,173.679c1.566,0,2.834,1.269,2.834,2.834
				s-1.269,2.834-2.834,2.834s-2.834-1.269-2.834-2.834S11.492,173.679,13.058,173.679z"/>
		</g>
		<g transform="matrix(1.25, 0, 0, 1.25, 14.8819, -201.26)">
			<path id="path3763-8" fill="#D7D7D7" stroke="#010101" stroke-width="0.2268" d="M-2.816,165.742c1.566,0,2.834,1.27,2.834,2.835
				c0,1.565-1.269,2.834-2.834,2.834s-2.834-1.27-2.834-2.834C-5.651,167.011-4.382,165.742-2.816,165.742z"/>
		</g>
		<g transform="matrix(0.916667, 0, 0, 0.916667, 1.65354, 67.6771)">
			<path id="path3787" fill="none" stroke="#010101" stroke-width="1.5462" stroke-opacity="0.2824" d="M14.078-50.254
				c-1.344,1.926-3.995,2.398-5.921,1.055c-1.926-1.343-2.397-3.994-1.055-5.92c0.149-0.211,0.315-0.409,0.499-0.59"/>
		</g>
		<g transform="matrix(0.916667, 0, 0, 0.916667, 21.4949, 67.6771)">
			<path id="path3834" fill="none" stroke="#010101" stroke-width="1.5462" stroke-opacity="0.2824" d="M-7.499-61.176
				c-1.287,1.963-3.925,2.511-5.887,1.224c-1.965-1.288-2.512-3.924-1.225-5.888c0.262-0.397,0.588-0.749,0.965-1.04"/>
		</g>
		<g transform="matrix(0.909091, 0, 0, 0.909091, 1.80387, 73.8296)">
			
				<path id="path3838" fill="none" stroke="#FFFFFF" stroke-width="1.5591" stroke-linecap="square" stroke-linejoin="bevel" stroke-opacity="0.587" d="
				M13.218-57.605c-1.263,1.494-3.498,1.682-4.993,0.419c-1.48-1.251-1.68-3.46-0.449-4.956"/>
		</g>
		<g transform="matrix(0.909091, 0, 0, 0.909091, 21.6458, 73.8296)">
			
				<path id="path3840" fill="none" stroke="#FFFFFF" stroke-width="1.5591" stroke-linecap="square" stroke-linejoin="bevel" stroke-opacity="0.587" d="
				M-8.608-68.518c-1.263,1.494-3.498,1.682-4.993,0.419c-1.48-1.251-1.68-3.46-0.449-4.956"/>
		</g>
		<g transform="matrix(0.93358, 0.358368, -0.358368, 0.93358, 292.358, 46.8301)">
			<g id="g3870">
				<path id="path3844" fill="none" stroke="#575858" stroke-width="1.7359" stroke-linecap="round" d="M-274.295,75.075l4.251,0"/>
				<path id="path3848" fill="none" stroke="#575858" stroke-width="1.7359" stroke-linecap="round" d="M-272.17,77.201l0-4.252"/>
			</g>
		</g>
		<g transform="matrix(0.981627, -0.190809, 0.190809, 0.981627, -134.759, 18.7072)">
			<g id="g3874">
				<path id="path3876" fill="none" stroke="#575858" stroke-width="1.7359" stroke-linecap="round" d="M143.073,18.807l4.252,0"/>
				<path id="path3878" fill="none" stroke="#575858" stroke-width="1.7359" stroke-linecap="round" d="M145.2,20.933l-0.001-4.252"
					/>
			</g>
		</g>
	</g>
	<path id="path3934" fill="#333334" d="M37.439,3.6L59.041,7.2V21.6L37.439,25.2V3.6z"/>
	<rect id="rect3954" x="59.041" y="7.2" fill="#333334" width="18" height="14.399"/>
	
		<rect id="rect4069" x="77.041" y="7.92" fill="#333334" stroke="#7E7E7E" stroke-width="0.072" stroke-linecap="round" width="1.439" height="12.96"/>
	<path id="rect3058" fill="#333334" d="M37.439,1.8c0-0.997-0.803-1.8-1.799-1.8h-21.6c-0.998,0-1.801,0.803-1.801,1.8v2.7h3.6v19.8
		h-3.6V27c0,0.997,0.803,1.8,1.801,1.8h21.6c0.996,0,1.799-0.803,1.799-1.8V1.8z"/>
	<path id="path3917" fill="#333334" stroke="#FFFFFF" stroke-width="0.752" stroke-linecap="round" stroke-opacity="0.1576" d="
		M14.041,0.72h19.635h1.965 M36.721,27v-3.877V3.738V1.8 M35.641,0.72c0.596,0,1.08,0.483,1.08,1.08"/>
	<path id="rect3964" fill="#333334" stroke="#343434" stroke-width="0.072" d="M42.48,3.6V25.2c0,0.198-0.162,0.359-0.359,0.359
		h-1.08c-0.199,0-0.361-0.161-0.361-0.359V3.6c0-0.198,0.162-0.359,0.361-0.359h1.08C42.318,3.24,42.48,3.401,42.48,3.6z"/>
	<path id="rect3984" fill="#333334" stroke="#343434" stroke-width="0.072" d="M46.8,4.32v20.159c0,0.199-0.162,0.36-0.361,0.36
		h-1.08c-0.197,0-0.359-0.161-0.359-0.36V4.32c0-0.199,0.162-0.36,0.359-0.36h1.08C46.638,3.96,46.8,4.121,46.8,4.32z"/>
	<path id="rect3988" fill="#333334" stroke="#343434" stroke-width="0.072" d="M55.439,5.76v17.28c0,0.198-0.16,0.359-0.359,0.359
		H54c-0.199,0-0.359-0.161-0.359-0.359V5.76c0-0.199,0.16-0.36,0.359-0.36h1.08C55.279,5.399,55.439,5.561,55.439,5.76z"/>
	<path id="rect3992" fill="#333334" stroke="#343434" stroke-width="0.072" d="M51.121,5.04v18.72c0,0.199-0.162,0.36-0.361,0.36
		h-1.08c-0.199,0-0.359-0.161-0.359-0.36V5.04c0-0.199,0.16-0.36,0.359-0.36h1.08C50.958,4.68,51.121,4.841,51.121,5.04z"/>
	<path id="rect3996" fill="#333334" stroke="#343434" stroke-width="0.072" d="M59.759,6.479V22.32c0,0.198-0.16,0.359-0.359,0.359
		h-1.08c-0.199,0-0.359-0.161-0.359-0.359V6.479c0-0.198,0.16-0.359,0.359-0.359h1.08C59.599,6.12,59.759,6.281,59.759,6.479z"/>
	<path id="path4133" fill="none" stroke="#FFFFFF" stroke-width="0.72" stroke-linecap="round" stroke-opacity="0.125" d="
		M24.84,7.2h-3.6 M23.041,5.399V9"/>
	<path id="path4137" fill="none" stroke="#FFFFFF" stroke-width="0.72" stroke-linecap="round" stroke-opacity="0.125" d="
		M23.041,10.439c-1.791,0.001-3.242-1.449-3.242-3.238c0-1.79,1.449-3.241,3.238-3.241c0.002,0,0.002,0,0.004,0
		c1.789-0.001,3.24,1.449,3.24,3.239c0,1.789-1.449,3.24-3.238,3.24C23.041,10.439,23.041,10.439,23.041,10.439z"/>
	<path id="path4144" fill="none" stroke="#FFFFFF" stroke-width="0.72" stroke-linecap="round" stroke-opacity="0.125" d="
		M23.041,19.8v3.6"/>
	<path id="path4146" fill="none" stroke="#FFFFFF" stroke-width="0.72" stroke-linecap="round" stroke-opacity="0.125" d="
		M23.041,24.84c-1.791,0.001-3.242-1.449-3.242-3.239c0-1.789,1.449-3.24,3.238-3.241c0.002,0,0.002,0,0.004,0
		c1.789,0,3.24,1.45,3.24,3.239c0,1.79-1.449,3.24-3.238,3.241C23.041,24.84,23.041,24.84,23.041,24.84z"/>
	<rect id="connector1pad" y="7.92" fill="none" width="3.24" height="3.24"/>
	<rect id="connector2pad" y="18" fill="none" width="3.24" height="3.24"/>
</g>
</svg>
