<?xml version="1.0" encoding="utf-8"?>
<!-- Generator: Adobe Illustrator 16.0.4, SVG Export Plug-In . SVG Version: 6.00 Build 0)  -->
<!DOCTYPE svg PUBLIC "-//W3C//DTD SVG 1.1//EN" "http://www.w3.org/Graphics/SVG/1.1/DTD/svg11.dtd">
<svg version="1.1" id="Layer_1" xmlns="http://www.w3.org/2000/svg" xmlns:xlink="http://www.w3.org/1999/xlink" x="0px" y="0px"
	 width="226.183px" height="288px" viewBox="0 0 226.183 288" enable-background="new 0 0 226.183 288" xml:space="preserve">
<g>
	<path fill="#E41E26" d="M108.062,21.221c3.952-1.992,14.016,10,22.48,26.788c8.464,16.785,12.119,32.009,8.172,34
		c-3.953,1.992-14.018-10-22.481-26.787C107.769,38.437,104.11,23.212,108.062,21.221z"/>
	
		<rect x="69.254" y="-12.993" transform="matrix(0.4503 0.8929 -0.8929 0.4503 109.8039 -33.4432)" fill="#E41E26" width="25.617" height="170.896"/>
	<polygon fill="#C0BFBF" points="216.624,9.585 226.183,0 212.796,1.987 158.311,29.469 162.149,37.062 	"/>
	<path fill="#E41E26" d="M152.596,22.488c1.977-0.996,6.158,3.316,9.345,9.633c3.181,6.317,4.161,12.246,2.185,13.242
		c-1.976,0.996-6.158-3.317-9.345-9.635C151.6,29.412,150.619,23.484,152.596,22.488z"/>
	<path opacity="0.5" fill="#FFFFFF" enable-background="new    " d="M138.928,78.13c-1.502-0.268-3.656-15.943-10.889-27.958
		c-8.005-17.75-18.56-25.867-16.761-26.858c2.31-1.165,10.372,10.165,18.007,25.304C136.914,63.751,140.341,77.129,138.928,78.13z"
		/>
	<path opacity="0.5" fill="#FFFFFF" enable-background="new    " d="M216.193,8.683c-0.264,0.021-0.086-1.923-0.967-3.201
		c-0.814-1.987-2.451-2.644-2.081-2.839c0.467-0.235,1.522,0.932,2.364,2.596C216.353,6.905,216.488,8.507,216.193,8.683z"/>
	<path fill="#E41E26" d="M108.062,21.221c3.952-1.992,14.016,10,22.48,26.788c8.464,16.785,12.119,32.009,8.172,34
		c-3.953,1.992-14.018-10-22.481-26.787C107.769,38.437,104.11,23.212,108.062,21.221z"/>
	<polygon fill="#A3A3A2" points="216.624,9.585 226.183,0 212.796,1.987 158.311,29.469 162.149,37.062 	"/>
	<path fill="#E41E26" d="M152.596,22.488c1.977-0.996,6.158,3.316,9.345,9.633c3.181,6.317,4.161,12.246,2.185,13.242
		c-1.976,0.996-6.158-3.317-9.345-9.635C151.6,29.412,150.619,23.484,152.596,22.488z"/>
	<path opacity="0.5" fill="#FFFFFF" enable-background="new    " d="M138.928,78.13c-1.502-0.268-3.656-15.943-10.889-27.958
		c-8.005-17.75-18.56-25.867-16.761-26.858c2.31-1.165,10.372,10.165,18.007,25.304C136.914,63.751,140.341,77.129,138.928,78.13z"
		/>
	<path opacity="0.5" fill="#FFFFFF" enable-background="new    " d="M216.193,8.683c-0.264,0.021-0.086-1.923-0.967-3.201
		c-0.814-1.987-2.451-2.644-2.081-2.839c0.467-0.235,1.522,0.932,2.364,2.596C216.353,6.905,216.488,8.507,216.193,8.683z"/>
</g>
<g>
	<path fill="#010101" d="M134.975,151.68c2.373-3.733,17.162,1.406,33.036,11.48c15.874,10.078,26.82,21.271,24.447,25.009
		c-2.368,3.733-17.159-1.405-33.034-11.483C143.553,166.611,132.604,155.415,134.975,151.68z"/>
	
		<rect x="126.146" y="123.553" transform="matrix(0.8441 0.5362 -0.5362 0.8441 133.7163 -41.9217)" fill="#010101" width="25.617" height="170.896"/>
	<polygon fill="#A3A3A2" points="222.305,86.073 225.604,72.947 215.116,81.514 182.409,133.016 189.593,137.584 	"/>
	<path fill="#010101" d="M173.9,130.006c1.188-1.867,6.986-0.309,12.957,3.48c5.971,3.791,9.851,8.377,8.667,10.245
		c-1.187,1.868-6.988,0.31-12.959-3.481C176.594,136.461,172.715,131.875,173.9,130.006z"/>
	<path opacity="0.5" fill="#FFFFFF" enable-background="new    " d="M190.69,184.749c-1.421,0.534-11.301-11.82-23.671-18.439
		c-15.963-11.14-29.192-12.704-28.152-14.472c1.39-2.181,14.109,3.415,28.424,12.505
		C181.598,173.418,191.396,183.161,190.69,184.749z"/>
	<path opacity="0.5" fill="#FFFFFF" enable-background="new    " d="M221.474,85.525c-0.22,0.155-1.059-1.606-2.472-2.261
		c-1.724-1.289-3.463-1.017-3.244-1.367c0.276-0.443,1.789,0.01,3.363,1.016C220.701,83.91,221.633,85.211,221.474,85.525z"/>
</g>
</svg>
