<?xml version="1.0" encoding="utf-8"?>
<!-- Generator: Adobe Illustrator 21.1.0, SVG Export Plug-In . SVG Version: 6.00 Build 0)  -->
<svg version="1.1" id="Layer_1" xmlns:svg="http://www.w3.org/2000/svg"
	 xmlns="http://www.w3.org/2000/svg" xmlns:xlink="http://www.w3.org/1999/xlink" x="0px" y="0px" viewBox="0 0 252.6 195.8"
	 style="enable-background:new 0 0 252.6 195.8;" xml:space="preserve">
<style type="text/css">
	.st0{fill:#FFFFFF;stroke:#000000;stroke-width:0.9;stroke-linecap:round;}
	.st1{fill:none;stroke:#787878;stroke-width:0.7;stroke-linecap:round;}
	.st2{fill:#8C8C8C;}
	.st3{font-family:'ArialMT';}
	.st4{font-size:3.5px;}
	.st5{fill:none;}
	.st6{font-size:4.25px;}
	.st7{fill:none;stroke:#787878;stroke-width:0.75;stroke-linecap:round;}
	.st8{fill:none;stroke:#000000;stroke-width:0.9;stroke-linecap:round;}
	.st9{fill:none;stroke:#000000;stroke-width:0.9;stroke-linecap:round;stroke-linejoin:round;}
	.st10{fill:none;stroke:#787878;stroke-width:0.7;stroke-linecap:round;stroke-linejoin:round;}
	.st11{fill:none;stroke:#404040;stroke-width:0.7;stroke-linecap:round;}
</style>
<g>
	<g transform="translate(144.558,6)">
		<g id="schematic">
			<rect x="14.9" y="14.9" class="st0" width="78.3" height="135.9"/>
			<line id="connector61pin" class="st1" x1="93.3" y1="28.8" x2="107.7" y2="28.8"/>
			<text transform="matrix(1 0 0 1 81.5415 29.4999)" class="st2 st3 st4">D0/RX</text>
			<g id="connector61terminal">
			</g>
			<line id="connector62pin" class="st1" x1="93.3" y1="36" x2="107.7" y2="36"/>
			<text transform="matrix(1 0 0 1 81.9312 36.6999)" class="st2 st3 st4">D1/TX</text>
			<g id="connector62terminal">
			</g>
			<line id="connector63pin" class="st1" x1="93.3" y1="43.2" x2="107.7" y2="43.2"/>
			<text transform="matrix(1 0 0 1 87.376 43.8999)" class="st2 st3 st4">D2</text>
			<g id="connector63terminal">
			</g>
			<line id="connector64pin" class="st1" x1="93.3" y1="50.4" x2="107.7" y2="50.4"/>
			<text transform="matrix(1 0 0 1 77.8502 51.0999)" class="st2 st3 st4">D3 PWM</text>
			<g id="connector64terminal">
			</g>
			<line id="connector65pin" class="st1" x1="93.3" y1="57.6" x2="107.7" y2="57.6"/>
			<text transform="matrix(1 0 0 1 87.376 58.2999)" class="st2 st3 st4">D4</text>
			<g id="connector65terminal">
			</g>
			<line id="connector66pin" class="st1" x1="93.3" y1="64.8" x2="107.7" y2="64.8"/>
			<text transform="matrix(1 0 0 1 77.8502 65.4999)" class="st2 st3 st4">D5 PWM</text>
			<g id="connector66terminal">
			</g>
			<line id="connector67pin" class="st1" x1="93.3" y1="72" x2="107.7" y2="72"/>
			<text transform="matrix(1 0 0 1 77.8502 72.6999)" class="st2 st3 st4">D6 PWM</text>
			<g id="connector67terminal">
			</g>
			<line id="connector68pin" class="st1" x1="93.3" y1="79.2" x2="107.7" y2="79.2"/>
			<text transform="matrix(1 0 0 1 87.376 79.8999)" class="st2 st3 st4">D7</text>
			<g id="connector68terminal">
			</g>
			<line id="connector51pin" class="st1" x1="93.3" y1="86.4" x2="107.7" y2="86.4"/>
			<text transform="matrix(1 0 0 1 87.376 87.0999)" class="st2 st3 st4">D8</text>
			<g id="connector51terminal">
			</g>
			<line id="connector52pin" class="st1" x1="93.3" y1="93.6" x2="107.7" y2="93.6"/>
			<text transform="matrix(1 0 0 1 77.8502 94.2999)" class="st2 st3 st4">D9 PWM</text>
			<g id="connector52terminal">
			</g>
			<line id="connector53pin" class="st1" x1="93.3" y1="100.8" x2="107.7" y2="100.8"/>
			<text transform="matrix(1 0 0 1 70.2623 101.5)" class="st2 st3 st4">D10 PWM/SS</text>
			<g id="connector53terminal">
			</g>
			<line id="connector54pin" class="st1" x1="93.3" y1="108" x2="107.7" y2="108"/>
			<text transform="matrix(1 0 0 1 66.2462 108.7)" class="st2 st3 st4">D11 PWM/MOSI</text>
			<g id="connector54terminal">
			</g>
			<line id="connector55pin" class="st1" x1="93.3" y1="115.2" x2="107.7" y2="115.2"/>
			<text transform="matrix(1 0 0 1 75.5123 115.9)" class="st2 st3 st4">D12/MISO</text>
			<g id="connector55terminal">
			</g>
			<line id="connector41pin" class="st5" x1="93.3" y1="122.4" x2="107.7" y2="122.4"/>
			<rect id="connector41terminal" x="107.7" y="122.1" class="st5" width="0.7" height="0.7"/>
			<line id="connector56pin" class="st1" x1="93.3" y1="122.4" x2="107.7" y2="122.4"/>
			<text transform="matrix(1 0 0 1 77.2606 123.1)" class="st2 st3 st4">D13/SCK</text>
			<g id="connector56terminal">
			</g>
			<line id="connector43pin" class="st5" x1="0.4" y1="28.8" x2="14.8" y2="28.8"/>
			<rect id="connector43terminal" x="-0.3" y="28.4" class="st5" width="0.7" height="0.7"/>
			<line id="connector85pin" class="st1" x1="0.4" y1="28.8" x2="14.8" y2="28.8"/>
			<text transform="matrix(1 0 0 1 16.1503 29.4999)" class="st2 st3 st4">RESET</text>
			<g id="connector85terminal">
			</g>
			<line id="connector49pin" class="st1" x1="0.4" y1="36" x2="14.8" y2="36"/>
			<text transform="matrix(1 0 0 1 16.1503 36.6999)" class="st2 st3 st4">RESET2</text>
			<rect id="connector49terminal" x="-0.3" y="35.6" class="st5" width="0.7" height="0.7"/>
			<line id="connector58pin" class="st1" x1="0.4" y1="43.2" x2="14.8" y2="43.2"/>
			<text transform="matrix(1 0 0 1 16.1503 43.8999)" class="st2 st3 st4">AREF</text>
			<g id="connector58terminal">
			</g>
			<line id="connector84pin" class="st1" x1="0.4" y1="50.4" x2="14.8" y2="50.4"/>
			<text transform="matrix(1 0 0 1 16.1503 51.0999)" class="st2 st3 st4">ioref</text>
			<g id="connector84terminal">
			</g>
			<line id="connector0pin" class="st1" x1="0.4" y1="64.8" x2="14.8" y2="64.8"/>
			<text transform="matrix(1 0 0 1 16.1503 65.4999)" class="st2 st3 st4">A0</text>
			<g id="connector0terminal">
			</g>
			<line id="connector1pin" class="st1" x1="0.4" y1="72" x2="14.8" y2="72"/>
			<text transform="matrix(1 0 0 1 16.1503 72.6999)" class="st2 st3 st4">A1</text>
			<g id="connector1terminal">
			</g>
			<line id="connector2pin" class="st1" x1="0.4" y1="79.2" x2="14.8" y2="79.2"/>
			<text transform="matrix(1 0 0 1 16.1503 79.8999)" class="st2 st3 st4">A2</text>
			<g id="connector2terminal">
			</g>
			<line id="connector3pin" class="st1" x1="0.4" y1="86.4" x2="14.8" y2="86.4"/>
			<text transform="matrix(1 0 0 1 16.1503 87.0999)" class="st2 st3 st4">A3</text>
			<g id="connector3terminal">
			</g>
			<line id="connector48pin" class="st5" x1="0.4" y1="93.6" x2="14.8" y2="93.6"/>
			<rect id="connector48terminal" x="-0.3" y="93.2" class="st5" width="0.7" height="0.7"/>
			<line id="connector45pin" class="st5" x1="0.4" y1="93.6" x2="14.8" y2="93.6"/>
			<rect id="connector45terminal" x="-0.3" y="93.2" class="st5" width="0.7" height="0.7"/>
			<line id="connector4pin" class="st5" x1="0.4" y1="93.6" x2="14.8" y2="93.6"/>
			<g id="connector4terminal">
			</g>
			<line id="connector39pin" class="st5" x1="0.4" y1="93.6" x2="14.8" y2="93.6"/>
			<rect id="connector39terminal" x="-0.3" y="93.2" class="st5" width="0.7" height="0.7"/>
			<line id="connector47pin" class="st5" x1="0.4" y1="93.6" x2="14.8" y2="93.6"/>
			<rect id="connector47terminal" x="-0.3" y="93.2" class="st5" width="0.7" height="0.7"/>
			<line id="connector42pin" class="st5" x1="0.4" y1="93.6" x2="14.8" y2="93.6"/>
			<rect id="connector42terminal" x="-0.3" y="93.2" class="st5" width="0.7" height="0.7"/>
			<line id="connector59pin" class="st1" x1="0.4" y1="93.6" x2="14.8" y2="93.6"/>
			<text transform="matrix(1 0 0 1 16.1503 94.2999)" class="st2 st3 st4">A4/SDA</text>
			<g id="connector59terminal">
			</g>
			<line id="connector5pin" class="st5" x1="0.4" y1="100.8" x2="14.8" y2="100.8"/>
			<g id="connector5terminal">
			</g>
			<line id="connector60pin" class="st1" x1="0.4" y1="100.8" x2="14.8" y2="100.8"/>
			<text transform="matrix(1 0 0 1 16.1503 101.5)" class="st2 st3 st4">A5/SCL</text>
			<g id="connector60terminal">
			</g>
			<line id="connector91pin" class="st1" x1="0.4" y1="136.8" x2="14.8" y2="136.8"/>
			<text transform="matrix(1 0 0 1 16.1503 137.5)" class="st2 st3 st4">N/C</text>
			<g id="connector91terminal">
			</g>
			<line id="connector88pin" class="st5" x1="57.6" y1="150.9" x2="57.6" y2="165.3"/>
			<g id="connector88terminal">
			</g>
			<line id="connector57pin" class="st5" x1="57.6" y1="150.9" x2="57.6" y2="165.3"/>
			<g id="connector57terminal">
			</g>
			<line id="connector44pin" class="st5" x1="57.6" y1="150.9" x2="57.6" y2="165.3"/>
			<rect id="connector44terminal" x="57.3" y="165.3" class="st5" width="0.7" height="0.7"/>
			<line id="connector50pin" class="st5" x1="57.6" y1="150.9" x2="57.6" y2="165.3"/>
			<rect id="connector50terminal" x="57.3" y="165.3" class="st5" width="0.7" height="0.7"/>
			<line id="connector89pin" class="st1" x1="57.6" y1="150.9" x2="57.6" y2="165.3"/>
			<g transform="matrix(1, 0, 0, 1, 58.2999, 149.45)">
				<g>
					<g transform="rotate(270)">
						<g>
							<text transform="matrix(1 0 0 1 3.606250e-05 2.552969e-04)" class="st2 st3 st4">GND</text>
						</g>
					</g>
				</g>
			</g>
			<g id="connector89terminal">
			</g>
			<line id="connector86pin" class="st1" x1="36" y1="0.4" x2="36" y2="14.8"/>
			<g transform="matrix(1, 0, 0, 1, 36.6999, 16.15)">
				<g>
					<g transform="rotate(270)">
						<g>
							<text transform="matrix(1 0 0 1 -6.2277 2.166758e-04)" class="st2 st3 st4">3V3</text>
						</g>
					</g>
				</g>
			</g>
			<g id="connector86terminal">
			</g>
			<line id="connector40pin" class="st5" x1="50.4" y1="0.4" x2="50.4" y2="14.8"/>
			<rect id="connector40terminal" x="50.1" y="-0.3" class="st5" width="0.7" height="0.7"/>
			<line id="connector46pin" class="st5" x1="50.4" y1="0.4" x2="50.4" y2="14.8"/>
			<rect id="connector46terminal" x="50.1" y="-0.3" class="st5" width="0.7" height="0.7"/>
			<line id="connector87pin" class="st1" x1="50.4" y1="0.4" x2="50.4" y2="14.8"/>
			<g transform="matrix(1, 0, 0, 1, 51.0999, 16.15)">
				<g>
					<g transform="rotate(270)">
						<g>
							<text transform="matrix(1 0 0 1 -4.2814 2.440898e-04)" class="st2 st3 st4">5V</text>
						</g>
					</g>
				</g>
			</g>
			<g id="connector87terminal">
			</g>
			<line id="connector90pin" class="st1" x1="64.8" y1="0.4" x2="64.8" y2="14.8"/>
			<g transform="matrix(1, 0, 0, 1, 65.4999, 16.15)">
				<g>
					<g transform="rotate(270)">
						<g>
							<text transform="matrix(1 0 0 1 -5.8341 2.054688e-04)" class="st2 st3 st4">VIN</text>
						</g>
					</g>
				</g>
			</g>
			<g id="connector90terminal">
			</g>
			<text id="label" transform="matrix(1 0 0 1 47.1259 76.4498)" class="st3 st6">Arduino</text>
		</g>
	</g>
</g>
<g>
	<g transform="translate(195.056,181.377)">
		<g id="schematic_1_">
			<path id="connector0pin_1_" class="st7" d="M7.2,7.6V0.4"/>
			<g id="connector0terminal_1_">
			</g>
			<path id="path4098" class="st8" d="M0.5,7.7h13.4"/>
			<path id="path4100" class="st8" d="M2.7,10.5h8.9"/>
			<path id="path4102" class="st8" d="M9.4,13.2H5"/>
		</g>
	</g>
</g>
<g>
	<g transform="translate(0,71.1033)">
		<g id="schematic_2_">
			<rect x="14.4" y="14.4" class="st9" width="71.6" height="57.6"/>
			<text id="label_3_" transform="matrix(1 0 0 1 42.8132 39.7)" class="st3 st4">SparkFun</text>
			<text id="label_4_" transform="matrix(1 0 0 1 36.6856 43.2)" class="st3 st4">LIS3DH-Breakout</text>
			<line class="st10" x1="0.4" y1="28.8" x2="14.4" y2="28.8"/>
			<rect id="connector9pin" x="0" y="28.5" class="st5" width="14.4" height="0.7"/>
			<g id="connector9terminal">
			</g>
			<text id="label9" transform="matrix(1 0 0 1 15.8002 29.5)" class="st2 st3 st4">!CS</text>
			<line class="st10" x1="0.4" y1="36" x2="14.4" y2="36"/>
			<rect id="connector11pin" x="0" y="35.7" class="st5" width="14.4" height="0.7"/>
			<g id="connector11terminal">
			</g>
			<text id="label11" transform="matrix(1 0 0 1 15.8002 36.7)" class="st2 st3 st4">ADC1</text>
			<line class="st10" x1="0.4" y1="43.2" x2="14.4" y2="43.2"/>
			<rect id="connector12pin" x="0" y="42.9" class="st5" width="14.4" height="0.7"/>
			<g id="connector12terminal">
			</g>
			<text id="label12" transform="matrix(1 0 0 1 15.8002 43.9)" class="st2 st3 st4">ADC2</text>
			<line class="st10" x1="0.4" y1="50.4" x2="14.4" y2="50.4"/>
			<rect id="connector13pin" x="0" y="50.1" class="st5" width="14.4" height="0.7"/>
			<g id="connector13terminal">
			</g>
			<text id="label13" transform="matrix(1 0 0 1 15.8002 51.1)" class="st2 st3 st4">ADC3</text>
			<line class="st10" x1="86.1" y1="28.8" x2="100.5" y2="28.8"/>
			<rect id="connector6pin" x="86.4" y="28.5" class="st5" width="14.4" height="0.7"/>
			<g id="connector6terminal">
			</g>
			<text id="label6" transform="matrix(1 0 0 1 77.804 29.5)" class="st2 st3 st4">SDA</text>
			<line class="st10" x1="86.1" y1="36" x2="100.5" y2="36"/>
			<rect id="connector7pin" x="86.4" y="35.7" class="st5" width="14.4" height="0.7"/>
			<g id="connector7terminal">
			</g>
			<text id="label7" transform="matrix(1 0 0 1 78.192 36.7)" class="st2 st3 st4">SCL</text>
			<line class="st10" x1="86.1" y1="43.2" x2="100.5" y2="43.2"/>
			<rect id="connector8pin" x="86.4" y="42.9" class="st5" width="14.4" height="0.7"/>
			<g id="connector8terminal">
			</g>
			<text id="label8" transform="matrix(1 0 0 1 78.3851 43.9)" class="st2 st3 st4">SA0</text>
			<line class="st10" x1="86.1" y1="50.4" x2="100.5" y2="50.4"/>
			<rect id="connector15pin" x="86.4" y="50.1" class="st5" width="14.4" height="0.7"/>
			<g id="connector15terminal">
			</g>
			<text id="label15" transform="matrix(1 0 0 1 77.4161 51.1)" class="st2 st3 st4">INT2</text>
			<line class="st10" x1="86.1" y1="57.6" x2="100.5" y2="57.6"/>
			<rect id="connector14pin" x="86.4" y="57.3" class="st5" width="14.4" height="0.7"/>
			<g id="connector14terminal">
			</g>
			<text id="label14" transform="matrix(1 0 0 1 77.4161 58.3)" class="st2 st3 st4">INT1</text>
			<line class="st10" x1="50.4" y1="0.4" x2="50.4" y2="14.4"/>
			<rect id="connector5pin_1_" x="50.1" y="0" class="st5" width="0.7" height="14.4"/>
			<g id="connector5terminal_1_">
			</g>
			<g transform="matrix(1, 0, 0, 1, 51.8, 16)">
				<g>
					<g>
						<g>
							<g transform="rotate(270)">
								<g>
									<g>
										<g>
											<text id="label5" transform="matrix(1 0 0 1 -7.3896 2.329336e-04)" class="st2 st3 st4">VCC</text>
										</g>
									</g>
								</g>
							</g>
						</g>
					</g>
				</g>
			</g>
			<line class="st10" x1="50.4" y1="72" x2="50.4" y2="86.1"/>
			<rect id="connector4pin_1_" x="50.1" y="72" class="st5" width="0.7" height="14.4"/>
			<g id="connector4terminal_1_">
			</g>
			<g transform="matrix(1, 0, 0, 1, 51.8, 70.4)">
				<g>
					<g>
						<g>
							<g transform="rotate(270)">
								<g>
									<g>
										<g>
											<text id="label4" transform="matrix(1 0 0 1 -3.678750e-04 2.329336e-04)" class="st2 st3 st4">GND</text>
										</g>
									</g>
								</g>
							</g>
						</g>
					</g>
				</g>
			</g>
			<rect id="connector10pin" x="50.1" y="72" class="st5" width="0.7" height="14.4"/>
			<g id="connector10terminal">
			</g>
		</g>
	</g>
</g>
<g>
	<line class="st11" x1="202.2" y1="171.6" x2="202.3" y2="181.9"/>
</g>
<circle cx="202.2" cy="171.6" r="1.4"/>
<g>
	<line class="st11" x1="100.8" y1="99.9" x2="144.6" y2="99.6"/>
</g>
<g>
	<line class="st11" x1="144.6" y1="106.8" x2="100.8" y2="107.1"/>
</g>
<g>
	<line class="st11" x1="50.4" y1="6" x2="180.6" y2="6"/>
</g>
<g>
	<line class="st11" x1="50.4" y1="71.1" x2="50.4" y2="6"/>
</g>
<g>
	<line class="st11" x1="50.4" y1="171.6" x2="50.4" y2="157.5"/>
</g>
<g>
	<line class="st11" x1="119.2" y1="171.6" x2="50.4" y2="171.6"/>
</g>
<circle cx="119.2" cy="171.6" r="1.4"/>
<g>
	<line class="st11" x1="202.2" y1="171.6" x2="119.2" y2="171.6"/>
</g>
<circle cx="202.2" cy="171.6" r="1.4"/>
<g>
	<line class="st11" x1="119.2" y1="171.6" x2="119.2" y2="114.3"/>
</g>
<g>
	<line class="st11" x1="119.2" y1="114.3" x2="100.8" y2="114.3"/>
</g>
</svg>
