<?xml version="1.0" encoding="utf-8"?>
<!-- Generator: Adobe Illustrator 16.0.4, SVG Export Plug-In . SVG Version: 6.00 Build 0)  -->
<!DOCTYPE svg PUBLIC "-//W3C//DTD SVG 1.1//EN" "http://www.w3.org/Graphics/SVG/1.1/DTD/svg11.dtd">
<svg version="1.1" id="Layer_1" xmlns="http://www.w3.org/2000/svg" xmlns:xlink="http://www.w3.org/1999/xlink" x="0px" y="0px"
	 width="372.368px" height="290.386px" viewBox="0 0 372.368 290.386" enable-background="new 0 0 372.368 290.386"
	 xml:space="preserve">
<path d="M292.424,105.927v1.896h-9.78v-1.896H292.424z"/>
<path d="M241.706,105.927v1.896h-9.781v-1.896H241.706z"/>
<path d="M292.424,105.927v1.896h-9.78v-1.896H292.424z"/>
<path d="M293.108,106.404v0.867h-0.688v-0.867H293.108z"/>
<path d="M241.706,105.927v1.896h-9.781v-1.896H241.706z"/>
<path d="M231.995,106.408v0.867h-0.688v-0.867H231.995z"/>
<path fill="none" stroke="#000000" stroke-width="2.2284" stroke-linecap="round" d="M250.12,106.857h-17.906 M292.381,106.857
	h-18.055"/>
<line fill="none" stroke="#000000" stroke-width="2.2" stroke-linecap="round" x1="250.12" y1="106.857" x2="272.831" y2="97.279"/>
<path d="M274.327,109.561c-1.492,0-2.703-1.211-2.703-2.703c0-1.492,1.211-2.699,2.703-2.699c1.488,0,2.699,1.207,2.699,2.699
	C277.026,108.349,275.815,109.561,274.327,109.561L274.327,109.561z"/>
<path d="M250.12,109.561c-1.492,0-2.699-1.211-2.699-2.703c0-1.488,1.207-2.699,2.699-2.699s2.699,1.211,2.699,2.699
	C252.819,108.349,251.612,109.561,250.12,109.561L250.12,109.561z"/>
<path d="M169.316,172.15v-1.113h5.546v1.113H169.316z"/>
<path fill="#FF0000" d="M171.558,131.384h-2.344v-1.211h2.344v-2.191h1.066v2.191h2.324v1.211h-2.324v2.211h-1.066V131.384z"/>
<path fill="none" stroke="#000000" stroke-width="2.3" stroke-linecap="round" stroke-linejoin="round" d="M165.206,106.986v31
	 M165.206,163.49v31 M190.706,137.986h-52 M179.374,146.486h-29.336 M190.706,154.99h-52 M179.374,163.49h-29.336"/>
<rect x="334.563" y="159.201" width="1.375" height="11.768"/>
<g>
	<rect x="42.246" y="39.534" width="2.398" height="10.836"/>
	<line fill="none" stroke="#000000" stroke-width="2.3998" x1="30.69" y1="39.534" x2="56.198" y2="39.534"/>
</g>
<g>
	<path fill="none" stroke="#000000" stroke-width="1.92" d="M43.446,252.156v-17.009 M34.474,252.156h17.941 M37.461,255.311h11.961
		 M46.431,258.462h-5.976"/>
</g>
<line fill="none" x1="165.206" y1="106.837" x2="231.651" y2="106.841"/>
<line fill="none" stroke="#404040" stroke-width="2.4" stroke-linecap="round" x1="165.206" y1="106.838" x2="231.651" y2="106.842"/>
<line fill="none" x1="335.502" y1="107.177" x2="335.268" y2="106.83"/>
<line fill="none" stroke="#404040" stroke-width="2.4" stroke-linecap="round" x1="335.502" y1="107.178" x2="335.268" y2="106.83"/>
<line fill="none" x1="292.765" y1="106.837" x2="335.502" y2="107.177"/>
<line fill="none" x1="335.502" y1="191.978" x2="335.284" y2="170.619"/>
<line fill="none" x1="165.206" y1="194.74" x2="335.502" y2="191.978"/>
<line fill="none" x1="43.453" y1="109.635" x2="43.437" y2="152.146"/>
<line fill="none" stroke="#404040" stroke-width="2.4" stroke-linecap="round" x1="43.453" y1="109.634" x2="43.437" y2="152.146"/>
<line fill="none" stroke="#404040" stroke-width="2.4" stroke-linecap="round" x1="165.206" y1="194.74" x2="335.502" y2="194.74"/>
<line fill="none" stroke="#404040" stroke-width="2.4" stroke-linecap="round" x1="335.502" y1="194.74" x2="335.502" y2="159.201"/>
<g>
	<circle fill="none" stroke="#404040" stroke-width="2.4" stroke-linecap="round" cx="43.444" cy="169.9" r="17.25"/>
	
		<line fill="none" stroke="#404040" stroke-width="2.4" stroke-linecap="round" x1="31.277" y1="157.732" x2="55.611" y2="182.066"/>
	
		<line fill="none" stroke="#404040" stroke-width="2.4" stroke-linecap="round" x1="30.694" y1="180.982" x2="54.694" y2="156.982"/>
</g>
<line fill="none" stroke="#404040" stroke-width="2.4" stroke-linecap="round" x1="43.444" y1="186.983" x2="43.444" y2="234.65"/>
<g>
	<circle fill="none" stroke="#404040" stroke-width="2.4" stroke-linecap="round" cx="335.147" cy="141.583" r="17.25"/>
	
		<line fill="none" stroke="#404040" stroke-width="2.4" stroke-linecap="round" x1="322.979" y1="129.417" x2="347.313" y2="153.75"/>
	
		<line fill="none" stroke="#404040" stroke-width="2.4" stroke-linecap="round" x1="322.397" y1="152.666" x2="346.397" y2="128.667"/>
</g>
<line fill="none" stroke="#404040" stroke-width="2.4" stroke-linecap="round" x1="335.268" y1="106.83" x2="335.268" y2="124.333"/>
<line fill="none" stroke="#404040" stroke-width="2.4" stroke-linecap="round" x1="335.268" y1="106.83" x2="293.108" y2="106.83"/>
<text transform="matrix(1 0 0 1 31.9307 35.3159)" font-family="'MyriadPro-Regular'" font-size="12">1.5V</text>
<text transform="matrix(1 0 0 1 66.2637 173.3179)" font-family="'MyriadPro-Regular'" font-size="12">L1</text>
<text transform="matrix(1 0 0 1 57.2637 251.3179)" font-family="'MyriadPro-Regular'" font-size="12">GND</text>
<text transform="matrix(1 0 0 1 199.6313 146.3335)" font-family="'MyriadPro-Regular'" font-size="12">V1</text>
<text transform="matrix(1 0 0 1 199.6313 160.7339)" font-family="'MyriadPro-Regular'" font-size="12">1.5V</text>
<text transform="matrix(1 0 0 1 258.9634 123.6675)" font-family="'MyriadPro-Regular'" font-size="12">S1</text>
<g>
	<path d="M44.334,108.669h-1.895v-9.781h1.895V108.669z"/>
	<path d="M44.334,57.95h-1.895v-9.781h1.895V57.95z"/>
	<path d="M44.334,108.669h-1.895v-9.781h1.895V108.669z"/>
	<path d="M44.334,57.95h-1.895v-9.781h1.895V57.95z"/>
	<path fill="none" stroke="#000000" stroke-width="2.2284" stroke-linecap="round" d="M43.405,66.364V48.458 M43.405,108.626V90.571
		"/>
	<line fill="none" stroke="#000000" stroke-width="2.2" stroke-linecap="round" x1="43.405" y1="66.364" x2="52.983" y2="89.075"/>
	<path d="M40.701,90.571c0-1.492,1.211-2.703,2.703-2.703c1.492,0,2.699,1.211,2.699,2.703c0,1.488-1.207,2.699-2.699,2.699
		C41.913,93.271,40.701,92.06,40.701,90.571L40.701,90.571z"/>
	<path d="M40.701,66.364c0-1.492,1.211-2.699,2.703-2.699c1.488,0,2.699,1.207,2.699,2.699c0,1.492-1.211,2.699-2.699,2.699
		C41.913,69.063,40.701,67.856,40.701,66.364L40.701,66.364z"/>
</g>
<text transform="matrix(1 0 0 1 61.9648 87.6675)" font-family="'MyriadPro-Regular'" font-size="12">S1</text>
<text transform="matrix(1 0 0 1 299.9634 147.6675)" font-family="'MyriadPro-Regular'" font-size="12">L1</text>
</svg>
