<?xml version="1.0" encoding="utf-8"?>
<!-- Generator: Adobe Illustrator 16.0.4, SVG Export Plug-In . SVG Version: 6.00 Build 0)  -->
<!DOCTYPE svg PUBLIC "-//W3C//DTD SVG 1.1//EN" "http://www.w3.org/Graphics/SVG/1.1/DTD/svg11.dtd">
<svg version="1.1" id="Layer_1" xmlns="http://www.w3.org/2000/svg" xmlns:xlink="http://www.w3.org/1999/xlink" x="0px" y="0px"
	 width="258.667px" height="264px" viewBox="0 0 258.667 264" enable-background="new 0 0 258.667 264" xml:space="preserve">
<g id="schematic_4_">
	<line fill="none" stroke="#000000" stroke-linecap="round" x1="60.138" y1="77.036" x2="60.138" y2="68.609"/>
	<line fill="none" stroke="#000000" stroke-linecap="round" x1="60.138" y1="136.078" x2="43.28" y2="77.036"/>
	<path stroke="#000000" d="M60.138,134.389c0.933,0,1.692,0.755,1.692,1.688c0,0.929-0.759,1.684-1.692,1.684
		c-0.929,0-1.684-0.755-1.684-1.684C58.455,135.144,59.209,134.389,60.138,134.389z"/>
	<path stroke="#000000" d="M60.138,66.92c0.933,0,1.692,0.76,1.692,1.688c0,0.933-0.759,1.688-1.692,1.688
		c-0.929,0-1.684-0.755-1.684-1.688C58.455,67.68,59.209,66.92,60.138,66.92z"/>
	
		<line id="connector0pin_4_" fill="none" stroke="#000000" stroke-linecap="round" x1="60.138" y1="169.816" x2="60.138" y2="136.078"/>
	<g id="connector0terminal_4_">
	</g>
	
		<line id="connector1pin_4_" fill="none" stroke="#000000" stroke-linecap="round" x1="60.138" y1="34.87" x2="60.138" y2="68.609"/>
	<g id="connector1terminal_4_">
	</g>
</g>
<path stroke="#000000" d="M177.107,116.98c0.934,0,1.692,0.755,1.692,1.688c0,0.929-0.759,1.684-1.692,1.684
	c-0.929,0-1.684-0.755-1.684-1.684C175.424,117.735,176.179,116.98,177.107,116.98z"/>
<path stroke="#000000" d="M177.107,82.957c0.934,0,1.692,0.76,1.692,1.688c0,0.933-0.759,1.688-1.692,1.688
	c-0.929,0-1.684-0.755-1.684-1.688C175.424,83.716,176.179,82.957,177.107,82.957z"/>
<line id="connector0pin_2_" fill="none" stroke="#000000" stroke-linecap="round" x1="177.106" y1="169.853" x2="177.11" y2="118.667"/>
<g id="connector0terminal_2_">
</g>
<line id="connector1pin_1_" fill="none" stroke="#000000" stroke-linecap="round" x1="177.107" y1="34.906" x2="177.107" y2="85.667"/>
<line id="connector1pin_3_" fill="none" stroke="#000000" stroke-linecap="round" x1="166" y1="82.508" x2="166" y2="121.352"/>
<g id="connector1terminal_2_">
</g>
<line fill="none" stroke="#000000" stroke-linecap="round" x1="166" y1="101.93" x2="142" y2="101.93"/>
<text transform="matrix(1 0 0 1 33.4678 209.6509)" fill="#010101" font-family="'HelveticaNeue'" font-size="18">switch</text>
<text transform="matrix(1 0 0 1 129.334 209.6509)" fill="#010101" font-family="'HelveticaNeue'" font-size="18">pushbutton</text>
</svg>
