<?xml version='1.0' encoding='UTF-8' standalone='no'?>
<!-- Created with Fritzing (http://www.fritzing.org/) -->
<svg xmlns:svg='http://www.w3.org/2000/svg' xmlns='http://www.w3.org/2000/svg' version='1.2' baseProfile='tiny' x='0in' y='0in' width='0.23in' height='0.4275in' viewBox='0 0 16.56 30.78' >
<path stroke='#8c8c8c' stroke-width='2.16' stroke-linecap='round' stroke-linejoin='round' fill='none' d='M15.48,16.5586L15.48,29.7' />
<path stroke='#8c8c8c' stroke-width='2.16' stroke-linecap='round' stroke-linejoin='round' fill='none' d='M1.08,16.5586L1.08,29.7' />
<g partID='854557590'><g xmlns="http://www.w3.org/2000/svg" id="breadboard">
 <rect xmlns="http://www.w3.org/2000/svg" fill="none" width="2.16" x="0" y="9.18" height="0.72" id="connector0pin"/>
 <rect xmlns="http://www.w3.org/2000/svg" fill="none" width="2.16" x="14.4" y="9.18" height="0.72" id="connector1pin"/>
 <g xmlns="http://www.w3.org/2000/svg" y1="22.998" fill="none" y2="41.25" x1="1.5" stroke-width="2.16" x2="1.5" stroke="#8C8C8C" stroke-linecap="round" id="connector0leg"/>
 <g xmlns="http://www.w3.org/2000/svg" y1="22.998" fill="none" y2="41.25" x1="21.5" stroke-width="2.16" x2="21.5" stroke="#8C8C8C" stroke-linecap="round" id="connector1leg"/>
 <path xmlns="http://www.w3.org/2000/svg" fill="#8C8C8C" d="M2.8368,8.80128c-0.00144,0.00144,-0.00144,0.00144,-1.21608,1.21608c-0.73368,0.71568,-1.20744,1.60128,-1.40112,2.61288C0.01512,13.644,0.00288,14.7845,0,16.38l0,0l2.16,0l0,0L2.15928,16.38C2.1564,14.8054,2.1888,13.752,2.33424,13.0637c0.15408,-0.6912,0.33192,-1.02024,0.81288,-1.51992c1.21608,-1.21464,1.21608,-1.21536,1.21608,-1.21536L2.8368,8.80128z" id="path10"/>
 <path xmlns="http://www.w3.org/2000/svg" fill="#8C8C8C" d="M16.5586,16.3793c-0.00216,-1.5948,-0.0144,-2.73528,-0.21888,-3.74904c-0.1944,-1.01088,-0.66888,-1.8972,-1.40256,-2.6136c-1.21392,-1.21464,-1.21392,-1.21464,-1.21392,-1.21536l-1.52712,1.52856c0,0,0,0,1.21464,1.21464c0.48168,0.49968,0.65952,0.82872,0.8136,1.51992c0.14544,0.68904,0.17784,1.74168,0.17496,3.3156l0.00432,0L14.4,16.38l0,0l2.16,0l0,0" id="path12"/>
 <circle xmlns="http://www.w3.org/2000/svg" r="6.5052" fill="#555555" cx="8.28" cy="6.5052" id="circle14"/>
 <path xmlns="http://www.w3.org/2000/svg" fill="#555555" d="M1.98,8.08056C2.0772,8.43264,1.93464,8.59896,1.77768,8.8452C1.62,9.09288,1.40904,9.2376,1.10232,9.6552C0.85464,9.99288,0.72144,10.3378,0.60696,10.7352C0.4932,11.1326,0.58536,11.4106,0.58536,11.4106L2.43,12.6929C2.43,12.6929,2.61504,12.618,2.7756,12.4366C2.88072,12.3185,3.11904,12.1176,3.24,11.9959C3.48768,11.7482,3.64464,11.6942,3.91464,11.6942C4.1976,11.6942,4.36032,11.6978,4.63032,11.8908C4.93488,12.109,6.1056,10.8706,6.1056,10.8706L3.51072,9.1152L2.35584,7.70544C2.35512,7.70544,1.8828,7.72776,1.98,8.08056z" id="path18"/>
 <path xmlns="http://www.w3.org/2000/svg" fill="#555555" d="M14.58,8.08056C14.4828,8.43264,14.6246,8.59896,14.7816,8.8452C14.94,9.09288,15.151,9.2376,15.457,9.6552C15.7046,9.99288,15.8386,10.3378,15.9523,10.7352C16.0639,11.1326,15.9725,11.4106,15.9725,11.4106L14.1278,12.6929C14.1278,12.6929,13.9435,12.618,13.7822,12.4366C13.6771,12.3185,13.4388,12.1176,13.3178,11.9959C13.0694,11.7482,12.9132,11.6942,12.6425,11.6942C12.3602,11.6942,12.1968,11.6978,11.9268,11.8908C11.6222,12.109,10.4515,10.8706,10.4515,10.8706L13.0464,9.1152L14.2013,7.70544C14.2049,7.70544,14.6765,7.72776,14.58,8.08056z" id="path20"/>
 <path xmlns="http://www.w3.org/2000/svg" d="M13.1904,11.8807c-0.22104,-0.4464,-0.94968,-1.01016,-1.37808,-1.01016c-0.42768,0,-2.0916,0.31464,-2.8116,0.31464s-2.47536,-0.36,-3.0384,-0.36c-0.60192,0,-1.21536,0.09,-1.6416,0.22464c-0.38592,0.12168,-0.77976,0.27,-1.22976,0.94464c-0.11448,0.17208,-0.19152,0.2844,-0.2412,0.3672c0.1188,-0.11736,0.29088,-0.26784,0.39096,-0.3672c0.24768,-0.24768,0.40464,-0.30168,0.67464,-0.30168c0.28296,0,0.44568,0.0036,0.71568,0.19656l0.00072,0c1.0404,0.70632,2.29608,1.12032,3.64896,1.12032s2.60856,-0.41328,3.64824,-1.12032l0.00072,0c0.27,-0.19368,0.43488,-0.19656,0.71568,-0.19656C12.8657,11.6935,13.0111,11.7353,13.1904,11.8807z" opacity="0.3" id="path22"/>
 <path xmlns="http://www.w3.org/2000/svg" d="M14.3338,9.22032c0.29016,0.13536,1.22688,0.65952,1.5768,1.38816c-0.10512,-0.34488,-0.23472,-0.65232,-0.45576,-0.95256c-0.30672,-0.4176,-0.51768,-0.56232,-0.67536,-0.81c-0.14904,-0.23544,-0.28008,-0.40176,-0.20592,-0.72216c0.13248,-0.5184,0.21096,-1.0584,0.21096,-1.61784c0,-1.1664,-0.3132,-2.25792,-0.85032,-3.20472c0.04464,0.23184,0.07416,0.46224,0.07416,0.68472c0,0.68976,-0.11808,1.75176,-0.198,2.39112c-0.072,0.56448,-0.35568,1.05912,-0.35568,1.73376C13.4554,8.67312,14.1595,9.1404,14.3338,9.22032z" opacity="0.3" id="path24"/>
 <path xmlns="http://www.w3.org/2000/svg" fill="#FFFFFF" d="M6.75,1.0224C6.30864,1.01448,5.94648,1.20456,5.94288,1.44504C5.94144,1.54872,6.01632,1.64304,6.12936,1.7208c0.34488,0.04392,0.69264,0.07704,1.04328,0.1008c0.21672,-0.07488,0.36936,-0.198,0.37224,-0.3492C7.54776,1.23048,7.1928,1.0296,6.75,1.0224z" opacity="0.4" id="path26"/>
</g>
</g></svg>