<?xml version="1.0" encoding="utf-8"?>
<!-- Generator: Adobe Illustrator 16.0.4, SVG Export Plug-In . SVG Version: 6.00 Build 0)  -->
<!DOCTYPE svg PUBLIC "-//W3C//DTD SVG 1.1//EN" "http://www.w3.org/Graphics/SVG/1.1/DTD/svg11.dtd">
<svg version="1.1" id="Layer_1" xmlns:svg="http://www.w3.org/2000/svg"
	 xmlns="http://www.w3.org/2000/svg" xmlns:xlink="http://www.w3.org/1999/xlink" x="0px" y="0px" width="513px" height="326.779px"
	 viewBox="-191.901 -0.542 513 326.779" enable-background="new -191.901 -0.542 513 326.779" xml:space="preserve">
<g>
	<g transform="translate(28.8,7.06667)">
		<g transform="matrix(-1,0,0,1,0,0)">
			<g id="schematic">
				<polyline fill="none" stroke="#000000" stroke-width="2" stroke-linecap="round" stroke-linejoin="round" points="
					157.955,56.324 169.072,56.324 177.285,64.491 187.629,64.491 201.291,55.267 				"/>
				<polyline fill="none" stroke="#000000" stroke-width="2" stroke-linecap="round" stroke-linejoin="round" points="
					157.955,77.729 171.829,77.729 196.406,77.729 				"/>
				<polyline id="box_1_" fill="none" stroke="#000000" stroke-width="2" stroke-linecap="round" stroke-linejoin="round" points="
					201.291,101.96 157.955,101.96 157.955,36.957 201.291,36.957 				"/>
				<polygon points="166.488,59.88 161.991,66.046 165.058,66.651 161.213,74.138 168.733,65.094 165.534,64.276 				"/>
				<g id="connector2terminal">
				</g>
				<g id="connector1terminal">
				</g>
				<g id="connector0terminal">
				</g>
				
					<line id="connector2pin" fill="none" stroke="#787878" stroke-width="2" stroke-linecap="round" stroke-linejoin="round" x1="157.955" y1="77.729" x2="136.287" y2="77.729"/>
				
					<line id="connector0pin" fill="none" stroke="#787878" stroke-width="2" stroke-linecap="round" stroke-linejoin="round" x1="157.955" y1="56.494" x2="136.287" y2="56.494"/>
				
					<line id="connector1pin" fill="none" stroke="#787878" stroke-width="2" stroke-linecap="round" stroke-linejoin="round" x1="157.955" y1="77.729" x2="136.287" y2="77.729"/>
				<g transform="matrix(1, 0, 0, 1, 19.3843, 25.585)">
					<text transform="matrix(1 0 0 1 174.1828 66.6977)" fill="#787878" font-family="'ArialMT'" font-size="13.5424">-</text>
				</g>
				<g transform="matrix(1, 0, 0, 1, 18.5503, 12.1563)">
					<text transform="matrix(1 0 0 1 172.509 39.7123)" fill="#787878" font-family="'ArialMT'" font-size="13.5424">+</text>
				</g>
			</g>
		</g>
	</g>
</g>
<g>
	<g transform="translate(74.9353,12.6912)">
		<g id="schematic_1_">
			<rect x="-19.809" y="28.324" fill="#FFFFFF" width="86.674" height="65.002"/>
			<text id="label" transform="matrix(1 0 0 1 7.8831 54.0038)" font-family="'ArialMT'" font-size="12.7901">78XX</text>
			<line fill="none" stroke="#000000" stroke-width="2" stroke-linecap="round" x1="-19.809" y1="93.326" x2="66.865" y2="93.326"/>
			<line fill="none" stroke="#000000" stroke-width="2" stroke-linecap="round" x1="66.865" y1="93.326" x2="66.865" y2="28.324"/>
			<line fill="none" stroke="#000000" stroke-width="2" stroke-linecap="round" x1="66.865" y1="28.324" x2="-19.809" y2="28.324"/>
			
				<line fill="none" stroke="#000000" stroke-width="2" stroke-linecap="round" x1="-19.809" y1="28.324" x2="-19.809" y2="93.326"/>
			
				<line id="connector1pin_1_" fill="none" stroke="#787878" stroke-width="2" stroke-linecap="round" x1="-41.475" y1="49.992" x2="-19.809" y2="49.992"/>
			<g id="connector1terminal_1_">
			</g>
			<text transform="matrix(1 0 0 1 -32.7341 46.83)" fill="#8C8C8C" font-family="'ArialMT'" font-size="7.5236">2</text>
			<text transform="matrix(1 0 0 1 -13.488 52.0956)" fill="#787878" font-family="'ArialMT'" font-size="10.533">IN</text>
			
				<line id="connector0pin_1_" fill="none" stroke="#787878" stroke-width="2" stroke-linecap="round" x1="23.527" y1="114.997" x2="23.527" y2="93.326"/>
			<g id="connector0terminal_1_">
			</g>
			<g transform="matrix(1, 0, 0, 1, 20.9001, 25.7759)">
				<g>
					<g transform="rotate(270)">
						<g>
							<text transform="matrix(1 0 0 1 -80.476 -0.5317)" fill="#8C8C8C" font-family="'ArialMT'" font-size="7.5236">1</text>
						</g>
					</g>
				</g>
			</g>
			<g transform="matrix(1, 0, 0, 1, 22.6501, 20.076)">
				<g>
					<g transform="rotate(270)">
						<g>
							<text transform="matrix(1 0 0 1 -66.9337 2.9839)" fill="#787878" font-family="'ArialMT'" font-size="10.533">GND</text>
						</g>
					</g>
				</g>
			</g>
			
				<line id="connector2pin_1_" fill="none" stroke="#787878" stroke-width="2" stroke-linecap="round" x1="88.533" y1="49.992" x2="66.865" y2="49.992"/>
			<g id="connector2terminal_1_">
			</g>
			<text transform="matrix(1 0 0 1 75.6057 46.83)" fill="#8C8C8C" font-family="'ArialMT'" font-size="7.5236">3</text>
			<text transform="matrix(1 0 0 1 38.3098 52.0956)" fill="#787878" font-family="'ArialMT'" font-size="10.533">OUT</text>
		</g>
	</g>
</g>
<g>
	<g transform="translate(178.393,19.9709)">
		<g transform="matrix(0,1,-1,0,0,0)">
			<g id="schematic_2_">
				
					<line fill="none" stroke="#000000" stroke-width="2" stroke-linecap="round" x1="100.805" y1="-68.775" x2="106.223" y2="-68.775"/>
				
					<line fill="none" stroke="#000000" stroke-width="2" stroke-linecap="round" x1="62.888" y1="-68.775" x2="100.805" y2="-79.609"/>
				<circle fill="none" stroke="#000000" stroke-width="2" cx="62.888" cy="-68.779" r="1.084"/>
				<circle fill="none" stroke="#000000" stroke-width="2" cx="106.223" cy="-68.779" r="1.084"/>
				<g transform="matrix(1, 0, 0, 1, 2.7612, 2.718)">
					<text transform="matrix(1 0 0 1 46.7677 -96.9075)" fill="#787878" font-family="'ArialMT'" font-size="6.0188">1</text>
				</g>
				<g transform="matrix(1, 0, 0, 1, 24.604, 2.718)">
					<text transform="matrix(1 0 0 1 90.6573 -96.9075)" fill="#787878" font-family="'ArialMT'" font-size="6.0188">2</text>
				</g>
				<g transform="matrix(1, 0, 0, 1, 2.7612, 16.843)">
					<text transform="matrix(1 0 0 1 46.7677 -68.5247)" fill="#787878" font-family="'ArialMT'" font-size="6.0188">1</text>
				</g>
				<g transform="matrix(1, 0, 0, 1, 24.604, 16.843)">
					<text transform="matrix(1 0 0 1 90.6573 -68.5247)" fill="#787878" font-family="'ArialMT'" font-size="6.0188">2</text>
				</g>
				
					<line fill="none" stroke="#000000" stroke-width="2" stroke-linecap="round" x1="106.223" y1="-90.441" x2="106.223" y2="-47.111"/>
				
					<line fill="none" stroke="#000000" stroke-width="2" stroke-linecap="round" x1="62.888" y1="-90.441" x2="62.888" y2="-47.111"/>
				
					<line id="connector3pin" fill="none" stroke="#555555" stroke-width="2" stroke-linecap="round" x1="42.19" y1="-47.111" x2="62.888" y2="-47.111"/>
				
					<line id="connector2pin_2_" fill="none" stroke="#555555" stroke-width="2" stroke-linecap="round" x1="42.19" y1="-90.441" x2="62.888" y2="-90.441"/>
				<g id="connector2terminal_2_">
				</g>
				<g id="connector3terminal">
				</g>
				
					<line id="connector1pin_2_" fill="none" stroke="#555555" stroke-width="2" stroke-linecap="round" x1="126.839" y1="-47.111" x2="106.223" y2="-47.111"/>
				<g id="connector1terminal_2_">
				</g>
				<g id="connector0terminal_2_">
				</g>
				
					<line id="connector0pin_2_" fill="none" stroke="#555555" stroke-width="2" stroke-linecap="round" x1="126.839" y1="-90.441" x2="106.223" y2="-90.441"/>
			</g>
		</g>
	</g>
</g>
<g>
	<g transform="translate(171.373,89.0217)">
		<g transform="matrix(0,-1,1,0,0,0)">
			<g id="schematic_3_">
				
					<line fill="none" stroke="#000000" stroke-width="2" stroke-linecap="round" x1="-157.247" y1="97.573" x2="-153.997" y2="88.903"/>
				
					<line fill="none" stroke="#000000" stroke-width="2" stroke-linecap="round" x1="-153.997" y1="88.903" x2="-148.581" y2="106.237"/>
				
					<line fill="none" stroke="#000000" stroke-width="2" stroke-linecap="round" x1="-148.581" y1="106.237" x2="-143.165" y2="88.903"/>
				
					<line fill="none" stroke="#000000" stroke-width="2" stroke-linecap="round" x1="-143.165" y1="88.903" x2="-137.748" y2="106.237"/>
				
					<line fill="none" stroke="#000000" stroke-width="2" stroke-linecap="round" x1="-137.748" y1="106.237" x2="-132.332" y2="88.903"/>
				
					<line fill="none" stroke="#000000" stroke-width="2" stroke-linecap="round" x1="-132.332" y1="88.903" x2="-126.913" y2="106.237"/>
				
					<line fill="none" stroke="#000000" stroke-width="2" stroke-linecap="round" x1="-126.913" y1="106.237" x2="-121.497" y2="88.903"/>
				
					<line fill="none" stroke="#000000" stroke-width="2" stroke-linecap="round" x1="-121.497" y1="88.903" x2="-116.08" y2="106.237"/>
				
					<line fill="none" stroke="#000000" stroke-width="2" stroke-linecap="round" x1="-116.08" y1="106.237" x2="-113.915" y2="97.573"/>
				
					<line id="connector1pin_3_" fill="none" stroke="#787878" stroke-width="2" stroke-linecap="round" x1="-92.247" y1="97.573" x2="-113.915" y2="97.573"/>
				<g id="connector1terminal_3_">
				</g>
				<text transform="matrix(1 0 0 1 -105.1715 94.4107)" fill="#8C8C8C" font-family="'ArialMT'" font-size="7.5236">2</text>
				
					<line id="connector0pin_3_" fill="none" stroke="#787878" stroke-width="2" stroke-linecap="round" x1="-178.918" y1="97.573" x2="-157.247" y2="97.573"/>
				<g id="connector0terminal_3_">
				</g>
				<text transform="matrix(1 0 0 1 -170.1793 94.4107)" fill="#8C8C8C" font-family="'ArialMT'" font-size="7.5236">1</text>
			</g>
		</g>
	</g>
</g>
<g>
	<g transform="translate(164.645,78.8903)">
		<g transform="matrix(0,1,-1,0,0,0)">
			<g id="schematic_4_">
				<g>
					<path d="M200.241-29.696h-10.832c-0.582,0-1.058-0.471-1.058-1.052c0-0.588,0.473-1.059,1.058-1.059h10.832
						c0.582,0,1.052,0.471,1.052,1.059C201.293-30.167,200.826-29.696,200.241-29.696z"/>
				</g>
				<g>
					<path d="M189.409-29.696h-10.836c-0.579,0-1.054-0.471-1.054-1.052c0-0.588,0.475-1.059,1.054-1.059h10.836
						c0.578,0,1.053,0.471,1.053,1.059C190.462-30.167,189.987-29.696,189.409-29.696z"/>
				</g>
				<g>
					<polygon fill="#FFFFFF" points="189.409,-30.748 178.573,-52.418 189.409,-52.418 200.241,-52.418 					"/>
					<path d="M189.409-28.397l-12.537-25.074h25.073L189.409-28.397z M180.278-51.367l9.131,18.262l9.128-18.262H180.278z"/>
				</g>
				<g>
					<path d="M189.409-30.072c-0.374,0-0.682-0.306-0.682-0.676v-21.671c0-0.371,0.308-0.677,0.682-0.677
						c0.37,0,0.677,0.306,0.677,0.677v21.671C190.082-30.377,189.779-30.072,189.409-30.072z"/>
				</g>
				<g>
					<path d="M165.028-38.201c-0.176,0-0.349-0.059-0.479-0.194c-0.265-0.265-0.265-0.693,0-0.958l7.042-7.041
						c0.27-0.265,0.695-0.265,0.961,0c0.267,0.265,0.267,0.693,0,0.958l-7.045,7.041C165.375-38.259,165.205-38.201,165.028-38.201z
						"/>
				</g>
				<g>
					<path d="M166.112-28.45c-0.178,0-0.349-0.059-0.479-0.194c-0.266-0.265-0.266-0.693,0-0.958l7.044-7.041
						c0.267-0.265,0.693-0.265,0.958,0s0.265,0.693,0,0.958l-7.044,7.041C166.463-28.514,166.286-28.45,166.112-28.45z"/>
				</g>
				<g id="connector0pin_4_">
					<path fill="#787878" d="M189.409-8.028c-0.582,0-1.058-0.471-1.058-1.053v-21.667c0-0.582,0.473-1.059,1.058-1.059
						c0.581,0,1.053,0.471,1.053,1.059v21.667C190.458-8.499,189.987-8.028,189.409-8.028z"/>
				</g>
				<g id="connector0terminal_4_">
					
						<rect x="189.408" y="-9.08" transform="matrix(2.578893e-06 1 -1 2.578893e-06 180.3317 -198.4865)" fill="none" width="0.003" height="0.006"/>
				</g>
				<g transform="matrix(1, 0, 0, 1, 3.429, 6.4262)">
					<g>
						<g transform="rotate(270)">
							<g>
								<g enable-background="new    ">
									<path fill="#787878" d="M26.77,183.176h-2.683v-0.459l1.028-1.114c0.15-0.162,0.285-0.308,0.396-0.438
										c0.118-0.132,0.218-0.26,0.3-0.386c0.077-0.126,0.142-0.253,0.188-0.376c0.041-0.13,0.059-0.267,0.059-0.415
										c0-0.113-0.012-0.217-0.047-0.309c-0.035-0.09-0.082-0.161-0.141-0.228c-0.065-0.06-0.136-0.104-0.224-0.14
										c-0.082-0.031-0.177-0.047-0.282-0.047c-0.188,0-0.355,0.036-0.503,0.113c-0.152,0.07-0.294,0.17-0.435,0.287l-0.3-0.351
										c0.076-0.066,0.164-0.139,0.253-0.192c0.088-0.062,0.193-0.118,0.294-0.162c0.1-0.047,0.211-0.079,0.329-0.106
										c0.111-0.025,0.238-0.041,0.367-0.041c0.188,0,0.358,0.027,0.506,0.079c0.152,0.053,0.281,0.129,0.388,0.229
										c0.105,0.097,0.193,0.217,0.247,0.357c0.059,0.145,0.088,0.304,0.088,0.479c0,0.168-0.029,0.323-0.082,0.476
										c-0.048,0.15-0.124,0.303-0.212,0.444c-0.088,0.146-0.194,0.291-0.323,0.438c-0.124,0.147-0.265,0.304-0.411,0.458
										l-0.826,0.886v0.022h2.024v0.489h0.002V183.176z"/>
								</g>
							</g>
						</g>
					</g>
				</g>
				<g id="connector1pin_4_">
					<path fill="#787878" d="M189.409-51.367c-0.582,0-1.058-0.471-1.058-1.052v-21.665c0-0.582,0.473-1.053,1.058-1.053
						c0.581,0,1.053,0.471,1.053,1.053v21.665C190.458-51.837,189.987-51.367,189.409-51.367z"/>
				</g>
				<g id="connector1terminal_4_">
					<polygon fill="none" points="189.409,-74.084 189.412,-74.084 189.412,-74.084 					"/>
				</g>
				<g transform="matrix(1, 0, 0, 1, 3.429, 1.3462)">
					<g>
						<g transform="rotate(270)">
							<g>
								<g enable-background="new    ">
									<path fill="#787878" d="M64.157,183.176h-0.518v-2.684c0-0.085,0-0.177,0-0.271c0-0.099,0.006-0.189,0.006-0.288
										c0.006-0.096,0.006-0.188,0.012-0.275c0-0.085,0.006-0.161,0.006-0.229c-0.035,0.037-0.063,0.063-0.088,0.092
										c-0.023,0.025-0.054,0.05-0.082,0.071c-0.023,0.021-0.054,0.049-0.082,0.073c-0.029,0.023-0.064,0.062-0.105,0.092
										l-0.436,0.354l-0.283-0.36l1.123-0.879h0.44v4.303H64.157L64.157,183.176z"/>
								</g>
							</g>
						</g>
					</g>
				</g>
				<g>
					<path d="M160.152-33.999l3.251-7.588l4.335,4.326L160.152-33.999z"/>
				</g>
				<g>
					<path d="M161.237-24.248l3.25-7.588l4.324,4.326L161.237-24.248z"/>
				</g>
			</g>
		</g>
	</g>
</g>
<g>
	<line fill="none" stroke="#404040" stroke-width="2" stroke-linecap="round" x1="33.46" y1="62.683" x2="-108.353" y2="63.558"/>
</g>
<g>
	<line fill="none" stroke="#404040" stroke-width="2" stroke-linecap="round" x1="163.468" y1="62.683" x2="225.463" y2="62.449"/>
</g>
<g>
	<line fill="none" stroke="#404040" stroke-width="2" stroke-linecap="round" x1="268.84" y1="146.225" x2="268.946" y2="181.269"/>
</g>
<g>
	<line fill="none" stroke="#404040" stroke-width="2" stroke-linecap="round" x1="268.946" y1="267.94" x2="238.729" y2="268.299"/>
</g>
<g>
	
		<line fill="none" stroke="#404040" stroke-width="2" stroke-linecap="round" x1="-108.353" y1="84.802" x2="-108.353" y2="127.687"/>
</g>
<g>
	
		<line fill="none" stroke="#404040" stroke-width="2" stroke-linecap="round" x1="-108.353" y1="127.687" x2="98.464" y2="127.687"/>
</g>
<circle cx="98.464" cy="127.687" r="4.334"/>
<g>
	<line fill="none" stroke="#404040" stroke-width="2" stroke-linecap="round" x1="173.726" y1="268.299" x2="97.416" y2="268.868"/>
</g>
<g>
	<line fill="none" stroke="#404040" stroke-width="2" stroke-linecap="round" x1="97.416" y1="268.868" x2="98.464" y2="127.687"/>
</g>
<circle cx="98.464" cy="127.687" r="4.334"/>
<circle cx="97.686" cy="268.708" r="4.334"/>
<g id="partLabel">
	<g transform="translate(0.4,0)">
		<g id="schematicLabel">
			<text transform="matrix(1 0 0 1 -192.3014 12.3709)" font-family="'ArialMT'" font-size="15.0471">Power plug1</text>
		</g>
	</g>
</g>
<g id="partLabel_1_">
	<g transform="translate(92.289,5.73757)">
		<g id="schematicLabel_1_">
			<text transform="matrix(1 0 0 1 -7.6581 23.9009)" font-family="'ArialMT'" font-size="15.0471">IC1</text>
		</g>
	</g>
</g>
<g id="partLabel_2_">
	<g transform="translate(181.012,31.6566)">
		<g id="schematicLabel_2_">
			<text transform="matrix(1 0 0 1 107.6233 75.9819)" font-family="'ArialMT'" font-size="15.0471">S1</text>
		</g>
	</g>
</g>
<g id="partLabel_3_">
	<g transform="translate(179.719,67.2344)">
		<g id="schematicLabel_3_">
			<text transform="matrix(1 0 0 1 105.0256 147.4744)" font-family="'ArialMT'" font-size="15.0471">R1</text>
			<text transform="matrix(1 0 0 1 105.0256 162.5232)" font-family="'ArialMT'" font-size="15.0471">220Ω</text>
		</g>
	</g>
</g>
<g id="partLabel_4_">
	<g transform="translate(141.845,94.5703)">
		<g id="schematicLabel_4_">
			<text transform="matrix(1 0 0 1 28.9206 202.4022)" font-family="'ArialMT'" font-size="15.0471">LED1</text>
		</g>
	</g>
</g>
<g>
	<g transform="translate(150.149,113.38)">
		<g id="schematic_5_">
			<path id="connector0pin_5_" fill="none" stroke="#787878" stroke-width="2" stroke-linecap="round" d="M-52.73,193.435v-23.68"/>
			<g id="connector0terminal_5_">
			</g>
			<path id="path4098" fill="none" stroke="#000000" stroke-width="2" stroke-linecap="round" d="M-74.771,193.884h44.076"/>
			<path id="path4100" fill="none" stroke="#000000" stroke-width="2" stroke-linecap="round" d="M-67.429,202.912h29.389"/>
			<path id="path4102" fill="none" stroke="#000000" stroke-width="2" stroke-linecap="round" d="M-45.394,211.857H-60.08"/>
		</g>
	</g>
</g>
<g>
	<line fill="none" stroke="#404040" stroke-width="2" stroke-linecap="round" x1="97.417" y1="283.47" x2="97.685" y2="268.709"/>
</g>
</svg>
