<?xml version="1.0" encoding="utf-8"?>
<!-- Generator: Adobe Illustrator 15.0.0, SVG Export Plug-In . SVG Version: 6.00 Build 0)  -->
<!DOCTYPE svg PUBLIC "-//W3C//DTD SVG 1.1//EN" "http://www.w3.org/Graphics/SVG/1.1/DTD/svg11.dtd">
<svg version="1.1" id="Layer_1" xmlns:svg="http://www.w3.org/2000/svg"
	 xmlns="http://www.w3.org/2000/svg" xmlns:xlink="http://www.w3.org/1999/xlink" x="0px" y="0px" width="612px" height="792px"
	 viewBox="-207.055 -217.064 612 792" enable-background="new -207.055 -217.064 612 792" xml:space="preserve">
<g transform="translate(7.6572,0)">
	<g id="schematicLabel">
		<text transform="matrix(1 0 0 1 2.746582e-04 6.6746)" font-family="'DroidSans'" font-size="9">Voltage Regulator</text>
	</g>
</g>
<g transform="translate(7.6572,0)">
	<g id="schematicLabel_1_">
		<text transform="matrix(1 0 0 1 69.1438 34.6316)" font-family="'DroidSans'" font-size="9">+5V output</text>
	</g>
</g>
<g transform="translate(7.6572,0)">
	<g id="schematicLabel_2_">
		<text transform="matrix(1 0 0 1 -88.4997 34.6316)" font-family="'DroidSans'" font-size="9">to DC power supply</text>
	</g>
</g>
<g transform="translate(7.6572,0)">
	<g id="schematicLabel_3_">
		<text transform="matrix(1 0 0 1 2.746582e-04 81.6316)" font-family="'DroidSans'" font-size="9">to ground</text>
	</g>
</g>
<g transform="translate(0,10.4)">
	<g id="schematic">
		
			<line id="connector0pin" fill="none" stroke="#000000" stroke-width="1.6044" stroke-linecap="round" stroke-linejoin="round" x1="18.651" y1="21.991" x2="0.802" y2="21.991"/>
		<rect id="connector0terminal" x="0" y="21.057" fill="none" width="0.802" height="1.615"/>
		
			<line id="connector1pin" fill="none" stroke="#000000" stroke-width="1.6044" stroke-linecap="round" stroke-linejoin="round" x1="36.828" y1="57.66" x2="36.828" y2="39.084"/>
		<rect id="connector1terminal" x="36.027" y="57.342" fill="none" width="1.604" height="0.808"/>
		
			<line id="connector2pin" fill="none" stroke="#000000" stroke-width="1.6044" stroke-linecap="round" stroke-linejoin="round" x1="73.257" y1="21.991" x2="54.807" y2="21.991"/>
		<rect id="connector2terminal" x="72.999" y="21.057" fill="none" width="0.802" height="1.615"/>
		
			<rect id="rect17" x="19.308" y="7.13" fill="none" stroke="#000000" stroke-width="1.6044" stroke-linecap="round" stroke-linejoin="round" width="35.262" height="31.463"/>
		<path id="text3320" d="M21.312,19.522h0.633v4.71h-0.633V19.522 M23.204,19.522h0.853l2.074,3.94v-3.94h0.614v4.71h-0.853
			l-2.074-3.94v3.94h-0.614V19.522"/>
		<path id="text3324" d="M41.716,19.861c-0.46,0-0.825,0.173-1.097,0.518c-0.27,0.345-0.404,0.815-0.404,1.41
			c0,0.594,0.135,1.062,0.404,1.407c0.271,0.345,0.637,0.518,1.097,0.518c0.459,0,0.823-0.173,1.091-0.518
			c0.269-0.345,0.403-0.813,0.403-1.407c0-0.595-0.135-1.065-0.403-1.41C42.539,20.034,42.175,19.861,41.716,19.861 M41.716,19.345
			c0.655,0,1.18,0.222,1.573,0.665c0.393,0.442,0.589,1.035,0.589,1.779c0,0.743-0.196,1.336-0.589,1.779
			c-0.394,0.442-0.918,0.663-1.573,0.663c-0.658,0-1.185-0.221-1.579-0.663c-0.393-0.441-0.59-1.034-0.59-1.779
			c0-0.744,0.197-1.337,0.59-1.779C40.531,19.567,41.058,19.345,41.716,19.345 M44.796,19.43h0.636v2.861
			c0,0.505,0.092,0.868,0.273,1.092c0.182,0.221,0.476,0.331,0.883,0.331c0.405,0,0.699-0.11,0.881-0.331
			c0.182-0.224,0.272-0.587,0.272-1.092V19.43h0.637v2.94c0,0.614-0.151,1.077-0.455,1.391c-0.301,0.313-0.745,0.471-1.335,0.471
			c-0.591,0-1.038-0.157-1.341-0.471c-0.301-0.313-0.451-0.776-0.451-1.391V19.43 M48.92,19.43h3.957v0.536h-1.66v4.174H50.58
			v-4.174h-1.66V19.43"/>
		<path id="text3328" d="M33.21,36.317v-1.265h-1.034v-0.524h1.661v2.022c-0.245,0.175-0.515,0.308-0.809,0.397
			c-0.295,0.089-0.609,0.133-0.943,0.133c-0.731,0-1.304-0.215-1.717-0.644c-0.412-0.432-0.618-1.03-0.618-1.799
			c0-0.77,0.206-1.369,0.618-1.798c0.413-0.431,0.985-0.646,1.717-0.646c0.305,0,0.595,0.038,0.868,0.113
			c0.275,0.076,0.529,0.188,0.762,0.335v0.678c-0.234-0.199-0.483-0.35-0.746-0.451c-0.264-0.101-0.54-0.151-0.83-0.151
			c-0.573,0-1.003,0.161-1.292,0.482c-0.286,0.322-0.429,0.802-0.429,1.438c0,0.636,0.143,1.114,0.429,1.436
			c0.289,0.322,0.719,0.483,1.292,0.483c0.223,0,0.423-0.02,0.598-0.058C32.912,36.459,33.071,36.399,33.21,36.317 M34.996,32.278
			h0.853l2.074,3.94v-3.94h0.614v4.71h-0.853l-2.074-3.94v3.94h-0.614V32.278 M40.43,32.802v3.663h0.765
			c0.646,0,1.117-0.147,1.416-0.441c0.301-0.295,0.451-0.76,0.451-1.395c0-0.631-0.15-1.093-0.451-1.385
			c-0.299-0.295-0.771-0.442-1.416-0.442H40.43 M39.797,32.278h1.3c0.907,0,1.572,0.19,1.996,0.571
			c0.425,0.378,0.637,0.972,0.637,1.779c0,0.812-0.213,1.408-0.64,1.788c-0.426,0.381-1.09,0.571-1.993,0.571h-1.3V32.278"/>
		<path id="text3332" d="M19.939,0.526h3.008v0.271l-1.698,4.438h-0.661l1.598-4.174h-2.246V0.526 M25.538,2.999
			c-0.301,0-0.538,0.081-0.712,0.243c-0.171,0.161-0.257,0.385-0.257,0.669c0,0.283,0.086,0.507,0.257,0.668
			C25,4.741,25.238,4.822,25.538,4.822s0.538-0.081,0.711-0.243c0.174-0.164,0.261-0.387,0.261-0.668
			c0-0.284-0.087-0.508-0.261-0.669C26.078,3.08,25.841,2.999,25.538,2.999 M24.906,2.728c-0.271-0.067-0.484-0.194-0.637-0.382
			c-0.15-0.187-0.226-0.415-0.226-0.685c0-0.376,0.133-0.674,0.398-0.893c0.268-0.219,0.633-0.328,1.097-0.328
			c0.466,0,0.831,0.109,1.097,0.328s0.397,0.517,0.397,0.893c0,0.27-0.076,0.498-0.229,0.685c-0.15,0.188-0.36,0.314-0.63,0.382
			c0.306,0.071,0.542,0.212,0.712,0.42c0.171,0.208,0.257,0.463,0.257,0.764c0,0.456-0.139,0.806-0.417,1.05
			c-0.275,0.244-0.672,0.366-1.188,0.366c-0.517,0-0.913-0.122-1.19-0.366c-0.276-0.244-0.414-0.594-0.414-1.05
			c0-0.301,0.086-0.556,0.257-0.764C24.363,2.94,24.6,2.799,24.906,2.728 M24.673,1.722c0,0.243,0.075,0.434,0.226,0.57
			c0.152,0.137,0.366,0.205,0.64,0.205c0.271,0,0.483-0.068,0.636-0.205c0.155-0.137,0.232-0.327,0.232-0.57
			c0-0.244-0.077-0.435-0.232-0.571c-0.152-0.137-0.364-0.205-0.636-0.205c-0.273,0-0.487,0.068-0.64,0.205
			C24.748,1.287,24.673,1.478,24.673,1.722 M29.624,0.945c-0.326,0-0.571,0.162-0.736,0.485c-0.163,0.322-0.244,0.807-0.244,1.455
			c0,0.646,0.081,1.13,0.244,1.454c0.165,0.321,0.41,0.482,0.736,0.482c0.328,0,0.573-0.161,0.736-0.482
			c0.165-0.324,0.248-0.809,0.248-1.454c0-0.648-0.083-1.133-0.248-1.455C30.198,1.108,29.952,0.945,29.624,0.945 M29.624,0.441
			c0.524,0,0.925,0.209,1.2,0.628c0.278,0.416,0.417,1.022,0.417,1.817c0,0.793-0.139,1.398-0.417,1.816
			c-0.275,0.417-0.676,0.625-1.2,0.625s-0.926-0.208-1.203-0.625c-0.275-0.418-0.414-1.023-0.414-1.816
			c0-0.795,0.139-1.401,0.414-1.817C28.698,0.65,29.1,0.441,29.624,0.441 M32.364,0.526h2.484v0.536h-1.905v1.155
			c0.092-0.032,0.184-0.055,0.276-0.069c0.092-0.018,0.184-0.025,0.275-0.025c0.522,0,0.936,0.144,1.241,0.432
			c0.305,0.288,0.457,0.679,0.457,1.171c0,0.507-0.156,0.901-0.47,1.183c-0.313,0.28-0.756,0.42-1.326,0.42
			c-0.196,0-0.396-0.017-0.602-0.051c-0.202-0.033-0.412-0.084-0.63-0.151V4.484c0.188,0.104,0.383,0.181,0.583,0.23
			c0.201,0.051,0.413,0.076,0.637,0.076c0.361,0,0.647-0.096,0.858-0.287s0.316-0.451,0.316-0.779s-0.105-0.588-0.316-0.779
			s-0.497-0.287-0.858-0.287c-0.17,0-0.339,0.019-0.508,0.057c-0.167,0.038-0.339,0.097-0.514,0.177V0.526"/>
	</g>
</g>
</svg>
