<?xml version='1.0' encoding='UTF-8' standalone='no'?>
<!-- Created with Fritzing (http://www.fritzing.org/) -->
<svg width="2.74846in" x="0in" version="1.2" y="0in" xmlns="http://www.w3.org/2000/svg" height="4.97045in" viewBox="0 0 197.889 357.872" baseProfile="tiny" xmlns:svg="http://www.w3.org/2000/svg">
 <g  id="watermark" stroke-width="0">
  <g  stroke-width="0">
   <path fill="#8C8C8C"  stroke-width="0" d="M90.0721,355.544L88.1471,349.98L88.1121,349.98c0.017,0.214,0.032,0.427,0.044,0.64c0.012,0.183,0.021,0.375,0.028,0.574c0.007,0.203,0.011,0.385,0.011,0.551l0,3.8L87.4471,355.545L87.4471,349.189l1.199,0l1.791,5.181l0.025,0l1.8,-5.181L93.4621,349.189l0,6.354L92.6531,355.543l0,-3.854c0,-0.15,0.003,-0.324,0.009,-0.518s0.013,-0.38,0.021,-0.557c0.012,-0.207,0.021,-0.416,0.029,-0.625L92.6801,349.989L90.7361,355.544L90.0721,355.544z"/>
   <path fill="#8C8C8C"  stroke-width="0" d="M97.7721,355.544l-0.16,-0.661l-0.035,0c-0.095,0.131,-0.19,0.243,-0.286,0.338c-0.095,0.095,-0.2,0.172,-0.313,0.231c-0.113,0.062,-0.239,0.106,-0.378,0.136c-0.141,0.028,-0.3,0.042,-0.482,0.042c-0.2,0,-0.384,-0.026,-0.552,-0.084c-0.168,-0.057,-0.314,-0.144,-0.438,-0.261c-0.122,-0.116,-0.219,-0.265,-0.288,-0.443S94.7361,354.454,94.7361,354.209c0,-0.475,0.167,-0.841,0.501,-1.095c0.335,-0.256,0.845,-0.394,1.528,-0.418l0.799,-0.029l0,-0.301c0,-0.193,-0.021,-0.356,-0.063,-0.486s-0.103,-0.234,-0.183,-0.314s-0.178,-0.138,-0.295,-0.172c-0.117,-0.035,-0.251,-0.052,-0.402,-0.052c-0.241,0,-0.464,0.034,-0.671,0.104c-0.207,0.068,-0.407,0.152,-0.597,0.25L95.0741,351.103c0.214,-0.117,0.453,-0.217,0.717,-0.298c0.264,-0.079,0.54,-0.12,0.83,-0.12c0.296,0,0.551,0.029,0.768,0.09c0.216,0.059,0.395,0.151,0.534,0.28c0.141,0.13,0.247,0.294,0.316,0.494c0.07,0.199,0.104,0.44,0.104,0.726l0,3.269L97.7721,355.544L97.7721,355.544zM96.3211,354.993c0.178,0,0.341,-0.028,0.491,-0.084c0.149,-0.055,0.282,-0.138,0.391,-0.249c0.11,-0.111,0.196,-0.252,0.258,-0.422c0.063,-0.17,0.094,-0.369,0.094,-0.599l0,-0.43l-0.621,0.03c-0.262,0.012,-0.48,0.041,-0.656,0.086c-0.175,0.047,-0.317,0.113,-0.423,0.193c-0.105,0.084,-0.183,0.185,-0.229,0.301c-0.046,0.117,-0.068,0.25,-0.068,0.398c0,0.268,0.069,0.462,0.211,0.586C95.9081,354.93,96.0921,354.993,96.3211,354.993z"/>
   <path fill="#8C8C8C"  stroke-width="0" d="M102.754,354.905l-0.034,0c-0.063,0.099,-0.139,0.191,-0.224,0.281c-0.085,0.088,-0.184,0.165,-0.296,0.231c-0.111,0.066,-0.237,0.118,-0.376,0.156c-0.139,0.037,-0.295,0.056,-0.47,0.056c-0.271,0,-0.517,-0.051,-0.738,-0.154c-0.223,-0.105,-0.416,-0.262,-0.575,-0.469s-0.282,-0.464,-0.369,-0.771c-0.087,-0.309,-0.13,-0.664,-0.13,-1.069c0,-0.408,0.043,-0.767,0.13,-1.076c0.086,-0.31,0.209,-0.567,0.369,-0.774c0.159,-0.209,0.352,-0.367,0.575,-0.473c0.222,-0.105,0.469,-0.158,0.738,-0.158c0.171,0,0.327,0.02,0.466,0.057s0.264,0.088,0.376,0.152c0.112,0.063,0.211,0.137,0.297,0.221s0.163,0.172,0.227,0.266l0.052,0c-0.009,-0.1,-0.018,-0.191,-0.026,-0.283c-0.006,-0.074,-0.012,-0.152,-0.018,-0.232c-0.005,-0.078,-0.009,-0.143,-0.009,-0.188L102.719,348.781l0.792,0l0,6.763l-0.641,0L102.754,354.905zM101.506,354.976c0.221,0,0.407,-0.033,0.56,-0.102c0.151,-0.065,0.274,-0.168,0.37,-0.304c0.094,-0.136,0.163,-0.308,0.209,-0.512c0.044,-0.204,0.069,-0.442,0.076,-0.716l0,-0.177c0,-0.292,-0.02,-0.552,-0.059,-0.78c-0.04,-0.229,-0.105,-0.418,-0.2,-0.574c-0.094,-0.154,-0.219,-0.271,-0.376,-0.351c-0.156,-0.08,-0.352,-0.119,-0.586,-0.119c-0.391,0,-0.679,0.157,-0.861,0.474c-0.185,0.315,-0.277,0.771,-0.277,1.359c0,0.605,0.092,1.058,0.277,1.354C100.819,354.826,101.109,354.976,101.506,354.976z"/>
   <path fill="#8C8C8C"  stroke-width="0" d="M106.908,355.63c-0.318,0,-0.609,-0.053,-0.874,-0.16c-0.263,-0.106,-0.49,-0.264,-0.68,-0.469c-0.19,-0.207,-0.338,-0.461,-0.442,-0.766c-0.104,-0.306,-0.156,-0.651,-0.156,-1.045s0.049,-0.744,0.144,-1.055c0.096,-0.311,0.229,-0.574,0.405,-0.789c0.174,-0.216,0.382,-0.381,0.623,-0.492c0.241,-0.113,0.51,-0.17,0.802,-0.17c0.287,0,0.545,0.051,0.772,0.153c0.229,0.104,0.423,0.248,0.583,0.435c0.159,0.188,0.282,0.412,0.367,0.674c0.087,0.263,0.13,0.554,0.13,0.873l0,0.49l-3.008,0c0.015,0.559,0.133,0.971,0.354,1.234c0.222,0.263,0.551,0.396,0.987,0.396c0.149,0,0.285,-0.008,0.411,-0.021s0.248,-0.035,0.365,-0.063c0.118,-0.026,0.23,-0.063,0.342,-0.104s0.222,-0.089,0.334,-0.142l0,0.704c-0.116,0.055,-0.229,0.104,-0.341,0.144c-0.112,0.041,-0.226,0.074,-0.343,0.102c-0.117,0.024,-0.239,0.045,-0.365,0.056S107.057,355.63,106.908,355.63zM106.713,351.342c-0.331,0,-0.592,0.112,-0.783,0.339c-0.193,0.227,-0.307,0.555,-0.338,0.985l2.14,0c0,-0.196,-0.021,-0.378,-0.06,-0.541c-0.039,-0.164,-0.1,-0.304,-0.183,-0.419s-0.187,-0.205,-0.315,-0.27C107.046,351.372,106.893,351.342,106.713,351.342z"/>
   <path fill="#8C8C8C"  stroke-width="0" d="M115.722,355.544l-0.729,-2.678c-0.012,-0.053,-0.026,-0.111,-0.044,-0.176c-0.017,-0.065,-0.034,-0.136,-0.051,-0.207c-0.019,-0.072,-0.036,-0.146,-0.055,-0.223c-0.02,-0.074,-0.037,-0.148,-0.055,-0.222c-0.041,-0.169,-0.083,-0.341,-0.126,-0.521l-0.024,0c-0.041,0.182,-0.08,0.356,-0.117,0.524c-0.032,0.146,-0.066,0.294,-0.104,0.448c-0.037,0.152,-0.069,0.283,-0.103,0.391l-0.75,2.66l-0.917,0l-1.221,-4.771l0.83,0l0.57,2.539c0.029,0.129,0.059,0.27,0.086,0.423c0.028,0.151,0.057,0.303,0.082,0.452c0.026,0.148,0.05,0.288,0.07,0.421c0.02,0.132,0.037,0.238,0.049,0.322l0.025,0c0.015,-0.074,0.034,-0.177,0.059,-0.302c0.025,-0.126,0.052,-0.26,0.083,-0.399c0.031,-0.141,0.063,-0.28,0.093,-0.417c0.032,-0.139,0.063,-0.254,0.091,-0.351l0.778,-2.69l0.853,0l0.748,2.69c0.025,0.098,0.056,0.215,0.089,0.348c0.033,0.135,0.065,0.27,0.098,0.407c0.032,0.139,0.061,0.271,0.087,0.397c0.025,0.127,0.045,0.231,0.056,0.315l0.026,0c0.01,-0.074,0.022,-0.177,0.042,-0.302c0.02,-0.126,0.042,-0.265,0.067,-0.415c0.025,-0.149,0.054,-0.306,0.084,-0.464c0.03,-0.157,0.062,-0.306,0.094,-0.44L117.082,350.771l0.809,0l-1.234,4.771L115.722,355.542L115.722,355.544z"/>
   <path fill="#8C8C8C"  stroke-width="0" d="M118.677,349.481c0,-0.175,0.045,-0.3,0.133,-0.379c0.088,-0.078,0.197,-0.117,0.328,-0.117c0.063,0,0.123,0.011,0.181,0.028c0.056,0.019,0.104,0.049,0.147,0.089c0.042,0.041,0.075,0.092,0.101,0.154c0.023,0.063,0.037,0.137,0.037,0.224c0,0.168,-0.045,0.293,-0.138,0.376c-0.092,0.083,-0.2,0.123,-0.327,0.123c-0.131,0,-0.24,-0.04,-0.328,-0.12C118.723,349.778,118.677,349.651,118.677,349.481zM119.529,355.544l-0.791,0L118.738,350.771l0.791,0L119.529,355.544z"/>
   <path fill="#8C8C8C"  stroke-width="0" d="M122.485,354.983c0.052,0,0.111,-0.003,0.176,-0.01c0.066,-0.006,0.128,-0.013,0.189,-0.021c0.061,-0.009,0.116,-0.019,0.167,-0.031c0.051,-0.011,0.089,-0.021,0.115,-0.028l0,0.6c-0.037,0.017,-0.085,0.035,-0.144,0.052c-0.059,0.018,-0.122,0.033,-0.191,0.046c-0.068,0.015,-0.142,0.022,-0.217,0.03s-0.148,0.011,-0.221,0.011c-0.18,0,-0.347,-0.021,-0.5,-0.068c-0.153,-0.048,-0.286,-0.126,-0.397,-0.239c-0.111,-0.112,-0.198,-0.267,-0.263,-0.458c-0.063,-0.192,-0.095,-0.437,-0.095,-0.729L121.104,351.367l-0.674,0L120.43,351.015l0.673,-0.339l0.339,-0.999l0.456,0l0,1.096l1.199,0l0,0.596l-1.199,0l0,2.769c0,0.281,0.045,0.492,0.137,0.636C122.127,354.912,122.276,354.983,122.485,354.983z"/>
   <path fill="#8C8C8C"  stroke-width="0" d="M127.04,355.544l0,-3.073c0,-0.377,-0.076,-0.659,-0.228,-0.848c-0.152,-0.188,-0.391,-0.282,-0.715,-0.282c-0.234,0,-0.433,0.037,-0.592,0.111c-0.158,0.076,-0.286,0.188,-0.384,0.336c-0.097,0.148,-0.166,0.328,-0.208,0.544c-0.042,0.214,-0.063,0.461,-0.063,0.739l0,2.473l-0.791,0L124.059,348.781l0.791,0l0,2.008l-0.034,0.626l0.044,0c0.072,-0.124,0.158,-0.232,0.258,-0.323s0.209,-0.167,0.328,-0.229c0.118,-0.061,0.245,-0.104,0.378,-0.135c0.133,-0.027,0.27,-0.043,0.408,-0.043c0.531,0,0.93,0.139,1.198,0.416c0.268,0.275,0.401,0.719,0.401,1.326l0,3.117L127.04,355.544L127.04,355.544z"/>
  </g>
  <g  stroke-width="0">
   <path fill="#8C8C8C"  stroke-width="0" d="M148.8,355.528l-1.324,0L147.476,349.174l3.642,0l0,1.104l-2.316,0l0,1.639l2.156,0l0,1.1l-2.156,0L148.8,355.528L148.8,355.528z"/>
   <path fill="#8C8C8C"  stroke-width="0" d="M154.833,350.578c0.035,0,0.074,0.002,0.116,0.002c0.042,0.002,0.083,0.006,0.12,0.01c0.041,0.005,0.076,0.009,0.11,0.014c0.031,0.004,0.059,0.01,0.075,0.016l0,1.244c-0.022,-0.008,-0.056,-0.012,-0.095,-0.018c-0.04,-0.007,-0.083,-0.012,-0.128,-0.018c-0.045,-0.004,-0.09,-0.006,-0.133,-0.008c-0.044,-0.002,-0.08,-0.002,-0.108,-0.002c-0.171,0,-0.328,0.021,-0.472,0.064c-0.146,0.043,-0.269,0.113,-0.37,0.211s-0.183,0.225,-0.239,0.383c-0.057,0.157,-0.084,0.352,-0.084,0.581l0,2.474l-1.326,0L152.299,350.669l1.005,0l0.194,0.73l0.066,0c0.068,-0.125,0.145,-0.238,0.226,-0.34c0.081,-0.103,0.172,-0.189,0.272,-0.259c0.1,-0.071,0.212,-0.126,0.338,-0.165C154.526,350.598,154.672,350.578,154.833,350.578z"/>
   <path fill="#8C8C8C"  stroke-width="0" d="M156.151,349.413c0,-0.125,0.018,-0.228,0.056,-0.311c0.038,-0.084,0.089,-0.15,0.154,-0.2c0.065,-0.051,0.142,-0.086,0.229,-0.106c0.088,-0.02,0.184,-0.03,0.281,-0.03c0.099,0,0.191,0.01,0.277,0.03c0.088,0.02,0.164,0.055,0.229,0.106c0.066,0.05,0.117,0.116,0.156,0.2c0.04,0.083,0.059,0.186,0.059,0.311c0,0.122,-0.019,0.225,-0.059,0.309c-0.039,0.084,-0.09,0.151,-0.156,0.203c-0.063,0.05,-0.142,0.086,-0.229,0.108c-0.086,0.021,-0.18,0.032,-0.277,0.032c-0.099,0,-0.191,-0.012,-0.281,-0.032c-0.088,-0.021,-0.164,-0.059,-0.229,-0.108c-0.065,-0.051,-0.116,-0.119,-0.154,-0.203C156.17,349.638,156.151,349.535,156.151,349.413zM157.533,355.528l-1.325,0L156.208,350.669l1.325,0L157.533,355.528z"/>
   <path fill="#8C8C8C"  stroke-width="0" d="M160.942,354.559c0.13,0,0.254,-0.016,0.371,-0.045c0.117,-0.027,0.235,-0.064,0.357,-0.107l0,0.986c-0.124,0.063,-0.278,0.116,-0.463,0.157c-0.184,0.042,-0.385,0.063,-0.603,0.063c-0.211,0,-0.408,-0.024,-0.59,-0.073c-0.185,-0.05,-0.342,-0.137,-0.476,-0.259c-0.133,-0.123,-0.237,-0.288,-0.313,-0.495c-0.077,-0.208,-0.114,-0.468,-0.114,-0.781L159.111,351.664l-0.636,0L158.475,351.103l0.729,-0.443l0.383,-1.024l0.848,0l0,1.034l1.184,0l0,0.995l-1.184,0l0,2.343c0,0.188,0.048,0.327,0.141,0.417C160.669,354.514,160.791,354.559,160.942,354.559z"/>
   <path fill="#8C8C8C"  stroke-width="0" d="M165.815,355.528L162.242,355.528l0,-0.781l1.985,-3.064l-1.853,0L162.374,350.669l3.355,0l0,0.859l-1.92,2.985l2.004,0L165.815,355.528L165.815,355.528z"/>
   <path fill="#8C8C8C"  stroke-width="0" d="M166.754,349.413c0,-0.125,0.02,-0.228,0.057,-0.311c0.038,-0.084,0.09,-0.15,0.153,-0.2c0.065,-0.051,0.144,-0.086,0.23,-0.106s0.182,-0.03,0.28,-0.03c0.098,0,0.19,0.01,0.277,0.03c0.088,0.02,0.164,0.055,0.229,0.106c0.064,0.05,0.117,0.116,0.156,0.2c0.038,0.083,0.059,0.186,0.059,0.311c0,0.122,-0.021,0.225,-0.059,0.309c-0.039,0.084,-0.092,0.151,-0.156,0.203c-0.064,0.05,-0.143,0.086,-0.229,0.108c-0.086,0.021,-0.18,0.032,-0.277,0.032c-0.099,0,-0.192,-0.012,-0.28,-0.032c-0.088,-0.021,-0.165,-0.059,-0.23,-0.108c-0.063,-0.051,-0.115,-0.119,-0.153,-0.203C166.773,349.638,166.754,349.535,166.754,349.413zM168.136,355.528L166.812,355.528L166.812,350.669l1.324,0L168.136,355.528z"/>
   <path fill="#8C8C8C"  stroke-width="0" d="M173.786,355.528L172.462,355.528l0,-2.839c0,-0.351,-0.053,-0.613,-0.158,-0.787c-0.105,-0.176,-0.274,-0.265,-0.508,-0.265c-0.173,0,-0.317,0.035,-0.434,0.104c-0.116,0.07,-0.209,0.173,-0.276,0.31c-0.066,0.136,-0.115,0.304,-0.146,0.504c-0.029,0.2,-0.043,0.429,-0.043,0.687l0,2.286L169.572,355.528L169.572,350.669l1.012,0l0.181,0.621l0.073,0c0.069,-0.124,0.153,-0.23,0.253,-0.321c0.102,-0.089,0.21,-0.163,0.328,-0.221s0.245,-0.103,0.378,-0.128c0.136,-0.028,0.271,-0.043,0.409,-0.043c0.237,0,0.454,0.033,0.647,0.104c0.194,0.067,0.36,0.174,0.5,0.318c0.141,0.146,0.247,0.328,0.321,0.555c0.075,0.225,0.113,0.492,0.113,0.807l0,3.168L173.786,355.528L173.786,355.528z"/>
   <path fill="#8C8C8C"  stroke-width="0" d="M179.216,350.678l0,0.722l-0.708,0.221c0.059,0.1,0.1,0.201,0.122,0.308c0.021,0.106,0.033,0.22,0.033,0.343c0,0.246,-0.039,0.471,-0.116,0.676c-0.078,0.203,-0.193,0.379,-0.349,0.522c-0.152,0.146,-0.346,0.258,-0.578,0.337c-0.23,0.08,-0.5,0.119,-0.808,0.119c-0.067,0,-0.141,-0.003,-0.218,-0.012c-0.078,-0.007,-0.137,-0.015,-0.175,-0.021c-0.057,0.049,-0.104,0.101,-0.137,0.152c-0.033,0.054,-0.049,0.117,-0.049,0.193c0,0.061,0.018,0.108,0.056,0.146s0.087,0.065,0.147,0.087c0.06,0.022,0.133,0.036,0.214,0.044s0.165,0.012,0.251,0.012l0.756,0c0.236,0,0.446,0.025,0.631,0.081c0.186,0.055,0.342,0.135,0.472,0.246c0.129,0.109,0.229,0.249,0.299,0.419c0.069,0.169,0.104,0.372,0.104,0.605c0,0.275,-0.054,0.523,-0.164,0.745c-0.109,0.224,-0.274,0.41,-0.494,0.565c-0.219,0.154,-0.488,0.273,-0.813,0.355c-0.324,0.082,-0.699,0.123,-1.126,0.123c-0.329,0,-0.618,-0.031,-0.864,-0.094c-0.247,-0.063,-0.451,-0.15,-0.617,-0.27c-0.165,-0.116,-0.288,-0.258,-0.371,-0.424c-0.084,-0.164,-0.125,-0.353,-0.125,-0.561c0,-0.177,0.031,-0.33,0.093,-0.46c0.061,-0.131,0.143,-0.243,0.243,-0.336c0.102,-0.093,0.218,-0.168,0.347,-0.227c0.129,-0.058,0.262,-0.103,0.396,-0.134c-0.061,-0.026,-0.12,-0.063,-0.181,-0.109c-0.059,-0.047,-0.113,-0.1,-0.161,-0.159c-0.047,-0.063,-0.086,-0.129,-0.116,-0.203c-0.031,-0.072,-0.047,-0.15,-0.047,-0.23c0,-0.093,0.015,-0.178,0.04,-0.252c0.029,-0.076,0.068,-0.146,0.12,-0.212c0.052,-0.064,0.117,-0.126,0.196,-0.184c0.078,-0.06,0.166,-0.117,0.264,-0.18c-0.254,-0.11,-0.456,-0.287,-0.604,-0.53c-0.15,-0.244,-0.225,-0.529,-0.225,-0.859c0,-0.26,0.04,-0.494,0.121,-0.699c0.081,-0.207,0.2,-0.381,0.356,-0.523c0.155,-0.144,0.35,-0.252,0.582,-0.328c0.231,-0.076,0.499,-0.113,0.801,-0.113c0.057,0,0.122,0.004,0.194,0.012s0.145,0.018,0.216,0.025c0.07,0.01,0.137,0.021,0.196,0.033c0.061,0.01,0.109,0.021,0.146,0.029L179.216,350.678L179.216,350.678zM175.739,356.215c0,0.073,0.017,0.145,0.047,0.211c0.03,0.068,0.08,0.129,0.15,0.182c0.068,0.052,0.16,0.094,0.272,0.124c0.113,0.03,0.252,0.046,0.417,0.046c0.452,0,0.792,-0.063,1.021,-0.191c0.229,-0.127,0.343,-0.298,0.343,-0.514c0,-0.183,-0.07,-0.304,-0.213,-0.364c-0.143,-0.06,-0.361,-0.091,-0.66,-0.091l-0.613,0c-0.077,0,-0.162,0.009,-0.252,0.027c-0.09,0.018,-0.172,0.052,-0.248,0.099c-0.075,0.046,-0.139,0.108,-0.188,0.184S175.739,356.1,175.739,356.215zM176.218,352.26c0,0.263,0.049,0.468,0.147,0.612c0.098,0.146,0.248,0.217,0.447,0.217c0.209,0,0.358,-0.07,0.451,-0.217c0.094,-0.145,0.14,-0.35,0.14,-0.612c0,-0.261,-0.046,-0.468,-0.137,-0.622c-0.092,-0.152,-0.243,-0.229,-0.454,-0.229C176.415,351.408,176.218,351.691,176.218,352.26z"/>
   <path fill="#8C8C8C"  stroke-width="0" d="M179.966,354.907c0,-0.136,0.02,-0.251,0.059,-0.346c0.04,-0.095,0.094,-0.172,0.163,-0.229c0.069,-0.058,0.149,-0.101,0.244,-0.126c0.092,-0.026,0.191,-0.039,0.299,-0.039c0.102,0,0.198,0.013,0.289,0.039c0.092,0.025,0.172,0.068,0.242,0.126c0.068,0.057,0.123,0.134,0.163,0.229c0.041,0.095,0.062,0.21,0.062,0.346c0,0.13,-0.021,0.242,-0.062,0.335c-0.04,0.093,-0.095,0.17,-0.163,0.229c-0.07,0.062,-0.15,0.104,-0.242,0.133c-0.091,0.027,-0.188,0.042,-0.289,0.042c-0.106,0,-0.207,-0.015,-0.299,-0.042c-0.095,-0.027,-0.175,-0.071,-0.244,-0.133c-0.069,-0.061,-0.123,-0.138,-0.163,-0.229C179.984,355.149,179.966,355.037,179.966,354.907z"/>
   <path fill="#8C8C8C"  stroke-width="0" d="M186.925,353.089c0,0.406,-0.052,0.767,-0.153,1.079c-0.104,0.313,-0.251,0.576,-0.443,0.79c-0.192,0.215,-0.428,0.378,-0.704,0.489c-0.277,0.111,-0.587,0.167,-0.933,0.167c-0.321,0,-0.617,-0.056,-0.886,-0.167c-0.271,-0.112,-0.503,-0.274,-0.698,-0.489c-0.195,-0.214,-0.35,-0.479,-0.458,-0.79c-0.11,-0.313,-0.165,-0.673,-0.165,-1.079c0,-0.402,0.051,-0.76,0.154,-1.072c0.103,-0.314,0.25,-0.576,0.442,-0.789C183.273,351.014,183.507,350.853,183.782,350.744s0.587,-0.164,0.937,-0.164c0.319,0,0.615,0.055,0.886,0.164c0.27,0.111,0.502,0.271,0.695,0.484c0.197,0.213,0.351,0.477,0.459,0.789C186.869,352.329,186.925,352.687,186.925,353.089zM183.839,353.089c0,0.484,0.068,0.851,0.205,1.093c0.137,0.246,0.357,0.368,0.664,0.368c0.306,0,0.524,-0.123,0.66,-0.37c0.137,-0.245,0.205,-0.608,0.205,-1.091s-0.068,-0.846,-0.205,-1.084c-0.136,-0.238,-0.358,-0.357,-0.668,-0.357c-0.305,0,-0.523,0.119,-0.659,0.357C183.906,352.244,183.839,352.607,183.839,353.089z"/>
   <path fill="#8C8C8C"  stroke-width="0" d="M190.645,350.578c0.035,0,0.073,0.002,0.115,0.002c0.042,0.002,0.083,0.006,0.12,0.01c0.04,0.005,0.076,0.009,0.109,0.014c0.033,0.004,0.059,0.01,0.076,0.016l0,1.244c-0.023,-0.008,-0.055,-0.012,-0.095,-0.018c-0.041,-0.007,-0.083,-0.012,-0.13,-0.018c-0.045,-0.004,-0.089,-0.006,-0.132,-0.008c-0.045,-0.002,-0.08,-0.002,-0.108,-0.002c-0.171,0,-0.328,0.021,-0.473,0.064c-0.144,0.043,-0.267,0.113,-0.37,0.211c-0.102,0.098,-0.182,0.225,-0.237,0.383c-0.058,0.157,-0.084,0.352,-0.084,0.581l0,2.474l-1.326,0L188.11,350.669l1.004,0l0.195,0.73l0.065,0c0.068,-0.125,0.146,-0.238,0.226,-0.34c0.081,-0.103,0.172,-0.189,0.271,-0.259c0.101,-0.071,0.213,-0.126,0.339,-0.165C190.339,350.598,190.483,350.578,190.645,350.578z"/>
   <path fill="#8C8C8C"  stroke-width="0" d="M195.953,350.678l0,0.722l-0.708,0.221c0.058,0.1,0.099,0.201,0.121,0.308s0.034,0.22,0.034,0.343c0,0.246,-0.039,0.471,-0.116,0.676c-0.079,0.203,-0.194,0.379,-0.349,0.522c-0.153,0.146,-0.348,0.258,-0.578,0.337c-0.232,0.08,-0.501,0.119,-0.809,0.119c-0.067,0,-0.141,-0.003,-0.219,-0.012c-0.078,-0.007,-0.135,-0.015,-0.173,-0.021c-0.058,0.049,-0.104,0.101,-0.137,0.152c-0.034,0.054,-0.05,0.117,-0.05,0.193c0,0.061,0.019,0.108,0.057,0.146c0.037,0.037,0.086,0.065,0.146,0.087c0.062,0.021,0.133,0.036,0.215,0.044c0.08,0.008,0.164,0.012,0.251,0.012l0.756,0c0.234,0,0.445,0.025,0.63,0.081c0.186,0.055,0.343,0.135,0.472,0.246c0.129,0.109,0.229,0.249,0.298,0.419c0.07,0.169,0.104,0.372,0.104,0.605c0,0.275,-0.054,0.523,-0.165,0.745c-0.109,0.224,-0.275,0.41,-0.493,0.565c-0.219,0.154,-0.489,0.273,-0.815,0.355c-0.323,0.082,-0.698,0.123,-1.125,0.123c-0.329,0,-0.617,-0.031,-0.864,-0.094c-0.246,-0.063,-0.451,-0.15,-0.617,-0.27c-0.164,-0.116,-0.287,-0.258,-0.371,-0.424c-0.083,-0.164,-0.124,-0.353,-0.124,-0.561c0,-0.177,0.03,-0.33,0.091,-0.46c0.063,-0.131,0.144,-0.243,0.244,-0.336c0.103,-0.093,0.217,-0.168,0.346,-0.227c0.129,-0.058,0.263,-0.103,0.398,-0.134c-0.062,-0.026,-0.121,-0.063,-0.182,-0.109c-0.06,-0.047,-0.113,-0.1,-0.16,-0.159c-0.047,-0.063,-0.087,-0.129,-0.117,-0.203c-0.03,-0.073,-0.045,-0.151,-0.045,-0.231c0,-0.093,0.014,-0.178,0.04,-0.252c0.027,-0.076,0.067,-0.146,0.12,-0.212c0.051,-0.064,0.117,-0.126,0.194,-0.184c0.078,-0.06,0.166,-0.117,0.266,-0.18c-0.255,-0.109,-0.456,-0.287,-0.606,-0.529c-0.148,-0.244,-0.223,-0.531,-0.223,-0.861c0,-0.26,0.039,-0.493,0.121,-0.698c0.081,-0.207,0.199,-0.382,0.354,-0.524c0.156,-0.143,0.351,-0.252,0.583,-0.328c0.231,-0.074,0.499,-0.111,0.8,-0.111c0.059,0,0.123,0.003,0.195,0.011s0.146,0.017,0.215,0.026c0.072,0.009,0.138,0.021,0.198,0.031c0.062,0.012,0.108,0.021,0.145,0.03L195.953,350.677L195.953,350.678zM192.477,356.215c0,0.073,0.017,0.145,0.046,0.211c0.031,0.068,0.081,0.129,0.149,0.182c0.07,0.052,0.161,0.094,0.273,0.124c0.114,0.03,0.252,0.046,0.418,0.046c0.451,0,0.792,-0.063,1.021,-0.191c0.229,-0.127,0.343,-0.298,0.343,-0.514c0,-0.183,-0.071,-0.304,-0.214,-0.364s-0.361,-0.091,-0.66,-0.091l-0.612,0c-0.079,0,-0.163,0.009,-0.252,0.027c-0.09,0.019,-0.173,0.052,-0.248,0.099c-0.076,0.046,-0.139,0.108,-0.188,0.184C192.503,356.002,192.477,356.1,192.477,356.215zM192.954,352.26c0,0.263,0.049,0.468,0.148,0.612c0.099,0.146,0.248,0.217,0.447,0.217c0.209,0,0.358,-0.07,0.451,-0.217c0.094,-0.145,0.141,-0.35,0.141,-0.612c0,-0.261,-0.046,-0.468,-0.138,-0.622c-0.092,-0.152,-0.243,-0.229,-0.454,-0.229C193.152,351.408,192.954,351.691,192.954,352.26z"/>
  </g>
  <g  stroke-width="0">
   <path fill="#8C8C8C"  stroke-width="0" d="M141.547,347.798l-8.146,0c-0.532,0,-0.965,0.432,-0.965,0.964l0,8.146c0,0.531,0.433,0.964,0.965,0.964l5.55,0l3.557,-3.558L142.508,348.762C142.511,348.229,142.079,347.798,141.547,347.798zM139.87,351.527l-1.075,0l0,0.401l1.075,0l0,1.601l-2.196,0l0,2.058l-2.572,0l0,-4.67l0.988,-0.99l3.779,0l0,1.603l0.001,0L139.87,351.527z"/>
  </g>
 </g>
 <g transform="translate(7.6572,0)">
  <g fill="#000000" font-family="'DroidSans'" stroke="none" font-style="normal" fill-opacity="1" font-weight="500" id="schematicLabel" font-size="9">
   <text x="0" y="6.675">Voltage Regulator</text>
  </g>
 </g>
 <g transform="translate(0,10.4)">
  <g  id="schematic" stroke-width="0">
   <line fill="none"  stroke="#000000" style="stroke-linecap:round;stroke-linejoin:round" id="connector0pin" y1="21.991" x1="18.6509" y2="21.991" stroke-width="1.60438" x2="0.80219"/>
   <rect width="0.80219" x="0" y="21.0565" fill="none"  height="1.61526" id="connector0terminal" stroke-width="0"/>
   <line fill="none"  stroke="#000000" style="stroke-linecap:round;stroke-linejoin:round" id="connector1pin" y1="57.6599" y2="39.0844" x1="36.8286" stroke-width="1.60438" x2="36.8286"/>
   <rect width="1.60438" x="36.0264" y="57.3417" fill="none"  height="0.807629" id="connector1terminal" stroke-width="0"/>
   <line fill="none"  stroke="#000000" style="stroke-linecap:round;stroke-linejoin:round" id="connector2pin" y1="21.991" y2="21.991" x1="73.2572" stroke-width="1.60438" x2="54.8068"/>
   <rect width="0.80219" x="72.9993" y="21.0565" fill="none"  height="1.61526" id="connector2terminal" stroke-width="0"/>
   <rect width="35.2621" x="19.3077" y="7.12975" fill="none"  height="31.463" stroke="#000000" style="stroke-linecap:round;stroke-linejoin:round;stroke-miterlimit:4;stroke-dasharray:none" id="rect17" stroke-width="1.60438"/>
   <path stroke-opacity="1" fill="#000000"  stroke="none" style="font-style:normal;font-weight:normal;stroke-linecap:butt;stroke-linejoin:miter;font-family:DroidSans" fill-opacity="1" id="text3320" stroke-width="0" d="M21.3119,19.5214L21.9449,19.5214L21.9449,24.2315L21.3119,24.2315L21.3119,19.5214M23.2046,19.5214L24.057,19.5214L26.1313,23.4617L26.1313,19.5214L26.7455,19.5214L26.7455,24.2315L25.8932,24.2315L23.8188,20.2911L23.8188,24.2315L23.2046,24.2315L23.2046,19.5214" font-size="8px"/>
   <path stroke-opacity="1" fill="#000000"  stroke="none" style="font-style:normal;font-weight:normal;stroke-linecap:butt;stroke-linejoin:miter;font-family:DroidSans" fill-opacity="1" id="text3324" stroke-width="0" d="M41.7159,19.8618C41.2563,19.8618,40.8907,20.0342,40.6191,20.3791C40.3497,20.7241,40.2149,21.1941,40.2149,21.7894C40.2149,22.3825,40.3497,22.8515,40.6191,23.1964C40.8907,23.5413,41.2563,23.7138,41.7159,23.7138C42.1755,23.7138,42.5389,23.5413,42.8064,23.1964C43.0758,22.8515,43.2106,22.3825,43.2106,21.7894C43.2106,21.1941,43.0758,20.7241,42.8064,20.3791C42.5389,20.0342,42.1755,19.8618,41.7159,19.8618M41.7159,19.3444C42.3718,19.3444,42.8962,19.5663,43.2889,20.0101C43.6817,20.4518,43.878,21.0448,43.878,21.7894C43.878,22.5318,43.6817,23.1249,43.2889,23.5686C42.8962,24.0103,42.3718,24.2311,41.7159,24.2311C41.0579,24.2311,40.5314,24.0103,40.1365,23.5686C39.7439,23.127,39.5475,22.5339,39.5475,21.7894C39.5475,21.0448,39.7439,20.4518,40.1365,20.0101C40.5314,19.5663,41.0579,19.3444,41.7159,19.3444M44.7961,19.4295L45.4323,19.4295L45.4323,22.291C45.4323,22.7957,45.5232,23.1596,45.7049,23.3826C45.8866,23.6034,46.1812,23.7138,46.5886,23.7138C46.9938,23.7138,47.2873,23.6034,47.4691,23.3826C47.6508,23.1596,47.7417,22.7957,47.7417,22.291L47.7417,19.4295L48.3778,19.4295L48.3778,22.3699C48.3778,22.984,48.2264,23.4477,47.9235,23.7611C47.6227,24.0745,47.1777,24.2311,46.5886,24.2311C45.9973,24.2311,45.5503,24.0745,45.2474,23.7611C44.9465,23.4477,44.7961,22.984,44.7961,22.3699L44.7961,19.4295M48.92,19.4295L52.8776,19.4295L52.8776,19.9659L51.2168,19.9659L51.2168,24.1397L50.5807,24.1397L50.5807,19.9659L48.92,19.9659L48.92,19.4295" font-size="8px"/>
   <path stroke-opacity="1" fill="#000000"  stroke="none" style="font-style:normal;font-weight:normal;stroke-linecap:butt;stroke-linejoin:miter;font-family:DroidSans" fill-opacity="1" id="text3328" stroke-width="0" d="M33.2101,36.3166L33.2101,35.0515L32.1761,35.0515L32.1761,34.5278L33.8369,34.5278L33.8369,36.55C33.5924,36.7246,33.3229,36.857,33.0284,36.9475C32.7338,37.0359,32.4194,37.08,32.0852,37.08C31.354,37.08,30.7816,36.8655,30.368,36.4364C29.9564,36.0052,29.7507,35.4059,29.7507,34.6382C29.7507,33.8684,29.9564,33.269,30.368,32.84C30.7816,32.4088,31.354,32.1932,32.0852,32.1932C32.3902,32.1932,32.6795,32.2311,32.9532,32.3068C33.229,32.3825,33.4828,32.494,33.7146,32.6412L33.7146,33.3195C33.4807,33.1197,33.2321,32.9693,32.9688,32.8683C32.7056,32.7674,32.4289,32.7169,32.1385,32.7169C31.566,32.7169,31.1357,32.8779,30.8474,33.1996C30.5612,33.5214,30.4182,34.0009,30.4182,34.6382C30.4182,35.2734,30.5612,35.7518,30.8474,36.0736C31.1357,36.3954,31.566,36.5563,32.1385,36.5563C32.362,36.5563,32.5615,36.5374,32.737,36.4995C32.9124,36.4595,33.0701,36.3986,33.2101,36.3166M34.9963,32.2784L35.8486,32.2784L37.923,36.2188L37.923,32.2784L38.5372,32.2784L38.5372,36.9885L37.6849,36.9885L35.6104,33.0482L35.6104,36.9885L34.9963,36.9885L34.9963,32.2784M40.4298,32.8021L40.4298,36.4649L41.1945,36.4649C41.8399,36.4649,42.3121,36.3176,42.6108,36.0232C42.9116,35.7287,43.062,35.2639,43.062,34.6287C43.062,33.9978,42.9116,33.5362,42.6108,33.2438C42.3121,32.9493,41.8399,32.8021,41.1945,32.8021L40.4298,32.8021M39.7969,32.2784L41.0973,32.2784C42.004,32.2784,42.6693,32.4687,43.0933,32.8494C43.5174,33.228,43.7295,33.8211,43.7295,34.6287C43.7295,35.4405,43.5164,36.0368,43.0902,36.4175C42.6641,36.7982,41.9998,36.9885,41.0973,36.9885L39.7969,36.9885L39.7969,32.2784" font-size="8px"/>
   <path stroke-opacity="1" fill="#000000"  stroke="none" style="font-style:normal;font-weight:normal;stroke-linecap:butt;stroke-linejoin:miter;font-family:DroidSans" fill-opacity="1" id="text3332" stroke-width="0" d="M19.9386,0.52559L22.9468,0.52559L22.9468,0.796903L21.2484,5.23571L20.5872,5.23571L22.1853,1.0619L19.9386,1.0619L19.9386,0.52559M25.5382,2.99895C25.2374,2.99895,25.0003,3.07993,24.8269,3.24187C24.6556,3.40383,24.57,3.62676,24.57,3.91069C24.57,4.19462,24.6556,4.41756,24.8269,4.57951C25.0003,4.74145,25.2374,4.82243,25.5382,4.82243C25.839,4.82243,26.0762,4.74145,26.2496,4.57951C26.4229,4.41546,26.5097,4.19252,26.5097,3.91069C26.5097,3.62676,26.4229,3.40383,26.2496,3.24187C26.0782,3.07993,25.8411,2.99895,25.5382,2.99895M24.9053,2.72764C24.6337,2.66034,24.4216,2.5331,24.2691,2.34591C24.1187,2.15873,24.0436,1.93053,24.0436,1.66132C24.0436,1.28485,24.1762,0.987246,24.4414,0.76851C24.7089,0.549781,25.0745,0.440416,25.5382,0.440411C26.0041,0.440416,26.3697,0.549781,26.635,0.76851C26.9002,0.987246,27.0329,1.28485,27.0329,1.66132C27.0329,1.93053,26.9567,2.15873,26.8042,2.34591C26.6538,2.5331,26.4438,2.66034,26.1743,2.72764C26.4793,2.79915,26.7165,2.93902,26.8856,3.14723C27.057,3.35545,27.1426,3.60993,27.1426,3.91069C27.1426,4.36709,27.0037,4.71727,26.7258,4.96124C26.4501,5.20521,26.0543,5.32719,25.5382,5.32719C25.0222,5.32719,24.6253,5.20521,24.3475,4.96124C24.0717,4.71727,23.9338,4.36709,23.9338,3.91069C23.9338,3.60993,24.0195,3.35545,24.1908,3.14723C24.3621,2.93902,24.6003,2.79915,24.9053,2.72764M24.6734,1.72126C24.6734,1.96524,24.7486,2.15557,24.899,2.29228C25.0515,2.42899,25.2646,2.49734,25.5382,2.49734C25.8098,2.49734,26.0218,2.42899,26.1743,2.29228C26.3289,2.15557,26.4063,1.96524,26.4063,1.72126C26.4063,1.47729,26.3289,1.28695,26.1743,1.15024C26.0218,1.01353,25.8098,0.945185,25.5382,0.945177C25.2646,0.945185,25.0515,1.01353,24.899,1.15024C24.7486,1.28695,24.6734,1.47729,24.6734,1.72126M29.6244,0.945177C29.2985,0.945185,29.053,1.10713,28.888,1.43102C28.7251,1.75281,28.6436,2.2376,28.6436,2.88538C28.6436,3.53107,28.7251,4.01586,28.888,4.33975C29.053,4.66154,29.2985,4.82243,29.6244,4.82243C29.9523,4.82243,30.1978,4.66154,30.3608,4.33975C30.5258,4.01586,30.6083,3.53107,30.6083,2.88538C30.6083,2.2376,30.5258,1.75281,30.3608,1.43102C30.1978,1.10713,29.9523,0.945185,29.6244,0.945177M29.6244,0.440411C30.1487,0.440416,30.5488,0.649684,30.8246,1.06822C31.1024,1.48466,31.2413,2.09038,31.2413,2.88538C31.2413,3.67829,31.1024,4.28401,30.8246,4.70255C30.5488,5.11898,30.1487,5.32719,29.6244,5.32719C29.1,5.32719,28.6989,5.11898,28.4211,4.70255C28.1453,4.28401,28.0075,3.67829,28.0075,2.88538C28.0075,2.09038,28.1453,1.48466,28.4211,1.06822C28.6989,0.649684,29.1,0.440416,29.6244,0.440411M32.3631,0.52559L34.848,0.52559L34.848,1.0619L32.9428,1.0619L32.9428,2.21656C33.0347,2.18502,33.1267,2.16189,33.2186,2.14715C33.3105,2.13033,33.4024,2.12192,33.4943,2.12192C34.0165,2.12192,34.4302,2.26599,34.7352,2.55413C35.0402,2.84227,35.1927,3.23241,35.1927,3.72456C35.1927,4.23143,35.0361,4.62578,34.7227,4.90761C34.4093,5.18734,33.9675,5.32719,33.3972,5.32719C33.2008,5.32719,33.0003,5.31037,32.7955,5.27672C32.5929,5.24307,32.383,5.1926,32.1657,5.12529L32.1657,4.48487C32.3537,4.58792,32.548,4.66469,32.7485,4.71517C32.9491,4.76564,33.1611,4.79088,33.3847,4.79088C33.7461,4.79088,34.0323,4.69518,34.2432,4.50379C34.4542,4.3124,34.5597,4.05266,34.5597,3.72456C34.5597,3.39646,34.4542,3.13672,34.2432,2.94533C34.0323,2.75393,33.7461,2.65824,33.3847,2.65824C33.2154,2.65824,33.0462,2.67717,32.877,2.71502C32.7099,2.75288,32.5386,2.81177,32.3631,2.89169L32.3631,0.52559" font-size="8px"/>
  </g>
 </g>
 <g transform="translate(133.334,293.866)">
  <g fill="#000000" font-family="'DroidSans'" stroke="none" font-style="normal" fill-opacity="1" font-weight="500" id="schematicLabel" font-size="9">
   <text x="0" y="6.675">LED1</text>
  </g>
 </g>
 <g transform="translate(97.3336,276.266)">
  <g  id="schematic" stroke-width="0">
   <rect width="0.208" x="10.632" y="0.525"  height="0.208" id="connector1terminal" stroke-width="0"/>
   <rect width="0.208" x="10.648" y="64.314"  height="0.207" id="connector0terminal" stroke-width="0"/>
   <rect width="1.375" x="10.028" y="0.421"  height="10.339" id="connector1pin" stroke-width="0"/>
   <rect width="1.375" x="10.028" y="53"  height="11.767" id="connector0pin" stroke-width="0"/>
   <line fill="none"  stroke="#000000" stroke-linecap="round" y1="41.171" stroke-width="2.4" x1="10.752" y2="64.123" x2="10.752"/>
   <line fill="none"  stroke="#000000" stroke-linecap="round" y1="41.683" stroke-width="2.4" x1="21.171" y2="41.683" x2="0.333"/>
   <line fill="none"  stroke="#000000" stroke-linecap="round" y1="0.731" stroke-width="2.4" x1="10.752" y2="22.393" x2="10.752"/>
   <polygon fill="none" points="10.752,41.638,5.486,32.515,0.218,23.393,10.752,23.393,21.285,23.393,16.02,32.515"  stroke="#000000" stroke-linejoin="round" stroke-linecap="round" stroke-width="2.4"/>
   <path  stroke-width="0" d="M27.775,47.148l2.558,-2.037l1.465,-1.169l1.091,-0.871l3.461,9.58L27.775,47.148L27.775,47.148z"/>
   <path  stroke-width="0" d="M21.226,52.138l2.556,-2.039l1.464,-1.168l1.09,-0.87l3.469,9.581L21.226,52.138L21.226,52.138z"/>
   <line fill="none"  stroke="#000000" stroke-linecap="round" y1="37.577" stroke-width="2.4" x1="24.281" y2="48.061" x2="32.948"/>
   <line fill="none"  stroke="#000000" stroke-linecap="round" y1="45.54" stroke-width="2.4" x1="19.948" y2="52.274" x2="25.515"/>
  </g>
 </g>
 <g transform="translate(122.134,113.866)">
  <g fill="#000000" font-family="'DroidSans'" stroke="none" font-style="normal" fill-opacity="1" font-weight="500" id="schematicLabel" font-size="9">
   <text x="0" y="6.675">LED1</text>
  </g>
 </g>
 <g transform="translate(137.811,127.377)">
  <g transform="matrix(0,1,-1,0,0,0)">
   <g  id="schematic" stroke-width="0">
    <rect width="0.208" x="10.632" y="0.525"  height="0.208" id="connector1terminal" stroke-width="0"/>
    <rect width="0.208" x="10.648" y="64.314"  height="0.207" id="connector0terminal" stroke-width="0"/>
    <rect width="1.375" x="10.028" y="0.421"  height="10.339" id="connector1pin" stroke-width="0"/>
    <rect width="1.375" x="10.028" y="53"  height="11.767" id="connector0pin" stroke-width="0"/>
    <line fill="none"  stroke="#000000" stroke-linecap="round" y1="41.171" stroke-width="2.4" x1="10.752" y2="64.123" x2="10.752"/>
    <line fill="none"  stroke="#000000" stroke-linecap="round" y1="41.683" stroke-width="2.4" x1="21.171" y2="41.683" x2="0.333"/>
    <line fill="none"  stroke="#000000" stroke-linecap="round" y1="0.731" stroke-width="2.4" x1="10.752" y2="22.393" x2="10.752"/>
    <polygon fill="none" points="10.752,41.638,5.486,32.515,0.218,23.393,10.752,23.393,21.285,23.393,16.02,32.515"  stroke="#000000" stroke-linejoin="round" stroke-linecap="round" stroke-width="2.4"/>
    <path  stroke-width="0" d="M27.775,47.148l2.558,-2.037l1.465,-1.169l1.091,-0.871l3.461,9.58L27.775,47.148L27.775,47.148z"/>
    <path  stroke-width="0" d="M21.226,52.138l2.556,-2.039l1.464,-1.168l1.09,-0.87l3.469,9.581L21.226,52.138L21.226,52.138z"/>
    <line fill="none"  stroke="#000000" stroke-linecap="round" y1="37.577" stroke-width="2.4" x1="24.281" y2="48.061" x2="32.948"/>
    <line fill="none"  stroke="#000000" stroke-linecap="round" y1="45.54" stroke-width="2.4" x1="19.948" y2="52.274" x2="25.515"/>
   </g>
  </g>
 </g>
 <g transform="translate(169.302,94.9336)">
  <g fill="#000000" font-family="'DroidSans'" stroke="none" font-style="normal" fill-opacity="1" font-weight="500" id="schematicLabel" font-size="9">
   <text x="0" y="6.675">560 ohm</text>
  </g>
 </g>
 <g transform="translate(168.293,138.509)">
  <g transform="matrix(-1,0,0,-1,0,0)">
   <g  id="schematic" stroke-width="0">
    <rect width="1.893" x="5.474" y="1.089"  height="9.783" id="connector0pin" stroke-width="0"/>
    <rect width="0.866" x="5.952" y="0.406"  height="0.686" id="connector0terminal" stroke-width="0"/>
    <rect width="1.894" x="5.477" y="54.369"  height="9.783" id="connector1pin" stroke-width="0"/>
    <rect width="0.866" x="5.956" y="64.082"  height="0.688" id="connector1terminal" stroke-width="0"/>
    <g  stroke-width="0">
     <polyline fill="#FFFFFF" points="6.405,1.132,6.405,20.392,9.905,22.255,2.655,26.291,9.905,30.324,2.655,34.359,9.905,38.392,2.655,42.427,6.405,44.599,6.405,63.861"  stroke="#000000" stroke-linecap="round" stroke-width="2.2284"/>
    </g>
   </g>
  </g>
 </g>
 <g transform="translate(162.672,22.4)">
  <g fill="#000000" font-family="'DroidSans'" stroke="none" font-style="normal" fill-opacity="1" font-weight="500" id="schematicLabel" font-size="9">
   <text x="0" y="6.675">S1</text>
  </g>
 </g>
 <g transform="translate(103.2,31.2)">
  <g  id="schematic" stroke-width="0">
   <rect width="8" x="50.7584" y="0.104"  height="1.6" id="connector0pin" stroke-width="0"/>
   <rect width="8" x="50.7584" y="25.7048"  height="1.6" id="connector1pin" stroke-width="0"/>
   <rect width="8" x="0.5848" y="0.1072"  height="1.6" id="connector2pin" stroke-width="0"/>
   <rect width="8" x="0.5848" y="25.708"  height="1.6" id="connector3pin" stroke-width="0"/>
   <rect width="0.5472" x="58.672" y="0.5304"  height="0.6928" id="connector0terminal" stroke-width="0"/>
   <rect width="0.5472" x="58.672" y="26.1312"  height="0.6928" id="connector1terminal" stroke-width="0"/>
   <rect width="0.5504" x="0.1768" y="0.5328"  height="0.6928" id="connector2terminal" stroke-width="0"/>
   <rect width="0.5504" x="0.1768" y="26.1328"  height="0.6928" id="connector3terminal" stroke-width="0"/>
   <path fill="none"  stroke="#000000" stroke-linecap="round" stroke-width="1.6" d="M5.7048,13.6928"/>
   <path fill="none"  stroke="#000000" stroke-linecap="round" stroke-width="1.6" d="M20.0272,13.6928"/>
   <polyline fill="none" points="58.6384,0.8928,48.1928,0.8928,48.1928,26.4928,58.6384,26.4928"  stroke="#000000" stroke-linejoin="round" stroke-linecap="round" stroke-width="1.6"/>
   <line fill="none"  stroke="#000000" stroke-linecap="round" y1="13.6928" stroke-width="1.6" x1="39.3928" y2="13.6928" x2="48.1928"/>
   <polyline fill="none" points="0.7824,26.4928,11.2272,26.4928,11.2272,0.8928,0.7824,0.8928"  stroke="#000000" stroke-linejoin="round" stroke-linecap="round" stroke-width="1.6"/>
   <polyline fill="none" points="38.196,6.0304,20.0272,13.6928,11.2272,13.6928"  stroke="#000000" stroke-linecap="round" stroke-width="1.6"/>
  </g>
 </g>
 <line stroke="#000000" style="stroke-linecap: round" y1="138.129" x1="36.8286" y2="138.129" stroke-width="2.4" x2="73.3931"/>
 <line stroke="#000000" style="stroke-linecap: round" y1="68.1455" x1="36.8286" y2="138.129" stroke-width="2.4" x2="36.8286"/>
 <line stroke="#000000" style="stroke-linecap: round" y1="137.76" x1="161.908" y2="138.113" stroke-width="2.4" x2="137.182"/>
 <line stroke="#000000" style="stroke-linecap: round" y1="74.0826" x1="161.904" y2="57.6776" stroke-width="2.4" x2="162.146"/>
 <line stroke="#000000" style="stroke-linecap: round" y1="32.2641" x1="73.4004" y2="32.0792" stroke-width="2.4" x2="103.652"/>
</svg>
